<svg width="736" height="74" viewBox="0 0 736 74" fill="none" xmlns="http://www.w3.org/2000/svg">
<rect width="736" height="74" rx="10" fill="white"/>
<path d="M74.786 20.653C74.786 19.973 74.5877 19.446 74.191 19.072C73.8057 18.6867 73.2617 18.494 72.559 18.494H69.125V17.1H72.61C73.732 17.1 74.6273 17.423 75.296 18.069C75.9647 18.7037 76.299 19.565 76.299 20.653H74.786ZM68.326 29V17.1H69.771V29H68.326ZM69.125 24.189V22.812H72.559C73.2617 22.812 73.8057 22.6193 74.191 22.234C74.5877 21.8487 74.786 21.3217 74.786 20.653H76.299C76.299 21.7297 75.9647 22.591 75.296 23.237C74.6273 23.8717 73.732 24.189 72.61 24.189H69.125ZM85.4313 20.483V29H84.0373V26.603L84.4453 26.858C84.2867 27.334 84.0373 27.7533 83.6973 28.116C83.3687 28.4673 82.972 28.7393 82.5073 28.932C82.054 29.1247 81.561 29.221 81.0283 29.221C80.4163 29.221 79.8723 29.0907 79.3963 28.83C78.9203 28.5693 78.5407 28.184 78.2573 27.674C77.9853 27.1527 77.8493 26.5123 77.8493 25.753V20.483H79.2943V25.379C79.2943 25.991 79.385 26.4783 79.5663 26.841C79.759 27.1923 80.0083 27.4473 80.3143 27.606C80.6317 27.7533 80.9887 27.827 81.3853 27.827C81.8273 27.827 82.241 27.7193 82.6263 27.504C83.023 27.2887 83.346 26.9713 83.5953 26.552C83.856 26.1327 83.9863 25.617 83.9863 25.005V20.483H85.4313ZM92.1998 29.221C91.6105 29.221 91.0665 29.102 90.5678 28.864C90.0805 28.626 89.6612 28.2973 89.3098 27.878C88.9698 27.4587 88.7205 26.9827 88.5618 26.45V23.033C88.7205 22.489 88.9698 22.013 89.3098 21.605C89.6612 21.1857 90.0805 20.857 90.5678 20.619C91.0665 20.381 91.6105 20.262 92.1998 20.262C92.9705 20.262 93.6562 20.4547 94.2568 20.84C94.8575 21.2253 95.3392 21.758 95.7018 22.438C96.0645 23.1067 96.2458 23.8717 96.2458 24.733C96.2458 25.6057 96.0645 26.382 95.7018 27.062C95.3392 27.7307 94.8575 28.2577 94.2568 28.643C93.6562 29.0283 92.9705 29.221 92.1998 29.221ZM87.8308 29V16.76L89.2248 16.59L89.2758 16.726V23.526L88.9698 24.733L89.2248 25.957V29H87.8308ZM92.0978 27.844C92.6192 27.844 93.0838 27.7137 93.4918 27.453C93.8998 27.181 94.2172 26.8127 94.4438 26.348C94.6818 25.8833 94.8008 25.345 94.8008 24.733C94.8008 24.121 94.6818 23.5827 94.4438 23.118C94.2172 22.6533 93.8998 22.2907 93.4918 22.03C93.0838 21.7693 92.6192 21.639 92.0978 21.639C91.5538 21.639 91.0665 21.7693 90.6358 22.03C90.2165 22.2907 89.8822 22.6533 89.6328 23.118C89.3948 23.5827 89.2758 24.121 89.2758 24.733C89.2758 25.345 89.3948 25.8833 89.6328 26.348C89.8822 26.8127 90.2165 27.181 90.6358 27.453C91.0665 27.7137 91.5538 27.844 92.0978 27.844ZM96.916 30.615L102.713 16.012H104.26L98.463 30.615H96.916ZM109.128 29.221C108.335 29.221 107.61 29.0737 106.952 28.779C106.306 28.4843 105.762 28.0707 105.32 27.538C104.89 27.0053 104.601 26.3877 104.453 25.685L105.796 25.362L105.983 25.396C106.108 25.8493 106.323 26.263 106.629 26.637C106.935 26.9997 107.304 27.2887 107.734 27.504C108.176 27.7193 108.641 27.827 109.128 27.827C109.661 27.827 110.126 27.742 110.522 27.572C110.93 27.402 111.248 27.164 111.474 26.858C111.712 26.552 111.831 26.2007 111.831 25.804C111.831 25.2713 111.678 24.8633 111.372 24.58C111.078 24.2967 110.664 24.0813 110.131 23.934L107.836 23.305C106.896 23.0443 106.182 22.6307 105.694 22.064C105.207 21.4973 104.963 20.8457 104.963 20.109C104.963 19.4743 105.128 18.919 105.456 18.443C105.785 17.9557 106.238 17.576 106.816 17.304C107.406 17.0207 108.086 16.879 108.856 16.879C109.593 16.879 110.262 17.0207 110.862 17.304C111.474 17.576 111.973 17.9613 112.358 18.46C112.755 18.9587 113.016 19.548 113.14 20.228L111.831 20.517L111.644 20.483C111.497 19.803 111.168 19.2647 110.658 18.868C110.16 18.4713 109.553 18.273 108.839 18.273C108.137 18.273 107.57 18.443 107.139 18.783C106.709 19.1117 106.493 19.5537 106.493 20.109C106.493 20.551 106.646 20.9193 106.952 21.214C107.258 21.5087 107.7 21.7353 108.278 21.894L110.556 22.523C111.452 22.7723 112.143 23.169 112.63 23.713C113.118 24.257 113.361 24.9257 113.361 25.719C113.361 26.4217 113.186 27.0337 112.834 27.555C112.483 28.0763 111.99 28.4843 111.355 28.779C110.721 29.0737 109.978 29.221 109.128 29.221ZM122.835 20.483V29H121.441V26.603L121.849 26.858C121.69 27.334 121.441 27.7533 121.101 28.116C120.772 28.4673 120.375 28.7393 119.911 28.932C119.457 29.1247 118.964 29.221 118.432 29.221C117.82 29.221 117.276 29.0907 116.8 28.83C116.324 28.5693 115.944 28.184 115.661 27.674C115.389 27.1527 115.253 26.5123 115.253 25.753V20.483H116.698V25.379C116.698 25.991 116.788 26.4783 116.97 26.841C117.162 27.1923 117.412 27.4473 117.718 27.606C118.035 27.7533 118.392 27.827 118.789 27.827C119.231 27.827 119.644 27.7193 120.03 27.504C120.426 27.2887 120.749 26.9713 120.999 26.552C121.259 26.1327 121.39 25.617 121.39 25.005V20.483H122.835ZM129.603 29.221C129.014 29.221 128.47 29.102 127.971 28.864C127.484 28.626 127.064 28.2973 126.713 27.878C126.373 27.4587 126.124 26.9827 125.965 26.45V23.033C126.124 22.489 126.373 22.013 126.713 21.605C127.064 21.1857 127.484 20.857 127.971 20.619C128.47 20.381 129.014 20.262 129.603 20.262C130.374 20.262 131.059 20.4547 131.66 20.84C132.261 21.2253 132.742 21.758 133.105 22.438C133.468 23.1067 133.649 23.8717 133.649 24.733C133.649 25.6057 133.468 26.382 133.105 27.062C132.742 27.7307 132.261 28.2577 131.66 28.643C131.059 29.0283 130.374 29.221 129.603 29.221ZM125.234 29V16.76L126.628 16.59L126.679 16.726V23.526L126.373 24.733L126.628 25.957V29H125.234ZM129.501 27.844C130.022 27.844 130.487 27.7137 130.895 27.453C131.303 27.181 131.62 26.8127 131.847 26.348C132.085 25.8833 132.204 25.345 132.204 24.733C132.204 24.121 132.085 23.5827 131.847 23.118C131.62 22.6533 131.303 22.2907 130.895 22.03C130.487 21.7693 130.022 21.639 129.501 21.639C128.957 21.639 128.47 21.7693 128.039 22.03C127.62 22.2907 127.285 22.6533 127.036 23.118C126.798 23.5827 126.679 24.121 126.679 24.733C126.679 25.345 126.798 25.8833 127.036 26.348C127.285 26.8127 127.62 27.181 128.039 27.453C128.47 27.7137 128.957 27.844 129.501 27.844Z" fill="black"/>
<path d="M68.321 55V44.0909H72.0071C72.8594 44.0909 73.5589 44.2365 74.1058 44.5277C74.6527 44.8153 75.0575 45.2113 75.3203 45.7156C75.5831 46.2198 75.7145 46.7933 75.7145 47.4361C75.7145 48.0788 75.5831 48.6488 75.3203 49.146C75.0575 49.6431 74.6545 50.0337 74.1112 50.3178C73.5678 50.5984 72.8736 50.7386 72.0284 50.7386H69.0455V49.5455H71.9858C72.5682 49.5455 73.0369 49.4602 73.392 49.2898C73.7507 49.1193 74.0099 48.8778 74.1697 48.5653C74.3331 48.2493 74.4148 47.8729 74.4148 47.4361C74.4148 46.9993 74.3331 46.6175 74.1697 46.2908C74.0064 45.9641 73.7454 45.712 73.3867 45.5344C73.0281 45.3533 72.554 45.2628 71.9645 45.2628H69.642V55H68.321ZM73.456 50.0994L76.1406 55H74.6065L71.9645 50.0994H73.456ZM81.0878 55.1705C80.2994 55.1705 79.6194 54.9964 79.0477 54.6484C78.4795 54.2969 78.0409 53.8068 77.732 53.1783C77.4266 52.5462 77.2739 51.8111 77.2739 50.973C77.2739 50.1349 77.4266 49.3963 77.732 48.7571C78.0409 48.1143 78.4706 47.6136 79.021 47.255C79.575 46.8928 80.2213 46.7116 80.96 46.7116C81.3861 46.7116 81.8069 46.7827 82.2224 46.9247C82.6379 47.0668 83.0161 47.2976 83.357 47.6172C83.6979 47.9332 83.9695 48.3523 84.172 48.8743C84.3744 49.3963 84.4756 50.0391 84.4756 50.8026V51.3352H78.1688V50.2486H83.1972C83.1972 49.7869 83.1048 49.375 82.9202 49.0128C82.7391 48.6506 82.4798 48.3647 82.1425 48.1552C81.8087 47.9457 81.4145 47.8409 80.96 47.8409C80.4593 47.8409 80.026 47.9652 79.6602 48.2138C79.298 48.4588 79.0193 48.7784 78.824 49.1726C78.6286 49.5668 78.531 49.9893 78.531 50.4403V51.1648C78.531 51.7827 78.6375 52.3065 78.8506 52.7362C79.0672 53.1623 79.3673 53.4872 79.7508 53.7109C80.1343 53.9311 80.58 54.0412 81.0878 54.0412C81.4181 54.0412 81.7164 53.995 81.9827 53.9027C82.2526 53.8068 82.4852 53.6648 82.6805 53.4766C82.8758 53.2848 83.0267 53.0469 83.1333 52.7628L84.3477 53.1037C84.2199 53.5156 84.0051 53.8778 83.7032 54.1903C83.4014 54.4993 83.0285 54.7408 82.5846 54.9148C82.1407 55.0852 81.6418 55.1705 81.0878 55.1705ZM88.7955 55.1918C88.2771 55.1918 87.8066 55.0941 87.384 54.8988C86.9614 54.6999 86.6258 54.4141 86.3772 54.0412C86.1286 53.6648 86.0044 53.2102 86.0044 52.6776C86.0044 52.2088 86.0967 51.8288 86.2813 51.5376C86.466 51.2429 86.7128 51.0121 87.0218 50.8452C87.3307 50.6783 87.6716 50.554 88.0445 50.4723C88.4209 50.3871 88.7991 50.3196 89.1791 50.2699C89.6762 50.206 90.0793 50.158 90.3882 50.1261C90.7007 50.0906 90.928 50.032 91.07 49.9503C91.2156 49.8686 91.2884 49.7266 91.2884 49.5241V49.4815C91.2884 48.956 91.1446 48.5476 90.857 48.2564C90.5729 47.9652 90.1414 47.8196 89.5626 47.8196C88.9624 47.8196 88.4919 47.951 88.151 48.2138C87.8101 48.4766 87.5704 48.7571 87.4319 49.0554L86.2387 48.6293C86.4518 48.1321 86.7359 47.745 87.091 47.468C87.4497 47.1875 87.8403 46.9922 88.2629 46.8821C88.689 46.7685 89.108 46.7116 89.52 46.7116C89.7828 46.7116 90.0846 46.7436 90.4255 46.8075C90.77 46.8679 91.102 46.994 91.4216 47.1857C91.7448 47.3775 92.0129 47.6669 92.2259 48.054C92.439 48.4411 92.5455 48.9595 92.5455 49.6094V55H91.2884V53.892H91.2245C91.1393 54.0696 90.9972 54.2596 90.7984 54.462C90.5995 54.6644 90.335 54.8366 90.0047 54.9787C89.6744 55.1207 89.2714 55.1918 88.7955 55.1918ZM88.9873 54.0625C89.4845 54.0625 89.9035 53.9648 90.2444 53.7695C90.5889 53.5742 90.8481 53.3221 91.0221 53.0131C91.1997 52.7042 91.2884 52.3793 91.2884 52.0384V50.8878C91.2352 50.9517 91.118 51.0103 90.9369 51.0636C90.7593 51.1133 90.5534 51.1577 90.319 51.1967C90.0882 51.2322 89.8627 51.2642 89.6425 51.2926C89.4259 51.3175 89.2501 51.3388 89.1151 51.3565C88.7884 51.3991 88.483 51.4684 88.199 51.5643C87.9184 51.6566 87.6911 51.7969 87.5171 51.9851C87.3467 52.1697 87.2615 52.4219 87.2615 52.7415C87.2615 53.1783 87.423 53.5085 87.7462 53.7322C88.0729 53.9524 88.4866 54.0625 88.9873 54.0625ZM96.0971 44.0909V55H94.84V44.0909H96.0971ZM103.087 49.7372V50.9091H98.3144V49.7372H103.087ZM103.76 45.2628V44.0909H111.941V45.2628H108.511V55H107.19V45.2628H103.76ZM113.81 55V46.8182H115.067V55H113.81ZM114.449 45.4545C114.204 45.4545 113.993 45.3711 113.815 45.2042C113.641 45.0373 113.554 44.8366 113.554 44.6023C113.554 44.3679 113.641 44.1673 113.815 44.0004C113.993 43.8335 114.204 43.75 114.449 43.75C114.694 43.75 114.903 43.8335 115.078 44.0004C115.255 44.1673 115.344 44.3679 115.344 44.6023C115.344 44.8366 115.255 45.0373 115.078 45.2042C114.903 45.3711 114.694 45.4545 114.449 45.4545ZM117.369 55V46.8182H118.584V48.0966H118.69C118.861 47.6598 119.136 47.3207 119.516 47.0792C119.896 46.8342 120.352 46.7116 120.885 46.7116C121.425 46.7116 121.874 46.8342 122.233 47.0792C122.595 47.3207 122.877 47.6598 123.08 48.0966H123.165C123.374 47.674 123.689 47.3384 124.108 47.0898C124.527 46.8377 125.029 46.7116 125.615 46.7116C126.347 46.7116 126.945 46.9407 127.41 47.3988C127.875 47.8533 128.108 48.5618 128.108 49.5241V55H126.851V49.5241C126.851 48.9205 126.686 48.489 126.355 48.2298C126.025 47.9705 125.636 47.8409 125.189 47.8409C124.614 47.8409 124.168 48.0149 123.852 48.3629C123.536 48.7074 123.378 49.1442 123.378 49.6733V55H122.099V49.3963C122.099 48.9311 121.949 48.5565 121.647 48.2724C121.345 47.9847 120.956 47.8409 120.48 47.8409C120.153 47.8409 119.848 47.9279 119.564 48.1019C119.283 48.2759 119.056 48.5174 118.882 48.8263C118.712 49.1317 118.626 49.4851 118.626 49.8864V55H117.369ZM133.837 55.1705C133.048 55.1705 132.368 54.9964 131.797 54.6484C131.229 54.2969 130.79 53.8068 130.481 53.1783C130.176 52.5462 130.023 51.8111 130.023 50.973C130.023 50.1349 130.176 49.3963 130.481 48.7571C130.79 48.1143 131.22 47.6136 131.77 47.255C132.324 46.8928 132.97 46.7116 133.709 46.7116C134.135 46.7116 134.556 46.7827 134.971 46.9247C135.387 47.0668 135.765 47.2976 136.106 47.6172C136.447 47.9332 136.719 48.3523 136.921 48.8743C137.123 49.3963 137.225 50.0391 137.225 50.8026V51.3352H130.918V50.2486H135.946C135.946 49.7869 135.854 49.375 135.669 49.0128C135.488 48.6506 135.229 48.3647 134.892 48.1552C134.558 47.9457 134.164 47.8409 133.709 47.8409C133.208 47.8409 132.775 47.9652 132.409 48.2138C132.047 48.4588 131.768 48.7784 131.573 49.1726C131.378 49.5668 131.28 49.9893 131.28 50.4403V51.1648C131.28 51.7827 131.387 52.3065 131.6 52.7362C131.816 53.1623 132.116 53.4872 132.5 53.7109C132.883 53.9311 133.329 54.0412 133.837 54.0412C134.167 54.0412 134.465 53.995 134.732 53.9027C135.002 53.8068 135.234 53.6648 135.43 53.4766C135.625 53.2848 135.776 53.0469 135.882 52.7628L137.097 53.1037C136.969 53.5156 136.754 53.8778 136.452 54.1903C136.15 54.4993 135.778 54.7408 135.334 54.9148C134.89 55.0852 134.391 55.1705 133.837 55.1705ZM146.786 55.1705C145.998 55.1705 145.318 54.9964 144.746 54.6484C144.178 54.2969 143.739 53.8068 143.43 53.1783C143.125 52.5462 142.972 51.8111 142.972 50.973C142.972 50.1349 143.125 49.3963 143.43 48.7571C143.739 48.1143 144.169 47.6136 144.719 47.255C145.273 46.8928 145.92 46.7116 146.658 46.7116C147.084 46.7116 147.505 46.7827 147.921 46.9247C148.336 47.0668 148.714 47.2976 149.055 47.6172C149.396 47.9332 149.668 48.3523 149.87 48.8743C150.073 49.3963 150.174 50.0391 150.174 50.8026V51.3352H143.867V50.2486H148.895C148.895 49.7869 148.803 49.375 148.618 49.0128C148.437 48.6506 148.178 48.3647 147.841 48.1552C147.507 47.9457 147.113 47.8409 146.658 47.8409C146.157 47.8409 145.724 47.9652 145.358 48.2138C144.996 48.4588 144.718 48.7784 144.522 49.1726C144.327 49.5668 144.229 49.9893 144.229 50.4403V51.1648C144.229 51.7827 144.336 52.3065 144.549 52.7362C144.765 53.1623 145.066 53.4872 145.449 53.7109C145.833 53.9311 146.278 54.0412 146.786 54.0412C147.116 54.0412 147.415 53.995 147.681 53.9027C147.951 53.8068 148.183 53.6648 148.379 53.4766C148.574 53.2848 148.725 53.0469 148.831 52.7628L150.046 53.1037C149.918 53.5156 149.703 53.8778 149.401 54.1903C149.1 54.4993 148.727 54.7408 148.283 54.9148C147.839 55.0852 147.34 55.1705 146.786 55.1705ZM158.527 46.8182L155.502 55H154.223L151.198 46.8182H152.562L154.82 53.3381H154.905L157.164 46.8182H158.527ZM163.324 55.1705C162.536 55.1705 161.856 54.9964 161.284 54.6484C160.716 54.2969 160.277 53.8068 159.968 53.1783C159.663 52.5462 159.51 51.8111 159.51 50.973C159.51 50.1349 159.663 49.3963 159.968 48.7571C160.277 48.1143 160.707 47.6136 161.257 47.255C161.811 46.8928 162.458 46.7116 163.196 46.7116C163.622 46.7116 164.043 46.7827 164.459 46.9247C164.874 47.0668 165.252 47.2976 165.593 47.6172C165.934 47.9332 166.206 48.3523 166.408 48.8743C166.611 49.3963 166.712 50.0391 166.712 50.8026V51.3352H160.405V50.2486H165.434C165.434 49.7869 165.341 49.375 165.157 49.0128C164.975 48.6506 164.716 48.3647 164.379 48.1552C164.045 47.9457 163.651 47.8409 163.196 47.8409C162.696 47.8409 162.262 47.9652 161.897 48.2138C161.534 48.4588 161.256 48.7784 161.06 49.1726C160.865 49.5668 160.767 49.9893 160.767 50.4403V51.1648C160.767 51.7827 160.874 52.3065 161.087 52.7362C161.304 53.1623 161.604 53.4872 161.987 53.7109C162.371 53.9311 162.816 54.0412 163.324 54.0412C163.654 54.0412 163.953 53.995 164.219 53.9027C164.489 53.8068 164.722 53.6648 164.917 53.4766C165.112 53.2848 165.263 53.0469 165.37 52.7628L166.584 53.1037C166.456 53.5156 166.241 53.8778 165.94 54.1903C165.638 54.4993 165.265 54.7408 164.821 54.9148C164.377 55.0852 163.878 55.1705 163.324 55.1705ZM169.881 50.0781V55H168.624V46.8182H169.839V48.0966H169.945C170.137 47.6811 170.428 47.3473 170.819 47.0952C171.209 46.8395 171.714 46.7116 172.332 46.7116C172.886 46.7116 173.37 46.8253 173.786 47.0526C174.201 47.2763 174.524 47.6172 174.755 48.0753C174.986 48.5298 175.101 49.1051 175.101 49.8011V55H173.844V49.8864C173.844 49.2436 173.677 48.7429 173.344 48.3842C173.01 48.022 172.552 47.8409 171.969 47.8409C171.568 47.8409 171.209 47.9279 170.893 48.1019C170.581 48.2759 170.334 48.5298 170.153 48.8636C169.972 49.1974 169.881 49.6023 169.881 50.0781ZM180.957 46.8182V47.8835H176.717V46.8182H180.957ZM177.953 44.858H179.21V52.6562C179.21 53.0114 179.261 53.2777 179.364 53.4553C179.471 53.6293 179.606 53.7464 179.769 53.8068C179.936 53.8636 180.112 53.892 180.296 53.892C180.435 53.892 180.548 53.8849 180.637 53.8707C180.726 53.853 180.797 53.8388 180.85 53.8281L181.106 54.9574C181.021 54.9893 180.902 55.0213 180.749 55.0533C180.596 55.0888 180.403 55.1065 180.169 55.1065C179.813 55.1065 179.465 55.0302 179.124 54.8775C178.787 54.7248 178.507 54.4922 178.283 54.1797C178.063 53.8672 177.953 53.473 177.953 52.9972V44.858ZM188.497 48.6506L187.368 48.9702C187.297 48.782 187.192 48.5991 187.053 48.4215C186.918 48.2404 186.734 48.0913 186.499 47.9741C186.265 47.8569 185.965 47.7983 185.599 47.7983C185.098 47.7983 184.681 47.9137 184.347 48.1445C184.017 48.3718 183.852 48.6612 183.852 49.0128C183.852 49.3253 183.966 49.5721 184.193 49.7532C184.42 49.9343 184.775 50.0852 185.258 50.206L186.473 50.5043C187.204 50.6818 187.749 50.9535 188.108 51.3192C188.467 51.6815 188.646 52.1484 188.646 52.7202C188.646 53.1889 188.511 53.608 188.241 53.9773C187.975 54.3466 187.602 54.6378 187.123 54.8509C186.643 55.0639 186.086 55.1705 185.45 55.1705C184.615 55.1705 183.925 54.9893 183.378 54.6271C182.831 54.2649 182.485 53.7358 182.339 53.0398L183.532 52.7415C183.646 53.1818 183.861 53.5121 184.177 53.7322C184.496 53.9524 184.914 54.0625 185.429 54.0625C186.015 54.0625 186.48 53.9382 186.824 53.6896C187.172 53.4375 187.346 53.1357 187.346 52.7841C187.346 52.5 187.247 52.2621 187.048 52.0703C186.849 51.875 186.544 51.7294 186.132 51.6335L184.768 51.3139C184.019 51.1364 183.468 50.8612 183.117 50.4883C182.769 50.1119 182.595 49.6413 182.595 49.0767C182.595 48.6151 182.724 48.2067 182.984 47.8516C183.246 47.4964 183.603 47.2177 184.054 47.0153C184.509 46.8129 185.024 46.7116 185.599 46.7116C186.409 46.7116 187.044 46.8892 187.506 47.2443C187.971 47.5994 188.301 48.0682 188.497 48.6506ZM197.165 55.1918C196.646 55.1918 196.176 55.0941 195.753 54.8988C195.331 54.6999 194.995 54.4141 194.746 54.0412C194.498 53.6648 194.373 53.2102 194.373 52.6776C194.373 52.2088 194.466 51.8288 194.65 51.5376C194.835 51.2429 195.082 51.0121 195.391 50.8452C195.7 50.6783 196.041 50.554 196.414 50.4723C196.79 50.3871 197.168 50.3196 197.548 50.2699C198.045 50.206 198.448 50.158 198.757 50.1261C199.07 50.0906 199.297 50.032 199.439 49.9503C199.585 49.8686 199.658 49.7266 199.658 49.5241V49.4815C199.658 48.956 199.514 48.5476 199.226 48.2564C198.942 47.9652 198.511 47.8196 197.932 47.8196C197.332 47.8196 196.861 47.951 196.52 48.2138C196.179 48.4766 195.94 48.7571 195.801 49.0554L194.608 48.6293C194.821 48.1321 195.105 47.745 195.46 47.468C195.819 47.1875 196.209 46.9922 196.632 46.8821C197.058 46.7685 197.477 46.7116 197.889 46.7116C198.152 46.7116 198.454 46.7436 198.795 46.8075C199.139 46.8679 199.471 46.994 199.791 47.1857C200.114 47.3775 200.382 47.6669 200.595 48.054C200.808 48.4411 200.915 48.9595 200.915 49.6094V55H199.658V53.892H199.594C199.508 54.0696 199.366 54.2596 199.168 54.462C198.969 54.6644 198.704 54.8366 198.374 54.9787C198.044 55.1207 197.641 55.1918 197.165 55.1918ZM197.356 54.0625C197.854 54.0625 198.273 53.9648 198.614 53.7695C198.958 53.5742 199.217 53.3221 199.391 53.0131C199.569 52.7042 199.658 52.3793 199.658 52.0384V50.8878C199.604 50.9517 199.487 51.0103 199.306 51.0636C199.128 51.1133 198.922 51.1577 198.688 51.1967C198.457 51.2322 198.232 51.2642 198.012 51.2926C197.795 51.3175 197.619 51.3388 197.484 51.3565C197.158 51.3991 196.852 51.4684 196.568 51.5643C196.288 51.6566 196.06 51.7969 195.886 51.9851C195.716 52.1697 195.631 52.4219 195.631 52.7415C195.631 53.1783 195.792 53.5085 196.115 53.7322C196.442 53.9524 196.856 54.0625 197.356 54.0625ZM204.466 50.0781V55H203.209V46.8182H204.424V48.0966H204.53C204.722 47.6811 205.013 47.3473 205.404 47.0952C205.794 46.8395 206.299 46.7116 206.917 46.7116C207.471 46.7116 207.955 46.8253 208.371 47.0526C208.786 47.2763 209.109 47.6172 209.34 48.0753C209.571 48.5298 209.686 49.1051 209.686 49.8011V55H208.429V49.8864C208.429 49.2436 208.262 48.7429 207.929 48.3842C207.595 48.022 207.137 47.8409 206.554 47.8409C206.153 47.8409 205.794 47.9279 205.478 48.1019C205.166 48.2759 204.919 48.5298 204.738 48.8636C204.557 49.1974 204.466 49.6023 204.466 50.0781ZM215.073 55.1705C214.391 55.1705 213.789 54.9982 213.267 54.6538C212.745 54.3058 212.337 53.8157 212.042 53.1836C211.747 52.5479 211.6 51.7969 211.6 50.9304C211.6 50.071 211.747 49.3253 212.042 48.6932C212.337 48.0611 212.747 47.5728 213.273 47.2283C213.798 46.8839 214.405 46.7116 215.094 46.7116C215.627 46.7116 216.048 46.8004 216.357 46.978C216.669 47.152 216.907 47.3509 217.071 47.5746C217.237 47.7947 217.367 47.9759 217.459 48.1179H217.566V44.0909H218.823V55H217.609V53.7429H217.459C217.367 53.892 217.236 54.0803 217.065 54.3075C216.895 54.5312 216.652 54.7319 216.335 54.9094C216.019 55.0835 215.599 55.1705 215.073 55.1705ZM215.244 54.0412C215.748 54.0412 216.174 53.9098 216.522 53.647C216.87 53.3807 217.134 53.0131 217.316 52.5444C217.497 52.0721 217.587 51.527 217.587 50.9091C217.587 50.2983 217.498 49.7638 217.321 49.3058C217.143 48.8441 216.881 48.4854 216.533 48.2298C216.185 47.9705 215.755 47.8409 215.244 47.8409C214.711 47.8409 214.267 47.9776 213.912 48.2511C213.56 48.521 213.296 48.8885 213.118 49.3537C212.944 49.8153 212.857 50.3338 212.857 50.9091C212.857 51.4915 212.946 52.0206 213.123 52.4964C213.305 52.9687 213.571 53.3452 213.922 53.6257C214.278 53.9027 214.718 54.0412 215.244 54.0412ZM225.519 55V46.8182H226.733V48.0966H226.84C227.01 47.6598 227.285 47.3207 227.665 47.0792C228.045 46.8342 228.502 46.7116 229.034 46.7116C229.574 46.7116 230.023 46.8342 230.382 47.0792C230.744 47.3207 231.027 47.6598 231.229 48.0966H231.314C231.524 47.674 231.838 47.3384 232.257 47.0898C232.676 46.8377 233.179 46.7116 233.764 46.7116C234.496 46.7116 235.094 46.9407 235.56 47.3988C236.025 47.8533 236.257 48.5618 236.257 49.5241V55H235V49.5241C235 48.9205 234.835 48.489 234.505 48.2298C234.175 47.9705 233.786 47.8409 233.338 47.8409C232.763 47.8409 232.317 48.0149 232.001 48.3629C231.685 48.7074 231.527 49.1442 231.527 49.6733V55H230.249V49.3963C230.249 48.9311 230.098 48.5565 229.796 48.2724C229.494 47.9847 229.105 47.8409 228.63 47.8409C228.303 47.8409 227.997 47.9279 227.713 48.1019C227.433 48.2759 227.206 48.5174 227.032 48.8263C226.861 49.1317 226.776 49.4851 226.776 49.8864V55H225.519ZM241.986 55.1705C241.198 55.1705 240.518 54.9964 239.946 54.6484C239.378 54.2969 238.939 53.8068 238.63 53.1783C238.325 52.5462 238.172 51.8111 238.172 50.973C238.172 50.1349 238.325 49.3963 238.63 48.7571C238.939 48.1143 239.369 47.6136 239.919 47.255C240.473 46.8928 241.12 46.7116 241.858 46.7116C242.285 46.7116 242.705 46.7827 243.121 46.9247C243.536 47.0668 243.915 47.2976 244.255 47.6172C244.596 47.9332 244.868 48.3523 245.07 48.8743C245.273 49.3963 245.374 50.0391 245.374 50.8026V51.3352H239.067V50.2486H244.096C244.096 49.7869 244.003 49.375 243.819 49.0128C243.638 48.6506 243.378 48.3647 243.041 48.1552C242.707 47.9457 242.313 47.8409 241.858 47.8409C241.358 47.8409 240.924 47.9652 240.559 48.2138C240.196 48.4588 239.918 48.7784 239.722 49.1726C239.527 49.5668 239.429 49.9893 239.429 50.4403V51.1648C239.429 51.7827 239.536 52.3065 239.749 52.7362C239.966 53.1623 240.266 53.4872 240.649 53.7109C241.033 53.9311 241.478 54.0412 241.986 54.0412C242.316 54.0412 242.615 53.995 242.881 53.9027C243.151 53.8068 243.384 53.6648 243.579 53.4766C243.774 53.2848 243.925 53.0469 244.032 52.7628L245.246 53.1037C245.118 53.5156 244.903 53.8778 244.602 54.1903C244.3 54.4993 243.927 54.7408 243.483 54.9148C243.039 55.0852 242.54 55.1705 241.986 55.1705ZM253.082 48.6506L251.953 48.9702C251.881 48.782 251.777 48.5991 251.638 48.4215C251.503 48.2404 251.319 48.0913 251.084 47.9741C250.85 47.8569 250.55 47.7983 250.184 47.7983C249.683 47.7983 249.266 47.9137 248.932 48.1445C248.602 48.3718 248.437 48.6612 248.437 49.0128C248.437 49.3253 248.551 49.5721 248.778 49.7532C249.005 49.9343 249.36 50.0852 249.843 50.206L251.058 50.5043C251.789 50.6818 252.334 50.9535 252.693 51.3192C253.052 51.6815 253.231 52.1484 253.231 52.7202C253.231 53.1889 253.096 53.608 252.826 53.9773C252.56 54.3466 252.187 54.6378 251.707 54.8509C251.228 55.0639 250.671 55.1705 250.035 55.1705C249.2 55.1705 248.51 54.9893 247.963 54.6271C247.416 54.2649 247.07 53.7358 246.924 53.0398L248.117 52.7415C248.231 53.1818 248.446 53.5121 248.762 53.7322C249.081 53.9524 249.499 54.0625 250.014 54.0625C250.6 54.0625 251.065 53.9382 251.409 53.6896C251.757 53.4375 251.931 53.1357 251.931 52.7841C251.931 52.5 251.832 52.2621 251.633 52.0703C251.434 51.875 251.129 51.7294 250.717 51.6335L249.353 51.3139C248.604 51.1364 248.053 50.8612 247.702 50.4883C247.354 50.1119 247.18 49.6413 247.18 49.0767C247.18 48.6151 247.309 48.2067 247.569 47.8516C247.831 47.4964 248.188 47.2177 248.639 47.0153C249.094 46.8129 249.609 46.7116 250.184 46.7116C250.994 46.7116 251.629 46.8892 252.091 47.2443C252.556 47.5994 252.886 48.0682 253.082 48.6506ZM260.919 48.6506L259.789 48.9702C259.718 48.782 259.614 48.5991 259.475 48.4215C259.34 48.2404 259.156 48.0913 258.921 47.9741C258.687 47.8569 258.387 47.7983 258.021 47.7983C257.52 47.7983 257.103 47.9137 256.769 48.1445C256.439 48.3718 256.274 48.6612 256.274 49.0128C256.274 49.3253 256.387 49.5721 256.615 49.7532C256.842 49.9343 257.197 50.0852 257.68 50.206L258.895 50.5043C259.626 50.6818 260.171 50.9535 260.53 51.3192C260.888 51.6815 261.068 52.1484 261.068 52.7202C261.068 53.1889 260.933 53.608 260.663 53.9773C260.397 54.3466 260.024 54.6378 259.544 54.8509C259.065 55.0639 258.507 55.1705 257.872 55.1705C257.037 55.1705 256.347 54.9893 255.8 54.6271C255.253 54.2649 254.907 53.7358 254.761 53.0398L255.954 52.7415C256.068 53.1818 256.283 53.5121 256.599 53.7322C256.918 53.9524 257.336 54.0625 257.85 54.0625C258.436 54.0625 258.902 53.9382 259.246 53.6896C259.594 53.4375 259.768 53.1357 259.768 52.7841C259.768 52.5 259.669 52.2621 259.47 52.0703C259.271 51.875 258.966 51.7294 258.554 51.6335L257.19 51.3139C256.441 51.1364 255.89 50.8612 255.539 50.4883C255.191 50.1119 255.017 49.6413 255.017 49.0767C255.017 48.6151 255.146 48.2067 255.406 47.8516C255.668 47.4964 256.025 47.2177 256.476 47.0153C256.931 46.8129 257.446 46.7116 258.021 46.7116C258.831 46.7116 259.466 46.8892 259.928 47.2443C260.393 47.5994 260.723 48.0682 260.919 48.6506ZM265.368 55.1918C264.849 55.1918 264.379 55.0941 263.956 54.8988C263.534 54.6999 263.198 54.4141 262.949 54.0412C262.701 53.6648 262.577 53.2102 262.577 52.6776C262.577 52.2088 262.669 51.8288 262.854 51.5376C263.038 51.2429 263.285 51.0121 263.594 50.8452C263.903 50.6783 264.244 50.554 264.617 50.4723C264.993 50.3871 265.371 50.3196 265.751 50.2699C266.248 50.206 266.652 50.158 266.96 50.1261C267.273 50.0906 267.5 50.032 267.642 49.9503C267.788 49.8686 267.861 49.7266 267.861 49.5241V49.4815C267.861 48.956 267.717 48.5476 267.429 48.2564C267.145 47.9652 266.714 47.8196 266.135 47.8196C265.535 47.8196 265.064 47.951 264.723 48.2138C264.382 48.4766 264.143 48.7571 264.004 49.0554L262.811 48.6293C263.024 48.1321 263.308 47.745 263.663 47.468C264.022 47.1875 264.413 46.9922 264.835 46.8821C265.261 46.7685 265.68 46.7116 266.092 46.7116C266.355 46.7116 266.657 46.7436 266.998 46.8075C267.342 46.8679 267.674 46.994 267.994 47.1857C268.317 47.3775 268.585 47.6669 268.798 48.054C269.011 48.4411 269.118 48.9595 269.118 49.6094V55H267.861V53.892H267.797C267.712 54.0696 267.57 54.2596 267.371 54.462C267.172 54.6644 266.907 54.8366 266.577 54.9787C266.247 55.1207 265.844 55.1918 265.368 55.1918ZM265.56 54.0625C266.057 54.0625 266.476 53.9648 266.817 53.7695C267.161 53.5742 267.42 53.3221 267.594 53.0131C267.772 52.7042 267.861 52.3793 267.861 52.0384V50.8878C267.807 50.9517 267.69 51.0103 267.509 51.0636C267.332 51.1133 267.126 51.1577 266.891 51.1967C266.66 51.2322 266.435 51.2642 266.215 51.2926C265.998 51.3175 265.822 51.3388 265.687 51.3565C265.361 51.3991 265.055 51.4684 264.771 51.5643C264.491 51.6566 264.263 51.7969 264.089 51.9851C263.919 52.1697 263.834 52.4219 263.834 52.7415C263.834 53.1783 263.995 53.5085 264.318 53.7322C264.645 53.9524 265.059 54.0625 265.56 54.0625ZM274.715 58.2386C274.108 58.2386 273.586 58.1605 273.149 58.0043C272.712 57.8516 272.348 57.6491 272.057 57.397C271.769 57.1484 271.54 56.8821 271.37 56.598L272.371 55.8949C272.485 56.044 272.629 56.2145 272.803 56.4062C272.977 56.6016 273.214 56.7702 273.516 56.9123C273.822 57.0579 274.221 57.1307 274.715 57.1307C275.375 57.1307 275.92 56.9709 276.35 56.6513C276.78 56.3317 276.995 55.831 276.995 55.1491V53.4872H276.888C276.796 53.6364 276.664 53.821 276.494 54.0412C276.327 54.2578 276.086 54.4513 275.77 54.6218C275.457 54.7887 275.034 54.8722 274.502 54.8722C273.841 54.8722 273.248 54.7159 272.723 54.4034C272.201 54.0909 271.787 53.6364 271.482 53.0398C271.18 52.4432 271.029 51.7187 271.029 50.8665C271.029 50.0284 271.176 49.2987 271.471 48.6772C271.766 48.0522 272.176 47.5692 272.701 47.2283C273.227 46.8839 273.834 46.7116 274.523 46.7116C275.056 46.7116 275.478 46.8004 275.791 46.978C276.107 47.152 276.348 47.3509 276.515 47.5746C276.686 47.7947 276.817 47.9759 276.909 48.1179H277.037V46.8182H278.252V55.2344C278.252 55.9375 278.092 56.5092 277.772 56.9496C277.456 57.3935 277.03 57.7184 276.494 57.9244C275.961 58.1339 275.368 58.2386 274.715 58.2386ZM274.672 53.7429C275.176 53.7429 275.603 53.6275 275.951 53.3967C276.299 53.1658 276.563 52.8338 276.744 52.4006C276.925 51.9673 277.016 51.4489 277.016 50.8452C277.016 50.2557 276.927 49.7354 276.75 49.2844C276.572 48.8335 276.309 48.4801 275.961 48.2244C275.613 47.9687 275.184 47.8409 274.672 47.8409C274.14 47.8409 273.696 47.9759 273.341 48.2457C272.989 48.5156 272.724 48.8778 272.547 49.3324C272.373 49.7869 272.286 50.2912 272.286 50.8452C272.286 51.4134 272.375 51.9158 272.552 52.3526C272.733 52.7859 273 53.1268 273.351 53.3754C273.706 53.6204 274.147 53.7429 274.672 53.7429ZM280.553 55V46.8182H281.81V55H280.553ZM281.192 45.4545C280.947 45.4545 280.736 45.3711 280.558 45.2042C280.384 45.0373 280.297 44.8366 280.297 44.6023C280.297 44.3679 280.384 44.1673 280.558 44.0004C280.736 43.8335 280.947 43.75 281.192 43.75C281.437 43.75 281.647 43.8335 281.821 44.0004C281.998 44.1673 282.087 44.3679 282.087 44.6023C282.087 44.8366 281.998 45.0373 281.821 45.2042C281.647 45.3711 281.437 45.4545 281.192 45.4545ZM285.37 50.0781V55H284.112V46.8182H285.327V48.0966H285.434C285.625 47.6811 285.916 47.3473 286.307 47.0952C286.698 46.8395 287.202 46.7116 287.82 46.7116C288.374 46.7116 288.859 46.8253 289.274 47.0526C289.69 47.2763 290.013 47.6172 290.244 48.0753C290.474 48.5298 290.59 49.1051 290.59 49.8011V55H289.333V49.8864C289.333 49.2436 289.166 48.7429 288.832 48.3842C288.498 48.022 288.04 47.8409 287.458 47.8409C287.056 47.8409 286.698 47.9279 286.382 48.1019C286.069 48.2759 285.822 48.5298 285.641 48.8636C285.46 49.1974 285.37 49.6023 285.37 50.0781ZM296.189 58.2386C295.582 58.2386 295.06 58.1605 294.623 58.0043C294.187 57.8516 293.823 57.6491 293.531 57.397C293.244 57.1484 293.015 56.8821 292.844 56.598L293.846 55.8949C293.959 56.044 294.103 56.2145 294.277 56.4062C294.451 56.6016 294.689 56.7702 294.991 56.9123C295.296 57.0579 295.696 57.1307 296.189 57.1307C296.85 57.1307 297.395 56.9709 297.825 56.6513C298.254 56.3317 298.469 55.831 298.469 55.1491V53.4872H298.363C298.27 53.6364 298.139 53.821 297.969 54.0412C297.802 54.2578 297.56 54.4513 297.244 54.6218C296.932 54.7887 296.509 54.8722 295.976 54.8722C295.316 54.8722 294.723 54.7159 294.197 54.4034C293.675 54.0909 293.262 53.6364 292.956 53.0398C292.654 52.4432 292.503 51.7187 292.503 50.8665C292.503 50.0284 292.651 49.2987 292.945 48.6772C293.24 48.0522 293.65 47.5692 294.176 47.2283C294.702 46.8839 295.309 46.7116 295.998 46.7116C296.53 46.7116 296.953 46.8004 297.265 46.978C297.581 47.152 297.823 47.3509 297.99 47.5746C298.16 47.7947 298.292 47.9759 298.384 48.1179H298.512V46.8182H299.726V55.2344C299.726 55.9375 299.567 56.5092 299.247 56.9496C298.931 57.3935 298.505 57.7184 297.969 57.9244C297.436 58.1339 296.843 58.2386 296.189 58.2386ZM296.147 53.7429C296.651 53.7429 297.077 53.6275 297.425 53.3967C297.773 53.1658 298.038 52.8338 298.219 52.4006C298.4 51.9673 298.491 51.4489 298.491 50.8452C298.491 50.2557 298.402 49.7354 298.224 49.2844C298.047 48.8335 297.784 48.4801 297.436 48.2244C297.088 47.9687 296.658 47.8409 296.147 47.8409C295.614 47.8409 295.17 47.9759 294.815 48.2457C294.464 48.5156 294.199 48.8778 294.021 49.3324C293.847 49.7869 293.76 50.2912 293.76 50.8452C293.76 51.4134 293.849 51.9158 294.027 52.3526C294.208 52.7859 294.474 53.1268 294.826 53.3754C295.181 53.6204 295.621 53.7429 296.147 53.7429Z" fill="#A9A9A9"/>
<g clip-path="url(#clip0_961_86)">
<path d="M706.724 36.774L702.226 32.2759C702.101 32.1512 701.899 32.1514 701.774 32.2762C701.649 32.4011 701.649 32.6035 701.774 32.7282L705.728 36.6816L697.502 36.6818C697.418 36.6817 697.337 36.7153 697.277 36.7752C697.153 36.8996 697.153 37.1008 697.278 37.2248C697.337 37.2846 697.418 37.3182 697.502 37.3182L705.728 37.318L701.774 41.272C701.649 41.3968 701.649 41.5991 701.774 41.7238L701.774 41.7239C701.899 41.8486 702.101 41.8486 702.226 41.7238L706.724 37.2258C706.849 37.101 706.849 36.8987 706.724 36.774Z" fill="black"/>
</g>
<path d="M34.7278 28.1807C30.3101 25.8088 24.9154 27.1036 22 30.9998V28.5C22 28.2239 21.7761 28 21.5 28C21.2239 28 21 28.2239 21 28.5V32.5006C21.0002 32.7766 21.224 33.0002 21.5 33H25.5C25.7761 33 26 32.7761 26 32.5C26 32.2239 25.7761 32 25.5 32H22.5234C24.1804 29.5271 26.9577 28.0047 29.9721 28C34.9427 27.9923 38.9783 32.0155 38.986 36.9861C38.9938 41.9566 34.9706 45.9923 30 46C29.7239 46 29.5 46.2239 29.5 46.5C29.5 46.7761 29.7239 47 30 47C33.6832 46.9982 37.0676 44.9729 38.8099 41.7279C41.4236 36.8597 39.596 30.7944 34.7278 28.1807ZM30 33C29.7239 33 29.5 33.2239 29.5 33.5V37.0006C29.5002 37.2766 29.724 37.5002 30 37.5H32.5C32.7761 37.5 33 37.2761 33 37C33 36.7239 32.7761 36.5 32.5 36.5H30.5V33.5C30.5 33.2239 30.2761 33 30 33Z" fill="black"/>
<defs>
<clipPath id="clip0_961_86">
<rect width="14" height="14" fill="white" transform="translate(702 27.1005) rotate(45)"/>
</clipPath>
</defs>
</svg>
