<svg width="736" height="74" viewBox="0 0 736 74" fill="none" xmlns="http://www.w3.org/2000/svg">
<path d="M73.324 29.221C72.2473 29.221 71.2953 28.966 70.468 28.456C69.6407 27.9347 68.989 27.215 68.513 26.297C68.0483 25.3677 67.816 24.2853 67.816 23.05C67.816 21.8033 68.0483 20.721 68.513 19.803C68.989 18.885 69.6407 18.171 70.468 17.661C71.2953 17.1397 72.2473 16.879 73.324 16.879C74.4687 16.879 75.4887 17.185 76.384 17.797C77.2793 18.3977 77.9423 19.259 78.373 20.381L77.115 20.738L76.928 20.704C76.5993 19.9107 76.1233 19.31 75.5 18.902C74.8767 18.494 74.1627 18.29 73.358 18.29C72.576 18.29 71.879 18.4827 71.267 18.868C70.655 19.2533 70.1733 19.803 69.822 20.517C69.4707 21.231 69.295 22.0753 69.295 23.05C69.295 24.0247 69.4707 24.869 69.822 25.583C70.1733 26.297 70.655 26.8467 71.267 27.232C71.879 27.6173 72.576 27.81 73.358 27.81C74.1627 27.81 74.8767 27.606 75.5 27.198C76.1233 26.7787 76.5993 26.178 76.928 25.396L77.115 25.362L78.373 25.719C77.9423 26.841 77.2793 27.708 76.384 28.32C75.4887 28.9207 74.4687 29.221 73.324 29.221ZM81.1105 29V27.606H84.4255C85.2529 27.606 85.9555 27.419 86.5335 27.045C87.1229 26.6597 87.5762 26.127 87.8935 25.447C88.2109 24.767 88.3695 23.968 88.3695 23.05C88.3695 22.1207 88.2109 21.316 87.8935 20.636C87.5762 19.956 87.1229 19.429 86.5335 19.055C85.9555 18.681 85.2529 18.494 84.4255 18.494H81.1105V17.1H84.4255C85.5475 17.1 86.5109 17.3493 87.3155 17.848C88.1315 18.3467 88.7549 19.0437 89.1855 19.939C89.6162 20.8343 89.8315 21.8713 89.8315 23.05C89.8315 24.2287 89.6162 25.2657 89.1855 26.161C88.7549 27.0563 88.1315 27.7533 87.3155 28.252C86.5109 28.7507 85.5475 29 84.4255 29H81.1105ZM80.3455 29V17.1H81.7905V29H80.3455ZM96.9812 29.221C95.9046 29.221 94.9526 28.966 94.1252 28.456C93.2979 27.9347 92.6462 27.215 92.1702 26.297C91.7056 25.3677 91.4732 24.2853 91.4732 23.05C91.4732 21.8033 91.7056 20.721 92.1702 19.803C92.6462 18.885 93.2979 18.171 94.1252 17.661C94.9526 17.1397 95.9046 16.879 96.9812 16.879C98.1259 16.879 99.1459 17.185 100.041 17.797C100.937 18.3977 101.6 19.259 102.03 20.381L100.772 20.738L100.585 20.704C100.257 19.9107 99.7806 19.31 99.1572 18.902C98.5339 18.494 97.8199 18.29 97.0152 18.29C96.2332 18.29 95.5362 18.4827 94.9242 18.868C94.3122 19.2533 93.8306 19.803 93.4792 20.517C93.1279 21.231 92.9522 22.0753 92.9522 23.05C92.9522 24.0247 93.1279 24.869 93.4792 25.583C93.8306 26.297 94.3122 26.8467 94.9242 27.232C95.5362 27.6173 96.2332 27.81 97.0152 27.81C97.8199 27.81 98.5339 27.606 99.1572 27.198C99.7806 26.7787 100.257 26.178 100.585 25.396L100.772 25.362L102.03 25.719C101.6 26.841 100.937 27.708 100.041 28.32C99.1459 28.9207 98.1259 29.221 96.9812 29.221Z" fill="black"/>
<path d="M77.0994 47.5H75.7784C75.7003 47.12 75.5636 46.7862 75.3683 46.4986C75.1765 46.2109 74.9421 45.9695 74.6651 45.7741C74.3917 45.5753 74.0881 45.4261 73.7543 45.3267C73.4205 45.2273 73.0724 45.1776 72.7102 45.1776C72.0497 45.1776 71.4513 45.3445 70.9151 45.6783C70.3825 46.0121 69.9581 46.5039 69.642 47.1538C69.3295 47.8036 69.1733 48.6009 69.1733 49.5455C69.1733 50.4901 69.3295 51.2873 69.642 51.9371C69.9581 52.587 70.3825 53.0788 70.9151 53.4126C71.4513 53.7464 72.0497 53.9134 72.7102 53.9134C73.0724 53.9134 73.4205 53.8636 73.7543 53.7642C74.0881 53.6648 74.3917 53.5174 74.6651 53.3221C74.9421 53.1232 75.1765 52.88 75.3683 52.5923C75.5636 52.3011 75.7003 51.9673 75.7784 51.5909H77.0994C77 52.1484 76.8189 52.6474 76.5561 53.0877C76.2933 53.5281 75.9666 53.9027 75.576 54.2116C75.1854 54.517 74.7468 54.7496 74.2603 54.9094C73.7773 55.0692 73.2607 55.1491 72.7102 55.1491C71.7798 55.1491 70.9524 54.9219 70.228 54.4673C69.5036 54.0128 68.9336 53.3665 68.5181 52.5284C68.1026 51.6903 67.8949 50.696 67.8949 49.5455C67.8949 48.3949 68.1026 47.4006 68.5181 46.5625C68.9336 45.7244 69.5036 45.0781 70.228 44.6236C70.9524 44.169 71.7798 43.9418 72.7102 43.9418C73.2607 43.9418 73.7773 44.0217 74.2603 44.1815C74.7468 44.3413 75.1854 44.5756 75.576 44.8846C75.9666 45.19 76.2933 45.5629 76.5561 46.0032C76.8189 46.44 77 46.9389 77.0994 47.5ZM81.4713 55.1918C80.9529 55.1918 80.4823 55.0941 80.0597 54.8988C79.6372 54.6999 79.3016 54.4141 79.053 54.0412C78.8044 53.6648 78.6801 53.2102 78.6801 52.6776C78.6801 52.2088 78.7725 51.8288 78.9571 51.5376C79.1418 51.2429 79.3886 51.0121 79.6975 50.8452C80.0065 50.6783 80.3474 50.554 80.7203 50.4723C81.0967 50.3871 81.4749 50.3196 81.8548 50.2699C82.352 50.206 82.7551 50.158 83.064 50.1261C83.3765 50.0906 83.6038 50.032 83.7458 49.9503C83.8914 49.8686 83.9642 49.7266 83.9642 49.5241V49.4815C83.9642 48.956 83.8204 48.5476 83.5328 48.2564C83.2487 47.9652 82.8172 47.8196 82.2384 47.8196C81.6382 47.8196 81.1677 47.951 80.8268 48.2138C80.4859 48.4766 80.2462 48.7571 80.1077 49.0554L78.9145 48.6293C79.1276 48.1321 79.4117 47.745 79.7668 47.468C80.1254 47.1875 80.5161 46.9922 80.9387 46.8821C81.3648 46.7685 81.7838 46.7116 82.1958 46.7116C82.4585 46.7116 82.7604 46.7436 83.1013 46.8075C83.4458 46.8679 83.7778 46.994 84.0974 47.1857C84.4205 47.3775 84.6887 47.6669 84.9017 48.054C85.1148 48.4411 85.2213 48.9595 85.2213 49.6094V55H83.9642V53.892H83.9003C83.8151 54.0696 83.673 54.2596 83.4742 54.462C83.2753 54.6644 83.0107 54.8366 82.6805 54.9787C82.3502 55.1207 81.9472 55.1918 81.4713 55.1918ZM81.6631 54.0625C82.1602 54.0625 82.5793 53.9648 82.9202 53.7695C83.2646 53.5742 83.5239 53.3221 83.6979 53.0131C83.8754 52.7042 83.9642 52.3793 83.9642 52.0384V50.8878C83.911 50.9517 83.7938 51.0103 83.6127 51.0636C83.4351 51.1133 83.2291 51.1577 82.9948 51.1967C82.7639 51.2322 82.5384 51.2642 82.3183 51.2926C82.1017 51.3175 81.9259 51.3388 81.7909 51.3565C81.4642 51.3991 81.1588 51.4684 80.8747 51.5643C80.5942 51.6566 80.3669 51.7969 80.1929 51.9851C80.0225 52.1697 79.9372 52.4219 79.9372 52.7415C79.9372 53.1783 80.0988 53.5085 80.422 53.7322C80.7487 53.9524 81.1624 54.0625 81.6631 54.0625ZM87.5158 58.0682V46.8182H88.7303V48.1179H88.8794C88.9718 47.9759 89.0996 47.7947 89.263 47.5746C89.4299 47.3509 89.6678 47.152 89.9767 46.978C90.2892 46.8004 90.7118 46.7116 91.2445 46.7116C91.9334 46.7116 92.5407 46.8839 93.0662 47.2283C93.5918 47.5728 94.002 48.0611 94.2967 48.6932C94.5914 49.3253 94.7388 50.071 94.7388 50.9304C94.7388 51.7969 94.5914 52.5479 94.2967 53.1836C94.002 53.8157 93.5936 54.3058 93.0716 54.6538C92.5495 54.9982 91.9476 55.1705 91.2658 55.1705C90.7402 55.1705 90.3194 55.0835 90.0034 54.9094C89.6873 54.7319 89.4441 54.5312 89.2736 54.3075C89.1032 54.0803 88.9718 53.892 88.8794 53.7429H88.7729V58.0682H87.5158ZM88.7516 50.9091C88.7516 51.527 88.8422 52.0721 89.0233 52.5444C89.2044 53.0131 89.4689 53.3807 89.8169 53.647C90.165 53.9098 90.5911 54.0412 91.0953 54.0412C91.6209 54.0412 92.0595 53.9027 92.411 53.6257C92.7662 53.3452 93.0325 52.9687 93.21 52.4964C93.3912 52.0206 93.4817 51.4915 93.4817 50.9091C93.4817 50.3338 93.3929 49.8153 93.2154 49.3537C93.0414 48.8885 92.7768 48.521 92.4217 48.2511C92.0701 47.9776 91.628 47.8409 91.0953 47.8409C90.584 47.8409 90.1543 47.9705 89.8063 48.2298C89.4583 48.4854 89.1955 48.8441 89.0179 49.3058C88.8404 49.7638 88.7516 50.2983 88.7516 50.9091ZM100.215 46.8182V47.8835H95.9746V46.8182H100.215ZM97.2104 44.858H98.4675V52.6562C98.4675 53.0114 98.519 53.2777 98.622 53.4553C98.7285 53.6293 98.8635 53.7464 99.0268 53.8068C99.1937 53.8636 99.3695 53.892 99.5542 53.892C99.6926 53.892 99.8063 53.8849 99.8951 53.8707C99.9838 53.853 100.055 53.8388 100.108 53.8281L100.364 54.9574C100.279 54.9893 100.16 55.0213 100.007 55.0533C99.8542 55.0888 99.6607 55.1065 99.4263 55.1065C99.0712 55.1065 98.7232 55.0302 98.3823 54.8775C98.0449 54.7248 97.7644 54.4922 97.5407 54.1797C97.3205 53.8672 97.2104 53.473 97.2104 52.9972V44.858ZM107.262 51.6548V46.8182H108.519V55H107.262V53.6151H107.177C106.985 54.0305 106.687 54.3839 106.282 54.6751C105.877 54.9627 105.366 55.1065 104.748 55.1065C104.236 55.1065 103.782 54.9947 103.384 54.771C102.986 54.5437 102.674 54.2028 102.447 53.7482C102.219 53.2901 102.106 52.7131 102.106 52.017V46.8182H103.363V51.9318C103.363 52.5284 103.53 53.0043 103.863 53.3594C104.201 53.7145 104.631 53.892 105.153 53.892C105.465 53.892 105.783 53.8121 106.106 53.6523C106.433 53.4925 106.706 53.2475 106.926 52.9173C107.15 52.587 107.262 52.1662 107.262 51.6548ZM110.821 55V46.8182H112.036V48.054H112.121C112.27 47.6491 112.54 47.3207 112.931 47.0685C113.321 46.8164 113.762 46.6903 114.252 46.6903C114.344 46.6903 114.46 46.6921 114.598 46.6957C114.737 46.6992 114.841 46.7045 114.912 46.7116V47.9901C114.87 47.9794 114.772 47.9634 114.619 47.9421C114.47 47.9173 114.312 47.9048 114.145 47.9048C113.748 47.9048 113.392 47.9883 113.08 48.1552C112.771 48.3185 112.526 48.5458 112.345 48.837C112.167 49.1246 112.079 49.4531 112.079 49.8224V55H110.821ZM119.584 55.1705C118.796 55.1705 118.116 54.9964 117.544 54.6484C116.976 54.2969 116.537 53.8068 116.228 53.1783C115.923 52.5462 115.77 51.8111 115.77 50.973C115.77 50.1349 115.923 49.3963 116.228 48.7571C116.537 48.1143 116.967 47.6136 117.517 47.255C118.071 46.8928 118.717 46.7116 119.456 46.7116C119.882 46.7116 120.303 46.7827 120.718 46.9247C121.134 47.0668 121.512 47.2976 121.853 47.6172C122.194 47.9332 122.466 48.3523 122.668 48.8743C122.87 49.3963 122.972 50.0391 122.972 50.8026V51.3352H116.665V50.2486H121.693C121.693 49.7869 121.601 49.375 121.416 49.0128C121.235 48.6506 120.976 48.3647 120.639 48.1552C120.305 47.9457 119.911 47.8409 119.456 47.8409C118.955 47.8409 118.522 47.9652 118.156 48.2138C117.794 48.4588 117.515 48.7784 117.32 49.1726C117.125 49.5668 117.027 49.9893 117.027 50.4403V51.1648C117.027 51.7827 117.134 52.3065 117.347 52.7362C117.563 53.1623 117.863 53.4872 118.247 53.7109C118.63 53.9311 119.076 54.0412 119.584 54.0412C119.914 54.0412 120.212 53.995 120.479 53.9027C120.749 53.8068 120.981 53.6648 121.177 53.4766C121.372 53.2848 121.523 53.0469 121.629 52.7628L122.844 53.1037C122.716 53.5156 122.501 53.8778 122.199 54.1903C121.897 54.4993 121.525 54.7408 121.081 54.9148C120.637 55.0852 120.138 55.1705 119.584 55.1705ZM132.533 55.1705C131.745 55.1705 131.065 54.9964 130.493 54.6484C129.925 54.2969 129.486 53.8068 129.177 53.1783C128.872 52.5462 128.719 51.8111 128.719 50.973C128.719 50.1349 128.872 49.3963 129.177 48.7571C129.486 48.1143 129.916 47.6136 130.466 47.255C131.02 46.8928 131.667 46.7116 132.405 46.7116C132.831 46.7116 133.252 46.7827 133.668 46.9247C134.083 47.0668 134.461 47.2976 134.802 47.6172C135.143 47.9332 135.415 48.3523 135.617 48.8743C135.82 49.3963 135.921 50.0391 135.921 50.8026V51.3352H129.614V50.2486H134.642C134.642 49.7869 134.55 49.375 134.366 49.0128C134.184 48.6506 133.925 48.3647 133.588 48.1552C133.254 47.9457 132.86 47.8409 132.405 47.8409C131.905 47.8409 131.471 47.9652 131.106 48.2138C130.743 48.4588 130.465 48.7784 130.269 49.1726C130.074 49.5668 129.976 49.9893 129.976 50.4403V51.1648C129.976 51.7827 130.083 52.3065 130.296 52.7362C130.513 53.1623 130.813 53.4872 131.196 53.7109C131.58 53.9311 132.025 54.0412 132.533 54.0412C132.863 54.0412 133.162 53.995 133.428 53.9027C133.698 53.8068 133.93 53.6648 134.126 53.4766C134.321 53.2848 134.472 53.0469 134.579 52.7628L135.793 53.1037C135.665 53.5156 135.45 53.8778 135.149 54.1903C134.847 54.4993 134.474 54.7408 134.03 54.9148C133.586 55.0852 133.087 55.1705 132.533 55.1705ZM144.275 46.8182L141.249 55H139.971L136.945 46.8182H138.309L140.567 53.3381H140.652L142.911 46.8182H144.275ZM149.071 55.1705C148.283 55.1705 147.603 54.9964 147.031 54.6484C146.463 54.2969 146.024 53.8068 145.715 53.1783C145.41 52.5462 145.257 51.8111 145.257 50.973C145.257 50.1349 145.41 49.3963 145.715 48.7571C146.024 48.1143 146.454 47.6136 147.004 47.255C147.558 46.8928 148.205 46.7116 148.943 46.7116C149.369 46.7116 149.79 46.7827 150.206 46.9247C150.621 47.0668 150.999 47.2976 151.34 47.6172C151.681 47.9332 151.953 48.3523 152.155 48.8743C152.358 49.3963 152.459 50.0391 152.459 50.8026V51.3352H146.152V50.2486H151.181C151.181 49.7869 151.088 49.375 150.904 49.0128C150.722 48.6506 150.463 48.3647 150.126 48.1552C149.792 47.9457 149.398 47.8409 148.943 47.8409C148.443 47.8409 148.009 47.9652 147.644 48.2138C147.281 48.4588 147.003 48.7784 146.807 49.1726C146.612 49.5668 146.514 49.9893 146.514 50.4403V51.1648C146.514 51.7827 146.621 52.3065 146.834 52.7362C147.051 53.1623 147.351 53.4872 147.734 53.7109C148.118 53.9311 148.563 54.0412 149.071 54.0412C149.401 54.0412 149.7 53.995 149.966 53.9027C150.236 53.8068 150.469 53.6648 150.664 53.4766C150.859 53.2848 151.01 53.0469 151.117 52.7628L152.331 53.1037C152.203 53.5156 151.988 53.8778 151.687 54.1903C151.385 54.4993 151.012 54.7408 150.568 54.9148C150.124 55.0852 149.625 55.1705 149.071 55.1705ZM155.628 50.0781V55H154.371V46.8182H155.586V48.0966H155.692C155.884 47.6811 156.175 47.3473 156.566 47.0952C156.956 46.8395 157.461 46.7116 158.079 46.7116C158.633 46.7116 159.117 46.8253 159.533 47.0526C159.948 47.2763 160.271 47.6172 160.502 48.0753C160.733 48.5298 160.849 49.1051 160.849 49.8011V55H159.591V49.8864C159.591 49.2436 159.425 48.7429 159.091 48.3842C158.757 48.022 158.299 47.8409 157.716 47.8409C157.315 47.8409 156.956 47.9279 156.64 48.1019C156.328 48.2759 156.081 48.5298 155.9 48.8636C155.719 49.1974 155.628 49.6023 155.628 50.0781ZM166.704 46.8182V47.8835H162.464V46.8182H166.704ZM163.7 44.858H164.957V52.6562C164.957 53.0114 165.008 53.2777 165.111 53.4553C165.218 53.6293 165.353 53.7464 165.516 53.8068C165.683 53.8636 165.859 53.892 166.043 53.892C166.182 53.892 166.296 53.8849 166.384 53.8707C166.473 53.853 166.544 53.8388 166.597 53.8281L166.853 54.9574C166.768 54.9893 166.649 55.0213 166.496 55.0533C166.343 55.0888 166.15 55.1065 165.916 55.1065C165.56 55.1065 165.212 55.0302 164.872 54.8775C164.534 54.7248 164.254 54.4922 164.03 54.1797C163.81 53.8672 163.7 53.473 163.7 52.9972V44.858ZM174.244 48.6506L173.115 48.9702C173.044 48.782 172.939 48.5991 172.8 48.4215C172.665 48.2404 172.481 48.0913 172.246 47.9741C172.012 47.8569 171.712 47.7983 171.346 47.7983C170.845 47.7983 170.428 47.9137 170.094 48.1445C169.764 48.3718 169.599 48.6612 169.599 49.0128C169.599 49.3253 169.713 49.5721 169.94 49.7532C170.167 49.9343 170.522 50.0852 171.005 50.206L172.22 50.5043C172.951 50.6818 173.496 50.9535 173.855 51.3192C174.214 51.6815 174.393 52.1484 174.393 52.7202C174.393 53.1889 174.258 53.608 173.988 53.9773C173.722 54.3466 173.349 54.6378 172.87 54.8509C172.39 55.0639 171.833 55.1705 171.197 55.1705C170.362 55.1705 169.672 54.9893 169.125 54.6271C168.578 54.2649 168.232 53.7358 168.086 53.0398L169.279 52.7415C169.393 53.1818 169.608 53.5121 169.924 53.7322C170.244 53.9524 170.661 54.0625 171.176 54.0625C171.762 54.0625 172.227 53.9382 172.571 53.6896C172.919 53.4375 173.093 53.1357 173.093 52.7841C173.093 52.5 172.994 52.2621 172.795 52.0703C172.596 51.875 172.291 51.7294 171.879 51.6335L170.515 51.3139C169.766 51.1364 169.215 50.8612 168.864 50.4883C168.516 50.1119 168.342 49.6413 168.342 49.0767C168.342 48.6151 168.472 48.2067 168.731 47.8516C168.994 47.4964 169.35 47.2177 169.801 47.0153C170.256 46.8129 170.771 46.7116 171.346 46.7116C172.156 46.7116 172.791 46.8892 173.253 47.2443C173.718 47.5994 174.049 48.0682 174.244 48.6506ZM182.912 55.1918C182.393 55.1918 181.923 55.0941 181.5 54.8988C181.078 54.6999 180.742 54.4141 180.493 54.0412C180.245 53.6648 180.121 53.2102 180.121 52.6776C180.121 52.2088 180.213 51.8288 180.398 51.5376C180.582 51.2429 180.829 51.0121 181.138 50.8452C181.447 50.6783 181.788 50.554 182.161 50.4723C182.537 50.3871 182.915 50.3196 183.295 50.2699C183.792 50.206 184.195 50.158 184.504 50.1261C184.817 50.0906 185.044 50.032 185.186 49.9503C185.332 49.8686 185.405 49.7266 185.405 49.5241V49.4815C185.405 48.956 185.261 48.5476 184.973 48.2564C184.689 47.9652 184.258 47.8196 183.679 47.8196C183.079 47.8196 182.608 47.951 182.267 48.2138C181.926 48.4766 181.687 48.7571 181.548 49.0554L180.355 48.6293C180.568 48.1321 180.852 47.745 181.207 47.468C181.566 47.1875 181.956 46.9922 182.379 46.8821C182.805 46.7685 183.224 46.7116 183.636 46.7116C183.899 46.7116 184.201 46.7436 184.542 46.8075C184.886 46.8679 185.218 46.994 185.538 47.1857C185.861 47.3775 186.129 47.6669 186.342 48.054C186.555 48.4411 186.662 48.9595 186.662 49.6094V55H185.405V53.892H185.341C185.256 54.0696 185.113 54.2596 184.915 54.462C184.716 54.6644 184.451 54.8366 184.121 54.9787C183.791 55.1207 183.388 55.1918 182.912 55.1918ZM183.104 54.0625C183.601 54.0625 184.02 53.9648 184.361 53.7695C184.705 53.5742 184.964 53.3221 185.138 53.0131C185.316 52.7042 185.405 52.3793 185.405 52.0384V50.8878C185.351 50.9517 185.234 51.0103 185.053 51.0636C184.876 51.1133 184.67 51.1577 184.435 51.1967C184.204 51.2322 183.979 51.2642 183.759 51.2926C183.542 51.3175 183.366 51.3388 183.231 51.3565C182.905 51.3991 182.599 51.4684 182.315 51.5643C182.035 51.6566 181.807 51.7969 181.633 51.9851C181.463 52.1697 181.378 52.4219 181.378 52.7415C181.378 53.1783 181.539 53.5085 181.862 53.7322C182.189 53.9524 182.603 54.0625 183.104 54.0625ZM190.213 50.0781V55H188.956V46.8182H190.171V48.0966H190.277C190.469 47.6811 190.76 47.3473 191.151 47.0952C191.541 46.8395 192.046 46.7116 192.664 46.7116C193.218 46.7116 193.702 46.8253 194.118 47.0526C194.533 47.2763 194.856 47.6172 195.087 48.0753C195.318 48.5298 195.434 49.1051 195.434 49.8011V55H194.176V49.8864C194.176 49.2436 194.009 48.7429 193.676 48.3842C193.342 48.022 192.884 47.8409 192.301 47.8409C191.9 47.8409 191.541 47.9279 191.225 48.1019C190.913 48.2759 190.666 48.5298 190.485 48.8636C190.304 49.1974 190.213 49.6023 190.213 50.0781ZM200.82 55.1705C200.138 55.1705 199.536 54.9982 199.014 54.6538C198.492 54.3058 198.084 53.8157 197.789 53.1836C197.494 52.5479 197.347 51.7969 197.347 50.9304C197.347 50.071 197.494 49.3253 197.789 48.6932C198.084 48.0611 198.494 47.5728 199.02 47.2283C199.545 46.8839 200.153 46.7116 200.841 46.7116C201.374 46.7116 201.795 46.8004 202.104 46.978C202.416 47.152 202.654 47.3509 202.818 47.5746C202.985 47.7947 203.114 47.9759 203.206 48.1179H203.313V44.0909H204.57V55H203.356V53.7429H203.206C203.114 53.892 202.983 54.0803 202.812 54.3075C202.642 54.5312 202.399 54.7319 202.083 54.9094C201.767 55.0835 201.346 55.1705 200.82 55.1705ZM200.991 54.0412C201.495 54.0412 201.921 53.9098 202.269 53.647C202.617 53.3807 202.882 53.0131 203.063 52.5444C203.244 52.0721 203.334 51.527 203.334 50.9091C203.334 50.2983 203.246 49.7638 203.068 49.3058C202.89 48.8441 202.628 48.4854 202.28 48.2298C201.932 47.9705 201.502 47.8409 200.991 47.8409C200.458 47.8409 200.014 47.9776 199.659 48.2511C199.307 48.521 199.043 48.8885 198.865 49.3537C198.691 49.8153 198.604 50.3338 198.604 50.9091C198.604 51.4915 198.693 52.0206 198.871 52.4964C199.052 52.9687 199.318 53.3452 199.67 53.6257C200.025 53.9027 200.465 54.0412 200.991 54.0412ZM214.59 55.1705C213.823 55.1705 213.162 54.9893 212.608 54.6271C212.054 54.2649 211.628 53.766 211.33 53.1303C211.031 52.4947 210.882 51.7685 210.882 50.9517C210.882 50.1207 211.035 49.3874 211.34 48.7518C211.649 48.1126 212.079 47.6136 212.629 47.255C213.183 46.8928 213.83 46.7116 214.568 46.7116C215.144 46.7116 215.662 46.8182 216.124 47.0312C216.585 47.2443 216.964 47.5426 217.258 47.9261C217.553 48.3097 217.736 48.7571 217.807 49.2685H216.55C216.454 48.8956 216.241 48.5653 215.911 48.2777C215.584 47.9865 215.144 47.8409 214.59 47.8409C214.1 47.8409 213.67 47.9687 213.301 48.2244C212.935 48.4766 212.649 48.8335 212.443 49.2951C212.241 49.7532 212.139 50.2912 212.139 50.9091C212.139 51.5412 212.239 52.0916 212.438 52.5604C212.64 53.0291 212.924 53.3931 213.29 53.6523C213.659 53.9116 214.093 54.0412 214.59 54.0412C214.916 54.0412 215.213 53.9844 215.479 53.8707C215.746 53.7571 215.971 53.5938 216.156 53.3807C216.34 53.1676 216.472 52.9119 216.55 52.6136H217.807C217.736 53.0966 217.56 53.5316 217.28 53.9187C217.003 54.3022 216.635 54.6076 216.177 54.8349C215.722 55.0586 215.193 55.1705 214.59 55.1705ZM220.902 50.0781V55H219.645V44.0909H220.902V48.0966H221.008C221.2 47.674 221.488 47.3384 221.871 47.0898C222.258 46.8377 222.773 46.7116 223.416 46.7116C223.974 46.7116 224.462 46.8235 224.881 47.0472C225.3 47.2674 225.625 47.6065 225.856 48.0646C226.09 48.5192 226.207 49.098 226.207 49.8011V55H224.95V49.8864C224.95 49.2365 224.781 48.734 224.444 48.3789C224.11 48.0202 223.647 47.8409 223.054 47.8409C222.642 47.8409 222.273 47.9279 221.946 48.1019C221.623 48.2759 221.367 48.5298 221.179 48.8636C220.994 49.1974 220.902 49.6023 220.902 50.0781ZM230.915 55.1918C230.396 55.1918 229.926 55.0941 229.503 54.8988C229.081 54.6999 228.745 54.4141 228.496 54.0412C228.248 53.6648 228.123 53.2102 228.123 52.6776C228.123 52.2088 228.216 51.8288 228.4 51.5376C228.585 51.2429 228.832 51.0121 229.141 50.8452C229.45 50.6783 229.791 50.554 230.164 50.4723C230.54 50.3871 230.918 50.3196 231.298 50.2699C231.795 50.206 232.198 50.158 232.507 50.1261C232.82 50.0906 233.047 50.032 233.189 49.9503C233.335 49.8686 233.408 49.7266 233.408 49.5241V49.4815C233.408 48.956 233.264 48.5476 232.976 48.2564C232.692 47.9652 232.261 47.8196 231.682 47.8196C231.082 47.8196 230.611 47.951 230.27 48.2138C229.929 48.4766 229.69 48.7571 229.551 49.0554L228.358 48.6293C228.571 48.1321 228.855 47.745 229.21 47.468C229.569 47.1875 229.959 46.9922 230.382 46.8821C230.808 46.7685 231.227 46.7116 231.639 46.7116C231.902 46.7116 232.204 46.7436 232.545 46.8075C232.889 46.8679 233.221 46.994 233.541 47.1857C233.864 47.3775 234.132 47.6669 234.345 48.054C234.558 48.4411 234.665 48.9595 234.665 49.6094V55H233.408V53.892H233.344C233.258 54.0696 233.116 54.2596 232.918 54.462C232.719 54.6644 232.454 54.8366 232.124 54.9787C231.794 55.1207 231.391 55.1918 230.915 55.1918ZM231.106 54.0625C231.604 54.0625 232.023 53.9648 232.364 53.7695C232.708 53.5742 232.967 53.3221 233.141 53.0131C233.319 52.7042 233.408 52.3793 233.408 52.0384V50.8878C233.354 50.9517 233.237 51.0103 233.056 51.0636C232.878 51.1133 232.672 51.1577 232.438 51.1967C232.207 51.2322 231.982 51.2642 231.762 51.2926C231.545 51.3175 231.369 51.3388 231.234 51.3565C230.908 51.3991 230.602 51.4684 230.318 51.5643C230.038 51.6566 229.81 51.7969 229.636 51.9851C229.466 52.1697 229.381 52.4219 229.381 52.7415C229.381 53.1783 229.542 53.5085 229.865 53.7322C230.192 53.9524 230.606 54.0625 231.106 54.0625ZM238.216 50.0781V55H236.959V46.8182H238.174V48.0966H238.28C238.472 47.6811 238.763 47.3473 239.154 47.0952C239.544 46.8395 240.049 46.7116 240.667 46.7116C241.221 46.7116 241.705 46.8253 242.121 47.0526C242.536 47.2763 242.859 47.6172 243.09 48.0753C243.321 48.5298 243.436 49.1051 243.436 49.8011V55H242.179V49.8864C242.179 49.2436 242.012 48.7429 241.679 48.3842C241.345 48.022 240.887 47.8409 240.304 47.8409C239.903 47.8409 239.544 47.9279 239.228 48.1019C238.916 48.2759 238.669 48.5298 238.488 48.8636C238.307 49.1974 238.216 49.6023 238.216 50.0781ZM249.036 58.2386C248.429 58.2386 247.907 58.1605 247.47 58.0043C247.033 57.8516 246.669 57.6491 246.378 57.397C246.09 57.1484 245.861 56.8821 245.691 56.598L246.692 55.8949C246.806 56.044 246.95 56.2145 247.124 56.4062C247.298 56.6016 247.536 56.7702 247.838 56.9123C248.143 57.0579 248.543 57.1307 249.036 57.1307C249.697 57.1307 250.242 56.9709 250.671 56.6513C251.101 56.3317 251.316 55.831 251.316 55.1491V53.4872H251.209C251.117 53.6364 250.986 53.821 250.815 54.0412C250.648 54.2578 250.407 54.4513 250.091 54.6218C249.778 54.7887 249.356 54.8722 248.823 54.8722C248.163 54.8722 247.57 54.7159 247.044 54.4034C246.522 54.0909 246.108 53.6364 245.803 53.0398C245.501 52.4432 245.35 51.7187 245.35 50.8665C245.35 50.0284 245.497 49.2987 245.792 48.6772C246.087 48.0522 246.497 47.5692 247.023 47.2283C247.548 46.8839 248.155 46.7116 248.844 46.7116C249.377 46.7116 249.8 46.8004 250.112 46.978C250.428 47.152 250.67 47.3509 250.837 47.5746C251.007 47.7947 251.138 47.9759 251.231 48.1179H251.359V46.8182H252.573V55.2344C252.573 55.9375 252.413 56.5092 252.094 56.9496C251.778 57.3935 251.351 57.7184 250.815 57.9244C250.283 58.1339 249.69 58.2386 249.036 58.2386ZM248.994 53.7429C249.498 53.7429 249.924 53.6275 250.272 53.3967C250.62 53.1658 250.884 52.8338 251.066 52.4006C251.247 51.9673 251.337 51.4489 251.337 50.8452C251.337 50.2557 251.248 49.7354 251.071 49.2844C250.893 48.8335 250.631 48.4801 250.283 48.2244C249.935 47.9687 249.505 47.8409 248.994 47.8409C248.461 47.8409 248.017 47.9759 247.662 48.2457C247.31 48.5156 247.046 48.8778 246.868 49.3324C246.694 49.7869 246.607 50.2912 246.607 50.8452C246.607 51.4134 246.696 51.9158 246.873 52.3526C247.055 52.7859 247.321 53.1268 247.672 53.3754C248.028 53.6204 248.468 53.7429 248.994 53.7429ZM258.305 55.1705C257.516 55.1705 256.836 54.9964 256.264 54.6484C255.696 54.2969 255.258 53.8068 254.949 53.1783C254.643 52.5462 254.491 51.8111 254.491 50.973C254.491 50.1349 254.643 49.3963 254.949 48.7571C255.258 48.1143 255.687 47.6136 256.238 47.255C256.792 46.8928 257.438 46.7116 258.177 46.7116C258.603 46.7116 259.024 46.7827 259.439 46.9247C259.855 47.0668 260.233 47.2976 260.574 47.6172C260.915 47.9332 261.186 48.3523 261.389 48.8743C261.591 49.3963 261.692 50.0391 261.692 50.8026V51.3352H255.386V50.2486H260.414C260.414 49.7869 260.322 49.375 260.137 49.0128C259.956 48.6506 259.697 48.3647 259.359 48.1552C259.025 47.9457 258.631 47.8409 258.177 47.8409C257.676 47.8409 257.243 47.9652 256.877 48.2138C256.515 48.4588 256.236 48.7784 256.041 49.1726C255.845 49.5668 255.748 49.9893 255.748 50.4403V51.1648C255.748 51.7827 255.854 52.3065 256.067 52.7362C256.284 53.1623 256.584 53.4872 256.968 53.7109C257.351 53.9311 257.797 54.0412 258.305 54.0412C258.635 54.0412 258.933 53.995 259.199 53.9027C259.469 53.8068 259.702 53.6648 259.897 53.4766C260.093 53.2848 260.244 53.0469 260.35 52.7628L261.565 53.1037C261.437 53.5156 261.222 53.8778 260.92 54.1903C260.618 54.4993 260.245 54.7408 259.801 54.9148C259.358 55.0852 258.859 55.1705 258.305 55.1705ZM269.4 48.6506L268.271 48.9702C268.2 48.782 268.095 48.5991 267.957 48.4215C267.822 48.2404 267.637 48.0913 267.403 47.9741C267.168 47.8569 266.868 47.7983 266.502 47.7983C266.002 47.7983 265.584 47.9137 265.251 48.1445C264.92 48.3718 264.755 48.6612 264.755 49.0128C264.755 49.3253 264.869 49.5721 265.096 49.7532C265.323 49.9343 265.679 50.0852 266.161 50.206L267.376 50.5043C268.108 50.6818 268.653 50.9535 269.011 51.3192C269.37 51.6815 269.549 52.1484 269.549 52.7202C269.549 53.1889 269.414 53.608 269.144 53.9773C268.878 54.3466 268.505 54.6378 268.026 54.8509C267.546 55.0639 266.989 55.1705 266.353 55.1705C265.519 55.1705 264.828 54.9893 264.281 54.6271C263.734 54.2649 263.388 53.7358 263.242 53.0398L264.436 52.7415C264.549 53.1818 264.764 53.5121 265.08 53.7322C265.4 53.9524 265.817 54.0625 266.332 54.0625C266.918 54.0625 267.383 53.9382 267.728 53.6896C268.076 53.4375 268.25 53.1357 268.25 52.7841C268.25 52.5 268.15 52.2621 267.951 52.0703C267.752 51.875 267.447 51.7294 267.035 51.6335L265.671 51.3139C264.922 51.1364 264.372 50.8612 264.02 50.4883C263.672 50.1119 263.498 49.6413 263.498 49.0767C263.498 48.6151 263.628 48.2067 263.887 47.8516C264.15 47.4964 264.507 47.2177 264.958 47.0153C265.412 46.8129 265.927 46.7116 266.502 46.7116C267.312 46.7116 267.948 46.8892 268.409 47.2443C268.875 47.5994 269.205 48.0682 269.4 48.6506Z" fill="#A9A9A9"/>
<g clip-path="url(#clip0_964_18)">
<path d="M706.724 36.7742L702.226 32.2761C702.101 32.1514 701.899 32.1515 701.774 32.2764C701.649 32.4013 701.649 32.6037 701.774 32.7284L705.728 36.6818L697.502 36.682C697.418 36.6819 697.337 36.7155 697.277 36.7754C697.153 36.8998 697.153 37.101 697.278 37.225C697.337 37.2848 697.418 37.3184 697.502 37.3184L705.728 37.3182L701.774 41.2722C701.649 41.397 701.649 41.5993 701.774 41.724L701.774 41.7241C701.899 41.8488 702.101 41.8488 702.226 41.724L706.724 37.226C706.849 37.1012 706.849 36.8989 706.724 36.7742Z" fill="black"/>
</g>
<path d="M33.9786 27.068C30.2482 26.5433 26.7999 29.0672 26.1304 32.7397C24.4447 33.6632 23.2462 35.3722 23.0441 37.398C21.2549 38.1595 20 39.9326 20 41.9998C20 44.7612 22.2386 46.9998 25 46.9998C27.0723 46.9973 28.8489 45.7357 29.6074 43.9389C31.6166 43.7346 33.3165 42.552 34.2424 40.8641C37.2029 40.3298 39.5099 37.9698 39.9318 34.9704C40.47 31.1443 37.8047 27.6063 33.9786 27.068ZM25 45.9998C22.7908 45.9998 21 44.209 21 41.9998C21 39.7906 22.7908 37.9998 25 37.9998C27.2083 38.002 28.9978 39.7915 29 41.9998C29 44.209 27.2092 45.9998 25 45.9998ZM29.9072 42.9109C29.9622 42.6147 29.9996 42.3119 30 41.9998C30 39.2384 27.7614 36.9998 25 36.9998C24.6876 36.9998 24.3846 37.0369 24.0881 37.0917C24.4636 35.0531 26.0587 33.4578 28.0974 33.0824C30.8115 32.5826 33.4167 34.3777 33.9166 37.0917C34.4163 39.8058 32.6213 42.4112 29.9072 42.9109ZM34.7275 39.739C34.7275 39.739 34.7156 39.7574 34.7072 39.7703C34.8593 39.2815 34.9731 38.776 34.995 38.242C35.1307 34.9329 32.5581 32.1404 29.249 32.0048C28.5576 31.9764 27.8912 32.0724 27.2643 32.2625C27.8459 30.3372 29.3534 28.8312 31.2801 28.2529C34.4519 27.3009 37.7949 29.1004 38.7469 32.2722C39.6989 35.4441 37.8994 38.7871 34.7275 39.739Z" fill="black"/>
<defs>
<clipPath id="clip0_964_18">
<rect width="14" height="14" fill="white" transform="translate(702 27.1006) rotate(45)"/>
</clipPath>
</defs>
</svg>
