<svg width="736" height="74" viewBox="0 0 736 74" fill="none" xmlns="http://www.w3.org/2000/svg">
<path d="M72.542 29.221C71.6353 29.221 70.8533 29.0397 70.196 28.677C69.5387 28.303 69.0343 27.776 68.683 27.096C68.3317 26.4047 68.156 25.583 68.156 24.631V17.1H69.601V24.665C69.601 25.6737 69.8503 26.45 70.349 26.994C70.859 27.538 71.59 27.81 72.542 27.81C73.4827 27.81 74.2023 27.538 74.701 26.994C75.211 26.45 75.466 25.6737 75.466 24.665V17.1H76.911V24.631C76.911 25.583 76.7353 26.4047 76.384 27.096C76.0327 27.776 75.5283 28.303 74.871 28.677C74.225 29.0397 73.4487 29.221 72.542 29.221ZM82.0512 29.221C81.1559 29.221 80.4022 29.0057 79.7902 28.575C79.1782 28.1443 78.7702 27.5437 78.5662 26.773L79.8922 26.45L80.0792 26.484C80.2039 26.9147 80.4532 27.2547 80.8272 27.504C81.2126 27.742 81.6602 27.861 82.1702 27.861C82.6802 27.861 83.1109 27.7477 83.4622 27.521C83.8249 27.283 84.0062 26.977 84.0062 26.603C84.0062 26.297 83.8986 26.0533 83.6832 25.872C83.4792 25.6793 83.1676 25.5377 82.7482 25.447L81.1672 25.09C80.3739 24.9087 79.7846 24.614 79.3992 24.206C79.0252 23.798 78.8382 23.3107 78.8382 22.744C78.8382 22.2567 78.9686 21.826 79.2292 21.452C79.5012 21.078 79.8752 20.789 80.3512 20.585C80.8272 20.3697 81.3656 20.262 81.9662 20.262C82.8389 20.262 83.5756 20.4773 84.1762 20.908C84.7769 21.3387 85.1736 21.9507 85.3662 22.744L84.0402 23.016L83.8532 22.982C83.7512 22.5513 83.5132 22.217 83.1392 21.979C82.7766 21.741 82.3742 21.622 81.9322 21.622C81.4676 21.622 81.0766 21.724 80.7592 21.928C80.4532 22.1207 80.3002 22.3757 80.3002 22.693C80.3002 22.9537 80.3966 23.1747 80.5892 23.356C80.7932 23.526 81.1106 23.6563 81.5412 23.747L83.1392 24.121C83.9326 24.3023 84.5219 24.5913 84.9072 24.988C85.2926 25.3847 85.4852 25.8947 85.4852 26.518C85.4852 27.0733 85.3322 27.555 85.0262 27.963C84.7316 28.3597 84.3236 28.6713 83.8022 28.898C83.2922 29.1133 82.7086 29.221 82.0512 29.221ZM90.921 29.221C90.0937 29.221 89.3627 29.034 88.728 28.66C88.0933 28.2747 87.5947 27.7477 87.232 27.079C86.8807 26.4103 86.705 25.6283 86.705 24.733C86.705 23.849 86.8807 23.0727 87.232 22.404C87.5833 21.724 88.0707 21.197 88.694 20.823C89.3287 20.449 90.054 20.262 90.87 20.262C91.6747 20.262 92.3773 20.4547 92.978 20.84C93.59 21.214 94.066 21.7467 94.406 22.438C94.746 23.1293 94.916 23.934 94.916 24.852V25.056L94.661 25.294H87.504V23.951H94.134L93.454 24.223C93.42 23.679 93.284 23.2143 93.046 22.829C92.808 22.4437 92.502 22.149 92.128 21.945C91.754 21.7297 91.3347 21.622 90.87 21.622C90.3713 21.622 89.9123 21.7467 89.493 21.996C89.0737 22.234 88.745 22.574 88.507 23.016C88.269 23.458 88.15 23.968 88.15 24.546V24.886C88.15 25.4527 88.269 25.9627 88.507 26.416C88.745 26.858 89.0737 27.2093 89.493 27.47C89.9123 27.7307 90.3883 27.861 90.921 27.861C91.4423 27.861 91.8957 27.7363 92.281 27.487C92.6663 27.2263 92.9667 26.875 93.182 26.433H93.386L94.576 26.96C94.2587 27.6627 93.777 28.218 93.131 28.626C92.4963 29.0227 91.7597 29.221 90.921 29.221ZM96.7273 29V20.483H98.1213V22.88L97.7133 22.625C97.9173 21.9677 98.297 21.4463 98.8523 21.061C99.4076 20.6757 100.031 20.483 100.722 20.483H101.589V21.843H100.501C100.037 21.843 99.6286 21.9563 99.2773 22.183C98.9373 22.3983 98.6653 22.7043 98.4613 23.101C98.2686 23.4863 98.1723 23.9397 98.1723 24.461V29H96.7273ZM108.893 29.221C108.303 29.221 107.776 29.1077 107.312 28.881C106.858 28.6543 106.501 28.3427 106.241 27.946C105.98 27.538 105.85 27.0733 105.85 26.552C105.85 25.804 106.116 25.1977 106.649 24.733C107.193 24.2683 107.941 23.9963 108.893 23.917L112.174 23.679V24.971L109.182 25.209C108.558 25.2543 108.094 25.3903 107.788 25.617C107.493 25.8323 107.346 26.1383 107.346 26.535C107.346 26.909 107.504 27.2207 107.822 27.47C108.139 27.7193 108.547 27.844 109.046 27.844C109.556 27.844 110.02 27.725 110.44 27.487C110.859 27.249 111.188 26.9317 111.426 26.535C111.675 26.1383 111.8 25.6963 111.8 25.209V23.832C111.8 23.186 111.596 22.6533 111.188 22.234C110.791 21.8147 110.258 21.605 109.59 21.605C109.068 21.605 108.621 21.7353 108.247 21.996C107.873 22.2453 107.618 22.5967 107.482 23.05H107.295L106.037 22.642C106.286 21.8827 106.722 21.2933 107.346 20.874C107.969 20.4547 108.723 20.245 109.607 20.245C110.763 20.245 111.652 20.5907 112.276 21.282C112.91 21.9733 113.228 22.948 113.228 24.206V29H111.868V26.518L112.378 26.79C112.242 27.2547 111.998 27.674 111.647 28.048C111.307 28.4107 110.899 28.6997 110.423 28.915C109.958 29.119 109.448 29.221 108.893 29.221ZM118.292 29.221C117.397 29.221 116.643 29.0057 116.031 28.575C115.419 28.1443 115.011 27.5437 114.807 26.773L116.133 26.45L116.32 26.484C116.445 26.9147 116.694 27.2547 117.068 27.504C117.454 27.742 117.901 27.861 118.411 27.861C118.921 27.861 119.352 27.7477 119.703 27.521C120.066 27.283 120.247 26.977 120.247 26.603C120.247 26.297 120.14 26.0533 119.924 25.872C119.72 25.6793 119.409 25.5377 118.989 25.447L117.408 25.09C116.615 24.9087 116.026 24.614 115.64 24.206C115.266 23.798 115.079 23.3107 115.079 22.744C115.079 22.2567 115.21 21.826 115.47 21.452C115.742 21.078 116.116 20.789 116.592 20.585C117.068 20.3697 117.607 20.262 118.207 20.262C119.08 20.262 119.817 20.4773 120.417 20.908C121.018 21.3387 121.415 21.9507 121.607 22.744L120.281 23.016L120.094 22.982C119.992 22.5513 119.754 22.217 119.38 21.979C119.018 21.741 118.615 21.622 118.173 21.622C117.709 21.622 117.318 21.724 117 21.928C116.694 22.1207 116.541 22.3757 116.541 22.693C116.541 22.9537 116.638 23.1747 116.83 23.356C117.034 23.526 117.352 23.6563 117.782 23.747L119.38 24.121C120.174 24.3023 120.763 24.5913 121.148 24.988C121.534 25.3847 121.726 25.8947 121.726 26.518C121.726 27.0733 121.573 27.555 121.267 27.963C120.973 28.3597 120.565 28.6713 120.043 28.898C119.533 29.1133 118.95 29.221 118.292 29.221ZM129.944 29.221C129.354 29.221 128.827 29.1077 128.363 28.881C127.909 28.6543 127.552 28.3427 127.292 27.946C127.031 27.538 126.901 27.0733 126.901 26.552C126.901 25.804 127.167 25.1977 127.7 24.733C128.244 24.2683 128.992 23.9963 129.944 23.917L133.225 23.679V24.971L130.233 25.209C129.609 25.2543 129.145 25.3903 128.839 25.617C128.544 25.8323 128.397 26.1383 128.397 26.535C128.397 26.909 128.555 27.2207 128.873 27.47C129.19 27.7193 129.598 27.844 130.097 27.844C130.607 27.844 131.071 27.725 131.491 27.487C131.91 27.249 132.239 26.9317 132.477 26.535C132.726 26.1383 132.851 25.6963 132.851 25.209V23.832C132.851 23.186 132.647 22.6533 132.239 22.234C131.842 21.8147 131.309 21.605 130.641 21.605C130.119 21.605 129.672 21.7353 129.298 21.996C128.924 22.2453 128.669 22.5967 128.533 23.05H128.346L127.088 22.642C127.337 21.8827 127.773 21.2933 128.397 20.874C129.02 20.4547 129.774 20.245 130.658 20.245C131.814 20.245 132.703 20.5907 133.327 21.282C133.961 21.9733 134.279 22.948 134.279 24.206V29H132.919V26.518L133.429 26.79C133.293 27.2547 133.049 27.674 132.698 28.048C132.358 28.4107 131.95 28.6997 131.474 28.915C131.009 29.119 130.499 29.221 129.944 29.221ZM141.275 29V27.606H144.59C145.417 27.606 146.12 27.419 146.698 27.045C147.287 26.6597 147.74 26.127 148.058 25.447C148.375 24.767 148.534 23.968 148.534 23.05C148.534 22.1207 148.375 21.316 148.058 20.636C147.74 19.956 147.287 19.429 146.698 19.055C146.12 18.681 145.417 18.494 144.59 18.494H141.275V17.1H144.59C145.712 17.1 146.675 17.3493 147.48 17.848C148.296 18.3467 148.919 19.0437 149.35 19.939C149.78 20.8343 149.996 21.8713 149.996 23.05C149.996 24.2287 149.78 25.2657 149.35 26.161C148.919 27.0563 148.296 27.7533 147.48 28.252C146.675 28.7507 145.712 29 144.59 29H141.275ZM140.51 29V17.1H141.955V29H140.51ZM154.597 29.221C154.008 29.221 153.481 29.1077 153.016 28.881C152.563 28.6543 152.206 28.3427 151.945 27.946C151.684 27.538 151.554 27.0733 151.554 26.552C151.554 25.804 151.82 25.1977 152.353 24.733C152.897 24.2683 153.645 23.9963 154.597 23.917L157.878 23.679V24.971L154.886 25.209C154.263 25.2543 153.798 25.3903 153.492 25.617C153.197 25.8323 153.05 26.1383 153.05 26.535C153.05 26.909 153.209 27.2207 153.526 27.47C153.843 27.7193 154.251 27.844 154.75 27.844C155.26 27.844 155.725 27.725 156.144 27.487C156.563 27.249 156.892 26.9317 157.13 26.535C157.379 26.1383 157.504 25.6963 157.504 25.209V23.832C157.504 23.186 157.3 22.6533 156.892 22.234C156.495 21.8147 155.963 21.605 155.294 21.605C154.773 21.605 154.325 21.7353 153.951 21.996C153.577 22.2453 153.322 22.5967 153.186 23.05H152.999L151.741 22.642C151.99 21.8827 152.427 21.2933 153.05 20.874C153.673 20.4547 154.427 20.245 155.311 20.245C156.467 20.245 157.357 20.5907 157.98 21.282C158.615 21.9733 158.932 22.948 158.932 24.206V29H157.572V26.518L158.082 26.79C157.946 27.2547 157.702 27.674 157.351 28.048C157.011 28.4107 156.603 28.6997 156.127 28.915C155.662 29.119 155.152 29.221 154.597 29.221ZM163.79 29C163.053 29 162.453 28.7677 161.988 28.303C161.523 27.827 161.291 27.1867 161.291 26.382V18.188H162.736V26.263C162.736 26.7503 162.844 27.1017 163.059 27.317C163.274 27.521 163.62 27.623 164.096 27.623H165.116L165.201 27.81V29H163.79ZM159.829 21.843V20.483H165.201V21.843H159.829ZM169.455 29.221C168.866 29.221 168.339 29.1077 167.874 28.881C167.421 28.6543 167.064 28.3427 166.803 27.946C166.543 27.538 166.412 27.0733 166.412 26.552C166.412 25.804 166.679 25.1977 167.211 24.733C167.755 24.2683 168.503 23.9963 169.455 23.917L172.736 23.679V24.971L169.744 25.209C169.121 25.2543 168.656 25.3903 168.35 25.617C168.056 25.8323 167.908 26.1383 167.908 26.535C167.908 26.909 168.067 27.2207 168.384 27.47C168.702 27.7193 169.11 27.844 169.608 27.844C170.118 27.844 170.583 27.725 171.002 27.487C171.422 27.249 171.75 26.9317 171.988 26.535C172.238 26.1383 172.362 25.6963 172.362 25.209V23.832C172.362 23.186 172.158 22.6533 171.75 22.234C171.354 21.8147 170.821 21.605 170.152 21.605C169.631 21.605 169.183 21.7353 168.809 21.996C168.435 22.2453 168.18 22.5967 168.044 23.05H167.857L166.599 22.642C166.849 21.8827 167.285 21.2933 167.908 20.874C168.532 20.4547 169.285 20.245 170.169 20.245C171.325 20.245 172.215 20.5907 172.838 21.282C173.473 21.9733 173.79 22.948 173.79 24.206V29H172.43V26.518L172.94 26.79C172.804 27.2547 172.561 27.674 172.209 28.048C171.869 28.4107 171.461 28.6997 170.985 28.915C170.521 29.119 170.011 29.221 169.455 29.221ZM180.653 29.221C180.064 29.221 179.52 29.102 179.021 28.864C178.534 28.626 178.114 28.2973 177.763 27.878C177.423 27.4587 177.174 26.9827 177.015 26.45V23.033C177.174 22.489 177.423 22.013 177.763 21.605C178.114 21.1857 178.534 20.857 179.021 20.619C179.52 20.381 180.064 20.262 180.653 20.262C181.424 20.262 182.109 20.4547 182.71 20.84C183.311 21.2253 183.792 21.758 184.155 22.438C184.518 23.1067 184.699 23.8717 184.699 24.733C184.699 25.6057 184.518 26.382 184.155 27.062C183.792 27.7307 183.311 28.2577 182.71 28.643C182.109 29.0283 181.424 29.221 180.653 29.221ZM176.284 29V16.76L177.678 16.59L177.729 16.726V23.526L177.423 24.733L177.678 25.957V29H176.284ZM180.551 27.844C181.072 27.844 181.537 27.7137 181.945 27.453C182.353 27.181 182.67 26.8127 182.897 26.348C183.135 25.8833 183.254 25.345 183.254 24.733C183.254 24.121 183.135 23.5827 182.897 23.118C182.67 22.6533 182.353 22.2907 181.945 22.03C181.537 21.7693 181.072 21.639 180.551 21.639C180.007 21.639 179.52 21.7693 179.089 22.03C178.67 22.2907 178.335 22.6533 178.086 23.118C177.848 23.5827 177.729 24.121 177.729 24.733C177.729 25.345 177.848 25.8833 178.086 26.348C178.335 26.8127 178.67 27.181 179.089 27.453C179.52 27.7137 180.007 27.844 180.551 27.844ZM189.211 29.221C188.622 29.221 188.095 29.1077 187.63 28.881C187.177 28.6543 186.82 28.3427 186.559 27.946C186.298 27.538 186.168 27.0733 186.168 26.552C186.168 25.804 186.434 25.1977 186.967 24.733C187.511 24.2683 188.259 23.9963 189.211 23.917L192.492 23.679V24.971L189.5 25.209C188.877 25.2543 188.412 25.3903 188.106 25.617C187.811 25.8323 187.664 26.1383 187.664 26.535C187.664 26.909 187.823 27.2207 188.14 27.47C188.457 27.7193 188.865 27.844 189.364 27.844C189.874 27.844 190.339 27.725 190.758 27.487C191.177 27.249 191.506 26.9317 191.744 26.535C191.993 26.1383 192.118 25.6963 192.118 25.209V23.832C192.118 23.186 191.914 22.6533 191.506 22.234C191.109 21.8147 190.577 21.605 189.908 21.605C189.387 21.605 188.939 21.7353 188.565 21.996C188.191 22.2453 187.936 22.5967 187.8 23.05H187.613L186.355 22.642C186.604 21.8827 187.041 21.2933 187.664 20.874C188.287 20.4547 189.041 20.245 189.925 20.245C191.081 20.245 191.971 20.5907 192.594 21.282C193.229 21.9733 193.546 22.948 193.546 24.206V29H192.186V26.518L192.696 26.79C192.56 27.2547 192.316 27.674 191.965 28.048C191.625 28.4107 191.217 28.6997 190.741 28.915C190.276 29.119 189.766 29.221 189.211 29.221ZM198.611 29.221C197.715 29.221 196.962 29.0057 196.35 28.575C195.738 28.1443 195.33 27.5437 195.126 26.773L196.452 26.45L196.639 26.484C196.763 26.9147 197.013 27.2547 197.387 27.504C197.772 27.742 198.22 27.861 198.73 27.861C199.24 27.861 199.67 27.7477 200.022 27.521C200.384 27.283 200.566 26.977 200.566 26.603C200.566 26.297 200.458 26.0533 200.243 25.872C200.039 25.6793 199.727 25.5377 199.308 25.447L197.727 25.09C196.933 24.9087 196.344 24.614 195.959 24.206C195.585 23.798 195.398 23.3107 195.398 22.744C195.398 22.2567 195.528 21.826 195.789 21.452C196.061 21.078 196.435 20.789 196.911 20.585C197.387 20.3697 197.925 20.262 198.526 20.262C199.398 20.262 200.135 20.4773 200.736 20.908C201.336 21.3387 201.733 21.9507 201.926 22.744L200.6 23.016L200.413 22.982C200.311 22.5513 200.073 22.217 199.699 21.979C199.336 21.741 198.934 21.622 198.492 21.622C198.027 21.622 197.636 21.724 197.319 21.928C197.013 22.1207 196.86 22.3757 196.86 22.693C196.86 22.9537 196.956 23.1747 197.149 23.356C197.353 23.526 197.67 23.6563 198.101 23.747L199.699 24.121C200.492 24.3023 201.081 24.5913 201.467 24.988C201.852 25.3847 202.045 25.8947 202.045 26.518C202.045 27.0733 201.892 27.555 201.586 27.963C201.291 28.3597 200.883 28.6713 200.362 28.898C199.852 29.1133 199.268 29.221 198.611 29.221ZM207.481 29.221C206.653 29.221 205.922 29.034 205.288 28.66C204.653 28.2747 204.154 27.7477 203.792 27.079C203.44 26.4103 203.265 25.6283 203.265 24.733C203.265 23.849 203.44 23.0727 203.792 22.404C204.143 21.724 204.63 21.197 205.254 20.823C205.888 20.449 206.614 20.262 207.43 20.262C208.234 20.262 208.937 20.4547 209.538 20.84C210.15 21.214 210.626 21.7467 210.966 22.438C211.306 23.1293 211.476 23.934 211.476 24.852V25.056L211.221 25.294H204.064V23.951H210.694L210.014 24.223C209.98 23.679 209.844 23.2143 209.606 22.829C209.368 22.4437 209.062 22.149 208.688 21.945C208.314 21.7297 207.894 21.622 207.43 21.622C206.931 21.622 206.472 21.7467 206.053 21.996C205.633 22.234 205.305 22.574 205.067 23.016C204.829 23.458 204.71 23.968 204.71 24.546V24.886C204.71 25.4527 204.829 25.9627 205.067 26.416C205.305 26.858 205.633 27.2093 206.053 27.47C206.472 27.7307 206.948 27.861 207.481 27.861C208.002 27.861 208.455 27.7363 208.841 27.487C209.226 27.2263 209.526 26.875 209.742 26.433H209.946L211.136 26.96C210.818 27.6627 210.337 28.218 209.691 28.626C209.056 29.0227 208.319 29.221 207.481 29.221Z" fill="black"/>
<path d="M75.4801 44.0909H76.8011V51.3139C76.8011 52.0597 76.6254 52.7255 76.2738 53.3114C75.9258 53.8938 75.4339 54.3537 74.7983 54.6911C74.1626 55.0249 73.4169 55.1918 72.5611 55.1918C71.7053 55.1918 70.9595 55.0249 70.3239 54.6911C69.6882 54.3537 69.1946 53.8938 68.843 53.3114C68.495 52.7255 68.321 52.0597 68.321 51.3139V44.0909H69.642V51.2074C69.642 51.7401 69.7592 52.2141 69.9936 52.6296C70.228 53.0415 70.5618 53.3665 70.995 53.6044C71.4318 53.8388 71.9538 53.956 72.5611 53.956C73.1683 53.956 73.6903 53.8388 74.1271 53.6044C74.5639 53.3665 74.8977 53.0415 75.1286 52.6296C75.3629 52.2141 75.4801 51.7401 75.4801 51.2074V44.0909ZM85.0642 48.6506L83.9349 48.9702C83.8639 48.782 83.7591 48.5991 83.6207 48.4215C83.4857 48.2404 83.301 48.0913 83.0667 47.9741C82.8323 47.8569 82.5322 47.7983 82.1665 47.7983C81.6657 47.7983 81.2485 47.9137 80.9147 48.1445C80.5844 48.3718 80.4193 48.6612 80.4193 49.0128C80.4193 49.3253 80.5329 49.5721 80.7602 49.7532C80.9875 49.9343 81.3426 50.0852 81.8256 50.206L83.04 50.5043C83.7716 50.6818 84.3167 50.9535 84.6753 51.3192C85.034 51.6815 85.2133 52.1484 85.2133 52.7202C85.2133 53.1889 85.0784 53.608 84.8085 53.9773C84.5422 54.3466 84.1693 54.6378 83.6899 54.8509C83.2105 55.0639 82.653 55.1705 82.0173 55.1705C81.1828 55.1705 80.4921 54.9893 79.9452 54.6271C79.3983 54.2649 79.0521 53.7358 78.9065 53.0398L80.0997 52.7415C80.2133 53.1818 80.4282 53.5121 80.7442 53.7322C81.0638 53.9524 81.4811 54.0625 81.996 54.0625C82.5819 54.0625 83.0471 53.9382 83.3916 53.6896C83.7396 53.4375 83.9136 53.1357 83.9136 52.7841C83.9136 52.5 83.8142 52.2621 83.6153 52.0703C83.4165 51.875 83.1111 51.7294 82.6991 51.6335L81.3355 51.3139C80.5862 51.1364 80.0358 50.8612 79.6842 50.4883C79.3362 50.1119 79.1622 49.6413 79.1622 49.0767C79.1622 48.6151 79.2918 48.2067 79.551 47.8516C79.8138 47.4964 80.1707 47.2177 80.6217 47.0153C81.0763 46.8129 81.5912 46.7116 82.1665 46.7116C82.9761 46.7116 83.6118 46.8892 84.0734 47.2443C84.5386 47.5994 84.8689 48.0682 85.0642 48.6506ZM90.536 55.1705C89.7477 55.1705 89.0676 54.9964 88.4959 54.6484C87.9277 54.2969 87.4892 53.8068 87.1802 53.1783C86.8748 52.5462 86.7221 51.8111 86.7221 50.973C86.7221 50.1349 86.8748 49.3963 87.1802 48.7571C87.4892 48.1143 87.9189 47.6136 88.4693 47.255C89.0233 46.8928 89.6696 46.7116 90.4082 46.7116C90.8343 46.7116 91.2551 46.7827 91.6706 46.9247C92.0861 47.0668 92.4643 47.2976 92.8052 47.6172C93.1461 47.9332 93.4178 48.3523 93.6202 48.8743C93.8226 49.3963 93.9238 50.0391 93.9238 50.8026V51.3352H87.617V50.2486H92.6454C92.6454 49.7869 92.5531 49.375 92.3684 49.0128C92.1873 48.6506 91.9281 48.3647 91.5907 48.1552C91.2569 47.9457 90.8627 47.8409 90.4082 47.8409C89.9075 47.8409 89.4743 47.9652 89.1085 48.2138C88.7463 48.4588 88.4675 48.7784 88.2722 49.1726C88.0769 49.5668 87.9792 49.9893 87.9792 50.4403V51.1648C87.9792 51.7827 88.0858 52.3065 88.2988 52.7362C88.5154 53.1623 88.8155 53.4872 89.199 53.7109C89.5826 53.9311 90.0282 54.0412 90.536 54.0412C90.8663 54.0412 91.1646 53.995 91.4309 53.9027C91.7008 53.8068 91.9334 53.6648 92.1287 53.4766C92.324 53.2848 92.475 53.0469 92.5815 52.7628L93.796 53.1037C93.6681 53.5156 93.4533 53.8778 93.1515 54.1903C92.8496 54.4993 92.4767 54.7408 92.0328 54.9148C91.589 55.0852 91.09 55.1705 90.536 55.1705ZM95.8361 55V46.8182H97.0506V48.054H97.1358C97.285 47.6491 97.5549 47.3207 97.9455 47.0685C98.3361 46.8164 98.7765 46.6903 99.2665 46.6903C99.3588 46.6903 99.4743 46.6921 99.6127 46.6957C99.7512 46.6992 99.856 46.7045 99.927 46.7116V47.9901C99.8844 47.9794 99.7868 47.9634 99.6341 47.9421C99.4849 47.9173 99.3269 47.9048 99.16 47.9048C98.7623 47.9048 98.4071 47.9883 98.0946 48.1552C97.7857 48.3185 97.5407 48.5458 97.3596 48.837C97.182 49.1246 97.0932 49.4531 97.0932 49.8224V55H95.8361ZM108.044 55.1918C107.525 55.1918 107.055 55.0941 106.632 54.8988C106.209 54.6999 105.874 54.4141 105.625 54.0412C105.377 53.6648 105.252 53.2102 105.252 52.6776C105.252 52.2088 105.345 51.8288 105.529 51.5376C105.714 51.2429 105.961 51.0121 106.27 50.8452C106.579 50.6783 106.92 50.554 107.293 50.4723C107.669 50.3871 108.047 50.3196 108.427 50.2699C108.924 50.206 109.327 50.158 109.636 50.1261C109.949 50.0906 110.176 50.032 110.318 49.9503C110.464 49.8686 110.536 49.7266 110.536 49.5241V49.4815C110.536 48.956 110.393 48.5476 110.105 48.2564C109.821 47.9652 109.389 47.8196 108.811 47.8196C108.21 47.8196 107.74 47.951 107.399 48.2138C107.058 48.4766 106.818 48.7571 106.68 49.0554L105.487 48.6293C105.7 48.1321 105.984 47.745 106.339 47.468C106.698 47.1875 107.088 46.9922 107.511 46.8821C107.937 46.7685 108.356 46.7116 108.768 46.7116C109.031 46.7116 109.333 46.7436 109.674 46.8075C110.018 46.8679 110.35 46.994 110.67 47.1857C110.993 47.3775 111.261 47.6669 111.474 48.054C111.687 48.4411 111.794 48.9595 111.794 49.6094V55H110.536V53.892H110.473C110.387 54.0696 110.245 54.2596 110.046 54.462C109.848 54.6644 109.583 54.8366 109.253 54.9787C108.922 55.1207 108.519 55.1918 108.044 55.1918ZM108.235 54.0625C108.733 54.0625 109.152 53.9648 109.492 53.7695C109.837 53.5742 110.096 53.3221 110.27 53.0131C110.448 52.7042 110.536 52.3793 110.536 52.0384V50.8878C110.483 50.9517 110.366 51.0103 110.185 51.0636C110.007 51.1133 109.801 51.1577 109.567 51.1967C109.336 51.2322 109.111 51.2642 108.891 51.2926C108.674 51.3175 108.498 51.3388 108.363 51.3565C108.036 51.3991 107.731 51.4684 107.447 51.5643C107.166 51.6566 106.939 51.7969 106.765 51.9851C106.595 52.1697 106.509 52.4219 106.509 52.7415C106.509 53.1783 106.671 53.5085 106.994 53.7322C107.321 53.9524 107.735 54.0625 108.235 54.0625ZM115.345 50.0781V55H114.088V46.8182H115.303V48.0966H115.409C115.601 47.6811 115.892 47.3473 116.283 47.0952C116.673 46.8395 117.178 46.7116 117.795 46.7116C118.349 46.7116 118.834 46.8253 119.25 47.0526C119.665 47.2763 119.988 47.6172 120.219 48.0753C120.45 48.5298 120.565 49.1051 120.565 49.8011V55H119.308V49.8864C119.308 49.2436 119.141 48.7429 118.808 48.3842C118.474 48.022 118.016 47.8409 117.433 47.8409C117.032 47.8409 116.673 47.9279 116.357 48.1019C116.045 48.2759 115.798 48.5298 115.617 48.8636C115.436 49.1974 115.345 49.6023 115.345 50.0781ZM125.952 55.1705C125.27 55.1705 124.668 54.9982 124.146 54.6538C123.624 54.3058 123.216 53.8157 122.921 53.1836C122.626 52.5479 122.479 51.7969 122.479 50.9304C122.479 50.071 122.626 49.3253 122.921 48.6932C123.216 48.0611 123.626 47.5728 124.152 47.2283C124.677 46.8839 125.284 46.7116 125.973 46.7116C126.506 46.7116 126.927 46.8004 127.236 46.978C127.548 47.152 127.786 47.3509 127.949 47.5746C128.116 47.7947 128.246 47.9759 128.338 48.1179H128.445V44.0909H129.702V55H128.487V53.7429H128.338C128.246 53.892 128.115 54.0803 127.944 54.3075C127.774 54.5312 127.53 54.7319 127.214 54.9094C126.898 55.0835 126.478 55.1705 125.952 55.1705ZM126.122 54.0412C126.627 54.0412 127.053 53.9098 127.401 53.647C127.749 53.3807 128.013 53.0131 128.195 52.5444C128.376 52.0721 128.466 51.527 128.466 50.9091C128.466 50.2983 128.377 49.7638 128.2 49.3058C128.022 48.8441 127.759 48.4854 127.411 48.2298C127.063 47.9705 126.634 47.8409 126.122 47.8409C125.59 47.8409 125.146 47.9776 124.791 48.2511C124.439 48.521 124.175 48.8885 123.997 49.3537C123.823 49.8153 123.736 50.3338 123.736 50.9091C123.736 51.4915 123.825 52.0206 124.002 52.4964C124.184 52.9687 124.45 53.3452 124.801 53.6257C125.157 53.9027 125.597 54.0412 126.122 54.0412ZM138.805 55.1918C138.287 55.1918 137.816 55.0941 137.394 54.8988C136.971 54.6999 136.636 54.4141 136.387 54.0412C136.138 53.6648 136.014 53.2102 136.014 52.6776C136.014 52.2088 136.106 51.8288 136.291 51.5376C136.476 51.2429 136.723 51.0121 137.032 50.8452C137.34 50.6783 137.681 50.554 138.054 50.4723C138.431 50.3871 138.809 50.3196 139.189 50.2699C139.686 50.206 140.089 50.158 140.398 50.1261C140.71 50.0906 140.938 50.032 141.08 49.9503C141.225 49.8686 141.298 49.7266 141.298 49.5241V49.4815C141.298 48.956 141.154 48.5476 140.867 48.2564C140.583 47.9652 140.151 47.8196 139.572 47.8196C138.972 47.8196 138.502 47.951 138.161 48.2138C137.82 48.4766 137.58 48.7571 137.442 49.0554L136.248 48.6293C136.462 48.1321 136.746 47.745 137.101 47.468C137.459 47.1875 137.85 46.9922 138.273 46.8821C138.699 46.7685 139.118 46.7116 139.53 46.7116C139.793 46.7116 140.094 46.7436 140.435 46.8075C140.78 46.8679 141.112 46.994 141.431 47.1857C141.755 47.3775 142.023 47.6669 142.236 48.054C142.449 48.4411 142.555 48.9595 142.555 49.6094V55H141.298V53.892H141.234C141.149 54.0696 141.007 54.2596 140.808 54.462C140.609 54.6644 140.345 54.8366 140.014 54.9787C139.684 55.1207 139.281 55.1918 138.805 55.1918ZM138.997 54.0625C139.494 54.0625 139.913 53.9648 140.254 53.7695C140.599 53.5742 140.858 53.3221 141.032 53.0131C141.209 52.7042 141.298 52.3793 141.298 52.0384V50.8878C141.245 50.9517 141.128 51.0103 140.947 51.0636C140.769 51.1133 140.563 51.1577 140.329 51.1967C140.098 51.2322 139.872 51.2642 139.652 51.2926C139.436 51.3175 139.26 51.3388 139.125 51.3565C138.798 51.3991 138.493 51.4684 138.209 51.5643C137.928 51.6566 137.701 51.7969 137.527 51.9851C137.356 52.1697 137.271 52.4219 137.271 52.7415C137.271 53.1783 137.433 53.5085 137.756 53.7322C138.083 53.9524 138.496 54.0625 138.997 54.0625ZM148.152 58.2386C147.545 58.2386 147.023 58.1605 146.586 58.0043C146.15 57.8516 145.786 57.6491 145.494 57.397C145.207 57.1484 144.978 56.8821 144.807 56.598L145.809 55.8949C145.922 56.044 146.066 56.2145 146.24 56.4062C146.414 56.6016 146.652 56.7702 146.954 56.9123C147.259 57.0579 147.659 57.1307 148.152 57.1307C148.813 57.1307 149.358 56.9709 149.788 56.6513C150.217 56.3317 150.432 55.831 150.432 55.1491V53.4872H150.326C150.233 53.6364 150.102 53.821 149.931 54.0412C149.765 54.2578 149.523 54.4513 149.207 54.6218C148.895 54.7887 148.472 54.8722 147.939 54.8722C147.279 54.8722 146.686 54.7159 146.16 54.4034C145.638 54.0909 145.224 53.6364 144.919 53.0398C144.617 52.4432 144.466 51.7187 144.466 50.8665C144.466 50.0284 144.614 49.2987 144.908 48.6772C145.203 48.0522 145.613 47.5692 146.139 47.2283C146.664 46.8839 147.272 46.7116 147.961 46.7116C148.493 46.7116 148.916 46.8004 149.228 46.978C149.544 47.152 149.786 47.3509 149.953 47.5746C150.123 47.7947 150.255 47.9759 150.347 48.1179H150.475V46.8182H151.689V55.2344C151.689 55.9375 151.529 56.5092 151.21 56.9496C150.894 57.3935 150.468 57.7184 149.931 57.9244C149.399 58.1339 148.806 58.2386 148.152 58.2386ZM148.11 53.7429C148.614 53.7429 149.04 53.6275 149.388 53.3967C149.736 53.1658 150.001 52.8338 150.182 52.4006C150.363 51.9673 150.453 51.4489 150.453 50.8452C150.453 50.2557 150.365 49.7354 150.187 49.2844C150.01 48.8335 149.747 48.4801 149.399 48.2244C149.051 47.9687 148.621 47.8409 148.11 47.8409C147.577 47.8409 147.133 47.9759 146.778 48.2457C146.426 48.5156 146.162 48.8778 145.984 49.3324C145.81 49.7869 145.723 50.2912 145.723 50.8452C145.723 51.4134 145.812 51.9158 145.99 52.3526C146.171 52.7859 146.437 53.1268 146.789 53.3754C147.144 53.6204 147.584 53.7429 148.11 53.7429ZM157.421 55.1705C156.632 55.1705 155.952 54.9964 155.381 54.6484C154.812 54.2969 154.374 53.8068 154.065 53.1783C153.76 52.5462 153.607 51.8111 153.607 50.973C153.607 50.1349 153.76 49.3963 154.065 48.7571C154.374 48.1143 154.804 47.6136 155.354 47.255C155.908 46.8928 156.554 46.7116 157.293 46.7116C157.719 46.7116 158.14 46.7827 158.555 46.9247C158.971 47.0668 159.349 47.2976 159.69 47.6172C160.031 47.9332 160.303 48.3523 160.505 48.8743C160.707 49.3963 160.809 50.0391 160.809 50.8026V51.3352H154.502V50.2486H159.53C159.53 49.7869 159.438 49.375 159.253 49.0128C159.072 48.6506 158.813 48.3647 158.475 48.1552C158.142 47.9457 157.748 47.8409 157.293 47.8409C156.792 47.8409 156.359 47.9652 155.993 48.2138C155.631 48.4588 155.352 48.7784 155.157 49.1726C154.962 49.5668 154.864 49.9893 154.864 50.4403V51.1648C154.864 51.7827 154.971 52.3065 155.184 52.7362C155.4 53.1623 155.7 53.4872 156.084 53.7109C156.467 53.9311 156.913 54.0412 157.421 54.0412C157.751 54.0412 158.049 53.995 158.316 53.9027C158.586 53.8068 158.818 53.6648 159.013 53.4766C159.209 53.2848 159.36 53.0469 159.466 52.7628L160.681 53.1037C160.553 53.5156 160.338 53.8778 160.036 54.1903C159.734 54.4993 159.362 54.7408 158.918 54.9148C158.474 55.0852 157.975 55.1705 157.421 55.1705ZM163.978 50.0781V55H162.721V46.8182H163.935V48.0966H164.042C164.234 47.6811 164.525 47.3473 164.915 47.0952C165.306 46.8395 165.81 46.7116 166.428 46.7116C166.982 46.7116 167.467 46.8253 167.882 47.0526C168.298 47.2763 168.621 47.6172 168.852 48.0753C169.083 48.5298 169.198 49.1051 169.198 49.8011V55H167.941V49.8864C167.941 49.2436 167.774 48.7429 167.44 48.3842C167.107 48.022 166.648 47.8409 166.066 47.8409C165.665 47.8409 165.306 47.9279 164.99 48.1019C164.678 48.2759 164.431 48.5298 164.25 48.8636C164.069 49.1974 163.978 49.6023 163.978 50.0781ZM175.054 46.8182V47.8835H170.813V46.8182H175.054ZM172.049 44.858H173.306V52.6562C173.306 53.0114 173.358 53.2777 173.461 53.4553C173.567 53.6293 173.702 53.7464 173.866 53.8068C174.033 53.8636 174.208 53.892 174.393 53.892C174.532 53.892 174.645 53.8849 174.734 53.8707C174.823 53.853 174.894 53.8388 174.947 53.8281L175.203 54.9574C175.117 54.9893 174.998 55.0213 174.846 55.0533C174.693 55.0888 174.5 55.1065 174.265 55.1065C173.91 55.1065 173.562 55.0302 173.221 54.8775C172.884 54.7248 172.603 54.4922 172.38 54.1797C172.159 53.8672 172.049 53.473 172.049 52.9972V44.858ZM183.571 55.1918C183.052 55.1918 182.582 55.0941 182.159 54.8988C181.737 54.6999 181.401 54.4141 181.153 54.0412C180.904 53.6648 180.78 53.2102 180.78 52.6776C180.78 52.2088 180.872 51.8288 181.057 51.5376C181.241 51.2429 181.488 51.0121 181.797 50.8452C182.106 50.6783 182.447 50.554 182.82 50.4723C183.196 50.3871 183.574 50.3196 183.954 50.2699C184.452 50.206 184.855 50.158 185.164 50.1261C185.476 50.0906 185.703 50.032 185.845 49.9503C185.991 49.8686 186.064 49.7266 186.064 49.5241V49.4815C186.064 48.956 185.92 48.5476 185.632 48.2564C185.348 47.9652 184.917 47.8196 184.338 47.8196C183.738 47.8196 183.267 47.951 182.926 48.2138C182.585 48.4766 182.346 48.7571 182.207 49.0554L181.014 48.6293C181.227 48.1321 181.511 47.745 181.866 47.468C182.225 47.1875 182.616 46.9922 183.038 46.8821C183.464 46.7685 183.883 46.7116 184.295 46.7116C184.558 46.7116 184.86 46.7436 185.201 46.8075C185.545 46.8679 185.877 46.994 186.197 47.1857C186.52 47.3775 186.788 47.6669 187.001 48.054C187.214 48.4411 187.321 48.9595 187.321 49.6094V55H186.064V53.892H186C185.915 54.0696 185.773 54.2596 185.574 54.462C185.375 54.6644 185.11 54.8366 184.78 54.9787C184.45 55.1207 184.047 55.1918 183.571 55.1918ZM183.763 54.0625C184.26 54.0625 184.679 53.9648 185.02 53.7695C185.364 53.5742 185.623 53.3221 185.797 53.0131C185.975 52.7042 186.064 52.3793 186.064 52.0384V50.8878C186.011 50.9517 185.893 51.0103 185.712 51.0636C185.535 51.1133 185.329 51.1577 185.094 51.1967C184.864 51.2322 184.638 51.2642 184.418 51.2926C184.201 51.3175 184.025 51.3388 183.891 51.3565C183.564 51.3991 183.258 51.4684 182.974 51.5643C182.694 51.6566 182.467 51.7969 182.293 51.9851C182.122 52.1697 182.037 52.4219 182.037 52.7415C182.037 53.1783 182.198 53.5085 182.522 53.7322C182.848 53.9524 183.262 54.0625 183.763 54.0625ZM195.411 48.6506L194.282 48.9702C194.211 48.782 194.106 48.5991 193.967 48.4215C193.832 48.2404 193.648 48.0913 193.413 47.9741C193.179 47.8569 192.879 47.7983 192.513 47.7983C192.012 47.7983 191.595 47.9137 191.261 48.1445C190.931 48.3718 190.766 48.6612 190.766 49.0128C190.766 49.3253 190.88 49.5721 191.107 49.7532C191.334 49.9343 191.689 50.0852 192.172 50.206L193.387 50.5043C194.118 50.6818 194.663 50.9535 195.022 51.3192C195.381 51.6815 195.56 52.1484 195.56 52.7202C195.56 53.1889 195.425 53.608 195.155 53.9773C194.889 54.3466 194.516 54.6378 194.037 54.8509C193.557 55.0639 193 55.1705 192.364 55.1705C191.529 55.1705 190.839 54.9893 190.292 54.6271C189.745 54.2649 189.399 53.7358 189.253 53.0398L190.446 52.7415C190.56 53.1818 190.775 53.5121 191.091 53.7322C191.411 53.9524 191.828 54.0625 192.343 54.0625C192.929 54.0625 193.394 53.9382 193.738 53.6896C194.086 53.4375 194.26 53.1357 194.26 52.7841C194.26 52.5 194.161 52.2621 193.962 52.0703C193.763 51.875 193.458 51.7294 193.046 51.6335L191.682 51.3139C190.933 51.1364 190.382 50.8612 190.031 50.4883C189.683 50.1119 189.509 49.6413 189.509 49.0767C189.509 48.6151 189.638 48.2067 189.898 47.8516C190.161 47.4964 190.517 47.2177 190.968 47.0153C191.423 46.8129 191.938 46.7116 192.513 46.7116C193.323 46.7116 193.958 46.8892 194.42 47.2443C194.885 47.5994 195.216 48.0682 195.411 48.6506ZM204.079 55.1918C203.56 55.1918 203.09 55.0941 202.667 54.8988C202.245 54.6999 201.909 54.4141 201.66 54.0412C201.412 53.6648 201.288 53.2102 201.288 52.6776C201.288 52.2088 201.38 51.8288 201.565 51.5376C201.749 51.2429 201.996 51.0121 202.305 50.8452C202.614 50.6783 202.955 50.554 203.328 50.4723C203.704 50.3871 204.082 50.3196 204.462 50.2699C204.959 50.206 205.362 50.158 205.671 50.1261C205.984 50.0906 206.211 50.032 206.353 49.9503C206.499 49.8686 206.572 49.7266 206.572 49.5241V49.4815C206.572 48.956 206.428 48.5476 206.14 48.2564C205.856 47.9652 205.425 47.8196 204.846 47.8196C204.246 47.8196 203.775 47.951 203.434 48.2138C203.093 48.4766 202.854 48.7571 202.715 49.0554L201.522 48.6293C201.735 48.1321 202.019 47.745 202.374 47.468C202.733 47.1875 203.123 46.9922 203.546 46.8821C203.972 46.7685 204.391 46.7116 204.803 46.7116C205.066 46.7116 205.368 46.7436 205.709 46.8075C206.053 46.8679 206.385 46.994 206.705 47.1857C207.028 47.3775 207.296 47.6669 207.509 48.054C207.722 48.4411 207.829 48.9595 207.829 49.6094V55H206.572V53.892H206.508C206.422 54.0696 206.28 54.2596 206.082 54.462C205.883 54.6644 205.618 54.8366 205.288 54.9787C204.958 55.1207 204.555 55.1918 204.079 55.1918ZM204.271 54.0625C204.768 54.0625 205.187 53.9648 205.528 53.7695C205.872 53.5742 206.131 53.3221 206.305 53.0131C206.483 52.7042 206.572 52.3793 206.572 52.0384V50.8878C206.518 50.9517 206.401 51.0103 206.22 51.0636C206.043 51.1133 205.837 51.1577 205.602 51.1967C205.371 51.2322 205.146 51.2642 204.926 51.2926C204.709 51.3175 204.533 51.3388 204.398 51.3565C204.072 51.3991 203.766 51.4684 203.482 51.5643C203.202 51.6566 202.974 51.7969 202.8 51.9851C202.63 52.1697 202.545 52.4219 202.545 52.7415C202.545 53.1783 202.706 53.5085 203.029 53.7322C203.356 53.9524 203.77 54.0625 204.271 54.0625ZM217.431 55.1705C216.75 55.1705 216.148 54.9982 215.626 54.6538C215.104 54.3058 214.695 53.8157 214.401 53.1836C214.106 52.5479 213.958 51.7969 213.958 50.9304C213.958 50.071 214.106 49.3253 214.401 48.6932C214.695 48.0611 215.105 47.5728 215.631 47.2283C216.157 46.8839 216.764 46.7116 217.453 46.7116C217.985 46.7116 218.406 46.8004 218.715 46.978C219.028 47.152 219.266 47.3509 219.429 47.5746C219.596 47.7947 219.725 47.9759 219.818 48.1179H219.924V44.0909H221.181V55H219.967V53.7429H219.818C219.725 53.892 219.594 54.0803 219.424 54.3075C219.253 54.5312 219.01 54.7319 218.694 54.9094C218.378 55.0835 217.957 55.1705 217.431 55.1705ZM217.602 54.0412C218.106 54.0412 218.532 53.9098 218.88 53.647C219.228 53.3807 219.493 53.0131 219.674 52.5444C219.855 52.0721 219.946 51.527 219.946 50.9091C219.946 50.2983 219.857 49.7638 219.679 49.3058C219.502 48.8441 219.239 48.4854 218.891 48.2298C218.543 47.9705 218.113 47.8409 217.602 47.8409C217.069 47.8409 216.625 47.9776 216.27 48.2511C215.919 48.521 215.654 48.8885 215.477 49.3537C215.303 49.8153 215.216 50.3338 215.216 50.9091C215.216 51.4915 215.304 52.0206 215.482 52.4964C215.663 52.9687 215.929 53.3452 216.281 53.6257C216.636 53.9027 217.076 54.0412 217.602 54.0412ZM226.066 55.1918C225.548 55.1918 225.077 55.0941 224.654 54.8988C224.232 54.6999 223.896 54.4141 223.648 54.0412C223.399 53.6648 223.275 53.2102 223.275 52.6776C223.275 52.2088 223.367 51.8288 223.552 51.5376C223.737 51.2429 223.983 51.0121 224.292 50.8452C224.601 50.6783 224.942 50.554 225.315 50.4723C225.691 50.3871 226.07 50.3196 226.45 50.2699C226.947 50.206 227.35 50.158 227.659 50.1261C227.971 50.0906 228.199 50.032 228.341 49.9503C228.486 49.8686 228.559 49.7266 228.559 49.5241V49.4815C228.559 48.956 228.415 48.5476 228.127 48.2564C227.843 47.9652 227.412 47.8196 226.833 47.8196C226.233 47.8196 225.762 47.951 225.422 48.2138C225.081 48.4766 224.841 48.7571 224.702 49.0554L223.509 48.6293C223.722 48.1321 224.006 47.745 224.362 47.468C224.72 47.1875 225.111 46.9922 225.533 46.8821C225.96 46.7685 226.379 46.7116 226.79 46.7116C227.053 46.7116 227.355 46.7436 227.696 46.8075C228.04 46.8679 228.373 46.994 228.692 47.1857C229.015 47.3775 229.283 47.6669 229.496 48.054C229.71 48.4411 229.816 48.9595 229.816 49.6094V55H228.559V53.892H228.495C228.41 54.0696 228.268 54.2596 228.069 54.462C227.87 54.6644 227.605 54.8366 227.275 54.9787C226.945 55.1207 226.542 55.1918 226.066 55.1918ZM226.258 54.0625C226.755 54.0625 227.174 53.9648 227.515 53.7695C227.859 53.5742 228.119 53.3221 228.293 53.0131C228.47 52.7042 228.559 52.3793 228.559 52.0384V50.8878C228.506 50.9517 228.388 51.0103 228.207 51.0636C228.03 51.1133 227.824 51.1577 227.589 51.1967C227.359 51.2322 227.133 51.2642 226.913 51.2926C226.696 51.3175 226.521 51.3388 226.386 51.3565C226.059 51.3991 225.754 51.4684 225.469 51.5643C225.189 51.6566 224.962 51.7969 224.788 51.9851C224.617 52.1697 224.532 52.4219 224.532 52.7415C224.532 53.1783 224.694 53.5085 225.017 53.7322C225.343 53.9524 225.757 54.0625 226.258 54.0625ZM235.669 46.8182V47.8835H231.429V46.8182H235.669ZM232.665 44.858H233.922V52.6562C233.922 53.0114 233.973 53.2777 234.076 53.4553C234.183 53.6293 234.318 53.7464 234.481 53.8068C234.648 53.8636 234.824 53.892 235.008 53.892C235.147 53.892 235.26 53.8849 235.349 53.8707C235.438 53.853 235.509 53.8388 235.562 53.8281L235.818 54.9574C235.733 54.9893 235.614 55.0213 235.461 55.0533C235.308 55.0888 235.115 55.1065 234.88 55.1065C234.525 55.1065 234.177 55.0302 233.836 54.8775C233.499 54.7248 233.218 54.4922 232.995 54.1797C232.775 53.8672 232.665 53.473 232.665 52.9972V44.858ZM239.967 55.1918C239.449 55.1918 238.978 55.0941 238.556 54.8988C238.133 54.6999 237.798 54.4141 237.549 54.0412C237.301 53.6648 237.176 53.2102 237.176 52.6776C237.176 52.2088 237.269 51.8288 237.453 51.5376C237.638 51.2429 237.885 51.0121 238.194 50.8452C238.503 50.6783 238.843 50.554 239.216 50.4723C239.593 50.3871 239.971 50.3196 240.351 50.2699C240.848 50.206 241.251 50.158 241.56 50.1261C241.873 50.0906 242.1 50.032 242.242 49.9503C242.388 49.8686 242.46 49.7266 242.46 49.5241V49.4815C242.46 48.956 242.316 48.5476 242.029 48.2564C241.745 47.9652 241.313 47.8196 240.734 47.8196C240.134 47.8196 239.664 47.951 239.323 48.2138C238.982 48.4766 238.742 48.7571 238.604 49.0554L237.411 48.6293C237.624 48.1321 237.908 47.745 238.263 47.468C238.622 47.1875 239.012 46.9922 239.435 46.8821C239.861 46.7685 240.28 46.7116 240.692 46.7116C240.955 46.7116 241.256 46.7436 241.597 46.8075C241.942 46.8679 242.274 46.994 242.593 47.1857C242.917 47.3775 243.185 47.6669 243.398 48.054C243.611 48.4411 243.717 48.9595 243.717 49.6094V55H242.46V53.892H242.396C242.311 54.0696 242.169 54.2596 241.97 54.462C241.771 54.6644 241.507 54.8366 241.177 54.9787C240.846 55.1207 240.443 55.1918 239.967 55.1918ZM240.159 54.0625C240.656 54.0625 241.075 53.9648 241.416 53.7695C241.761 53.5742 242.02 53.3221 242.194 53.0131C242.372 52.7042 242.46 52.3793 242.46 52.0384V50.8878C242.407 50.9517 242.29 51.0103 242.109 51.0636C241.931 51.1133 241.725 51.1577 241.491 51.1967C241.26 51.2322 241.035 51.2642 240.814 51.2926C240.598 51.3175 240.422 51.3388 240.287 51.3565C239.96 51.3991 239.655 51.4684 239.371 51.5643C239.09 51.6566 238.863 51.7969 238.689 51.9851C238.519 52.1697 238.433 52.4219 238.433 52.7415C238.433 53.1783 238.595 53.5085 238.918 53.7322C239.245 53.9524 239.658 54.0625 240.159 54.0625ZM246.182 55V44.0909H247.439V48.1179H247.546C247.638 47.9759 247.766 47.7947 247.93 47.5746C248.096 47.3509 248.334 47.152 248.643 46.978C248.956 46.8004 249.378 46.7116 249.911 46.7116C250.6 46.7116 251.207 46.8839 251.733 47.2283C252.258 47.5728 252.669 48.0611 252.963 48.6932C253.258 49.3253 253.405 50.071 253.405 50.9304C253.405 51.7969 253.258 52.5479 252.963 53.1836C252.669 53.8157 252.26 54.3058 251.738 54.6538C251.216 54.9982 250.614 55.1705 249.932 55.1705C249.407 55.1705 248.986 55.0835 248.67 54.9094C248.354 54.7319 248.111 54.5312 247.94 54.3075C247.77 54.0803 247.638 53.892 247.546 53.7429H247.397V55H246.182ZM247.418 50.9091C247.418 51.527 247.509 52.0721 247.69 52.5444C247.871 53.0131 248.135 53.3807 248.483 53.647C248.831 53.9098 249.258 54.0412 249.762 54.0412C250.287 54.0412 250.726 53.9027 251.078 53.6257C251.433 53.3452 251.699 52.9687 251.877 52.4964C252.058 52.0206 252.148 51.4915 252.148 50.9091C252.148 50.3338 252.059 49.8153 251.882 49.3537C251.708 48.8885 251.443 48.521 251.088 48.2511C250.737 47.9776 250.295 47.8409 249.762 47.8409C249.251 47.8409 248.821 47.9705 248.473 48.2298C248.125 48.4854 247.862 48.8441 247.684 49.3058C247.507 49.7638 247.418 50.2983 247.418 50.9091ZM257.736 55.1918C257.218 55.1918 256.747 55.0941 256.324 54.8988C255.902 54.6999 255.566 54.4141 255.318 54.0412C255.069 53.6648 254.945 53.2102 254.945 52.6776C254.945 52.2088 255.037 51.8288 255.222 51.5376C255.406 51.2429 255.653 51.0121 255.962 50.8452C256.271 50.6783 256.612 50.554 256.985 50.4723C257.361 50.3871 257.74 50.3196 258.119 50.2699C258.617 50.206 259.02 50.158 259.329 50.1261C259.641 50.0906 259.868 50.032 260.01 49.9503C260.156 49.8686 260.229 49.7266 260.229 49.5241V49.4815C260.229 48.956 260.085 48.5476 259.797 48.2564C259.513 47.9652 259.082 47.8196 258.503 47.8196C257.903 47.8196 257.432 47.951 257.091 48.2138C256.751 48.4766 256.511 48.7571 256.372 49.0554L255.179 48.6293C255.392 48.1321 255.676 47.745 256.031 47.468C256.39 47.1875 256.781 46.9922 257.203 46.8821C257.629 46.7685 258.048 46.7116 258.46 46.7116C258.723 46.7116 259.025 46.7436 259.366 46.8075C259.71 46.8679 260.042 46.994 260.362 47.1857C260.685 47.3775 260.953 47.6669 261.166 48.054C261.379 48.4411 261.486 48.9595 261.486 49.6094V55H260.229V53.892H260.165C260.08 54.0696 259.938 54.2596 259.739 54.462C259.54 54.6644 259.275 54.8366 258.945 54.9787C258.615 55.1207 258.212 55.1918 257.736 55.1918ZM257.928 54.0625C258.425 54.0625 258.844 53.9648 259.185 53.7695C259.529 53.5742 259.789 53.3221 259.963 53.0131C260.14 52.7042 260.229 52.3793 260.229 52.0384V50.8878C260.176 50.9517 260.058 51.0103 259.877 51.0636C259.7 51.1133 259.494 51.1577 259.259 51.1967C259.029 51.2322 258.803 51.2642 258.583 51.2926C258.366 51.3175 258.191 51.3388 258.056 51.3565C257.729 51.3991 257.423 51.4684 257.139 51.5643C256.859 51.6566 256.632 51.7969 256.458 51.9851C256.287 52.1697 256.202 52.4219 256.202 52.7415C256.202 53.1783 256.363 53.5085 256.687 53.7322C257.013 53.9524 257.427 54.0625 257.928 54.0625ZM269.576 48.6506L268.447 48.9702C268.376 48.782 268.271 48.5991 268.132 48.4215C267.997 48.2404 267.813 48.0913 267.578 47.9741C267.344 47.8569 267.044 47.7983 266.678 47.7983C266.177 47.7983 265.76 47.9137 265.426 48.1445C265.096 48.3718 264.931 48.6612 264.931 49.0128C264.931 49.3253 265.045 49.5721 265.272 49.7532C265.499 49.9343 265.854 50.0852 266.337 50.206L267.552 50.5043C268.283 50.6818 268.828 50.9535 269.187 51.3192C269.546 51.6815 269.725 52.1484 269.725 52.7202C269.725 53.1889 269.59 53.608 269.32 53.9773C269.054 54.3466 268.681 54.6378 268.202 54.8509C267.722 55.0639 267.165 55.1705 266.529 55.1705C265.695 55.1705 265.004 54.9893 264.457 54.6271C263.91 54.2649 263.564 53.7358 263.418 53.0398L264.611 52.7415C264.725 53.1818 264.94 53.5121 265.256 53.7322C265.576 53.9524 265.993 54.0625 266.508 54.0625C267.094 54.0625 267.559 53.9382 267.903 53.6896C268.251 53.4375 268.425 53.1357 268.425 52.7841C268.425 52.5 268.326 52.2621 268.127 52.0703C267.928 51.875 267.623 51.7294 267.211 51.6335L265.847 51.3139C265.098 51.1364 264.547 50.8612 264.196 50.4883C263.848 50.1119 263.674 49.6413 263.674 49.0767C263.674 48.6151 263.804 48.2067 264.063 47.8516C264.326 47.4964 264.682 47.2177 265.133 47.0153C265.588 46.8129 266.103 46.7116 266.678 46.7116C267.488 46.7116 268.123 46.8892 268.585 47.2443C269.05 47.5994 269.381 48.0682 269.576 48.6506ZM275.048 55.1705C274.259 55.1705 273.579 54.9964 273.008 54.6484C272.439 54.2969 272.001 53.8068 271.692 53.1783C271.387 52.5462 271.234 51.8111 271.234 50.973C271.234 50.1349 271.387 49.3963 271.692 48.7571C272.001 48.1143 272.431 47.6136 272.981 47.255C273.535 46.8928 274.181 46.7116 274.92 46.7116C275.346 46.7116 275.767 46.7827 276.182 46.9247C276.598 47.0668 276.976 47.2976 277.317 47.6172C277.658 47.9332 277.93 48.3523 278.132 48.8743C278.334 49.3963 278.436 50.0391 278.436 50.8026V51.3352H272.129V50.2486H277.157C277.157 49.7869 277.065 49.375 276.88 49.0128C276.699 48.6506 276.44 48.3647 276.102 48.1552C275.769 47.9457 275.374 47.8409 274.92 47.8409C274.419 47.8409 273.986 47.9652 273.62 48.2138C273.258 48.4588 272.979 48.7784 272.784 49.1726C272.589 49.5668 272.491 49.9893 272.491 50.4403V51.1648C272.491 51.7827 272.597 52.3065 272.811 52.7362C273.027 53.1623 273.327 53.4872 273.711 53.7109C274.094 53.9311 274.54 54.0412 275.048 54.0412C275.378 54.0412 275.676 53.995 275.943 53.9027C276.213 53.8068 276.445 53.6648 276.64 53.4766C276.836 53.2848 276.987 53.0469 277.093 52.7628L278.308 53.1037C278.18 53.5156 277.965 53.8778 277.663 54.1903C277.361 54.4993 276.988 54.7408 276.545 54.9148C276.101 55.0852 275.602 55.1705 275.048 55.1705Z" fill="#A9A9A9"/>
<path d="M27 42.5H22.2L23.8 40.9C24 40.7 24 40.4 23.8 40.2C23.6 40 23.3 40 23.1 40.2L20.6 42.7C20.6 42.7 20.5 42.8 20.5 42.9C20.5 43 20.5 43 20.5 43.1C20.5 43.2 20.5 43.2 20.5 43.3C20.5 43.4 20.6 43.4 20.6 43.5L23.1 46C23.2 45.9 23.4 46 23.5 46C23.6 46 23.8 45.9 23.9 45.9C24.1 45.7 24.1 45.4 23.9 45.2L22.3 43.6H27C27.3 43.6 27.5 43.4 27.5 43.1C27.5 42.8 27.3 42.5 27 42.5ZM39.4 42.6L36.9 40.1C36.7 39.9 36.4 39.9 36.2 40.1C36 40.3 36 40.6 36.2 40.8L37.8 42.4H33C32.7 42.4 32.5 42.6 32.5 42.9C32.5 43.2 32.7 43.4 33 43.4H37.8L36.2 45C36.1 45.1 36.1 45.2 36.1 45.4C36.1 45.7 36.3 45.9 36.6 45.9C36.7 45.9 36.9 45.8 37 45.8L39.5 43.3C39.5 43.3 39.6 43.2 39.6 43.1C39.6 43 39.6 43 39.6 42.9C39.6 42.8 39.6 42.8 39.6 42.7C39.4 42.7 39.4 42.7 39.4 42.6ZM25.9 34.9C26.7 34.3 27.3 33.4 27.3 32.3C27.2 30.5 25.8 29 24 29C22.2 29 20.8 30.5 20.8 32.2C20.8 33.3 21.3 34.2 22.2 34.8C20.3 35.6 19 37.4 19 39.5C19 39.8 19.2 40 19.5 40C19.8 40 20 39.8 20 39.5C20 37.3 21.8 35.5 24 35.5C26.2 35.5 28 37.3 28 39.5C28 39.8 28.2 40 28.5 40C28.8 40 29 39.8 29 39.5C29 37.4 27.7 35.6 25.9 34.9ZM24 34.5C22.8 34.5 21.8 33.5 21.8 32.3C21.8 31.1 22.8 30 24 30C25.2 30 26.2 31 26.2 32.2C26.2 33.5 25.2 34.5 24 34.5ZM37.9 34.9C38.7 34.3 39.3 33.4 39.3 32.3C39.2 30.5 37.8 29 36 29C34.2 29 32.8 30.5 32.8 32.2C32.8 33.3 33.3 34.2 34.2 34.8C32.4 35.5 31.1 37.3 31.1 39.4C31.1 39.7 31.3 39.9 31.6 39.9C31.9 39.9 32.1 39.7 32.1 39.4C32.1 37.2 33.9 35.4 36.1 35.4C38.3 35.4 40.1 37.2 40.1 39.4C40.1 39.7 40.3 39.9 40.6 39.9C40.9 39.9 41.1 39.7 41.1 39.4C41 37.4 39.7 35.6 37.9 34.9ZM36 34.5C34.8 34.5 33.8 33.5 33.8 32.3C33.8 31.1 34.8 30 36 30C37.2 30 38.2 31 38.2 32.2C38.2 33.5 37.2 34.5 36 34.5Z" fill="black"/>
<g clip-path="url(#clip0_961_69)">
<path d="M706.724 36.7742L702.226 32.2761C702.101 32.1514 701.899 32.1515 701.774 32.2764C701.649 32.4013 701.649 32.6037 701.774 32.7284L705.728 36.6818L697.502 36.682C697.418 36.6819 697.337 36.7155 697.277 36.7754C697.153 36.8998 697.153 37.101 697.278 37.225C697.337 37.2848 697.418 37.3184 697.502 37.3184L705.728 37.3182L701.774 41.2722C701.649 41.397 701.649 41.5993 701.774 41.724L701.774 41.7241C701.899 41.8488 702.101 41.8488 702.226 41.724L706.724 37.226C706.849 37.1012 706.849 36.8989 706.724 36.7742Z" fill="black"/>
</g>
<defs>
<clipPath id="clip0_961_69">
<rect width="14" height="14" fill="white" transform="translate(702 27.1006) rotate(45)"/>
</clipPath>
</defs>
</svg>
