<svg width="736" height="74" viewBox="0 0 736 74" fill="none" xmlns="http://www.w3.org/2000/svg">
<path d="M71.097 29V17.1H72.559V29H71.097ZM67.408 18.494V17.1H76.231V18.494H67.408ZM78.5783 29.221C77.989 29.221 77.462 29.1077 76.9973 28.881C76.544 28.6543 76.187 28.3427 75.9263 27.946C75.6657 27.538 75.5353 27.0733 75.5353 26.552C75.5353 25.804 75.8017 25.1977 76.3343 24.733C76.8783 24.2683 77.6263 23.9963 78.5783 23.917L81.8593 23.679V24.971L78.8673 25.209C78.244 25.2543 77.7793 25.3903 77.4733 25.617C77.1787 25.8323 77.0313 26.1383 77.0313 26.535C77.0313 26.909 77.19 27.2207 77.5073 27.47C77.8247 27.7193 78.2327 27.844 78.7313 27.844C79.2413 27.844 79.706 27.725 80.1253 27.487C80.5447 27.249 80.8733 26.9317 81.1113 26.535C81.3607 26.1383 81.4853 25.6963 81.4853 25.209V23.832C81.4853 23.186 81.2813 22.6533 80.8733 22.234C80.4767 21.8147 79.944 21.605 79.2753 21.605C78.754 21.605 78.3063 21.7353 77.9323 21.996C77.5583 22.2453 77.3033 22.5967 77.1673 23.05H76.9803L75.7223 22.642C75.9717 21.8827 76.408 21.2933 77.0313 20.874C77.6547 20.4547 78.4083 20.245 79.2923 20.245C80.4483 20.245 81.338 20.5907 81.9613 21.282C82.596 21.9733 82.9133 22.948 82.9133 24.206V29H81.5533V26.518L82.0633 26.79C81.9273 27.2547 81.6837 27.674 81.3323 28.048C80.9923 28.4107 80.5843 28.6997 80.1083 28.915C79.6437 29.119 79.1337 29.221 78.5783 29.221ZM89.776 29.221C89.1867 29.221 88.6427 29.102 88.144 28.864C87.6567 28.626 87.2373 28.2973 86.886 27.878C86.546 27.4587 86.2967 26.9827 86.138 26.45V23.033C86.2967 22.489 86.546 22.013 86.886 21.605C87.2373 21.1857 87.6567 20.857 88.144 20.619C88.6427 20.381 89.1867 20.262 89.776 20.262C90.5467 20.262 91.2323 20.4547 91.833 20.84C92.4337 21.2253 92.9153 21.758 93.278 22.438C93.6407 23.1067 93.822 23.8717 93.822 24.733C93.822 25.6057 93.6407 26.382 93.278 27.062C92.9153 27.7307 92.4337 28.2577 91.833 28.643C91.2323 29.0283 90.5467 29.221 89.776 29.221ZM85.407 29V16.76L86.801 16.59L86.852 16.726V23.526L86.546 24.733L86.801 25.957V29H85.407ZM89.674 27.844C90.1953 27.844 90.66 27.7137 91.068 27.453C91.476 27.181 91.7933 26.8127 92.02 26.348C92.258 25.8833 92.377 25.345 92.377 24.733C92.377 24.121 92.258 23.5827 92.02 23.118C91.7933 22.6533 91.476 22.2907 91.068 22.03C90.66 21.7693 90.1953 21.639 89.674 21.639C89.13 21.639 88.6427 21.7693 88.212 22.03C87.7927 22.2907 87.4583 22.6533 87.209 23.118C86.971 23.5827 86.852 24.121 86.852 24.733C86.852 25.345 86.971 25.8833 87.209 26.348C87.4583 26.8127 87.7927 27.181 88.212 27.453C88.6427 27.7137 89.13 27.844 89.674 27.844ZM95.7332 29V16.76L97.1272 16.59L97.1782 16.726V29H95.7332ZM103.322 29.221C102.495 29.221 101.764 29.034 101.129 28.66C100.495 28.2747 99.996 27.7477 99.6334 27.079C99.282 26.4103 99.1064 25.6283 99.1064 24.733C99.1064 23.849 99.282 23.0727 99.6334 22.404C99.9847 21.724 100.472 21.197 101.095 20.823C101.73 20.449 102.455 20.262 103.271 20.262C104.076 20.262 104.779 20.4547 105.379 20.84C105.991 21.214 106.467 21.7467 106.807 22.438C107.147 23.1293 107.317 23.934 107.317 24.852V25.056L107.062 25.294H99.9054V23.951H106.535L105.855 24.223C105.821 23.679 105.685 23.2143 105.447 22.829C105.209 22.4437 104.903 22.149 104.529 21.945C104.155 21.7297 103.736 21.622 103.271 21.622C102.773 21.622 102.314 21.7467 101.894 21.996C101.475 22.234 101.146 22.574 100.908 23.016C100.67 23.458 100.551 23.968 100.551 24.546V24.886C100.551 25.4527 100.67 25.9627 100.908 26.416C101.146 26.858 101.475 27.2093 101.894 27.47C102.314 27.7307 102.79 27.861 103.322 27.861C103.844 27.861 104.297 27.7363 104.682 27.487C105.068 27.2263 105.368 26.875 105.583 26.433H105.787L106.977 26.96C106.66 27.6627 106.178 28.218 105.532 28.626C104.898 29.0227 104.161 29.221 103.322 29.221ZM118.115 29.221C117.038 29.221 116.086 28.966 115.259 28.456C114.432 27.9347 113.78 27.215 113.304 26.297C112.839 25.3677 112.607 24.2853 112.607 23.05C112.607 21.8033 112.839 20.721 113.304 19.803C113.78 18.885 114.432 18.171 115.259 17.661C116.086 17.1397 117.038 16.879 118.115 16.879C119.26 16.879 120.28 17.185 121.175 17.797C122.07 18.3977 122.733 19.259 123.164 20.381L121.906 20.738L121.719 20.704C121.39 19.9107 120.914 19.31 120.291 18.902C119.668 18.494 118.954 18.29 118.149 18.29C117.367 18.29 116.67 18.4827 116.058 18.868C115.446 19.2533 114.964 19.803 114.613 20.517C114.262 21.231 114.086 22.0753 114.086 23.05C114.086 24.0247 114.262 24.869 114.613 25.583C114.964 26.297 115.446 26.8467 116.058 27.232C116.67 27.6173 117.367 27.81 118.149 27.81C118.954 27.81 119.668 27.606 120.291 27.198C120.914 26.7787 121.39 26.178 121.719 25.396L121.906 25.362L123.164 25.719C122.733 26.841 122.07 27.708 121.175 28.32C120.28 28.9207 119.26 29.221 118.115 29.221ZM125.052 29V16.76L126.446 16.59L126.497 16.726V29H125.052ZM132.658 29.221C131.83 29.221 131.099 29.034 130.465 28.66C129.83 28.2747 129.331 27.7477 128.969 27.079C128.606 26.399 128.425 25.617 128.425 24.733C128.425 23.849 128.606 23.0727 128.969 22.404C129.331 21.724 129.83 21.197 130.465 20.823C131.099 20.449 131.83 20.262 132.658 20.262C133.496 20.262 134.233 20.449 134.868 20.823C135.502 21.197 136.001 21.724 136.364 22.404C136.726 23.0727 136.908 23.849 136.908 24.733C136.908 25.617 136.726 26.399 136.364 27.079C136.001 27.7477 135.502 28.2747 134.868 28.66C134.233 29.034 133.496 29.221 132.658 29.221ZM132.658 27.844C133.213 27.844 133.695 27.7193 134.103 27.47C134.522 27.2093 134.851 26.8467 135.089 26.382C135.327 25.906 135.446 25.3563 135.446 24.733C135.446 24.0983 135.327 23.5543 135.089 23.101C134.851 22.6363 134.522 22.2793 134.103 22.03C133.695 21.7693 133.213 21.639 132.658 21.639C132.114 21.639 131.632 21.7693 131.213 22.03C130.793 22.2793 130.465 22.6363 130.227 23.101C129.989 23.5543 129.87 24.0983 129.87 24.733C129.87 25.3563 129.989 25.906 130.227 26.382C130.465 26.8467 130.793 27.2093 131.213 27.47C131.632 27.7193 132.114 27.844 132.658 27.844ZM138.729 29V20.483H140.123V22.88L139.715 22.625C139.874 22.1377 140.123 21.7183 140.463 21.367C140.803 21.0157 141.2 20.7437 141.653 20.551C142.118 20.3583 142.611 20.262 143.132 20.262C143.744 20.262 144.288 20.3923 144.764 20.653C145.252 20.9137 145.631 21.299 145.903 21.809C146.175 22.319 146.311 22.9593 146.311 23.73V29H144.866V24.087C144.866 23.475 144.776 22.9933 144.594 22.642C144.413 22.2793 144.164 22.0243 143.846 21.877C143.54 21.7297 143.189 21.656 142.792 21.656C142.362 21.656 141.942 21.7637 141.534 21.979C141.138 22.183 140.809 22.4947 140.548 22.914C140.299 23.3333 140.174 23.8547 140.174 24.478V29H138.729ZM148.541 29V20.483H149.986V29H148.541ZM149.272 18.902C148.988 18.902 148.75 18.8057 148.558 18.613C148.365 18.4203 148.269 18.1823 148.269 17.899C148.269 17.6157 148.365 17.3777 148.558 17.185C148.75 16.981 148.988 16.879 149.272 16.879C149.555 16.879 149.793 16.981 149.986 17.185C150.19 17.3777 150.292 17.6157 150.292 17.899C150.292 18.1823 150.19 18.4203 149.986 18.613C149.793 18.8057 149.555 18.902 149.272 18.902ZM152.309 29V20.483H153.703V22.88L153.295 22.625C153.454 22.1377 153.703 21.7183 154.043 21.367C154.383 21.0157 154.78 20.7437 155.233 20.551C155.698 20.3583 156.191 20.262 156.712 20.262C157.324 20.262 157.868 20.3923 158.344 20.653C158.832 20.9137 159.211 21.299 159.483 21.809C159.755 22.319 159.891 22.9593 159.891 23.73V29H158.446V24.087C158.446 23.475 158.356 22.9933 158.174 22.642C157.993 22.2793 157.744 22.0243 157.426 21.877C157.12 21.7297 156.769 21.656 156.372 21.656C155.942 21.656 155.522 21.7637 155.114 21.979C154.718 22.183 154.389 22.4947 154.128 22.914C153.879 23.3333 153.754 23.8547 153.754 24.478V29H152.309ZM164.811 32.4C163.7 32.4 162.833 32.1733 162.21 31.72C161.586 31.2667 161.275 30.6547 161.275 29.884C161.275 29.3967 161.394 28.966 161.632 28.592C161.881 28.2067 162.244 27.912 162.72 27.708L163.451 28.439C163.201 28.5523 163.009 28.7167 162.873 28.932C162.737 29.1473 162.669 29.3797 162.669 29.629C162.669 30.0597 162.839 30.411 163.179 30.683C163.53 30.9663 164.023 31.108 164.658 31.108H165.848C166.505 31.108 167.021 30.9947 167.395 30.768C167.769 30.5527 167.956 30.2297 167.956 29.799C167.956 29.493 167.831 29.2493 167.582 29.068C167.344 28.8867 166.987 28.796 166.511 28.796H164.216C163.762 28.796 163.349 28.7167 162.975 28.558C162.612 28.388 162.323 28.1613 162.108 27.878C161.892 27.5833 161.785 27.2433 161.785 26.858C161.785 26.484 161.898 26.1383 162.125 25.821C162.351 25.5037 162.703 25.2543 163.179 25.073L163.978 25.787C163.672 25.8437 163.451 25.957 163.315 26.127C163.19 26.2857 163.128 26.4727 163.128 26.688C163.128 26.9487 163.235 27.1527 163.451 27.3C163.666 27.4473 163.961 27.521 164.335 27.521H166.562C167.412 27.521 168.086 27.7307 168.585 28.15C169.083 28.5693 169.333 29.119 169.333 29.799C169.333 30.6037 169.015 31.2383 168.381 31.703C167.746 32.1677 166.896 32.4 165.831 32.4H164.811ZM165.372 26.331C164.703 26.331 164.108 26.2007 163.587 25.94C163.077 25.6793 162.68 25.3223 162.397 24.869C162.113 24.4043 161.972 23.8773 161.972 23.288C161.972 22.6873 162.113 22.1603 162.397 21.707C162.68 21.2537 163.077 20.9023 163.587 20.653C164.108 20.3923 164.703 20.262 165.372 20.262C166.052 20.262 166.641 20.3923 167.14 20.653C167.65 20.9023 168.046 21.2537 168.33 21.707C168.624 22.1603 168.772 22.6873 168.772 23.288C168.772 23.8773 168.624 24.4043 168.33 24.869C168.046 25.3223 167.65 25.6793 167.14 25.94C166.641 26.2007 166.052 26.331 165.372 26.331ZM165.372 25.073C165.972 25.073 166.46 24.9087 166.834 24.58C167.208 24.2513 167.395 23.8207 167.395 23.288C167.395 22.7667 167.208 22.3417 166.834 22.013C166.46 21.6843 165.972 21.52 165.372 21.52C164.76 21.52 164.267 21.6843 163.893 22.013C163.53 22.3417 163.349 22.7667 163.349 23.288C163.349 23.8207 163.53 24.2513 163.893 24.58C164.267 24.9087 164.76 25.073 165.372 25.073ZM167.701 21.554L166.749 20.959C166.749 20.517 166.839 20.1203 167.021 19.769C167.213 19.4177 167.463 19.1457 167.769 18.953C168.075 18.749 168.42 18.647 168.806 18.647C168.896 18.647 168.993 18.6527 169.095 18.664C169.208 18.664 169.293 18.6753 169.35 18.698V20.007L169.265 20.194C169.151 20.16 169.015 20.143 168.857 20.143C168.471 20.143 168.182 20.2733 167.99 20.534C167.797 20.7947 167.701 21.1347 167.701 21.554Z" fill="black"/>
<path d="M77.0994 47.5H75.7784C75.7003 47.12 75.5636 46.7862 75.3683 46.4986C75.1765 46.2109 74.9421 45.9695 74.6651 45.7741C74.3917 45.5753 74.0881 45.4261 73.7543 45.3267C73.4205 45.2273 73.0724 45.1776 72.7102 45.1776C72.0497 45.1776 71.4513 45.3445 70.9151 45.6783C70.3825 46.0121 69.9581 46.5039 69.642 47.1538C69.3295 47.8036 69.1733 48.6009 69.1733 49.5455C69.1733 50.4901 69.3295 51.2873 69.642 51.9371C69.9581 52.587 70.3825 53.0788 70.9151 53.4126C71.4513 53.7464 72.0497 53.9134 72.7102 53.9134C73.0724 53.9134 73.4205 53.8636 73.7543 53.7642C74.0881 53.6648 74.3917 53.5174 74.6651 53.3221C74.9421 53.1232 75.1765 52.88 75.3683 52.5923C75.5636 52.3011 75.7003 51.9673 75.7784 51.5909H77.0994C77 52.1484 76.8189 52.6474 76.5561 53.0877C76.2933 53.5281 75.9666 53.9027 75.576 54.2116C75.1854 54.517 74.7468 54.7496 74.2603 54.9094C73.7773 55.0692 73.2607 55.1491 72.7102 55.1491C71.7798 55.1491 70.9524 54.9219 70.228 54.4673C69.5036 54.0128 68.9336 53.3665 68.5181 52.5284C68.1026 51.6903 67.8949 50.696 67.8949 49.5455C67.8949 48.3949 68.1026 47.4006 68.5181 46.5625C68.9336 45.7244 69.5036 45.0781 70.228 44.6236C70.9524 44.169 71.7798 43.9418 72.7102 43.9418C73.2607 43.9418 73.7773 44.0217 74.2603 44.1815C74.7468 44.3413 75.1854 44.5756 75.576 44.8846C75.9666 45.19 76.2933 45.5629 76.5561 46.0032C76.8189 46.44 77 46.9389 77.0994 47.5ZM79.0637 55V46.8182H80.2781V48.054H80.3634C80.5125 47.6491 80.7824 47.3207 81.173 47.0685C81.5637 46.8164 82.004 46.6903 82.4941 46.6903C82.5864 46.6903 82.7018 46.6921 82.8403 46.6957C82.9788 46.6992 83.0835 46.7045 83.1546 46.7116V47.9901C83.1119 47.9794 83.0143 47.9634 82.8616 47.9421C82.7124 47.9173 82.5544 47.9048 82.3875 47.9048C81.9898 47.9048 81.6347 47.9883 81.3222 48.1552C81.0132 48.3185 80.7682 48.5458 80.5871 48.837C80.4095 49.1246 80.3208 49.4531 80.3208 49.8224V55H79.0637ZM87.8261 55.1705C87.0377 55.1705 86.3577 54.9964 85.786 54.6484C85.2178 54.2969 84.7792 53.8068 84.4703 53.1783C84.1649 52.5462 84.0122 51.8111 84.0122 50.973C84.0122 50.1349 84.1649 49.3963 84.4703 48.7571C84.7792 48.1143 85.2089 47.6136 85.7593 47.255C86.3133 46.8928 86.9596 46.7116 87.6982 46.7116C88.1244 46.7116 88.5452 46.7827 88.9607 46.9247C89.3762 47.0668 89.7544 47.2976 90.0953 47.6172C90.4362 47.9332 90.7078 48.3523 90.9102 48.8743C91.1127 49.3963 91.2139 50.0391 91.2139 50.8026V51.3352H84.907V50.2486H89.9355C89.9355 49.7869 89.8431 49.375 89.6585 49.0128C89.4774 48.6506 89.2181 48.3647 88.8808 48.1552C88.547 47.9457 88.1528 47.8409 87.6982 47.8409C87.1975 47.8409 86.7643 47.9652 86.3985 48.2138C86.0363 48.4588 85.7575 48.7784 85.5622 49.1726C85.3669 49.5668 85.2693 49.9893 85.2693 50.4403V51.1648C85.2693 51.7827 85.3758 52.3065 85.5889 52.7362C85.8055 53.1623 86.1056 53.4872 86.4891 53.7109C86.8726 53.9311 87.3183 54.0412 87.8261 54.0412C88.1563 54.0412 88.4546 53.995 88.721 53.9027C88.9909 53.8068 89.2235 53.6648 89.4188 53.4766C89.6141 53.2848 89.765 53.0469 89.8715 52.7628L91.086 53.1037C90.9582 53.5156 90.7433 53.8778 90.4415 54.1903C90.1396 54.4993 89.7668 54.7408 89.3229 54.9148C88.879 55.0852 88.3801 55.1705 87.8261 55.1705ZM95.5338 55.1918C95.0154 55.1918 94.5448 55.0941 94.1222 54.8988C93.6997 54.6999 93.3641 54.4141 93.1155 54.0412C92.8669 53.6648 92.7426 53.2102 92.7426 52.6776C92.7426 52.2088 92.835 51.8288 93.0196 51.5376C93.2043 51.2429 93.4511 51.0121 93.76 50.8452C94.069 50.6783 94.4099 50.554 94.7828 50.4723C95.1592 50.3871 95.5374 50.3196 95.9173 50.2699C96.4145 50.206 96.8176 50.158 97.1265 50.1261C97.439 50.0906 97.6663 50.032 97.8083 49.9503C97.9539 49.8686 98.0267 49.7266 98.0267 49.5241V49.4815C98.0267 48.956 97.8829 48.5476 97.5953 48.2564C97.3112 47.9652 96.8797 47.8196 96.3009 47.8196C95.7007 47.8196 95.2302 47.951 94.8893 48.2138C94.5484 48.4766 94.3087 48.7571 94.1702 49.0554L92.977 48.6293C93.1901 48.1321 93.4742 47.745 93.8293 47.468C94.1879 47.1875 94.5786 46.9922 95.0012 46.8821C95.4273 46.7685 95.8463 46.7116 96.2583 46.7116C96.521 46.7116 96.8229 46.7436 97.1638 46.8075C97.5083 46.8679 97.8403 46.994 98.1599 47.1857C98.483 47.3775 98.7512 47.6669 98.9642 48.054C99.1773 48.4411 99.2838 48.9595 99.2838 49.6094V55H98.0267V53.892H97.9628C97.8776 54.0696 97.7355 54.2596 97.5367 54.462C97.3378 54.6644 97.0732 54.8366 96.743 54.9787C96.4127 55.1207 96.0097 55.1918 95.5338 55.1918ZM95.7256 54.0625C96.2227 54.0625 96.6418 53.9648 96.9827 53.7695C97.3271 53.5742 97.5864 53.3221 97.7604 53.0131C97.9379 52.7042 98.0267 52.3793 98.0267 52.0384V50.8878C97.9735 50.9517 97.8563 51.0103 97.6752 51.0636C97.4976 51.1133 97.2916 51.1577 97.0573 51.1967C96.8264 51.2322 96.6009 51.2642 96.3808 51.2926C96.1642 51.3175 95.9884 51.3388 95.8534 51.3565C95.5267 51.3991 95.2213 51.4684 94.9372 51.5643C94.6567 51.6566 94.4294 51.7969 94.2554 51.9851C94.085 52.1697 93.9997 52.4219 93.9997 52.7415C93.9997 53.1783 94.1613 53.5085 94.4845 53.7322C94.8112 53.9524 95.2249 54.0625 95.7256 54.0625ZM105.137 46.8182V47.8835H100.896V46.8182H105.137ZM102.132 44.858H103.389V52.6562C103.389 53.0114 103.441 53.2777 103.544 53.4553C103.65 53.6293 103.785 53.7464 103.949 53.8068C104.116 53.8636 104.291 53.892 104.476 53.892C104.615 53.892 104.728 53.8849 104.817 53.8707C104.906 53.853 104.977 53.8388 105.03 53.8281L105.286 54.9574C105.2 54.9893 105.081 55.0213 104.929 55.0533C104.776 55.0888 104.583 55.1065 104.348 55.1065C103.993 55.1065 103.645 55.0302 103.304 54.8775C102.967 54.7248 102.686 54.4922 102.463 54.1797C102.242 53.8672 102.132 53.473 102.132 52.9972V44.858ZM110.37 55.1705C109.582 55.1705 108.902 54.9964 108.33 54.6484C107.762 54.2969 107.323 53.8068 107.014 53.1783C106.709 52.5462 106.556 51.8111 106.556 50.973C106.556 50.1349 106.709 49.3963 107.014 48.7571C107.323 48.1143 107.753 47.6136 108.303 47.255C108.857 46.8928 109.504 46.7116 110.242 46.7116C110.668 46.7116 111.089 46.7827 111.505 46.9247C111.92 47.0668 112.298 47.2976 112.639 47.6172C112.98 47.9332 113.252 48.3523 113.454 48.8743C113.657 49.3963 113.758 50.0391 113.758 50.8026V51.3352H107.451V50.2486H112.479C112.479 49.7869 112.387 49.375 112.202 49.0128C112.021 48.6506 111.762 48.3647 111.425 48.1552C111.091 47.9457 110.697 47.8409 110.242 47.8409C109.741 47.8409 109.308 47.9652 108.942 48.2138C108.58 48.4588 108.301 48.7784 108.106 49.1726C107.911 49.5668 107.813 49.9893 107.813 50.4403V51.1648C107.813 51.7827 107.92 52.3065 108.133 52.7362C108.349 53.1623 108.65 53.4872 109.033 53.7109C109.417 53.9311 109.862 54.0412 110.37 54.0412C110.7 54.0412 110.999 53.995 111.265 53.9027C111.535 53.8068 111.767 53.6648 111.963 53.4766C112.158 53.2848 112.309 53.0469 112.415 52.7628L113.63 53.1037C113.502 53.5156 113.287 53.8778 112.985 54.1903C112.684 54.4993 112.311 54.7408 111.867 54.9148C111.423 55.0852 110.924 55.1705 110.37 55.1705ZM119.889 55V46.8182H121.146V55H119.889ZM120.528 45.4545C120.283 45.4545 120.072 45.3711 119.894 45.2042C119.72 45.0373 119.633 44.8366 119.633 44.6023C119.633 44.3679 119.72 44.1673 119.894 44.0004C120.072 43.8335 120.283 43.75 120.528 43.75C120.773 43.75 120.983 43.8335 121.157 44.0004C121.334 44.1673 121.423 44.3679 121.423 44.6023C121.423 44.8366 121.334 45.0373 121.157 45.2042C120.983 45.3711 120.773 45.4545 120.528 45.4545ZM124.706 50.0781V55H123.448V46.8182H124.663V48.0966H124.769C124.961 47.6811 125.252 47.3473 125.643 47.0952C126.034 46.8395 126.538 46.7116 127.156 46.7116C127.71 46.7116 128.195 46.8253 128.61 47.0526C129.025 47.2763 129.349 47.6172 129.579 48.0753C129.81 48.5298 129.926 49.1051 129.926 49.8011V55H128.669V49.8864C128.669 49.2436 128.502 48.7429 128.168 48.3842C127.834 48.022 127.376 47.8409 126.794 47.8409C126.392 47.8409 126.034 47.9279 125.718 48.1019C125.405 48.2759 125.158 48.5298 124.977 48.8636C124.796 49.1974 124.706 49.6023 124.706 50.0781ZM138.018 48.6506L136.889 48.9702C136.818 48.782 136.713 48.5991 136.575 48.4215C136.44 48.2404 136.255 48.0913 136.021 47.9741C135.786 47.8569 135.486 47.7983 135.121 47.7983C134.62 47.7983 134.203 47.9137 133.869 48.1445C133.539 48.3718 133.373 48.6612 133.373 49.0128C133.373 49.3253 133.487 49.5721 133.714 49.7532C133.942 49.9343 134.297 50.0852 134.78 50.206L135.994 50.5043C136.726 50.6818 137.271 50.9535 137.629 51.3192C137.988 51.6815 138.167 52.1484 138.167 52.7202C138.167 53.1889 138.032 53.608 137.763 53.9773C137.496 54.3466 137.123 54.6378 136.644 54.8509C136.165 55.0639 135.607 55.1705 134.971 55.1705C134.137 55.1705 133.446 54.9893 132.899 54.6271C132.352 54.2649 132.006 53.7358 131.861 53.0398L133.054 52.7415C133.167 53.1818 133.382 53.5121 133.698 53.7322C134.018 53.9524 134.435 54.0625 134.95 54.0625C135.536 54.0625 136.001 53.9382 136.346 53.6896C136.694 53.4375 136.868 53.1357 136.868 52.7841C136.868 52.5 136.768 52.2621 136.569 52.0703C136.371 51.875 136.065 51.7294 135.653 51.6335L134.29 51.3139C133.54 51.1364 132.99 50.8612 132.638 50.4883C132.29 50.1119 132.116 49.6413 132.116 49.0767C132.116 48.6151 132.246 48.2067 132.505 47.8516C132.768 47.4964 133.125 47.2177 133.576 47.0153C134.03 46.8129 134.545 46.7116 135.121 46.7116C135.93 46.7116 136.566 46.8892 137.028 47.2443C137.493 47.5994 137.823 48.0682 138.018 48.6506ZM143.618 46.8182V47.8835H139.378V46.8182H143.618ZM140.614 44.858H141.871V52.6562C141.871 53.0114 141.922 53.2777 142.025 53.4553C142.132 53.6293 142.267 53.7464 142.43 53.8068C142.597 53.8636 142.773 53.892 142.957 53.892C143.096 53.892 143.21 53.8849 143.298 53.8707C143.387 53.853 143.458 53.8388 143.511 53.8281L143.767 54.9574C143.682 54.9893 143.563 55.0213 143.41 55.0533C143.258 55.0888 143.064 55.1065 142.83 55.1065C142.475 55.1065 142.127 55.0302 141.786 54.8775C141.448 54.7248 141.168 54.4922 140.944 54.1797C140.724 53.8672 140.614 53.473 140.614 52.9972V44.858ZM147.917 55.1918C147.398 55.1918 146.928 55.0941 146.505 54.8988C146.082 54.6999 145.747 54.4141 145.498 54.0412C145.25 53.6648 145.125 53.2102 145.125 52.6776C145.125 52.2088 145.218 51.8288 145.402 51.5376C145.587 51.2429 145.834 51.0121 146.143 50.8452C146.452 50.6783 146.793 50.554 147.166 50.4723C147.542 50.3871 147.92 50.3196 148.3 50.2699C148.797 50.206 149.2 50.158 149.509 50.1261C149.822 50.0906 150.049 50.032 150.191 49.9503C150.337 49.8686 150.41 49.7266 150.41 49.5241V49.4815C150.41 48.956 150.266 48.5476 149.978 48.2564C149.694 47.9652 149.263 47.8196 148.684 47.8196C148.084 47.8196 147.613 47.951 147.272 48.2138C146.931 48.4766 146.691 48.7571 146.553 49.0554L145.36 48.6293C145.573 48.1321 145.857 47.745 146.212 47.468C146.571 47.1875 146.961 46.9922 147.384 46.8821C147.81 46.7685 148.229 46.7116 148.641 46.7116C148.904 46.7116 149.206 46.7436 149.547 46.8075C149.891 46.8679 150.223 46.994 150.543 47.1857C150.866 47.3775 151.134 47.6669 151.347 48.054C151.56 48.4411 151.667 48.9595 151.667 49.6094V55H150.41V53.892H150.346C150.26 54.0696 150.118 54.2596 149.919 54.462C149.721 54.6644 149.456 54.8366 149.126 54.9787C148.796 55.1207 148.392 55.1918 147.917 55.1918ZM148.108 54.0625C148.606 54.0625 149.025 53.9648 149.366 53.7695C149.71 53.5742 149.969 53.3221 150.143 53.0131C150.321 52.7042 150.41 52.3793 150.41 52.0384V50.8878C150.356 50.9517 150.239 51.0103 150.058 51.0636C149.88 51.1133 149.674 51.1577 149.44 51.1967C149.209 51.2322 148.984 51.2642 148.764 51.2926C148.547 51.3175 148.371 51.3388 148.236 51.3565C147.91 51.3991 147.604 51.4684 147.32 51.5643C147.04 51.6566 146.812 51.7969 146.638 51.9851C146.468 52.1697 146.383 52.4219 146.383 52.7415C146.383 53.1783 146.544 53.5085 146.867 53.7322C147.194 53.9524 147.608 54.0625 148.108 54.0625ZM155.218 50.0781V55H153.961V46.8182H155.176V48.0966H155.282C155.474 47.6811 155.765 47.3473 156.156 47.0952C156.546 46.8395 157.051 46.7116 157.669 46.7116C158.222 46.7116 158.707 46.8253 159.123 47.0526C159.538 47.2763 159.861 47.6172 160.092 48.0753C160.323 48.5298 160.438 49.1051 160.438 49.8011V55H159.181V49.8864C159.181 49.2436 159.014 48.7429 158.681 48.3842C158.347 48.022 157.889 47.8409 157.306 47.8409C156.905 47.8409 156.546 47.9279 156.23 48.1019C155.918 48.2759 155.671 48.5298 155.49 48.8636C155.309 49.1974 155.218 49.6023 155.218 50.0781ZM166.294 46.8182V47.8835H162.054V46.8182H166.294ZM163.29 44.858H164.547V52.6562C164.547 53.0114 164.598 53.2777 164.701 53.4553C164.808 53.6293 164.943 53.7464 165.106 53.8068C165.273 53.8636 165.449 53.892 165.633 53.892C165.772 53.892 165.885 53.8849 165.974 53.8707C166.063 53.853 166.134 53.8388 166.187 53.8281L166.443 54.9574C166.358 54.9893 166.239 55.0213 166.086 55.0533C165.933 55.0888 165.74 55.1065 165.505 55.1065C165.15 55.1065 164.802 55.0302 164.461 54.8775C164.124 54.7248 163.843 54.4922 163.62 54.1797C163.4 53.8672 163.29 53.473 163.29 52.9972V44.858ZM175.727 55.1705C174.96 55.1705 174.3 54.9893 173.746 54.6271C173.192 54.2649 172.766 53.766 172.467 53.1303C172.169 52.4947 172.02 51.7685 172.02 50.9517C172.02 50.1207 172.173 49.3874 172.478 48.7518C172.787 48.1126 173.217 47.6136 173.767 47.255C174.321 46.8928 174.967 46.7116 175.706 46.7116C176.281 46.7116 176.8 46.8182 177.261 47.0312C177.723 47.2443 178.101 47.5426 178.396 47.9261C178.691 48.3097 178.874 48.7571 178.945 49.2685H177.688C177.592 48.8956 177.379 48.5653 177.048 48.2777C176.722 47.9865 176.281 47.8409 175.727 47.8409C175.237 47.8409 174.808 47.9687 174.438 48.2244C174.073 48.4766 173.787 48.8335 173.581 49.2951C173.378 49.7532 173.277 50.2912 173.277 50.9091C173.277 51.5412 173.377 52.0916 173.575 52.5604C173.778 53.0291 174.062 53.3931 174.428 53.6523C174.797 53.9116 175.23 54.0412 175.727 54.0412C176.054 54.0412 176.351 53.9844 176.617 53.8707C176.883 53.7571 177.109 53.5938 177.293 53.3807C177.478 53.1676 177.609 52.9119 177.688 52.6136H178.945C178.874 53.0966 178.698 53.5316 178.417 53.9187C178.14 54.3022 177.773 54.6076 177.315 54.8349C176.86 55.0586 176.331 55.1705 175.727 55.1705ZM182.04 44.0909V55H180.782V44.0909H182.04ZM187.666 55.1705C186.927 55.1705 186.279 54.9947 185.722 54.6431C185.168 54.2915 184.734 53.7997 184.422 53.1676C184.113 52.5355 183.958 51.7969 183.958 50.9517C183.958 50.0994 184.113 49.3555 184.422 48.7198C184.734 48.0842 185.168 47.5906 185.722 47.239C186.279 46.8874 186.927 46.7116 187.666 46.7116C188.404 46.7116 189.051 46.8874 189.605 47.239C190.162 47.5906 190.596 48.0842 190.904 48.7198C191.217 49.3555 191.373 50.0994 191.373 50.9517C191.373 51.7969 191.217 52.5355 190.904 53.1676C190.596 53.7997 190.162 54.2915 189.605 54.6431C189.051 54.9947 188.404 55.1705 187.666 55.1705ZM187.666 54.0412C188.227 54.0412 188.689 53.8974 189.051 53.6097C189.413 53.3221 189.681 52.9439 189.855 52.4751C190.029 52.0064 190.116 51.4986 190.116 50.9517C190.116 50.4048 190.029 49.8952 189.855 49.4229C189.681 48.9506 189.413 48.5689 189.051 48.2777C188.689 47.9865 188.227 47.8409 187.666 47.8409C187.105 47.8409 186.643 47.9865 186.281 48.2777C185.919 48.5689 185.651 48.9506 185.477 49.4229C185.303 49.8952 185.216 50.4048 185.216 50.9517C185.216 51.4986 185.303 52.0064 185.477 52.4751C185.651 52.9439 185.919 53.3221 186.281 53.6097C186.643 53.8974 187.105 54.0412 187.666 54.0412ZM194.549 50.0781V55H193.292V46.8182H194.507V48.0966H194.613C194.805 47.6811 195.096 47.3473 195.487 47.0952C195.877 46.8395 196.382 46.7116 197 46.7116C197.554 46.7116 198.038 46.8253 198.454 47.0526C198.869 47.2763 199.192 47.6172 199.423 48.0753C199.654 48.5298 199.769 49.1051 199.769 49.8011V55H198.512V49.8864C198.512 49.2436 198.345 48.7429 198.012 48.3842C197.678 48.022 197.22 47.8409 196.637 47.8409C196.236 47.8409 195.877 47.9279 195.561 48.1019C195.249 48.2759 195.002 48.5298 194.821 48.8636C194.64 49.1974 194.549 49.6023 194.549 50.0781ZM205.497 55.1705C204.709 55.1705 204.029 54.9964 203.457 54.6484C202.889 54.2969 202.45 53.8068 202.141 53.1783C201.836 52.5462 201.683 51.8111 201.683 50.973C201.683 50.1349 201.836 49.3963 202.141 48.7571C202.45 48.1143 202.88 47.6136 203.43 47.255C203.984 46.8928 204.631 46.7116 205.369 46.7116C205.795 46.7116 206.216 46.7827 206.632 46.9247C207.047 47.0668 207.425 47.2976 207.766 47.6172C208.107 47.9332 208.379 48.3523 208.581 48.8743C208.784 49.3963 208.885 50.0391 208.885 50.8026V51.3352H202.578V50.2486H207.606C207.606 49.7869 207.514 49.375 207.329 49.0128C207.148 48.6506 206.889 48.3647 206.552 48.1552C206.218 47.9457 205.824 47.8409 205.369 47.8409C204.868 47.8409 204.435 47.9652 204.069 48.2138C203.707 48.4588 203.428 48.7784 203.233 49.1726C203.038 49.5668 202.94 49.9893 202.94 50.4403V51.1648C202.94 51.7827 203.047 52.3065 203.26 52.7362C203.476 53.1623 203.776 53.4872 204.16 53.7109C204.544 53.9311 204.989 54.0412 205.497 54.0412C205.827 54.0412 206.126 53.995 206.392 53.9027C206.662 53.8068 206.894 53.6648 207.09 53.4766C207.285 53.2848 207.436 53.0469 207.542 52.7628L208.757 53.1037C208.629 53.5156 208.414 53.8778 208.112 54.1903C207.811 54.4993 207.438 54.7408 206.994 54.9148C206.55 55.0852 206.051 55.1705 205.497 55.1705ZM216.593 48.6506L215.463 48.9702C215.392 48.782 215.287 48.5991 215.149 48.4215C215.014 48.2404 214.829 48.0913 214.595 47.9741C214.361 47.8569 214.061 47.7983 213.695 47.7983C213.194 47.7983 212.777 47.9137 212.443 48.1445C212.113 48.3718 211.948 48.6612 211.948 49.0128C211.948 49.3253 212.061 49.5721 212.289 49.7532C212.516 49.9343 212.871 50.0852 213.354 50.206L214.568 50.5043C215.3 50.6818 215.845 50.9535 216.204 51.3192C216.562 51.6815 216.742 52.1484 216.742 52.7202C216.742 53.1889 216.607 53.608 216.337 53.9773C216.07 54.3466 215.698 54.6378 215.218 54.8509C214.739 55.0639 214.181 55.1705 213.546 55.1705C212.711 55.1705 212.02 54.9893 211.474 54.6271C210.927 54.2649 210.58 53.7358 210.435 53.0398L211.628 52.7415C211.742 53.1818 211.956 53.5121 212.273 53.7322C212.592 53.9524 213.009 54.0625 213.524 54.0625C214.11 54.0625 214.575 53.9382 214.92 53.6896C215.268 53.4375 215.442 53.1357 215.442 52.7841C215.442 52.5 215.343 52.2621 215.144 52.0703C214.945 51.875 214.639 51.7294 214.227 51.6335L212.864 51.3139C212.115 51.1364 211.564 50.8612 211.213 50.4883C210.865 50.1119 210.691 49.6413 210.691 49.0767C210.691 48.6151 210.82 48.2067 211.079 47.8516C211.342 47.4964 211.699 47.2177 212.15 47.0153C212.605 46.8129 213.119 46.7116 213.695 46.7116C214.504 46.7116 215.14 46.8892 215.602 47.2443C216.067 47.5994 216.397 48.0682 216.593 48.6506ZM226.177 55.1705C225.438 55.1705 224.79 54.9947 224.232 54.6431C223.678 54.2915 223.245 53.7997 222.933 53.1676C222.624 52.5355 222.469 51.7969 222.469 50.9517C222.469 50.0994 222.624 49.3555 222.933 48.7198C223.245 48.0842 223.678 47.5906 224.232 47.239C224.79 46.8874 225.438 46.7116 226.177 46.7116C226.915 46.7116 227.562 46.8874 228.116 47.239C228.673 47.5906 229.106 48.0842 229.415 48.7198C229.728 49.3555 229.884 50.0994 229.884 50.9517C229.884 51.7969 229.728 52.5355 229.415 53.1676C229.106 53.7997 228.673 54.2915 228.116 54.6431C227.562 54.9947 226.915 55.1705 226.177 55.1705ZM226.177 54.0412C226.738 54.0412 227.199 53.8974 227.562 53.6097C227.924 53.3221 228.192 52.9439 228.366 52.4751C228.54 52.0064 228.627 51.4986 228.627 50.9517C228.627 50.4048 228.54 49.8952 228.366 49.4229C228.192 48.9506 227.924 48.5689 227.562 48.2777C227.199 47.9865 226.738 47.8409 226.177 47.8409C225.616 47.8409 225.154 47.9865 224.792 48.2777C224.429 48.5689 224.161 48.9506 223.987 49.4229C223.813 49.8952 223.726 50.4048 223.726 50.9517C223.726 51.4986 223.813 52.0064 223.987 52.4751C224.161 52.9439 224.429 53.3221 224.792 53.6097C225.154 53.8974 225.616 54.0412 226.177 54.0412ZM235.446 46.8182V47.8835H231.036V46.8182H235.446ZM232.357 55V45.6889C232.357 45.2202 232.467 44.8295 232.687 44.517C232.907 44.2045 233.193 43.9702 233.545 43.8139C233.896 43.6577 234.267 43.5795 234.658 43.5795C234.967 43.5795 235.219 43.6044 235.414 43.6541C235.61 43.7038 235.755 43.75 235.851 43.7926L235.489 44.8793C235.425 44.858 235.336 44.8313 235.223 44.7994C235.113 44.7674 234.967 44.7514 234.786 44.7514C234.37 44.7514 234.07 44.8562 233.886 45.0657C233.705 45.2752 233.614 45.5824 233.614 45.9872V55H232.357ZM243.835 55.1918C243.316 55.1918 242.846 55.0941 242.423 54.8988C242 54.6999 241.665 54.4141 241.416 54.0412C241.168 53.6648 241.043 53.2102 241.043 52.6776C241.043 52.2088 241.136 51.8288 241.32 51.5376C241.505 51.2429 241.752 51.0121 242.061 50.8452C242.37 50.6783 242.711 50.554 243.084 50.4723C243.46 50.3871 243.838 50.3196 244.218 50.2699C244.715 50.206 245.118 50.158 245.427 50.1261C245.74 50.0906 245.967 50.032 246.109 49.9503C246.255 49.8686 246.328 49.7266 246.328 49.5241V49.4815C246.328 48.956 246.184 48.5476 245.896 48.2564C245.612 47.9652 245.18 47.8196 244.602 47.8196C244.002 47.8196 243.531 47.951 243.19 48.2138C242.849 48.4766 242.609 48.7571 242.471 49.0554L241.278 48.6293C241.491 48.1321 241.775 47.745 242.13 47.468C242.489 47.1875 242.879 46.9922 243.302 46.8821C243.728 46.7685 244.147 46.7116 244.559 46.7116C244.822 46.7116 245.124 46.7436 245.465 46.8075C245.809 46.8679 246.141 46.994 246.461 47.1857C246.784 47.3775 247.052 47.6669 247.265 48.054C247.478 48.4411 247.585 48.9595 247.585 49.6094V55H246.328V53.892H246.264C246.178 54.0696 246.036 54.2596 245.837 54.462C245.639 54.6644 245.374 54.8366 245.044 54.9787C244.714 55.1207 244.31 55.1918 243.835 55.1918ZM244.026 54.0625C244.524 54.0625 244.943 53.9648 245.283 53.7695C245.628 53.5742 245.887 53.3221 246.061 53.0131C246.239 52.7042 246.328 52.3793 246.328 52.0384V50.8878C246.274 50.9517 246.157 51.0103 245.976 51.0636C245.798 51.1133 245.592 51.1577 245.358 51.1967C245.127 51.2322 244.902 51.2642 244.682 51.2926C244.465 51.3175 244.289 51.3388 244.154 51.3565C243.828 51.3991 243.522 51.4684 243.238 51.5643C242.957 51.6566 242.73 51.7969 242.556 51.9851C242.386 52.1697 242.301 52.4219 242.301 52.7415C242.301 53.1783 242.462 53.5085 242.785 53.7322C243.112 53.9524 243.526 54.0625 244.026 54.0625ZM251.136 50.0781V55H249.879V46.8182H251.094V48.0966H251.2C251.392 47.6811 251.683 47.3473 252.074 47.0952C252.464 46.8395 252.969 46.7116 253.586 46.7116C254.14 46.7116 254.625 46.8253 255.041 47.0526C255.456 47.2763 255.779 47.6172 256.01 48.0753C256.241 48.5298 256.356 49.1051 256.356 49.8011V55H255.099V49.8864C255.099 49.2436 254.932 48.7429 254.599 48.3842C254.265 48.022 253.807 47.8409 253.224 47.8409C252.823 47.8409 252.464 47.9279 252.148 48.1019C251.836 48.2759 251.589 48.5298 251.408 48.8636C251.227 49.1974 251.136 49.6023 251.136 50.0781ZM259.17 58.0682C258.957 58.0682 258.767 58.0504 258.6 58.0149C258.433 57.983 258.318 57.951 258.254 57.919L258.574 56.8111C258.879 56.8892 259.149 56.9176 259.383 56.8963C259.618 56.875 259.825 56.7702 260.006 56.582C260.191 56.3974 260.36 56.0973 260.513 55.6818L260.747 55.0426L257.721 46.8182H259.085L261.343 53.3381H261.429L263.687 46.8182H265.051L261.578 56.1932C261.422 56.6158 261.228 56.9656 260.997 57.2425C260.766 57.5231 260.498 57.7308 260.193 57.8658C259.891 58.0007 259.55 58.0682 259.17 58.0682ZM274.487 46.8182V47.8835H270.247V46.8182H274.487ZM271.483 44.858H272.74V52.6562C272.74 53.0114 272.791 53.2777 272.894 53.4553C273.001 53.6293 273.136 53.7464 273.299 53.8068C273.466 53.8636 273.642 53.892 273.827 53.892C273.965 53.892 274.079 53.8849 274.168 53.8707C274.256 53.853 274.327 53.8388 274.381 53.8281L274.636 54.9574C274.551 54.9893 274.432 55.0213 274.279 55.0533C274.127 55.0888 273.933 55.1065 273.699 55.1065C273.344 55.1065 272.996 55.0302 272.655 54.8775C272.317 54.7248 272.037 54.4922 271.813 54.1797C271.593 53.8672 271.483 53.473 271.483 52.9972V44.858ZM278.786 55.1918C278.267 55.1918 277.797 55.0941 277.374 54.8988C276.952 54.6999 276.616 54.4141 276.367 54.0412C276.119 53.6648 275.995 53.2102 275.995 52.6776C275.995 52.2088 276.087 51.8288 276.272 51.5376C276.456 51.2429 276.703 51.0121 277.012 50.8452C277.321 50.6783 277.662 50.554 278.035 50.4723C278.411 50.3871 278.789 50.3196 279.169 50.2699C279.666 50.206 280.07 50.158 280.378 50.1261C280.691 50.0906 280.918 50.032 281.06 49.9503C281.206 49.8686 281.279 49.7266 281.279 49.5241V49.4815C281.279 48.956 281.135 48.5476 280.847 48.2564C280.563 47.9652 280.132 47.8196 279.553 47.8196C278.953 47.8196 278.482 47.951 278.141 48.2138C277.8 48.4766 277.561 48.7571 277.422 49.0554L276.229 48.6293C276.442 48.1321 276.726 47.745 277.081 47.468C277.44 47.1875 277.831 46.9922 278.253 46.8821C278.679 46.7685 279.098 46.7116 279.51 46.7116C279.773 46.7116 280.075 46.7436 280.416 46.8075C280.76 46.8679 281.092 46.994 281.412 47.1857C281.735 47.3775 282.003 47.6669 282.216 48.054C282.429 48.4411 282.536 48.9595 282.536 49.6094V55H281.279V53.892H281.215C281.13 54.0696 280.987 54.2596 280.789 54.462C280.59 54.6644 280.325 54.8366 279.995 54.9787C279.665 55.1207 279.262 55.1918 278.786 55.1918ZM278.978 54.0625C279.475 54.0625 279.894 53.9648 280.235 53.7695C280.579 53.5742 280.838 53.3221 281.012 53.0131C281.19 52.7042 281.279 52.3793 281.279 52.0384V50.8878C281.225 50.9517 281.108 51.0103 280.927 51.0636C280.75 51.1133 280.544 51.1577 280.309 51.1967C280.078 51.2322 279.853 51.2642 279.633 51.2926C279.416 51.3175 279.24 51.3388 279.105 51.3565C278.779 51.3991 278.473 51.4684 278.189 51.5643C277.909 51.6566 277.681 51.7969 277.507 51.9851C277.337 52.1697 277.252 52.4219 277.252 52.7415C277.252 53.1783 277.413 53.5085 277.736 53.7322C278.063 53.9524 278.477 54.0625 278.978 54.0625ZM285.001 55V44.0909H286.258V48.1179H286.364C286.457 47.9759 286.585 47.7947 286.748 47.5746C286.915 47.3509 287.153 47.152 287.462 46.978C287.774 46.8004 288.197 46.7116 288.729 46.7116C289.418 46.7116 290.026 46.8839 290.551 47.2283C291.077 47.5728 291.487 48.0611 291.782 48.6932C292.076 49.3253 292.224 50.071 292.224 50.9304C292.224 51.7969 292.076 52.5479 291.782 53.1836C291.487 53.8157 291.078 54.3058 290.556 54.6538C290.034 54.9982 289.433 55.1705 288.751 55.1705C288.225 55.1705 287.804 55.0835 287.488 54.9094C287.172 54.7319 286.929 54.5312 286.759 54.3075C286.588 54.0803 286.457 53.892 286.364 53.7429H286.215V55H285.001ZM286.237 50.9091C286.237 51.527 286.327 52.0721 286.508 52.5444C286.689 53.0131 286.954 53.3807 287.302 53.647C287.65 53.9098 288.076 54.0412 288.58 54.0412C289.106 54.0412 289.544 53.9027 289.896 53.6257C290.251 53.3452 290.517 52.9687 290.695 52.4964C290.876 52.0206 290.967 51.4915 290.967 50.9091C290.967 50.3338 290.878 49.8153 290.7 49.3537C290.526 48.8885 290.262 48.521 289.907 48.2511C289.555 47.9776 289.113 47.8409 288.58 47.8409C288.069 47.8409 287.639 47.9705 287.291 48.2298C286.943 48.4854 286.68 48.8441 286.503 49.3058C286.325 49.7638 286.237 50.2983 286.237 50.9091ZM295.404 44.0909V55H294.147V44.0909H295.404ZM301.137 55.1705C300.348 55.1705 299.668 54.9964 299.097 54.6484C298.528 54.2969 298.09 53.8068 297.781 53.1783C297.475 52.5462 297.323 51.8111 297.323 50.973C297.323 50.1349 297.475 49.3963 297.781 48.7571C298.09 48.1143 298.519 47.6136 299.07 47.255C299.624 46.8928 300.27 46.7116 301.009 46.7116C301.435 46.7116 301.856 46.7827 302.271 46.9247C302.687 47.0668 303.065 47.2976 303.406 47.6172C303.747 47.9332 304.018 48.3523 304.221 48.8743C304.423 49.3963 304.524 50.0391 304.524 50.8026V51.3352H298.218V50.2486H303.246C303.246 49.7869 303.154 49.375 302.969 49.0128C302.788 48.6506 302.529 48.3647 302.191 48.1552C301.858 47.9457 301.463 47.8409 301.009 47.8409C300.508 47.8409 300.075 47.9652 299.709 48.2138C299.347 48.4588 299.068 48.7784 298.873 49.1726C298.677 49.5668 298.58 49.9893 298.58 50.4403V51.1648C298.58 51.7827 298.686 52.3065 298.899 52.7362C299.116 53.1623 299.416 53.4872 299.8 53.7109C300.183 53.9311 300.629 54.0412 301.137 54.0412C301.467 54.0412 301.765 53.995 302.032 53.9027C302.301 53.8068 302.534 53.6648 302.729 53.4766C302.925 53.2848 303.076 53.0469 303.182 52.7628L304.397 53.1037C304.269 53.5156 304.054 53.8778 303.752 54.1903C303.45 54.4993 303.077 54.7408 302.633 54.9148C302.19 55.0852 301.691 55.1705 301.137 55.1705Z" fill="#A9A9A9"/>
<path d="M20.2501 33.4521L29.7501 38.9326C29.826 38.9767 29.9122 39 30.0001 39C30.0879 39 30.1741 38.9767 30.2501 38.9326L39.7501 33.4521C39.8261 33.4083 39.8891 33.3452 39.933 33.2692C40.0712 33.03 39.9893 32.7241 39.7501 32.5859L30.2501 27.1104C30.095 27.0225 29.9052 27.0225 29.7501 27.1104L20.2501 32.5859C20.1741 32.6298 20.111 32.6929 20.0672 32.7689C19.929 33.0081 20.0109 33.314 20.2501 33.4521ZM30.0001 28.1211L38.4991 33.0195L30.0001 37.9229L21.5011 33.0195L30.0001 28.1211ZM39.2481 40.5264L30.0001 45.9209L20.752 40.5264C20.5136 40.3872 20.2075 40.4677 20.0684 40.7061C19.9292 40.9445 20.0097 41.2505 20.2481 41.3896L29.7481 46.9316C29.8245 46.9765 29.9115 47.0001 30.0001 47C30.0886 47.0001 30.1756 46.9765 30.252 46.9316L39.752 41.3896C39.9904 41.2505 40.0708 40.9445 39.9317 40.7061C39.7925 40.4677 39.4865 40.3872 39.2481 40.5264ZM39.2481 36.5264L30.0001 41.9209L20.752 36.5264C20.5136 36.3872 20.2075 36.4677 20.0684 36.7061C19.9292 36.9445 20.0097 37.2505 20.2481 37.3896L29.7481 42.9316C29.8245 42.9765 29.9115 43.0001 30.0001 43C30.0886 43.0001 30.1756 42.9765 30.252 42.9316L39.752 37.3896C39.9904 37.2505 40.0708 36.9445 39.9317 36.7061C39.7925 36.4677 39.4865 36.3872 39.2481 36.5264Z" fill="black"/>
<g clip-path="url(#clip0_952_3)">
<path d="M706.724 36.7742L702.226 32.2761C702.101 32.1514 701.899 32.1515 701.774 32.2764C701.649 32.4013 701.649 32.6037 701.774 32.7284L705.728 36.6818L697.502 36.682C697.418 36.6819 697.337 36.7155 697.277 36.7754C697.153 36.8998 697.153 37.101 697.278 37.225C697.337 37.2848 697.418 37.3184 697.502 37.3184L705.728 37.3182L701.774 41.2722C701.649 41.397 701.649 41.5993 701.774 41.724L701.774 41.7241C701.899 41.8488 702.101 41.8488 702.226 41.724L706.724 37.226C706.849 37.1012 706.849 36.8989 706.724 36.7742Z" fill="black"/>
</g>
<defs>
<clipPath id="clip0_952_3">
<rect width="14" height="14" fill="white" transform="translate(702 27.1006) rotate(45)"/>
</clipPath>
</defs>
</svg>
