<svg width="736" height="74" viewBox="0 0 736 74" fill="none" xmlns="http://www.w3.org/2000/svg">
<rect width="736" height="74" rx="10" fill="white"/>
<path d="M68.326 29V17.1H69.771V29H68.326ZM69.125 24.189V22.795H72.729C73.4317 22.795 73.9757 22.608 74.361 22.234C74.7577 21.8487 74.956 21.3217 74.956 20.653H76.486C76.486 21.7297 76.146 22.591 75.466 23.237C74.7973 23.8717 73.902 24.189 72.78 24.189H69.125ZM74.956 20.653C74.956 19.9843 74.7577 19.4573 74.361 19.072C73.9757 18.6867 73.4317 18.494 72.729 18.494H69.125V17.1H72.78C73.902 17.1 74.7973 17.423 75.466 18.069C76.146 18.7037 76.486 19.565 76.486 20.653H74.956ZM74.973 29L72.1 23.832L73.426 23.288L76.554 28.864V29H74.973ZM81.7403 29.221C80.913 29.221 80.182 29.034 79.5473 28.66C78.9127 28.2747 78.414 27.7477 78.0513 27.079C77.7 26.4103 77.5243 25.6283 77.5243 24.733C77.5243 23.849 77.7 23.0727 78.0513 22.404C78.4027 21.724 78.89 21.197 79.5133 20.823C80.148 20.449 80.8733 20.262 81.6893 20.262C82.494 20.262 83.1967 20.4547 83.7973 20.84C84.4093 21.214 84.8853 21.7467 85.2253 22.438C85.5653 23.1293 85.7353 23.934 85.7353 24.852V25.056L85.4803 25.294H78.3233V23.951H84.9533L84.2733 24.223C84.2393 23.679 84.1033 23.2143 83.8653 22.829C83.6273 22.4437 83.3213 22.149 82.9473 21.945C82.5733 21.7297 82.154 21.622 81.6893 21.622C81.1907 21.622 80.7317 21.7467 80.3123 21.996C79.893 22.234 79.5643 22.574 79.3263 23.016C79.0883 23.458 78.9693 23.968 78.9693 24.546V24.886C78.9693 25.4527 79.0883 25.9627 79.3263 26.416C79.5643 26.858 79.893 27.2093 80.3123 27.47C80.7317 27.7307 81.2077 27.861 81.7403 27.861C82.2617 27.861 82.715 27.7363 83.1003 27.487C83.4857 27.2263 83.786 26.875 84.0013 26.433H84.2053L85.3953 26.96C85.078 27.6627 84.5963 28.218 83.9503 28.626C83.3157 29.0227 82.579 29.221 81.7403 29.221ZM90.2326 29.221C89.6433 29.221 89.1163 29.1077 88.6516 28.881C88.1983 28.6543 87.8413 28.3427 87.5806 27.946C87.32 27.538 87.1896 27.0733 87.1896 26.552C87.1896 25.804 87.456 25.1977 87.9886 24.733C88.5326 24.2683 89.2806 23.9963 90.2326 23.917L93.5136 23.679V24.971L90.5216 25.209C89.8983 25.2543 89.4336 25.3903 89.1276 25.617C88.833 25.8323 88.6856 26.1383 88.6856 26.535C88.6856 26.909 88.8443 27.2207 89.1616 27.47C89.479 27.7193 89.887 27.844 90.3856 27.844C90.8956 27.844 91.3603 27.725 91.7796 27.487C92.199 27.249 92.5276 26.9317 92.7656 26.535C93.015 26.1383 93.1396 25.6963 93.1396 25.209V23.832C93.1396 23.186 92.9356 22.6533 92.5276 22.234C92.131 21.8147 91.5983 21.605 90.9296 21.605C90.4083 21.605 89.9606 21.7353 89.5866 21.996C89.2126 22.2453 88.9576 22.5967 88.8216 23.05H88.6346L87.3766 22.642C87.626 21.8827 88.0623 21.2933 88.6856 20.874C89.309 20.4547 90.0626 20.245 90.9466 20.245C92.1026 20.245 92.9923 20.5907 93.6156 21.282C94.2503 21.9733 94.5676 22.948 94.5676 24.206V29H93.2076V26.518L93.7176 26.79C93.5816 27.2547 93.338 27.674 92.9866 28.048C92.6466 28.4107 92.2386 28.6997 91.7626 28.915C91.298 29.119 90.788 29.221 90.2326 29.221ZM97.0613 29V16.76L98.4553 16.59L98.5063 16.726V29H97.0613ZM100.519 24.835V23.441H106.52V24.835H100.519ZM110.36 29V17.1H111.822V29H110.36ZM106.671 18.494V17.1H115.494V18.494H106.671ZM115.736 29V20.483H117.181V29H115.736ZM116.467 18.902C116.184 18.902 115.946 18.8057 115.753 18.613C115.56 18.4203 115.464 18.1823 115.464 17.899C115.464 17.6157 115.56 17.3777 115.753 17.185C115.946 16.981 116.184 16.879 116.467 16.879C116.75 16.879 116.988 16.981 117.181 17.185C117.385 17.3777 117.487 17.6157 117.487 17.899C117.487 18.1823 117.385 18.4203 117.181 18.613C116.988 18.8057 116.75 18.902 116.467 18.902ZM119.505 29V20.483H120.899V22.846L120.542 22.523C120.7 22.0583 120.944 21.6617 121.273 21.333C121.601 20.993 121.987 20.7323 122.429 20.551C122.871 20.3583 123.335 20.262 123.823 20.262C124.559 20.262 125.2 20.4717 125.744 20.891C126.288 21.3103 126.645 21.9167 126.815 22.71L126.22 22.693C126.367 22.2057 126.611 21.7807 126.951 21.418C127.302 21.0553 127.721 20.772 128.209 20.568C128.696 20.364 129.223 20.262 129.79 20.262C130.368 20.262 130.889 20.3923 131.354 20.653C131.818 20.9137 132.187 21.299 132.459 21.809C132.731 22.319 132.867 22.9593 132.867 23.73V29H131.422V24.07C131.422 23.458 131.331 22.9763 131.15 22.625C130.968 22.2737 130.73 22.0243 130.436 21.877C130.141 21.7297 129.807 21.656 129.433 21.656C129.047 21.656 128.662 21.758 128.277 21.962C127.891 22.166 127.568 22.4777 127.308 22.897C127.047 23.305 126.917 23.832 126.917 24.478V29H125.472V24.07C125.472 23.458 125.381 22.9763 125.2 22.625C125.018 22.2737 124.775 22.0243 124.469 21.877C124.174 21.7297 123.845 21.656 123.483 21.656C123.097 21.656 122.706 21.7637 122.31 21.979C121.924 22.183 121.601 22.4947 121.341 22.914C121.08 23.322 120.95 23.8433 120.95 24.478V29H119.505ZM138.833 29.221C138.006 29.221 137.275 29.034 136.64 28.66C136.005 28.2747 135.507 27.7477 135.144 27.079C134.793 26.4103 134.617 25.6283 134.617 24.733C134.617 23.849 134.793 23.0727 135.144 22.404C135.495 21.724 135.983 21.197 136.606 20.823C137.241 20.449 137.966 20.262 138.782 20.262C139.587 20.262 140.289 20.4547 140.89 20.84C141.502 21.214 141.978 21.7467 142.318 22.438C142.658 23.1293 142.828 23.934 142.828 24.852V25.056L142.573 25.294H135.416V23.951H142.046L141.366 24.223C141.332 23.679 141.196 23.2143 140.958 22.829C140.72 22.4437 140.414 22.149 140.04 21.945C139.666 21.7297 139.247 21.622 138.782 21.622C138.283 21.622 137.824 21.7467 137.405 21.996C136.986 22.234 136.657 22.574 136.419 23.016C136.181 23.458 136.062 23.968 136.062 24.546V24.886C136.062 25.4527 136.181 25.9627 136.419 26.416C136.657 26.858 136.986 27.2093 137.405 27.47C137.824 27.7307 138.3 27.861 138.833 27.861C139.354 27.861 139.808 27.7363 140.193 27.487C140.578 27.2263 140.879 26.875 141.094 26.433H141.298L142.488 26.96C142.171 27.6627 141.689 28.218 141.043 28.626C140.408 29.0227 139.672 29.221 138.833 29.221ZM152.691 29.221C151.897 29.221 151.172 29.0737 150.515 28.779C149.869 28.4843 149.325 28.0707 148.883 27.538C148.452 27.0053 148.163 26.3877 148.016 25.685L149.359 25.362L149.546 25.396C149.67 25.8493 149.886 26.263 150.192 26.637C150.498 26.9997 150.866 27.2887 151.297 27.504C151.739 27.7193 152.203 27.827 152.691 27.827C153.223 27.827 153.688 27.742 154.085 27.572C154.493 27.402 154.81 27.164 155.037 26.858C155.275 26.552 155.394 26.2007 155.394 25.804C155.394 25.2713 155.241 24.8633 154.935 24.58C154.64 24.2967 154.226 24.0813 153.694 23.934L151.399 23.305C150.458 23.0443 149.744 22.6307 149.257 22.064C148.769 21.4973 148.526 20.8457 148.526 20.109C148.526 19.4743 148.69 18.919 149.019 18.443C149.347 17.9557 149.801 17.576 150.379 17.304C150.968 17.0207 151.648 16.879 152.419 16.879C153.155 16.879 153.824 17.0207 154.425 17.304C155.037 17.576 155.535 17.9613 155.921 18.46C156.317 18.9587 156.578 19.548 156.703 20.228L155.394 20.517L155.207 20.483C155.059 19.803 154.731 19.2647 154.221 18.868C153.722 18.4713 153.116 18.273 152.402 18.273C151.699 18.273 151.132 18.443 150.702 18.783C150.271 19.1117 150.056 19.5537 150.056 20.109C150.056 20.551 150.209 20.9193 150.515 21.214C150.821 21.5087 151.263 21.7353 151.841 21.894L154.119 22.523C155.014 22.7723 155.705 23.169 156.193 23.713C156.68 24.257 156.924 24.9257 156.924 25.719C156.924 26.4217 156.748 27.0337 156.397 27.555C156.045 28.0763 155.552 28.4843 154.918 28.779C154.283 29.0737 153.541 29.221 152.691 29.221ZM161.781 29C161.044 29 160.444 28.7677 159.979 28.303C159.514 27.827 159.282 27.1867 159.282 26.382V18.188H160.727V26.263C160.727 26.7503 160.835 27.1017 161.05 27.317C161.265 27.521 161.611 27.623 162.087 27.623H163.107L163.192 27.81V29H161.781ZM157.82 21.843V20.483H163.192V21.843H157.82ZM165.093 29V20.483H166.487V22.88L166.079 22.625C166.283 21.9677 166.662 21.4463 167.218 21.061C167.773 20.6757 168.396 20.483 169.088 20.483H169.955V21.843H168.867C168.402 21.843 167.994 21.9563 167.643 22.183C167.303 22.3983 167.031 22.7043 166.827 23.101C166.634 23.4863 166.538 23.9397 166.538 24.461V29H165.093ZM174.659 29.221C173.832 29.221 173.101 29.034 172.466 28.66C171.832 28.2747 171.333 27.7477 170.97 27.079C170.619 26.4103 170.443 25.6283 170.443 24.733C170.443 23.849 170.619 23.0727 170.97 22.404C171.322 21.724 171.809 21.197 172.432 20.823C173.067 20.449 173.792 20.262 174.608 20.262C175.413 20.262 176.116 20.4547 176.716 20.84C177.328 21.214 177.804 21.7467 178.144 22.438C178.484 23.1293 178.654 23.934 178.654 24.852V25.056L178.399 25.294H171.242V23.951H177.872L177.192 24.223C177.158 23.679 177.022 23.2143 176.784 22.829C176.546 22.4437 176.24 22.149 175.866 21.945C175.492 21.7297 175.073 21.622 174.608 21.622C174.11 21.622 173.651 21.7467 173.231 21.996C172.812 22.234 172.483 22.574 172.245 23.016C172.007 23.458 171.888 23.968 171.888 24.546V24.886C171.888 25.4527 172.007 25.9627 172.245 26.416C172.483 26.858 172.812 27.2093 173.231 27.47C173.651 27.7307 174.127 27.861 174.659 27.861C175.181 27.861 175.634 27.7363 176.019 27.487C176.405 27.2263 176.705 26.875 176.92 26.433H177.124L178.314 26.96C177.997 27.6627 177.515 28.218 176.869 28.626C176.235 29.0227 175.498 29.221 174.659 29.221ZM183.152 29.221C182.562 29.221 182.035 29.1077 181.571 28.881C181.117 28.6543 180.76 28.3427 180.5 27.946C180.239 27.538 180.109 27.0733 180.109 26.552C180.109 25.804 180.375 25.1977 180.908 24.733C181.452 24.2683 182.2 23.9963 183.152 23.917L186.433 23.679V24.971L183.441 25.209C182.817 25.2543 182.353 25.3903 182.047 25.617C181.752 25.8323 181.605 26.1383 181.605 26.535C181.605 26.909 181.763 27.2207 182.081 27.47C182.398 27.7193 182.806 27.844 183.305 27.844C183.815 27.844 184.279 27.725 184.699 27.487C185.118 27.249 185.447 26.9317 185.685 26.535C185.934 26.1383 186.059 25.6963 186.059 25.209V23.832C186.059 23.186 185.855 22.6533 185.447 22.234C185.05 21.8147 184.517 21.605 183.849 21.605C183.327 21.605 182.88 21.7353 182.506 21.996C182.132 22.2453 181.877 22.5967 181.741 23.05H181.554L180.296 22.642C180.545 21.8827 180.981 21.2933 181.605 20.874C182.228 20.4547 182.982 20.245 183.866 20.245C185.022 20.245 185.911 20.5907 186.535 21.282C187.169 21.9733 187.487 22.948 187.487 24.206V29H186.127V26.518L186.637 26.79C186.501 27.2547 186.257 27.674 185.906 28.048C185.566 28.4107 185.158 28.6997 184.682 28.915C184.217 29.119 183.707 29.221 183.152 29.221ZM189.729 29V20.483H191.123V22.846L190.766 22.523C190.925 22.0583 191.169 21.6617 191.497 21.333C191.826 20.993 192.211 20.7323 192.653 20.551C193.095 20.3583 193.56 20.262 194.047 20.262C194.784 20.262 195.424 20.4717 195.968 20.891C196.512 21.3103 196.869 21.9167 197.039 22.71L196.444 22.693C196.592 22.2057 196.835 21.7807 197.175 21.418C197.527 21.0553 197.946 20.772 198.433 20.568C198.921 20.364 199.448 20.262 200.014 20.262C200.592 20.262 201.114 20.3923 201.578 20.653C202.043 20.9137 202.411 21.299 202.683 21.809C202.955 22.319 203.091 22.9593 203.091 23.73V29H201.646V24.07C201.646 23.458 201.556 22.9763 201.374 22.625C201.193 22.2737 200.955 22.0243 200.66 21.877C200.366 21.7297 200.031 21.656 199.657 21.656C199.272 21.656 198.887 21.758 198.501 21.962C198.116 22.166 197.793 22.4777 197.532 22.897C197.272 23.305 197.141 23.832 197.141 24.478V29H195.696V24.07C195.696 23.458 195.606 22.9763 195.424 22.625C195.243 22.2737 194.999 22.0243 194.693 21.877C194.399 21.7297 194.07 21.656 193.707 21.656C193.322 21.656 192.931 21.7637 192.534 21.979C192.149 22.183 191.826 22.4947 191.565 22.914C191.305 23.322 191.174 23.8433 191.174 24.478V29H189.729ZM205.335 29V20.483H206.78V29H205.335ZM206.066 18.902C205.782 18.902 205.544 18.8057 205.352 18.613C205.159 18.4203 205.063 18.1823 205.063 17.899C205.063 17.6157 205.159 17.3777 205.352 17.185C205.544 16.981 205.782 16.879 206.066 16.879C206.349 16.879 206.587 16.981 206.78 17.185C206.984 17.3777 207.086 17.6157 207.086 17.899C207.086 18.1823 206.984 18.4203 206.78 18.613C206.587 18.8057 206.349 18.902 206.066 18.902ZM209.103 29V20.483H210.497V22.88L210.089 22.625C210.248 22.1377 210.497 21.7183 210.837 21.367C211.177 21.0157 211.574 20.7437 212.027 20.551C212.492 20.3583 212.985 20.262 213.506 20.262C214.118 20.262 214.662 20.3923 215.138 20.653C215.626 20.9137 216.005 21.299 216.277 21.809C216.549 22.319 216.685 22.9593 216.685 23.73V29H215.24V24.087C215.24 23.475 215.15 22.9933 214.968 22.642C214.787 22.2793 214.538 22.0243 214.22 21.877C213.914 21.7297 213.563 21.656 213.166 21.656C212.736 21.656 212.316 21.7637 211.908 21.979C211.512 22.183 211.183 22.4947 210.922 22.914C210.673 23.3333 210.548 23.8547 210.548 24.478V29H209.103ZM221.605 32.4C220.494 32.4 219.627 32.1733 219.004 31.72C218.38 31.2667 218.069 30.6547 218.069 29.884C218.069 29.3967 218.188 28.966 218.426 28.592C218.675 28.2067 219.038 27.912 219.514 27.708L220.245 28.439C219.995 28.5523 219.803 28.7167 219.667 28.932C219.531 29.1473 219.463 29.3797 219.463 29.629C219.463 30.0597 219.633 30.411 219.973 30.683C220.324 30.9663 220.817 31.108 221.452 31.108H222.642C223.299 31.108 223.815 30.9947 224.189 30.768C224.563 30.5527 224.75 30.2297 224.75 29.799C224.75 29.493 224.625 29.2493 224.376 29.068C224.138 28.8867 223.781 28.796 223.305 28.796H221.01C220.556 28.796 220.143 28.7167 219.769 28.558C219.406 28.388 219.117 28.1613 218.902 27.878C218.686 27.5833 218.579 27.2433 218.579 26.858C218.579 26.484 218.692 26.1383 218.919 25.821C219.145 25.5037 219.497 25.2543 219.973 25.073L220.772 25.787C220.466 25.8437 220.245 25.957 220.109 26.127C219.984 26.2857 219.922 26.4727 219.922 26.688C219.922 26.9487 220.029 27.1527 220.245 27.3C220.46 27.4473 220.755 27.521 221.129 27.521H223.356C224.206 27.521 224.88 27.7307 225.379 28.15C225.877 28.5693 226.127 29.119 226.127 29.799C226.127 30.6037 225.809 31.2383 225.175 31.703C224.54 32.1677 223.69 32.4 222.625 32.4H221.605ZM222.166 26.331C221.497 26.331 220.902 26.2007 220.381 25.94C219.871 25.6793 219.474 25.3223 219.191 24.869C218.907 24.4043 218.766 23.8773 218.766 23.288C218.766 22.6873 218.907 22.1603 219.191 21.707C219.474 21.2537 219.871 20.9023 220.381 20.653C220.902 20.3923 221.497 20.262 222.166 20.262C222.846 20.262 223.435 20.3923 223.934 20.653C224.444 20.9023 224.84 21.2537 225.124 21.707C225.418 22.1603 225.566 22.6873 225.566 23.288C225.566 23.8773 225.418 24.4043 225.124 24.869C224.84 25.3223 224.444 25.6793 223.934 25.94C223.435 26.2007 222.846 26.331 222.166 26.331ZM222.166 25.073C222.766 25.073 223.254 24.9087 223.628 24.58C224.002 24.2513 224.189 23.8207 224.189 23.288C224.189 22.7667 224.002 22.3417 223.628 22.013C223.254 21.6843 222.766 21.52 222.166 21.52C221.554 21.52 221.061 21.6843 220.687 22.013C220.324 22.3417 220.143 22.7667 220.143 23.288C220.143 23.8207 220.324 24.2513 220.687 24.58C221.061 24.9087 221.554 25.073 222.166 25.073ZM224.495 21.554L223.543 20.959C223.543 20.517 223.633 20.1203 223.815 19.769C224.007 19.4177 224.257 19.1457 224.563 18.953C224.869 18.749 225.214 18.647 225.6 18.647C225.69 18.647 225.787 18.6527 225.889 18.664C226.002 18.664 226.087 18.6753 226.144 18.698V20.007L226.059 20.194C225.945 20.16 225.809 20.143 225.651 20.143C225.265 20.143 224.976 20.2733 224.784 20.534C224.591 20.7947 224.495 21.1347 224.495 21.554Z" fill="black"/>
<path d="M68.321 55V44.0909H74.8622V45.2628H69.642V48.9489H74.3722V50.1207H69.642V55H68.321ZM79.6776 55.1705C78.9389 55.1705 78.2908 54.9947 77.7333 54.6431C77.1793 54.2915 76.7461 53.7997 76.4336 53.1676C76.1246 52.5355 75.9702 51.7969 75.9702 50.9517C75.9702 50.0994 76.1246 49.3555 76.4336 48.7198C76.7461 48.0842 77.1793 47.5906 77.7333 47.239C78.2908 46.8874 78.9389 46.7116 79.6776 46.7116C80.4162 46.7116 81.0625 46.8874 81.6165 47.239C82.174 47.5906 82.6072 48.0842 82.9162 48.7198C83.2287 49.3555 83.3849 50.0994 83.3849 50.9517C83.3849 51.7969 83.2287 52.5355 82.9162 53.1676C82.6072 53.7997 82.174 54.2915 81.6165 54.6431C81.0625 54.9947 80.4162 55.1705 79.6776 55.1705ZM79.6776 54.0412C80.2386 54.0412 80.7003 53.8974 81.0625 53.6097C81.4247 53.3221 81.6928 52.9439 81.8668 52.4751C82.0408 52.0064 82.1278 51.4986 82.1278 50.9517C82.1278 50.4048 82.0408 49.8952 81.8668 49.4229C81.6928 48.9506 81.4247 48.5689 81.0625 48.2777C80.7003 47.9865 80.2386 47.8409 79.6776 47.8409C79.1165 47.8409 78.6548 47.9865 78.2926 48.2777C77.9304 48.5689 77.6623 48.9506 77.4883 49.4229C77.3143 49.8952 77.2273 50.4048 77.2273 50.9517C77.2273 51.4986 77.3143 52.0064 77.4883 52.4751C77.6623 52.9439 77.9304 53.3221 78.2926 53.6097C78.6548 53.8974 79.1165 54.0412 79.6776 54.0412ZM86.561 44.0909V55H85.3039V44.0909H86.561ZM90.1206 44.0909V55H88.8635V44.0909H90.1206ZM95.7469 55.1705C95.0083 55.1705 94.3602 54.9947 93.8026 54.6431C93.2487 54.2915 92.8154 53.7997 92.5029 53.1676C92.194 52.5355 92.0395 51.7969 92.0395 50.9517C92.0395 50.0994 92.194 49.3555 92.5029 48.7198C92.8154 48.0842 93.2487 47.5906 93.8026 47.239C94.3602 46.8874 95.0083 46.7116 95.7469 46.7116C96.4855 46.7116 97.1318 46.8874 97.6858 47.239C98.2433 47.5906 98.6766 48.0842 98.9855 48.7198C99.298 49.3555 99.4543 50.0994 99.4543 50.9517C99.4543 51.7969 99.298 52.5355 98.9855 53.1676C98.6766 53.7997 98.2433 54.2915 97.6858 54.6431C97.1318 54.9947 96.4855 55.1705 95.7469 55.1705ZM95.7469 54.0412C96.308 54.0412 96.7696 53.8974 97.1318 53.6097C97.4941 53.3221 97.7622 52.9439 97.9362 52.4751C98.1102 52.0064 98.1972 51.4986 98.1972 50.9517C98.1972 50.4048 98.1102 49.8952 97.9362 49.4229C97.7622 48.9506 97.4941 48.5689 97.1318 48.2777C96.7696 47.9865 96.308 47.8409 95.7469 47.8409C95.1858 47.8409 94.7242 47.9865 94.3619 48.2777C93.9997 48.5689 93.7316 48.9506 93.5576 49.4229C93.3836 49.8952 93.2966 50.4048 93.2966 50.9517C93.2966 51.4986 93.3836 52.0064 93.5576 52.4751C93.7316 52.9439 93.9997 53.3221 94.3619 53.6097C94.7242 53.8974 95.1858 54.0412 95.7469 54.0412ZM102.949 55L100.456 46.8182H101.777L103.545 53.0824H103.63L105.378 46.8182H106.72L108.446 53.0611H108.531L110.299 46.8182H111.62L109.128 55H107.892L106.102 48.7145H105.974L104.184 55H102.949ZM120.825 55.1705C120.086 55.1705 119.438 54.9947 118.881 54.6431C118.327 54.2915 117.894 53.7997 117.581 53.1676C117.272 52.5355 117.118 51.7969 117.118 50.9517C117.118 50.0994 117.272 49.3555 117.581 48.7198C117.894 48.0842 118.327 47.5906 118.881 47.239C119.438 46.8874 120.086 46.7116 120.825 46.7116C121.564 46.7116 122.21 46.8874 122.764 47.239C123.321 47.5906 123.755 48.0842 124.064 48.7198C124.376 49.3555 124.532 50.0994 124.532 50.9517C124.532 51.7969 124.376 52.5355 124.064 53.1676C123.755 53.7997 123.321 54.2915 122.764 54.6431C122.21 54.9947 121.564 55.1705 120.825 55.1705ZM120.825 54.0412C121.386 54.0412 121.848 53.8974 122.21 53.6097C122.572 53.3221 122.84 52.9439 123.014 52.4751C123.188 52.0064 123.275 51.4986 123.275 50.9517C123.275 50.4048 123.188 49.8952 123.014 49.4229C122.84 48.9506 122.572 48.5689 122.21 48.2777C121.848 47.9865 121.386 47.8409 120.825 47.8409C120.264 47.8409 119.802 47.9865 119.44 48.2777C119.078 48.5689 118.81 48.9506 118.636 49.4229C118.462 49.8952 118.375 50.4048 118.375 50.9517C118.375 51.4986 118.462 52.0064 118.636 52.4751C118.81 52.9439 119.078 53.3221 119.44 53.6097C119.802 53.8974 120.264 54.0412 120.825 54.0412ZM127.708 50.0781V55H126.451V46.8182H127.666V48.0966H127.772C127.964 47.6811 128.255 47.3473 128.646 47.0952C129.037 46.8395 129.541 46.7116 130.159 46.7116C130.713 46.7116 131.197 46.8253 131.613 47.0526C132.028 47.2763 132.352 47.6172 132.582 48.0753C132.813 48.5298 132.929 49.1051 132.929 49.8011V55H131.672V49.8864C131.672 49.2436 131.505 48.7429 131.171 48.3842C130.837 48.022 130.379 47.8409 129.797 47.8409C129.395 47.8409 129.037 47.9279 128.721 48.1019C128.408 48.2759 128.161 48.5298 127.98 48.8636C127.799 49.1974 127.708 49.6023 127.708 50.0781ZM144.601 51.6548V46.8182H145.858V55H144.601V53.6151H144.516C144.324 54.0305 144.025 54.3839 143.621 54.6751C143.216 54.9627 142.704 55.1065 142.087 55.1065C141.575 55.1065 141.121 54.9947 140.723 54.771C140.325 54.5437 140.013 54.2028 139.785 53.7482C139.558 53.2901 139.445 52.7131 139.445 52.017V46.8182H140.702V51.9318C140.702 52.5284 140.869 53.0043 141.202 53.3594C141.54 53.7145 141.969 53.892 142.491 53.892C142.804 53.892 143.122 53.8121 143.445 53.6523C143.772 53.4925 144.045 53.2475 144.265 52.9173C144.489 52.587 144.601 52.1662 144.601 51.6548ZM148.16 58.0682V46.8182H149.375V48.1179H149.524C149.616 47.9759 149.744 47.7947 149.907 47.5746C150.074 47.3509 150.312 47.152 150.621 46.978C150.934 46.8004 151.356 46.7116 151.889 46.7116C152.578 46.7116 153.185 46.8839 153.711 47.2283C154.236 47.5728 154.646 48.0611 154.941 48.6932C155.236 49.3253 155.383 50.071 155.383 50.9304C155.383 51.7969 155.236 52.5479 154.941 53.1836C154.646 53.8157 154.238 54.3058 153.716 54.6538C153.194 54.9982 152.592 55.1705 151.91 55.1705C151.385 55.1705 150.964 55.0835 150.648 54.9094C150.332 54.7319 150.089 54.5312 149.918 54.3075C149.748 54.0803 149.616 53.892 149.524 53.7429H149.417V58.0682H148.16ZM149.396 50.9091C149.396 51.527 149.487 52.0721 149.668 52.5444C149.849 53.0131 150.113 53.3807 150.461 53.647C150.809 53.9098 151.236 54.0412 151.74 54.0412C152.265 54.0412 152.704 53.9027 153.056 53.6257C153.411 53.3452 153.677 52.9687 153.855 52.4964C154.036 52.0206 154.126 51.4915 154.126 50.9091C154.126 50.3338 154.037 49.8153 153.86 49.3537C153.686 48.8885 153.421 48.521 153.066 48.2511C152.715 47.9776 152.273 47.8409 151.74 47.8409C151.229 47.8409 150.799 47.9705 150.451 48.2298C150.103 48.4854 149.84 48.8441 149.662 49.3058C149.485 49.7638 149.396 50.2983 149.396 50.9091ZM160.39 55.1705C159.709 55.1705 159.107 54.9982 158.585 54.6538C158.063 54.3058 157.654 53.8157 157.36 53.1836C157.065 52.5479 156.917 51.7969 156.917 50.9304C156.917 50.071 157.065 49.3253 157.36 48.6932C157.654 48.0611 158.064 47.5728 158.59 47.2283C159.116 46.8839 159.723 46.7116 160.412 46.7116C160.944 46.7116 161.365 46.8004 161.674 46.978C161.987 47.152 162.225 47.3509 162.388 47.5746C162.555 47.7947 162.684 47.9759 162.777 48.1179H162.883V44.0909H164.14V55H162.926V53.7429H162.777C162.684 53.892 162.553 54.0803 162.383 54.3075C162.212 54.5312 161.969 54.7319 161.653 54.9094C161.337 55.0835 160.916 55.1705 160.39 55.1705ZM160.561 54.0412C161.065 54.0412 161.491 53.9098 161.839 53.647C162.187 53.3807 162.452 53.0131 162.633 52.5444C162.814 52.0721 162.905 51.527 162.905 50.9091C162.905 50.2983 162.816 49.7638 162.638 49.3058C162.461 48.8441 162.198 48.4854 161.85 48.2298C161.502 47.9705 161.072 47.8409 160.561 47.8409C160.028 47.8409 159.584 47.9776 159.229 48.2511C158.878 48.521 158.613 48.8885 158.436 49.3537C158.262 49.8153 158.175 50.3338 158.175 50.9091C158.175 51.4915 158.263 52.0206 158.441 52.4964C158.622 52.9687 158.888 53.3452 159.24 53.6257C159.595 53.9027 160.035 54.0412 160.561 54.0412ZM169.025 55.1918C168.507 55.1918 168.036 55.0941 167.613 54.8988C167.191 54.6999 166.855 54.4141 166.607 54.0412C166.358 53.6648 166.234 53.2102 166.234 52.6776C166.234 52.2088 166.326 51.8288 166.511 51.5376C166.695 51.2429 166.942 51.0121 167.251 50.8452C167.56 50.6783 167.901 50.554 168.274 50.4723C168.65 50.3871 169.029 50.3196 169.409 50.2699C169.906 50.206 170.309 50.158 170.618 50.1261C170.93 50.0906 171.157 50.032 171.3 49.9503C171.445 49.8686 171.518 49.7266 171.518 49.5241V49.4815C171.518 48.956 171.374 48.5476 171.086 48.2564C170.802 47.9652 170.371 47.8196 169.792 47.8196C169.192 47.8196 168.721 47.951 168.381 48.2138C168.04 48.4766 167.8 48.7571 167.661 49.0554L166.468 48.6293C166.681 48.1321 166.965 47.745 167.32 47.468C167.679 47.1875 168.07 46.9922 168.492 46.8821C168.919 46.7685 169.338 46.7116 169.749 46.7116C170.012 46.7116 170.314 46.7436 170.655 46.8075C170.999 46.8679 171.331 46.994 171.651 47.1857C171.974 47.3775 172.242 47.6669 172.455 48.054C172.669 48.4411 172.775 48.9595 172.775 49.6094V55H171.518V53.892H171.454C171.369 54.0696 171.227 54.2596 171.028 54.462C170.829 54.6644 170.564 54.8366 170.234 54.9787C169.904 55.1207 169.501 55.1918 169.025 55.1918ZM169.217 54.0625C169.714 54.0625 170.133 53.9648 170.474 53.7695C170.818 53.5742 171.078 53.3221 171.252 53.0131C171.429 52.7042 171.518 52.3793 171.518 52.0384V50.8878C171.465 50.9517 171.347 51.0103 171.166 51.0636C170.989 51.1133 170.783 51.1577 170.548 51.1967C170.318 51.2322 170.092 51.2642 169.872 51.2926C169.655 51.3175 169.48 51.3388 169.345 51.3565C169.018 51.3991 168.713 51.4684 168.428 51.5643C168.148 51.6566 167.921 51.7969 167.747 51.9851C167.576 52.1697 167.491 52.4219 167.491 52.7415C167.491 53.1783 167.653 53.5085 167.976 53.7322C168.302 53.9524 168.716 54.0625 169.217 54.0625ZM178.628 46.8182V47.8835H174.388V46.8182H178.628ZM175.623 44.858H176.881V52.6562C176.881 53.0114 176.932 53.2777 177.035 53.4553C177.142 53.6293 177.277 53.7464 177.44 53.8068C177.607 53.8636 177.783 53.892 177.967 53.892C178.106 53.892 178.219 53.8849 178.308 53.8707C178.397 53.853 178.468 53.8388 178.521 53.8281L178.777 54.9574C178.692 54.9893 178.573 55.0213 178.42 55.0533C178.267 55.0888 178.074 55.1065 177.839 55.1065C177.484 55.1065 177.136 55.0302 176.795 54.8775C176.458 54.7248 176.177 54.4922 175.954 54.1797C175.734 53.8672 175.623 53.473 175.623 52.9972V44.858ZM183.861 55.1705C183.073 55.1705 182.393 54.9964 181.821 54.6484C181.253 54.2969 180.814 53.8068 180.505 53.1783C180.2 52.5462 180.047 51.8111 180.047 50.973C180.047 50.1349 180.2 49.3963 180.505 48.7571C180.814 48.1143 181.244 47.6136 181.794 47.255C182.348 46.8928 182.995 46.7116 183.733 46.7116C184.16 46.7116 184.58 46.7827 184.996 46.9247C185.411 47.0668 185.79 47.2976 186.13 47.6172C186.471 47.9332 186.743 48.3523 186.945 48.8743C187.148 49.3963 187.249 50.0391 187.249 50.8026V51.3352H180.942V50.2486H185.971C185.971 49.7869 185.878 49.375 185.694 49.0128C185.513 48.6506 185.253 48.3647 184.916 48.1552C184.582 47.9457 184.188 47.8409 183.733 47.8409C183.233 47.8409 182.799 47.9652 182.434 48.2138C182.071 48.4588 181.793 48.7784 181.597 49.1726C181.402 49.5668 181.304 49.9893 181.304 50.4403V51.1648C181.304 51.7827 181.411 52.3065 181.624 52.7362C181.841 53.1623 182.141 53.4872 182.524 53.7109C182.908 53.9311 183.353 54.0412 183.861 54.0412C184.191 54.0412 184.49 53.995 184.756 53.9027C185.026 53.8068 185.259 53.6648 185.454 53.4766C185.649 53.2848 185.8 53.0469 185.907 52.7628L187.121 53.1037C186.993 53.5156 186.778 53.8778 186.477 54.1903C186.175 54.4993 185.802 54.7408 185.358 54.9148C184.914 55.0852 184.415 55.1705 183.861 55.1705ZM194.957 48.6506L193.828 48.9702C193.756 48.782 193.652 48.5991 193.513 48.4215C193.378 48.2404 193.194 48.0913 192.959 47.9741C192.725 47.8569 192.425 47.7983 192.059 47.7983C191.558 47.7983 191.141 47.9137 190.807 48.1445C190.477 48.3718 190.312 48.6612 190.312 49.0128C190.312 49.3253 190.426 49.5721 190.653 49.7532C190.88 49.9343 191.235 50.0852 191.718 50.206L192.933 50.5043C193.664 50.6818 194.209 50.9535 194.568 51.3192C194.927 51.6815 195.106 52.1484 195.106 52.7202C195.106 53.1889 194.971 53.608 194.701 53.9773C194.435 54.3466 194.062 54.6378 193.582 54.8509C193.103 55.0639 192.546 55.1705 191.91 55.1705C191.075 55.1705 190.385 54.9893 189.838 54.6271C189.291 54.2649 188.945 53.7358 188.799 53.0398L189.992 52.7415C190.106 53.1818 190.321 53.5121 190.637 53.7322C190.956 53.9524 191.374 54.0625 191.889 54.0625C192.475 54.0625 192.94 53.9382 193.284 53.6896C193.632 53.4375 193.806 53.1357 193.806 52.7841C193.806 52.5 193.707 52.2621 193.508 52.0703C193.309 51.875 193.004 51.7294 192.592 51.6335L191.228 51.3139C190.479 51.1364 189.928 50.8612 189.577 50.4883C189.229 50.1119 189.055 49.6413 189.055 49.0767C189.055 48.6151 189.184 48.2067 189.444 47.8516C189.706 47.4964 190.063 47.2177 190.514 47.0153C190.969 46.8129 191.484 46.7116 192.059 46.7116C192.869 46.7116 193.504 46.8892 193.966 47.2443C194.431 47.5994 194.761 48.0682 194.957 48.6506ZM201.217 55V46.8182H202.474V55H201.217ZM201.856 45.4545C201.611 45.4545 201.4 45.3711 201.222 45.2042C201.048 45.0373 200.961 44.8366 200.961 44.6023C200.961 44.3679 201.048 44.1673 201.222 44.0004C201.4 43.8335 201.611 43.75 201.856 43.75C202.101 43.75 202.311 43.8335 202.485 44.0004C202.662 44.1673 202.751 44.3679 202.751 44.6023C202.751 44.8366 202.662 45.0373 202.485 45.2042C202.311 45.3711 202.101 45.4545 201.856 45.4545ZM206.034 50.0781V55H204.777V46.8182H205.991V48.0966H206.098C206.289 47.6811 206.581 47.3473 206.971 47.0952C207.362 46.8395 207.866 46.7116 208.484 46.7116C209.038 46.7116 209.523 46.8253 209.938 47.0526C210.354 47.2763 210.677 47.6172 210.908 48.0753C211.138 48.5298 211.254 49.1051 211.254 49.8011V55H209.997V49.8864C209.997 49.2436 209.83 48.7429 209.496 48.3842C209.162 48.022 208.704 47.8409 208.122 47.8409C207.72 47.8409 207.362 47.9279 207.046 48.1019C206.733 48.2759 206.486 48.5298 206.305 48.8636C206.124 49.1974 206.034 49.6023 206.034 50.0781ZM217.94 55V44.0909H221.626C222.479 44.0909 223.178 44.2365 223.725 44.5277C224.272 44.8153 224.677 45.2113 224.939 45.7156C225.202 46.2198 225.334 46.7933 225.334 47.4361C225.334 48.0788 225.202 48.6488 224.939 49.146C224.677 49.6431 224.274 50.0337 223.73 50.3178C223.187 50.5984 222.493 50.7386 221.648 50.7386H218.665V49.5455H221.605C222.187 49.5455 222.656 49.4602 223.011 49.2898C223.37 49.1193 223.629 48.8778 223.789 48.5653C223.952 48.2493 224.034 47.8729 224.034 47.4361C224.034 46.9993 223.952 46.6175 223.789 46.2908C223.626 45.9641 223.365 45.712 223.006 45.5344C222.647 45.3533 222.173 45.2628 221.584 45.2628H219.261V55H217.94ZM223.075 50.0994L225.76 55H224.226L221.584 50.0994H223.075ZM230.707 55.1705C229.919 55.1705 229.239 54.9964 228.667 54.6484C228.099 54.2969 227.66 53.8068 227.351 53.1783C227.046 52.5462 226.893 51.8111 226.893 50.973C226.893 50.1349 227.046 49.3963 227.351 48.7571C227.66 48.1143 228.09 47.6136 228.64 47.255C229.194 46.8928 229.84 46.7116 230.579 46.7116C231.005 46.7116 231.426 46.7827 231.842 46.9247C232.257 47.0668 232.635 47.2976 232.976 47.6172C233.317 47.9332 233.589 48.3523 233.791 48.8743C233.994 49.3963 234.095 50.0391 234.095 50.8026V51.3352H227.788V50.2486H232.816C232.816 49.7869 232.724 49.375 232.539 49.0128C232.358 48.6506 232.099 48.3647 231.762 48.1552C231.428 47.9457 231.034 47.8409 230.579 47.8409C230.078 47.8409 229.645 47.9652 229.279 48.2138C228.917 48.4588 228.638 48.7784 228.443 49.1726C228.248 49.5668 228.15 49.9893 228.15 50.4403V51.1648C228.15 51.7827 228.257 52.3065 228.47 52.7362C228.686 53.1623 228.986 53.4872 229.37 53.7109C229.753 53.9311 230.199 54.0412 230.707 54.0412C231.037 54.0412 231.335 53.995 231.602 53.9027C231.872 53.8068 232.104 53.6648 232.3 53.4766C232.495 53.2848 232.646 53.0469 232.752 52.7628L233.967 53.1037C233.839 53.5156 233.624 53.8778 233.322 54.1903C233.021 54.4993 232.648 54.7408 232.204 54.9148C231.76 55.0852 231.261 55.1705 230.707 55.1705ZM238.415 55.1918C237.896 55.1918 237.426 55.0941 237.003 54.8988C236.581 54.6999 236.245 54.4141 235.996 54.0412C235.748 53.6648 235.623 53.2102 235.623 52.6776C235.623 52.2088 235.716 51.8288 235.9 51.5376C236.085 51.2429 236.332 51.0121 236.641 50.8452C236.95 50.6783 237.291 50.554 237.664 50.4723C238.04 50.3871 238.418 50.3196 238.798 50.2699C239.295 50.206 239.698 50.158 240.007 50.1261C240.32 50.0906 240.547 50.032 240.689 49.9503C240.835 49.8686 240.908 49.7266 240.908 49.5241V49.4815C240.908 48.956 240.764 48.5476 240.476 48.2564C240.192 47.9652 239.761 47.8196 239.182 47.8196C238.582 47.8196 238.111 47.951 237.77 48.2138C237.429 48.4766 237.19 48.7571 237.051 49.0554L235.858 48.6293C236.071 48.1321 236.355 47.745 236.71 47.468C237.069 47.1875 237.459 46.9922 237.882 46.8821C238.308 46.7685 238.727 46.7116 239.139 46.7116C239.402 46.7116 239.704 46.7436 240.045 46.8075C240.389 46.8679 240.721 46.994 241.041 47.1857C241.364 47.3775 241.632 47.6669 241.845 48.054C242.058 48.4411 242.165 48.9595 242.165 49.6094V55H240.908V53.892H240.844C240.758 54.0696 240.616 54.2596 240.418 54.462C240.219 54.6644 239.954 54.8366 239.624 54.9787C239.294 55.1207 238.891 55.1918 238.415 55.1918ZM238.606 54.0625C239.104 54.0625 239.523 53.9648 239.864 53.7695C240.208 53.5742 240.467 53.3221 240.641 53.0131C240.819 52.7042 240.908 52.3793 240.908 52.0384V50.8878C240.854 50.9517 240.737 51.0103 240.556 51.0636C240.378 51.1133 240.172 51.1577 239.938 51.1967C239.707 51.2322 239.482 51.2642 239.262 51.2926C239.045 51.3175 238.869 51.3388 238.734 51.3565C238.408 51.3991 238.102 51.4684 237.818 51.5643C237.538 51.6566 237.31 51.7969 237.136 51.9851C236.966 52.1697 236.881 52.4219 236.881 52.7415C236.881 53.1783 237.042 53.5085 237.365 53.7322C237.692 53.9524 238.106 54.0625 238.606 54.0625ZM245.716 44.0909V55H244.459V44.0909H245.716ZM252.706 49.7372V50.9091H247.934V49.7372H252.706ZM253.379 45.2628V44.0909H261.561V45.2628H258.13V55H256.809V45.2628H253.379ZM263.429 55V46.8182H264.686V55H263.429ZM264.068 45.4545C263.823 45.4545 263.612 45.3711 263.434 45.2042C263.26 45.0373 263.173 44.8366 263.173 44.6023C263.173 44.3679 263.26 44.1673 263.434 44.0004C263.612 43.8335 263.823 43.75 264.068 43.75C264.313 43.75 264.523 43.8335 264.697 44.0004C264.874 44.1673 264.963 44.3679 264.963 44.6023C264.963 44.8366 264.874 45.0373 264.697 45.2042C264.523 45.3711 264.313 45.4545 264.068 45.4545ZM266.988 55V46.8182H268.203V48.0966H268.309C268.48 47.6598 268.755 47.3207 269.135 47.0792C269.515 46.8342 269.971 46.7116 270.504 46.7116C271.044 46.7116 271.493 46.8342 271.852 47.0792C272.214 47.3207 272.496 47.6598 272.699 48.0966H272.784C272.993 47.674 273.308 47.3384 273.727 47.0898C274.146 46.8377 274.648 46.7116 275.234 46.7116C275.966 46.7116 276.564 46.9407 277.029 47.3988C277.494 47.8533 277.727 48.5618 277.727 49.5241V55H276.47V49.5241C276.47 48.9205 276.305 48.489 275.975 48.2298C275.644 47.9705 275.256 47.8409 274.808 47.8409C274.233 47.8409 273.787 48.0149 273.471 48.3629C273.155 48.7074 272.997 49.1442 272.997 49.6733V55H271.719V49.3963C271.719 48.9311 271.568 48.5565 271.266 48.2724C270.964 47.9847 270.575 47.8409 270.099 47.8409C269.773 47.8409 269.467 47.9279 269.183 48.1019C268.903 48.2759 268.675 48.5174 268.501 48.8263C268.331 49.1317 268.246 49.4851 268.246 49.8864V55H266.988ZM283.456 55.1705C282.668 55.1705 281.988 54.9964 281.416 54.6484C280.848 54.2969 280.409 53.8068 280.1 53.1783C279.795 52.5462 279.642 51.8111 279.642 50.973C279.642 50.1349 279.795 49.3963 280.1 48.7571C280.409 48.1143 280.839 47.6136 281.389 47.255C281.943 46.8928 282.589 46.7116 283.328 46.7116C283.754 46.7116 284.175 46.7827 284.591 46.9247C285.006 47.0668 285.384 47.2976 285.725 47.6172C286.066 47.9332 286.338 48.3523 286.54 48.8743C286.743 49.3963 286.844 50.0391 286.844 50.8026V51.3352H280.537V50.2486H285.565C285.565 49.7869 285.473 49.375 285.288 49.0128C285.107 48.6506 284.848 48.3647 284.511 48.1552C284.177 47.9457 283.783 47.8409 283.328 47.8409C282.827 47.8409 282.394 47.9652 282.028 48.2138C281.666 48.4588 281.387 48.7784 281.192 49.1726C280.997 49.5668 280.899 49.9893 280.899 50.4403V51.1648C280.899 51.7827 281.006 52.3065 281.219 52.7362C281.435 53.1623 281.735 53.4872 282.119 53.7109C282.502 53.9311 282.948 54.0412 283.456 54.0412C283.786 54.0412 284.085 53.995 284.351 53.9027C284.621 53.8068 284.853 53.6648 285.049 53.4766C285.244 53.2848 285.395 53.0469 285.501 52.7628L286.716 53.1037C286.588 53.5156 286.373 53.8778 286.071 54.1903C285.77 54.4993 285.397 54.7408 284.953 54.9148C284.509 55.0852 284.01 55.1705 283.456 55.1705Z" fill="#A9A9A9"/>
<g clip-path="url(#clip0_964_26)">
<path d="M706.724 36.774L702.226 32.2759C702.101 32.1512 701.899 32.1514 701.774 32.2762C701.649 32.4011 701.649 32.6035 701.774 32.7282L705.728 36.6816L697.502 36.6818C697.418 36.6817 697.337 36.7153 697.277 36.7752C697.153 36.8996 697.153 37.1008 697.278 37.2248C697.337 37.2846 697.418 37.3182 697.502 37.3182L705.728 37.318L701.774 41.272C701.649 41.3968 701.649 41.5991 701.774 41.7238L701.774 41.7239C701.899 41.8486 702.101 41.8486 702.226 41.7238L706.724 37.2258C706.849 37.101 706.849 36.8987 706.724 36.774Z" fill="black"/>
</g>
<path d="M30.0008 36.25C29.5866 36.25 29.2508 36.5858 29.2508 37C29.2508 37.4142 29.5866 37.75 30.0008 37.75C30.415 37.75 30.7508 37.4142 30.7508 37C30.7508 36.5858 30.415 36.25 30.0008 36.25ZM27.0008 36.25C26.5866 36.25 26.2508 36.5858 26.2508 37C26.2508 37.4142 26.5866 37.75 27.0008 37.75C27.415 37.75 27.7508 37.4142 27.7508 37C27.7508 36.5858 27.415 36.25 27.0008 36.25ZM33.0008 36.25C32.5866 36.25 32.2508 36.5858 32.2508 37C32.2508 37.4142 32.5866 37.75 33.0008 37.75C33.415 37.75 33.7508 37.4142 33.7508 37C33.7508 36.5858 33.415 36.25 33.0008 36.25ZM37.4161 30.2903C33.7106 26.1948 27.3866 25.8785 23.2911 29.584C19.1955 33.2895 18.8793 39.6135 22.5848 43.709L20.1473 46.1465C20.0535 46.2402 20.0008 46.3674 20.0008 46.4999C20.0008 46.7761 20.2247 46.9999 20.5008 47H30.0008C32.4802 46.9999 34.8712 46.0787 36.7098 44.4153C40.8053 40.7098 41.1215 34.3858 37.4161 30.2903ZM30.0008 46H21.7078L23.6365 44.0713C23.6366 44.0712 23.6366 44.0712 23.6366 44.0711C23.8318 43.8759 23.8318 43.5594 23.6365 43.3643C21.9491 41.6769 21.001 39.3884 21.0008 37.002C21.0002 32.032 25.0287 28.0026 29.9988 28.002C34.9687 28.0015 38.9982 32.03 38.9988 37C38.9993 41.97 34.9708 45.9994 30.0008 46Z" fill="black"/>
<defs>
<clipPath id="clip0_964_26">
<rect width="14" height="14" fill="white" transform="translate(702 27.1005) rotate(45)"/>
</clipPath>
</defs>
</svg>
