<svg width="736" height="74" viewBox="0 0 736 74" fill="none" xmlns="http://www.w3.org/2000/svg">
<rect width="736" height="74" rx="10" fill="white"/>
<path d="M71.981 29L72.1 28.643L76.486 17.1H78.033V17.236L73.426 29H71.981ZM71.981 29L67.374 17.236V17.1H68.921L73.307 28.643L73.426 29H71.981ZM82.0724 29.221C81.245 29.221 80.514 29.034 79.8794 28.66C79.2447 28.2747 78.746 27.7477 78.3834 27.079C78.032 26.4103 77.8564 25.6283 77.8564 24.733C77.8564 23.849 78.032 23.0727 78.3834 22.404C78.7347 21.724 79.222 21.197 79.8454 20.823C80.48 20.449 81.2054 20.262 82.0214 20.262C82.826 20.262 83.5287 20.4547 84.1294 20.84C84.7414 21.214 85.2174 21.7467 85.5574 22.438C85.8974 23.1293 86.0674 23.934 86.0674 24.852V25.056L85.8124 25.294H78.6554V23.951H85.2854L84.6054 24.223C84.5714 23.679 84.4354 23.2143 84.1974 22.829C83.9594 22.4437 83.6534 22.149 83.2794 21.945C82.9054 21.7297 82.486 21.622 82.0214 21.622C81.5227 21.622 81.0637 21.7467 80.6444 21.996C80.225 22.234 79.8964 22.574 79.6584 23.016C79.4204 23.458 79.3014 23.968 79.3014 24.546V24.886C79.3014 25.4527 79.4204 25.9627 79.6584 26.416C79.8964 26.858 80.225 27.2093 80.6444 27.47C81.0637 27.7307 81.5397 27.861 82.0724 27.861C82.5937 27.861 83.047 27.7363 83.4324 27.487C83.8177 27.2263 84.118 26.875 84.3334 26.433H84.5374L85.7274 26.96C85.41 27.6627 84.9284 28.218 84.2824 28.626C83.6477 29.0227 82.911 29.221 82.0724 29.221ZM91.6867 29.221C90.8367 29.221 90.0887 29.034 89.4427 28.66C88.7967 28.2747 88.2923 27.7477 87.9297 27.079C87.567 26.4103 87.3857 25.6283 87.3857 24.733C87.3857 23.849 87.567 23.0727 87.9297 22.404C88.2923 21.724 88.7967 21.197 89.4427 20.823C90.0887 20.449 90.8367 20.262 91.6867 20.262C92.3327 20.262 92.9107 20.381 93.4207 20.619C93.942 20.8457 94.384 21.1743 94.7467 21.605C95.1207 22.0243 95.3983 22.54 95.5797 23.152L94.3217 23.509H94.1347C93.942 22.931 93.6247 22.4777 93.1827 22.149C92.752 21.809 92.2533 21.639 91.6867 21.639C91.1087 21.639 90.6043 21.7693 90.1737 22.03C89.7543 22.2907 89.4257 22.6533 89.1877 23.118C88.9497 23.5827 88.8307 24.121 88.8307 24.733C88.8307 25.345 88.9497 25.889 89.1877 26.365C89.4257 26.8297 89.7543 27.1923 90.1737 27.453C90.6043 27.7137 91.1087 27.844 91.6867 27.844C92.0833 27.844 92.446 27.7703 92.7747 27.623C93.1033 27.4757 93.3867 27.2603 93.6247 26.977C93.874 26.6937 94.0667 26.3593 94.2027 25.974H94.3897L95.6647 26.331C95.4607 26.943 95.166 27.47 94.7807 27.912C94.3953 28.3427 93.942 28.6713 93.4207 28.898C92.9107 29.1133 92.3327 29.221 91.6867 29.221ZM100.272 29C99.5357 29 98.935 28.7677 98.4703 28.303C98.0057 27.827 97.7733 27.1867 97.7733 26.382V18.188H99.2183V26.263C99.2183 26.7503 99.326 27.1017 99.5413 27.317C99.7567 27.521 100.102 27.623 100.578 27.623H101.598L101.683 27.81V29H100.272ZM96.3113 21.843V20.483H101.683V21.843H96.3113ZM106.992 29.221C106.164 29.221 105.433 29.034 104.799 28.66C104.164 28.2747 103.665 27.7477 103.303 27.079C102.94 26.399 102.759 25.617 102.759 24.733C102.759 23.849 102.94 23.0727 103.303 22.404C103.665 21.724 104.164 21.197 104.799 20.823C105.433 20.449 106.164 20.262 106.992 20.262C107.83 20.262 108.567 20.449 109.202 20.823C109.836 21.197 110.335 21.724 110.698 22.404C111.06 23.0727 111.242 23.849 111.242 24.733C111.242 25.617 111.06 26.399 110.698 27.079C110.335 27.7477 109.836 28.2747 109.202 28.66C108.567 29.034 107.83 29.221 106.992 29.221ZM106.992 27.844C107.547 27.844 108.029 27.7193 108.437 27.47C108.856 27.2093 109.185 26.8467 109.423 26.382C109.661 25.906 109.78 25.3563 109.78 24.733C109.78 24.0983 109.661 23.5543 109.423 23.101C109.185 22.6363 108.856 22.2793 108.437 22.03C108.029 21.7693 107.547 21.639 106.992 21.639C106.448 21.639 105.966 21.7693 105.547 22.03C105.127 22.2793 104.799 22.6363 104.561 23.101C104.323 23.5543 104.204 24.0983 104.204 24.733C104.204 25.3563 104.323 25.906 104.561 26.382C104.799 26.8467 105.127 27.2093 105.547 27.47C105.966 27.7193 106.448 27.844 106.992 27.844ZM113.063 29V20.483H114.457V22.88L114.049 22.625C114.253 21.9677 114.633 21.4463 115.188 21.061C115.744 20.6757 116.367 20.483 117.058 20.483H117.925V21.843H116.837C116.373 21.843 115.965 21.9563 115.613 22.183C115.273 22.3983 115.001 22.7043 114.797 23.101C114.605 23.4863 114.508 23.9397 114.508 24.461V29H113.063ZM126.776 29.221C125.982 29.221 125.257 29.0737 124.6 28.779C123.954 28.4843 123.41 28.0707 122.968 27.538C122.537 27.0053 122.248 26.3877 122.101 25.685L123.444 25.362L123.631 25.396C123.755 25.8493 123.971 26.263 124.277 26.637C124.583 26.9997 124.951 27.2887 125.382 27.504C125.824 27.7193 126.288 27.827 126.776 27.827C127.308 27.827 127.773 27.742 128.17 27.572C128.578 27.402 128.895 27.164 129.122 26.858C129.36 26.552 129.479 26.2007 129.479 25.804C129.479 25.2713 129.326 24.8633 129.02 24.58C128.725 24.2967 128.311 24.0813 127.779 23.934L125.484 23.305C124.543 23.0443 123.829 22.6307 123.342 22.064C122.854 21.4973 122.611 20.8457 122.611 20.109C122.611 19.4743 122.775 18.919 123.104 18.443C123.432 17.9557 123.886 17.576 124.464 17.304C125.053 17.0207 125.733 16.879 126.504 16.879C127.24 16.879 127.909 17.0207 128.51 17.304C129.122 17.576 129.62 17.9613 130.006 18.46C130.402 18.9587 130.663 19.548 130.788 20.228L129.479 20.517L129.292 20.483C129.144 19.803 128.816 19.2647 128.306 18.868C127.807 18.4713 127.201 18.273 126.487 18.273C125.784 18.273 125.217 18.443 124.787 18.783C124.356 19.1117 124.141 19.5537 124.141 20.109C124.141 20.551 124.294 20.9193 124.6 21.214C124.906 21.5087 125.348 21.7353 125.926 21.894L128.204 22.523C129.099 22.7723 129.79 23.169 130.278 23.713C130.765 24.257 131.009 24.9257 131.009 25.719C131.009 26.4217 130.833 27.0337 130.482 27.555C130.13 28.0763 129.637 28.4843 129.003 28.779C128.368 29.0737 127.626 29.221 126.776 29.221ZM136.708 29.221C135.881 29.221 135.15 29.034 134.515 28.66C133.88 28.2747 133.382 27.7477 133.019 27.079C132.668 26.4103 132.492 25.6283 132.492 24.733C132.492 23.849 132.668 23.0727 133.019 22.404C133.37 21.724 133.858 21.197 134.481 20.823C135.116 20.449 135.841 20.262 136.657 20.262C137.462 20.262 138.164 20.4547 138.765 20.84C139.377 21.214 139.853 21.7467 140.193 22.438C140.533 23.1293 140.703 23.934 140.703 24.852V25.056L140.448 25.294H133.291V23.951H139.921L139.241 24.223C139.207 23.679 139.071 23.2143 138.833 22.829C138.595 22.4437 138.289 22.149 137.915 21.945C137.541 21.7297 137.122 21.622 136.657 21.622C136.158 21.622 135.699 21.7467 135.28 21.996C134.861 22.234 134.532 22.574 134.294 23.016C134.056 23.458 133.937 23.968 133.937 24.546V24.886C133.937 25.4527 134.056 25.9627 134.294 26.416C134.532 26.858 134.861 27.2093 135.28 27.47C135.699 27.7307 136.175 27.861 136.708 27.861C137.229 27.861 137.683 27.7363 138.068 27.487C138.453 27.2263 138.754 26.875 138.969 26.433H139.173L140.363 26.96C140.046 27.6627 139.564 28.218 138.918 28.626C138.283 29.0227 137.547 29.221 136.708 29.221ZM145.2 29.221C144.611 29.221 144.084 29.1077 143.619 28.881C143.166 28.6543 142.809 28.3427 142.548 27.946C142.288 27.538 142.157 27.0733 142.157 26.552C142.157 25.804 142.424 25.1977 142.956 24.733C143.5 24.2683 144.248 23.9963 145.2 23.917L148.481 23.679V24.971L145.489 25.209C144.866 25.2543 144.401 25.3903 144.095 25.617C143.801 25.8323 143.653 26.1383 143.653 26.535C143.653 26.909 143.812 27.2207 144.129 27.47C144.447 27.7193 144.855 27.844 145.353 27.844C145.863 27.844 146.328 27.725 146.747 27.487C147.167 27.249 147.495 26.9317 147.733 26.535C147.983 26.1383 148.107 25.6963 148.107 25.209V23.832C148.107 23.186 147.903 22.6533 147.495 22.234C147.099 21.8147 146.566 21.605 145.897 21.605C145.376 21.605 144.928 21.7353 144.554 21.996C144.18 22.2453 143.925 22.5967 143.789 23.05H143.602L142.344 22.642C142.594 21.8827 143.03 21.2933 143.653 20.874C144.277 20.4547 145.03 20.245 145.914 20.245C147.07 20.245 147.96 20.5907 148.583 21.282C149.218 21.9733 149.535 22.948 149.535 24.206V29H148.175V26.518L148.685 26.79C148.549 27.2547 148.306 27.674 147.954 28.048C147.614 28.4107 147.206 28.6997 146.73 28.915C146.266 29.119 145.756 29.221 145.2 29.221ZM151.778 29V20.483H153.172V22.88L152.764 22.625C152.968 21.9677 153.348 21.4463 153.903 21.061C154.458 20.6757 155.082 20.483 155.773 20.483H156.64V21.843H155.552C155.087 21.843 154.679 21.9563 154.328 22.183C153.988 22.3983 153.716 22.7043 153.512 23.101C153.319 23.4863 153.223 23.9397 153.223 24.461V29H151.778ZM161.43 29.221C160.58 29.221 159.832 29.034 159.186 28.66C158.54 28.2747 158.035 27.7477 157.673 27.079C157.31 26.4103 157.129 25.6283 157.129 24.733C157.129 23.849 157.31 23.0727 157.673 22.404C158.035 21.724 158.54 21.197 159.186 20.823C159.832 20.449 160.58 20.262 161.43 20.262C162.076 20.262 162.654 20.381 163.164 20.619C163.685 20.8457 164.127 21.1743 164.49 21.605C164.864 22.0243 165.141 22.54 165.323 23.152L164.065 23.509H163.878C163.685 22.931 163.368 22.4777 162.926 22.149C162.495 21.809 161.996 21.639 161.43 21.639C160.852 21.639 160.347 21.7693 159.917 22.03C159.497 22.2907 159.169 22.6533 158.931 23.118C158.693 23.5827 158.574 24.121 158.574 24.733C158.574 25.345 158.693 25.889 158.931 26.365C159.169 26.8297 159.497 27.1923 159.917 27.453C160.347 27.7137 160.852 27.844 161.43 27.844C161.826 27.844 162.189 27.7703 162.518 27.623C162.846 27.4757 163.13 27.2603 163.368 26.977C163.617 26.6937 163.81 26.3593 163.946 25.974H164.133L165.408 26.331C165.204 26.943 164.909 27.47 164.524 27.912C164.138 28.3427 163.685 28.6713 163.164 28.898C162.654 29.1133 162.076 29.221 161.43 29.221ZM167.22 29V16.76L168.614 16.59L168.665 16.726V22.88L168.206 22.625C168.364 22.1377 168.614 21.7183 168.954 21.367C169.294 21.0157 169.69 20.7437 170.144 20.551C170.608 20.3583 171.101 20.262 171.623 20.262C172.235 20.262 172.779 20.3923 173.255 20.653C173.742 20.9137 174.122 21.299 174.394 21.809C174.666 22.319 174.802 22.9593 174.802 23.73V29H173.357V24.087C173.357 23.475 173.266 22.9933 173.085 22.642C172.903 22.2793 172.654 22.0243 172.337 21.877C172.031 21.7297 171.679 21.656 171.283 21.656C170.852 21.656 170.433 21.7637 170.025 21.979C169.628 22.183 169.299 22.4947 169.039 22.914C168.789 23.3333 168.665 23.8547 168.665 24.478V29H167.22Z" fill="black"/>
<path d="M74.2869 46.8182C74.223 46.2784 73.9638 45.8594 73.5092 45.5611C73.0547 45.2628 72.4972 45.1136 71.8366 45.1136C71.3537 45.1136 70.9311 45.1918 70.5689 45.348C70.2102 45.5043 69.9297 45.7191 69.7273 45.9925C69.5284 46.266 69.429 46.5767 69.429 46.9247C69.429 47.2159 69.4982 47.4663 69.6367 47.6758C69.7788 47.8817 69.9599 48.054 70.18 48.1925C70.4002 48.3274 70.631 48.4393 70.8725 48.5281C71.114 48.6133 71.3359 48.6825 71.5384 48.7358L72.6463 49.0341C72.9304 49.1087 73.2464 49.2116 73.5945 49.343C73.946 49.4744 74.2816 49.6538 74.6012 49.881C74.9244 50.1048 75.1907 50.3924 75.4002 50.744C75.6097 51.0955 75.7145 51.527 75.7145 52.0384C75.7145 52.6278 75.56 53.1605 75.2511 53.6364C74.9457 54.1122 74.4982 54.4904 73.9087 54.771C73.3228 55.0515 72.6108 55.1918 71.7727 55.1918C70.9915 55.1918 70.315 55.0657 69.7433 54.8136C69.1751 54.5614 68.7276 54.2099 68.4009 53.7589C68.0778 53.3079 67.8949 52.7841 67.8523 52.1875H69.2159C69.2514 52.5994 69.3899 52.9403 69.6314 53.2102C69.8764 53.4766 70.1854 53.6754 70.5582 53.8068C70.9347 53.9347 71.3395 53.9986 71.7727 53.9986C72.277 53.9986 72.7298 53.9169 73.131 53.7536C73.5323 53.5866 73.8501 53.3558 74.0845 53.0611C74.3189 52.7628 74.4361 52.4148 74.4361 52.017C74.4361 51.6548 74.3349 51.3601 74.1325 51.1328C73.93 50.9055 73.6637 50.7209 73.3335 50.5788C73.0032 50.4368 72.6463 50.3125 72.2628 50.206L70.9205 49.8224C70.0682 49.5774 69.3935 49.2276 68.8963 48.7731C68.3991 48.3185 68.1506 47.7237 68.1506 46.9886C68.1506 46.3778 68.3157 45.8452 68.646 45.3906C68.9798 44.9325 69.4272 44.5774 69.9883 44.3253C70.5529 44.0696 71.1832 43.9418 71.8793 43.9418C72.5824 43.9418 73.2074 44.0678 73.7543 44.32C74.3011 44.5685 74.7344 44.9094 75.054 45.3427C75.3771 45.7759 75.5476 46.2678 75.5653 46.8182H74.2869ZM77.716 55V46.8182H78.9731V55H77.716ZM78.3552 45.4545C78.1102 45.4545 77.8989 45.3711 77.7213 45.2042C77.5473 45.0373 77.4603 44.8366 77.4603 44.6023C77.4603 44.3679 77.5473 44.1673 77.7213 44.0004C77.8989 43.8335 78.1102 43.75 78.3552 43.75C78.6002 43.75 78.8097 43.8335 78.9838 44.0004C79.1613 44.1673 79.2501 44.3679 79.2501 44.6023C79.2501 44.8366 79.1613 45.0373 78.9838 45.2042C78.8097 45.3711 78.6002 45.4545 78.3552 45.4545ZM81.2756 55V46.8182H82.4901V48.0966H82.5966C82.767 47.6598 83.0423 47.3207 83.4222 47.0792C83.8022 46.8342 84.2585 46.7116 84.7912 46.7116C85.331 46.7116 85.7802 46.8342 86.1388 47.0792C86.5011 47.3207 86.7834 47.6598 86.9858 48.0966H87.071C87.2805 47.674 87.5948 47.3384 88.0138 47.0898C88.4329 46.8377 88.9354 46.7116 89.5213 46.7116C90.2528 46.7116 90.8512 46.9407 91.3164 47.3988C91.7816 47.8533 92.0142 48.5618 92.0142 49.5241V55H90.7571V49.5241C90.7571 48.9205 90.592 48.489 90.2617 48.2298C89.9315 47.9705 89.5426 47.8409 89.0952 47.8409C88.5199 47.8409 88.0742 48.0149 87.7582 48.3629C87.4421 48.7074 87.2841 49.1442 87.2841 49.6733V55H86.0057V49.3963C86.0057 48.9311 85.8548 48.5565 85.5529 48.2724C85.2511 47.9847 84.8622 47.8409 84.3864 47.8409C84.0597 47.8409 83.7543 47.9279 83.4702 48.1019C83.1896 48.2759 82.9624 48.5174 82.7884 48.8263C82.6179 49.1317 82.5327 49.4851 82.5327 49.8864V55H81.2756ZM94.3127 55V46.8182H95.5698V55H94.3127ZM94.9519 45.4545C94.7069 45.4545 94.4956 45.3711 94.318 45.2042C94.144 45.0373 94.057 44.8366 94.057 44.6023C94.057 44.3679 94.144 44.1673 94.318 44.0004C94.4956 43.8335 94.7069 43.75 94.9519 43.75C95.1969 43.75 95.4064 43.8335 95.5804 44.0004C95.758 44.1673 95.8468 44.3679 95.8468 44.6023C95.8468 44.8366 95.758 45.0373 95.5804 45.2042C95.4064 45.3711 95.1969 45.4545 94.9519 45.4545ZM99.1294 44.0909V55H97.8722V44.0909H99.1294ZM103.839 55.1918C103.321 55.1918 102.85 55.0941 102.428 54.8988C102.005 54.6999 101.67 54.4141 101.421 54.0412C101.173 53.6648 101.048 53.2102 101.048 52.6776C101.048 52.2088 101.141 51.8288 101.325 51.5376C101.51 51.2429 101.757 51.0121 102.066 50.8452C102.375 50.6783 102.716 50.554 103.088 50.4723C103.465 50.3871 103.843 50.3196 104.223 50.2699C104.72 50.206 105.123 50.158 105.432 50.1261C105.745 50.0906 105.972 50.032 106.114 49.9503C106.26 49.8686 106.332 49.7266 106.332 49.5241V49.4815C106.332 48.956 106.189 48.5476 105.901 48.2564C105.617 47.9652 105.185 47.8196 104.607 47.8196C104.006 47.8196 103.536 47.951 103.195 48.2138C102.854 48.4766 102.614 48.7571 102.476 49.0554L101.283 48.6293C101.496 48.1321 101.78 47.745 102.135 47.468C102.494 47.1875 102.884 46.9922 103.307 46.8821C103.733 46.7685 104.152 46.7116 104.564 46.7116C104.827 46.7116 105.129 46.7436 105.469 46.8075C105.814 46.8679 106.146 46.994 106.466 47.1857C106.789 47.3775 107.057 47.6669 107.27 48.054C107.483 48.4411 107.589 48.9595 107.589 49.6094V55H106.332V53.892H106.268C106.183 54.0696 106.041 54.2596 105.842 54.462C105.643 54.6644 105.379 54.8366 105.049 54.9787C104.718 55.1207 104.315 55.1918 103.839 55.1918ZM104.031 54.0625C104.528 54.0625 104.947 53.9648 105.288 53.7695C105.633 53.5742 105.892 53.3221 106.066 53.0131C106.244 52.7042 106.332 52.3793 106.332 52.0384V50.8878C106.279 50.9517 106.162 51.0103 105.981 51.0636C105.803 51.1133 105.597 51.1577 105.363 51.1967C105.132 51.2322 104.907 51.2642 104.686 51.2926C104.47 51.3175 104.294 51.3388 104.159 51.3565C103.832 51.3991 103.527 51.4684 103.243 51.5643C102.962 51.6566 102.735 51.7969 102.561 51.9851C102.391 52.1697 102.305 52.4219 102.305 52.7415C102.305 53.1783 102.467 53.5085 102.79 53.7322C103.117 53.9524 103.531 54.0625 104.031 54.0625ZM109.884 55V46.8182H111.098V48.054H111.184C111.333 47.6491 111.603 47.3207 111.993 47.0685C112.384 46.8164 112.824 46.6903 113.314 46.6903C113.407 46.6903 113.522 46.6921 113.661 46.6957C113.799 46.6992 113.904 46.7045 113.975 46.7116V47.9901C113.932 47.9794 113.835 47.9634 113.682 47.9421C113.533 47.9173 113.375 47.9048 113.208 47.9048C112.81 47.9048 112.455 47.9883 112.142 48.1552C111.834 48.3185 111.589 48.5458 111.407 48.837C111.23 49.1246 111.141 49.4531 111.141 49.8224V55H109.884ZM115.465 55V46.8182H116.722V55H115.465ZM116.104 45.4545C115.859 45.4545 115.648 45.3711 115.47 45.2042C115.296 45.0373 115.209 44.8366 115.209 44.6023C115.209 44.3679 115.296 44.1673 115.47 44.0004C115.648 43.8335 115.859 43.75 116.104 43.75C116.349 43.75 116.559 43.8335 116.733 44.0004C116.91 44.1673 116.999 44.3679 116.999 44.6023C116.999 44.8366 116.91 45.0373 116.733 45.2042C116.559 45.3711 116.349 45.4545 116.104 45.4545ZM122.583 46.8182V47.8835H118.343V46.8182H122.583ZM119.579 44.858H120.836V52.6562C120.836 53.0114 120.887 53.2777 120.99 53.4553C121.097 53.6293 121.232 53.7464 121.395 53.8068C121.562 53.8636 121.738 53.892 121.922 53.892C122.061 53.892 122.174 53.8849 122.263 53.8707C122.352 53.853 122.423 53.8388 122.476 53.8281L122.732 54.9574C122.647 54.9893 122.528 55.0213 122.375 55.0533C122.222 55.0888 122.029 55.1065 121.794 55.1065C121.439 55.1065 121.091 55.0302 120.75 54.8775C120.413 54.7248 120.133 54.4922 119.909 54.1797C119.689 53.8672 119.579 53.473 119.579 52.9972V44.858ZM125.283 58.0682C125.07 58.0682 124.88 58.0504 124.714 58.0149C124.547 57.983 124.431 57.951 124.367 57.919L124.687 56.8111C124.992 56.8892 125.262 56.9176 125.497 56.8963C125.731 56.875 125.939 56.7702 126.12 56.582C126.304 56.3974 126.473 56.0973 126.626 55.6818L126.86 55.0426L123.835 46.8182H125.198L127.457 53.3381H127.542L129.801 46.8182H131.164L127.691 56.1932C127.535 56.6158 127.341 56.9656 127.111 57.2425C126.88 57.5231 126.612 57.7308 126.306 57.8658C126.004 58.0007 125.663 58.0682 125.283 58.0682ZM143.179 46.8182C143.115 46.2784 142.855 45.8594 142.401 45.5611C141.946 45.2628 141.389 45.1136 140.728 45.1136C140.245 45.1136 139.823 45.1918 139.46 45.348C139.102 45.5043 138.821 45.7191 138.619 45.9925C138.42 46.266 138.321 46.5767 138.321 46.9247C138.321 47.2159 138.39 47.4663 138.528 47.6758C138.67 47.8817 138.851 48.054 139.072 48.1925C139.292 48.3274 139.523 48.4393 139.764 48.5281C140.006 48.6133 140.228 48.6825 140.43 48.7358L141.538 49.0341C141.822 49.1087 142.138 49.2116 142.486 49.343C142.838 49.4744 143.173 49.6538 143.493 49.881C143.816 50.1048 144.082 50.3924 144.292 50.744C144.501 51.0955 144.606 51.527 144.606 52.0384C144.606 52.6278 144.452 53.1605 144.143 53.6364C143.837 54.1122 143.39 54.4904 142.8 54.771C142.214 55.0515 141.502 55.1918 140.664 55.1918C139.883 55.1918 139.207 55.0657 138.635 54.8136C138.067 54.5614 137.619 54.2099 137.293 53.7589C136.969 53.3079 136.786 52.7841 136.744 52.1875H138.108C138.143 52.5994 138.282 52.9403 138.523 53.2102C138.768 53.4766 139.077 53.6754 139.45 53.8068C139.826 53.9347 140.231 53.9986 140.664 53.9986C141.169 53.9986 141.621 53.9169 142.023 53.7536C142.424 53.5866 142.742 53.3558 142.976 53.0611C143.21 52.7628 143.328 52.4148 143.328 52.017C143.328 51.6548 143.226 51.3601 143.024 51.1328C142.822 50.9055 142.555 50.7209 142.225 50.5788C141.895 50.4368 141.538 50.3125 141.154 50.206L139.812 49.8224C138.96 49.5774 138.285 49.2276 137.788 48.7731C137.291 48.3185 137.042 47.7237 137.042 46.9886C137.042 46.3778 137.207 45.8452 137.538 45.3906C137.871 44.9325 138.319 44.5774 138.88 44.3253C139.445 44.0696 140.075 43.9418 140.771 43.9418C141.474 43.9418 142.099 44.0678 142.646 44.32C143.193 44.5685 143.626 44.9094 143.946 45.3427C144.269 45.7759 144.439 46.2678 144.457 46.8182H143.179ZM150.038 55.1705C149.25 55.1705 148.57 54.9964 147.998 54.6484C147.43 54.2969 146.991 53.8068 146.682 53.1783C146.377 52.5462 146.224 51.8111 146.224 50.973C146.224 50.1349 146.377 49.3963 146.682 48.7571C146.991 48.1143 147.421 47.6136 147.971 47.255C148.525 46.8928 149.172 46.7116 149.91 46.7116C150.336 46.7116 150.757 46.7827 151.173 46.9247C151.588 47.0668 151.966 47.2976 152.307 47.6172C152.648 47.9332 152.92 48.3523 153.122 48.8743C153.325 49.3963 153.426 50.0391 153.426 50.8026V51.3352H147.119V50.2486H152.147C152.147 49.7869 152.055 49.375 151.87 49.0128C151.689 48.6506 151.43 48.3647 151.093 48.1552C150.759 47.9457 150.365 47.8409 149.91 47.8409C149.409 47.8409 148.976 47.9652 148.61 48.2138C148.248 48.4588 147.969 48.7784 147.774 49.1726C147.579 49.5668 147.481 49.9893 147.481 50.4403V51.1648C147.481 51.7827 147.588 52.3065 147.801 52.7362C148.017 53.1623 148.317 53.4872 148.701 53.7109C149.085 53.9311 149.53 54.0412 150.038 54.0412C150.368 54.0412 150.667 53.995 150.933 53.9027C151.203 53.8068 151.435 53.6648 151.631 53.4766C151.826 53.2848 151.977 53.0469 152.083 52.7628L153.298 53.1037C153.17 53.5156 152.955 53.8778 152.653 54.1903C152.352 54.4993 151.979 54.7408 151.535 54.9148C151.091 55.0852 150.592 55.1705 150.038 55.1705ZM157.746 55.1918C157.227 55.1918 156.757 55.0941 156.334 54.8988C155.912 54.6999 155.576 54.4141 155.327 54.0412C155.079 53.6648 154.955 53.2102 154.955 52.6776C154.955 52.2088 155.047 51.8288 155.232 51.5376C155.416 51.2429 155.663 51.0121 155.972 50.8452C156.281 50.6783 156.622 50.554 156.995 50.4723C157.371 50.3871 157.749 50.3196 158.129 50.2699C158.626 50.206 159.029 50.158 159.338 50.1261C159.651 50.0906 159.878 50.032 160.02 49.9503C160.166 49.8686 160.239 49.7266 160.239 49.5241V49.4815C160.239 48.956 160.095 48.5476 159.807 48.2564C159.523 47.9652 159.092 47.8196 158.513 47.8196C157.913 47.8196 157.442 47.951 157.101 48.2138C156.76 48.4766 156.521 48.7571 156.382 49.0554L155.189 48.6293C155.402 48.1321 155.686 47.745 156.041 47.468C156.4 47.1875 156.79 46.9922 157.213 46.8821C157.639 46.7685 158.058 46.7116 158.47 46.7116C158.733 46.7116 159.035 46.7436 159.376 46.8075C159.72 46.8679 160.052 46.994 160.372 47.1857C160.695 47.3775 160.963 47.6669 161.176 48.054C161.389 48.4411 161.496 48.9595 161.496 49.6094V55H160.239V53.892H160.175C160.089 54.0696 159.947 54.2596 159.749 54.462C159.55 54.6644 159.285 54.8366 158.955 54.9787C158.625 55.1207 158.222 55.1918 157.746 55.1918ZM157.938 54.0625C158.435 54.0625 158.854 53.9648 159.195 53.7695C159.539 53.5742 159.798 53.3221 159.972 53.0131C160.15 52.7042 160.239 52.3793 160.239 52.0384V50.8878C160.185 50.9517 160.068 51.0103 159.887 51.0636C159.71 51.1133 159.504 51.1577 159.269 51.1967C159.038 51.2322 158.813 51.2642 158.593 51.2926C158.376 51.3175 158.2 51.3388 158.065 51.3565C157.739 51.3991 157.433 51.4684 157.149 51.5643C156.869 51.6566 156.641 51.7969 156.467 51.9851C156.297 52.1697 156.212 52.4219 156.212 52.7415C156.212 53.1783 156.373 53.5085 156.696 53.7322C157.023 53.9524 157.437 54.0625 157.938 54.0625ZM163.79 55V46.8182H165.005V48.054H165.09C165.239 47.6491 165.509 47.3207 165.9 47.0685C166.29 46.8164 166.731 46.6903 167.221 46.6903C167.313 46.6903 167.428 46.6921 167.567 46.6957C167.705 46.6992 167.81 46.7045 167.881 46.7116V47.9901C167.839 47.9794 167.741 47.9634 167.588 47.9421C167.439 47.9173 167.281 47.9048 167.114 47.9048C166.716 47.9048 166.361 47.9883 166.049 48.1552C165.74 48.3185 165.495 48.5458 165.314 48.837C165.136 49.1246 165.047 49.4531 165.047 49.8224V55H163.79ZM172.446 55.1705C171.679 55.1705 171.019 54.9893 170.465 54.6271C169.911 54.2649 169.484 53.766 169.186 53.1303C168.888 52.4947 168.739 51.7685 168.739 50.9517C168.739 50.1207 168.891 49.3874 169.197 48.7518C169.506 48.1126 169.935 47.6136 170.486 47.255C171.04 46.8928 171.686 46.7116 172.425 46.7116C173 46.7116 173.519 46.8182 173.98 47.0312C174.442 47.2443 174.82 47.5426 175.115 47.9261C175.41 48.3097 175.592 48.7571 175.663 49.2685H174.406C174.31 48.8956 174.097 48.5653 173.767 48.2777C173.44 47.9865 173 47.8409 172.446 47.8409C171.956 47.8409 171.526 47.9687 171.157 48.2244C170.791 48.4766 170.505 48.8335 170.299 49.2951C170.097 49.7532 169.996 50.2912 169.996 50.9091C169.996 51.5412 170.095 52.0916 170.294 52.5604C170.497 53.0291 170.781 53.3931 171.146 53.6523C171.516 53.9116 171.949 54.0412 172.446 54.0412C172.773 54.0412 173.069 53.9844 173.336 53.8707C173.602 53.7571 173.828 53.5938 174.012 53.3807C174.197 53.1676 174.328 52.9119 174.406 52.6136H175.663C175.592 53.0966 175.417 53.5316 175.136 53.9187C174.859 54.3022 174.492 54.6076 174.033 54.8349C173.579 55.0586 173.05 55.1705 172.446 55.1705ZM178.758 50.0781V55H177.501V44.0909H178.758V48.0966H178.865C179.057 47.674 179.344 47.3384 179.728 47.0898C180.115 46.8377 180.63 46.7116 181.272 46.7116C181.83 46.7116 182.318 46.8235 182.737 47.0472C183.156 47.2674 183.481 47.6065 183.712 48.0646C183.946 48.5192 184.064 49.098 184.064 49.8011V55H182.807V49.8864C182.807 49.2365 182.638 48.734 182.301 48.3789C181.967 48.0202 181.503 47.8409 180.91 47.8409C180.498 47.8409 180.129 47.9279 179.802 48.1019C179.479 48.2759 179.223 48.5298 179.035 48.8636C178.851 49.1974 178.758 49.6023 178.758 50.0781ZM192.99 55.1918C192.471 55.1918 192.001 55.0941 191.578 54.8988C191.156 54.6999 190.82 54.4141 190.572 54.0412C190.323 53.6648 190.199 53.2102 190.199 52.6776C190.199 52.2088 190.291 51.8288 190.476 51.5376C190.66 51.2429 190.907 51.0121 191.216 50.8452C191.525 50.6783 191.866 50.554 192.239 50.4723C192.615 50.3871 192.993 50.3196 193.373 50.2699C193.871 50.206 194.274 50.158 194.583 50.1261C194.895 50.0906 195.122 50.032 195.264 49.9503C195.41 49.8686 195.483 49.7266 195.483 49.5241V49.4815C195.483 48.956 195.339 48.5476 195.051 48.2564C194.767 47.9652 194.336 47.8196 193.757 47.8196C193.157 47.8196 192.686 47.951 192.345 48.2138C192.004 48.4766 191.765 48.7571 191.626 49.0554L190.433 48.6293C190.646 48.1321 190.93 47.745 191.285 47.468C191.644 47.1875 192.035 46.9922 192.457 46.8821C192.883 46.7685 193.302 46.7116 193.714 46.7116C193.977 46.7116 194.279 46.7436 194.62 46.8075C194.964 46.8679 195.296 46.994 195.616 47.1857C195.939 47.3775 196.207 47.6669 196.42 48.054C196.633 48.4411 196.74 48.9595 196.74 49.6094V55H195.483V53.892H195.419C195.334 54.0696 195.192 54.2596 194.993 54.462C194.794 54.6644 194.529 54.8366 194.199 54.9787C193.869 55.1207 193.466 55.1918 192.99 55.1918ZM193.182 54.0625C193.679 54.0625 194.098 53.9648 194.439 53.7695C194.783 53.5742 195.042 53.3221 195.216 53.0131C195.394 52.7042 195.483 52.3793 195.483 52.0384V50.8878C195.43 50.9517 195.312 51.0103 195.131 51.0636C194.954 51.1133 194.748 51.1577 194.513 51.1967C194.282 51.2322 194.057 51.2642 193.837 51.2926C193.62 51.3175 193.444 51.3388 193.309 51.3565C192.983 51.3991 192.677 51.4684 192.393 51.5643C192.113 51.6566 191.885 51.7969 191.711 51.9851C191.541 52.1697 191.456 52.4219 191.456 52.7415C191.456 53.1783 191.617 53.5085 191.941 53.7322C192.267 53.9524 192.681 54.0625 193.182 54.0625ZM200.291 50.0781V55H199.034V46.8182H200.249V48.0966H200.355C200.547 47.6811 200.838 47.3473 201.229 47.0952C201.62 46.8395 202.124 46.7116 202.742 46.7116C203.296 46.7116 203.78 46.8253 204.196 47.0526C204.611 47.2763 204.935 47.6172 205.165 48.0753C205.396 48.5298 205.512 49.1051 205.512 49.8011V55H204.255V49.8864C204.255 49.2436 204.088 48.7429 203.754 48.3842C203.42 48.022 202.962 47.8409 202.38 47.8409C201.978 47.8409 201.62 47.9279 201.304 48.1019C200.991 48.2759 200.744 48.5298 200.563 48.8636C200.382 49.1974 200.291 49.6023 200.291 50.0781ZM210.898 55.1705C210.216 55.1705 209.615 54.9982 209.093 54.6538C208.57 54.3058 208.162 53.8157 207.867 53.1836C207.573 52.5479 207.425 51.7969 207.425 50.9304C207.425 50.071 207.573 49.3253 207.867 48.6932C208.162 48.0611 208.572 47.5728 209.098 47.2283C209.623 46.8839 210.231 46.7116 210.92 46.7116C211.452 46.7116 211.873 46.8004 212.182 46.978C212.494 47.152 212.732 47.3509 212.896 47.5746C213.063 47.7947 213.192 47.9759 213.285 48.1179H213.391V44.0909H214.648V55H213.434V53.7429H213.285C213.192 53.892 213.061 54.0803 212.89 54.3075C212.72 54.5312 212.477 54.7319 212.161 54.9094C211.845 55.0835 211.424 55.1705 210.898 55.1705ZM211.069 54.0412C211.573 54.0412 211.999 53.9098 212.347 53.647C212.695 53.3807 212.96 53.0131 213.141 52.5444C213.322 52.0721 213.412 51.527 213.412 50.9091C213.412 50.2983 213.324 49.7638 213.146 49.3058C212.969 48.8441 212.706 48.4854 212.358 48.2298C212.01 47.9705 211.58 47.8409 211.069 47.8409C210.536 47.8409 210.092 47.9776 209.737 48.2511C209.385 48.521 209.121 48.8885 208.943 49.3537C208.769 49.8153 208.682 50.3338 208.682 50.9091C208.682 51.4915 208.771 52.0206 208.949 52.4964C209.13 52.9687 209.396 53.3452 209.748 53.6257C210.103 53.9027 210.543 54.0412 211.069 54.0412ZM230.719 49.5455C230.719 50.696 230.511 51.6903 230.096 52.5284C229.68 53.3665 229.11 54.0128 228.386 54.4673C227.661 54.9219 226.834 55.1491 225.904 55.1491C224.973 55.1491 224.146 54.9219 223.421 54.4673C222.697 54.0128 222.127 53.3665 221.711 52.5284C221.296 51.6903 221.088 50.696 221.088 49.5455C221.088 48.3949 221.296 47.4006 221.711 46.5625C222.127 45.7244 222.697 45.0781 223.421 44.6236C224.146 44.169 224.973 43.9418 225.904 43.9418C226.834 43.9418 227.661 44.169 228.386 44.6236C229.11 45.0781 229.68 45.7244 230.096 46.5625C230.511 47.4006 230.719 48.3949 230.719 49.5455ZM229.441 49.5455C229.441 48.6009 229.282 47.8036 228.966 47.1538C228.654 46.5039 228.23 46.0121 227.693 45.6783C227.161 45.3445 226.564 45.1776 225.904 45.1776C225.243 45.1776 224.645 45.3445 224.108 45.6783C223.576 46.0121 223.151 46.5039 222.835 47.1538C222.523 47.8036 222.367 48.6009 222.367 49.5455C222.367 50.4901 222.523 51.2873 222.835 51.9371C223.151 52.587 223.576 53.0788 224.108 53.4126C224.645 53.7464 225.243 53.9134 225.904 53.9134C226.564 53.9134 227.161 53.7464 227.693 53.4126C228.23 53.0788 228.654 52.587 228.966 51.9371C229.282 51.2873 229.441 50.4901 229.441 49.5455ZM232.94 55V44.0909H234.261V53.8281H239.332V55H232.94ZM239.331 45.2628V44.0909H247.513V45.2628H244.082V55H242.761V45.2628H239.331ZM249.551 55V44.0909H253.238C254.093 44.0909 254.793 44.2454 255.336 44.5543C255.883 44.8597 256.288 45.2734 256.551 45.7955C256.814 46.3175 256.945 46.8999 256.945 47.5426C256.945 48.1854 256.814 48.7695 256.551 49.2951C256.292 49.8207 255.89 50.2397 255.347 50.5522C254.804 50.8612 254.108 51.0156 253.259 51.0156H250.617V49.8438H253.216C253.802 49.8438 254.273 49.7425 254.628 49.5401C254.983 49.3377 255.24 49.0643 255.4 48.7198C255.564 48.3718 255.645 47.9794 255.645 47.5426C255.645 47.1058 255.564 46.7152 255.4 46.3707C255.24 46.0263 254.981 45.7564 254.623 45.5611C254.264 45.3622 253.788 45.2628 253.195 45.2628H250.873V55H249.551ZM266.68 46.8182V47.8835H262.439V46.8182H266.68ZM263.675 44.858H264.932V52.6562C264.932 53.0114 264.984 53.2777 265.087 53.4553C265.193 53.6293 265.328 53.7464 265.492 53.8068C265.659 53.8636 265.834 53.892 266.019 53.892C266.157 53.892 266.271 53.8849 266.36 53.8707C266.449 53.853 266.52 53.8388 266.573 53.8281L266.829 54.9574C266.743 54.9893 266.624 55.0213 266.472 55.0533C266.319 55.0888 266.126 55.1065 265.891 55.1065C265.536 55.1065 265.188 55.0302 264.847 54.8775C264.51 54.7248 264.229 54.4922 264.006 54.1797C263.785 53.8672 263.675 53.473 263.675 52.9972V44.858ZM271.806 55.1705C271.068 55.1705 270.42 54.9947 269.862 54.6431C269.308 54.2915 268.875 53.7997 268.562 53.1676C268.254 52.5355 268.099 51.7969 268.099 50.9517C268.099 50.0994 268.254 49.3555 268.562 48.7198C268.875 48.0842 269.308 47.5906 269.862 47.239C270.42 46.8874 271.068 46.7116 271.806 46.7116C272.545 46.7116 273.191 46.8874 273.745 47.239C274.303 47.5906 274.736 48.0842 275.045 48.7198C275.358 49.3555 275.514 50.0994 275.514 50.9517C275.514 51.7969 275.358 52.5355 275.045 53.1676C274.736 53.7997 274.303 54.2915 273.745 54.6431C273.191 54.9947 272.545 55.1705 271.806 55.1705ZM271.806 54.0412C272.368 54.0412 272.829 53.8974 273.191 53.6097C273.554 53.3221 273.822 52.9439 273.996 52.4751C274.17 52.0064 274.257 51.4986 274.257 50.9517C274.257 50.4048 274.17 49.8952 273.996 49.4229C273.822 48.9506 273.554 48.5689 273.191 48.2777C272.829 47.9865 272.368 47.8409 271.806 47.8409C271.245 47.8409 270.784 47.9865 270.422 48.2777C270.059 48.5689 269.791 48.9506 269.617 49.4229C269.443 49.8952 269.356 50.4048 269.356 50.9517C269.356 51.4986 269.443 52.0064 269.617 52.4751C269.791 52.9439 270.059 53.3221 270.422 53.6097C270.784 53.8974 271.245 54.0412 271.806 54.0412ZM280.735 58.2386C280.128 58.2386 279.606 58.1605 279.169 58.0043C278.733 57.8516 278.369 57.6491 278.077 57.397C277.79 57.1484 277.561 56.8821 277.39 56.598L278.392 55.8949C278.505 56.044 278.649 56.2145 278.823 56.4062C278.997 56.6016 279.235 56.7702 279.537 56.9123C279.842 57.0579 280.242 57.1307 280.735 57.1307C281.396 57.1307 281.941 56.9709 282.371 56.6513C282.8 56.3317 283.015 55.831 283.015 55.1491V53.4872H282.909C282.816 53.6364 282.685 53.821 282.514 54.0412C282.348 54.2578 282.106 54.4513 281.79 54.6218C281.478 54.7887 281.055 54.8722 280.522 54.8722C279.862 54.8722 279.269 54.7159 278.743 54.4034C278.221 54.0909 277.807 53.6364 277.502 53.0398C277.2 52.4432 277.049 51.7187 277.049 50.8665C277.049 50.0284 277.197 49.2987 277.491 48.6772C277.786 48.0522 278.196 47.5692 278.722 47.2283C279.247 46.8839 279.855 46.7116 280.544 46.7116C281.076 46.7116 281.499 46.8004 281.811 46.978C282.127 47.152 282.369 47.3509 282.536 47.5746C282.706 47.7947 282.838 47.9759 282.93 48.1179H283.058V46.8182H284.272V55.2344C284.272 55.9375 284.112 56.5092 283.793 56.9496C283.477 57.3935 283.051 57.7184 282.514 57.9244C281.982 58.1339 281.389 58.2386 280.735 58.2386ZM280.693 53.7429C281.197 53.7429 281.623 53.6275 281.971 53.3967C282.319 53.1658 282.584 52.8338 282.765 52.4006C282.946 51.9673 283.036 51.4489 283.036 50.8452C283.036 50.2557 282.948 49.7354 282.77 49.2844C282.593 48.8335 282.33 48.4801 281.982 48.2244C281.634 47.9687 281.204 47.8409 280.693 47.8409C280.16 47.8409 279.716 47.9759 279.361 48.2457C279.009 48.5156 278.745 48.8778 278.567 49.3324C278.393 49.7869 278.306 50.2912 278.306 50.8452C278.306 51.4134 278.395 51.9158 278.573 52.3526C278.754 52.7859 279.02 53.1268 279.372 53.3754C279.727 53.6204 280.167 53.7429 280.693 53.7429ZM290.004 55.1705C289.215 55.1705 288.535 54.9964 287.964 54.6484C287.396 54.2969 286.957 53.8068 286.648 53.1783C286.343 52.5462 286.19 51.8111 286.19 50.973C286.19 50.1349 286.343 49.3963 286.648 48.7571C286.957 48.1143 287.387 47.6136 287.937 47.255C288.491 46.8928 289.137 46.7116 289.876 46.7116C290.302 46.7116 290.723 46.7827 291.138 46.9247C291.554 47.0668 291.932 47.2976 292.273 47.6172C292.614 47.9332 292.886 48.3523 293.088 48.8743C293.29 49.3963 293.392 50.0391 293.392 50.8026V51.3352H287.085V50.2486H292.113C292.113 49.7869 292.021 49.375 291.836 49.0128C291.655 48.6506 291.396 48.3647 291.059 48.1552C290.725 47.9457 290.331 47.8409 289.876 47.8409C289.375 47.8409 288.942 47.9652 288.576 48.2138C288.214 48.4588 287.935 48.7784 287.74 49.1726C287.545 49.5668 287.447 49.9893 287.447 50.4403V51.1648C287.447 51.7827 287.554 52.3065 287.767 52.7362C287.983 53.1623 288.283 53.4872 288.667 53.7109C289.05 53.9311 289.496 54.0412 290.004 54.0412C290.334 54.0412 290.632 53.995 290.899 53.9027C291.169 53.8068 291.401 53.6648 291.597 53.4766C291.792 53.2848 291.943 53.0469 292.049 52.7628L293.264 53.1037C293.136 53.5156 292.921 53.8778 292.619 54.1903C292.317 54.4993 291.945 54.7408 291.501 54.9148C291.057 55.0852 290.558 55.1705 290.004 55.1705ZM298.862 46.8182V47.8835H294.622V46.8182H298.862ZM295.858 44.858H297.115V52.6562C297.115 53.0114 297.166 53.2777 297.269 53.4553C297.376 53.6293 297.511 53.7464 297.674 53.8068C297.841 53.8636 298.017 53.892 298.202 53.892C298.34 53.892 298.454 53.8849 298.543 53.8707C298.631 53.853 298.702 53.8388 298.756 53.8281L299.011 54.9574C298.926 54.9893 298.807 55.0213 298.654 55.0533C298.502 55.0888 298.308 55.1065 298.074 55.1065C297.719 55.1065 297.371 55.0302 297.03 54.8775C296.692 54.7248 296.412 54.4922 296.188 54.1797C295.968 53.8672 295.858 53.473 295.858 52.9972V44.858ZM302.186 50.0781V55H300.929V44.0909H302.186V48.0966H302.293C302.484 47.674 302.772 47.3384 303.155 47.0898C303.543 46.8377 304.057 46.7116 304.7 46.7116C305.258 46.7116 305.746 46.8235 306.165 47.0472C306.584 47.2674 306.909 47.6065 307.14 48.0646C307.374 48.5192 307.491 49.098 307.491 49.8011V55H306.234V49.8864C306.234 49.2365 306.066 48.734 305.728 48.3789C305.394 48.0202 304.931 47.8409 304.338 47.8409C303.926 47.8409 303.557 47.9279 303.23 48.1019C302.907 48.2759 302.651 48.5298 302.463 48.8636C302.278 49.1974 302.186 49.6023 302.186 50.0781ZM313.222 55.1705C312.433 55.1705 311.753 54.9964 311.181 54.6484C310.613 54.2969 310.175 53.8068 309.866 53.1783C309.56 52.5462 309.408 51.8111 309.408 50.973C309.408 50.1349 309.56 49.3963 309.866 48.7571C310.175 48.1143 310.604 47.6136 311.155 47.255C311.709 46.8928 312.355 46.7116 313.094 46.7116C313.52 46.7116 313.941 46.7827 314.356 46.9247C314.772 47.0668 315.15 47.2976 315.491 47.6172C315.832 47.9332 316.103 48.3523 316.306 48.8743C316.508 49.3963 316.609 50.0391 316.609 50.8026V51.3352H310.303V50.2486H315.331C315.331 49.7869 315.239 49.375 315.054 49.0128C314.873 48.6506 314.614 48.3647 314.276 48.1552C313.942 47.9457 313.548 47.8409 313.094 47.8409C312.593 47.8409 312.16 47.9652 311.794 48.2138C311.432 48.4588 311.153 48.7784 310.958 49.1726C310.762 49.5668 310.665 49.9893 310.665 50.4403V51.1648C310.665 51.7827 310.771 52.3065 310.984 52.7362C311.201 53.1623 311.501 53.4872 311.885 53.7109C312.268 53.9311 312.714 54.0412 313.222 54.0412C313.552 54.0412 313.85 53.995 314.116 53.9027C314.386 53.8068 314.619 53.6648 314.814 53.4766C315.01 53.2848 315.161 53.0469 315.267 52.7628L316.482 53.1037C316.354 53.5156 316.139 53.8778 315.837 54.1903C315.535 54.4993 315.162 54.7408 314.718 54.9148C314.275 55.0852 313.776 55.1705 313.222 55.1705ZM318.522 55V46.8182H319.736V48.054H319.821C319.971 47.6491 320.24 47.3207 320.631 47.0685C321.022 46.8164 321.462 46.6903 321.952 46.6903C322.044 46.6903 322.16 46.6921 322.298 46.6957C322.437 46.6992 322.542 46.7045 322.613 46.7116V47.9901C322.57 47.9794 322.472 47.9634 322.32 47.9421C322.17 47.9173 322.012 47.9048 321.846 47.9048C321.448 47.9048 321.093 47.9883 320.78 48.1552C320.471 48.3185 320.226 48.5458 320.045 48.837C319.868 49.1246 319.779 49.4531 319.779 49.8224V55H318.522Z" fill="#A9A9A9"/>
<g clip-path="url(#clip0_964_37)">
<path d="M706.724 36.774L702.226 32.2759C702.101 32.1512 701.899 32.1514 701.774 32.2762C701.649 32.4011 701.649 32.6035 701.774 32.7282L705.728 36.6816L697.502 36.6818C697.418 36.6817 697.337 36.7153 697.277 36.7752C697.153 36.8996 697.153 37.1008 697.278 37.2248C697.337 37.2846 697.418 37.3182 697.502 37.3182L705.728 37.3181L701.774 41.272C701.649 41.3968 701.649 41.5991 701.774 41.7238L701.774 41.724C701.899 41.8486 702.101 41.8486 702.226 41.7238L706.724 37.2258C706.849 37.101 706.849 36.8987 706.724 36.774Z" fill="black"/>
</g>
<path d="M39.5 27H26.5C26.4998 27 26.4996 27 26.4995 27C26.2234 27.0002 25.9998 27.224 26 27.5V32H23.5C23.4998 32 23.4996 32 23.4994 32C23.2234 32.0002 22.9998 32.224 23 32.5V37H20.5C20.4998 37 20.4996 37 20.4994 37C20.2234 37.0002 19.9998 37.224 20 37.5V46.5C20 46.5002 20 46.5004 20 46.5005C20.0002 46.7766 20.224 47.0002 20.5 47H29.5C29.5002 47 29.5004 47 29.5006 47C29.7766 46.9998 30.0002 46.776 30 46.5V44H34.5C34.5002 44 34.5004 44 34.5006 44C34.7766 43.9998 35.0002 43.776 35 43.5V41H39.5C39.5002 41 39.5004 41 39.5006 41C39.7766 40.9998 40.0002 40.776 40 40.5V27.5C40 27.4998 40 27.4996 40 27.4994C39.9998 27.2234 39.776 26.9998 39.5 27ZM29 43.5V43.5005V46H21V38H23.5H29V43.5ZM34 40.5V40.5005V43H30V37.5C30 37.4998 30 37.4996 30 37.4994C29.9998 37.2234 29.776 36.9998 29.5 37H24V33H26.5H34V40.5ZM39 40H35V32.5C35 32.4998 35 32.4996 35 32.4994C34.9998 32.2234 34.776 31.9998 34.5 32H27V28H39V40Z" fill="black"/>
<defs>
<clipPath id="clip0_964_37">
<rect width="14" height="14" fill="white" transform="translate(702 27.1005) rotate(45)"/>
</clipPath>
</defs>
</svg>
