<svg width="736" height="74" viewBox="0 0 736 74" fill="none" xmlns="http://www.w3.org/2000/svg">
<path d="M71.981 29L72.1 28.643L76.486 17.1H78.033V17.236L73.426 29H71.981ZM71.981 29L67.374 17.236V17.1H68.921L73.307 28.643L73.426 29H71.981ZM82.0724 29.221C81.245 29.221 80.514 29.034 79.8794 28.66C79.2447 28.2747 78.746 27.7477 78.3834 27.079C78.032 26.4103 77.8564 25.6283 77.8564 24.733C77.8564 23.849 78.032 23.0727 78.3834 22.404C78.7347 21.724 79.222 21.197 79.8454 20.823C80.48 20.449 81.2054 20.262 82.0214 20.262C82.826 20.262 83.5287 20.4547 84.1294 20.84C84.7414 21.214 85.2174 21.7467 85.5574 22.438C85.8974 23.1293 86.0674 23.934 86.0674 24.852V25.056L85.8124 25.294H78.6554V23.951H85.2854L84.6054 24.223C84.5714 23.679 84.4354 23.2143 84.1974 22.829C83.9594 22.4437 83.6534 22.149 83.2794 21.945C82.9054 21.7297 82.486 21.622 82.0214 21.622C81.5227 21.622 81.0637 21.7467 80.6444 21.996C80.225 22.234 79.8964 22.574 79.6584 23.016C79.4204 23.458 79.3014 23.968 79.3014 24.546V24.886C79.3014 25.4527 79.4204 25.9627 79.6584 26.416C79.8964 26.858 80.225 27.2093 80.6444 27.47C81.0637 27.7307 81.5397 27.861 82.0724 27.861C82.5937 27.861 83.047 27.7363 83.4324 27.487C83.8177 27.2263 84.118 26.875 84.3334 26.433H84.5374L85.7274 26.96C85.41 27.6627 84.9284 28.218 84.2824 28.626C83.6477 29.0227 82.911 29.221 82.0724 29.221ZM91.6867 29.221C90.8367 29.221 90.0887 29.034 89.4427 28.66C88.7967 28.2747 88.2923 27.7477 87.9297 27.079C87.567 26.4103 87.3857 25.6283 87.3857 24.733C87.3857 23.849 87.567 23.0727 87.9297 22.404C88.2923 21.724 88.7967 21.197 89.4427 20.823C90.0887 20.449 90.8367 20.262 91.6867 20.262C92.3327 20.262 92.9107 20.381 93.4207 20.619C93.942 20.8457 94.384 21.1743 94.7467 21.605C95.1207 22.0243 95.3983 22.54 95.5797 23.152L94.3217 23.509H94.1347C93.942 22.931 93.6247 22.4777 93.1827 22.149C92.752 21.809 92.2533 21.639 91.6867 21.639C91.1087 21.639 90.6043 21.7693 90.1737 22.03C89.7543 22.2907 89.4257 22.6533 89.1877 23.118C88.9497 23.5827 88.8307 24.121 88.8307 24.733C88.8307 25.345 88.9497 25.889 89.1877 26.365C89.4257 26.8297 89.7543 27.1923 90.1737 27.453C90.6043 27.7137 91.1087 27.844 91.6867 27.844C92.0833 27.844 92.446 27.7703 92.7747 27.623C93.1033 27.4757 93.3867 27.2603 93.6247 26.977C93.874 26.6937 94.0667 26.3593 94.2027 25.974H94.3897L95.6647 26.331C95.4607 26.943 95.166 27.47 94.7807 27.912C94.3953 28.3427 93.942 28.6713 93.4207 28.898C92.9107 29.1133 92.3327 29.221 91.6867 29.221ZM100.272 29C99.5357 29 98.935 28.7677 98.4703 28.303C98.0057 27.827 97.7733 27.1867 97.7733 26.382V18.188H99.2183V26.263C99.2183 26.7503 99.326 27.1017 99.5413 27.317C99.7567 27.521 100.102 27.623 100.578 27.623H101.598L101.683 27.81V29H100.272ZM96.3113 21.843V20.483H101.683V21.843H96.3113ZM106.992 29.221C106.164 29.221 105.433 29.034 104.799 28.66C104.164 28.2747 103.665 27.7477 103.303 27.079C102.94 26.399 102.759 25.617 102.759 24.733C102.759 23.849 102.94 23.0727 103.303 22.404C103.665 21.724 104.164 21.197 104.799 20.823C105.433 20.449 106.164 20.262 106.992 20.262C107.83 20.262 108.567 20.449 109.202 20.823C109.836 21.197 110.335 21.724 110.698 22.404C111.06 23.0727 111.242 23.849 111.242 24.733C111.242 25.617 111.06 26.399 110.698 27.079C110.335 27.7477 109.836 28.2747 109.202 28.66C108.567 29.034 107.83 29.221 106.992 29.221ZM106.992 27.844C107.547 27.844 108.029 27.7193 108.437 27.47C108.856 27.2093 109.185 26.8467 109.423 26.382C109.661 25.906 109.78 25.3563 109.78 24.733C109.78 24.0983 109.661 23.5543 109.423 23.101C109.185 22.6363 108.856 22.2793 108.437 22.03C108.029 21.7693 107.547 21.639 106.992 21.639C106.448 21.639 105.966 21.7693 105.547 22.03C105.127 22.2793 104.799 22.6363 104.561 23.101C104.323 23.5543 104.204 24.0983 104.204 24.733C104.204 25.3563 104.323 25.906 104.561 26.382C104.799 26.8467 105.127 27.2093 105.547 27.47C105.966 27.7193 106.448 27.844 106.992 27.844ZM113.063 29V20.483H114.457V22.88L114.049 22.625C114.253 21.9677 114.633 21.4463 115.188 21.061C115.744 20.6757 116.367 20.483 117.058 20.483H117.925V21.843H116.837C116.373 21.843 115.965 21.9563 115.613 22.183C115.273 22.3983 115.001 22.7043 114.797 23.101C114.605 23.4863 114.508 23.9397 114.508 24.461V29H113.063ZM126.776 29.221C125.982 29.221 125.257 29.0737 124.6 28.779C123.954 28.4843 123.41 28.0707 122.968 27.538C122.537 27.0053 122.248 26.3877 122.101 25.685L123.444 25.362L123.631 25.396C123.755 25.8493 123.971 26.263 124.277 26.637C124.583 26.9997 124.951 27.2887 125.382 27.504C125.824 27.7193 126.288 27.827 126.776 27.827C127.308 27.827 127.773 27.742 128.17 27.572C128.578 27.402 128.895 27.164 129.122 26.858C129.36 26.552 129.479 26.2007 129.479 25.804C129.479 25.2713 129.326 24.8633 129.02 24.58C128.725 24.2967 128.311 24.0813 127.779 23.934L125.484 23.305C124.543 23.0443 123.829 22.6307 123.342 22.064C122.854 21.4973 122.611 20.8457 122.611 20.109C122.611 19.4743 122.775 18.919 123.104 18.443C123.432 17.9557 123.886 17.576 124.464 17.304C125.053 17.0207 125.733 16.879 126.504 16.879C127.24 16.879 127.909 17.0207 128.51 17.304C129.122 17.576 129.62 17.9613 130.006 18.46C130.402 18.9587 130.663 19.548 130.788 20.228L129.479 20.517L129.292 20.483C129.144 19.803 128.816 19.2647 128.306 18.868C127.807 18.4713 127.201 18.273 126.487 18.273C125.784 18.273 125.217 18.443 124.787 18.783C124.356 19.1117 124.141 19.5537 124.141 20.109C124.141 20.551 124.294 20.9193 124.6 21.214C124.906 21.5087 125.348 21.7353 125.926 21.894L128.204 22.523C129.099 22.7723 129.79 23.169 130.278 23.713C130.765 24.257 131.009 24.9257 131.009 25.719C131.009 26.4217 130.833 27.0337 130.482 27.555C130.13 28.0763 129.637 28.4843 129.003 28.779C128.368 29.0737 127.626 29.221 126.776 29.221ZM136.708 29.221C135.881 29.221 135.15 29.034 134.515 28.66C133.88 28.2747 133.382 27.7477 133.019 27.079C132.668 26.4103 132.492 25.6283 132.492 24.733C132.492 23.849 132.668 23.0727 133.019 22.404C133.37 21.724 133.858 21.197 134.481 20.823C135.116 20.449 135.841 20.262 136.657 20.262C137.462 20.262 138.164 20.4547 138.765 20.84C139.377 21.214 139.853 21.7467 140.193 22.438C140.533 23.1293 140.703 23.934 140.703 24.852V25.056L140.448 25.294H133.291V23.951H139.921L139.241 24.223C139.207 23.679 139.071 23.2143 138.833 22.829C138.595 22.4437 138.289 22.149 137.915 21.945C137.541 21.7297 137.122 21.622 136.657 21.622C136.158 21.622 135.699 21.7467 135.28 21.996C134.861 22.234 134.532 22.574 134.294 23.016C134.056 23.458 133.937 23.968 133.937 24.546V24.886C133.937 25.4527 134.056 25.9627 134.294 26.416C134.532 26.858 134.861 27.2093 135.28 27.47C135.699 27.7307 136.175 27.861 136.708 27.861C137.229 27.861 137.683 27.7363 138.068 27.487C138.453 27.2263 138.754 26.875 138.969 26.433H139.173L140.363 26.96C140.046 27.6627 139.564 28.218 138.918 28.626C138.283 29.0227 137.547 29.221 136.708 29.221ZM145.2 29.221C144.611 29.221 144.084 29.1077 143.619 28.881C143.166 28.6543 142.809 28.3427 142.548 27.946C142.288 27.538 142.157 27.0733 142.157 26.552C142.157 25.804 142.424 25.1977 142.956 24.733C143.5 24.2683 144.248 23.9963 145.2 23.917L148.481 23.679V24.971L145.489 25.209C144.866 25.2543 144.401 25.3903 144.095 25.617C143.801 25.8323 143.653 26.1383 143.653 26.535C143.653 26.909 143.812 27.2207 144.129 27.47C144.447 27.7193 144.855 27.844 145.353 27.844C145.863 27.844 146.328 27.725 146.747 27.487C147.167 27.249 147.495 26.9317 147.733 26.535C147.983 26.1383 148.107 25.6963 148.107 25.209V23.832C148.107 23.186 147.903 22.6533 147.495 22.234C147.099 21.8147 146.566 21.605 145.897 21.605C145.376 21.605 144.928 21.7353 144.554 21.996C144.18 22.2453 143.925 22.5967 143.789 23.05H143.602L142.344 22.642C142.594 21.8827 143.03 21.2933 143.653 20.874C144.277 20.4547 145.03 20.245 145.914 20.245C147.07 20.245 147.96 20.5907 148.583 21.282C149.218 21.9733 149.535 22.948 149.535 24.206V29H148.175V26.518L148.685 26.79C148.549 27.2547 148.306 27.674 147.954 28.048C147.614 28.4107 147.206 28.6997 146.73 28.915C146.266 29.119 145.756 29.221 145.2 29.221ZM151.778 29V20.483H153.172V22.88L152.764 22.625C152.968 21.9677 153.348 21.4463 153.903 21.061C154.458 20.6757 155.082 20.483 155.773 20.483H156.64V21.843H155.552C155.087 21.843 154.679 21.9563 154.328 22.183C153.988 22.3983 153.716 22.7043 153.512 23.101C153.319 23.4863 153.223 23.9397 153.223 24.461V29H151.778ZM161.43 29.221C160.58 29.221 159.832 29.034 159.186 28.66C158.54 28.2747 158.035 27.7477 157.673 27.079C157.31 26.4103 157.129 25.6283 157.129 24.733C157.129 23.849 157.31 23.0727 157.673 22.404C158.035 21.724 158.54 21.197 159.186 20.823C159.832 20.449 160.58 20.262 161.43 20.262C162.076 20.262 162.654 20.381 163.164 20.619C163.685 20.8457 164.127 21.1743 164.49 21.605C164.864 22.0243 165.141 22.54 165.323 23.152L164.065 23.509H163.878C163.685 22.931 163.368 22.4777 162.926 22.149C162.495 21.809 161.996 21.639 161.43 21.639C160.852 21.639 160.347 21.7693 159.917 22.03C159.497 22.2907 159.169 22.6533 158.931 23.118C158.693 23.5827 158.574 24.121 158.574 24.733C158.574 25.345 158.693 25.889 158.931 26.365C159.169 26.8297 159.497 27.1923 159.917 27.453C160.347 27.7137 160.852 27.844 161.43 27.844C161.826 27.844 162.189 27.7703 162.518 27.623C162.846 27.4757 163.13 27.2603 163.368 26.977C163.617 26.6937 163.81 26.3593 163.946 25.974H164.133L165.408 26.331C165.204 26.943 164.909 27.47 164.524 27.912C164.138 28.3427 163.685 28.6713 163.164 28.898C162.654 29.1133 162.076 29.221 161.43 29.221ZM167.22 29V16.76L168.614 16.59L168.665 16.726V22.88L168.206 22.625C168.364 22.1377 168.614 21.7183 168.954 21.367C169.294 21.0157 169.69 20.7437 170.144 20.551C170.608 20.3583 171.101 20.262 171.623 20.262C172.235 20.262 172.779 20.3923 173.255 20.653C173.742 20.9137 174.122 21.299 174.394 21.809C174.666 22.319 174.802 22.9593 174.802 23.73V29H173.357V24.087C173.357 23.475 173.266 22.9933 173.085 22.642C172.903 22.2793 172.654 22.0243 172.337 21.877C172.031 21.7297 171.679 21.656 171.283 21.656C170.852 21.656 170.433 21.7637 170.025 21.979C169.628 22.183 169.299 22.4947 169.039 22.914C168.789 23.3333 168.665 23.8547 168.665 24.478V29H167.22Z" fill="black"/>
<path d="M74.2869 46.8182C74.223 46.2784 73.9638 45.8594 73.5092 45.5611C73.0547 45.2628 72.4972 45.1136 71.8366 45.1136C71.3537 45.1136 70.9311 45.1918 70.5689 45.348C70.2102 45.5043 69.9297 45.7191 69.7273 45.9925C69.5284 46.266 69.429 46.5767 69.429 46.9247C69.429 47.2159 69.4982 47.4663 69.6367 47.6758C69.7788 47.8817 69.9599 48.054 70.18 48.1925C70.4002 48.3274 70.631 48.4393 70.8725 48.5281C71.114 48.6133 71.3359 48.6825 71.5384 48.7358L72.6463 49.0341C72.9304 49.1087 73.2464 49.2116 73.5945 49.343C73.946 49.4744 74.2816 49.6538 74.6012 49.881C74.9244 50.1048 75.1907 50.3924 75.4002 50.744C75.6097 51.0955 75.7145 51.527 75.7145 52.0384C75.7145 52.6278 75.56 53.1605 75.2511 53.6364C74.9457 54.1122 74.4982 54.4904 73.9087 54.771C73.3228 55.0515 72.6108 55.1918 71.7727 55.1918C70.9915 55.1918 70.315 55.0657 69.7433 54.8136C69.1751 54.5614 68.7276 54.2099 68.4009 53.7589C68.0778 53.3079 67.8949 52.7841 67.8523 52.1875H69.2159C69.2514 52.5994 69.3899 52.9403 69.6314 53.2102C69.8764 53.4766 70.1854 53.6754 70.5582 53.8068C70.9347 53.9347 71.3395 53.9986 71.7727 53.9986C72.277 53.9986 72.7298 53.9169 73.131 53.7536C73.5323 53.5866 73.8501 53.3558 74.0845 53.0611C74.3189 52.7628 74.4361 52.4148 74.4361 52.017C74.4361 51.6548 74.3349 51.3601 74.1325 51.1328C73.93 50.9055 73.6637 50.7209 73.3335 50.5788C73.0032 50.4368 72.6463 50.3125 72.2628 50.206L70.9205 49.8224C70.0682 49.5774 69.3935 49.2276 68.8963 48.7731C68.3991 48.3185 68.1506 47.7237 68.1506 46.9886C68.1506 46.3778 68.3157 45.8452 68.646 45.3906C68.9798 44.9325 69.4272 44.5774 69.9883 44.3253C70.5529 44.0696 71.1832 43.9418 71.8793 43.9418C72.5824 43.9418 73.2074 44.0678 73.7543 44.32C74.3011 44.5685 74.7344 44.9094 75.054 45.3427C75.3771 45.7759 75.5476 46.2678 75.5653 46.8182H74.2869ZM77.716 55V46.8182H78.9731V55H77.716ZM78.3552 45.4545C78.1102 45.4545 77.8989 45.3711 77.7213 45.2042C77.5473 45.0373 77.4603 44.8366 77.4603 44.6023C77.4603 44.3679 77.5473 44.1673 77.7213 44.0004C77.8989 43.8335 78.1102 43.75 78.3552 43.75C78.6002 43.75 78.8097 43.8335 78.9838 44.0004C79.1613 44.1673 79.2501 44.3679 79.2501 44.6023C79.2501 44.8366 79.1613 45.0373 78.9838 45.2042C78.8097 45.3711 78.6002 45.4545 78.3552 45.4545ZM81.2756 55V46.8182H82.4901V48.0966H82.5966C82.767 47.6598 83.0423 47.3207 83.4222 47.0792C83.8022 46.8342 84.2585 46.7116 84.7912 46.7116C85.331 46.7116 85.7802 46.8342 86.1388 47.0792C86.5011 47.3207 86.7834 47.6598 86.9858 48.0966H87.071C87.2805 47.674 87.5948 47.3384 88.0138 47.0898C88.4329 46.8377 88.9354 46.7116 89.5213 46.7116C90.2528 46.7116 90.8512 46.9407 91.3164 47.3988C91.7816 47.8533 92.0142 48.5618 92.0142 49.5241V55H90.7571V49.5241C90.7571 48.9205 90.592 48.489 90.2617 48.2298C89.9315 47.9705 89.5426 47.8409 89.0952 47.8409C88.5199 47.8409 88.0742 48.0149 87.7582 48.3629C87.4421 48.7074 87.2841 49.1442 87.2841 49.6733V55H86.0057V49.3963C86.0057 48.9311 85.8548 48.5565 85.5529 48.2724C85.2511 47.9847 84.8622 47.8409 84.3864 47.8409C84.0597 47.8409 83.7543 47.9279 83.4702 48.1019C83.1896 48.2759 82.9624 48.5174 82.7884 48.8263C82.6179 49.1317 82.5327 49.4851 82.5327 49.8864V55H81.2756ZM94.3127 55V46.8182H95.5698V55H94.3127ZM94.9519 45.4545C94.7069 45.4545 94.4956 45.3711 94.318 45.2042C94.144 45.0373 94.057 44.8366 94.057 44.6023C94.057 44.3679 94.144 44.1673 94.318 44.0004C94.4956 43.8335 94.7069 43.75 94.9519 43.75C95.1969 43.75 95.4064 43.8335 95.5804 44.0004C95.758 44.1673 95.8468 44.3679 95.8468 44.6023C95.8468 44.8366 95.758 45.0373 95.5804 45.2042C95.4064 45.3711 95.1969 45.4545 94.9519 45.4545ZM99.1294 44.0909V55H97.8722V44.0909H99.1294ZM103.839 55.1918C103.321 55.1918 102.85 55.0941 102.428 54.8988C102.005 54.6999 101.67 54.4141 101.421 54.0412C101.173 53.6648 101.048 53.2102 101.048 52.6776C101.048 52.2088 101.141 51.8288 101.325 51.5376C101.51 51.2429 101.757 51.0121 102.066 50.8452C102.375 50.6783 102.716 50.554 103.088 50.4723C103.465 50.3871 103.843 50.3196 104.223 50.2699C104.72 50.206 105.123 50.158 105.432 50.1261C105.745 50.0906 105.972 50.032 106.114 49.9503C106.26 49.8686 106.332 49.7266 106.332 49.5241V49.4815C106.332 48.956 106.189 48.5476 105.901 48.2564C105.617 47.9652 105.185 47.8196 104.607 47.8196C104.006 47.8196 103.536 47.951 103.195 48.2138C102.854 48.4766 102.614 48.7571 102.476 49.0554L101.283 48.6293C101.496 48.1321 101.78 47.745 102.135 47.468C102.494 47.1875 102.884 46.9922 103.307 46.8821C103.733 46.7685 104.152 46.7116 104.564 46.7116C104.827 46.7116 105.129 46.7436 105.469 46.8075C105.814 46.8679 106.146 46.994 106.466 47.1857C106.789 47.3775 107.057 47.6669 107.27 48.054C107.483 48.4411 107.589 48.9595 107.589 49.6094V55H106.332V53.892H106.268C106.183 54.0696 106.041 54.2596 105.842 54.462C105.643 54.6644 105.379 54.8366 105.049 54.9787C104.718 55.1207 104.315 55.1918 103.839 55.1918ZM104.031 54.0625C104.528 54.0625 104.947 53.9648 105.288 53.7695C105.633 53.5742 105.892 53.3221 106.066 53.0131C106.244 52.7042 106.332 52.3793 106.332 52.0384V50.8878C106.279 50.9517 106.162 51.0103 105.981 51.0636C105.803 51.1133 105.597 51.1577 105.363 51.1967C105.132 51.2322 104.907 51.2642 104.686 51.2926C104.47 51.3175 104.294 51.3388 104.159 51.3565C103.832 51.3991 103.527 51.4684 103.243 51.5643C102.962 51.6566 102.735 51.7969 102.561 51.9851C102.391 52.1697 102.305 52.4219 102.305 52.7415C102.305 53.1783 102.467 53.5085 102.79 53.7322C103.117 53.9524 103.531 54.0625 104.031 54.0625ZM109.884 55V46.8182H111.098V48.054H111.184C111.333 47.6491 111.603 47.3207 111.993 47.0685C112.384 46.8164 112.824 46.6903 113.314 46.6903C113.407 46.6903 113.522 46.6921 113.661 46.6957C113.799 46.6992 113.904 46.7045 113.975 46.7116V47.9901C113.932 47.9794 113.835 47.9634 113.682 47.9421C113.533 47.9173 113.375 47.9048 113.208 47.9048C112.81 47.9048 112.455 47.9883 112.142 48.1552C111.834 48.3185 111.589 48.5458 111.407 48.837C111.23 49.1246 111.141 49.4531 111.141 49.8224V55H109.884ZM115.465 55V46.8182H116.722V55H115.465ZM116.104 45.4545C115.859 45.4545 115.648 45.3711 115.47 45.2042C115.296 45.0373 115.209 44.8366 115.209 44.6023C115.209 44.3679 115.296 44.1673 115.47 44.0004C115.648 43.8335 115.859 43.75 116.104 43.75C116.349 43.75 116.559 43.8335 116.733 44.0004C116.91 44.1673 116.999 44.3679 116.999 44.6023C116.999 44.8366 116.91 45.0373 116.733 45.2042C116.559 45.3711 116.349 45.4545 116.104 45.4545ZM122.583 46.8182V47.8835H118.343V46.8182H122.583ZM119.579 44.858H120.836V52.6562C120.836 53.0114 120.887 53.2777 120.99 53.4553C121.097 53.6293 121.232 53.7464 121.395 53.8068C121.562 53.8636 121.738 53.892 121.922 53.892C122.061 53.892 122.174 53.8849 122.263 53.8707C122.352 53.853 122.423 53.8388 122.476 53.8281L122.732 54.9574C122.647 54.9893 122.528 55.0213 122.375 55.0533C122.222 55.0888 122.029 55.1065 121.794 55.1065C121.439 55.1065 121.091 55.0302 120.75 54.8775C120.413 54.7248 120.133 54.4922 119.909 54.1797C119.689 53.8672 119.579 53.473 119.579 52.9972V44.858ZM125.283 58.0682C125.07 58.0682 124.88 58.0504 124.714 58.0149C124.547 57.983 124.431 57.951 124.367 57.919L124.687 56.8111C124.992 56.8892 125.262 56.9176 125.497 56.8963C125.731 56.875 125.939 56.7702 126.12 56.582C126.304 56.3974 126.473 56.0973 126.626 55.6818L126.86 55.0426L123.835 46.8182H125.198L127.457 53.3381H127.542L129.801 46.8182H131.164L127.691 56.1932C127.535 56.6158 127.341 56.9656 127.111 57.2425C126.88 57.5231 126.612 57.7308 126.306 57.8658C126.004 58.0007 125.663 58.0682 125.283 58.0682ZM143.179 46.8182C143.115 46.2784 142.855 45.8594 142.401 45.5611C141.946 45.2628 141.389 45.1136 140.728 45.1136C140.245 45.1136 139.823 45.1918 139.46 45.348C139.102 45.5043 138.821 45.7191 138.619 45.9925C138.42 46.266 138.321 46.5767 138.321 46.9247C138.321 47.2159 138.39 47.4663 138.528 47.6758C138.67 47.8817 138.851 48.054 139.072 48.1925C139.292 48.3274 139.523 48.4393 139.764 48.5281C140.006 48.6133 140.228 48.6825 140.43 48.7358L141.538 49.0341C141.822 49.1087 142.138 49.2116 142.486 49.343C142.838 49.4744 143.173 49.6538 143.493 49.881C143.816 50.1048 144.082 50.3924 144.292 50.744C144.501 51.0955 144.606 51.527 144.606 52.0384C144.606 52.6278 144.452 53.1605 144.143 53.6364C143.837 54.1122 143.39 54.4904 142.8 54.771C142.214 55.0515 141.502 55.1918 140.664 55.1918C139.883 55.1918 139.207 55.0657 138.635 54.8136C138.067 54.5614 137.619 54.2099 137.293 53.7589C136.969 53.3079 136.786 52.7841 136.744 52.1875H138.108C138.143 52.5994 138.282 52.9403 138.523 53.2102C138.768 53.4766 139.077 53.6754 139.45 53.8068C139.826 53.9347 140.231 53.9986 140.664 53.9986C141.169 53.9986 141.621 53.9169 142.023 53.7536C142.424 53.5866 142.742 53.3558 142.976 53.0611C143.21 52.7628 143.328 52.4148 143.328 52.017C143.328 51.6548 143.226 51.3601 143.024 51.1328C142.822 50.9055 142.555 50.7209 142.225 50.5788C141.895 50.4368 141.538 50.3125 141.154 50.206L139.812 49.8224C138.96 49.5774 138.285 49.2276 137.788 48.7731C137.291 48.3185 137.042 47.7237 137.042 46.9886C137.042 46.3778 137.207 45.8452 137.538 45.3906C137.871 44.9325 138.319 44.5774 138.88 44.3253C139.445 44.0696 140.075 43.9418 140.771 43.9418C141.474 43.9418 142.099 44.0678 142.646 44.32C143.193 44.5685 143.626 44.9094 143.946 45.3427C144.269 45.7759 144.439 46.2678 144.457 46.8182H143.179ZM150.038 55.1705C149.25 55.1705 148.57 54.9964 147.998 54.6484C147.43 54.2969 146.991 53.8068 146.682 53.1783C146.377 52.5462 146.224 51.8111 146.224 50.973C146.224 50.1349 146.377 49.3963 146.682 48.7571C146.991 48.1143 147.421 47.6136 147.971 47.255C148.525 46.8928 149.172 46.7116 149.91 46.7116C150.336 46.7116 150.757 46.7827 151.173 46.9247C151.588 47.0668 151.966 47.2976 152.307 47.6172C152.648 47.9332 152.92 48.3523 153.122 48.8743C153.325 49.3963 153.426 50.0391 153.426 50.8026V51.3352H147.119V50.2486H152.147C152.147 49.7869 152.055 49.375 151.87 49.0128C151.689 48.6506 151.43 48.3647 151.093 48.1552C150.759 47.9457 150.365 47.8409 149.91 47.8409C149.409 47.8409 148.976 47.9652 148.61 48.2138C148.248 48.4588 147.969 48.7784 147.774 49.1726C147.579 49.5668 147.481 49.9893 147.481 50.4403V51.1648C147.481 51.7827 147.588 52.3065 147.801 52.7362C148.017 53.1623 148.317 53.4872 148.701 53.7109C149.085 53.9311 149.53 54.0412 150.038 54.0412C150.368 54.0412 150.667 53.995 150.933 53.9027C151.203 53.8068 151.435 53.6648 151.631 53.4766C151.826 53.2848 151.977 53.0469 152.083 52.7628L153.298 53.1037C153.17 53.5156 152.955 53.8778 152.653 54.1903C152.352 54.4993 151.979 54.7408 151.535 54.9148C151.091 55.0852 150.592 55.1705 150.038 55.1705ZM157.746 55.1918C157.227 55.1918 156.757 55.0941 156.334 54.8988C155.912 54.6999 155.576 54.4141 155.327 54.0412C155.079 53.6648 154.955 53.2102 154.955 52.6776C154.955 52.2088 155.047 51.8288 155.232 51.5376C155.416 51.2429 155.663 51.0121 155.972 50.8452C156.281 50.6783 156.622 50.554 156.995 50.4723C157.371 50.3871 157.749 50.3196 158.129 50.2699C158.626 50.206 159.029 50.158 159.338 50.1261C159.651 50.0906 159.878 50.032 160.02 49.9503C160.166 49.8686 160.239 49.7266 160.239 49.5241V49.4815C160.239 48.956 160.095 48.5476 159.807 48.2564C159.523 47.9652 159.092 47.8196 158.513 47.8196C157.913 47.8196 157.442 47.951 157.101 48.2138C156.76 48.4766 156.521 48.7571 156.382 49.0554L155.189 48.6293C155.402 48.1321 155.686 47.745 156.041 47.468C156.4 47.1875 156.79 46.9922 157.213 46.8821C157.639 46.7685 158.058 46.7116 158.47 46.7116C158.733 46.7116 159.035 46.7436 159.376 46.8075C159.72 46.8679 160.052 46.994 160.372 47.1857C160.695 47.3775 160.963 47.6669 161.176 48.054C161.389 48.4411 161.496 48.9595 161.496 49.6094V55H160.239V53.892H160.175C160.089 54.0696 159.947 54.2596 159.749 54.462C159.55 54.6644 159.285 54.8366 158.955 54.9787C158.625 55.1207 158.222 55.1918 157.746 55.1918ZM157.938 54.0625C158.435 54.0625 158.854 53.9648 159.195 53.7695C159.539 53.5742 159.798 53.3221 159.972 53.0131C160.15 52.7042 160.239 52.3793 160.239 52.0384V50.8878C160.185 50.9517 160.068 51.0103 159.887 51.0636C159.71 51.1133 159.504 51.1577 159.269 51.1967C159.038 51.2322 158.813 51.2642 158.593 51.2926C158.376 51.3175 158.2 51.3388 158.065 51.3565C157.739 51.3991 157.433 51.4684 157.149 51.5643C156.869 51.6566 156.641 51.7969 156.467 51.9851C156.297 52.1697 156.212 52.4219 156.212 52.7415C156.212 53.1783 156.373 53.5085 156.696 53.7322C157.023 53.9524 157.437 54.0625 157.938 54.0625ZM163.79 55V46.8182H165.005V48.054H165.09C165.239 47.6491 165.509 47.3207 165.9 47.0685C166.29 46.8164 166.731 46.6903 167.221 46.6903C167.313 46.6903 167.428 46.6921 167.567 46.6957C167.705 46.6992 167.81 46.7045 167.881 46.7116V47.9901C167.839 47.9794 167.741 47.9634 167.588 47.9421C167.439 47.9173 167.281 47.9048 167.114 47.9048C166.716 47.9048 166.361 47.9883 166.049 48.1552C165.74 48.3185 165.495 48.5458 165.314 48.837C165.136 49.1246 165.047 49.4531 165.047 49.8224V55H163.79ZM172.446 55.1705C171.679 55.1705 171.019 54.9893 170.465 54.6271C169.911 54.2649 169.484 53.766 169.186 53.1303C168.888 52.4947 168.739 51.7685 168.739 50.9517C168.739 50.1207 168.891 49.3874 169.197 48.7518C169.506 48.1126 169.935 47.6136 170.486 47.255C171.04 46.8928 171.686 46.7116 172.425 46.7116C173 46.7116 173.519 46.8182 173.98 47.0312C174.442 47.2443 174.82 47.5426 175.115 47.9261C175.41 48.3097 175.592 48.7571 175.663 49.2685H174.406C174.31 48.8956 174.097 48.5653 173.767 48.2777C173.44 47.9865 173 47.8409 172.446 47.8409C171.956 47.8409 171.526 47.9687 171.157 48.2244C170.791 48.4766 170.505 48.8335 170.299 49.2951C170.097 49.7532 169.996 50.2912 169.996 50.9091C169.996 51.5412 170.095 52.0916 170.294 52.5604C170.497 53.0291 170.781 53.3931 171.146 53.6523C171.516 53.9116 171.949 54.0412 172.446 54.0412C172.773 54.0412 173.069 53.9844 173.336 53.8707C173.602 53.7571 173.828 53.5938 174.012 53.3807C174.197 53.1676 174.328 52.9119 174.406 52.6136H175.663C175.592 53.0966 175.417 53.5316 175.136 53.9187C174.859 54.3022 174.492 54.6076 174.033 54.8349C173.579 55.0586 173.05 55.1705 172.446 55.1705ZM178.758 50.0781V55H177.501V44.0909H178.758V48.0966H178.865C179.057 47.674 179.344 47.3384 179.728 47.0898C180.115 46.8377 180.63 46.7116 181.272 46.7116C181.83 46.7116 182.318 46.8235 182.737 47.0472C183.156 47.2674 183.481 47.6065 183.712 48.0646C183.946 48.5192 184.064 49.098 184.064 49.8011V55H182.807V49.8864C182.807 49.2365 182.638 48.734 182.301 48.3789C181.967 48.0202 181.503 47.8409 180.91 47.8409C180.498 47.8409 180.129 47.9279 179.802 48.1019C179.479 48.2759 179.223 48.5298 179.035 48.8636C178.851 49.1974 178.758 49.6023 178.758 50.0781ZM194.226 46.8182V47.8835H189.815V46.8182H194.226ZM191.136 55V45.6889C191.136 45.2202 191.246 44.8295 191.466 44.517C191.687 44.2045 191.972 43.9702 192.324 43.8139C192.676 43.6577 193.047 43.5795 193.437 43.5795C193.746 43.5795 193.998 43.6044 194.194 43.6541C194.389 43.7038 194.535 43.75 194.631 43.7926L194.268 44.8793C194.204 44.858 194.116 44.8313 194.002 44.7994C193.892 44.7674 193.746 44.7514 193.565 44.7514C193.15 44.7514 192.85 44.8562 192.665 45.0657C192.484 45.2752 192.393 45.5824 192.393 45.9872V55H191.136ZM198.974 55.1705C198.236 55.1705 197.588 54.9947 197.03 54.6431C196.476 54.2915 196.043 53.7997 195.73 53.1676C195.422 52.5355 195.267 51.7969 195.267 50.9517C195.267 50.0994 195.422 49.3555 195.73 48.7198C196.043 48.0842 196.476 47.5906 197.03 47.239C197.588 46.8874 198.236 46.7116 198.974 46.7116C199.713 46.7116 200.359 46.8874 200.913 47.239C201.471 47.5906 201.904 48.0842 202.213 48.7198C202.526 49.3555 202.682 50.0994 202.682 50.9517C202.682 51.7969 202.526 52.5355 202.213 53.1676C201.904 53.7997 201.471 54.2915 200.913 54.6431C200.359 54.9947 199.713 55.1705 198.974 55.1705ZM198.974 54.0412C199.536 54.0412 199.997 53.8974 200.359 53.6097C200.722 53.3221 200.99 52.9439 201.164 52.4751C201.338 52.0064 201.425 51.4986 201.425 50.9517C201.425 50.4048 201.338 49.8952 201.164 49.4229C200.99 48.9506 200.722 48.5689 200.359 48.2777C199.997 47.9865 199.536 47.8409 198.974 47.8409C198.413 47.8409 197.952 47.9865 197.589 48.2777C197.227 48.5689 196.959 48.9506 196.785 49.4229C196.611 49.8952 196.524 50.4048 196.524 50.9517C196.524 51.4986 196.611 52.0064 196.785 52.4751C196.959 52.9439 197.227 53.3221 197.589 53.6097C197.952 53.8974 198.413 54.0412 198.974 54.0412ZM204.601 55V46.8182H205.815V48.054H205.9C206.05 47.6491 206.32 47.3207 206.71 47.0685C207.101 46.8164 207.541 46.6903 208.031 46.6903C208.123 46.6903 208.239 46.6921 208.377 46.6957C208.516 46.6992 208.621 46.7045 208.692 46.7116V47.9901C208.649 47.9794 208.551 47.9634 208.399 47.9421C208.25 47.9173 208.092 47.9048 207.925 47.9048C207.527 47.9048 207.172 47.9883 206.859 48.1552C206.55 48.3185 206.305 48.5458 206.124 48.837C205.947 49.1246 205.858 49.4531 205.858 49.8224V55H204.601ZM214.571 55V44.0909H218.257C219.109 44.0909 219.809 44.2365 220.356 44.5277C220.903 44.8153 221.308 45.2113 221.57 45.7156C221.833 46.2198 221.964 46.7933 221.964 47.4361C221.964 48.0788 221.833 48.6488 221.57 49.146C221.308 49.6431 220.904 50.0337 220.361 50.3178C219.818 50.5984 219.124 50.7386 218.278 50.7386H215.295V49.5455H218.236C218.818 49.5455 219.287 49.4602 219.642 49.2898C220.001 49.1193 220.26 48.8778 220.42 48.5653C220.583 48.2493 220.665 47.8729 220.665 47.4361C220.665 46.9993 220.583 46.6175 220.42 46.2908C220.256 45.9641 219.995 45.712 219.637 45.5344C219.278 45.3533 218.804 45.2628 218.214 45.2628H215.892V55H214.571ZM219.706 50.0994L222.391 55H220.857L218.214 50.0994H219.706ZM224.613 55H223.228L227.234 44.0909H228.598L232.603 55H231.218L227.958 45.8168H227.873L224.613 55ZM225.125 50.7386H230.707V51.9105H225.125V50.7386ZM241.247 47.5C241.13 47.1413 240.975 46.82 240.784 46.5359C240.596 46.2482 240.37 46.0032 240.107 45.8008C239.848 45.5984 239.553 45.4439 239.223 45.3374C238.893 45.2308 238.531 45.1776 238.136 45.1776C237.49 45.1776 236.902 45.3445 236.373 45.6783C235.844 46.0121 235.423 46.5039 235.111 47.1538C234.798 47.8036 234.642 48.6009 234.642 49.5455C234.642 50.4901 234.8 51.2873 235.116 51.9371C235.432 52.587 235.86 53.0788 236.4 53.4126C236.94 53.7464 237.547 53.9134 238.222 53.9134C238.847 53.9134 239.397 53.7802 239.873 53.5138C240.352 53.244 240.725 52.864 240.991 52.3739C241.261 51.8803 241.396 51.2997 241.396 50.6321L241.801 50.7173H238.52V49.5455H242.675V50.7173C242.675 51.6158 242.483 52.397 242.099 53.0611C241.719 53.7251 241.194 54.2401 240.523 54.6058C239.855 54.968 239.088 55.1491 238.222 55.1491C237.256 55.1491 236.407 54.9219 235.675 54.4673C234.947 54.0128 234.379 53.3665 233.971 52.5284C233.566 51.6903 233.364 50.696 233.364 49.5455C233.364 48.6825 233.479 47.9066 233.71 47.2177C233.944 46.5252 234.275 45.9357 234.701 45.4492C235.127 44.9627 235.631 44.5898 236.213 44.3306C236.796 44.0714 237.437 43.9418 238.136 43.9418C238.712 43.9418 239.248 44.0288 239.745 44.2028C240.246 44.3732 240.691 44.6165 241.082 44.9325C241.476 45.245 241.805 45.6197 242.067 46.0565C242.33 46.4897 242.511 46.9709 242.611 47.5H241.247ZM252.842 43.5795L249.326 56.6406H248.176L251.691 43.5795H252.842ZM259.169 55H257.784L261.79 44.0909H263.153L267.159 55H265.774L262.514 45.8168H262.429L259.169 55ZM259.68 50.7386H265.263V51.9105H259.68V50.7386ZM271.99 58.2386C271.383 58.2386 270.861 58.1605 270.424 58.0043C269.987 57.8516 269.623 57.6491 269.332 57.397C269.045 57.1484 268.816 56.8821 268.645 56.598L269.646 55.8949C269.76 56.044 269.904 56.2145 270.078 56.4062C270.252 56.6016 270.49 56.7702 270.792 56.9123C271.097 57.0579 271.497 57.1307 271.99 57.1307C272.651 57.1307 273.196 56.9709 273.626 56.6513C274.055 56.3317 274.27 55.831 274.27 55.1491V53.4872H274.164C274.071 53.6364 273.94 53.821 273.769 54.0412C273.602 54.2578 273.361 54.4513 273.045 54.6218C272.732 54.7887 272.31 54.8722 271.777 54.8722C271.117 54.8722 270.524 54.7159 269.998 54.4034C269.476 54.0909 269.062 53.6364 268.757 53.0398C268.455 52.4432 268.304 51.7187 268.304 50.8665C268.304 50.0284 268.452 49.2987 268.746 48.6772C269.041 48.0522 269.451 47.5692 269.977 47.2283C270.502 46.8839 271.11 46.7116 271.798 46.7116C272.331 46.7116 272.754 46.8004 273.066 46.978C273.382 47.152 273.624 47.3509 273.791 47.5746C273.961 47.7947 274.093 47.9759 274.185 48.1179H274.313V46.8182H275.527V55.2344C275.527 55.9375 275.367 56.5092 275.048 56.9496C274.732 57.3935 274.306 57.7184 273.769 57.9244C273.237 58.1339 272.644 58.2386 271.99 58.2386ZM271.948 53.7429C272.452 53.7429 272.878 53.6275 273.226 53.3967C273.574 53.1658 273.839 52.8338 274.02 52.4006C274.201 51.9673 274.291 51.4489 274.291 50.8452C274.291 50.2557 274.203 49.7354 274.025 49.2844C273.847 48.8335 273.585 48.4801 273.237 48.2244C272.889 47.9687 272.459 47.8409 271.948 47.8409C271.415 47.8409 270.971 47.9759 270.616 48.2457C270.264 48.5156 270 48.8778 269.822 49.3324C269.648 49.7869 269.561 50.2912 269.561 50.8452C269.561 51.4134 269.65 51.9158 269.828 52.3526C270.009 52.7859 270.275 53.1268 270.627 53.3754C270.982 53.6204 271.422 53.7429 271.948 53.7429ZM281.259 55.1705C280.47 55.1705 279.79 54.9964 279.219 54.6484C278.65 54.2969 278.212 53.8068 277.903 53.1783C277.597 52.5462 277.445 51.8111 277.445 50.973C277.445 50.1349 277.597 49.3963 277.903 48.7571C278.212 48.1143 278.642 47.6136 279.192 47.255C279.746 46.8928 280.392 46.7116 281.131 46.7116C281.557 46.7116 281.978 46.7827 282.393 46.9247C282.809 47.0668 283.187 47.2976 283.528 47.6172C283.869 47.9332 284.14 48.3523 284.343 48.8743C284.545 49.3963 284.646 50.0391 284.646 50.8026V51.3352H278.34V50.2486H283.368C283.368 49.7869 283.276 49.375 283.091 49.0128C282.91 48.6506 282.651 48.3647 282.313 48.1552C281.98 47.9457 281.585 47.8409 281.131 47.8409C280.63 47.8409 280.197 47.9652 279.831 48.2138C279.469 48.4588 279.19 48.7784 278.995 49.1726C278.8 49.5668 278.702 49.9893 278.702 50.4403V51.1648C278.702 51.7827 278.808 52.3065 279.021 52.7362C279.238 53.1623 279.538 53.4872 279.922 53.7109C280.305 53.9311 280.751 54.0412 281.259 54.0412C281.589 54.0412 281.887 53.995 282.154 53.9027C282.423 53.8068 282.656 53.6648 282.851 53.4766C283.047 53.2848 283.198 53.0469 283.304 52.7628L284.519 53.1037C284.391 53.5156 284.176 53.8778 283.874 54.1903C283.572 54.4993 283.199 54.7408 282.756 54.9148C282.312 55.0852 281.813 55.1705 281.259 55.1705ZM287.816 50.0781V55H286.559V46.8182H287.773V48.0966H287.88C288.072 47.6811 288.363 47.3473 288.753 47.0952C289.144 46.8395 289.648 46.7116 290.266 46.7116C290.82 46.7116 291.305 46.8253 291.72 47.0526C292.136 47.2763 292.459 47.6172 292.69 48.0753C292.921 48.5298 293.036 49.1051 293.036 49.8011V55H291.779V49.8864C291.779 49.2436 291.612 48.7429 291.278 48.3842C290.944 48.022 290.486 47.8409 289.904 47.8409C289.503 47.8409 289.144 47.9279 288.828 48.1019C288.515 48.2759 288.269 48.5298 288.088 48.8636C287.906 49.1974 287.816 49.6023 287.816 50.0781ZM298.891 46.8182V47.8835H294.651V46.8182H298.891ZM295.887 44.858H297.144V52.6562C297.144 53.0114 297.196 53.2777 297.299 53.4553C297.405 53.6293 297.54 53.7464 297.704 53.8068C297.87 53.8636 298.046 53.892 298.231 53.892C298.369 53.892 298.483 53.8849 298.572 53.8707C298.661 53.853 298.732 53.8388 298.785 53.8281L299.041 54.9574C298.955 54.9893 298.836 55.0213 298.684 55.0533C298.531 55.0888 298.337 55.1065 298.103 55.1065C297.748 55.1065 297.4 55.0302 297.059 54.8775C296.722 54.7248 296.441 54.4922 296.217 54.1797C295.997 53.8672 295.887 53.473 295.887 52.9972V44.858ZM300.782 55V46.8182H302.04V55H300.782ZM301.422 45.4545C301.177 45.4545 300.965 45.3711 300.788 45.2042C300.614 45.0373 300.527 44.8366 300.527 44.6023C300.527 44.3679 300.614 44.1673 300.788 44.0004C300.965 43.8335 301.177 43.75 301.422 43.75C301.667 43.75 301.876 43.8335 302.05 44.0004C302.228 44.1673 302.316 44.3679 302.316 44.6023C302.316 44.8366 302.228 45.0373 302.05 45.2042C301.876 45.3711 301.667 45.4545 301.422 45.4545ZM307.666 55.1705C306.899 55.1705 306.238 54.9893 305.684 54.6271C305.13 54.2649 304.704 53.766 304.406 53.1303C304.108 52.4947 303.958 51.7685 303.958 50.9517C303.958 50.1207 304.111 49.3874 304.417 48.7518C304.725 48.1126 305.155 47.6136 305.706 47.255C306.26 46.8928 306.906 46.7116 307.645 46.7116C308.22 46.7116 308.738 46.8182 309.2 47.0312C309.662 47.2443 310.04 47.5426 310.335 47.9261C310.629 48.3097 310.812 48.7571 310.883 49.2685H309.626C309.53 48.8956 309.317 48.5653 308.987 48.2777C308.66 47.9865 308.22 47.8409 307.666 47.8409C307.176 47.8409 306.746 47.9687 306.377 48.2244C306.011 48.4766 305.725 48.8335 305.519 49.2951C305.317 49.7532 305.216 50.2912 305.216 50.9091C305.216 51.5412 305.315 52.0916 305.514 52.5604C305.716 53.0291 306 53.3931 306.366 53.6523C306.735 53.9116 307.169 54.0412 307.666 54.0412C307.993 54.0412 308.289 53.9844 308.555 53.8707C308.822 53.7571 309.047 53.5938 309.232 53.3807C309.417 53.1676 309.548 52.9119 309.626 52.6136H310.883C310.812 53.0966 310.636 53.5316 310.356 53.9187C310.079 54.3022 309.711 54.6076 309.253 54.8349C308.799 55.0586 308.27 55.1705 307.666 55.1705ZM316.94 55V46.8182H318.154V48.0966H318.261C318.431 47.6598 318.706 47.3207 319.086 47.0792C319.466 46.8342 319.923 46.7116 320.455 46.7116C320.995 46.7116 321.444 46.8342 321.803 47.0792C322.165 47.3207 322.447 47.6598 322.65 48.0966H322.735C322.945 47.674 323.259 47.3384 323.678 47.0898C324.097 46.8377 324.599 46.7116 325.185 46.7116C325.917 46.7116 326.515 46.9407 326.98 47.3988C327.446 47.8533 327.678 48.5618 327.678 49.5241V55H326.421V49.5241C326.421 48.9205 326.256 48.489 325.926 48.2298C325.596 47.9705 325.207 47.8409 324.759 47.8409C324.184 47.8409 323.738 48.0149 323.422 48.3629C323.106 48.7074 322.948 49.1442 322.948 49.6733V55H321.67V49.3963C321.67 48.9311 321.519 48.5565 321.217 48.2724C320.915 47.9847 320.526 47.8409 320.05 47.8409C319.724 47.8409 319.418 47.9279 319.134 48.1019C318.854 48.2759 318.626 48.5174 318.452 48.8263C318.282 49.1317 318.197 49.4851 318.197 49.8864V55H316.94ZM333.407 55.1705C332.619 55.1705 331.939 54.9964 331.367 54.6484C330.799 54.2969 330.36 53.8068 330.051 53.1783C329.746 52.5462 329.593 51.8111 329.593 50.973C329.593 50.1349 329.746 49.3963 330.051 48.7571C330.36 48.1143 330.79 47.6136 331.34 47.255C331.894 46.8928 332.541 46.7116 333.279 46.7116C333.705 46.7116 334.126 46.7827 334.542 46.9247C334.957 47.0668 335.335 47.2976 335.676 47.6172C336.017 47.9332 336.289 48.3523 336.491 48.8743C336.694 49.3963 336.795 50.0391 336.795 50.8026V51.3352H330.488V50.2486H335.517C335.517 49.7869 335.424 49.375 335.24 49.0128C335.058 48.6506 334.799 48.3647 334.462 48.1552C334.128 47.9457 333.734 47.8409 333.279 47.8409C332.779 47.8409 332.345 47.9652 331.98 48.2138C331.617 48.4588 331.339 48.7784 331.143 49.1726C330.948 49.5668 330.85 49.9893 330.85 50.4403V51.1648C330.85 51.7827 330.957 52.3065 331.17 52.7362C331.387 53.1623 331.687 53.4872 332.07 53.7109C332.454 53.9311 332.899 54.0412 333.407 54.0412C333.737 54.0412 334.036 53.995 334.302 53.9027C334.572 53.8068 334.805 53.6648 335 53.4766C335.195 53.2848 335.346 53.0469 335.453 52.7628L336.667 53.1037C336.539 53.5156 336.324 53.8778 336.023 54.1903C335.721 54.4993 335.348 54.7408 334.904 54.9148C334.46 55.0852 333.961 55.1705 333.407 55.1705ZM338.707 55V46.8182H339.922V48.0966H340.028C340.199 47.6598 340.474 47.3207 340.854 47.0792C341.234 46.8342 341.69 46.7116 342.223 46.7116C342.763 46.7116 343.212 46.8342 343.57 47.0792C343.933 47.3207 344.215 47.6598 344.417 48.0966H344.503C344.712 47.674 345.026 47.3384 345.445 47.0898C345.865 46.8377 346.367 46.7116 346.953 46.7116C347.684 46.7116 348.283 46.9407 348.748 47.3988C349.213 47.8533 349.446 48.5618 349.446 49.5241V55H348.189V49.5241C348.189 48.9205 348.024 48.489 347.693 48.2298C347.363 47.9705 346.974 47.8409 346.527 47.8409C345.952 47.8409 345.506 48.0149 345.19 48.3629C344.874 48.7074 344.716 49.1442 344.716 49.6733V55H343.437V49.3963C343.437 48.9311 343.286 48.5565 342.985 48.2724C342.683 47.9847 342.294 47.8409 341.818 47.8409C341.491 47.8409 341.186 47.9279 340.902 48.1019C340.621 48.2759 340.394 48.5174 340.22 48.8263C340.05 49.1317 339.964 49.4851 339.964 49.8864V55H338.707ZM355.068 55.1705C354.33 55.1705 353.681 54.9947 353.124 54.6431C352.57 54.2915 352.137 53.7997 351.824 53.1676C351.515 52.5355 351.361 51.7969 351.361 50.9517C351.361 50.0994 351.515 49.3555 351.824 48.7198C352.137 48.0842 352.57 47.5906 353.124 47.239C353.681 46.8874 354.33 46.7116 355.068 46.7116C355.807 46.7116 356.453 46.8874 357.007 47.239C357.565 47.5906 357.998 48.0842 358.307 48.7198C358.619 49.3555 358.776 50.0994 358.776 50.9517C358.776 51.7969 358.619 52.5355 358.307 53.1676C357.998 53.7997 357.565 54.2915 357.007 54.6431C356.453 54.9947 355.807 55.1705 355.068 55.1705ZM355.068 54.0412C355.629 54.0412 356.091 53.8974 356.453 53.6097C356.815 53.3221 357.083 52.9439 357.257 52.4751C357.431 52.0064 357.518 51.4986 357.518 50.9517C357.518 50.4048 357.431 49.8952 357.257 49.4229C357.083 48.9506 356.815 48.5689 356.453 48.2777C356.091 47.9865 355.629 47.8409 355.068 47.8409C354.507 47.8409 354.045 47.9865 353.683 48.2777C353.321 48.5689 353.053 48.9506 352.879 49.4229C352.705 49.8952 352.618 50.4048 352.618 50.9517C352.618 51.4986 352.705 52.0064 352.879 52.4751C353.053 52.9439 353.321 53.3221 353.683 53.6097C354.045 53.8974 354.507 54.0412 355.068 54.0412ZM360.695 55V46.8182H361.909V48.054H361.994C362.143 47.6491 362.413 47.3207 362.804 47.0685C363.195 46.8164 363.635 46.6903 364.125 46.6903C364.217 46.6903 364.333 46.6921 364.471 46.6957C364.61 46.6992 364.714 46.7045 364.785 46.7116V47.9901C364.743 47.9794 364.645 47.9634 364.492 47.9421C364.343 47.9173 364.185 47.9048 364.018 47.9048C363.621 47.9048 363.266 47.9883 362.953 48.1552C362.644 48.3185 362.399 48.5458 362.218 48.837C362.04 49.1246 361.952 49.4531 361.952 49.8224V55H360.695ZM367.334 58.0682C367.121 58.0682 366.931 58.0504 366.764 58.0149C366.597 57.983 366.482 57.951 366.418 57.919L366.738 56.8111C367.043 56.8892 367.313 56.9176 367.547 56.8963C367.782 56.875 367.989 56.7702 368.171 56.582C368.355 56.3974 368.524 56.0973 368.677 55.6818L368.911 55.0426L365.885 46.8182H367.249L369.508 53.3381H369.593L371.851 46.8182H373.215L369.742 56.1932C369.586 56.6158 369.392 56.9656 369.161 57.2425C368.93 57.5231 368.662 57.7308 368.357 57.8658C368.055 58.0007 367.714 58.0682 367.334 58.0682Z" fill="#A9A9A9"/>
<g clip-path="url(#clip0_964_37)">
<path d="M706.724 36.7742L702.226 32.2761C702.101 32.1514 701.899 32.1515 701.774 32.2764C701.649 32.4013 701.649 32.6037 701.774 32.7284L705.728 36.6818L697.502 36.682C697.418 36.6819 697.337 36.7155 697.277 36.7754C697.153 36.8998 697.153 37.101 697.278 37.225C697.337 37.2848 697.418 37.3184 697.502 37.3184L705.728 37.3182L701.774 41.2722C701.649 41.397 701.649 41.5993 701.774 41.724L701.774 41.7241C701.899 41.8488 702.101 41.8488 702.226 41.724L706.724 37.226C706.849 37.1012 706.849 36.8989 706.724 36.7742Z" fill="black"/>
</g>
<path d="M39.5 27H26.5C26.4998 27 26.4996 27 26.4995 27C26.2234 27.0002 25.9998 27.224 26 27.5V32H23.5C23.4998 32 23.4996 32 23.4994 32C23.2234 32.0002 22.9998 32.224 23 32.5V37H20.5C20.4998 37 20.4996 37 20.4994 37C20.2234 37.0002 19.9998 37.224 20 37.5V46.5C20 46.5002 20 46.5004 20 46.5005C20.0002 46.7766 20.224 47.0002 20.5 47H29.5C29.5002 47 29.5004 47 29.5006 47C29.7766 46.9998 30.0002 46.776 30 46.5V44H34.5C34.5002 44 34.5004 44 34.5006 44C34.7766 43.9998 35.0002 43.776 35 43.5V41H39.5C39.5002 41 39.5004 41 39.5006 41C39.7766 40.9998 40.0002 40.776 40 40.5V27.5C40 27.4998 40 27.4996 40 27.4994C39.9998 27.2234 39.776 26.9998 39.5 27ZM29 43.5V43.5005V46H21V38H23.5H29V43.5ZM34 40.5V40.5005V43H30V37.5C30 37.4998 30 37.4996 30 37.4994C29.9998 37.2234 29.776 36.9998 29.5 37H24V33H26.5H34V40.5ZM39 40H35V32.5C35 32.4998 35 32.4996 35 32.4994C34.9998 32.2234 34.776 31.9998 34.5 32H27V28H39V40Z" fill="black"/>
<defs>
<clipPath id="clip0_964_37">
<rect width="14" height="14" fill="white" transform="translate(702 27.1006) rotate(45)"/>
</clipPath>
</defs>
</svg>
