<svg width="130" height="17" viewBox="0 0 130 17" fill="none" xmlns="http://www.w3.org/2000/svg">
<g clip-path="url(#clip0_469_2)">
<rect width="130" height="17" fill="white"/>
<path d="M79.68 16.16C78.7733 16.16 77.9667 15.9467 77.26 15.52C76.5533 15.0933 76 14.5 75.6 13.74C75.2 12.9667 75 12.08 75 11.08C75 10.0667 75.2 9.18 75.6 8.42C76 7.66 76.5533 7.06667 77.26 6.64C77.9667 6.21333 78.7733 6 79.68 6C80.4533 6 81.1467 6.16 81.76 6.48C82.3733 6.78667 82.88 7.22 83.28 7.78C83.6933 8.34 83.98 9.00667 84.14 9.78V12.38C83.98 13.1533 83.6933 13.82 83.28 14.38C82.88 14.94 82.3733 15.38 81.76 15.7C81.1467 16.0067 80.4533 16.16 79.68 16.16ZM79.68 15.6C80.48 15.6 81.1867 15.4133 81.8 15.04C82.4133 14.6533 82.8933 14.12 83.24 13.44C83.5867 12.76 83.76 11.9733 83.76 11.08C83.76 10.1733 83.5867 9.38667 83.24 8.72C82.8933 8.04 82.4133 7.51333 81.8 7.14C81.1867 6.75333 80.48 6.56 79.68 6.56C78.8933 6.56 78.1867 6.75333 77.56 7.14C76.9467 7.51333 76.4667 8.04 76.12 8.72C75.7733 9.38667 75.6 10.1733 75.6 11.08C75.6 11.9733 75.7733 12.76 76.12 13.44C76.4667 14.12 76.9467 14.6533 77.56 15.04C78.1867 15.4133 78.8933 15.6 79.68 15.6ZM83.72 16V12.7L84 11.08L83.72 9.46V1.6L84.26 1.52L84.32 1.68V16H83.72ZM91.9266 16.16C91.0199 16.16 90.2066 15.9467 89.4866 15.52C88.7799 15.0933 88.2266 14.5 87.8266 13.74C87.4266 12.9667 87.2266 12.08 87.2266 11.08C87.2266 10.0667 87.4266 9.18 87.8266 8.42C88.2266 7.66 88.7799 7.06667 89.4866 6.64C90.2066 6.21333 91.0199 6 91.9266 6C92.8466 6 93.6599 6.21333 94.3666 6.64C95.0732 7.06667 95.6266 7.66 96.0266 8.42C96.4266 9.18 96.6266 10.0667 96.6266 11.08C96.6266 12.08 96.4266 12.9667 96.0266 13.74C95.6266 14.5 95.0732 15.0933 94.3666 15.52C93.6599 15.9467 92.8466 16.16 91.9266 16.16ZM91.9466 15.6C92.7332 15.6 93.4332 15.4133 94.0466 15.04C94.6599 14.6533 95.1399 14.12 95.4866 13.44C95.8466 12.76 96.0266 11.9733 96.0266 11.08C96.0266 10.1733 95.8466 9.38667 95.4866 8.72C95.1399 8.04 94.6599 7.51333 94.0466 7.14C93.4332 6.75333 92.7266 6.56 91.9266 6.56C91.1399 6.56 90.4332 6.75333 89.8066 7.14C89.1932 7.51333 88.7066 8.04 88.3466 8.72C87.9999 9.38667 87.8266 10.1733 87.8266 11.08C87.8266 11.9733 87.9999 12.76 88.3466 13.44C88.7066 14.12 89.1932 14.6533 89.8066 15.04C90.4332 15.4133 91.1466 15.6 91.9466 15.6ZM103.253 16.16C102.333 16.16 101.526 15.9467 100.833 15.52C100.139 15.0933 99.5995 14.5 99.2128 13.74C98.8261 12.9667 98.6328 12.08 98.6328 11.08C98.6328 10.0667 98.8261 9.18 99.2128 8.42C99.5995 7.66 100.139 7.06667 100.833 6.64C101.526 6.21333 102.333 6 103.253 6C104.039 6 104.706 6.14 105.253 6.42C105.813 6.7 106.273 7.06667 106.633 7.52C106.993 7.97333 107.279 8.46667 107.493 9L107.153 9.14H106.933C106.639 8.44667 106.199 7.84667 105.613 7.34C105.026 6.82 104.239 6.56 103.253 6.56C102.413 6.56 101.693 6.76 101.093 7.16C100.493 7.56 100.033 8.1 99.7128 8.78C99.3928 9.46 99.2328 10.2267 99.2328 11.08C99.2328 11.92 99.3928 12.6867 99.7128 13.38C100.033 14.06 100.493 14.6 101.093 15C101.693 15.4 102.413 15.6 103.253 15.6C103.946 15.6 104.533 15.48 105.013 15.24C105.506 15 105.913 14.6867 106.233 14.3C106.566 13.9 106.826 13.4733 107.013 13.02H107.233L107.573 13.16C107.359 13.68 107.073 14.1733 106.713 14.64C106.353 15.0933 105.886 15.46 105.313 15.74C104.753 16.02 104.066 16.16 103.253 16.16ZM113.053 16.16C112.106 16.16 111.306 15.92 110.653 15.44C109.999 14.96 109.573 14.28 109.373 13.4L109.773 13.3L109.993 13.34C110.179 14.06 110.546 14.62 111.093 15.02C111.653 15.4067 112.333 15.6 113.133 15.6C113.986 15.6 114.673 15.3933 115.193 14.98C115.726 14.5533 115.993 14.0133 115.993 13.36C115.993 12.84 115.839 12.4267 115.533 12.12C115.226 11.8133 114.726 11.58 114.033 11.42L112.253 11.02C111.399 10.8333 110.766 10.5133 110.353 10.06C109.953 9.59333 109.753 9.07333 109.753 8.5C109.753 7.99333 109.886 7.55333 110.153 7.18C110.433 6.80667 110.806 6.52 111.273 6.32C111.753 6.10667 112.293 6 112.893 6C113.879 6 114.673 6.26667 115.273 6.8C115.873 7.32 116.253 7.99333 116.413 8.82L116.013 8.9L115.813 8.86C115.666 8.07333 115.306 7.49333 114.733 7.12C114.159 6.74667 113.519 6.56 112.813 6.56C112.119 6.56 111.533 6.73333 111.053 7.08C110.586 7.41333 110.353 7.86667 110.353 8.44C110.353 9.01333 110.553 9.46 110.953 9.78C111.353 10.0867 111.846 10.3067 112.433 10.44L114.213 10.84C114.973 11.0133 115.559 11.3133 115.973 11.74C116.386 12.1533 116.593 12.66 116.593 13.26C116.593 13.8467 116.446 14.36 116.153 14.8C115.859 15.2267 115.446 15.56 114.913 15.8C114.393 16.04 113.773 16.16 113.053 16.16Z" fill="#C7C7C7"/>
<path d="M4.31818 16.206C3.62216 16.206 3.00189 16.0852 2.45739 15.8438C1.91288 15.5975 1.48201 15.2353 1.16477 14.7571C0.852273 14.2741 0.696023 13.6728 0.696023 12.9531C0.696023 12.3471 0.807292 11.8381 1.02983 11.4261C1.25237 11.0142 1.5554 10.6828 1.93892 10.4318C2.32244 10.1809 2.75805 9.99148 3.24574 9.86364C3.73816 9.7358 4.25426 9.64583 4.79403 9.59375C5.4285 9.52746 5.93987 9.46591 6.32812 9.40909C6.71638 9.34754 6.99811 9.25758 7.1733 9.1392C7.34849 9.02083 7.43608 8.84564 7.43608 8.61364V8.57102C7.43608 8.12121 7.29403 7.7732 7.00994 7.52699C6.73059 7.28078 6.33286 7.15767 5.81676 7.15767C5.27225 7.15767 4.83902 7.27841 4.51705 7.51989C4.19508 7.75663 3.98201 8.05492 3.87784 8.41477L1.07955 8.1875C1.22159 7.52462 1.50095 6.9517 1.91761 6.46875C2.33428 5.98106 2.87169 5.60701 3.52983 5.34659C4.19271 5.08144 4.95975 4.94886 5.83097 4.94886C6.43703 4.94886 7.01705 5.01989 7.57102 5.16193C8.12974 5.30398 8.62453 5.52415 9.0554 5.82244C9.491 6.12074 9.83428 6.50426 10.0852 6.97301C10.3362 7.43703 10.4616 7.99337 10.4616 8.64205V16H7.59233V14.4872H7.5071C7.33191 14.8281 7.09754 15.1288 6.80398 15.3892C6.51042 15.6449 6.15767 15.8461 5.74574 15.9929C5.33381 16.1349 4.85795 16.206 4.31818 16.206ZM5.18466 14.1179C5.62974 14.1179 6.02273 14.0303 6.36364 13.8551C6.70455 13.6752 6.97206 13.4337 7.16619 13.1307C7.36032 12.8277 7.45739 12.4844 7.45739 12.1009V10.9432C7.36269 11.0047 7.23248 11.0616 7.06676 11.1136C6.90578 11.161 6.72349 11.206 6.51989 11.2486C6.31629 11.2865 6.11269 11.322 5.90909 11.3551C5.70549 11.3835 5.52083 11.4096 5.35511 11.4332C5 11.4853 4.68987 11.5682 4.42472 11.6818C4.15956 11.7955 3.9536 11.9493 3.80682 12.1435C3.66004 12.3329 3.58665 12.5696 3.58665 12.8537C3.58665 13.2656 3.7358 13.5805 4.03409 13.7983C4.33712 14.0114 4.72064 14.1179 5.18466 14.1179ZM12.8089 16V5.09091H15.6925V7.01562H15.8203C16.0476 6.37642 16.4264 5.87216 16.9567 5.50284C17.487 5.13352 18.1214 4.94886 18.8601 4.94886C19.6082 4.94886 20.245 5.13589 20.7706 5.50994C21.2962 5.87926 21.6465 6.38116 21.8217 7.01562H21.9354C22.1579 6.39062 22.5604 5.8911 23.1428 5.51705C23.7299 5.13826 24.4235 4.94886 25.2237 4.94886C26.2417 4.94886 27.0679 5.2732 27.7024 5.92188C28.3416 6.56581 28.6612 7.47964 28.6612 8.66335V16H25.6428V9.25994C25.6428 8.65388 25.4818 8.19934 25.1598 7.89631C24.8378 7.59328 24.4354 7.44176 23.9524 7.44176C23.4032 7.44176 22.9747 7.61695 22.6669 7.96733C22.3591 8.31297 22.2053 8.76989 22.2053 9.33807V16H19.272V9.19602C19.272 8.66098 19.1181 8.23485 18.8104 7.91761C18.5073 7.60038 18.1072 7.44176 17.6101 7.44176C17.2739 7.44176 16.9709 7.52699 16.701 7.69744C16.4358 7.86316 16.2251 8.09754 16.0689 8.40057C15.9126 8.69886 15.8345 9.04924 15.8345 9.4517V16H12.8089ZM36.0227 16.2131C34.9006 16.2131 33.9347 15.9858 33.125 15.5312C32.3201 15.072 31.6998 14.4233 31.2642 13.5852C30.8286 12.7424 30.6108 11.7457 30.6108 10.5952C30.6108 9.47301 30.8286 8.48816 31.2642 7.64062C31.6998 6.79309 32.313 6.13258 33.1037 5.65909C33.8991 5.18561 34.8319 4.94886 35.902 4.94886C36.6217 4.94886 37.2917 5.06487 37.9119 5.29688C38.5369 5.52415 39.0814 5.86742 39.5455 6.3267C40.0142 6.78598 40.3788 7.36364 40.6392 8.05966C40.8996 8.75095 41.0298 9.56061 41.0298 10.4886V11.3196H31.8182V9.4446H38.1818C38.1818 9.009 38.0871 8.62311 37.8977 8.28693C37.7083 7.95076 37.4455 7.68797 37.1094 7.49858C36.7779 7.30445 36.392 7.20739 35.9517 7.20739C35.4924 7.20739 35.0852 7.31392 34.7301 7.52699C34.3797 7.73532 34.1051 8.01705 33.9062 8.37216C33.7074 8.72254 33.6056 9.11316 33.6009 9.54403V11.3267C33.6009 11.8665 33.7003 12.3329 33.8991 12.7259C34.1027 13.1188 34.3892 13.4219 34.7585 13.6349C35.1278 13.848 35.5658 13.9545 36.0724 13.9545C36.4086 13.9545 36.7164 13.9072 36.9957 13.8125C37.2751 13.7178 37.5142 13.5758 37.7131 13.3864C37.9119 13.197 38.0634 12.965 38.1676 12.6903L40.9659 12.875C40.8239 13.5473 40.5327 14.1345 40.0923 14.6364C39.6567 15.1335 39.0933 15.5218 38.402 15.8011C37.7154 16.0758 36.9223 16.2131 36.0227 16.2131ZM46.0298 1.45455V16H43.0043V1.45455H46.0298ZM48.4535 16V5.09091H51.479V16H48.4535ZM49.9734 3.68466C49.5236 3.68466 49.1377 3.53551 48.8157 3.23722C48.4985 2.93419 48.3398 2.57197 48.3398 2.15057C48.3398 1.7339 48.4985 1.37642 48.8157 1.07812C49.1377 0.775094 49.5236 0.623579 49.9734 0.623579C50.4232 0.623579 50.8067 0.775094 51.1239 1.07812C51.4459 1.37642 51.6069 1.7339 51.6069 2.15057C51.6069 2.57197 51.4459 2.93419 51.1239 3.23722C50.8067 3.53551 50.4232 3.68466 49.9734 3.68466ZM58.8743 16.2131C57.7521 16.2131 56.7862 15.9858 55.9766 15.5312C55.1716 15.072 54.5514 14.4233 54.1158 13.5852C53.6802 12.7424 53.4624 11.7457 53.4624 10.5952C53.4624 9.47301 53.6802 8.48816 54.1158 7.64062C54.5514 6.79309 55.1645 6.13258 55.9553 5.65909C56.7507 5.18561 57.6835 4.94886 58.7536 4.94886C59.4732 4.94886 60.1432 5.06487 60.7635 5.29688C61.3885 5.52415 61.933 5.86742 62.397 6.3267C62.8658 6.78598 63.2304 7.36364 63.4908 8.05966C63.7512 8.75095 63.8814 9.56061 63.8814 10.4886V11.3196H54.6697V9.4446H61.0334C61.0334 9.009 60.9387 8.62311 60.7493 8.28693C60.5599 7.95076 60.2971 7.68797 59.9609 7.49858C59.6295 7.30445 59.2436 7.20739 58.8033 7.20739C58.344 7.20739 57.9368 7.31392 57.5817 7.52699C57.2313 7.73532 56.9567 8.01705 56.7578 8.37216C56.5589 8.72254 56.4571 9.11316 56.4524 9.54403V11.3267C56.4524 11.8665 56.5518 12.3329 56.7507 12.7259C56.9543 13.1188 57.2408 13.4219 57.6101 13.6349C57.9794 13.848 58.4174 13.9545 58.924 13.9545C59.2602 13.9545 59.5679 13.9072 59.8473 13.8125C60.1267 13.7178 60.3658 13.5758 60.5646 13.3864C60.7635 13.197 60.915 12.965 61.0192 12.6903L63.8175 12.875C63.6754 13.5473 63.3842 14.1345 62.9439 14.6364C62.5083 15.1335 61.9448 15.5218 61.2536 15.8011C60.567 16.0758 59.7739 16.2131 58.8743 16.2131ZM67.7024 16.206C67.1911 16.206 66.7531 16.026 66.3885 15.6662C66.0286 15.3063 65.8511 14.8707 65.8558 14.3594C65.8511 13.8575 66.0286 13.429 66.3885 13.0739C66.7531 12.714 67.1911 12.5341 67.7024 12.5341C68.1854 12.5341 68.6115 12.714 68.9808 13.0739C69.3549 13.429 69.5443 13.8575 69.549 14.3594C69.5443 14.7003 69.4543 15.0104 69.2791 15.2898C69.1087 15.5691 68.8838 15.7917 68.6044 15.9574C68.3298 16.1231 68.0291 16.206 67.7024 16.206Z" fill="#0E0E0E"/>
</g>
<defs>
<clipPath id="clip0_469_2">
<rect width="130" height="17" fill="white"/>
</clipPath>
</defs>
</svg>
