<svg width="360" height="138" viewBox="0 0 360 138" fill="none" xmlns="http://www.w3.org/2000/svg">
<rect width="360" height="138" rx="10" fill="white"/>
<path d="M37.44 65V51H39.12V65H37.44ZM28.5 65V51H30.18V65H28.5ZM29.86 58.56V57.18H37.86V58.56H29.86ZM46.5133 65.24C45.5799 65.24 44.7399 65.0267 43.9933 64.6C43.2466 64.16 42.6599 63.5467 42.2333 62.76C41.8066 61.96 41.5933 61.0333 41.5933 59.98C41.5933 58.9 41.8066 57.9667 42.2333 57.18C42.6733 56.38 43.2666 55.7667 44.0133 55.34C44.7733 54.9 45.6199 54.68 46.5533 54.68C47.5133 54.68 48.3599 54.9 49.0933 55.34C49.8399 55.7667 50.4266 56.38 50.8533 57.18C51.2933 57.9667 51.5133 58.8933 51.5133 59.96C51.5133 61.0267 51.2933 61.96 50.8533 62.76C50.4133 63.5467 49.8199 64.16 49.0733 64.6C48.3266 65.0267 47.4733 65.24 46.5133 65.24ZM46.5333 63.8C47.1066 63.8 47.6399 63.66 48.1333 63.38C48.6266 63.0867 49.0266 62.6533 49.3333 62.08C49.6399 61.5067 49.7933 60.8 49.7933 59.96C49.7933 59.1067 49.6399 58.4 49.3333 57.84C49.0399 57.2667 48.6466 56.84 48.1533 56.56C47.6733 56.2667 47.1399 56.12 46.5533 56.12C45.9933 56.12 45.4599 56.2667 44.9533 56.56C44.4599 56.84 44.0599 57.2667 43.7533 57.84C43.4599 58.4 43.3133 59.1067 43.3133 59.96C43.3133 60.8 43.4599 61.5067 43.7533 62.08C44.0599 62.6533 44.4533 63.0867 44.9333 63.38C45.4266 63.66 45.9599 63.8 46.5333 63.8ZM55.5377 65L52.5777 54.92H54.2577L56.5577 63.42H56.2577L58.7577 54.92H60.6577L63.1977 63.4L62.8777 63.42L65.1577 54.92H66.8577L63.9177 65H62.1977L59.5577 56.12H59.8977L57.2577 65H55.5377ZM77.3441 65.24C76.5307 65.24 75.8507 65.1 75.3041 64.82C74.7574 64.5267 74.3507 64.1467 74.0841 63.68C73.8174 63.2 73.6841 62.68 73.6841 62.12C73.6841 61.44 73.8574 60.8667 74.2041 60.4C74.5641 59.92 75.0641 59.56 75.7041 59.32C76.3574 59.0667 77.1241 58.94 78.0041 58.94H80.6641C80.6641 58.3133 80.5641 57.7933 80.3641 57.38C80.1774 56.9533 79.8974 56.6333 79.5241 56.42C79.1641 56.2067 78.7107 56.1 78.1641 56.1C77.5241 56.1 76.9707 56.26 76.5041 56.58C76.0374 56.9 75.7507 57.3733 75.6441 58H73.9241C74.0041 57.28 74.2441 56.68 74.6441 56.2C75.0574 55.7067 75.5774 55.3333 76.2041 55.08C76.8307 54.8133 77.4841 54.68 78.1641 54.68C79.0974 54.68 79.8707 54.8533 80.4841 55.2C81.1107 55.5333 81.5774 56.0067 81.8841 56.62C82.1907 57.22 82.3441 57.9333 82.3441 58.76V65H80.8441L80.7441 63.22C80.6107 63.5 80.4374 63.7667 80.2241 64.02C80.0241 64.26 79.7841 64.4733 79.5041 64.66C79.2241 64.8333 78.9041 64.9733 78.5441 65.08C78.1974 65.1867 77.7974 65.24 77.3441 65.24ZM77.6041 63.82C78.0707 63.82 78.4907 63.7267 78.8641 63.54C79.2507 63.34 79.5774 63.0733 79.8441 62.74C80.1107 62.3933 80.3107 62.0133 80.4441 61.6C80.5907 61.1867 80.6641 60.7533 80.6641 60.3V60.24H78.1441C77.4907 60.24 76.9641 60.32 76.5641 60.48C76.1641 60.6267 75.8774 60.84 75.7041 61.12C75.5307 61.3867 75.4441 61.6933 75.4441 62.04C75.4441 62.4 75.5241 62.7133 75.6841 62.98C75.8574 63.2467 76.1041 63.4533 76.4241 63.6C76.7574 63.7467 77.1507 63.82 77.6041 63.82ZM84.943 65V54.92H86.463L86.563 56.36C86.883 55.84 87.3096 55.4333 87.843 55.14C88.3896 54.8333 88.983 54.68 89.623 54.68C90.143 54.68 90.6096 54.7533 91.023 54.9C91.4496 55.0333 91.823 55.2467 92.143 55.54C92.463 55.82 92.723 56.18 92.923 56.62C93.2696 56.0067 93.743 55.5333 94.343 55.2C94.9563 54.8533 95.6096 54.68 96.303 54.68C97.0763 54.68 97.7496 54.84 98.323 55.16C98.9096 55.4667 99.3563 55.94 99.663 56.58C99.983 57.2067 100.143 58.0067 100.143 58.98V65H98.483V59.16C98.483 58.1467 98.2763 57.3867 97.863 56.88C97.4496 56.3733 96.8696 56.12 96.123 56.12C95.603 56.12 95.1363 56.26 94.723 56.54C94.3096 56.8067 93.983 57.2 93.743 57.72C93.503 58.24 93.383 58.88 93.383 59.64V65H91.703V59.16C91.703 58.1467 91.4963 57.3867 91.083 56.88C90.6696 56.3733 90.083 56.12 89.323 56.12C88.8163 56.12 88.3563 56.26 87.943 56.54C87.543 56.8067 87.223 57.2 86.983 57.72C86.743 58.24 86.623 58.88 86.623 59.64V65H84.943ZM107.175 65.24C106.229 65.24 105.389 65.02 104.655 64.58C103.935 64.14 103.369 63.5267 102.955 62.74C102.542 61.94 102.335 61.0133 102.335 59.96C102.335 58.8933 102.535 57.9667 102.935 57.18C103.349 56.3933 103.922 55.78 104.655 55.34C105.402 54.9 106.255 54.68 107.215 54.68C108.202 54.68 109.035 54.9 109.715 55.34C110.409 55.78 110.935 56.36 111.295 57.08C111.669 57.7867 111.855 58.5667 111.855 59.42C111.855 59.5533 111.855 59.6933 111.855 59.84C111.855 59.9867 111.849 60.1533 111.835 60.34H103.595V59.04H110.215C110.175 58.12 109.869 57.4 109.295 56.88C108.735 56.36 108.029 56.1 107.175 56.1C106.602 56.1 106.069 56.2333 105.575 56.5C105.095 56.7533 104.709 57.1333 104.415 57.64C104.122 58.1333 103.975 58.7533 103.975 59.5V60.06C103.975 60.8867 104.122 61.58 104.415 62.14C104.722 62.7 105.115 63.12 105.595 63.4C106.089 63.68 106.615 63.82 107.175 63.82C107.882 63.82 108.462 63.6667 108.915 63.36C109.382 63.04 109.715 62.6133 109.915 62.08H111.575C111.415 62.68 111.135 63.22 110.735 63.7C110.335 64.18 109.835 64.56 109.235 64.84C108.649 65.1067 107.962 65.24 107.175 65.24ZM114.123 65V50.6H115.803V65H114.123ZM118.736 65V54.92H120.416V65H118.736ZM119.576 52.78C119.242 52.78 118.962 52.6733 118.736 52.46C118.522 52.2333 118.416 51.9533 118.416 51.62C118.416 51.2867 118.522 51.02 118.736 50.82C118.962 50.6067 119.242 50.5 119.576 50.5C119.896 50.5 120.169 50.6067 120.396 50.82C120.622 51.02 120.736 51.2867 120.736 51.62C120.736 51.9533 120.622 52.2333 120.396 52.46C120.169 52.6733 119.896 52.78 119.576 52.78ZM127.8 65.24C126.854 65.24 126.014 65.02 125.28 64.58C124.56 64.14 123.994 63.5267 123.58 62.74C123.167 61.94 122.96 61.0133 122.96 59.96C122.96 58.8933 123.16 57.9667 123.56 57.18C123.974 56.3933 124.547 55.78 125.28 55.34C126.027 54.9 126.88 54.68 127.84 54.68C128.827 54.68 129.66 54.9 130.34 55.34C131.034 55.78 131.56 56.36 131.92 57.08C132.294 57.7867 132.48 58.5667 132.48 59.42C132.48 59.5533 132.48 59.6933 132.48 59.84C132.48 59.9867 132.474 60.1533 132.46 60.34H124.22V59.04H130.84C130.8 58.12 130.494 57.4 129.92 56.88C129.36 56.36 128.654 56.1 127.8 56.1C127.227 56.1 126.694 56.2333 126.2 56.5C125.72 56.7533 125.334 57.1333 125.04 57.64C124.747 58.1333 124.6 58.7533 124.6 59.5V60.06C124.6 60.8867 124.747 61.58 125.04 62.14C125.347 62.7 125.74 63.12 126.22 63.4C126.714 63.68 127.24 63.82 127.8 63.82C128.507 63.82 129.087 63.6667 129.54 63.36C130.007 63.04 130.34 62.6133 130.54 62.08H132.2C132.04 62.68 131.76 63.22 131.36 63.7C130.96 64.18 130.46 64.56 129.86 64.84C129.274 65.1067 128.587 65.24 127.8 65.24ZM142.1 65L139.14 54.92H140.82L143.12 63.42H142.82L145.32 54.92H147.22L149.76 63.4L149.44 63.42L151.72 54.92H153.42L150.48 65H148.76L146.12 56.12H146.46L143.82 65H142.1ZM159.443 65.24C158.51 65.24 157.67 65.0267 156.923 64.6C156.176 64.16 155.59 63.5467 155.163 62.76C154.736 61.96 154.523 61.0333 154.523 59.98C154.523 58.9 154.736 57.9667 155.163 57.18C155.603 56.38 156.196 55.7667 156.943 55.34C157.703 54.9 158.55 54.68 159.483 54.68C160.443 54.68 161.29 54.9 162.023 55.34C162.77 55.7667 163.356 56.38 163.783 57.18C164.223 57.9667 164.443 58.8933 164.443 59.96C164.443 61.0267 164.223 61.96 163.783 62.76C163.343 63.5467 162.75 64.16 162.003 64.6C161.256 65.0267 160.403 65.24 159.443 65.24ZM159.463 63.8C160.036 63.8 160.57 63.66 161.063 63.38C161.556 63.0867 161.956 62.6533 162.263 62.08C162.57 61.5067 162.723 60.8 162.723 59.96C162.723 59.1067 162.57 58.4 162.263 57.84C161.97 57.2667 161.576 56.84 161.083 56.56C160.603 56.2667 160.07 56.12 159.483 56.12C158.923 56.12 158.39 56.2667 157.883 56.56C157.39 56.84 156.99 57.2667 156.683 57.84C156.39 58.4 156.243 59.1067 156.243 59.96C156.243 60.8 156.39 61.5067 156.683 62.08C156.99 62.6533 157.383 63.0867 157.863 63.38C158.356 63.66 158.89 63.8 159.463 63.8ZM166.798 65V54.92H168.318L168.438 56.84C168.665 56.3867 168.952 56 169.298 55.68C169.658 55.36 170.085 55.1133 170.578 54.94C171.085 54.7667 171.658 54.68 172.298 54.68V56.44H171.678C171.252 56.44 170.845 56.5 170.458 56.62C170.072 56.7267 169.725 56.9067 169.418 57.16C169.125 57.4133 168.892 57.76 168.718 58.2C168.558 58.6267 168.478 59.16 168.478 59.8V65H166.798ZM180.401 65L175.601 59.48L179.981 54.92H182.041L177.021 60.08L177.041 58.88L182.541 65H180.401ZM174.201 65V50.6H175.881V65H174.201ZM187.493 65.24C186.653 65.24 185.92 65.1 185.293 64.82C184.68 64.54 184.186 64.1533 183.813 63.66C183.453 63.1533 183.233 62.56 183.153 61.88H184.873C184.94 62.2267 185.08 62.5467 185.293 62.84C185.506 63.1333 185.793 63.3733 186.153 63.56C186.526 63.7333 186.98 63.82 187.513 63.82C187.98 63.82 188.366 63.7533 188.673 63.62C188.98 63.4733 189.206 63.28 189.353 63.04C189.513 62.8 189.593 62.54 189.593 62.26C189.593 61.8467 189.493 61.5333 189.293 61.32C189.106 61.1067 188.826 60.94 188.453 60.82C188.08 60.6867 187.626 60.5733 187.093 60.48C186.653 60.4 186.22 60.2933 185.793 60.16C185.366 60.0267 184.986 59.8533 184.653 59.64C184.32 59.4133 184.053 59.14 183.853 58.82C183.666 58.5 183.573 58.1067 183.573 57.64C183.573 57.0667 183.72 56.56 184.013 56.12C184.306 55.6667 184.726 55.3133 185.273 55.06C185.833 54.8067 186.48 54.68 187.213 54.68C188.293 54.68 189.166 54.94 189.833 55.46C190.5 55.98 190.893 56.7333 191.013 57.72H189.353C189.286 57.2133 189.066 56.82 188.693 56.54C188.333 56.2467 187.833 56.1 187.193 56.1C186.566 56.1 186.086 56.2267 185.753 56.48C185.433 56.7333 185.273 57.0667 185.273 57.48C185.273 57.7467 185.36 57.9867 185.533 58.2C185.72 58.4 185.986 58.5733 186.333 58.72C186.693 58.8667 187.133 58.9867 187.653 59.08C188.32 59.2 188.926 59.36 189.473 59.56C190.02 59.76 190.46 60.06 190.793 60.46C191.14 60.8467 191.313 61.4 191.313 62.12C191.313 62.7467 191.153 63.2933 190.833 63.76C190.526 64.2267 190.086 64.5933 189.513 64.86C188.94 65.1133 188.266 65.24 187.493 65.24Z" fill="black"/>
<path d="M28.7685 78.0909L32.0071 87.2741H32.1349L35.3736 78.0909H36.7585L32.7528 89H31.3892L27.3835 78.0909H28.7685ZM38.2873 89V80.8182H39.5444V89H38.2873ZM38.9265 79.4545C38.6815 79.4545 38.4702 79.3711 38.2926 79.2042C38.1186 79.0373 38.0316 78.8366 38.0316 78.6023C38.0316 78.3679 38.1186 78.1673 38.2926 78.0004C38.4702 77.8335 38.6815 77.75 38.9265 77.75C39.1715 77.75 39.381 77.8335 39.555 78.0004C39.7326 78.1673 39.8214 78.3679 39.8214 78.6023C39.8214 78.8366 39.7326 79.0373 39.555 79.2042C39.381 79.3711 39.1715 79.4545 38.9265 79.4545ZM47.6423 82.6506L46.5131 82.9702C46.442 82.782 46.3373 82.5991 46.1988 82.4215C46.0638 82.2404 45.8792 82.0913 45.6448 81.9741C45.4104 81.8569 45.1104 81.7983 44.7446 81.7983C44.2439 81.7983 43.8266 81.9137 43.4928 82.1445C43.1626 82.3718 42.9974 82.6612 42.9974 83.0128C42.9974 83.3253 43.1111 83.5721 43.3383 83.7532C43.5656 83.9343 43.9207 84.0852 44.4037 84.206L45.6182 84.5043C46.3497 84.6818 46.8948 84.9535 47.2535 85.3192C47.6121 85.6815 47.7915 86.1484 47.7915 86.7202C47.7915 87.1889 47.6565 87.608 47.3866 87.9773C47.1203 88.3466 46.7474 88.6378 46.268 88.8509C45.7886 89.0639 45.2311 89.1705 44.5954 89.1705C43.7609 89.1705 43.0702 88.9893 42.5233 88.6271C41.9765 88.2649 41.6302 87.7358 41.4846 87.0398L42.6778 86.7415C42.7915 87.1818 43.0063 87.5121 43.3224 87.7322C43.642 87.9524 44.0592 88.0625 44.5741 88.0625C45.1601 88.0625 45.6253 87.9382 45.9697 87.6896C46.3177 87.4375 46.4917 87.1357 46.4917 86.7841C46.4917 86.5 46.3923 86.2621 46.1934 86.0703C45.9946 85.875 45.6892 85.7294 45.2773 85.6335L43.9136 85.3139C43.1643 85.1364 42.6139 84.8612 42.2623 84.4883C41.9143 84.1119 41.7403 83.6413 41.7403 83.0767C41.7403 82.6151 41.8699 82.2067 42.1292 81.8516C42.392 81.4964 42.7488 81.2177 43.1998 81.0153C43.6544 80.8129 44.1693 80.7116 44.7446 80.7116C45.5542 80.7116 46.1899 80.8892 46.6515 81.2443C47.1167 81.5994 47.447 82.0682 47.6423 82.6506ZM49.6838 89V80.8182H50.9409V89H49.6838ZM50.323 79.4545C50.0779 79.4545 49.8667 79.3711 49.6891 79.2042C49.5151 79.0373 49.4281 78.8366 49.4281 78.6023C49.4281 78.3679 49.5151 78.1673 49.6891 78.0004C49.8667 77.8335 50.0779 77.75 50.323 77.75C50.568 77.75 50.7775 77.8335 50.9515 78.0004C51.1291 78.1673 51.2179 78.3679 51.2179 78.6023C51.2179 78.8366 51.1291 79.0373 50.9515 79.2042C50.7775 79.3711 50.568 79.4545 50.323 79.4545ZM56.5672 89.1705C55.8286 89.1705 55.1805 88.9947 54.623 88.6431C54.069 88.2915 53.6357 87.7997 53.3232 87.1676C53.0143 86.5355 52.8598 85.7969 52.8598 84.9517C52.8598 84.0994 53.0143 83.3555 53.3232 82.7198C53.6357 82.0842 54.069 81.5906 54.623 81.239C55.1805 80.8874 55.8286 80.7116 56.5672 80.7116C57.3058 80.7116 57.9521 80.8874 58.5061 81.239C59.0637 81.5906 59.4969 82.0842 59.8058 82.7198C60.1183 83.3555 60.2746 84.0994 60.2746 84.9517C60.2746 85.7969 60.1183 86.5355 59.8058 87.1676C59.4969 87.7997 59.0637 88.2915 58.5061 88.6431C57.9521 88.9947 57.3058 89.1705 56.5672 89.1705ZM56.5672 88.0412C57.1283 88.0412 57.5899 87.8974 57.9521 87.6097C58.3144 87.3221 58.5825 86.9439 58.7565 86.4751C58.9305 86.0064 59.0175 85.4986 59.0175 84.9517C59.0175 84.4048 58.9305 83.8952 58.7565 83.4229C58.5825 82.9506 58.3144 82.5689 57.9521 82.2777C57.5899 81.9865 57.1283 81.8409 56.5672 81.8409C56.0061 81.8409 55.5445 81.9865 55.1823 82.2777C54.82 82.5689 54.5519 82.9506 54.3779 83.4229C54.2039 83.8952 54.1169 84.4048 54.1169 84.9517C54.1169 85.4986 54.2039 86.0064 54.3779 86.4751C54.5519 86.9439 54.82 87.3221 55.1823 87.6097C55.5445 87.8974 56.0061 88.0412 56.5672 88.0412ZM63.4506 84.0781V89H62.1935V80.8182H63.408V82.0966H63.5146C63.7063 81.6811 63.9975 81.3473 64.3881 81.0952C64.7788 80.8395 65.283 80.7116 65.9009 80.7116C66.4549 80.7116 66.9396 80.8253 67.3551 81.0526C67.7706 81.2763 68.0938 81.6172 68.3246 82.0753C68.5554 82.5298 68.6708 83.1051 68.6708 83.8011V89H67.4137V83.8864C67.4137 83.2436 67.2468 82.7429 66.913 82.3842C66.5792 82.022 66.1211 81.8409 65.5387 81.8409C65.1374 81.8409 64.7788 81.9279 64.4627 82.1019C64.1502 82.2759 63.9034 82.5298 63.7223 82.8636C63.5412 83.1974 63.4506 83.6023 63.4506 84.0781ZM72.843 87.5085L72.7577 88.0838C72.6974 88.4886 72.605 88.9219 72.4807 89.3835C72.36 89.8452 72.2339 90.2802 72.1025 90.6886C71.9711 91.0969 71.8628 91.4219 71.7776 91.6634H70.8188C70.865 91.4361 70.9253 91.136 70.9999 90.7631C71.0745 90.3903 71.1491 89.973 71.2236 89.5114C71.3018 89.0533 71.3657 88.5845 71.4154 88.1051L71.4793 87.5085H72.843ZM87.0186 81.5C86.9015 81.1413 86.747 80.82 86.5552 80.5359C86.367 80.2482 86.1415 80.0032 85.8787 79.8008C85.6195 79.5984 85.3248 79.4439 84.9945 79.3374C84.6642 79.2308 84.302 79.1776 83.9078 79.1776C83.2615 79.1776 82.6738 79.3445 82.1447 79.6783C81.6156 80.0121 81.1948 80.5039 80.8823 81.1538C80.5698 81.8036 80.4135 82.6009 80.4135 83.5455C80.4135 84.4901 80.5716 85.2873 80.8876 85.9371C81.2037 86.587 81.6316 87.0788 82.1713 87.4126C82.7111 87.7464 83.3184 87.9134 83.9931 87.9134C84.6181 87.9134 85.1685 87.7802 85.6444 87.5138C86.1238 87.244 86.4966 86.864 86.763 86.3739C87.0328 85.8803 87.1678 85.2997 87.1678 84.6321L87.5726 84.7173H84.2914V83.5455H88.4462V84.7173C88.4462 85.6158 88.2544 86.397 87.8709 87.0611C87.4909 87.7251 86.9654 88.2401 86.2942 88.6058C85.6266 88.968 84.8596 89.1491 83.9931 89.1491C83.0272 89.1491 82.1784 88.9219 81.4469 88.4673C80.7189 88.0128 80.1507 87.3665 79.7424 86.5284C79.3375 85.6903 79.1351 84.696 79.1351 83.5455C79.1351 82.6825 79.2505 81.9066 79.4814 81.2177C79.7157 80.5252 80.046 79.9357 80.4721 79.4492C80.8983 78.9627 81.4025 78.5898 81.9849 78.3306C82.5673 78.0714 83.2083 77.9418 83.9078 77.9418C84.4831 77.9418 85.0194 78.0288 85.5165 78.2028C86.0172 78.3732 86.4629 78.6165 86.8535 78.9325C87.2477 79.245 87.5762 79.6197 87.839 80.0565C88.1017 80.4897 88.2828 80.9709 88.3823 81.5H87.0186ZM91.7954 78.0909V89H90.5383V78.0909H91.7954ZM97.4217 89.1705C96.6831 89.1705 96.035 88.9947 95.4775 88.6431C94.9235 88.2915 94.4902 87.7997 94.1777 87.1676C93.8688 86.5355 93.7143 85.7969 93.7143 84.9517C93.7143 84.0994 93.8688 83.3555 94.1777 82.7198C94.4902 82.0842 94.9235 81.5906 95.4775 81.239C96.035 80.8874 96.6831 80.7116 97.4217 80.7116C98.1603 80.7116 98.8066 80.8874 99.3606 81.239C99.9181 81.5906 100.351 82.0842 100.66 82.7198C100.973 83.3555 101.129 84.0994 101.129 84.9517C101.129 85.7969 100.973 86.5355 100.66 87.1676C100.351 87.7997 99.9181 88.2915 99.3606 88.6431C98.8066 88.9947 98.1603 89.1705 97.4217 89.1705ZM97.4217 88.0412C97.9828 88.0412 98.4444 87.8974 98.8066 87.6097C99.1689 87.3221 99.437 86.9439 99.611 86.4751C99.785 86.0064 99.872 85.4986 99.872 84.9517C99.872 84.4048 99.785 83.8952 99.611 83.4229C99.437 82.9506 99.1689 82.5689 98.8066 82.2777C98.4444 81.9865 97.9828 81.8409 97.4217 81.8409C96.8606 81.8409 96.399 81.9865 96.0368 82.2777C95.6745 82.5689 95.4064 82.9506 95.2324 83.4229C95.0584 83.8952 94.9714 84.4048 94.9714 84.9517C94.9714 85.4986 95.0584 86.0064 95.2324 86.4751C95.4064 86.9439 95.6745 87.3221 96.0368 87.6097C96.399 87.8974 96.8606 88.0412 97.4217 88.0412ZM105.456 89.1918C104.937 89.1918 104.467 89.0941 104.044 88.8988C103.622 88.6999 103.286 88.4141 103.037 88.0412C102.789 87.6648 102.665 87.2102 102.665 86.6776C102.665 86.2088 102.757 85.8288 102.941 85.5376C103.126 85.2429 103.373 85.0121 103.682 84.8452C103.991 84.6783 104.332 84.554 104.705 84.4723C105.081 84.3871 105.459 84.3196 105.839 84.2699C106.336 84.206 106.739 84.158 107.048 84.1261C107.361 84.0906 107.588 84.032 107.73 83.9503C107.876 83.8686 107.949 83.7266 107.949 83.5241V83.4815C107.949 82.956 107.805 82.5476 107.517 82.2564C107.233 81.9652 106.802 81.8196 106.223 81.8196C105.623 81.8196 105.152 81.951 104.811 82.2138C104.47 82.4766 104.231 82.7571 104.092 83.0554L102.899 82.6293C103.112 82.1321 103.396 81.745 103.751 81.468C104.11 81.1875 104.5 80.9922 104.923 80.8821C105.349 80.7685 105.768 80.7116 106.18 80.7116C106.443 80.7116 106.745 80.7436 107.086 80.8075C107.43 80.8679 107.762 80.994 108.082 81.1857C108.405 81.3775 108.673 81.6669 108.886 82.054C109.099 82.4411 109.206 82.9595 109.206 83.6094V89H107.949V87.892H107.885C107.799 88.0696 107.657 88.2596 107.459 88.462C107.26 88.6644 106.995 88.8366 106.665 88.9787C106.335 89.1207 105.932 89.1918 105.456 89.1918ZM105.647 88.0625C106.145 88.0625 106.564 87.9648 106.905 87.7695C107.249 87.5742 107.508 87.3221 107.682 87.0131C107.86 86.7042 107.949 86.3793 107.949 86.0384V84.8878C107.895 84.9517 107.778 85.0103 107.597 85.0636C107.419 85.1133 107.214 85.1577 106.979 85.1967C106.748 85.2322 106.523 85.2642 106.303 85.2926C106.086 85.3175 105.91 85.3388 105.775 85.3565C105.449 85.3991 105.143 85.4684 104.859 85.5643C104.579 85.6566 104.351 85.7969 104.177 85.9851C104.007 86.1697 103.922 86.4219 103.922 86.7415C103.922 87.1783 104.083 87.5085 104.406 87.7322C104.733 87.9524 105.147 88.0625 105.647 88.0625ZM112.757 78.0909V89H111.5V78.0909H112.757ZM120.855 82.6506L119.726 82.9702C119.655 82.782 119.55 82.5991 119.412 82.4215C119.277 82.2404 119.092 82.0913 118.858 81.9741C118.623 81.8569 118.323 81.7983 117.957 81.7983C117.457 81.7983 117.04 81.9137 116.706 82.1445C116.375 82.3718 116.21 82.6612 116.21 83.0128C116.21 83.3253 116.324 83.5721 116.551 83.7532C116.778 83.9343 117.134 84.0852 117.617 84.206L118.831 84.5043C119.563 84.6818 120.108 84.9535 120.466 85.3192C120.825 85.6815 121.004 86.1484 121.004 86.7202C121.004 87.1889 120.869 87.608 120.6 87.9773C120.333 88.3466 119.96 88.6378 119.481 88.8509C119.002 89.0639 118.444 89.1705 117.808 89.1705C116.974 89.1705 116.283 88.9893 115.736 88.6271C115.189 88.2649 114.843 87.7358 114.698 87.0398L115.891 86.7415C116.004 87.1818 116.219 87.5121 116.535 87.7322C116.855 87.9524 117.272 88.0625 117.787 88.0625C118.373 88.0625 118.838 87.9382 119.183 87.6896C119.531 87.4375 119.705 87.1357 119.705 86.7841C119.705 86.5 119.605 86.2621 119.406 86.0703C119.207 85.875 118.902 85.7294 118.49 85.6335L117.127 85.3139C116.377 85.1364 115.827 84.8612 115.475 84.4883C115.127 84.1119 114.953 83.6413 114.953 83.0767C114.953 82.6151 115.083 82.2067 115.342 81.8516C115.605 81.4964 115.962 81.2177 116.413 81.0153C116.867 80.8129 117.382 80.7116 117.957 80.7116C118.767 80.7116 119.403 80.8892 119.864 81.2443C120.33 81.5994 120.66 82.0682 120.855 82.6506ZM129.523 89.1918C129.005 89.1918 128.534 89.0941 128.112 88.8988C127.689 88.6999 127.353 88.4141 127.105 88.0412C126.856 87.6648 126.732 87.2102 126.732 86.6776C126.732 86.2088 126.824 85.8288 127.009 85.5376C127.194 85.2429 127.44 85.0121 127.749 84.8452C128.058 84.6783 128.399 84.554 128.772 84.4723C129.148 84.3871 129.527 84.3196 129.907 84.2699C130.404 84.206 130.807 84.158 131.116 84.1261C131.428 84.0906 131.656 84.032 131.798 83.9503C131.943 83.8686 132.016 83.7266 132.016 83.5241V83.4815C132.016 82.956 131.872 82.5476 131.585 82.2564C131.3 81.9652 130.869 81.8196 130.29 81.8196C129.69 81.8196 129.219 81.951 128.879 82.2138C128.538 82.4766 128.298 82.7571 128.159 83.0554L126.966 82.6293C127.179 82.1321 127.463 81.745 127.819 81.468C128.177 81.1875 128.568 80.9922 128.99 80.8821C129.417 80.7685 129.836 80.7116 130.248 80.7116C130.51 80.7116 130.812 80.7436 131.153 80.8075C131.498 80.8679 131.83 80.994 132.149 81.1857C132.472 81.3775 132.74 81.6669 132.953 82.054C133.167 82.4411 133.273 82.9595 133.273 83.6094V89H132.016V87.892H131.952C131.867 88.0696 131.725 88.2596 131.526 88.462C131.327 88.6644 131.063 88.8366 130.732 88.9787C130.402 89.1207 129.999 89.1918 129.523 89.1918ZM129.715 88.0625C130.212 88.0625 130.631 87.9648 130.972 87.7695C131.316 87.5742 131.576 87.3221 131.75 87.0131C131.927 86.7042 132.016 86.3793 132.016 86.0384V84.8878C131.963 84.9517 131.846 85.0103 131.664 85.0636C131.487 85.1133 131.281 85.1577 131.047 85.1967C130.816 85.2322 130.59 85.2642 130.37 85.2926C130.153 85.3175 129.978 85.3388 129.843 85.3565C129.516 85.3991 129.211 85.4684 128.926 85.5643C128.646 85.6566 128.419 85.7969 128.245 85.9851C128.074 86.1697 127.989 86.4219 127.989 86.7415C127.989 87.1783 128.151 87.5085 128.474 87.7322C128.8 87.9524 129.214 88.0625 129.715 88.0625ZM136.825 84.0781V89H135.568V80.8182H136.782V82.0966H136.889C137.08 81.6811 137.372 81.3473 137.762 81.0952C138.153 80.8395 138.657 80.7116 139.275 80.7116C139.829 80.7116 140.314 80.8253 140.729 81.0526C141.145 81.2763 141.468 81.6172 141.699 82.0753C141.929 82.5298 142.045 83.1051 142.045 83.8011V89H140.788V83.8864C140.788 83.2436 140.621 82.7429 140.287 82.3842C139.953 82.022 139.495 81.8409 138.913 81.8409C138.511 81.8409 138.153 81.9279 137.837 82.1019C137.524 82.2759 137.277 82.5298 137.096 82.8636C136.915 83.1974 136.825 83.6023 136.825 84.0781ZM147.431 89.1705C146.75 89.1705 146.148 88.9982 145.626 88.6538C145.104 88.3058 144.695 87.8157 144.401 87.1836C144.106 86.5479 143.958 85.7969 143.958 84.9304C143.958 84.071 144.106 83.3253 144.401 82.6932C144.695 82.0611 145.105 81.5728 145.631 81.2283C146.157 80.8839 146.764 80.7116 147.453 80.7116C147.985 80.7116 148.406 80.8004 148.715 80.978C149.028 81.152 149.266 81.3509 149.429 81.5746C149.596 81.7947 149.725 81.9759 149.818 82.1179H149.924V78.0909H151.181V89H149.967V87.7429H149.818C149.725 87.892 149.594 88.0803 149.424 88.3075C149.253 88.5312 149.01 88.7319 148.694 88.9094C148.378 89.0835 147.957 89.1705 147.431 89.1705ZM147.602 88.0412C148.106 88.0412 148.532 87.9098 148.88 87.647C149.228 87.3807 149.493 87.0131 149.674 86.5444C149.855 86.0721 149.946 85.527 149.946 84.9091C149.946 84.2983 149.857 83.7638 149.679 83.3058C149.502 82.8441 149.239 82.4854 148.891 82.2298C148.543 81.9705 148.113 81.8409 147.602 81.8409C147.069 81.8409 146.625 81.9776 146.27 82.2511C145.919 82.521 145.654 82.8885 145.477 83.3537C145.303 83.8153 145.216 84.3338 145.216 84.9091C145.216 85.4915 145.304 86.0206 145.482 86.4964C145.663 86.9687 145.929 87.3452 146.281 87.6257C146.636 87.9027 147.076 88.0412 147.602 88.0412ZM161.435 80.8182V81.8835H157.195V80.8182H161.435ZM158.431 78.858H159.688V86.6562C159.688 87.0114 159.74 87.2777 159.843 87.4553C159.949 87.6293 160.084 87.7464 160.248 87.8068C160.414 87.8636 160.59 87.892 160.775 87.892C160.913 87.892 161.027 87.8849 161.116 87.8707C161.205 87.853 161.276 87.8388 161.329 87.8281L161.585 88.9574C161.499 88.9893 161.38 89.0213 161.228 89.0533C161.075 89.0888 160.881 89.1065 160.647 89.1065C160.292 89.1065 159.944 89.0302 159.603 88.8775C159.266 88.7248 158.985 88.4922 158.761 88.1797C158.541 87.8672 158.431 87.473 158.431 86.9972V78.858ZM164.759 84.0781V89H163.502V78.0909H164.759V82.0966H164.866C165.058 81.674 165.345 81.3384 165.729 81.0898C166.116 80.8377 166.631 80.7116 167.273 80.7116C167.831 80.7116 168.319 80.8235 168.738 81.0472C169.157 81.2674 169.482 81.6065 169.713 82.0646C169.947 82.5192 170.065 83.098 170.065 83.8011V89H168.808V83.8864C168.808 83.2365 168.639 82.734 168.301 82.3789C167.968 82.0202 167.504 81.8409 166.911 81.8409C166.499 81.8409 166.13 81.9279 165.803 82.1019C165.48 82.2759 165.224 82.5298 165.036 82.8636C164.852 83.1974 164.759 83.6023 164.759 84.0781ZM175.795 89.1705C175.006 89.1705 174.326 88.9964 173.755 88.6484C173.187 88.2969 172.748 87.8068 172.439 87.1783C172.134 86.5462 171.981 85.8111 171.981 84.973C171.981 84.1349 172.134 83.3963 172.439 82.7571C172.748 82.1143 173.178 81.6136 173.728 81.255C174.282 80.8928 174.928 80.7116 175.667 80.7116C176.093 80.7116 176.514 80.7827 176.929 80.9247C177.345 81.0668 177.723 81.2976 178.064 81.6172C178.405 81.9332 178.677 82.3523 178.879 82.8743C179.081 83.3963 179.183 84.0391 179.183 84.8026V85.3352H172.876V84.2486H177.904C177.904 83.7869 177.812 83.375 177.627 83.0128C177.446 82.6506 177.187 82.3647 176.85 82.1552C176.516 81.9457 176.122 81.8409 175.667 81.8409C175.166 81.8409 174.733 81.9652 174.367 82.2138C174.005 82.4588 173.726 82.7784 173.531 83.1726C173.336 83.5668 173.238 83.9893 173.238 84.4403V85.1648C173.238 85.7827 173.345 86.3065 173.558 86.7362C173.774 87.1623 174.074 87.4872 174.458 87.7109C174.841 87.9311 175.287 88.0412 175.795 88.0412C176.125 88.0412 176.423 87.995 176.69 87.9027C176.96 87.8068 177.192 87.6648 177.388 87.4766C177.583 87.2848 177.734 87.0469 177.84 86.7628L179.055 87.1037C178.927 87.5156 178.712 87.8778 178.41 88.1903C178.108 88.4993 177.736 88.7408 177.292 88.9148C176.848 89.0852 176.349 89.1705 175.795 89.1705ZM187.721 89.1918C187.203 89.1918 186.732 89.0941 186.31 88.8988C185.887 88.6999 185.552 88.4141 185.303 88.0412C185.054 87.6648 184.93 87.2102 184.93 86.6776C184.93 86.2088 185.022 85.8288 185.207 85.5376C185.392 85.2429 185.639 85.0121 185.948 84.8452C186.256 84.6783 186.597 84.554 186.97 84.4723C187.347 84.3871 187.725 84.3196 188.105 84.2699C188.602 84.206 189.005 84.158 189.314 84.1261C189.627 84.0906 189.854 84.032 189.996 83.9503C190.141 83.8686 190.214 83.7266 190.214 83.5241V83.4815C190.214 82.956 190.07 82.5476 189.783 82.2564C189.499 81.9652 189.067 81.8196 188.488 81.8196C187.888 81.8196 187.418 81.951 187.077 82.2138C186.736 82.4766 186.496 82.7571 186.358 83.0554L185.165 82.6293C185.378 82.1321 185.662 81.745 186.017 81.468C186.375 81.1875 186.766 80.9922 187.189 80.8821C187.615 80.7685 188.034 80.7116 188.446 80.7116C188.709 80.7116 189.01 80.7436 189.351 80.8075C189.696 80.8679 190.028 80.994 190.347 81.1857C190.671 81.3775 190.939 81.6669 191.152 82.054C191.365 82.4411 191.471 82.9595 191.471 83.6094V89H190.214V87.892H190.15C190.065 88.0696 189.923 88.2596 189.724 88.462C189.525 88.6644 189.261 88.8366 188.93 88.9787C188.6 89.1207 188.197 89.1918 187.721 89.1918ZM187.913 88.0625C188.41 88.0625 188.829 87.9648 189.17 87.7695C189.515 87.5742 189.774 87.3221 189.948 87.0131C190.125 86.7042 190.214 86.3793 190.214 86.0384V84.8878C190.161 84.9517 190.044 85.0103 189.863 85.0636C189.685 85.1133 189.479 85.1577 189.245 85.1967C189.014 85.2322 188.788 85.2642 188.568 85.2926C188.352 85.3175 188.176 85.3388 188.041 85.3565C187.714 85.3991 187.409 85.4684 187.125 85.5643C186.844 85.6566 186.617 85.7969 186.443 85.9851C186.272 86.1697 186.187 86.4219 186.187 86.7415C186.187 87.1783 186.349 87.5085 186.672 87.7322C186.999 87.9524 187.412 88.0625 187.913 88.0625ZM193.766 89V80.8182H194.98V82.054H195.066C195.215 81.6491 195.485 81.3207 195.875 81.0685C196.266 80.8164 196.706 80.6903 197.196 80.6903C197.289 80.6903 197.404 80.6921 197.542 80.6957C197.681 80.6992 197.786 80.7045 197.857 80.7116V81.9901C197.814 81.9794 197.716 81.9634 197.564 81.9421C197.415 81.9173 197.257 81.9048 197.09 81.9048C196.692 81.9048 196.337 81.9883 196.024 82.1552C195.715 82.3185 195.47 82.5458 195.289 82.837C195.112 83.1246 195.023 83.4531 195.023 83.8224V89H193.766ZM202.422 89.1705C201.655 89.1705 200.994 88.9893 200.44 88.6271C199.886 88.2649 199.46 87.766 199.162 87.1303C198.863 86.4947 198.714 85.7685 198.714 84.9517C198.714 84.1207 198.867 83.3874 199.172 82.7518C199.481 82.1126 199.911 81.6136 200.461 81.255C201.015 80.8928 201.662 80.7116 202.4 80.7116C202.976 80.7116 203.494 80.8182 203.956 81.0312C204.417 81.2443 204.796 81.5426 205.09 81.9261C205.385 82.3097 205.568 82.7571 205.639 83.2685H204.382C204.286 82.8956 204.073 82.5653 203.743 82.2777C203.416 81.9865 202.976 81.8409 202.422 81.8409C201.932 81.8409 201.502 81.9687 201.133 82.2244C200.767 82.4766 200.481 82.8335 200.275 83.2951C200.073 83.7532 199.971 84.2912 199.971 84.9091C199.971 85.5412 200.071 86.0916 200.27 86.5604C200.472 87.0291 200.756 87.3931 201.122 87.6523C201.491 87.9116 201.925 88.0412 202.422 88.0412C202.748 88.0412 203.045 87.9844 203.311 87.8707C203.578 87.7571 203.803 87.5938 203.988 87.3807C204.172 87.1676 204.304 86.9119 204.382 86.6136H205.639C205.568 87.0966 205.392 87.5316 205.112 87.9187C204.835 88.3022 204.467 88.6076 204.009 88.8349C203.555 89.0586 203.025 89.1705 202.422 89.1705ZM208.734 84.0781V89H207.477V78.0909H208.734V82.0966H208.84C209.032 81.674 209.32 81.3384 209.703 81.0898C210.09 80.8377 210.605 80.7116 211.248 80.7116C211.806 80.7116 212.294 80.8235 212.713 81.0472C213.132 81.2674 213.457 81.6065 213.688 82.0646C213.922 82.5192 214.039 83.098 214.039 83.8011V89H212.782V83.8864C212.782 83.2365 212.613 82.734 212.276 82.3789C211.942 82.0202 211.479 81.8409 210.886 81.8409C210.474 81.8409 210.105 81.9279 209.778 82.1019C209.455 82.2759 209.199 82.5298 209.011 82.8636C208.826 83.1974 208.734 83.6023 208.734 84.0781ZM216.339 89V80.8182H217.596V89H216.339ZM216.978 79.4545C216.733 79.4545 216.522 79.3711 216.344 79.2042C216.17 79.0373 216.083 78.8366 216.083 78.6023C216.083 78.3679 216.17 78.1673 216.344 78.0004C216.522 77.8335 216.733 77.75 216.978 77.75C217.223 77.75 217.433 77.8335 217.607 78.0004C217.784 78.1673 217.873 78.3679 217.873 78.6023C217.873 78.8366 217.784 79.0373 217.607 79.2042C217.433 79.3711 217.223 79.4545 216.978 79.4545ZM223.457 80.8182V81.8835H219.217V80.8182H223.457ZM220.453 78.858H221.71V86.6562C221.71 87.0114 221.761 87.2777 221.864 87.4553C221.971 87.6293 222.106 87.7464 222.269 87.8068C222.436 87.8636 222.612 87.892 222.796 87.892C222.935 87.892 223.048 87.8849 223.137 87.8707C223.226 87.853 223.297 87.8388 223.35 87.8281L223.606 88.9574C223.521 88.9893 223.402 89.0213 223.249 89.0533C223.096 89.0888 222.903 89.1065 222.669 89.1065C222.313 89.1065 221.965 89.0302 221.624 88.8775C221.287 88.7248 221.007 88.4922 220.783 88.1797C220.563 87.8672 220.453 87.473 220.453 86.9972V78.858ZM228.69 89.1705C227.902 89.1705 227.222 88.9964 226.65 88.6484C226.082 88.2969 225.643 87.8068 225.335 87.1783C225.029 86.5462 224.876 85.8111 224.876 84.973C224.876 84.1349 225.029 83.3963 225.335 82.7571C225.643 82.1143 226.073 81.6136 226.624 81.255C227.178 80.8928 227.824 80.7116 228.562 80.7116C228.989 80.7116 229.409 80.7827 229.825 80.9247C230.24 81.0668 230.619 81.2976 230.96 81.6172C231.3 81.9332 231.572 82.3523 231.775 82.8743C231.977 83.3963 232.078 84.0391 232.078 84.8026V85.3352H225.771V84.2486H230.8C230.8 83.7869 230.707 83.375 230.523 83.0128C230.342 82.6506 230.082 82.3647 229.745 82.1552C229.411 81.9457 229.017 81.8409 228.562 81.8409C228.062 81.8409 227.629 81.9652 227.263 82.2138C226.901 82.4588 226.622 82.7784 226.426 83.1726C226.231 83.5668 226.134 83.9893 226.134 84.4403V85.1648C226.134 85.7827 226.24 86.3065 226.453 86.7362C226.67 87.1623 226.97 87.4872 227.353 87.7109C227.737 87.9311 228.183 88.0412 228.69 88.0412C229.021 88.0412 229.319 87.995 229.585 87.9027C229.855 87.8068 230.088 87.6648 230.283 87.4766C230.478 87.2848 230.629 87.0469 230.736 86.7628L231.95 87.1037C231.822 87.5156 231.608 87.8778 231.306 88.1903C231.004 88.4993 230.631 88.7408 230.187 88.9148C229.743 89.0852 229.244 89.1705 228.69 89.1705ZM237.314 89.1705C236.547 89.1705 235.887 88.9893 235.333 88.6271C234.779 88.2649 234.353 87.766 234.054 87.1303C233.756 86.4947 233.607 85.7685 233.607 84.9517C233.607 84.1207 233.76 83.3874 234.065 82.7518C234.374 82.1126 234.804 81.6136 235.354 81.255C235.908 80.8928 236.554 80.7116 237.293 80.7116C237.868 80.7116 238.387 80.8182 238.848 81.0312C239.31 81.2443 239.688 81.5426 239.983 81.9261C240.278 82.3097 240.461 82.7571 240.532 83.2685H239.275C239.179 82.8956 238.966 82.5653 238.635 82.2777C238.309 81.9865 237.868 81.8409 237.314 81.8409C236.824 81.8409 236.395 81.9687 236.025 82.2244C235.659 82.4766 235.374 82.8335 235.168 83.2951C234.965 83.7532 234.864 84.2912 234.864 84.9091C234.864 85.5412 234.963 86.0916 235.162 86.5604C235.365 87.0291 235.649 87.3931 236.015 87.6523C236.384 87.9116 236.817 88.0412 237.314 88.0412C237.641 88.0412 237.938 87.9844 238.204 87.8707C238.47 87.7571 238.696 87.5938 238.88 87.3807C239.065 87.1676 239.196 86.9119 239.275 86.6136H240.532C240.461 87.0966 240.285 87.5316 240.004 87.9187C239.727 88.3022 239.36 88.6076 238.902 88.8349C238.447 89.0586 237.918 89.1705 237.314 89.1705ZM245.928 80.8182V81.8835H241.688V80.8182H245.928ZM242.923 78.858H244.18V86.6562C244.18 87.0114 244.232 87.2777 244.335 87.4553C244.441 87.6293 244.576 87.7464 244.74 87.8068C244.907 87.8636 245.082 87.892 245.267 87.892C245.406 87.892 245.519 87.8849 245.608 87.8707C245.697 87.853 245.768 87.8388 245.821 87.8281L246.077 88.9574C245.991 88.9893 245.873 89.0213 245.72 89.0533C245.567 89.0888 245.374 89.1065 245.139 89.1065C244.784 89.1065 244.436 89.0302 244.095 88.8775C243.758 88.7248 243.477 88.4922 243.254 88.1797C243.033 87.8672 242.923 87.473 242.923 86.9972V78.858ZM252.975 85.6548V80.8182H254.232V89H252.975V87.6151H252.89C252.698 88.0305 252.4 88.3839 251.995 88.6751C251.59 88.9627 251.078 89.1065 250.461 89.1065C249.949 89.1065 249.495 88.9947 249.097 88.771C248.699 88.5437 248.387 88.2028 248.159 87.7482C247.932 87.2901 247.819 86.7131 247.819 86.017V80.8182H249.076V85.9318C249.076 86.5284 249.243 87.0043 249.576 87.3594C249.914 87.7145 250.343 87.892 250.865 87.892C251.178 87.892 251.496 87.8121 251.819 87.6523C252.146 87.4925 252.419 87.2475 252.639 86.9173C252.863 86.587 252.975 86.1662 252.975 85.6548ZM256.534 89V80.8182H257.749V82.054H257.834C257.983 81.6491 258.253 81.3207 258.644 81.0685C259.034 80.8164 259.475 80.6903 259.965 80.6903C260.057 80.6903 260.172 80.6921 260.311 80.6957C260.449 80.6992 260.554 80.7045 260.625 80.7116V81.9901C260.583 81.9794 260.485 81.9634 260.332 81.9421C260.183 81.9173 260.025 81.9048 259.858 81.9048C259.46 81.9048 259.105 81.9883 258.793 82.1552C258.484 82.3185 258.239 82.5458 258.058 82.837C257.88 83.1246 257.791 83.4531 257.791 83.8224V89H256.534ZM265.297 89.1705C264.508 89.1705 263.828 88.9964 263.257 88.6484C262.688 88.2969 262.25 87.8068 261.941 87.1783C261.636 86.5462 261.483 85.8111 261.483 84.973C261.483 84.1349 261.636 83.3963 261.941 82.7571C262.25 82.1143 262.68 81.6136 263.23 81.255C263.784 80.8928 264.43 80.7116 265.169 80.7116C265.595 80.7116 266.016 80.7827 266.431 80.9247C266.847 81.0668 267.225 81.2976 267.566 81.6172C267.907 81.9332 268.179 82.3523 268.381 82.8743C268.583 83.3963 268.685 84.0391 268.685 84.8026V85.3352H262.378V84.2486H267.406C267.406 83.7869 267.314 83.375 267.129 83.0128C266.948 82.6506 266.689 82.3647 266.351 82.1552C266.018 81.9457 265.623 81.8409 265.169 81.8409C264.668 81.8409 264.235 81.9652 263.869 82.2138C263.507 82.4588 263.228 82.7784 263.033 83.1726C262.838 83.5668 262.74 83.9893 262.74 84.4403V85.1648C262.74 85.7827 262.847 86.3065 263.06 86.7362C263.276 87.1623 263.576 87.4872 263.96 87.7109C264.343 87.9311 264.789 88.0412 265.297 88.0412C265.627 88.0412 265.925 87.995 266.192 87.9027C266.462 87.8068 266.694 87.6648 266.889 87.4766C267.085 87.2848 267.236 87.0469 267.342 86.7628L268.557 87.1037C268.429 87.5156 268.214 87.8778 267.912 88.1903C267.61 88.4993 267.237 88.7408 266.794 88.9148C266.35 89.0852 265.851 89.1705 265.297 89.1705Z" fill="#A9A9A9"/>
</svg>
