<svg width="360" height="138" viewBox="0 0 360 138" fill="none" xmlns="http://www.w3.org/2000/svg">
<rect width="360" height="138" rx="10" fill="white"/>
<path d="M94.3536 102.354C94.5488 102.158 94.5488 101.842 94.3536 101.646L91.1716 98.4645C90.9763 98.2692 90.6597 98.2692 90.4645 98.4645C90.2692 98.6597 90.2692 98.9763 90.4645 99.1716L93.2929 102L90.4645 104.828C90.2692 105.024 90.2692 105.34 90.4645 105.536C90.6597 105.731 90.9763 105.731 91.1716 105.536L94.3536 102.354ZM69 102V102.5H94V102V101.5H69V102Z" fill="white"/>
<path d="M37.54 41V27H38.94V41H37.54ZM28.56 41V27H29.96V41H28.56ZM29.64 34.46V33.3H37.94V34.46H29.64ZM46.3561 41.24C45.4361 41.24 44.6028 41.0267 43.8561 40.6C43.1228 40.16 42.5428 39.5467 42.1161 38.76C41.6894 37.96 41.4761 37.0333 41.4761 35.98C41.4761 34.8867 41.6894 33.9467 42.1161 33.16C42.5561 32.3733 43.1494 31.7667 43.8961 31.34C44.6428 30.9 45.4761 30.68 46.3961 30.68C47.3561 30.68 48.2028 30.9 48.9361 31.34C49.6694 31.7667 50.2494 32.3733 50.6761 33.16C51.1028 33.9467 51.3161 34.8867 51.3161 35.98C51.3161 37.0333 51.0961 37.96 50.6561 38.76C50.2294 39.5467 49.6428 40.16 48.8961 40.6C48.1628 41.0267 47.3161 41.24 46.3561 41.24ZM46.3761 40.04C47.0028 40.04 47.5761 39.8867 48.0961 39.58C48.6294 39.2733 49.0561 38.82 49.3761 38.22C49.7094 37.6067 49.8761 36.8533 49.8761 35.96C49.8761 35.0533 49.7161 34.3 49.3961 33.7C49.0761 33.1 48.6494 32.6533 48.1161 32.36C47.5961 32.0533 47.0228 31.9 46.3961 31.9C45.7961 31.9 45.2294 32.0533 44.6961 32.36C44.1628 32.6667 43.7294 33.12 43.3961 33.72C43.0761 34.3067 42.9161 35.0533 42.9161 35.96C42.9161 36.8533 43.0761 37.6067 43.3961 38.22C43.7161 38.82 44.1361 39.2733 44.6561 39.58C45.1894 39.8867 45.7628 40.04 46.3761 40.04ZM55.4023 41L52.4423 30.92H53.8623L56.2623 39.54H55.9823L58.5823 30.92H60.1823L62.7823 39.54H62.5023L64.9023 30.92H66.3223L63.3623 41H61.9423L59.2423 31.98H59.5223L56.8223 41H55.4023ZM77.0111 41.24C76.1978 41.24 75.5178 41.0933 74.9711 40.8C74.4378 40.5067 74.0378 40.1267 73.7711 39.66C73.5178 39.1933 73.3911 38.68 73.3911 38.12C73.3911 37.4267 73.5644 36.84 73.9111 36.36C74.2711 35.88 74.7711 35.52 75.4111 35.28C76.0511 35.04 76.7978 34.92 77.6511 34.92H80.3711C80.3711 34.2667 80.2711 33.7133 80.0711 33.26C79.8711 32.8067 79.5778 32.4667 79.1911 32.24C78.8044 32 78.3178 31.88 77.7311 31.88C77.0511 31.88 76.4644 32.0533 75.9711 32.4C75.4778 32.7467 75.1711 33.2533 75.0511 33.92H73.5911C73.6711 33.2133 73.9111 32.62 74.3111 32.14C74.7244 31.66 75.2311 31.3 75.8311 31.06C76.4311 30.8067 77.0644 30.68 77.7311 30.68C78.6644 30.68 79.4244 30.86 80.0111 31.22C80.5978 31.5667 81.0378 32.0467 81.3311 32.66C81.6244 33.2733 81.7711 33.98 81.7711 34.78V41H80.4911L80.4111 39.16C80.2911 39.44 80.1244 39.7067 79.9111 39.96C79.7111 40.2133 79.4711 40.4333 79.1911 40.62C78.9244 40.8067 78.6111 40.9533 78.2511 41.06C77.8911 41.18 77.4778 41.24 77.0111 41.24ZM77.1711 40.02C77.6644 40.02 78.1044 39.92 78.4911 39.72C78.8911 39.5067 79.2311 39.2333 79.5111 38.9C79.7911 38.5667 80.0044 38.1933 80.1511 37.78C80.2978 37.3533 80.3711 36.9133 80.3711 36.46V36.1H77.7511C77.0444 36.1 76.4778 36.1867 76.0511 36.36C75.6244 36.5333 75.3178 36.7667 75.1311 37.06C74.9444 37.3533 74.8511 37.6933 74.8511 38.08C74.8511 38.4667 74.9378 38.8067 75.1111 39.1C75.2844 39.38 75.5444 39.6067 75.8911 39.78C76.2511 39.94 76.6778 40.02 77.1711 40.02ZM84.4161 41V30.92H85.6961L85.7961 32.44C86.1028 31.88 86.5294 31.4467 87.0761 31.14C87.6228 30.8333 88.2294 30.68 88.8961 30.68C89.3894 30.68 89.8494 30.7533 90.2761 30.9C90.7028 31.0467 91.0761 31.2667 91.3961 31.56C91.7294 31.8533 91.9894 32.2333 92.1761 32.7C92.5094 32.0733 92.9761 31.58 93.5761 31.22C94.1894 30.86 94.8428 30.68 95.5361 30.68C96.3094 30.68 96.9761 30.8333 97.5361 31.14C98.1094 31.4467 98.5561 31.9133 98.8761 32.54C99.1961 33.1667 99.3561 33.96 99.3561 34.92V41H97.9561V35.08C97.9561 34.0133 97.7361 33.22 97.2961 32.7C96.8561 32.1667 96.2428 31.9 95.4561 31.9C94.9228 31.9 94.4361 32.0467 93.9961 32.34C93.5561 32.62 93.2094 33.0333 92.9561 33.58C92.7028 34.1133 92.5761 34.78 92.5761 35.58V41H91.1761V35.08C91.1761 34.0133 90.9561 33.22 90.5161 32.7C90.0894 32.1667 89.4828 31.9 88.6961 31.9C88.1494 31.9 87.6561 32.0467 87.2161 32.34C86.7894 32.62 86.4494 33.04 86.1961 33.6C85.9428 34.1467 85.8161 34.8267 85.8161 35.64V41H84.4161ZM106.314 41.24C105.381 41.24 104.554 41.02 103.834 40.58C103.128 40.14 102.568 39.5267 102.154 38.74C101.754 37.94 101.554 37.0067 101.554 35.94C101.554 34.8733 101.754 33.9467 102.154 33.16C102.554 32.3733 103.114 31.7667 103.834 31.34C104.568 30.9 105.408 30.68 106.354 30.68C107.328 30.68 108.148 30.9 108.814 31.34C109.494 31.78 110.008 32.3533 110.354 33.06C110.714 33.7667 110.894 34.54 110.894 35.38C110.894 35.5133 110.894 35.6533 110.894 35.8C110.894 35.9333 110.888 36.0933 110.874 36.28H102.614V35.1H109.534C109.508 34.0733 109.188 33.28 108.574 32.72C107.974 32.16 107.214 31.88 106.294 31.88C105.694 31.88 105.134 32.02 104.614 32.3C104.108 32.5667 103.694 32.9667 103.374 33.5C103.068 34.02 102.914 34.68 102.914 35.48V36C102.914 36.9067 103.074 37.66 103.394 38.26C103.714 38.86 104.134 39.3067 104.654 39.6C105.188 39.8933 105.741 40.04 106.314 40.04C107.074 40.04 107.701 39.8733 108.194 39.54C108.688 39.1933 109.041 38.72 109.254 38.12H110.634C110.461 38.7067 110.181 39.24 109.794 39.72C109.421 40.2 108.941 40.5733 108.354 40.84C107.768 41.1067 107.088 41.24 106.314 41.24ZM113.186 41V26.6H114.586V41H113.186ZM117.624 41V30.92H119.004V41H117.624ZM118.324 28.54C118.044 28.54 117.804 28.4467 117.604 28.26C117.404 28.06 117.304 27.8133 117.304 27.52C117.304 27.2133 117.397 26.9733 117.584 26.8C117.784 26.6133 118.024 26.52 118.304 26.52C118.584 26.52 118.824 26.6133 119.024 26.8C119.224 26.9733 119.324 27.2133 119.324 27.52C119.324 27.8133 119.224 28.06 119.024 28.26C118.837 28.4467 118.604 28.54 118.324 28.54ZM126.373 41.24C125.439 41.24 124.613 41.02 123.893 40.58C123.186 40.14 122.626 39.5267 122.213 38.74C121.813 37.94 121.613 37.0067 121.613 35.94C121.613 34.8733 121.813 33.9467 122.213 33.16C122.613 32.3733 123.173 31.7667 123.893 31.34C124.626 30.9 125.466 30.68 126.413 30.68C127.386 30.68 128.206 30.9 128.873 31.34C129.553 31.78 130.066 32.3533 130.413 33.06C130.773 33.7667 130.953 34.54 130.953 35.38C130.953 35.5133 130.953 35.6533 130.953 35.8C130.953 35.9333 130.946 36.0933 130.933 36.28H122.673V35.1H129.593C129.566 34.0733 129.246 33.28 128.633 32.72C128.033 32.16 127.273 31.88 126.353 31.88C125.753 31.88 125.193 32.02 124.673 32.3C124.166 32.5667 123.753 32.9667 123.433 33.5C123.126 34.02 122.973 34.68 122.973 35.48V36C122.973 36.9067 123.133 37.66 123.453 38.26C123.773 38.86 124.193 39.3067 124.713 39.6C125.246 39.8933 125.799 40.04 126.373 40.04C127.133 40.04 127.759 39.8733 128.253 39.54C128.746 39.1933 129.099 38.72 129.313 38.12H130.693C130.519 38.7067 130.239 39.24 129.853 39.72C129.479 40.2 128.999 40.5733 128.413 40.84C127.826 41.1067 127.146 41.24 126.373 41.24ZM140.832 41L137.872 30.92H139.292L141.692 39.54H141.412L144.012 30.92H145.612L148.212 39.54H147.932L150.332 30.92H151.752L148.792 41H147.372L144.672 31.98H144.952L142.252 41H140.832ZM157.762 41.24C156.842 41.24 156.009 41.0267 155.262 40.6C154.529 40.16 153.949 39.5467 153.522 38.76C153.096 37.96 152.882 37.0333 152.882 35.98C152.882 34.8867 153.096 33.9467 153.522 33.16C153.962 32.3733 154.556 31.7667 155.302 31.34C156.049 30.9 156.882 30.68 157.802 30.68C158.762 30.68 159.609 30.9 160.342 31.34C161.076 31.7667 161.656 32.3733 162.082 33.16C162.509 33.9467 162.722 34.8867 162.722 35.98C162.722 37.0333 162.502 37.96 162.062 38.76C161.636 39.5467 161.049 40.16 160.302 40.6C159.569 41.0267 158.722 41.24 157.762 41.24ZM157.782 40.04C158.409 40.04 158.982 39.8867 159.502 39.58C160.036 39.2733 160.462 38.82 160.782 38.22C161.116 37.6067 161.282 36.8533 161.282 35.96C161.282 35.0533 161.122 34.3 160.802 33.7C160.482 33.1 160.056 32.6533 159.522 32.36C159.002 32.0533 158.429 31.9 157.802 31.9C157.202 31.9 156.636 32.0533 156.102 32.36C155.569 32.6667 155.136 33.12 154.802 33.72C154.482 34.3067 154.322 35.0533 154.322 35.96C154.322 36.8533 154.482 37.6067 154.802 38.22C155.122 38.82 155.542 39.2733 156.062 39.58C156.596 39.8867 157.169 40.04 157.782 40.04ZM165.119 41V30.92H166.399L166.499 32.86C166.713 32.3933 166.999 32 167.359 31.68C167.719 31.36 168.153 31.1133 168.659 30.94C169.166 30.7667 169.739 30.68 170.379 30.68V32.14H169.839C169.413 32.14 168.999 32.2 168.599 32.32C168.199 32.4267 167.846 32.6133 167.539 32.88C167.233 33.1467 166.986 33.5067 166.799 33.96C166.613 34.4133 166.519 34.98 166.519 35.66V41H165.119ZM178.446 41L173.506 35.48L178.026 30.92H179.766L174.746 35.94L174.766 35L180.246 41H178.446ZM172.346 41V26.6H173.746V41H172.346ZM185.147 41.24C184.347 41.24 183.641 41.1067 183.027 40.84C182.427 40.5733 181.941 40.1933 181.567 39.7C181.207 39.1933 180.987 38.5933 180.907 37.9H182.347C182.427 38.2867 182.581 38.64 182.807 38.96C183.047 39.28 183.367 39.54 183.767 39.74C184.167 39.9267 184.641 40.02 185.187 40.02C185.694 40.02 186.107 39.9467 186.427 39.8C186.761 39.64 187.007 39.4333 187.167 39.18C187.341 38.9133 187.427 38.62 187.427 38.3C187.427 37.86 187.321 37.52 187.107 37.28C186.907 37.0267 186.614 36.84 186.227 36.72C185.841 36.6 185.374 36.4867 184.827 36.38C184.374 36.3 183.941 36.1933 183.527 36.06C183.114 35.9267 182.741 35.7533 182.407 35.54C182.087 35.3267 181.834 35.06 181.647 34.74C181.461 34.4067 181.367 34.02 181.367 33.58C181.367 33.0067 181.507 32.5067 181.787 32.08C182.081 31.64 182.494 31.3 183.027 31.06C183.561 30.8067 184.187 30.68 184.907 30.68C185.934 30.68 186.774 30.94 187.427 31.46C188.081 31.9667 188.461 32.7133 188.567 33.7H187.167C187.114 33.1533 186.887 32.72 186.487 32.4C186.087 32.08 185.547 31.92 184.867 31.92C184.201 31.92 183.687 32.06 183.327 32.34C182.981 32.6067 182.807 32.9733 182.807 33.44C182.807 33.7333 182.901 33.9867 183.087 34.2C183.274 34.4133 183.547 34.6 183.907 34.76C184.281 34.9067 184.734 35.0333 185.267 35.14C185.907 35.26 186.494 35.42 187.027 35.62C187.574 35.8067 188.014 36.1 188.347 36.5C188.694 36.8867 188.867 37.44 188.867 38.16C188.881 38.76 188.734 39.2933 188.427 39.76C188.121 40.2267 187.687 40.5933 187.127 40.86C186.567 41.1133 185.907 41.24 185.147 41.24Z" fill="black"/>
<path d="M94.3536 102.354C94.5488 102.158 94.5488 101.842 94.3536 101.646L91.1716 98.4645C90.9763 98.2692 90.6597 98.2692 90.4645 98.4645C90.2692 98.6597 90.2692 98.9763 90.4645 99.1716L93.2929 102L90.4645 104.828C90.2692 105.024 90.2692 105.34 90.4645 105.536C90.6597 105.731 90.9763 105.731 91.1716 105.536L94.3536 102.354ZM69 102V102.5H94V102V101.5H69V102Z" fill="white"/>
<rect x="27" y="89" width="64" height="24" rx="12" fill="#9CE5B6"/>
<path d="M28.7685 54.0909L32.0071 63.2741H32.1349L35.3736 54.0909H36.7585L32.7528 65H31.3892L27.3835 54.0909H28.7685ZM38.2873 65V56.8182H39.5444V65H38.2873ZM38.9265 55.4545C38.6815 55.4545 38.4702 55.3711 38.2926 55.2042C38.1186 55.0373 38.0316 54.8366 38.0316 54.6023C38.0316 54.3679 38.1186 54.1673 38.2926 54.0004C38.4702 53.8335 38.6815 53.75 38.9265 53.75C39.1715 53.75 39.381 53.8335 39.555 54.0004C39.7326 54.1673 39.8214 54.3679 39.8214 54.6023C39.8214 54.8366 39.7326 55.0373 39.555 55.2042C39.381 55.3711 39.1715 55.4545 38.9265 55.4545ZM47.6423 58.6506L46.5131 58.9702C46.442 58.782 46.3373 58.5991 46.1988 58.4215C46.0638 58.2404 45.8792 58.0913 45.6448 57.9741C45.4104 57.8569 45.1104 57.7983 44.7446 57.7983C44.2439 57.7983 43.8266 57.9137 43.4928 58.1445C43.1626 58.3718 42.9974 58.6612 42.9974 59.0128C42.9974 59.3253 43.1111 59.5721 43.3383 59.7532C43.5656 59.9343 43.9207 60.0852 44.4037 60.206L45.6182 60.5043C46.3497 60.6818 46.8948 60.9535 47.2535 61.3192C47.6121 61.6815 47.7915 62.1484 47.7915 62.7202C47.7915 63.1889 47.6565 63.608 47.3866 63.9773C47.1203 64.3466 46.7474 64.6378 46.268 64.8509C45.7886 65.0639 45.2311 65.1705 44.5954 65.1705C43.7609 65.1705 43.0702 64.9893 42.5233 64.6271C41.9765 64.2649 41.6302 63.7358 41.4846 63.0398L42.6778 62.7415C42.7915 63.1818 43.0063 63.5121 43.3224 63.7322C43.642 63.9524 44.0592 64.0625 44.5741 64.0625C45.1601 64.0625 45.6253 63.9382 45.9697 63.6896C46.3177 63.4375 46.4917 63.1357 46.4917 62.7841C46.4917 62.5 46.3923 62.2621 46.1934 62.0703C45.9946 61.875 45.6892 61.7294 45.2773 61.6335L43.9136 61.3139C43.1643 61.1364 42.6139 60.8612 42.2623 60.4883C41.9143 60.1119 41.7403 59.6413 41.7403 59.0767C41.7403 58.6151 41.8699 58.2067 42.1292 57.8516C42.392 57.4964 42.7488 57.2177 43.1998 57.0153C43.6544 56.8129 44.1693 56.7116 44.7446 56.7116C45.5542 56.7116 46.1899 56.8892 46.6515 57.2443C47.1167 57.5994 47.447 58.0682 47.6423 58.6506ZM49.6838 65V56.8182H50.9409V65H49.6838ZM50.323 55.4545C50.0779 55.4545 49.8667 55.3711 49.6891 55.2042C49.5151 55.0373 49.4281 54.8366 49.4281 54.6023C49.4281 54.3679 49.5151 54.1673 49.6891 54.0004C49.8667 53.8335 50.0779 53.75 50.323 53.75C50.568 53.75 50.7775 53.8335 50.9515 54.0004C51.1291 54.1673 51.2179 54.3679 51.2179 54.6023C51.2179 54.8366 51.1291 55.0373 50.9515 55.2042C50.7775 55.3711 50.568 55.4545 50.323 55.4545ZM56.5672 65.1705C55.8286 65.1705 55.1805 64.9947 54.623 64.6431C54.069 64.2915 53.6357 63.7997 53.3232 63.1676C53.0143 62.5355 52.8598 61.7969 52.8598 60.9517C52.8598 60.0994 53.0143 59.3555 53.3232 58.7198C53.6357 58.0842 54.069 57.5906 54.623 57.239C55.1805 56.8874 55.8286 56.7116 56.5672 56.7116C57.3058 56.7116 57.9521 56.8874 58.5061 57.239C59.0637 57.5906 59.4969 58.0842 59.8058 58.7198C60.1183 59.3555 60.2746 60.0994 60.2746 60.9517C60.2746 61.7969 60.1183 62.5355 59.8058 63.1676C59.4969 63.7997 59.0637 64.2915 58.5061 64.6431C57.9521 64.9947 57.3058 65.1705 56.5672 65.1705ZM56.5672 64.0412C57.1283 64.0412 57.5899 63.8974 57.9521 63.6097C58.3144 63.3221 58.5825 62.9439 58.7565 62.4751C58.9305 62.0064 59.0175 61.4986 59.0175 60.9517C59.0175 60.4048 58.9305 59.8952 58.7565 59.4229C58.5825 58.9506 58.3144 58.5689 57.9521 58.2777C57.5899 57.9865 57.1283 57.8409 56.5672 57.8409C56.0061 57.8409 55.5445 57.9865 55.1823 58.2777C54.82 58.5689 54.5519 58.9506 54.3779 59.4229C54.2039 59.8952 54.1169 60.4048 54.1169 60.9517C54.1169 61.4986 54.2039 62.0064 54.3779 62.4751C54.5519 62.9439 54.82 63.3221 55.1823 63.6097C55.5445 63.8974 56.0061 64.0412 56.5672 64.0412ZM63.4506 60.0781V65H62.1935V56.8182H63.408V58.0966H63.5146C63.7063 57.6811 63.9975 57.3473 64.3881 57.0952C64.7788 56.8395 65.283 56.7116 65.9009 56.7116C66.4549 56.7116 66.9396 56.8253 67.3551 57.0526C67.7706 57.2763 68.0938 57.6172 68.3246 58.0753C68.5554 58.5298 68.6708 59.1051 68.6708 59.8011V65H67.4137V59.8864C67.4137 59.2436 67.2468 58.7429 66.913 58.3842C66.5792 58.022 66.1211 57.8409 65.5387 57.8409C65.1374 57.8409 64.7788 57.9279 64.4627 58.1019C64.1502 58.2759 63.9034 58.5298 63.7223 58.8636C63.5412 59.1974 63.4506 59.6023 63.4506 60.0781ZM72.843 63.5085L72.7577 64.0838C72.6974 64.4886 72.605 64.9219 72.4807 65.3835C72.36 65.8452 72.2339 66.2802 72.1025 66.6886C71.9711 67.0969 71.8628 67.4219 71.7776 67.6634H70.8188C70.865 67.4361 70.9253 67.136 70.9999 66.7631C71.0745 66.3903 71.1491 65.973 71.2236 65.5114C71.3018 65.0533 71.3657 64.5845 71.4154 64.1051L71.4793 63.5085H72.843ZM87.0186 57.5C86.9015 57.1413 86.747 56.82 86.5552 56.5359C86.367 56.2482 86.1415 56.0032 85.8787 55.8008C85.6195 55.5984 85.3248 55.4439 84.9945 55.3374C84.6642 55.2308 84.302 55.1776 83.9078 55.1776C83.2615 55.1776 82.6738 55.3445 82.1447 55.6783C81.6156 56.0121 81.1948 56.5039 80.8823 57.1538C80.5698 57.8036 80.4135 58.6009 80.4135 59.5455C80.4135 60.4901 80.5716 61.2873 80.8876 61.9371C81.2037 62.587 81.6316 63.0788 82.1713 63.4126C82.7111 63.7464 83.3184 63.9134 83.9931 63.9134C84.6181 63.9134 85.1685 63.7802 85.6444 63.5138C86.1238 63.244 86.4966 62.864 86.763 62.3739C87.0328 61.8803 87.1678 61.2997 87.1678 60.6321L87.5726 60.7173H84.2914V59.5455H88.4462V60.7173C88.4462 61.6158 88.2544 62.397 87.8709 63.0611C87.4909 63.7251 86.9654 64.2401 86.2942 64.6058C85.6266 64.968 84.8596 65.1491 83.9931 65.1491C83.0272 65.1491 82.1784 64.9219 81.4469 64.4673C80.7189 64.0128 80.1507 63.3665 79.7424 62.5284C79.3375 61.6903 79.1351 60.696 79.1351 59.5455C79.1351 58.6825 79.2505 57.9066 79.4814 57.2177C79.7157 56.5252 80.046 55.9357 80.4721 55.4492C80.8983 54.9627 81.4025 54.5898 81.9849 54.3306C82.5673 54.0714 83.2083 53.9418 83.9078 53.9418C84.4831 53.9418 85.0194 54.0288 85.5165 54.2028C86.0172 54.3732 86.4629 54.6165 86.8535 54.9325C87.2477 55.245 87.5762 55.6197 87.839 56.0565C88.1017 56.4897 88.2828 56.9709 88.3823 57.5H87.0186ZM91.7954 54.0909V65H90.5383V54.0909H91.7954ZM97.4217 65.1705C96.6831 65.1705 96.035 64.9947 95.4775 64.6431C94.9235 64.2915 94.4902 63.7997 94.1777 63.1676C93.8688 62.5355 93.7143 61.7969 93.7143 60.9517C93.7143 60.0994 93.8688 59.3555 94.1777 58.7198C94.4902 58.0842 94.9235 57.5906 95.4775 57.239C96.035 56.8874 96.6831 56.7116 97.4217 56.7116C98.1603 56.7116 98.8066 56.8874 99.3606 57.239C99.9181 57.5906 100.351 58.0842 100.66 58.7198C100.973 59.3555 101.129 60.0994 101.129 60.9517C101.129 61.7969 100.973 62.5355 100.66 63.1676C100.351 63.7997 99.9181 64.2915 99.3606 64.6431C98.8066 64.9947 98.1603 65.1705 97.4217 65.1705ZM97.4217 64.0412C97.9828 64.0412 98.4444 63.8974 98.8066 63.6097C99.1689 63.3221 99.437 62.9439 99.611 62.4751C99.785 62.0064 99.872 61.4986 99.872 60.9517C99.872 60.4048 99.785 59.8952 99.611 59.4229C99.437 58.9506 99.1689 58.5689 98.8066 58.2777C98.4444 57.9865 97.9828 57.8409 97.4217 57.8409C96.8606 57.8409 96.399 57.9865 96.0368 58.2777C95.6745 58.5689 95.4064 58.9506 95.2324 59.4229C95.0584 59.8952 94.9714 60.4048 94.9714 60.9517C94.9714 61.4986 95.0584 62.0064 95.2324 62.4751C95.4064 62.9439 95.6745 63.3221 96.0368 63.6097C96.399 63.8974 96.8606 64.0412 97.4217 64.0412ZM105.456 65.1918C104.937 65.1918 104.467 65.0941 104.044 64.8988C103.622 64.6999 103.286 64.4141 103.037 64.0412C102.789 63.6648 102.665 63.2102 102.665 62.6776C102.665 62.2088 102.757 61.8288 102.941 61.5376C103.126 61.2429 103.373 61.0121 103.682 60.8452C103.991 60.6783 104.332 60.554 104.705 60.4723C105.081 60.3871 105.459 60.3196 105.839 60.2699C106.336 60.206 106.739 60.158 107.048 60.1261C107.361 60.0906 107.588 60.032 107.73 59.9503C107.876 59.8686 107.949 59.7266 107.949 59.5241V59.4815C107.949 58.956 107.805 58.5476 107.517 58.2564C107.233 57.9652 106.802 57.8196 106.223 57.8196C105.623 57.8196 105.152 57.951 104.811 58.2138C104.47 58.4766 104.231 58.7571 104.092 59.0554L102.899 58.6293C103.112 58.1321 103.396 57.745 103.751 57.468C104.11 57.1875 104.5 56.9922 104.923 56.8821C105.349 56.7685 105.768 56.7116 106.18 56.7116C106.443 56.7116 106.745 56.7436 107.086 56.8075C107.43 56.8679 107.762 56.994 108.082 57.1857C108.405 57.3775 108.673 57.6669 108.886 58.054C109.099 58.4411 109.206 58.9595 109.206 59.6094V65H107.949V63.892H107.885C107.799 64.0696 107.657 64.2596 107.459 64.462C107.26 64.6644 106.995 64.8366 106.665 64.9787C106.335 65.1207 105.932 65.1918 105.456 65.1918ZM105.647 64.0625C106.145 64.0625 106.564 63.9648 106.905 63.7695C107.249 63.5742 107.508 63.3221 107.682 63.0131C107.86 62.7042 107.949 62.3793 107.949 62.0384V60.8878C107.895 60.9517 107.778 61.0103 107.597 61.0636C107.419 61.1133 107.214 61.1577 106.979 61.1967C106.748 61.2322 106.523 61.2642 106.303 61.2926C106.086 61.3175 105.91 61.3388 105.775 61.3565C105.449 61.3991 105.143 61.4684 104.859 61.5643C104.579 61.6566 104.351 61.7969 104.177 61.9851C104.007 62.1697 103.922 62.4219 103.922 62.7415C103.922 63.1783 104.083 63.5085 104.406 63.7322C104.733 63.9524 105.147 64.0625 105.647 64.0625ZM112.757 54.0909V65H111.5V54.0909H112.757ZM120.855 58.6506L119.726 58.9702C119.655 58.782 119.55 58.5991 119.412 58.4215C119.277 58.2404 119.092 58.0913 118.858 57.9741C118.623 57.8569 118.323 57.7983 117.957 57.7983C117.457 57.7983 117.04 57.9137 116.706 58.1445C116.375 58.3718 116.21 58.6612 116.21 59.0128C116.21 59.3253 116.324 59.5721 116.551 59.7532C116.778 59.9343 117.134 60.0852 117.617 60.206L118.831 60.5043C119.563 60.6818 120.108 60.9535 120.466 61.3192C120.825 61.6815 121.004 62.1484 121.004 62.7202C121.004 63.1889 120.869 63.608 120.6 63.9773C120.333 64.3466 119.96 64.6378 119.481 64.8509C119.002 65.0639 118.444 65.1705 117.808 65.1705C116.974 65.1705 116.283 64.9893 115.736 64.6271C115.189 64.2649 114.843 63.7358 114.698 63.0398L115.891 62.7415C116.004 63.1818 116.219 63.5121 116.535 63.7322C116.855 63.9524 117.272 64.0625 117.787 64.0625C118.373 64.0625 118.838 63.9382 119.183 63.6896C119.531 63.4375 119.705 63.1357 119.705 62.7841C119.705 62.5 119.605 62.2621 119.406 62.0703C119.207 61.875 118.902 61.7294 118.49 61.6335L117.127 61.3139C116.377 61.1364 115.827 60.8612 115.475 60.4883C115.127 60.1119 114.953 59.6413 114.953 59.0767C114.953 58.6151 115.083 58.2067 115.342 57.8516C115.605 57.4964 115.962 57.2177 116.413 57.0153C116.867 56.8129 117.382 56.7116 117.957 56.7116C118.767 56.7116 119.403 56.8892 119.864 57.2443C120.33 57.5994 120.66 58.0682 120.855 58.6506ZM129.523 65.1918C129.005 65.1918 128.534 65.0941 128.112 64.8988C127.689 64.6999 127.353 64.4141 127.105 64.0412C126.856 63.6648 126.732 63.2102 126.732 62.6776C126.732 62.2088 126.824 61.8288 127.009 61.5376C127.194 61.2429 127.44 61.0121 127.749 60.8452C128.058 60.6783 128.399 60.554 128.772 60.4723C129.148 60.3871 129.527 60.3196 129.907 60.2699C130.404 60.206 130.807 60.158 131.116 60.1261C131.428 60.0906 131.656 60.032 131.798 59.9503C131.943 59.8686 132.016 59.7266 132.016 59.5241V59.4815C132.016 58.956 131.872 58.5476 131.585 58.2564C131.3 57.9652 130.869 57.8196 130.29 57.8196C129.69 57.8196 129.219 57.951 128.879 58.2138C128.538 58.4766 128.298 58.7571 128.159 59.0554L126.966 58.6293C127.179 58.1321 127.463 57.745 127.819 57.468C128.177 57.1875 128.568 56.9922 128.99 56.8821C129.417 56.7685 129.836 56.7116 130.248 56.7116C130.51 56.7116 130.812 56.7436 131.153 56.8075C131.498 56.8679 131.83 56.994 132.149 57.1857C132.472 57.3775 132.74 57.6669 132.953 58.054C133.167 58.4411 133.273 58.9595 133.273 59.6094V65H132.016V63.892H131.952C131.867 64.0696 131.725 64.2596 131.526 64.462C131.327 64.6644 131.063 64.8366 130.732 64.9787C130.402 65.1207 129.999 65.1918 129.523 65.1918ZM129.715 64.0625C130.212 64.0625 130.631 63.9648 130.972 63.7695C131.316 63.5742 131.576 63.3221 131.75 63.0131C131.927 62.7042 132.016 62.3793 132.016 62.0384V60.8878C131.963 60.9517 131.846 61.0103 131.664 61.0636C131.487 61.1133 131.281 61.1577 131.047 61.1967C130.816 61.2322 130.59 61.2642 130.37 61.2926C130.153 61.3175 129.978 61.3388 129.843 61.3565C129.516 61.3991 129.211 61.4684 128.926 61.5643C128.646 61.6566 128.419 61.7969 128.245 61.9851C128.074 62.1697 127.989 62.4219 127.989 62.7415C127.989 63.1783 128.151 63.5085 128.474 63.7322C128.8 63.9524 129.214 64.0625 129.715 64.0625ZM136.825 60.0781V65H135.568V56.8182H136.782V58.0966H136.889C137.08 57.6811 137.372 57.3473 137.762 57.0952C138.153 56.8395 138.657 56.7116 139.275 56.7116C139.829 56.7116 140.314 56.8253 140.729 57.0526C141.145 57.2763 141.468 57.6172 141.699 58.0753C141.929 58.5298 142.045 59.1051 142.045 59.8011V65H140.788V59.8864C140.788 59.2436 140.621 58.7429 140.287 58.3842C139.953 58.022 139.495 57.8409 138.913 57.8409C138.511 57.8409 138.153 57.9279 137.837 58.1019C137.524 58.2759 137.277 58.5298 137.096 58.8636C136.915 59.1974 136.825 59.6023 136.825 60.0781ZM147.431 65.1705C146.75 65.1705 146.148 64.9982 145.626 64.6538C145.104 64.3058 144.695 63.8157 144.401 63.1836C144.106 62.5479 143.958 61.7969 143.958 60.9304C143.958 60.071 144.106 59.3253 144.401 58.6932C144.695 58.0611 145.105 57.5728 145.631 57.2283C146.157 56.8839 146.764 56.7116 147.453 56.7116C147.985 56.7116 148.406 56.8004 148.715 56.978C149.028 57.152 149.266 57.3509 149.429 57.5746C149.596 57.7947 149.725 57.9759 149.818 58.1179H149.924V54.0909H151.181V65H149.967V63.7429H149.818C149.725 63.892 149.594 64.0803 149.424 64.3075C149.253 64.5312 149.01 64.7319 148.694 64.9094C148.378 65.0835 147.957 65.1705 147.431 65.1705ZM147.602 64.0412C148.106 64.0412 148.532 63.9098 148.88 63.647C149.228 63.3807 149.493 63.0131 149.674 62.5444C149.855 62.0721 149.946 61.527 149.946 60.9091C149.946 60.2983 149.857 59.7638 149.679 59.3058C149.502 58.8441 149.239 58.4854 148.891 58.2298C148.543 57.9705 148.113 57.8409 147.602 57.8409C147.069 57.8409 146.625 57.9776 146.27 58.2511C145.919 58.521 145.654 58.8885 145.477 59.3537C145.303 59.8153 145.216 60.3338 145.216 60.9091C145.216 61.4915 145.304 62.0206 145.482 62.4964C145.663 62.9687 145.929 63.3452 146.281 63.6257C146.636 63.9027 147.076 64.0412 147.602 64.0412ZM161.435 56.8182V57.8835H157.195V56.8182H161.435ZM158.431 54.858H159.688V62.6562C159.688 63.0114 159.74 63.2777 159.843 63.4553C159.949 63.6293 160.084 63.7464 160.248 63.8068C160.414 63.8636 160.59 63.892 160.775 63.892C160.913 63.892 161.027 63.8849 161.116 63.8707C161.205 63.853 161.276 63.8388 161.329 63.8281L161.585 64.9574C161.499 64.9893 161.38 65.0213 161.228 65.0533C161.075 65.0888 160.881 65.1065 160.647 65.1065C160.292 65.1065 159.944 65.0302 159.603 64.8775C159.266 64.7248 158.985 64.4922 158.761 64.1797C158.541 63.8672 158.431 63.473 158.431 62.9972V54.858ZM164.759 60.0781V65H163.502V54.0909H164.759V58.0966H164.866C165.058 57.674 165.345 57.3384 165.729 57.0898C166.116 56.8377 166.631 56.7116 167.273 56.7116C167.831 56.7116 168.319 56.8235 168.738 57.0472C169.157 57.2674 169.482 57.6065 169.713 58.0646C169.947 58.5192 170.065 59.098 170.065 59.8011V65H168.808V59.8864C168.808 59.2365 168.639 58.734 168.301 58.3789C167.968 58.0202 167.504 57.8409 166.911 57.8409C166.499 57.8409 166.13 57.9279 165.803 58.1019C165.48 58.2759 165.224 58.5298 165.036 58.8636C164.852 59.1974 164.759 59.6023 164.759 60.0781ZM175.795 65.1705C175.006 65.1705 174.326 64.9964 173.755 64.6484C173.187 64.2969 172.748 63.8068 172.439 63.1783C172.134 62.5462 171.981 61.8111 171.981 60.973C171.981 60.1349 172.134 59.3963 172.439 58.7571C172.748 58.1143 173.178 57.6136 173.728 57.255C174.282 56.8928 174.928 56.7116 175.667 56.7116C176.093 56.7116 176.514 56.7827 176.929 56.9247C177.345 57.0668 177.723 57.2976 178.064 57.6172C178.405 57.9332 178.677 58.3523 178.879 58.8743C179.081 59.3963 179.183 60.0391 179.183 60.8026V61.3352H172.876V60.2486H177.904C177.904 59.7869 177.812 59.375 177.627 59.0128C177.446 58.6506 177.187 58.3647 176.85 58.1552C176.516 57.9457 176.122 57.8409 175.667 57.8409C175.166 57.8409 174.733 57.9652 174.367 58.2138C174.005 58.4588 173.726 58.7784 173.531 59.1726C173.336 59.5668 173.238 59.9893 173.238 60.4403V61.1648C173.238 61.7827 173.345 62.3065 173.558 62.7362C173.774 63.1623 174.074 63.4872 174.458 63.7109C174.841 63.9311 175.287 64.0412 175.795 64.0412C176.125 64.0412 176.423 63.995 176.69 63.9027C176.96 63.8068 177.192 63.6648 177.388 63.4766C177.583 63.2848 177.734 63.0469 177.84 62.7628L179.055 63.1037C178.927 63.5156 178.712 63.8778 178.41 64.1903C178.108 64.4993 177.736 64.7408 177.292 64.9148C176.848 65.0852 176.349 65.1705 175.795 65.1705ZM187.721 65.1918C187.203 65.1918 186.732 65.0941 186.31 64.8988C185.887 64.6999 185.552 64.4141 185.303 64.0412C185.054 63.6648 184.93 63.2102 184.93 62.6776C184.93 62.2088 185.022 61.8288 185.207 61.5376C185.392 61.2429 185.639 61.0121 185.948 60.8452C186.256 60.6783 186.597 60.554 186.97 60.4723C187.347 60.3871 187.725 60.3196 188.105 60.2699C188.602 60.206 189.005 60.158 189.314 60.1261C189.627 60.0906 189.854 60.032 189.996 59.9503C190.141 59.8686 190.214 59.7266 190.214 59.5241V59.4815C190.214 58.956 190.07 58.5476 189.783 58.2564C189.499 57.9652 189.067 57.8196 188.488 57.8196C187.888 57.8196 187.418 57.951 187.077 58.2138C186.736 58.4766 186.496 58.7571 186.358 59.0554L185.165 58.6293C185.378 58.1321 185.662 57.745 186.017 57.468C186.375 57.1875 186.766 56.9922 187.189 56.8821C187.615 56.7685 188.034 56.7116 188.446 56.7116C188.709 56.7116 189.01 56.7436 189.351 56.8075C189.696 56.8679 190.028 56.994 190.347 57.1857C190.671 57.3775 190.939 57.6669 191.152 58.054C191.365 58.4411 191.471 58.9595 191.471 59.6094V65H190.214V63.892H190.15C190.065 64.0696 189.923 64.2596 189.724 64.462C189.525 64.6644 189.261 64.8366 188.93 64.9787C188.6 65.1207 188.197 65.1918 187.721 65.1918ZM187.913 64.0625C188.41 64.0625 188.829 63.9648 189.17 63.7695C189.515 63.5742 189.774 63.3221 189.948 63.0131C190.125 62.7042 190.214 62.3793 190.214 62.0384V60.8878C190.161 60.9517 190.044 61.0103 189.863 61.0636C189.685 61.1133 189.479 61.1577 189.245 61.1967C189.014 61.2322 188.788 61.2642 188.568 61.2926C188.352 61.3175 188.176 61.3388 188.041 61.3565C187.714 61.3991 187.409 61.4684 187.125 61.5643C186.844 61.6566 186.617 61.7969 186.443 61.9851C186.272 62.1697 186.187 62.4219 186.187 62.7415C186.187 63.1783 186.349 63.5085 186.672 63.7322C186.999 63.9524 187.412 64.0625 187.913 64.0625ZM193.766 65V56.8182H194.98V58.054H195.066C195.215 57.6491 195.485 57.3207 195.875 57.0685C196.266 56.8164 196.706 56.6903 197.196 56.6903C197.289 56.6903 197.404 56.6921 197.542 56.6957C197.681 56.6992 197.786 56.7045 197.857 56.7116V57.9901C197.814 57.9794 197.716 57.9634 197.564 57.9421C197.415 57.9173 197.257 57.9048 197.09 57.9048C196.692 57.9048 196.337 57.9883 196.024 58.1552C195.715 58.3185 195.47 58.5458 195.289 58.837C195.112 59.1246 195.023 59.4531 195.023 59.8224V65H193.766ZM202.422 65.1705C201.655 65.1705 200.994 64.9893 200.44 64.6271C199.886 64.2649 199.46 63.766 199.162 63.1303C198.863 62.4947 198.714 61.7685 198.714 60.9517C198.714 60.1207 198.867 59.3874 199.172 58.7518C199.481 58.1126 199.911 57.6136 200.461 57.255C201.015 56.8928 201.662 56.7116 202.4 56.7116C202.976 56.7116 203.494 56.8182 203.956 57.0312C204.417 57.2443 204.796 57.5426 205.09 57.9261C205.385 58.3097 205.568 58.7571 205.639 59.2685H204.382C204.286 58.8956 204.073 58.5653 203.743 58.2777C203.416 57.9865 202.976 57.8409 202.422 57.8409C201.932 57.8409 201.502 57.9687 201.133 58.2244C200.767 58.4766 200.481 58.8335 200.275 59.2951C200.073 59.7532 199.971 60.2912 199.971 60.9091C199.971 61.5412 200.071 62.0916 200.27 62.5604C200.472 63.0291 200.756 63.3931 201.122 63.6523C201.491 63.9116 201.925 64.0412 202.422 64.0412C202.748 64.0412 203.045 63.9844 203.311 63.8707C203.578 63.7571 203.803 63.5938 203.988 63.3807C204.172 63.1676 204.304 62.9119 204.382 62.6136H205.639C205.568 63.0966 205.392 63.5316 205.112 63.9187C204.835 64.3022 204.467 64.6076 204.009 64.8349C203.555 65.0586 203.025 65.1705 202.422 65.1705ZM208.734 60.0781V65H207.477V54.0909H208.734V58.0966H208.84C209.032 57.674 209.32 57.3384 209.703 57.0898C210.09 56.8377 210.605 56.7116 211.248 56.7116C211.806 56.7116 212.294 56.8235 212.713 57.0472C213.132 57.2674 213.457 57.6065 213.688 58.0646C213.922 58.5192 214.039 59.098 214.039 59.8011V65H212.782V59.8864C212.782 59.2365 212.613 58.734 212.276 58.3789C211.942 58.0202 211.479 57.8409 210.886 57.8409C210.474 57.8409 210.105 57.9279 209.778 58.1019C209.455 58.2759 209.199 58.5298 209.011 58.8636C208.826 59.1974 208.734 59.6023 208.734 60.0781ZM216.339 65V56.8182H217.596V65H216.339ZM216.978 55.4545C216.733 55.4545 216.522 55.3711 216.344 55.2042C216.17 55.0373 216.083 54.8366 216.083 54.6023C216.083 54.3679 216.17 54.1673 216.344 54.0004C216.522 53.8335 216.733 53.75 216.978 53.75C217.223 53.75 217.433 53.8335 217.607 54.0004C217.784 54.1673 217.873 54.3679 217.873 54.6023C217.873 54.8366 217.784 55.0373 217.607 55.2042C217.433 55.3711 217.223 55.4545 216.978 55.4545ZM223.457 56.8182V57.8835H219.217V56.8182H223.457ZM220.453 54.858H221.71V62.6562C221.71 63.0114 221.761 63.2777 221.864 63.4553C221.971 63.6293 222.106 63.7464 222.269 63.8068C222.436 63.8636 222.612 63.892 222.796 63.892C222.935 63.892 223.048 63.8849 223.137 63.8707C223.226 63.853 223.297 63.8388 223.35 63.8281L223.606 64.9574C223.521 64.9893 223.402 65.0213 223.249 65.0533C223.096 65.0888 222.903 65.1065 222.669 65.1065C222.313 65.1065 221.965 65.0302 221.624 64.8775C221.287 64.7248 221.007 64.4922 220.783 64.1797C220.563 63.8672 220.453 63.473 220.453 62.9972V54.858ZM228.69 65.1705C227.902 65.1705 227.222 64.9964 226.65 64.6484C226.082 64.2969 225.643 63.8068 225.335 63.1783C225.029 62.5462 224.876 61.8111 224.876 60.973C224.876 60.1349 225.029 59.3963 225.335 58.7571C225.643 58.1143 226.073 57.6136 226.624 57.255C227.178 56.8928 227.824 56.7116 228.562 56.7116C228.989 56.7116 229.409 56.7827 229.825 56.9247C230.24 57.0668 230.619 57.2976 230.96 57.6172C231.3 57.9332 231.572 58.3523 231.775 58.8743C231.977 59.3963 232.078 60.0391 232.078 60.8026V61.3352H225.771V60.2486H230.8C230.8 59.7869 230.707 59.375 230.523 59.0128C230.342 58.6506 230.082 58.3647 229.745 58.1552C229.411 57.9457 229.017 57.8409 228.562 57.8409C228.062 57.8409 227.629 57.9652 227.263 58.2138C226.901 58.4588 226.622 58.7784 226.426 59.1726C226.231 59.5668 226.134 59.9893 226.134 60.4403V61.1648C226.134 61.7827 226.24 62.3065 226.453 62.7362C226.67 63.1623 226.97 63.4872 227.353 63.7109C227.737 63.9311 228.183 64.0412 228.69 64.0412C229.021 64.0412 229.319 63.995 229.585 63.9027C229.855 63.8068 230.088 63.6648 230.283 63.4766C230.478 63.2848 230.629 63.0469 230.736 62.7628L231.95 63.1037C231.822 63.5156 231.608 63.8778 231.306 64.1903C231.004 64.4993 230.631 64.7408 230.187 64.9148C229.743 65.0852 229.244 65.1705 228.69 65.1705ZM237.314 65.1705C236.547 65.1705 235.887 64.9893 235.333 64.6271C234.779 64.2649 234.353 63.766 234.054 63.1303C233.756 62.4947 233.607 61.7685 233.607 60.9517C233.607 60.1207 233.76 59.3874 234.065 58.7518C234.374 58.1126 234.804 57.6136 235.354 57.255C235.908 56.8928 236.554 56.7116 237.293 56.7116C237.868 56.7116 238.387 56.8182 238.848 57.0312C239.31 57.2443 239.688 57.5426 239.983 57.9261C240.278 58.3097 240.461 58.7571 240.532 59.2685H239.275C239.179 58.8956 238.966 58.5653 238.635 58.2777C238.309 57.9865 237.868 57.8409 237.314 57.8409C236.824 57.8409 236.395 57.9687 236.025 58.2244C235.659 58.4766 235.374 58.8335 235.168 59.2951C234.965 59.7532 234.864 60.2912 234.864 60.9091C234.864 61.5412 234.963 62.0916 235.162 62.5604C235.365 63.0291 235.649 63.3931 236.015 63.6523C236.384 63.9116 236.817 64.0412 237.314 64.0412C237.641 64.0412 237.938 63.9844 238.204 63.8707C238.47 63.7571 238.696 63.5938 238.88 63.3807C239.065 63.1676 239.196 62.9119 239.275 62.6136H240.532C240.461 63.0966 240.285 63.5316 240.004 63.9187C239.727 64.3022 239.36 64.6076 238.902 64.8349C238.447 65.0586 237.918 65.1705 237.314 65.1705ZM245.928 56.8182V57.8835H241.688V56.8182H245.928ZM242.923 54.858H244.18V62.6562C244.18 63.0114 244.232 63.2777 244.335 63.4553C244.441 63.6293 244.576 63.7464 244.74 63.8068C244.907 63.8636 245.082 63.892 245.267 63.892C245.406 63.892 245.519 63.8849 245.608 63.8707C245.697 63.853 245.768 63.8388 245.821 63.8281L246.077 64.9574C245.991 64.9893 245.873 65.0213 245.72 65.0533C245.567 65.0888 245.374 65.1065 245.139 65.1065C244.784 65.1065 244.436 65.0302 244.095 64.8775C243.758 64.7248 243.477 64.4922 243.254 64.1797C243.033 63.8672 242.923 63.473 242.923 62.9972V54.858ZM252.975 61.6548V56.8182H254.232V65H252.975V63.6151H252.89C252.698 64.0305 252.4 64.3839 251.995 64.6751C251.59 64.9627 251.078 65.1065 250.461 65.1065C249.949 65.1065 249.495 64.9947 249.097 64.771C248.699 64.5437 248.387 64.2028 248.159 63.7482C247.932 63.2901 247.819 62.7131 247.819 62.017V56.8182H249.076V61.9318C249.076 62.5284 249.243 63.0043 249.576 63.3594C249.914 63.7145 250.343 63.892 250.865 63.892C251.178 63.892 251.496 63.8121 251.819 63.6523C252.146 63.4925 252.419 63.2475 252.639 62.9173C252.863 62.587 252.975 62.1662 252.975 61.6548ZM256.534 65V56.8182H257.749V58.054H257.834C257.983 57.6491 258.253 57.3207 258.644 57.0685C259.034 56.8164 259.475 56.6903 259.965 56.6903C260.057 56.6903 260.172 56.6921 260.311 56.6957C260.449 56.6992 260.554 56.7045 260.625 56.7116V57.9901C260.583 57.9794 260.485 57.9634 260.332 57.9421C260.183 57.9173 260.025 57.9048 259.858 57.9048C259.46 57.9048 259.105 57.9883 258.793 58.1552C258.484 58.3185 258.239 58.5458 258.058 58.837C257.88 59.1246 257.791 59.4531 257.791 59.8224V65H256.534ZM265.297 65.1705C264.508 65.1705 263.828 64.9964 263.257 64.6484C262.688 64.2969 262.25 63.8068 261.941 63.1783C261.636 62.5462 261.483 61.8111 261.483 60.973C261.483 60.1349 261.636 59.3963 261.941 58.7571C262.25 58.1143 262.68 57.6136 263.23 57.255C263.784 56.8928 264.43 56.7116 265.169 56.7116C265.595 56.7116 266.016 56.7827 266.431 56.9247C266.847 57.0668 267.225 57.2976 267.566 57.6172C267.907 57.9332 268.179 58.3523 268.381 58.8743C268.583 59.3963 268.685 60.0391 268.685 60.8026V61.3352H262.378V60.2486H267.406C267.406 59.7869 267.314 59.375 267.129 59.0128C266.948 58.6506 266.689 58.3647 266.351 58.1552C266.018 57.9457 265.623 57.8409 265.169 57.8409C264.668 57.8409 264.235 57.9652 263.869 58.2138C263.507 58.4588 263.228 58.7784 263.033 59.1726C262.838 59.5668 262.74 59.9893 262.74 60.4403V61.1648C262.74 61.7827 262.847 62.3065 263.06 62.7362C263.276 63.1623 263.576 63.4872 263.96 63.7109C264.343 63.9311 264.789 64.0412 265.297 64.0412C265.627 64.0412 265.925 63.995 266.192 63.9027C266.462 63.8068 266.694 63.6648 266.889 63.4766C267.085 63.2848 267.236 63.0469 267.342 62.7628L268.557 63.1037C268.429 63.5156 268.214 63.8778 267.912 64.1903C267.61 64.4993 267.237 64.7408 266.794 64.9148C266.35 65.0852 265.851 65.1705 265.297 65.1705Z" fill="#A9A9A9"/>
</svg>
