<svg width="360" height="138" viewBox="0 0 360 138" fill="none" xmlns="http://www.w3.org/2000/svg">
<rect width="360" height="138" rx="10" fill="white"/>
<path d="M34.52 43.24C33.2133 43.24 32.0667 42.94 31.08 42.34C30.0933 41.7267 29.3267 40.88 28.78 39.8C28.2333 38.72 27.96 37.46 27.96 36.02C27.96 34.5933 28.2333 33.3333 28.78 32.24C29.34 31.1467 30.1267 30.2933 31.14 29.68C32.1667 29.0667 33.3733 28.76 34.76 28.76C36.3333 28.76 37.6467 29.14 38.7 29.9C39.7533 30.6467 40.4267 31.6933 40.72 33.04H38.78C38.5933 32.2 38.1533 31.5333 37.46 31.04C36.7667 30.5467 35.8667 30.3 34.76 30.3C33.7333 30.3 32.8333 30.5333 32.06 31C31.3 31.4533 30.7133 32.1067 30.3 32.96C29.8867 33.8133 29.68 34.8333 29.68 36.02C29.68 37.2067 29.8867 38.2333 30.3 39.1C30.7133 39.9533 31.2867 40.6067 32.02 41.06C32.7667 41.5133 33.62 41.74 34.58 41.74C36.0733 41.74 37.2 41.3 37.96 40.42C38.72 39.54 39.1533 38.3467 39.26 36.84H35.22V35.52H40.98V43H39.44L39.3 40.7C38.9667 41.2467 38.58 41.7133 38.14 42.1C37.7133 42.4733 37.2067 42.76 36.62 42.96C36.0333 43.1467 35.3333 43.24 34.52 43.24ZM47.9763 43.24C47.0296 43.24 46.1896 43.02 45.4563 42.58C44.7363 42.14 44.1696 41.5267 43.7563 40.74C43.3429 39.94 43.1363 39.0133 43.1363 37.96C43.1363 36.8933 43.3363 35.9667 43.7363 35.18C44.1496 34.3933 44.7229 33.78 45.4563 33.34C46.2029 32.9 47.0563 32.68 48.0163 32.68C49.0029 32.68 49.8363 32.9 50.5163 33.34C51.2096 33.78 51.7363 34.36 52.0963 35.08C52.4696 35.7867 52.6563 36.5667 52.6563 37.42C52.6563 37.5533 52.6563 37.6933 52.6563 37.84C52.6563 37.9867 52.6496 38.1533 52.6363 38.34H44.3963V37.04H51.0163C50.9763 36.12 50.6696 35.4 50.0963 34.88C49.5363 34.36 48.8296 34.1 47.9763 34.1C47.4029 34.1 46.8696 34.2333 46.3763 34.5C45.8963 34.7533 45.5096 35.1333 45.2163 35.64C44.9229 36.1333 44.7763 36.7533 44.7763 37.5V38.06C44.7763 38.8867 44.9229 39.58 45.2163 40.14C45.5229 40.7 45.9163 41.12 46.3963 41.4C46.8896 41.68 47.4163 41.82 47.9763 41.82C48.6829 41.82 49.2629 41.6667 49.7163 41.36C50.1829 41.04 50.5163 40.6133 50.7163 40.08H52.3763C52.2163 40.68 51.9363 41.22 51.5363 41.7C51.1363 42.18 50.6363 42.56 50.0363 42.84C49.4496 43.1067 48.7629 43.24 47.9763 43.24ZM58.5514 43C57.9514 43 57.4314 42.9067 56.9914 42.72C56.5514 42.5333 56.2114 42.22 55.9714 41.78C55.7447 41.3267 55.6314 40.72 55.6314 39.96V34.34H53.8714V32.92H55.6314L55.8514 30.48H57.3114V32.92H60.2314V34.34H57.3114V39.96C57.3114 40.5867 57.4381 41.0133 57.6914 41.24C57.9447 41.4533 58.3914 41.56 59.0314 41.56H60.1114V43H58.5514ZM72.2959 43.24C71.2693 43.24 70.3759 43.0533 69.6159 42.68C68.8559 42.3067 68.2693 41.7867 67.8559 41.12C67.4426 40.4533 67.2359 39.68 67.2359 38.8H68.9959C68.9959 39.3467 69.1226 39.8533 69.3759 40.32C69.6293 40.7733 69.9959 41.14 70.4759 41.42C70.9693 41.6867 71.5759 41.82 72.2959 41.82C72.9226 41.82 73.4559 41.72 73.8959 41.52C74.3493 41.3067 74.6893 41.02 74.9159 40.66C75.1559 40.3 75.2759 39.8933 75.2759 39.44C75.2759 38.8933 75.1559 38.4533 74.9159 38.12C74.6893 37.7733 74.3759 37.4933 73.9759 37.28C73.5759 37.0667 73.1093 36.88 72.5759 36.72C72.0559 36.5467 71.5093 36.3667 70.9359 36.18C69.8293 35.8067 69.0159 35.34 68.4959 34.78C67.9759 34.22 67.7159 33.4933 67.7159 32.6C67.7159 31.84 67.8893 31.1733 68.2359 30.6C68.5959 30.0267 69.1026 29.58 69.7559 29.26C70.4226 28.9267 71.2093 28.76 72.1159 28.76C73.0093 28.76 73.7826 28.9267 74.4359 29.26C75.1026 29.5933 75.6226 30.0533 75.9959 30.64C76.3693 31.2133 76.5559 31.88 76.5559 32.64H74.7959C74.7959 32.2533 74.6959 31.8733 74.4959 31.5C74.2959 31.1267 73.9893 30.82 73.5759 30.58C73.1759 30.3267 72.6693 30.2 72.0559 30.2C71.5493 30.1867 71.0959 30.2733 70.6959 30.46C70.3093 30.6333 70.0026 30.8867 69.7759 31.22C69.5626 31.5533 69.4559 31.96 69.4559 32.44C69.4559 32.8933 69.5493 33.26 69.7359 33.54C69.9359 33.82 70.2159 34.06 70.5759 34.26C70.9493 34.4467 71.3826 34.62 71.8759 34.78C72.3693 34.94 72.9159 35.12 73.5159 35.32C74.1959 35.5467 74.7959 35.8267 75.3159 36.16C75.8493 36.48 76.2626 36.8933 76.5559 37.4C76.8626 37.9067 77.0159 38.5533 77.0159 39.34C77.0159 40.0067 76.8359 40.64 76.4759 41.24C76.1293 41.8267 75.6093 42.3067 74.9159 42.68C74.2226 43.0533 73.3493 43.24 72.2959 43.24ZM83.2975 43C82.6975 43 82.1775 42.9067 81.7375 42.72C81.2975 42.5333 80.9575 42.22 80.7175 41.78C80.4908 41.3267 80.3775 40.72 80.3775 39.96V34.34H78.6175V32.92H80.3775L80.5975 30.48H82.0575V32.92H84.9775V34.34H82.0575V39.96C82.0575 40.5867 82.1842 41.0133 82.4375 41.24C82.6908 41.4533 83.1375 41.56 83.7775 41.56H84.8575V43H83.2975ZM90.4495 43.24C89.6362 43.24 88.9562 43.1 88.4095 42.82C87.8629 42.5267 87.4562 42.1467 87.1895 41.68C86.9229 41.2 86.7895 40.68 86.7895 40.12C86.7895 39.44 86.9629 38.8667 87.3095 38.4C87.6695 37.92 88.1695 37.56 88.8095 37.32C89.4629 37.0667 90.2295 36.94 91.1095 36.94H93.7695C93.7695 36.3133 93.6695 35.7933 93.4695 35.38C93.2829 34.9533 93.0029 34.6333 92.6295 34.42C92.2695 34.2067 91.8162 34.1 91.2695 34.1C90.6295 34.1 90.0762 34.26 89.6095 34.58C89.1429 34.9 88.8562 35.3733 88.7495 36H87.0295C87.1095 35.28 87.3495 34.68 87.7495 34.2C88.1629 33.7067 88.6829 33.3333 89.3095 33.08C89.9362 32.8133 90.5895 32.68 91.2695 32.68C92.2029 32.68 92.9762 32.8533 93.5895 33.2C94.2162 33.5333 94.6829 34.0067 94.9895 34.62C95.2962 35.22 95.4495 35.9333 95.4495 36.76V43H93.9495L93.8495 41.22C93.7162 41.5 93.5429 41.7667 93.3295 42.02C93.1295 42.26 92.8895 42.4733 92.6095 42.66C92.3295 42.8333 92.0095 42.9733 91.6495 43.08C91.3029 43.1867 90.9029 43.24 90.4495 43.24ZM90.7095 41.82C91.1762 41.82 91.5962 41.7267 91.9695 41.54C92.3562 41.34 92.6829 41.0733 92.9495 40.74C93.2162 40.3933 93.4162 40.0133 93.5495 39.6C93.6962 39.1867 93.7695 38.7533 93.7695 38.3V38.24H91.2495C90.5962 38.24 90.0695 38.32 89.6695 38.48C89.2695 38.6267 88.9829 38.84 88.8095 39.12C88.6362 39.3867 88.5495 39.6933 88.5495 40.04C88.5495 40.4 88.6295 40.7133 88.7895 40.98C88.9629 41.2467 89.2095 41.4533 89.5295 41.6C89.8629 41.7467 90.2562 41.82 90.7095 41.82ZM98.0484 43V32.92H99.5684L99.6884 34.84C99.9151 34.3867 100.202 34 100.548 33.68C100.908 33.36 101.335 33.1133 101.828 32.94C102.335 32.7667 102.908 32.68 103.548 32.68V34.44H102.928C102.502 34.44 102.095 34.5 101.708 34.62C101.322 34.7267 100.975 34.9067 100.668 35.16C100.375 35.4133 100.142 35.76 99.9684 36.2C99.8084 36.6267 99.7284 37.16 99.7284 37.8V43H98.0484ZM109.411 43C108.811 43 108.291 42.9067 107.851 42.72C107.411 42.5333 107.071 42.22 106.831 41.78C106.604 41.3267 106.491 40.72 106.491 39.96V34.34H104.731V32.92H106.491L106.711 30.48H108.171V32.92H111.091V34.34H108.171V39.96C108.171 40.5867 108.297 41.0133 108.551 41.24C108.804 41.4533 109.251 41.56 109.891 41.56H110.971V43H109.411ZM117.429 43.24C116.483 43.24 115.643 43.02 114.909 42.58C114.189 42.14 113.623 41.5267 113.209 40.74C112.796 39.94 112.589 39.0133 112.589 37.96C112.589 36.8933 112.789 35.9667 113.189 35.18C113.603 34.3933 114.176 33.78 114.909 33.34C115.656 32.9 116.509 32.68 117.469 32.68C118.456 32.68 119.289 32.9 119.969 33.34C120.663 33.78 121.189 34.36 121.549 35.08C121.923 35.7867 122.109 36.5667 122.109 37.42C122.109 37.5533 122.109 37.6933 122.109 37.84C122.109 37.9867 122.103 38.1533 122.089 38.34H113.849V37.04H120.469C120.429 36.12 120.123 35.4 119.549 34.88C118.989 34.36 118.283 34.1 117.429 34.1C116.856 34.1 116.323 34.2333 115.829 34.5C115.349 34.7533 114.963 35.1333 114.669 35.64C114.376 36.1333 114.229 36.7533 114.229 37.5V38.06C114.229 38.8867 114.376 39.58 114.669 40.14C114.976 40.7 115.369 41.12 115.849 41.4C116.343 41.68 116.869 41.82 117.429 41.82C118.136 41.82 118.716 41.6667 119.169 41.36C119.636 41.04 119.969 40.6133 120.169 40.08H121.829C121.669 40.68 121.389 41.22 120.989 41.7C120.589 42.18 120.089 42.56 119.489 42.84C118.903 43.1067 118.216 43.24 117.429 43.24ZM128.817 43.24C127.843 43.24 126.99 43.0133 126.257 42.56C125.523 42.0933 124.957 41.46 124.557 40.66C124.157 39.86 123.957 38.9533 123.957 37.94C123.957 36.9267 124.157 36.0267 124.557 35.24C124.957 34.44 125.523 33.8133 126.257 33.36C127.003 32.9067 127.863 32.68 128.837 32.68C129.663 32.68 130.383 32.8467 130.997 33.18C131.623 33.5133 132.103 33.98 132.437 34.58V28.6H134.117V43H132.597L132.457 41.34C132.243 41.6733 131.97 41.9867 131.637 42.28C131.303 42.56 130.903 42.7933 130.437 42.98C129.97 43.1533 129.43 43.24 128.817 43.24ZM129.017 41.78C129.683 41.78 130.27 41.62 130.777 41.3C131.283 40.98 131.677 40.54 131.957 39.98C132.237 39.4067 132.377 38.7333 132.377 37.96C132.377 37.2 132.237 36.5333 131.957 35.96C131.677 35.3867 131.283 34.94 130.777 34.62C130.27 34.3 129.683 34.14 129.017 34.14C128.363 34.14 127.783 34.3 127.277 34.62C126.77 34.94 126.377 35.3867 126.097 35.96C125.817 36.5333 125.677 37.2 125.677 37.96C125.677 38.7333 125.817 39.4067 126.097 39.98C126.377 40.54 126.77 40.98 127.277 41.3C127.783 41.62 128.363 41.78 129.017 41.78Z" fill="black"/>
<path d="M37.0994 59.5H35.7784C35.7003 59.12 35.5636 58.7862 35.3683 58.4986C35.1765 58.2109 34.9421 57.9695 34.6651 57.7741C34.3917 57.5753 34.0881 57.4261 33.7543 57.3267C33.4205 57.2273 33.0724 57.1776 32.7102 57.1776C32.0497 57.1776 31.4513 57.3445 30.9151 57.6783C30.3825 58.0121 29.9581 58.5039 29.642 59.1538C29.3295 59.8036 29.1733 60.6009 29.1733 61.5455C29.1733 62.4901 29.3295 63.2873 29.642 63.9371C29.9581 64.587 30.3825 65.0788 30.9151 65.4126C31.4513 65.7464 32.0497 65.9134 32.7102 65.9134C33.0724 65.9134 33.4205 65.8636 33.7543 65.7642C34.0881 65.6648 34.3917 65.5174 34.6651 65.3221C34.9421 65.1232 35.1765 64.88 35.3683 64.5923C35.5636 64.3011 35.7003 63.9673 35.7784 63.5909H37.0994C37 64.1484 36.8189 64.6474 36.5561 65.0877C36.2933 65.5281 35.9666 65.9027 35.576 66.2116C35.1854 66.517 34.7468 66.7496 34.2603 66.9094C33.7773 67.0692 33.2607 67.1491 32.7102 67.1491C31.7798 67.1491 30.9524 66.9219 30.228 66.4673C29.5036 66.0128 28.9336 65.3665 28.5181 64.5284C28.1026 63.6903 27.8949 62.696 27.8949 61.5455C27.8949 60.3949 28.1026 59.4006 28.5181 58.5625C28.9336 57.7244 29.5036 57.0781 30.228 56.6236C30.9524 56.169 31.7798 55.9418 32.7102 55.9418C33.2607 55.9418 33.7773 56.0217 34.2603 56.1815C34.7468 56.3413 35.1854 56.5756 35.576 56.8846C35.9666 57.19 36.2933 57.5629 36.5561 58.0032C36.8189 58.44 37 58.9389 37.0994 59.5ZM39.0637 67V58.8182H40.2781V60.054H40.3634C40.5125 59.6491 40.7824 59.3207 41.173 59.0685C41.5637 58.8164 42.004 58.6903 42.4941 58.6903C42.5864 58.6903 42.7018 58.6921 42.8403 58.6957C42.9788 58.6992 43.0835 58.7045 43.1546 58.7116V59.9901C43.1119 59.9794 43.0143 59.9634 42.8616 59.9421C42.7124 59.9173 42.5544 59.9048 42.3875 59.9048C41.9898 59.9048 41.6347 59.9883 41.3222 60.1552C41.0132 60.3185 40.7682 60.5458 40.5871 60.837C40.4095 61.1246 40.3208 61.4531 40.3208 61.8224V67H39.0637ZM47.8261 67.1705C47.0377 67.1705 46.3577 66.9964 45.786 66.6484C45.2178 66.2969 44.7792 65.8068 44.4703 65.1783C44.1649 64.5462 44.0122 63.8111 44.0122 62.973C44.0122 62.1349 44.1649 61.3963 44.4703 60.7571C44.7792 60.1143 45.2089 59.6136 45.7593 59.255C46.3133 58.8928 46.9596 58.7116 47.6982 58.7116C48.1244 58.7116 48.5452 58.7827 48.9607 58.9247C49.3762 59.0668 49.7544 59.2976 50.0953 59.6172C50.4362 59.9332 50.7078 60.3523 50.9102 60.8743C51.1127 61.3963 51.2139 62.0391 51.2139 62.8026V63.3352H44.907V62.2486H49.9355C49.9355 61.7869 49.8431 61.375 49.6585 61.0128C49.4774 60.6506 49.2181 60.3647 48.8808 60.1552C48.547 59.9457 48.1528 59.8409 47.6982 59.8409C47.1975 59.8409 46.7643 59.9652 46.3985 60.2138C46.0363 60.4588 45.7575 60.7784 45.5622 61.1726C45.3669 61.5668 45.2693 61.9893 45.2693 62.4403V63.1648C45.2693 63.7827 45.3758 64.3065 45.5889 64.7362C45.8055 65.1623 46.1056 65.4872 46.4891 65.7109C46.8726 65.9311 47.3183 66.0412 47.8261 66.0412C48.1563 66.0412 48.4546 65.995 48.721 65.9027C48.9909 65.8068 49.2235 65.6648 49.4188 65.4766C49.6141 65.2848 49.765 65.0469 49.8715 64.7628L51.086 65.1037C50.9582 65.5156 50.7433 65.8778 50.4415 66.1903C50.1396 66.4993 49.7668 66.7408 49.3229 66.9148C48.879 67.0852 48.3801 67.1705 47.8261 67.1705ZM55.5338 67.1918C55.0154 67.1918 54.5448 67.0941 54.1222 66.8988C53.6997 66.6999 53.3641 66.4141 53.1155 66.0412C52.8669 65.6648 52.7426 65.2102 52.7426 64.6776C52.7426 64.2088 52.835 63.8288 53.0196 63.5376C53.2043 63.2429 53.4511 63.0121 53.76 62.8452C54.069 62.6783 54.4099 62.554 54.7828 62.4723C55.1592 62.3871 55.5374 62.3196 55.9173 62.2699C56.4145 62.206 56.8176 62.158 57.1265 62.1261C57.439 62.0906 57.6663 62.032 57.8083 61.9503C57.9539 61.8686 58.0267 61.7266 58.0267 61.5241V61.4815C58.0267 60.956 57.8829 60.5476 57.5953 60.2564C57.3112 59.9652 56.8797 59.8196 56.3009 59.8196C55.7007 59.8196 55.2302 59.951 54.8893 60.2138C54.5484 60.4766 54.3087 60.7571 54.1702 61.0554L52.977 60.6293C53.1901 60.1321 53.4742 59.745 53.8293 59.468C54.1879 59.1875 54.5786 58.9922 55.0012 58.8821C55.4273 58.7685 55.8463 58.7116 56.2583 58.7116C56.521 58.7116 56.8229 58.7436 57.1638 58.8075C57.5083 58.8679 57.8403 58.994 58.1599 59.1857C58.483 59.3775 58.7512 59.6669 58.9642 60.054C59.1773 60.4411 59.2838 60.9595 59.2838 61.6094V67H58.0267V65.892H57.9628C57.8776 66.0696 57.7355 66.2596 57.5367 66.462C57.3378 66.6644 57.0732 66.8366 56.743 66.9787C56.4127 67.1207 56.0097 67.1918 55.5338 67.1918ZM55.7256 66.0625C56.2227 66.0625 56.6418 65.9648 56.9827 65.7695C57.3271 65.5742 57.5864 65.3221 57.7604 65.0131C57.9379 64.7042 58.0267 64.3793 58.0267 64.0384V62.8878C57.9735 62.9517 57.8563 63.0103 57.6752 63.0636C57.4976 63.1133 57.2916 63.1577 57.0573 63.1967C56.8264 63.2322 56.6009 63.2642 56.3808 63.2926C56.1642 63.3175 55.9884 63.3388 55.8534 63.3565C55.5267 63.3991 55.2213 63.4684 54.9372 63.5643C54.6567 63.6566 54.4294 63.7969 54.2554 63.9851C54.085 64.1697 53.9997 64.4219 53.9997 64.7415C53.9997 65.1783 54.1613 65.5085 54.4845 65.7322C54.8112 65.9524 55.2249 66.0625 55.7256 66.0625ZM65.1365 58.8182V59.8835H60.8965V58.8182H65.1365ZM62.1323 56.858H63.3894V64.6562C63.3894 65.0114 63.4409 65.2777 63.5439 65.4553C63.6504 65.6293 63.7853 65.7464 63.9487 65.8068C64.1156 65.8636 64.2914 65.892 64.476 65.892C64.6145 65.892 64.7282 65.8849 64.8169 65.8707C64.9057 65.853 64.9767 65.8388 65.03 65.8281L65.2857 66.9574C65.2005 66.9893 65.0815 67.0213 64.9288 67.0533C64.7761 67.0888 64.5826 67.1065 64.3482 67.1065C63.9931 67.1065 63.6451 67.0302 63.3042 66.8775C62.9668 66.7248 62.6863 66.4922 62.4625 66.1797C62.2424 65.8672 62.1323 65.473 62.1323 64.9972V56.858ZM70.37 67.1705C69.5817 67.1705 68.9016 66.9964 68.3299 66.6484C67.7617 66.2969 67.3232 65.8068 67.0142 65.1783C66.7088 64.5462 66.5561 63.8111 66.5561 62.973C66.5561 62.1349 66.7088 61.3963 67.0142 60.7571C67.3232 60.1143 67.7528 59.6136 68.3033 59.255C68.8572 58.8928 69.5036 58.7116 70.2422 58.7116C70.6683 58.7116 71.0891 58.7827 71.5046 58.9247C71.9201 59.0668 72.2983 59.2976 72.6392 59.6172C72.9801 59.9332 73.2518 60.3523 73.4542 60.8743C73.6566 61.3963 73.7578 62.0391 73.7578 62.8026V63.3352H67.451V62.2486H72.4794C72.4794 61.7869 72.3871 61.375 72.2024 61.0128C72.0213 60.6506 71.7621 60.3647 71.4247 60.1552C71.0909 59.9457 70.6967 59.8409 70.2422 59.8409C69.7415 59.8409 69.3082 59.9652 68.9425 60.2138C68.5803 60.4588 68.3015 60.7784 68.1062 61.1726C67.9109 61.5668 67.8132 61.9893 67.8132 62.4403V63.1648C67.8132 63.7827 67.9197 64.3065 68.1328 64.7362C68.3494 65.1623 68.6495 65.4872 69.033 65.7109C69.4165 65.9311 69.8622 66.0412 70.37 66.0412C70.7003 66.0412 70.9986 65.995 71.2649 65.9027C71.5348 65.8068 71.7674 65.6648 71.9627 65.4766C72.158 65.2848 72.3089 65.0469 72.4155 64.7628L73.63 65.1037C73.5021 65.5156 73.2873 65.8778 72.9854 66.1903C72.6836 66.4993 72.3107 66.7408 71.8668 66.9148C71.4229 67.0852 70.924 67.1705 70.37 67.1705ZM82.2965 67.1918C81.7781 67.1918 81.3075 67.0941 80.8849 66.8988C80.4624 66.6999 80.1268 66.4141 79.8782 66.0412C79.6296 65.6648 79.5053 65.2102 79.5053 64.6776C79.5053 64.2088 79.5977 63.8288 79.7823 63.5376C79.967 63.2429 80.2138 63.0121 80.5227 62.8452C80.8317 62.6783 81.1726 62.554 81.5455 62.4723C81.9219 62.3871 82.3001 62.3196 82.68 62.2699C83.1772 62.206 83.5803 62.158 83.8892 62.1261C84.2017 62.0906 84.429 62.032 84.571 61.9503C84.7166 61.8686 84.7894 61.7266 84.7894 61.5241V61.4815C84.7894 60.956 84.6456 60.5476 84.358 60.2564C84.0739 59.9652 83.6424 59.8196 83.0636 59.8196C82.4634 59.8196 81.9929 59.951 81.652 60.2138C81.3111 60.4766 81.0714 60.7571 80.9329 61.0554L79.7397 60.6293C79.9528 60.1321 80.2369 59.745 80.592 59.468C80.9506 59.1875 81.3413 58.9922 81.7638 58.8821C82.19 58.7685 82.609 58.7116 83.021 58.7116C83.2837 58.7116 83.5856 58.7436 83.9265 58.8075C84.271 58.8679 84.603 58.994 84.9226 59.1857C85.2457 59.3775 85.5138 59.6669 85.7269 60.054C85.94 60.4411 86.0465 60.9595 86.0465 61.6094V67H84.7894V65.892H84.7255C84.6403 66.0696 84.4982 66.2596 84.2994 66.462C84.1005 66.6644 83.8359 66.8366 83.5057 66.9787C83.1754 67.1207 82.7724 67.1918 82.2965 67.1918ZM82.4883 66.0625C82.9854 66.0625 83.4045 65.9648 83.7454 65.7695C84.0898 65.5742 84.3491 65.3221 84.5231 65.0131C84.7006 64.7042 84.7894 64.3793 84.7894 64.0384V62.8878C84.7362 62.9517 84.619 63.0103 84.4379 63.0636C84.2603 63.1133 84.0543 63.1577 83.82 63.1967C83.5891 63.2322 83.3636 63.2642 83.1435 63.2926C82.9268 63.3175 82.7511 63.3388 82.6161 63.3565C82.2894 63.3991 81.984 63.4684 81.6999 63.5643C81.4194 63.6566 81.1921 63.7969 81.0181 63.9851C80.8477 64.1697 80.7624 64.4219 80.7624 64.7415C80.7624 65.1783 80.924 65.5085 81.2472 65.7322C81.5739 65.9524 81.9876 66.0625 82.4883 66.0625ZM89.5981 62.0781V67H88.341V58.8182H89.5555V60.0966H89.662C89.8538 59.6811 90.145 59.3473 90.5356 59.0952C90.9262 58.8395 91.4305 58.7116 92.0484 58.7116C92.6024 58.7116 93.0871 58.8253 93.5026 59.0526C93.9181 59.2763 94.2412 59.6172 94.472 60.0753C94.7029 60.5298 94.8183 61.1051 94.8183 61.8011V67H93.5612V61.8864C93.5612 61.2436 93.3943 60.7429 93.0605 60.3842C92.7267 60.022 92.2686 59.8409 91.6862 59.8409C91.2849 59.8409 90.9262 59.9279 90.6102 60.1019C90.2977 60.2759 90.0509 60.5298 89.8698 60.8636C89.6887 61.1974 89.5981 61.6023 89.5981 62.0781ZM100.205 67.1705C99.5231 67.1705 98.9212 66.9982 98.3991 66.6538C97.8771 66.3058 97.4688 65.8157 97.174 65.1836C96.8793 64.5479 96.7319 63.7969 96.7319 62.9304C96.7319 62.071 96.8793 61.3253 97.174 60.6932C97.4688 60.0611 97.8789 59.5728 98.4045 59.2283C98.93 58.8839 99.5373 58.7116 100.226 58.7116C100.759 58.7116 101.18 58.8004 101.489 58.978C101.801 59.152 102.039 59.3509 102.202 59.5746C102.369 59.7947 102.499 59.9759 102.591 60.1179H102.698V56.0909H103.955V67H102.74V65.7429H102.591C102.499 65.892 102.368 66.0803 102.197 66.3075C102.027 66.5312 101.783 66.7319 101.467 66.9094C101.151 67.0835 100.73 67.1705 100.205 67.1705ZM100.375 66.0412C100.88 66.0412 101.306 65.9098 101.654 65.647C102.002 65.3807 102.266 65.0131 102.447 64.5444C102.629 64.0721 102.719 63.527 102.719 62.9091C102.719 62.2983 102.63 61.7638 102.453 61.3058C102.275 60.8441 102.012 60.4854 101.664 60.2298C101.316 59.9705 100.887 59.8409 100.375 59.8409C99.8427 59.8409 99.3988 59.9776 99.0437 60.2511C98.6921 60.521 98.4276 60.8885 98.25 61.3537C98.076 61.8153 97.989 62.3338 97.989 62.9091C97.989 63.4915 98.0778 64.0206 98.2553 64.4964C98.4364 64.9687 98.7028 65.3452 99.0543 65.6257C99.4094 65.9027 99.8498 66.0412 100.375 66.0412ZM110.821 67V56.0909H114.507C115.359 56.0909 116.059 56.2365 116.606 56.5277C117.153 56.8153 117.558 57.2113 117.82 57.7156C118.083 58.2198 118.214 58.7933 118.214 59.4361C118.214 60.0788 118.083 60.6488 117.82 61.146C117.558 61.6431 117.154 62.0337 116.611 62.3178C116.068 62.5984 115.374 62.7386 114.528 62.7386H111.545V61.5455H114.486C115.068 61.5455 115.537 61.4602 115.892 61.2898C116.251 61.1193 116.51 60.8778 116.67 60.5653C116.833 60.2493 116.915 59.8729 116.915 59.4361C116.915 58.9993 116.833 58.6175 116.67 58.2908C116.506 57.9641 116.245 57.712 115.887 57.5344C115.528 57.3533 115.054 57.2628 114.464 57.2628H112.142V67H110.821ZM115.956 62.0994L118.641 67H117.107L114.464 62.0994H115.956ZM125.402 63.6548V58.8182H126.659V67H125.402V65.6151H125.316C125.125 66.0305 124.826 66.3839 124.421 66.6751C124.017 66.9627 123.505 67.1065 122.887 67.1065C122.376 67.1065 121.921 66.9947 121.524 66.771C121.126 66.5437 120.813 66.2028 120.586 65.7482C120.359 65.2901 120.245 64.7131 120.245 64.017V58.8182H121.502V63.9318C121.502 64.5284 121.669 65.0043 122.003 65.3594C122.34 65.7145 122.77 65.892 123.292 65.892C123.605 65.892 123.922 65.8121 124.246 65.6523C124.572 65.4925 124.846 65.2475 125.066 64.9173C125.29 64.587 125.402 64.1662 125.402 63.6548ZM130.218 62.0781V67H128.961V58.8182H130.176V60.0966H130.282C130.474 59.6811 130.765 59.3473 131.156 59.0952C131.546 58.8395 132.051 58.7116 132.669 58.7116C133.222 58.7116 133.707 58.8253 134.123 59.0526C134.538 59.2763 134.861 59.6172 135.092 60.0753C135.323 60.5298 135.438 61.1051 135.438 61.8011V67H134.181V61.8864C134.181 61.2436 134.014 60.7429 133.681 60.3842C133.347 60.022 132.889 59.8409 132.306 59.8409C131.905 59.8409 131.546 59.9279 131.23 60.1019C130.918 60.2759 130.671 60.5298 130.49 60.8636C130.309 61.1974 130.218 61.6023 130.218 62.0781ZM144.362 67.1918C143.843 67.1918 143.373 67.0941 142.95 66.8988C142.528 66.6999 142.192 66.4141 141.944 66.0412C141.695 65.6648 141.571 65.2102 141.571 64.6776C141.571 64.2088 141.663 63.8288 141.848 63.5376C142.032 63.2429 142.279 63.0121 142.588 62.8452C142.897 62.6783 143.238 62.554 143.611 62.4723C143.987 62.3871 144.366 62.3196 144.745 62.2699C145.243 62.206 145.646 62.158 145.955 62.1261C146.267 62.0906 146.494 62.032 146.636 61.9503C146.782 61.8686 146.855 61.7266 146.855 61.5241V61.4815C146.855 60.956 146.711 60.5476 146.423 60.2564C146.139 59.9652 145.708 59.8196 145.129 59.8196C144.529 59.8196 144.058 59.951 143.717 60.2138C143.377 60.4766 143.137 60.7571 142.998 61.0554L141.805 60.6293C142.018 60.1321 142.302 59.745 142.657 59.468C143.016 59.1875 143.407 58.9922 143.829 58.8821C144.255 58.7685 144.674 58.7116 145.086 58.7116C145.349 58.7116 145.651 58.7436 145.992 58.8075C146.336 58.8679 146.668 58.994 146.988 59.1857C147.311 59.3775 147.579 59.6669 147.792 60.054C148.005 60.4411 148.112 60.9595 148.112 61.6094V67H146.855V65.892H146.791C146.706 66.0696 146.564 66.2596 146.365 66.462C146.166 66.6644 145.901 66.8366 145.571 66.9787C145.241 67.1207 144.838 67.1918 144.362 67.1918ZM144.554 66.0625C145.051 66.0625 145.47 65.9648 145.811 65.7695C146.155 65.5742 146.415 65.3221 146.589 65.0131C146.766 64.7042 146.855 64.3793 146.855 64.0384V62.8878C146.802 62.9517 146.684 63.0103 146.503 63.0636C146.326 63.1133 146.12 63.1577 145.885 63.1967C145.655 63.2322 145.429 63.2642 145.209 63.2926C144.992 63.3175 144.816 63.3388 144.682 63.3565C144.355 63.3991 144.049 63.4684 143.765 63.5643C143.485 63.6566 143.258 63.7969 143.084 63.9851C142.913 64.1697 142.828 64.4219 142.828 64.7415C142.828 65.1783 142.989 65.5085 143.313 65.7322C143.639 65.9524 144.053 66.0625 144.554 66.0625ZM157.715 67.1705C157.033 67.1705 156.431 66.9982 155.909 66.6538C155.387 66.3058 154.979 65.8157 154.684 65.1836C154.389 64.5479 154.242 63.7969 154.242 62.9304C154.242 62.071 154.389 61.3253 154.684 60.6932C154.979 60.0611 155.389 59.5728 155.914 59.2283C156.44 58.8839 157.047 58.7116 157.736 58.7116C158.269 58.7116 158.689 58.8004 158.998 58.978C159.311 59.152 159.549 59.3509 159.712 59.5746C159.879 59.7947 160.009 59.9759 160.101 60.1179H160.208V56.0909H161.465V67H160.25V65.7429H160.101C160.009 65.892 159.877 66.0803 159.707 66.3075C159.536 66.5312 159.293 66.7319 158.977 66.9094C158.661 67.0835 158.24 67.1705 157.715 67.1705ZM157.885 66.0412C158.389 66.0412 158.816 65.9098 159.164 65.647C159.512 65.3807 159.776 65.0131 159.957 64.5444C160.138 64.0721 160.229 63.527 160.229 62.9091C160.229 62.2983 160.14 61.7638 159.963 61.3058C159.785 60.8441 159.522 60.4854 159.174 60.2298C158.826 59.9705 158.396 59.8409 157.885 59.8409C157.352 59.8409 156.909 59.9776 156.553 60.2511C156.202 60.521 155.937 60.8885 155.76 61.3537C155.586 61.8153 155.499 62.3338 155.499 62.9091C155.499 63.4915 155.588 64.0206 155.765 64.4964C155.946 64.9687 156.213 65.3452 156.564 65.6257C156.919 65.9027 157.36 66.0412 157.885 66.0412ZM166.349 67.1918C165.831 67.1918 165.36 67.0941 164.938 66.8988C164.515 66.6999 164.18 66.4141 163.931 66.0412C163.682 65.6648 163.558 65.2102 163.558 64.6776C163.558 64.2088 163.65 63.8288 163.835 63.5376C164.02 63.2429 164.267 63.0121 164.575 62.8452C164.884 62.6783 165.225 62.554 165.598 62.4723C165.975 62.3871 166.353 62.3196 166.733 62.2699C167.23 62.206 167.633 62.158 167.942 62.1261C168.254 62.0906 168.482 62.032 168.624 61.9503C168.769 61.8686 168.842 61.7266 168.842 61.5241V61.4815C168.842 60.956 168.698 60.5476 168.411 60.2564C168.127 59.9652 167.695 59.8196 167.116 59.8196C166.516 59.8196 166.046 59.951 165.705 60.2138C165.364 60.4766 165.124 60.7571 164.986 61.0554L163.792 60.6293C164.006 60.1321 164.29 59.745 164.645 59.468C165.003 59.1875 165.394 58.9922 165.817 58.8821C166.243 58.7685 166.662 58.7116 167.074 58.7116C167.336 58.7116 167.638 58.7436 167.979 58.8075C168.324 58.8679 168.656 58.994 168.975 59.1857C169.298 59.3775 169.567 59.6669 169.78 60.054C169.993 60.4411 170.099 60.9595 170.099 61.6094V67H168.842V65.892H168.778C168.693 66.0696 168.551 66.2596 168.352 66.462C168.153 66.6644 167.889 66.8366 167.558 66.9787C167.228 67.1207 166.825 67.1918 166.349 67.1918ZM166.541 66.0625C167.038 66.0625 167.457 65.9648 167.798 65.7695C168.143 65.5742 168.402 65.3221 168.576 65.0131C168.753 64.7042 168.842 64.3793 168.842 64.0384V62.8878C168.789 62.9517 168.672 63.0103 168.491 63.0636C168.313 63.1133 168.107 63.1577 167.873 63.1967C167.642 63.2322 167.416 63.2642 167.196 63.2926C166.98 63.3175 166.804 63.3388 166.669 63.3565C166.342 63.3991 166.037 63.4684 165.753 63.5643C165.472 63.6566 165.245 63.7969 165.071 63.9851C164.9 64.1697 164.815 64.4219 164.815 64.7415C164.815 65.1783 164.977 65.5085 165.3 65.7322C165.627 65.9524 166.04 66.0625 166.541 66.0625ZM175.952 58.8182V59.8835H171.712V58.8182H175.952ZM172.948 56.858H174.205V64.6562C174.205 65.0114 174.256 65.2777 174.359 65.4553C174.466 65.6293 174.601 65.7464 174.764 65.8068C174.931 65.8636 175.107 65.892 175.291 65.892C175.43 65.892 175.544 65.8849 175.632 65.8707C175.721 65.853 175.792 65.8388 175.845 65.8281L176.101 66.9574C176.016 66.9893 175.897 67.0213 175.744 67.0533C175.592 67.0888 175.398 67.1065 175.164 67.1065C174.809 67.1065 174.46 67.0302 174.12 66.8775C173.782 66.7248 173.502 66.4922 173.278 66.1797C173.058 65.8672 172.948 65.473 172.948 64.9972V56.858ZM180.251 67.1918C179.732 67.1918 179.262 67.0941 178.839 66.8988C178.416 66.6999 178.081 66.4141 177.832 66.0412C177.584 65.6648 177.459 65.2102 177.459 64.6776C177.459 64.2088 177.552 63.8288 177.736 63.5376C177.921 63.2429 178.168 63.0121 178.477 62.8452C178.786 62.6783 179.127 62.554 179.5 62.4723C179.876 62.3871 180.254 62.3196 180.634 62.2699C181.131 62.206 181.534 62.158 181.843 62.1261C182.156 62.0906 182.383 62.032 182.525 61.9503C182.671 61.8686 182.744 61.7266 182.744 61.5241V61.4815C182.744 60.956 182.6 60.5476 182.312 60.2564C182.028 59.9652 181.597 59.8196 181.018 59.8196C180.418 59.8196 179.947 59.951 179.606 60.2138C179.265 60.4766 179.025 60.7571 178.887 61.0554L177.694 60.6293C177.907 60.1321 178.191 59.745 178.546 59.468C178.905 59.1875 179.295 58.9922 179.718 58.8821C180.144 58.7685 180.563 58.7116 180.975 58.7116C181.238 58.7116 181.54 58.7436 181.881 58.8075C182.225 58.8679 182.557 58.994 182.877 59.1857C183.2 59.3775 183.468 59.6669 183.681 60.054C183.894 60.4411 184.001 60.9595 184.001 61.6094V67H182.744V65.892H182.68C182.594 66.0696 182.452 66.2596 182.253 66.462C182.055 66.6644 181.79 66.8366 181.46 66.9787C181.13 67.1207 180.726 67.1918 180.251 67.1918ZM180.442 66.0625C180.94 66.0625 181.359 65.9648 181.699 65.7695C182.044 65.5742 182.303 65.3221 182.477 65.0131C182.655 64.7042 182.744 64.3793 182.744 64.0384V62.8878C182.69 62.9517 182.573 63.0103 182.392 63.0636C182.214 63.1133 182.008 63.1577 181.774 63.1967C181.543 63.2322 181.318 63.2642 181.098 63.2926C180.881 63.3175 180.705 63.3388 180.57 63.3565C180.244 63.3991 179.938 63.4684 179.654 63.5643C179.373 63.6566 179.146 63.7969 178.972 63.9851C178.802 64.1697 178.717 64.4219 178.717 64.7415C178.717 65.1783 178.878 65.5085 179.201 65.7322C179.528 65.9524 179.942 66.0625 180.442 66.0625ZM186.466 67V56.0909H187.723V60.1179H187.829C187.922 59.9759 188.049 59.7947 188.213 59.5746C188.38 59.3509 188.618 59.152 188.926 58.978C189.239 58.8004 189.662 58.7116 190.194 58.7116C190.883 58.7116 191.49 58.8839 192.016 59.2283C192.542 59.5728 192.952 60.0611 193.246 60.6932C193.541 61.3253 193.689 62.071 193.689 62.9304C193.689 63.7969 193.541 64.5479 193.246 65.1836C192.952 65.8157 192.543 66.3058 192.021 66.6538C191.499 66.9982 190.897 67.1705 190.216 67.1705C189.69 67.1705 189.269 67.0835 188.953 66.9094C188.637 66.7319 188.394 66.5312 188.223 66.3075C188.053 66.0803 187.922 65.892 187.829 65.7429H187.68V67H186.466ZM187.701 62.9091C187.701 63.527 187.792 64.0721 187.973 64.5444C188.154 65.0131 188.419 65.3807 188.767 65.647C189.115 65.9098 189.541 66.0412 190.045 66.0412C190.571 66.0412 191.009 65.9027 191.361 65.6257C191.716 65.3452 191.982 64.9687 192.16 64.4964C192.341 64.0206 192.431 63.4915 192.431 62.9091C192.431 62.3338 192.343 61.8153 192.165 61.3537C191.991 60.8885 191.727 60.521 191.371 60.2511C191.02 59.9776 190.578 59.8409 190.045 59.8409C189.534 59.8409 189.104 59.9705 188.756 60.2298C188.408 60.4854 188.145 60.8441 187.968 61.3058C187.79 61.7638 187.701 62.2983 187.701 62.9091ZM198.019 67.1918C197.501 67.1918 197.03 67.0941 196.608 66.8988C196.185 66.6999 195.849 66.4141 195.601 66.0412C195.352 65.6648 195.228 65.2102 195.228 64.6776C195.228 64.2088 195.32 63.8288 195.505 63.5376C195.69 63.2429 195.936 63.0121 196.245 62.8452C196.554 62.6783 196.895 62.554 197.268 62.4723C197.645 62.3871 198.023 62.3196 198.403 62.2699C198.9 62.206 199.303 62.158 199.612 62.1261C199.924 62.0906 200.152 62.032 200.294 61.9503C200.439 61.8686 200.512 61.7266 200.512 61.5241V61.4815C200.512 60.956 200.368 60.5476 200.081 60.2564C199.797 59.9652 199.365 59.8196 198.786 59.8196C198.186 59.8196 197.716 59.951 197.375 60.2138C197.034 60.4766 196.794 60.7571 196.656 61.0554L195.462 60.6293C195.675 60.1321 195.96 59.745 196.315 59.468C196.673 59.1875 197.064 58.9922 197.487 58.8821C197.913 58.7685 198.332 58.7116 198.744 58.7116C199.006 58.7116 199.308 58.7436 199.649 58.8075C199.994 58.8679 200.326 58.994 200.645 59.1857C200.968 59.3775 201.237 59.6669 201.45 60.054C201.663 60.4411 201.769 60.9595 201.769 61.6094V67H200.512V65.892H200.448C200.363 66.0696 200.221 66.2596 200.022 66.462C199.823 66.6644 199.559 66.8366 199.228 66.9787C198.898 67.1207 198.495 67.1918 198.019 67.1918ZM198.211 66.0625C198.708 66.0625 199.127 65.9648 199.468 65.7695C199.813 65.5742 200.072 65.3221 200.246 65.0131C200.423 64.7042 200.512 64.3793 200.512 64.0384V62.8878C200.459 62.9517 200.342 63.0103 200.161 63.0636C199.983 63.1133 199.777 63.1577 199.543 63.1967C199.312 63.2322 199.086 63.2642 198.866 63.2926C198.65 63.3175 198.474 63.3388 198.339 63.3565C198.012 63.3991 197.707 63.4684 197.423 63.5643C197.142 63.6566 196.915 63.7969 196.741 63.9851C196.57 64.1697 196.485 64.4219 196.485 64.7415C196.485 65.1783 196.647 65.5085 196.97 65.7322C197.297 65.9524 197.71 66.0625 198.211 66.0625ZM209.859 60.6506L208.73 60.9702C208.659 60.782 208.554 60.5991 208.416 60.4215C208.281 60.2404 208.096 60.0913 207.862 59.9741C207.627 59.8569 207.327 59.7983 206.961 59.7983C206.461 59.7983 206.043 59.9137 205.71 60.1445C205.379 60.3718 205.214 60.6612 205.214 61.0128C205.214 61.3253 205.328 61.5721 205.555 61.7532C205.782 61.9343 206.138 62.0852 206.62 62.206L207.835 62.5043C208.566 62.6818 209.112 62.9535 209.47 63.3192C209.829 63.6815 210.008 64.1484 210.008 64.7202C210.008 65.1889 209.873 65.608 209.603 65.9773C209.337 66.3466 208.964 66.6378 208.485 66.8509C208.005 67.0639 207.448 67.1705 206.812 67.1705C205.978 67.1705 205.287 66.9893 204.74 66.6271C204.193 66.2649 203.847 65.7358 203.701 65.0398L204.895 64.7415C205.008 65.1818 205.223 65.5121 205.539 65.7322C205.859 65.9524 206.276 66.0625 206.791 66.0625C207.377 66.0625 207.842 65.9382 208.187 65.6896C208.535 65.4375 208.709 65.1357 208.709 64.7841C208.709 64.5 208.609 64.2621 208.41 64.0703C208.211 63.875 207.906 63.7294 207.494 63.6335L206.13 63.3139C205.381 63.1364 204.831 62.8612 204.479 62.4883C204.131 62.1119 203.957 61.6413 203.957 61.0767C203.957 60.6151 204.087 60.2067 204.346 59.8516C204.609 59.4964 204.966 59.2177 205.417 59.0153C205.871 58.8129 206.386 58.7116 206.961 58.7116C207.771 58.7116 208.407 58.8892 208.868 59.2443C209.334 59.5994 209.664 60.0682 209.859 60.6506ZM215.331 67.1705C214.543 67.1705 213.863 66.9964 213.291 66.6484C212.723 66.2969 212.284 65.8068 211.975 65.1783C211.67 64.5462 211.517 63.8111 211.517 62.973C211.517 62.1349 211.67 61.3963 211.975 60.7571C212.284 60.1143 212.714 59.6136 213.264 59.255C213.818 58.8928 214.464 58.7116 215.203 58.7116C215.629 58.7116 216.05 58.7827 216.466 58.9247C216.881 59.0668 217.259 59.2976 217.6 59.6172C217.941 59.9332 218.213 60.3523 218.415 60.8743C218.618 61.3963 218.719 62.0391 218.719 62.8026V63.3352H212.412V62.2486H217.44C217.44 61.7869 217.348 61.375 217.163 61.0128C216.982 60.6506 216.723 60.3647 216.386 60.1552C216.052 59.9457 215.658 59.8409 215.203 59.8409C214.702 59.8409 214.269 59.9652 213.903 60.2138C213.541 60.4588 213.262 60.7784 213.067 61.1726C212.872 61.5668 212.774 61.9893 212.774 62.4403V63.1648C212.774 63.7827 212.881 64.3065 213.094 64.7362C213.31 65.1623 213.61 65.4872 213.994 65.7109C214.377 65.9311 214.823 66.0412 215.331 66.0412C215.661 66.0412 215.96 65.995 216.226 65.9027C216.496 65.8068 216.728 65.6648 216.924 65.4766C217.119 65.2848 217.27 65.0469 217.376 64.7628L218.591 65.1037C218.463 65.5156 218.248 65.8778 217.946 66.1903C217.645 66.4993 217.272 66.7408 216.828 66.9148C216.384 67.0852 215.885 67.1705 215.331 67.1705ZM224.85 67V58.8182H226.107V67H224.85ZM225.489 57.4545C225.244 57.4545 225.033 57.3711 224.855 57.2042C224.681 57.0373 224.594 56.8366 224.594 56.6023C224.594 56.3679 224.681 56.1673 224.855 56.0004C225.033 55.8335 225.244 55.75 225.489 55.75C225.734 55.75 225.944 55.8335 226.118 56.0004C226.295 56.1673 226.384 56.3679 226.384 56.6023C226.384 56.8366 226.295 57.0373 226.118 57.2042C225.944 57.3711 225.734 57.4545 225.489 57.4545ZM229.666 62.0781V67H228.409V58.8182H229.624V60.0966H229.73C229.922 59.6811 230.213 59.3473 230.604 59.0952C230.995 58.8395 231.499 58.7116 232.117 58.7116C232.671 58.7116 233.155 58.8253 233.571 59.0526C233.986 59.2763 234.31 59.6172 234.54 60.0753C234.771 60.5298 234.887 61.1051 234.887 61.8011V67H233.63V61.8864C233.63 61.2436 233.463 60.7429 233.129 60.3842C232.795 60.022 232.337 59.8409 231.755 59.8409C231.353 59.8409 230.995 59.9279 230.679 60.1019C230.366 60.2759 230.119 60.5298 229.938 60.8636C229.757 61.1974 229.666 61.6023 229.666 62.0781ZM242.979 60.6506L241.85 60.9702C241.779 60.782 241.674 60.5991 241.536 60.4215C241.401 60.2404 241.216 60.0913 240.982 59.9741C240.747 59.8569 240.447 59.7983 240.081 59.7983C239.581 59.7983 239.164 59.9137 238.83 60.1445C238.499 60.3718 238.334 60.6612 238.334 61.0128C238.334 61.3253 238.448 61.5721 238.675 61.7532C238.903 61.9343 239.258 62.0852 239.741 62.206L240.955 62.5043C241.687 62.6818 242.232 62.9535 242.59 63.3192C242.949 63.6815 243.128 64.1484 243.128 64.7202C243.128 65.1889 242.993 65.608 242.724 65.9773C242.457 66.3466 242.084 66.6378 241.605 66.8509C241.126 67.0639 240.568 67.1705 239.932 67.1705C239.098 67.1705 238.407 66.9893 237.86 66.6271C237.313 66.2649 236.967 65.7358 236.822 65.0398L238.015 64.7415C238.128 65.1818 238.343 65.5121 238.659 65.7322C238.979 65.9524 239.396 66.0625 239.911 66.0625C240.497 66.0625 240.962 65.9382 241.307 65.6896C241.655 65.4375 241.829 65.1357 241.829 64.7841C241.829 64.5 241.729 64.2621 241.53 64.0703C241.331 63.875 241.026 63.7294 240.614 63.6335L239.251 63.3139C238.501 63.1364 237.951 62.8612 237.599 62.4883C237.251 62.1119 237.077 61.6413 237.077 61.0767C237.077 60.6151 237.207 60.2067 237.466 59.8516C237.729 59.4964 238.086 59.2177 238.537 59.0153C238.991 58.8129 239.506 58.7116 240.081 58.7116C240.891 58.7116 241.527 58.8892 241.988 59.2443C242.454 59.5994 242.784 60.0682 242.979 60.6506ZM248.579 58.8182V59.8835H244.339V58.8182H248.579ZM245.575 56.858H246.832V64.6562C246.832 65.0114 246.883 65.2777 246.986 65.4553C247.093 65.6293 247.228 65.7464 247.391 65.8068C247.558 65.8636 247.734 65.892 247.918 65.892C248.057 65.892 248.171 65.8849 248.259 65.8707C248.348 65.853 248.419 65.8388 248.472 65.8281L248.728 66.9574C248.643 66.9893 248.524 67.0213 248.371 67.0533C248.218 67.0888 248.025 67.1065 247.791 67.1065C247.435 67.1065 247.087 67.0302 246.747 66.8775C246.409 66.7248 246.129 66.4922 245.905 66.1797C245.685 65.8672 245.575 65.473 245.575 64.9972V56.858ZM252.878 67.1918C252.359 67.1918 251.889 67.0941 251.466 66.8988C251.043 66.6999 250.708 66.4141 250.459 66.0412C250.211 65.6648 250.086 65.2102 250.086 64.6776C250.086 64.2088 250.179 63.8288 250.363 63.5376C250.548 63.2429 250.795 63.0121 251.104 62.8452C251.413 62.6783 251.754 62.554 252.127 62.4723C252.503 62.3871 252.881 62.3196 253.261 62.2699C253.758 62.206 254.161 62.158 254.47 62.1261C254.783 62.0906 255.01 62.032 255.152 61.9503C255.298 61.8686 255.37 61.7266 255.37 61.5241V61.4815C255.37 60.956 255.227 60.5476 254.939 60.2564C254.655 59.9652 254.223 59.8196 253.645 59.8196C253.044 59.8196 252.574 59.951 252.233 60.2138C251.892 60.4766 251.652 60.7571 251.514 61.0554L250.321 60.6293C250.534 60.1321 250.818 59.745 251.173 59.468C251.532 59.1875 251.922 58.9922 252.345 58.8821C252.771 58.7685 253.19 58.7116 253.602 58.7116C253.865 58.7116 254.167 58.7436 254.508 58.8075C254.852 58.8679 255.184 58.994 255.504 59.1857C255.827 59.3775 256.095 59.6669 256.308 60.054C256.521 60.4411 256.628 60.9595 256.628 61.6094V67H255.37V65.892H255.307C255.221 66.0696 255.079 66.2596 254.88 66.462C254.682 66.6644 254.417 66.8366 254.087 66.9787C253.756 67.1207 253.353 67.1918 252.878 67.1918ZM253.069 66.0625C253.566 66.0625 253.986 65.9648 254.326 65.7695C254.671 65.5742 254.93 65.3221 255.104 65.0131C255.282 64.7042 255.37 64.3793 255.37 64.0384V62.8878C255.317 62.9517 255.2 63.0103 255.019 63.0636C254.841 63.1133 254.635 63.1577 254.401 63.1967C254.17 63.2322 253.945 63.2642 253.725 63.2926C253.508 63.3175 253.332 63.3388 253.197 63.3565C252.87 63.3991 252.565 63.4684 252.281 63.5643C252 63.6566 251.773 63.7969 251.599 63.9851C251.429 64.1697 251.343 64.4219 251.343 64.7415C251.343 65.1783 251.505 65.5085 251.828 65.7322C252.155 65.9524 252.569 66.0625 253.069 66.0625ZM260.179 62.0781V67H258.922V58.8182H260.137V60.0966H260.243C260.435 59.6811 260.726 59.3473 261.117 59.0952C261.507 58.8395 262.012 58.7116 262.629 58.7116C263.183 58.7116 263.668 58.8253 264.084 59.0526C264.499 59.2763 264.822 59.6172 265.053 60.0753C265.284 60.5298 265.399 61.1051 265.399 61.8011V67H264.142V61.8864C264.142 61.2436 263.975 60.7429 263.642 60.3842C263.308 60.022 262.85 59.8409 262.267 59.8409C261.866 59.8409 261.507 59.9279 261.191 60.1019C260.879 60.2759 260.632 60.5298 260.451 60.8636C260.27 61.1974 260.179 61.6023 260.179 62.0781ZM271.02 67.1705C270.253 67.1705 269.593 66.9893 269.039 66.6271C268.485 66.2649 268.059 65.766 267.76 65.1303C267.462 64.4947 267.313 63.7685 267.313 62.9517C267.313 62.1207 267.466 61.3874 267.771 60.7518C268.08 60.1126 268.51 59.6136 269.06 59.255C269.614 58.8928 270.26 58.7116 270.999 58.7116C271.574 58.7116 272.093 58.8182 272.554 59.0312C273.016 59.2443 273.394 59.5426 273.689 59.9261C273.984 60.3097 274.167 60.7571 274.238 61.2685H272.981C272.885 60.8956 272.672 60.5653 272.341 60.2777C272.015 59.9865 271.574 59.8409 271.02 59.8409C270.53 59.8409 270.101 59.9687 269.731 60.2244C269.366 60.4766 269.08 60.8335 268.874 61.2951C268.671 61.7532 268.57 62.2912 268.57 62.9091C268.57 63.5412 268.669 64.0916 268.868 64.5604C269.071 65.0291 269.355 65.3931 269.721 65.6523C270.09 65.9116 270.523 66.0412 271.02 66.0412C271.347 66.0412 271.644 65.9844 271.91 65.8707C272.176 65.7571 272.402 65.5938 272.586 65.3807C272.771 65.1676 272.902 64.9119 272.981 64.6136H274.238C274.167 65.0966 273.991 65.5316 273.71 65.9187C273.433 66.3022 273.066 66.6076 272.608 66.8349C272.153 67.0586 271.624 67.1705 271.02 67.1705ZM279.506 67.1705C278.717 67.1705 278.037 66.9964 277.466 66.6484C276.897 66.2969 276.459 65.8068 276.15 65.1783C275.845 64.5462 275.692 63.8111 275.692 62.973C275.692 62.1349 275.845 61.3963 276.15 60.7571C276.459 60.1143 276.889 59.6136 277.439 59.255C277.993 58.8928 278.639 58.7116 279.378 58.7116C279.804 58.7116 280.225 58.7827 280.64 58.9247C281.056 59.0668 281.434 59.2976 281.775 59.6172C282.116 59.9332 282.388 60.3523 282.59 60.8743C282.792 61.3963 282.894 62.0391 282.894 62.8026V63.3352H276.587V62.2486H281.615C281.615 61.7869 281.523 61.375 281.338 61.0128C281.157 60.6506 280.898 60.3647 280.56 60.1552C280.227 59.9457 279.832 59.8409 279.378 59.8409C278.877 59.8409 278.444 59.9652 278.078 60.2138C277.716 60.4588 277.437 60.7784 277.242 61.1726C277.047 61.5668 276.949 61.9893 276.949 62.4403V63.1648C276.949 63.7827 277.055 64.3065 277.269 64.7362C277.485 65.1623 277.785 65.4872 278.169 65.7109C278.552 65.9311 278.998 66.0412 279.506 66.0412C279.836 66.0412 280.134 65.995 280.401 65.9027C280.671 65.8068 280.903 65.6648 281.098 65.4766C281.294 65.2848 281.445 65.0469 281.551 64.7628L282.766 65.1037C282.638 65.5156 282.423 65.8778 282.121 66.1903C281.819 66.4993 281.446 66.7408 281.003 66.9148C280.559 67.0852 280.06 67.1705 279.506 67.1705Z" fill="#A9A9A9"/>
<rect x="27" y="102" width="26" height="4" rx="2" fill="#B39CE5"/>
</svg>
