<svg width="360" height="138" viewBox="0 0 360 138" fill="none" xmlns="http://www.w3.org/2000/svg">
<rect width="360" height="138" rx="10" fill="white"/>
<path d="M37.44 43V29H39.12V43H37.44ZM28.5 43V29H30.18V43H28.5ZM29.86 36.56V35.18H37.86V36.56H29.86ZM46.5133 43.24C45.5799 43.24 44.7399 43.0267 43.9933 42.6C43.2466 42.16 42.6599 41.5467 42.2333 40.76C41.8066 39.96 41.5933 39.0333 41.5933 37.98C41.5933 36.9 41.8066 35.9667 42.2333 35.18C42.6733 34.38 43.2666 33.7667 44.0133 33.34C44.7733 32.9 45.6199 32.68 46.5533 32.68C47.5133 32.68 48.3599 32.9 49.0933 33.34C49.8399 33.7667 50.4266 34.38 50.8533 35.18C51.2933 35.9667 51.5133 36.8933 51.5133 37.96C51.5133 39.0267 51.2933 39.96 50.8533 40.76C50.4133 41.5467 49.8199 42.16 49.0733 42.6C48.3266 43.0267 47.4733 43.24 46.5133 43.24ZM46.5333 41.8C47.1066 41.8 47.6399 41.66 48.1333 41.38C48.6266 41.0867 49.0266 40.6533 49.3333 40.08C49.6399 39.5067 49.7933 38.8 49.7933 37.96C49.7933 37.1067 49.6399 36.4 49.3333 35.84C49.0399 35.2667 48.6466 34.84 48.1533 34.56C47.6733 34.2667 47.1399 34.12 46.5533 34.12C45.9933 34.12 45.4599 34.2667 44.9533 34.56C44.4599 34.84 44.0599 35.2667 43.7533 35.84C43.4599 36.4 43.3133 37.1067 43.3133 37.96C43.3133 38.8 43.4599 39.5067 43.7533 40.08C44.0599 40.6533 44.4533 41.0867 44.9333 41.38C45.4266 41.66 45.9599 41.8 46.5333 41.8ZM55.5377 43L52.5777 32.92H54.2577L56.5577 41.42H56.2577L58.7577 32.92H60.6577L63.1977 41.4L62.8777 41.42L65.1577 32.92H66.8577L63.9177 43H62.1977L59.5577 34.12H59.8977L57.2577 43H55.5377ZM77.3441 43.24C76.5307 43.24 75.8507 43.1 75.3041 42.82C74.7574 42.5267 74.3507 42.1467 74.0841 41.68C73.8174 41.2 73.6841 40.68 73.6841 40.12C73.6841 39.44 73.8574 38.8667 74.2041 38.4C74.5641 37.92 75.0641 37.56 75.7041 37.32C76.3574 37.0667 77.1241 36.94 78.0041 36.94H80.6641C80.6641 36.3133 80.5641 35.7933 80.3641 35.38C80.1774 34.9533 79.8974 34.6333 79.5241 34.42C79.1641 34.2067 78.7107 34.1 78.1641 34.1C77.5241 34.1 76.9707 34.26 76.5041 34.58C76.0374 34.9 75.7507 35.3733 75.6441 36H73.9241C74.0041 35.28 74.2441 34.68 74.6441 34.2C75.0574 33.7067 75.5774 33.3333 76.2041 33.08C76.8307 32.8133 77.4841 32.68 78.1641 32.68C79.0974 32.68 79.8707 32.8533 80.4841 33.2C81.1107 33.5333 81.5774 34.0067 81.8841 34.62C82.1907 35.22 82.3441 35.9333 82.3441 36.76V43H80.8441L80.7441 41.22C80.6107 41.5 80.4374 41.7667 80.2241 42.02C80.0241 42.26 79.7841 42.4733 79.5041 42.66C79.2241 42.8333 78.9041 42.9733 78.5441 43.08C78.1974 43.1867 77.7974 43.24 77.3441 43.24ZM77.6041 41.82C78.0707 41.82 78.4907 41.7267 78.8641 41.54C79.2507 41.34 79.5774 41.0733 79.8441 40.74C80.1107 40.3933 80.3107 40.0133 80.4441 39.6C80.5907 39.1867 80.6641 38.7533 80.6641 38.3V38.24H78.1441C77.4907 38.24 76.9641 38.32 76.5641 38.48C76.1641 38.6267 75.8774 38.84 75.7041 39.12C75.5307 39.3867 75.4441 39.6933 75.4441 40.04C75.4441 40.4 75.5241 40.7133 75.6841 40.98C75.8574 41.2467 76.1041 41.4533 76.4241 41.6C76.7574 41.7467 77.1507 41.82 77.6041 41.82ZM84.943 43V32.92H86.463L86.563 34.36C86.883 33.84 87.3096 33.4333 87.843 33.14C88.3896 32.8333 88.983 32.68 89.623 32.68C90.143 32.68 90.6096 32.7533 91.023 32.9C91.4496 33.0333 91.823 33.2467 92.143 33.54C92.463 33.82 92.723 34.18 92.923 34.62C93.2696 34.0067 93.743 33.5333 94.343 33.2C94.9563 32.8533 95.6096 32.68 96.303 32.68C97.0763 32.68 97.7496 32.84 98.323 33.16C98.9096 33.4667 99.3563 33.94 99.663 34.58C99.983 35.2067 100.143 36.0067 100.143 36.98V43H98.483V37.16C98.483 36.1467 98.2763 35.3867 97.863 34.88C97.4496 34.3733 96.8696 34.12 96.123 34.12C95.603 34.12 95.1363 34.26 94.723 34.54C94.3096 34.8067 93.983 35.2 93.743 35.72C93.503 36.24 93.383 36.88 93.383 37.64V43H91.703V37.16C91.703 36.1467 91.4963 35.3867 91.083 34.88C90.6696 34.3733 90.083 34.12 89.323 34.12C88.8163 34.12 88.3563 34.26 87.943 34.54C87.543 34.8067 87.223 35.2 86.983 35.72C86.743 36.24 86.623 36.88 86.623 37.64V43H84.943ZM107.175 43.24C106.229 43.24 105.389 43.02 104.655 42.58C103.935 42.14 103.369 41.5267 102.955 40.74C102.542 39.94 102.335 39.0133 102.335 37.96C102.335 36.8933 102.535 35.9667 102.935 35.18C103.349 34.3933 103.922 33.78 104.655 33.34C105.402 32.9 106.255 32.68 107.215 32.68C108.202 32.68 109.035 32.9 109.715 33.34C110.409 33.78 110.935 34.36 111.295 35.08C111.669 35.7867 111.855 36.5667 111.855 37.42C111.855 37.5533 111.855 37.6933 111.855 37.84C111.855 37.9867 111.849 38.1533 111.835 38.34H103.595V37.04H110.215C110.175 36.12 109.869 35.4 109.295 34.88C108.735 34.36 108.029 34.1 107.175 34.1C106.602 34.1 106.069 34.2333 105.575 34.5C105.095 34.7533 104.709 35.1333 104.415 35.64C104.122 36.1333 103.975 36.7533 103.975 37.5V38.06C103.975 38.8867 104.122 39.58 104.415 40.14C104.722 40.7 105.115 41.12 105.595 41.4C106.089 41.68 106.615 41.82 107.175 41.82C107.882 41.82 108.462 41.6667 108.915 41.36C109.382 41.04 109.715 40.6133 109.915 40.08H111.575C111.415 40.68 111.135 41.22 110.735 41.7C110.335 42.18 109.835 42.56 109.235 42.84C108.649 43.1067 107.962 43.24 107.175 43.24ZM114.123 43V28.6H115.803V43H114.123ZM118.736 43V32.92H120.416V43H118.736ZM119.576 30.78C119.242 30.78 118.962 30.6733 118.736 30.46C118.522 30.2333 118.416 29.9533 118.416 29.62C118.416 29.2867 118.522 29.02 118.736 28.82C118.962 28.6067 119.242 28.5 119.576 28.5C119.896 28.5 120.169 28.6067 120.396 28.82C120.622 29.02 120.736 29.2867 120.736 29.62C120.736 29.9533 120.622 30.2333 120.396 30.46C120.169 30.6733 119.896 30.78 119.576 30.78ZM127.8 43.24C126.854 43.24 126.014 43.02 125.28 42.58C124.56 42.14 123.994 41.5267 123.58 40.74C123.167 39.94 122.96 39.0133 122.96 37.96C122.96 36.8933 123.16 35.9667 123.56 35.18C123.974 34.3933 124.547 33.78 125.28 33.34C126.027 32.9 126.88 32.68 127.84 32.68C128.827 32.68 129.66 32.9 130.34 33.34C131.034 33.78 131.56 34.36 131.92 35.08C132.294 35.7867 132.48 36.5667 132.48 37.42C132.48 37.5533 132.48 37.6933 132.48 37.84C132.48 37.9867 132.474 38.1533 132.46 38.34H124.22V37.04H130.84C130.8 36.12 130.494 35.4 129.92 34.88C129.36 34.36 128.654 34.1 127.8 34.1C127.227 34.1 126.694 34.2333 126.2 34.5C125.72 34.7533 125.334 35.1333 125.04 35.64C124.747 36.1333 124.6 36.7533 124.6 37.5V38.06C124.6 38.8867 124.747 39.58 125.04 40.14C125.347 40.7 125.74 41.12 126.22 41.4C126.714 41.68 127.24 41.82 127.8 41.82C128.507 41.82 129.087 41.6667 129.54 41.36C130.007 41.04 130.34 40.6133 130.54 40.08H132.2C132.04 40.68 131.76 41.22 131.36 41.7C130.96 42.18 130.46 42.56 129.86 42.84C129.274 43.1067 128.587 43.24 127.8 43.24ZM142.1 43L139.14 32.92H140.82L143.12 41.42H142.82L145.32 32.92H147.22L149.76 41.4L149.44 41.42L151.72 32.92H153.42L150.48 43H148.76L146.12 34.12H146.46L143.82 43H142.1ZM159.443 43.24C158.51 43.24 157.67 43.0267 156.923 42.6C156.176 42.16 155.59 41.5467 155.163 40.76C154.736 39.96 154.523 39.0333 154.523 37.98C154.523 36.9 154.736 35.9667 155.163 35.18C155.603 34.38 156.196 33.7667 156.943 33.34C157.703 32.9 158.55 32.68 159.483 32.68C160.443 32.68 161.29 32.9 162.023 33.34C162.77 33.7667 163.356 34.38 163.783 35.18C164.223 35.9667 164.443 36.8933 164.443 37.96C164.443 39.0267 164.223 39.96 163.783 40.76C163.343 41.5467 162.75 42.16 162.003 42.6C161.256 43.0267 160.403 43.24 159.443 43.24ZM159.463 41.8C160.036 41.8 160.57 41.66 161.063 41.38C161.556 41.0867 161.956 40.6533 162.263 40.08C162.57 39.5067 162.723 38.8 162.723 37.96C162.723 37.1067 162.57 36.4 162.263 35.84C161.97 35.2667 161.576 34.84 161.083 34.56C160.603 34.2667 160.07 34.12 159.483 34.12C158.923 34.12 158.39 34.2667 157.883 34.56C157.39 34.84 156.99 35.2667 156.683 35.84C156.39 36.4 156.243 37.1067 156.243 37.96C156.243 38.8 156.39 39.5067 156.683 40.08C156.99 40.6533 157.383 41.0867 157.863 41.38C158.356 41.66 158.89 41.8 159.463 41.8ZM166.798 43V32.92H168.318L168.438 34.84C168.665 34.3867 168.952 34 169.298 33.68C169.658 33.36 170.085 33.1133 170.578 32.94C171.085 32.7667 171.658 32.68 172.298 32.68V34.44H171.678C171.252 34.44 170.845 34.5 170.458 34.62C170.072 34.7267 169.725 34.9067 169.418 35.16C169.125 35.4133 168.892 35.76 168.718 36.2C168.558 36.6267 168.478 37.16 168.478 37.8V43H166.798ZM180.401 43L175.601 37.48L179.981 32.92H182.041L177.021 38.08L177.041 36.88L182.541 43H180.401ZM174.201 43V28.6H175.881V43H174.201ZM187.493 43.24C186.653 43.24 185.92 43.1 185.293 42.82C184.68 42.54 184.186 42.1533 183.813 41.66C183.453 41.1533 183.233 40.56 183.153 39.88H184.873C184.94 40.2267 185.08 40.5467 185.293 40.84C185.506 41.1333 185.793 41.3733 186.153 41.56C186.526 41.7333 186.98 41.82 187.513 41.82C187.98 41.82 188.366 41.7533 188.673 41.62C188.98 41.4733 189.206 41.28 189.353 41.04C189.513 40.8 189.593 40.54 189.593 40.26C189.593 39.8467 189.493 39.5333 189.293 39.32C189.106 39.1067 188.826 38.94 188.453 38.82C188.08 38.6867 187.626 38.5733 187.093 38.48C186.653 38.4 186.22 38.2933 185.793 38.16C185.366 38.0267 184.986 37.8533 184.653 37.64C184.32 37.4133 184.053 37.14 183.853 36.82C183.666 36.5 183.573 36.1067 183.573 35.64C183.573 35.0667 183.72 34.56 184.013 34.12C184.306 33.6667 184.726 33.3133 185.273 33.06C185.833 32.8067 186.48 32.68 187.213 32.68C188.293 32.68 189.166 32.94 189.833 33.46C190.5 33.98 190.893 34.7333 191.013 35.72H189.353C189.286 35.2133 189.066 34.82 188.693 34.54C188.333 34.2467 187.833 34.1 187.193 34.1C186.566 34.1 186.086 34.2267 185.753 34.48C185.433 34.7333 185.273 35.0667 185.273 35.48C185.273 35.7467 185.36 35.9867 185.533 36.2C185.72 36.4 185.986 36.5733 186.333 36.72C186.693 36.8667 187.133 36.9867 187.653 37.08C188.32 37.2 188.926 37.36 189.473 37.56C190.02 37.76 190.46 38.06 190.793 38.46C191.14 38.8467 191.313 39.4 191.313 40.12C191.313 40.7467 191.153 41.2933 190.833 41.76C190.526 42.2267 190.086 42.5933 189.513 42.86C188.94 43.1133 188.266 43.24 187.493 43.24Z" fill="black"/>
<path d="M28.7685 56.0909L32.0071 65.2741H32.1349L35.3736 56.0909H36.7585L32.7528 67H31.3892L27.3835 56.0909H28.7685ZM38.2873 67V58.8182H39.5444V67H38.2873ZM38.9265 57.4545C38.6815 57.4545 38.4702 57.3711 38.2926 57.2042C38.1186 57.0373 38.0316 56.8366 38.0316 56.6023C38.0316 56.3679 38.1186 56.1673 38.2926 56.0004C38.4702 55.8335 38.6815 55.75 38.9265 55.75C39.1715 55.75 39.381 55.8335 39.555 56.0004C39.7326 56.1673 39.8214 56.3679 39.8214 56.6023C39.8214 56.8366 39.7326 57.0373 39.555 57.2042C39.381 57.3711 39.1715 57.4545 38.9265 57.4545ZM47.6423 60.6506L46.5131 60.9702C46.442 60.782 46.3373 60.5991 46.1988 60.4215C46.0638 60.2404 45.8792 60.0913 45.6448 59.9741C45.4104 59.8569 45.1104 59.7983 44.7446 59.7983C44.2439 59.7983 43.8266 59.9137 43.4928 60.1445C43.1626 60.3718 42.9974 60.6612 42.9974 61.0128C42.9974 61.3253 43.1111 61.5721 43.3383 61.7532C43.5656 61.9343 43.9207 62.0852 44.4037 62.206L45.6182 62.5043C46.3497 62.6818 46.8948 62.9535 47.2535 63.3192C47.6121 63.6815 47.7915 64.1484 47.7915 64.7202C47.7915 65.1889 47.6565 65.608 47.3866 65.9773C47.1203 66.3466 46.7474 66.6378 46.268 66.8509C45.7886 67.0639 45.2311 67.1705 44.5954 67.1705C43.7609 67.1705 43.0702 66.9893 42.5233 66.6271C41.9765 66.2649 41.6302 65.7358 41.4846 65.0398L42.6778 64.7415C42.7915 65.1818 43.0063 65.5121 43.3224 65.7322C43.642 65.9524 44.0592 66.0625 44.5741 66.0625C45.1601 66.0625 45.6253 65.9382 45.9697 65.6896C46.3177 65.4375 46.4917 65.1357 46.4917 64.7841C46.4917 64.5 46.3923 64.2621 46.1934 64.0703C45.9946 63.875 45.6892 63.7294 45.2773 63.6335L43.9136 63.3139C43.1643 63.1364 42.6139 62.8612 42.2623 62.4883C41.9143 62.1119 41.7403 61.6413 41.7403 61.0767C41.7403 60.6151 41.8699 60.2067 42.1292 59.8516C42.392 59.4964 42.7488 59.2177 43.1998 59.0153C43.6544 58.8129 44.1693 58.7116 44.7446 58.7116C45.5542 58.7116 46.1899 58.8892 46.6515 59.2443C47.1167 59.5994 47.447 60.0682 47.6423 60.6506ZM49.6838 67V58.8182H50.9409V67H49.6838ZM50.323 57.4545C50.0779 57.4545 49.8667 57.3711 49.6891 57.2042C49.5151 57.0373 49.4281 56.8366 49.4281 56.6023C49.4281 56.3679 49.5151 56.1673 49.6891 56.0004C49.8667 55.8335 50.0779 55.75 50.323 55.75C50.568 55.75 50.7775 55.8335 50.9515 56.0004C51.1291 56.1673 51.2179 56.3679 51.2179 56.6023C51.2179 56.8366 51.1291 57.0373 50.9515 57.2042C50.7775 57.3711 50.568 57.4545 50.323 57.4545ZM56.5672 67.1705C55.8286 67.1705 55.1805 66.9947 54.623 66.6431C54.069 66.2915 53.6357 65.7997 53.3232 65.1676C53.0143 64.5355 52.8598 63.7969 52.8598 62.9517C52.8598 62.0994 53.0143 61.3555 53.3232 60.7198C53.6357 60.0842 54.069 59.5906 54.623 59.239C55.1805 58.8874 55.8286 58.7116 56.5672 58.7116C57.3058 58.7116 57.9521 58.8874 58.5061 59.239C59.0637 59.5906 59.4969 60.0842 59.8058 60.7198C60.1183 61.3555 60.2746 62.0994 60.2746 62.9517C60.2746 63.7969 60.1183 64.5355 59.8058 65.1676C59.4969 65.7997 59.0637 66.2915 58.5061 66.6431C57.9521 66.9947 57.3058 67.1705 56.5672 67.1705ZM56.5672 66.0412C57.1283 66.0412 57.5899 65.8974 57.9521 65.6097C58.3144 65.3221 58.5825 64.9439 58.7565 64.4751C58.9305 64.0064 59.0175 63.4986 59.0175 62.9517C59.0175 62.4048 58.9305 61.8952 58.7565 61.4229C58.5825 60.9506 58.3144 60.5689 57.9521 60.2777C57.5899 59.9865 57.1283 59.8409 56.5672 59.8409C56.0061 59.8409 55.5445 59.9865 55.1823 60.2777C54.82 60.5689 54.5519 60.9506 54.3779 61.4229C54.2039 61.8952 54.1169 62.4048 54.1169 62.9517C54.1169 63.4986 54.2039 64.0064 54.3779 64.4751C54.5519 64.9439 54.82 65.3221 55.1823 65.6097C55.5445 65.8974 56.0061 66.0412 56.5672 66.0412ZM63.4506 62.0781V67H62.1935V58.8182H63.408V60.0966H63.5146C63.7063 59.6811 63.9975 59.3473 64.3881 59.0952C64.7788 58.8395 65.283 58.7116 65.9009 58.7116C66.4549 58.7116 66.9396 58.8253 67.3551 59.0526C67.7706 59.2763 68.0938 59.6172 68.3246 60.0753C68.5554 60.5298 68.6708 61.1051 68.6708 61.8011V67H67.4137V61.8864C67.4137 61.2436 67.2468 60.7429 66.913 60.3842C66.5792 60.022 66.1211 59.8409 65.5387 59.8409C65.1374 59.8409 64.7788 59.9279 64.4627 60.1019C64.1502 60.2759 63.9034 60.5298 63.7223 60.8636C63.5412 61.1974 63.4506 61.6023 63.4506 62.0781ZM72.843 65.5085L72.7577 66.0838C72.6974 66.4886 72.605 66.9219 72.4807 67.3835C72.36 67.8452 72.2339 68.2802 72.1025 68.6886C71.9711 69.0969 71.8628 69.4219 71.7776 69.6634H70.8188C70.865 69.4361 70.9253 69.136 70.9999 68.7631C71.0745 68.3903 71.1491 67.973 71.2236 67.5114C71.3018 67.0533 71.3657 66.5845 71.4154 66.1051L71.4793 65.5085H72.843ZM87.0186 59.5C86.9015 59.1413 86.747 58.82 86.5552 58.5359C86.367 58.2482 86.1415 58.0032 85.8787 57.8008C85.6195 57.5984 85.3248 57.4439 84.9945 57.3374C84.6642 57.2308 84.302 57.1776 83.9078 57.1776C83.2615 57.1776 82.6738 57.3445 82.1447 57.6783C81.6156 58.0121 81.1948 58.5039 80.8823 59.1538C80.5698 59.8036 80.4135 60.6009 80.4135 61.5455C80.4135 62.4901 80.5716 63.2873 80.8876 63.9371C81.2037 64.587 81.6316 65.0788 82.1713 65.4126C82.7111 65.7464 83.3184 65.9134 83.9931 65.9134C84.6181 65.9134 85.1685 65.7802 85.6444 65.5138C86.1238 65.244 86.4966 64.864 86.763 64.3739C87.0328 63.8803 87.1678 63.2997 87.1678 62.6321L87.5726 62.7173H84.2914V61.5455H88.4462V62.7173C88.4462 63.6158 88.2544 64.397 87.8709 65.0611C87.4909 65.7251 86.9654 66.2401 86.2942 66.6058C85.6266 66.968 84.8596 67.1491 83.9931 67.1491C83.0272 67.1491 82.1784 66.9219 81.4469 66.4673C80.7189 66.0128 80.1507 65.3665 79.7424 64.5284C79.3375 63.6903 79.1351 62.696 79.1351 61.5455C79.1351 60.6825 79.2505 59.9066 79.4814 59.2177C79.7157 58.5252 80.046 57.9357 80.4721 57.4492C80.8983 56.9627 81.4025 56.5898 81.9849 56.3306C82.5673 56.0714 83.2083 55.9418 83.9078 55.9418C84.4831 55.9418 85.0194 56.0288 85.5165 56.2028C86.0172 56.3732 86.4629 56.6165 86.8535 56.9325C87.2477 57.245 87.5762 57.6197 87.839 58.0565C88.1017 58.4897 88.2828 58.9709 88.3823 59.5H87.0186ZM91.7954 56.0909V67H90.5383V56.0909H91.7954ZM97.4217 67.1705C96.6831 67.1705 96.035 66.9947 95.4775 66.6431C94.9235 66.2915 94.4902 65.7997 94.1777 65.1676C93.8688 64.5355 93.7143 63.7969 93.7143 62.9517C93.7143 62.0994 93.8688 61.3555 94.1777 60.7198C94.4902 60.0842 94.9235 59.5906 95.4775 59.239C96.035 58.8874 96.6831 58.7116 97.4217 58.7116C98.1603 58.7116 98.8066 58.8874 99.3606 59.239C99.9181 59.5906 100.351 60.0842 100.66 60.7198C100.973 61.3555 101.129 62.0994 101.129 62.9517C101.129 63.7969 100.973 64.5355 100.66 65.1676C100.351 65.7997 99.9181 66.2915 99.3606 66.6431C98.8066 66.9947 98.1603 67.1705 97.4217 67.1705ZM97.4217 66.0412C97.9828 66.0412 98.4444 65.8974 98.8066 65.6097C99.1689 65.3221 99.437 64.9439 99.611 64.4751C99.785 64.0064 99.872 63.4986 99.872 62.9517C99.872 62.4048 99.785 61.8952 99.611 61.4229C99.437 60.9506 99.1689 60.5689 98.8066 60.2777C98.4444 59.9865 97.9828 59.8409 97.4217 59.8409C96.8606 59.8409 96.399 59.9865 96.0368 60.2777C95.6745 60.5689 95.4064 60.9506 95.2324 61.4229C95.0584 61.8952 94.9714 62.4048 94.9714 62.9517C94.9714 63.4986 95.0584 64.0064 95.2324 64.4751C95.4064 64.9439 95.6745 65.3221 96.0368 65.6097C96.399 65.8974 96.8606 66.0412 97.4217 66.0412ZM105.456 67.1918C104.937 67.1918 104.467 67.0941 104.044 66.8988C103.622 66.6999 103.286 66.4141 103.037 66.0412C102.789 65.6648 102.665 65.2102 102.665 64.6776C102.665 64.2088 102.757 63.8288 102.941 63.5376C103.126 63.2429 103.373 63.0121 103.682 62.8452C103.991 62.6783 104.332 62.554 104.705 62.4723C105.081 62.3871 105.459 62.3196 105.839 62.2699C106.336 62.206 106.739 62.158 107.048 62.1261C107.361 62.0906 107.588 62.032 107.73 61.9503C107.876 61.8686 107.949 61.7266 107.949 61.5241V61.4815C107.949 60.956 107.805 60.5476 107.517 60.2564C107.233 59.9652 106.802 59.8196 106.223 59.8196C105.623 59.8196 105.152 59.951 104.811 60.2138C104.47 60.4766 104.231 60.7571 104.092 61.0554L102.899 60.6293C103.112 60.1321 103.396 59.745 103.751 59.468C104.11 59.1875 104.5 58.9922 104.923 58.8821C105.349 58.7685 105.768 58.7116 106.18 58.7116C106.443 58.7116 106.745 58.7436 107.086 58.8075C107.43 58.8679 107.762 58.994 108.082 59.1857C108.405 59.3775 108.673 59.6669 108.886 60.054C109.099 60.4411 109.206 60.9595 109.206 61.6094V67H107.949V65.892H107.885C107.799 66.0696 107.657 66.2596 107.459 66.462C107.26 66.6644 106.995 66.8366 106.665 66.9787C106.335 67.1207 105.932 67.1918 105.456 67.1918ZM105.647 66.0625C106.145 66.0625 106.564 65.9648 106.905 65.7695C107.249 65.5742 107.508 65.3221 107.682 65.0131C107.86 64.7042 107.949 64.3793 107.949 64.0384V62.8878C107.895 62.9517 107.778 63.0103 107.597 63.0636C107.419 63.1133 107.214 63.1577 106.979 63.1967C106.748 63.2322 106.523 63.2642 106.303 63.2926C106.086 63.3175 105.91 63.3388 105.775 63.3565C105.449 63.3991 105.143 63.4684 104.859 63.5643C104.579 63.6566 104.351 63.7969 104.177 63.9851C104.007 64.1697 103.922 64.4219 103.922 64.7415C103.922 65.1783 104.083 65.5085 104.406 65.7322C104.733 65.9524 105.147 66.0625 105.647 66.0625ZM112.757 56.0909V67H111.5V56.0909H112.757ZM120.855 60.6506L119.726 60.9702C119.655 60.782 119.55 60.5991 119.412 60.4215C119.277 60.2404 119.092 60.0913 118.858 59.9741C118.623 59.8569 118.323 59.7983 117.957 59.7983C117.457 59.7983 117.04 59.9137 116.706 60.1445C116.375 60.3718 116.21 60.6612 116.21 61.0128C116.21 61.3253 116.324 61.5721 116.551 61.7532C116.778 61.9343 117.134 62.0852 117.617 62.206L118.831 62.5043C119.563 62.6818 120.108 62.9535 120.466 63.3192C120.825 63.6815 121.004 64.1484 121.004 64.7202C121.004 65.1889 120.869 65.608 120.6 65.9773C120.333 66.3466 119.96 66.6378 119.481 66.8509C119.002 67.0639 118.444 67.1705 117.808 67.1705C116.974 67.1705 116.283 66.9893 115.736 66.6271C115.189 66.2649 114.843 65.7358 114.698 65.0398L115.891 64.7415C116.004 65.1818 116.219 65.5121 116.535 65.7322C116.855 65.9524 117.272 66.0625 117.787 66.0625C118.373 66.0625 118.838 65.9382 119.183 65.6896C119.531 65.4375 119.705 65.1357 119.705 64.7841C119.705 64.5 119.605 64.2621 119.406 64.0703C119.207 63.875 118.902 63.7294 118.49 63.6335L117.127 63.3139C116.377 63.1364 115.827 62.8612 115.475 62.4883C115.127 62.1119 114.953 61.6413 114.953 61.0767C114.953 60.6151 115.083 60.2067 115.342 59.8516C115.605 59.4964 115.962 59.2177 116.413 59.0153C116.867 58.8129 117.382 58.7116 117.957 58.7116C118.767 58.7116 119.403 58.8892 119.864 59.2443C120.33 59.5994 120.66 60.0682 120.855 60.6506ZM129.523 67.1918C129.005 67.1918 128.534 67.0941 128.112 66.8988C127.689 66.6999 127.353 66.4141 127.105 66.0412C126.856 65.6648 126.732 65.2102 126.732 64.6776C126.732 64.2088 126.824 63.8288 127.009 63.5376C127.194 63.2429 127.44 63.0121 127.749 62.8452C128.058 62.6783 128.399 62.554 128.772 62.4723C129.148 62.3871 129.527 62.3196 129.907 62.2699C130.404 62.206 130.807 62.158 131.116 62.1261C131.428 62.0906 131.656 62.032 131.798 61.9503C131.943 61.8686 132.016 61.7266 132.016 61.5241V61.4815C132.016 60.956 131.872 60.5476 131.585 60.2564C131.3 59.9652 130.869 59.8196 130.29 59.8196C129.69 59.8196 129.219 59.951 128.879 60.2138C128.538 60.4766 128.298 60.7571 128.159 61.0554L126.966 60.6293C127.179 60.1321 127.463 59.745 127.819 59.468C128.177 59.1875 128.568 58.9922 128.99 58.8821C129.417 58.7685 129.836 58.7116 130.248 58.7116C130.51 58.7116 130.812 58.7436 131.153 58.8075C131.498 58.8679 131.83 58.994 132.149 59.1857C132.472 59.3775 132.74 59.6669 132.953 60.054C133.167 60.4411 133.273 60.9595 133.273 61.6094V67H132.016V65.892H131.952C131.867 66.0696 131.725 66.2596 131.526 66.462C131.327 66.6644 131.063 66.8366 130.732 66.9787C130.402 67.1207 129.999 67.1918 129.523 67.1918ZM129.715 66.0625C130.212 66.0625 130.631 65.9648 130.972 65.7695C131.316 65.5742 131.576 65.3221 131.75 65.0131C131.927 64.7042 132.016 64.3793 132.016 64.0384V62.8878C131.963 62.9517 131.846 63.0103 131.664 63.0636C131.487 63.1133 131.281 63.1577 131.047 63.1967C130.816 63.2322 130.59 63.2642 130.37 63.2926C130.153 63.3175 129.978 63.3388 129.843 63.3565C129.516 63.3991 129.211 63.4684 128.926 63.5643C128.646 63.6566 128.419 63.7969 128.245 63.9851C128.074 64.1697 127.989 64.4219 127.989 64.7415C127.989 65.1783 128.151 65.5085 128.474 65.7322C128.8 65.9524 129.214 66.0625 129.715 66.0625ZM136.825 62.0781V67H135.568V58.8182H136.782V60.0966H136.889C137.08 59.6811 137.372 59.3473 137.762 59.0952C138.153 58.8395 138.657 58.7116 139.275 58.7116C139.829 58.7116 140.314 58.8253 140.729 59.0526C141.145 59.2763 141.468 59.6172 141.699 60.0753C141.929 60.5298 142.045 61.1051 142.045 61.8011V67H140.788V61.8864C140.788 61.2436 140.621 60.7429 140.287 60.3842C139.953 60.022 139.495 59.8409 138.913 59.8409C138.511 59.8409 138.153 59.9279 137.837 60.1019C137.524 60.2759 137.277 60.5298 137.096 60.8636C136.915 61.1974 136.825 61.6023 136.825 62.0781ZM147.431 67.1705C146.75 67.1705 146.148 66.9982 145.626 66.6538C145.104 66.3058 144.695 65.8157 144.401 65.1836C144.106 64.5479 143.958 63.7969 143.958 62.9304C143.958 62.071 144.106 61.3253 144.401 60.6932C144.695 60.0611 145.105 59.5728 145.631 59.2283C146.157 58.8839 146.764 58.7116 147.453 58.7116C147.985 58.7116 148.406 58.8004 148.715 58.978C149.028 59.152 149.266 59.3509 149.429 59.5746C149.596 59.7947 149.725 59.9759 149.818 60.1179H149.924V56.0909H151.181V67H149.967V65.7429H149.818C149.725 65.892 149.594 66.0803 149.424 66.3075C149.253 66.5312 149.01 66.7319 148.694 66.9094C148.378 67.0835 147.957 67.1705 147.431 67.1705ZM147.602 66.0412C148.106 66.0412 148.532 65.9098 148.88 65.647C149.228 65.3807 149.493 65.0131 149.674 64.5444C149.855 64.0721 149.946 63.527 149.946 62.9091C149.946 62.2983 149.857 61.7638 149.679 61.3058C149.502 60.8441 149.239 60.4854 148.891 60.2298C148.543 59.9705 148.113 59.8409 147.602 59.8409C147.069 59.8409 146.625 59.9776 146.27 60.2511C145.919 60.521 145.654 60.8885 145.477 61.3537C145.303 61.8153 145.216 62.3338 145.216 62.9091C145.216 63.4915 145.304 64.0206 145.482 64.4964C145.663 64.9687 145.929 65.3452 146.281 65.6257C146.636 65.9027 147.076 66.0412 147.602 66.0412ZM161.435 58.8182V59.8835H157.195V58.8182H161.435ZM158.431 56.858H159.688V64.6562C159.688 65.0114 159.74 65.2777 159.843 65.4553C159.949 65.6293 160.084 65.7464 160.248 65.8068C160.414 65.8636 160.59 65.892 160.775 65.892C160.913 65.892 161.027 65.8849 161.116 65.8707C161.205 65.853 161.276 65.8388 161.329 65.8281L161.585 66.9574C161.499 66.9893 161.38 67.0213 161.228 67.0533C161.075 67.0888 160.881 67.1065 160.647 67.1065C160.292 67.1065 159.944 67.0302 159.603 66.8775C159.266 66.7248 158.985 66.4922 158.761 66.1797C158.541 65.8672 158.431 65.473 158.431 64.9972V56.858ZM164.759 62.0781V67H163.502V56.0909H164.759V60.0966H164.866C165.058 59.674 165.345 59.3384 165.729 59.0898C166.116 58.8377 166.631 58.7116 167.273 58.7116C167.831 58.7116 168.319 58.8235 168.738 59.0472C169.157 59.2674 169.482 59.6065 169.713 60.0646C169.947 60.5192 170.065 61.098 170.065 61.8011V67H168.808V61.8864C168.808 61.2365 168.639 60.734 168.301 60.3789C167.968 60.0202 167.504 59.8409 166.911 59.8409C166.499 59.8409 166.13 59.9279 165.803 60.1019C165.48 60.2759 165.224 60.5298 165.036 60.8636C164.852 61.1974 164.759 61.6023 164.759 62.0781ZM175.795 67.1705C175.006 67.1705 174.326 66.9964 173.755 66.6484C173.187 66.2969 172.748 65.8068 172.439 65.1783C172.134 64.5462 171.981 63.8111 171.981 62.973C171.981 62.1349 172.134 61.3963 172.439 60.7571C172.748 60.1143 173.178 59.6136 173.728 59.255C174.282 58.8928 174.928 58.7116 175.667 58.7116C176.093 58.7116 176.514 58.7827 176.929 58.9247C177.345 59.0668 177.723 59.2976 178.064 59.6172C178.405 59.9332 178.677 60.3523 178.879 60.8743C179.081 61.3963 179.183 62.0391 179.183 62.8026V63.3352H172.876V62.2486H177.904C177.904 61.7869 177.812 61.375 177.627 61.0128C177.446 60.6506 177.187 60.3647 176.85 60.1552C176.516 59.9457 176.122 59.8409 175.667 59.8409C175.166 59.8409 174.733 59.9652 174.367 60.2138C174.005 60.4588 173.726 60.7784 173.531 61.1726C173.336 61.5668 173.238 61.9893 173.238 62.4403V63.1648C173.238 63.7827 173.345 64.3065 173.558 64.7362C173.774 65.1623 174.074 65.4872 174.458 65.7109C174.841 65.9311 175.287 66.0412 175.795 66.0412C176.125 66.0412 176.423 65.995 176.69 65.9027C176.96 65.8068 177.192 65.6648 177.388 65.4766C177.583 65.2848 177.734 65.0469 177.84 64.7628L179.055 65.1037C178.927 65.5156 178.712 65.8778 178.41 66.1903C178.108 66.4993 177.736 66.7408 177.292 66.9148C176.848 67.0852 176.349 67.1705 175.795 67.1705ZM187.721 67.1918C187.203 67.1918 186.732 67.0941 186.31 66.8988C185.887 66.6999 185.552 66.4141 185.303 66.0412C185.054 65.6648 184.93 65.2102 184.93 64.6776C184.93 64.2088 185.022 63.8288 185.207 63.5376C185.392 63.2429 185.639 63.0121 185.948 62.8452C186.256 62.6783 186.597 62.554 186.97 62.4723C187.347 62.3871 187.725 62.3196 188.105 62.2699C188.602 62.206 189.005 62.158 189.314 62.1261C189.627 62.0906 189.854 62.032 189.996 61.9503C190.141 61.8686 190.214 61.7266 190.214 61.5241V61.4815C190.214 60.956 190.07 60.5476 189.783 60.2564C189.499 59.9652 189.067 59.8196 188.488 59.8196C187.888 59.8196 187.418 59.951 187.077 60.2138C186.736 60.4766 186.496 60.7571 186.358 61.0554L185.165 60.6293C185.378 60.1321 185.662 59.745 186.017 59.468C186.375 59.1875 186.766 58.9922 187.189 58.8821C187.615 58.7685 188.034 58.7116 188.446 58.7116C188.709 58.7116 189.01 58.7436 189.351 58.8075C189.696 58.8679 190.028 58.994 190.347 59.1857C190.671 59.3775 190.939 59.6669 191.152 60.054C191.365 60.4411 191.471 60.9595 191.471 61.6094V67H190.214V65.892H190.15C190.065 66.0696 189.923 66.2596 189.724 66.462C189.525 66.6644 189.261 66.8366 188.93 66.9787C188.6 67.1207 188.197 67.1918 187.721 67.1918ZM187.913 66.0625C188.41 66.0625 188.829 65.9648 189.17 65.7695C189.515 65.5742 189.774 65.3221 189.948 65.0131C190.125 64.7042 190.214 64.3793 190.214 64.0384V62.8878C190.161 62.9517 190.044 63.0103 189.863 63.0636C189.685 63.1133 189.479 63.1577 189.245 63.1967C189.014 63.2322 188.788 63.2642 188.568 63.2926C188.352 63.3175 188.176 63.3388 188.041 63.3565C187.714 63.3991 187.409 63.4684 187.125 63.5643C186.844 63.6566 186.617 63.7969 186.443 63.9851C186.272 64.1697 186.187 64.4219 186.187 64.7415C186.187 65.1783 186.349 65.5085 186.672 65.7322C186.999 65.9524 187.412 66.0625 187.913 66.0625ZM193.766 67V58.8182H194.98V60.054H195.066C195.215 59.6491 195.485 59.3207 195.875 59.0685C196.266 58.8164 196.706 58.6903 197.196 58.6903C197.289 58.6903 197.404 58.6921 197.542 58.6957C197.681 58.6992 197.786 58.7045 197.857 58.7116V59.9901C197.814 59.9794 197.716 59.9634 197.564 59.9421C197.415 59.9173 197.257 59.9048 197.09 59.9048C196.692 59.9048 196.337 59.9883 196.024 60.1552C195.715 60.3185 195.47 60.5458 195.289 60.837C195.112 61.1246 195.023 61.4531 195.023 61.8224V67H193.766ZM202.422 67.1705C201.655 67.1705 200.994 66.9893 200.44 66.6271C199.886 66.2649 199.46 65.766 199.162 65.1303C198.863 64.4947 198.714 63.7685 198.714 62.9517C198.714 62.1207 198.867 61.3874 199.172 60.7518C199.481 60.1126 199.911 59.6136 200.461 59.255C201.015 58.8928 201.662 58.7116 202.4 58.7116C202.976 58.7116 203.494 58.8182 203.956 59.0312C204.417 59.2443 204.796 59.5426 205.09 59.9261C205.385 60.3097 205.568 60.7571 205.639 61.2685H204.382C204.286 60.8956 204.073 60.5653 203.743 60.2777C203.416 59.9865 202.976 59.8409 202.422 59.8409C201.932 59.8409 201.502 59.9687 201.133 60.2244C200.767 60.4766 200.481 60.8335 200.275 61.2951C200.073 61.7532 199.971 62.2912 199.971 62.9091C199.971 63.5412 200.071 64.0916 200.27 64.5604C200.472 65.0291 200.756 65.3931 201.122 65.6523C201.491 65.9116 201.925 66.0412 202.422 66.0412C202.748 66.0412 203.045 65.9844 203.311 65.8707C203.578 65.7571 203.803 65.5938 203.988 65.3807C204.172 65.1676 204.304 64.9119 204.382 64.6136H205.639C205.568 65.0966 205.392 65.5316 205.112 65.9187C204.835 66.3022 204.467 66.6076 204.009 66.8349C203.555 67.0586 203.025 67.1705 202.422 67.1705ZM208.734 62.0781V67H207.477V56.0909H208.734V60.0966H208.84C209.032 59.674 209.32 59.3384 209.703 59.0898C210.09 58.8377 210.605 58.7116 211.248 58.7116C211.806 58.7116 212.294 58.8235 212.713 59.0472C213.132 59.2674 213.457 59.6065 213.688 60.0646C213.922 60.5192 214.039 61.098 214.039 61.8011V67H212.782V61.8864C212.782 61.2365 212.613 60.734 212.276 60.3789C211.942 60.0202 211.479 59.8409 210.886 59.8409C210.474 59.8409 210.105 59.9279 209.778 60.1019C209.455 60.2759 209.199 60.5298 209.011 60.8636C208.826 61.1974 208.734 61.6023 208.734 62.0781ZM216.339 67V58.8182H217.596V67H216.339ZM216.978 57.4545C216.733 57.4545 216.522 57.3711 216.344 57.2042C216.17 57.0373 216.083 56.8366 216.083 56.6023C216.083 56.3679 216.17 56.1673 216.344 56.0004C216.522 55.8335 216.733 55.75 216.978 55.75C217.223 55.75 217.433 55.8335 217.607 56.0004C217.784 56.1673 217.873 56.3679 217.873 56.6023C217.873 56.8366 217.784 57.0373 217.607 57.2042C217.433 57.3711 217.223 57.4545 216.978 57.4545ZM223.457 58.8182V59.8835H219.217V58.8182H223.457ZM220.453 56.858H221.71V64.6562C221.71 65.0114 221.761 65.2777 221.864 65.4553C221.971 65.6293 222.106 65.7464 222.269 65.8068C222.436 65.8636 222.612 65.892 222.796 65.892C222.935 65.892 223.048 65.8849 223.137 65.8707C223.226 65.853 223.297 65.8388 223.35 65.8281L223.606 66.9574C223.521 66.9893 223.402 67.0213 223.249 67.0533C223.096 67.0888 222.903 67.1065 222.669 67.1065C222.313 67.1065 221.965 67.0302 221.624 66.8775C221.287 66.7248 221.007 66.4922 220.783 66.1797C220.563 65.8672 220.453 65.473 220.453 64.9972V56.858ZM228.69 67.1705C227.902 67.1705 227.222 66.9964 226.65 66.6484C226.082 66.2969 225.643 65.8068 225.335 65.1783C225.029 64.5462 224.876 63.8111 224.876 62.973C224.876 62.1349 225.029 61.3963 225.335 60.7571C225.643 60.1143 226.073 59.6136 226.624 59.255C227.178 58.8928 227.824 58.7116 228.562 58.7116C228.989 58.7116 229.409 58.7827 229.825 58.9247C230.24 59.0668 230.619 59.2976 230.96 59.6172C231.3 59.9332 231.572 60.3523 231.775 60.8743C231.977 61.3963 232.078 62.0391 232.078 62.8026V63.3352H225.771V62.2486H230.8C230.8 61.7869 230.707 61.375 230.523 61.0128C230.342 60.6506 230.082 60.3647 229.745 60.1552C229.411 59.9457 229.017 59.8409 228.562 59.8409C228.062 59.8409 227.629 59.9652 227.263 60.2138C226.901 60.4588 226.622 60.7784 226.426 61.1726C226.231 61.5668 226.134 61.9893 226.134 62.4403V63.1648C226.134 63.7827 226.24 64.3065 226.453 64.7362C226.67 65.1623 226.97 65.4872 227.353 65.7109C227.737 65.9311 228.183 66.0412 228.69 66.0412C229.021 66.0412 229.319 65.995 229.585 65.9027C229.855 65.8068 230.088 65.6648 230.283 65.4766C230.478 65.2848 230.629 65.0469 230.736 64.7628L231.95 65.1037C231.822 65.5156 231.608 65.8778 231.306 66.1903C231.004 66.4993 230.631 66.7408 230.187 66.9148C229.743 67.0852 229.244 67.1705 228.69 67.1705ZM237.314 67.1705C236.547 67.1705 235.887 66.9893 235.333 66.6271C234.779 66.2649 234.353 65.766 234.054 65.1303C233.756 64.4947 233.607 63.7685 233.607 62.9517C233.607 62.1207 233.76 61.3874 234.065 60.7518C234.374 60.1126 234.804 59.6136 235.354 59.255C235.908 58.8928 236.554 58.7116 237.293 58.7116C237.868 58.7116 238.387 58.8182 238.848 59.0312C239.31 59.2443 239.688 59.5426 239.983 59.9261C240.278 60.3097 240.461 60.7571 240.532 61.2685H239.275C239.179 60.8956 238.966 60.5653 238.635 60.2777C238.309 59.9865 237.868 59.8409 237.314 59.8409C236.824 59.8409 236.395 59.9687 236.025 60.2244C235.659 60.4766 235.374 60.8335 235.168 61.2951C234.965 61.7532 234.864 62.2912 234.864 62.9091C234.864 63.5412 234.963 64.0916 235.162 64.5604C235.365 65.0291 235.649 65.3931 236.015 65.6523C236.384 65.9116 236.817 66.0412 237.314 66.0412C237.641 66.0412 237.938 65.9844 238.204 65.8707C238.47 65.7571 238.696 65.5938 238.88 65.3807C239.065 65.1676 239.196 64.9119 239.275 64.6136H240.532C240.461 65.0966 240.285 65.5316 240.004 65.9187C239.727 66.3022 239.36 66.6076 238.902 66.8349C238.447 67.0586 237.918 67.1705 237.314 67.1705ZM245.928 58.8182V59.8835H241.688V58.8182H245.928ZM242.923 56.858H244.18V64.6562C244.18 65.0114 244.232 65.2777 244.335 65.4553C244.441 65.6293 244.576 65.7464 244.74 65.8068C244.907 65.8636 245.082 65.892 245.267 65.892C245.406 65.892 245.519 65.8849 245.608 65.8707C245.697 65.853 245.768 65.8388 245.821 65.8281L246.077 66.9574C245.991 66.9893 245.873 67.0213 245.72 67.0533C245.567 67.0888 245.374 67.1065 245.139 67.1065C244.784 67.1065 244.436 67.0302 244.095 66.8775C243.758 66.7248 243.477 66.4922 243.254 66.1797C243.033 65.8672 242.923 65.473 242.923 64.9972V56.858ZM252.975 63.6548V58.8182H254.232V67H252.975V65.6151H252.89C252.698 66.0305 252.4 66.3839 251.995 66.6751C251.59 66.9627 251.078 67.1065 250.461 67.1065C249.949 67.1065 249.495 66.9947 249.097 66.771C248.699 66.5437 248.387 66.2028 248.159 65.7482C247.932 65.2901 247.819 64.7131 247.819 64.017V58.8182H249.076V63.9318C249.076 64.5284 249.243 65.0043 249.576 65.3594C249.914 65.7145 250.343 65.892 250.865 65.892C251.178 65.892 251.496 65.8121 251.819 65.6523C252.146 65.4925 252.419 65.2475 252.639 64.9173C252.863 64.587 252.975 64.1662 252.975 63.6548ZM256.534 67V58.8182H257.749V60.054H257.834C257.983 59.6491 258.253 59.3207 258.644 59.0685C259.034 58.8164 259.475 58.6903 259.965 58.6903C260.057 58.6903 260.172 58.6921 260.311 58.6957C260.449 58.6992 260.554 58.7045 260.625 58.7116V59.9901C260.583 59.9794 260.485 59.9634 260.332 59.9421C260.183 59.9173 260.025 59.9048 259.858 59.9048C259.46 59.9048 259.105 59.9883 258.793 60.1552C258.484 60.3185 258.239 60.5458 258.058 60.837C257.88 61.1246 257.791 61.4531 257.791 61.8224V67H256.534ZM265.297 67.1705C264.508 67.1705 263.828 66.9964 263.257 66.6484C262.688 66.2969 262.25 65.8068 261.941 65.1783C261.636 64.5462 261.483 63.8111 261.483 62.973C261.483 62.1349 261.636 61.3963 261.941 60.7571C262.25 60.1143 262.68 59.6136 263.23 59.255C263.784 58.8928 264.43 58.7116 265.169 58.7116C265.595 58.7116 266.016 58.7827 266.431 58.9247C266.847 59.0668 267.225 59.2976 267.566 59.6172C267.907 59.9332 268.179 60.3523 268.381 60.8743C268.583 61.3963 268.685 62.0391 268.685 62.8026V63.3352H262.378V62.2486H267.406C267.406 61.7869 267.314 61.375 267.129 61.0128C266.948 60.6506 266.689 60.3647 266.351 60.1552C266.018 59.9457 265.623 59.8409 265.169 59.8409C264.668 59.8409 264.235 59.9652 263.869 60.2138C263.507 60.4588 263.228 60.7784 263.033 61.1726C262.838 61.5668 262.74 61.9893 262.74 62.4403V63.1648C262.74 63.7827 262.847 64.3065 263.06 64.7362C263.276 65.1623 263.576 65.4872 263.96 65.7109C264.343 65.9311 264.789 66.0412 265.297 66.0412C265.627 66.0412 265.925 65.995 266.192 65.9027C266.462 65.8068 266.694 65.6648 266.889 65.4766C267.085 65.2848 267.236 65.0469 267.342 64.7628L268.557 65.1037C268.429 65.5156 268.214 65.8778 267.912 66.1903C267.61 66.4993 267.237 66.7408 266.794 66.9148C266.35 67.0852 265.851 67.1705 265.297 67.1705Z" fill="#A9A9A9"/>
<rect x="27" y="102" width="26" height="4" rx="2" fill="#9CE5B6"/>
</svg>
