<svg width="360" height="138" viewBox="0 0 360 138" fill="none" xmlns="http://www.w3.org/2000/svg">
<rect width="360" height="138" rx="10" fill="white"/>
<path d="M34.52 41.24C33.2133 41.24 32.0667 40.94 31.08 40.34C30.0933 39.7267 29.3267 38.88 28.78 37.8C28.2467 36.7067 27.98 35.44 27.98 34C27.98 32.5733 28.2533 31.32 28.8 30.24C29.36 29.1467 30.14 28.2933 31.14 27.68C32.1533 27.0667 33.3467 26.76 34.72 26.76C36.2667 26.76 37.56 27.1333 38.6 27.88C39.64 28.6267 40.3067 29.6667 40.6 31H38.96C38.7733 30.0933 38.3067 29.3733 37.56 28.84C36.8267 28.3067 35.88 28.04 34.72 28.04C33.6533 28.04 32.72 28.28 31.92 28.76C31.1333 29.24 30.52 29.9267 30.08 30.82C29.64 31.7 29.42 32.76 29.42 34C29.42 35.24 29.6333 36.3067 30.06 37.2C30.5 38.0933 31.1 38.78 31.86 39.26C32.6333 39.74 33.52 39.98 34.52 39.98C36.0933 39.98 37.2733 39.5133 38.06 38.58C38.86 37.6467 39.3133 36.36 39.42 34.72H35.2V33.58H40.86V41H39.58L39.46 38.52C39.1133 39.0933 38.7133 39.5867 38.26 40C37.82 40.4133 37.2933 40.7267 36.68 40.94C36.08 41.14 35.36 41.24 34.52 41.24ZM47.8377 41.24C46.9043 41.24 46.0777 41.02 45.3577 40.58C44.651 40.14 44.091 39.5267 43.6777 38.74C43.2777 37.94 43.0777 37.0067 43.0777 35.94C43.0777 34.8733 43.2777 33.9467 43.6777 33.16C44.0777 32.3733 44.6377 31.7667 45.3577 31.34C46.091 30.9 46.931 30.68 47.8777 30.68C48.851 30.68 49.671 30.9 50.3377 31.34C51.0177 31.78 51.531 32.3533 51.8777 33.06C52.2377 33.7667 52.4177 34.54 52.4177 35.38C52.4177 35.5133 52.4177 35.6533 52.4177 35.8C52.4177 35.9333 52.411 36.0933 52.3977 36.28H44.1377V35.1H51.0577C51.031 34.0733 50.711 33.28 50.0977 32.72C49.4977 32.16 48.7377 31.88 47.8177 31.88C47.2177 31.88 46.6577 32.02 46.1377 32.3C45.631 32.5667 45.2177 32.9667 44.8977 33.5C44.591 34.02 44.4377 34.68 44.4377 35.48V36C44.4377 36.9067 44.5977 37.66 44.9177 38.26C45.2377 38.86 45.6577 39.3067 46.1777 39.6C46.711 39.8933 47.2643 40.04 47.8377 40.04C48.5977 40.04 49.2243 39.8733 49.7177 39.54C50.211 39.1933 50.5643 38.72 50.7777 38.12H52.1577C51.9843 38.7067 51.7043 39.24 51.3177 39.72C50.9443 40.2 50.4643 40.5733 49.8777 40.84C49.291 41.1067 48.611 41.24 47.8377 41.24ZM58.1384 41C57.5651 41 57.0718 40.9133 56.6584 40.74C56.2451 40.5533 55.9251 40.2533 55.6984 39.84C55.4851 39.4133 55.3784 38.8333 55.3784 38.1V32.12H53.6184V30.92H55.3784L55.5784 28.58H56.7784V30.94H59.7984V32.12H56.7784V38.1C56.7784 38.7667 56.9118 39.22 57.1784 39.46C57.4451 39.6867 57.9184 39.8 58.5984 39.8H59.6384V41H58.1384ZM71.9825 41.24C70.9558 41.24 70.0625 41.0533 69.3025 40.68C68.5558 40.3067 67.9825 39.7867 67.5825 39.12C67.1825 38.44 66.9825 37.6667 66.9825 36.8H68.4425C68.4425 37.3867 68.5758 37.9267 68.8425 38.42C69.1092 38.9133 69.5025 39.3133 70.0225 39.62C70.5425 39.9133 71.1958 40.06 71.9825 40.06C72.6758 40.06 73.2558 39.9467 73.7225 39.72C74.2025 39.48 74.5692 39.1667 74.8225 38.78C75.0758 38.3933 75.2025 37.9533 75.2025 37.46C75.2025 36.8733 75.0758 36.4 74.8225 36.04C74.5825 35.68 74.2492 35.3867 73.8225 35.16C73.3958 34.9333 72.9092 34.74 72.3625 34.58C71.8292 34.4067 71.2625 34.22 70.6625 34.02C69.5825 33.6467 68.7892 33.1867 68.2825 32.64C67.7758 32.0933 67.5158 31.3933 67.5025 30.54C67.5025 29.8067 67.6692 29.16 68.0025 28.6C68.3492 28.0267 68.8492 27.58 69.5025 27.26C70.1558 26.9267 70.9292 26.76 71.8225 26.76C72.6892 26.76 73.4425 26.9267 74.0825 27.26C74.7358 27.58 75.2425 28.0333 75.6025 28.62C75.9625 29.1933 76.1425 29.8533 76.1425 30.6H74.7025C74.7025 30.1733 74.5892 29.76 74.3625 29.36C74.1492 28.9467 73.8225 28.6133 73.3825 28.36C72.9558 28.0933 72.4092 27.96 71.7425 27.96C71.1958 27.96 70.7092 28.06 70.2825 28.26C69.8692 28.4467 69.5425 28.7267 69.3025 29.1C69.0625 29.46 68.9425 29.8867 68.9425 30.38C68.9425 30.86 69.0492 31.2533 69.2625 31.56C69.4758 31.8667 69.7758 32.12 70.1625 32.32C70.5492 32.52 71.0025 32.7067 71.5225 32.88C72.0425 33.04 72.6225 33.2267 73.2625 33.44C73.9158 33.6667 74.4958 33.94 75.0025 34.26C75.5092 34.58 75.9092 34.9933 76.2025 35.5C76.4958 35.9933 76.6425 36.62 76.6425 37.38C76.6425 38.0333 76.4692 38.66 76.1225 39.26C75.7892 39.8467 75.2758 40.3267 74.5825 40.7C73.8892 41.06 73.0225 41.24 71.9825 41.24ZM82.8259 41C82.2526 41 81.7593 40.9133 81.3459 40.74C80.9326 40.5533 80.6126 40.2533 80.3859 39.84C80.1726 39.4133 80.0659 38.8333 80.0659 38.1V32.12H78.3059V30.92H80.0659L80.2659 28.58H81.4659V30.94H84.4859V32.12H81.4659V38.1C81.4659 38.7667 81.5993 39.22 81.8659 39.46C82.1326 39.6867 82.6059 39.8 83.2859 39.8H84.3259V41H82.8259ZM89.8822 41.24C89.0689 41.24 88.3889 41.0933 87.8422 40.8C87.3089 40.5067 86.9089 40.1267 86.6422 39.66C86.3889 39.1933 86.2622 38.68 86.2622 38.12C86.2622 37.4267 86.4355 36.84 86.7822 36.36C87.1422 35.88 87.6422 35.52 88.2822 35.28C88.9222 35.04 89.6689 34.92 90.5222 34.92H93.2422C93.2422 34.2667 93.1422 33.7133 92.9422 33.26C92.7422 32.8067 92.4489 32.4667 92.0622 32.24C91.6755 32 91.1889 31.88 90.6022 31.88C89.9222 31.88 89.3355 32.0533 88.8422 32.4C88.3489 32.7467 88.0422 33.2533 87.9222 33.92H86.4622C86.5422 33.2133 86.7822 32.62 87.1822 32.14C87.5955 31.66 88.1022 31.3 88.7022 31.06C89.3022 30.8067 89.9355 30.68 90.6022 30.68C91.5355 30.68 92.2955 30.86 92.8822 31.22C93.4689 31.5667 93.9089 32.0467 94.2022 32.66C94.4955 33.2733 94.6422 33.98 94.6422 34.78V41H93.3622L93.2822 39.16C93.1622 39.44 92.9955 39.7067 92.7822 39.96C92.5822 40.2133 92.3422 40.4333 92.0622 40.62C91.7955 40.8067 91.4822 40.9533 91.1222 41.06C90.7622 41.18 90.3489 41.24 89.8822 41.24ZM90.0422 40.02C90.5355 40.02 90.9755 39.92 91.3622 39.72C91.7622 39.5067 92.1022 39.2333 92.3822 38.9C92.6622 38.5667 92.8755 38.1933 93.0222 37.78C93.1689 37.3533 93.2422 36.9133 93.2422 36.46V36.1H90.6222C89.9155 36.1 89.3489 36.1867 88.9222 36.36C88.4955 36.5333 88.1889 36.7667 88.0022 37.06C87.8155 37.3533 87.7222 37.6933 87.7222 38.08C87.7222 38.4667 87.8089 38.8067 87.9822 39.1C88.1555 39.38 88.4155 39.6067 88.7622 39.78C89.1222 39.94 89.5489 40.02 90.0422 40.02ZM97.2872 41V30.92H98.5672L98.6672 32.86C98.8805 32.3933 99.1672 32 99.5272 31.68C99.8872 31.36 100.321 31.1133 100.827 30.94C101.334 30.7667 101.907 30.68 102.547 30.68V32.14H102.007C101.581 32.14 101.167 32.2 100.767 32.32C100.367 32.4267 100.014 32.6133 99.7072 32.88C99.4005 33.1467 99.1539 33.5067 98.9672 33.96C98.7805 34.4133 98.6872 34.98 98.6872 35.66V41H97.2872ZM108.334 41C107.76 41 107.267 40.9133 106.854 40.74C106.44 40.5533 106.12 40.2533 105.894 39.84C105.68 39.4133 105.574 38.8333 105.574 38.1V32.12H103.814V30.92H105.574L105.774 28.58H106.974V30.94H109.994V32.12H106.974V38.1C106.974 38.7667 107.107 39.22 107.374 39.46C107.64 39.6867 108.114 39.8 108.794 39.8H109.834V41H108.334ZM116.217 41.24C115.283 41.24 114.457 41.02 113.737 40.58C113.03 40.14 112.47 39.5267 112.057 38.74C111.657 37.94 111.457 37.0067 111.457 35.94C111.457 34.8733 111.657 33.9467 112.057 33.16C112.457 32.3733 113.017 31.7667 113.737 31.34C114.47 30.9 115.31 30.68 116.257 30.68C117.23 30.68 118.05 30.9 118.717 31.34C119.397 31.78 119.91 32.3533 120.257 33.06C120.617 33.7667 120.797 34.54 120.797 35.38C120.797 35.5133 120.797 35.6533 120.797 35.8C120.797 35.9333 120.79 36.0933 120.777 36.28H112.517V35.1H119.437C119.41 34.0733 119.09 33.28 118.477 32.72C117.877 32.16 117.117 31.88 116.197 31.88C115.597 31.88 115.037 32.02 114.517 32.3C114.01 32.5667 113.597 32.9667 113.277 33.5C112.97 34.02 112.817 34.68 112.817 35.48V36C112.817 36.9067 112.977 37.66 113.297 38.26C113.617 38.86 114.037 39.3067 114.557 39.6C115.09 39.8933 115.643 40.04 116.217 40.04C116.977 40.04 117.603 39.8733 118.097 39.54C118.59 39.1933 118.943 38.72 119.157 38.12H120.537C120.363 38.7067 120.083 39.24 119.697 39.72C119.323 40.2 118.843 40.5733 118.257 40.84C117.67 41.1067 116.99 41.24 116.217 41.24ZM127.488 41.24C126.515 41.24 125.661 41.0133 124.928 40.56C124.208 40.0933 123.648 39.46 123.248 38.66C122.848 37.86 122.648 36.9533 122.648 35.94C122.648 34.9267 122.848 34.0267 123.248 33.24C123.648 32.44 124.215 31.8133 124.948 31.36C125.681 30.9067 126.535 30.68 127.508 30.68C128.361 30.68 129.108 30.8667 129.748 31.24C130.401 31.6 130.901 32.1133 131.248 32.78V26.6H132.648V41H131.368L131.248 39.18C131.035 39.5267 130.755 39.86 130.408 40.18C130.075 40.5 129.661 40.76 129.168 40.96C128.688 41.1467 128.128 41.24 127.488 41.24ZM127.608 40.02C128.315 40.02 128.928 39.8533 129.448 39.52C129.981 39.1867 130.395 38.7133 130.688 38.1C130.995 37.4867 131.148 36.7733 131.148 35.96C131.148 35.1467 130.995 34.4333 130.688 33.82C130.395 33.2067 129.981 32.7333 129.448 32.4C128.928 32.0667 128.315 31.9 127.608 31.9C126.915 31.9 126.301 32.0667 125.768 32.4C125.235 32.7333 124.815 33.2067 124.508 33.82C124.215 34.42 124.068 35.1333 124.068 35.96C124.068 36.7867 124.221 37.5067 124.528 38.12C124.835 38.72 125.255 39.1867 125.788 39.52C126.321 39.8533 126.928 40.02 127.608 40.02Z" fill="black"/>
<path d="M94.3536 102.354C94.5488 102.158 94.5488 101.842 94.3536 101.646L91.1716 98.4645C90.9763 98.2692 90.6597 98.2692 90.4645 98.4645C90.2692 98.6597 90.2692 98.9763 90.4645 99.1716L93.2929 102L90.4645 104.828C90.2692 105.024 90.2692 105.34 90.4645 105.536C90.6597 105.731 90.9763 105.731 91.1716 105.536L94.3536 102.354ZM69 102V102.5H94V102V101.5H69V102Z" fill="white"/>
<rect x="27" y="89" width="64" height="24" rx="12" fill="#B39CE5"/>
<path d="M37.0994 57.5H35.7784C35.7003 57.12 35.5636 56.7862 35.3683 56.4986C35.1765 56.2109 34.9421 55.9695 34.6651 55.7741C34.3917 55.5753 34.0881 55.4261 33.7543 55.3267C33.4205 55.2273 33.0724 55.1776 32.7102 55.1776C32.0497 55.1776 31.4513 55.3445 30.9151 55.6783C30.3825 56.0121 29.9581 56.5039 29.642 57.1538C29.3295 57.8036 29.1733 58.6009 29.1733 59.5455C29.1733 60.4901 29.3295 61.2873 29.642 61.9371C29.9581 62.587 30.3825 63.0788 30.9151 63.4126C31.4513 63.7464 32.0497 63.9134 32.7102 63.9134C33.0724 63.9134 33.4205 63.8636 33.7543 63.7642C34.0881 63.6648 34.3917 63.5174 34.6651 63.3221C34.9421 63.1232 35.1765 62.88 35.3683 62.5923C35.5636 62.3011 35.7003 61.9673 35.7784 61.5909H37.0994C37 62.1484 36.8189 62.6474 36.5561 63.0877C36.2933 63.5281 35.9666 63.9027 35.576 64.2116C35.1854 64.517 34.7468 64.7496 34.2603 64.9094C33.7773 65.0692 33.2607 65.1491 32.7102 65.1491C31.7798 65.1491 30.9524 64.9219 30.228 64.4673C29.5036 64.0128 28.9336 63.3665 28.5181 62.5284C28.1026 61.6903 27.8949 60.696 27.8949 59.5455C27.8949 58.3949 28.1026 57.4006 28.5181 56.5625C28.9336 55.7244 29.5036 55.0781 30.228 54.6236C30.9524 54.169 31.7798 53.9418 32.7102 53.9418C33.2607 53.9418 33.7773 54.0217 34.2603 54.1815C34.7468 54.3413 35.1854 54.5756 35.576 54.8846C35.9666 55.19 36.2933 55.5629 36.5561 56.0032C36.8189 56.44 37 56.9389 37.0994 57.5ZM39.0637 65V56.8182H40.2781V58.054H40.3634C40.5125 57.6491 40.7824 57.3207 41.173 57.0685C41.5637 56.8164 42.004 56.6903 42.4941 56.6903C42.5864 56.6903 42.7018 56.6921 42.8403 56.6957C42.9788 56.6992 43.0835 56.7045 43.1546 56.7116V57.9901C43.1119 57.9794 43.0143 57.9634 42.8616 57.9421C42.7124 57.9173 42.5544 57.9048 42.3875 57.9048C41.9898 57.9048 41.6347 57.9883 41.3222 58.1552C41.0132 58.3185 40.7682 58.5458 40.5871 58.837C40.4095 59.1246 40.3208 59.4531 40.3208 59.8224V65H39.0637ZM47.8261 65.1705C47.0377 65.1705 46.3577 64.9964 45.786 64.6484C45.2178 64.2969 44.7792 63.8068 44.4703 63.1783C44.1649 62.5462 44.0122 61.8111 44.0122 60.973C44.0122 60.1349 44.1649 59.3963 44.4703 58.7571C44.7792 58.1143 45.2089 57.6136 45.7593 57.255C46.3133 56.8928 46.9596 56.7116 47.6982 56.7116C48.1244 56.7116 48.5452 56.7827 48.9607 56.9247C49.3762 57.0668 49.7544 57.2976 50.0953 57.6172C50.4362 57.9332 50.7078 58.3523 50.9102 58.8743C51.1127 59.3963 51.2139 60.0391 51.2139 60.8026V61.3352H44.907V60.2486H49.9355C49.9355 59.7869 49.8431 59.375 49.6585 59.0128C49.4774 58.6506 49.2181 58.3647 48.8808 58.1552C48.547 57.9457 48.1528 57.8409 47.6982 57.8409C47.1975 57.8409 46.7643 57.9652 46.3985 58.2138C46.0363 58.4588 45.7575 58.7784 45.5622 59.1726C45.3669 59.5668 45.2693 59.9893 45.2693 60.4403V61.1648C45.2693 61.7827 45.3758 62.3065 45.5889 62.7362C45.8055 63.1623 46.1056 63.4872 46.4891 63.7109C46.8726 63.9311 47.3183 64.0412 47.8261 64.0412C48.1563 64.0412 48.4546 63.995 48.721 63.9027C48.9909 63.8068 49.2235 63.6648 49.4188 63.4766C49.6141 63.2848 49.765 63.0469 49.8715 62.7628L51.086 63.1037C50.9582 63.5156 50.7433 63.8778 50.4415 64.1903C50.1396 64.4993 49.7668 64.7408 49.3229 64.9148C48.879 65.0852 48.3801 65.1705 47.8261 65.1705ZM55.5338 65.1918C55.0154 65.1918 54.5448 65.0941 54.1222 64.8988C53.6997 64.6999 53.3641 64.4141 53.1155 64.0412C52.8669 63.6648 52.7426 63.2102 52.7426 62.6776C52.7426 62.2088 52.835 61.8288 53.0196 61.5376C53.2043 61.2429 53.4511 61.0121 53.76 60.8452C54.069 60.6783 54.4099 60.554 54.7828 60.4723C55.1592 60.3871 55.5374 60.3196 55.9173 60.2699C56.4145 60.206 56.8176 60.158 57.1265 60.1261C57.439 60.0906 57.6663 60.032 57.8083 59.9503C57.9539 59.8686 58.0267 59.7266 58.0267 59.5241V59.4815C58.0267 58.956 57.8829 58.5476 57.5953 58.2564C57.3112 57.9652 56.8797 57.8196 56.3009 57.8196C55.7007 57.8196 55.2302 57.951 54.8893 58.2138C54.5484 58.4766 54.3087 58.7571 54.1702 59.0554L52.977 58.6293C53.1901 58.1321 53.4742 57.745 53.8293 57.468C54.1879 57.1875 54.5786 56.9922 55.0012 56.8821C55.4273 56.7685 55.8463 56.7116 56.2583 56.7116C56.521 56.7116 56.8229 56.7436 57.1638 56.8075C57.5083 56.8679 57.8403 56.994 58.1599 57.1857C58.483 57.3775 58.7512 57.6669 58.9642 58.054C59.1773 58.4411 59.2838 58.9595 59.2838 59.6094V65H58.0267V63.892H57.9628C57.8776 64.0696 57.7355 64.2596 57.5367 64.462C57.3378 64.6644 57.0732 64.8366 56.743 64.9787C56.4127 65.1207 56.0097 65.1918 55.5338 65.1918ZM55.7256 64.0625C56.2227 64.0625 56.6418 63.9648 56.9827 63.7695C57.3271 63.5742 57.5864 63.3221 57.7604 63.0131C57.9379 62.7042 58.0267 62.3793 58.0267 62.0384V60.8878C57.9735 60.9517 57.8563 61.0103 57.6752 61.0636C57.4976 61.1133 57.2916 61.1577 57.0573 61.1967C56.8264 61.2322 56.6009 61.2642 56.3808 61.2926C56.1642 61.3175 55.9884 61.3388 55.8534 61.3565C55.5267 61.3991 55.2213 61.4684 54.9372 61.5643C54.6567 61.6566 54.4294 61.7969 54.2554 61.9851C54.085 62.1697 53.9997 62.4219 53.9997 62.7415C53.9997 63.1783 54.1613 63.5085 54.4845 63.7322C54.8112 63.9524 55.2249 64.0625 55.7256 64.0625ZM65.1365 56.8182V57.8835H60.8965V56.8182H65.1365ZM62.1323 54.858H63.3894V62.6562C63.3894 63.0114 63.4409 63.2777 63.5439 63.4553C63.6504 63.6293 63.7853 63.7464 63.9487 63.8068C64.1156 63.8636 64.2914 63.892 64.476 63.892C64.6145 63.892 64.7282 63.8849 64.8169 63.8707C64.9057 63.853 64.9767 63.8388 65.03 63.8281L65.2857 64.9574C65.2005 64.9893 65.0815 65.0213 64.9288 65.0533C64.7761 65.0888 64.5826 65.1065 64.3482 65.1065C63.9931 65.1065 63.6451 65.0302 63.3042 64.8775C62.9668 64.7248 62.6863 64.4922 62.4625 64.1797C62.2424 63.8672 62.1323 63.473 62.1323 62.9972V54.858ZM70.37 65.1705C69.5817 65.1705 68.9016 64.9964 68.3299 64.6484C67.7617 64.2969 67.3232 63.8068 67.0142 63.1783C66.7088 62.5462 66.5561 61.8111 66.5561 60.973C66.5561 60.1349 66.7088 59.3963 67.0142 58.7571C67.3232 58.1143 67.7528 57.6136 68.3033 57.255C68.8572 56.8928 69.5036 56.7116 70.2422 56.7116C70.6683 56.7116 71.0891 56.7827 71.5046 56.9247C71.9201 57.0668 72.2983 57.2976 72.6392 57.6172C72.9801 57.9332 73.2518 58.3523 73.4542 58.8743C73.6566 59.3963 73.7578 60.0391 73.7578 60.8026V61.3352H67.451V60.2486H72.4794C72.4794 59.7869 72.3871 59.375 72.2024 59.0128C72.0213 58.6506 71.7621 58.3647 71.4247 58.1552C71.0909 57.9457 70.6967 57.8409 70.2422 57.8409C69.7415 57.8409 69.3082 57.9652 68.9425 58.2138C68.5803 58.4588 68.3015 58.7784 68.1062 59.1726C67.9109 59.5668 67.8132 59.9893 67.8132 60.4403V61.1648C67.8132 61.7827 67.9197 62.3065 68.1328 62.7362C68.3494 63.1623 68.6495 63.4872 69.033 63.7109C69.4165 63.9311 69.8622 64.0412 70.37 64.0412C70.7003 64.0412 70.9986 63.995 71.2649 63.9027C71.5348 63.8068 71.7674 63.6648 71.9627 63.4766C72.158 63.2848 72.3089 63.0469 72.4155 62.7628L73.63 63.1037C73.5021 63.5156 73.2873 63.8778 72.9854 64.1903C72.6836 64.4993 72.3107 64.7408 71.8668 64.9148C71.4229 65.0852 70.924 65.1705 70.37 65.1705ZM82.2965 65.1918C81.7781 65.1918 81.3075 65.0941 80.8849 64.8988C80.4624 64.6999 80.1268 64.4141 79.8782 64.0412C79.6296 63.6648 79.5053 63.2102 79.5053 62.6776C79.5053 62.2088 79.5977 61.8288 79.7823 61.5376C79.967 61.2429 80.2138 61.0121 80.5227 60.8452C80.8317 60.6783 81.1726 60.554 81.5455 60.4723C81.9219 60.3871 82.3001 60.3196 82.68 60.2699C83.1772 60.206 83.5803 60.158 83.8892 60.1261C84.2017 60.0906 84.429 60.032 84.571 59.9503C84.7166 59.8686 84.7894 59.7266 84.7894 59.5241V59.4815C84.7894 58.956 84.6456 58.5476 84.358 58.2564C84.0739 57.9652 83.6424 57.8196 83.0636 57.8196C82.4634 57.8196 81.9929 57.951 81.652 58.2138C81.3111 58.4766 81.0714 58.7571 80.9329 59.0554L79.7397 58.6293C79.9528 58.1321 80.2369 57.745 80.592 57.468C80.9506 57.1875 81.3413 56.9922 81.7638 56.8821C82.19 56.7685 82.609 56.7116 83.021 56.7116C83.2837 56.7116 83.5856 56.7436 83.9265 56.8075C84.271 56.8679 84.603 56.994 84.9226 57.1857C85.2457 57.3775 85.5138 57.6669 85.7269 58.054C85.94 58.4411 86.0465 58.9595 86.0465 59.6094V65H84.7894V63.892H84.7255C84.6403 64.0696 84.4982 64.2596 84.2994 64.462C84.1005 64.6644 83.8359 64.8366 83.5057 64.9787C83.1754 65.1207 82.7724 65.1918 82.2965 65.1918ZM82.4883 64.0625C82.9854 64.0625 83.4045 63.9648 83.7454 63.7695C84.0898 63.5742 84.3491 63.3221 84.5231 63.0131C84.7006 62.7042 84.7894 62.3793 84.7894 62.0384V60.8878C84.7362 60.9517 84.619 61.0103 84.4379 61.0636C84.2603 61.1133 84.0543 61.1577 83.82 61.1967C83.5891 61.2322 83.3636 61.2642 83.1435 61.2926C82.9268 61.3175 82.7511 61.3388 82.6161 61.3565C82.2894 61.3991 81.984 61.4684 81.6999 61.5643C81.4194 61.6566 81.1921 61.7969 81.0181 61.9851C80.8477 62.1697 80.7624 62.4219 80.7624 62.7415C80.7624 63.1783 80.924 63.5085 81.2472 63.7322C81.5739 63.9524 81.9876 64.0625 82.4883 64.0625ZM89.5981 60.0781V65H88.341V56.8182H89.5555V58.0966H89.662C89.8538 57.6811 90.145 57.3473 90.5356 57.0952C90.9262 56.8395 91.4305 56.7116 92.0484 56.7116C92.6024 56.7116 93.0871 56.8253 93.5026 57.0526C93.9181 57.2763 94.2412 57.6172 94.472 58.0753C94.7029 58.5298 94.8183 59.1051 94.8183 59.8011V65H93.5612V59.8864C93.5612 59.2436 93.3943 58.7429 93.0605 58.3842C92.7267 58.022 92.2686 57.8409 91.6862 57.8409C91.2849 57.8409 90.9262 57.9279 90.6102 58.1019C90.2977 58.2759 90.0509 58.5298 89.8698 58.8636C89.6887 59.1974 89.5981 59.6023 89.5981 60.0781ZM100.205 65.1705C99.5231 65.1705 98.9212 64.9982 98.3991 64.6538C97.8771 64.3058 97.4688 63.8157 97.174 63.1836C96.8793 62.5479 96.7319 61.7969 96.7319 60.9304C96.7319 60.071 96.8793 59.3253 97.174 58.6932C97.4688 58.0611 97.8789 57.5728 98.4045 57.2283C98.93 56.8839 99.5373 56.7116 100.226 56.7116C100.759 56.7116 101.18 56.8004 101.489 56.978C101.801 57.152 102.039 57.3509 102.202 57.5746C102.369 57.7947 102.499 57.9759 102.591 58.1179H102.698V54.0909H103.955V65H102.74V63.7429H102.591C102.499 63.892 102.368 64.0803 102.197 64.3075C102.027 64.5312 101.783 64.7319 101.467 64.9094C101.151 65.0835 100.73 65.1705 100.205 65.1705ZM100.375 64.0412C100.88 64.0412 101.306 63.9098 101.654 63.647C102.002 63.3807 102.266 63.0131 102.447 62.5444C102.629 62.0721 102.719 61.527 102.719 60.9091C102.719 60.2983 102.63 59.7638 102.453 59.3058C102.275 58.8441 102.012 58.4854 101.664 58.2298C101.316 57.9705 100.887 57.8409 100.375 57.8409C99.8427 57.8409 99.3988 57.9776 99.0437 58.2511C98.6921 58.521 98.4276 58.8885 98.25 59.3537C98.076 59.8153 97.989 60.3338 97.989 60.9091C97.989 61.4915 98.0778 62.0206 98.2553 62.4964C98.4364 62.9687 98.7028 63.3452 99.0543 63.6257C99.4094 63.9027 99.8498 64.0412 100.375 64.0412ZM110.821 65V54.0909H114.507C115.359 54.0909 116.059 54.2365 116.606 54.5277C117.153 54.8153 117.558 55.2113 117.82 55.7156C118.083 56.2198 118.214 56.7933 118.214 57.4361C118.214 58.0788 118.083 58.6488 117.82 59.146C117.558 59.6431 117.154 60.0337 116.611 60.3178C116.068 60.5984 115.374 60.7386 114.528 60.7386H111.545V59.5455H114.486C115.068 59.5455 115.537 59.4602 115.892 59.2898C116.251 59.1193 116.51 58.8778 116.67 58.5653C116.833 58.2493 116.915 57.8729 116.915 57.4361C116.915 56.9993 116.833 56.6175 116.67 56.2908C116.506 55.9641 116.245 55.712 115.887 55.5344C115.528 55.3533 115.054 55.2628 114.464 55.2628H112.142V65H110.821ZM115.956 60.0994L118.641 65H117.107L114.464 60.0994H115.956ZM125.402 61.6548V56.8182H126.659V65H125.402V63.6151H125.316C125.125 64.0305 124.826 64.3839 124.421 64.6751C124.017 64.9627 123.505 65.1065 122.887 65.1065C122.376 65.1065 121.921 64.9947 121.524 64.771C121.126 64.5437 120.813 64.2028 120.586 63.7482C120.359 63.2901 120.245 62.7131 120.245 62.017V56.8182H121.502V61.9318C121.502 62.5284 121.669 63.0043 122.003 63.3594C122.34 63.7145 122.77 63.892 123.292 63.892C123.605 63.892 123.922 63.8121 124.246 63.6523C124.572 63.4925 124.846 63.2475 125.066 62.9173C125.29 62.587 125.402 62.1662 125.402 61.6548ZM130.218 60.0781V65H128.961V56.8182H130.176V58.0966H130.282C130.474 57.6811 130.765 57.3473 131.156 57.0952C131.546 56.8395 132.051 56.7116 132.669 56.7116C133.222 56.7116 133.707 56.8253 134.123 57.0526C134.538 57.2763 134.861 57.6172 135.092 58.0753C135.323 58.5298 135.438 59.1051 135.438 59.8011V65H134.181V59.8864C134.181 59.2436 134.014 58.7429 133.681 58.3842C133.347 58.022 132.889 57.8409 132.306 57.8409C131.905 57.8409 131.546 57.9279 131.23 58.1019C130.918 58.2759 130.671 58.5298 130.49 58.8636C130.309 59.1974 130.218 59.6023 130.218 60.0781ZM144.362 65.1918C143.843 65.1918 143.373 65.0941 142.95 64.8988C142.528 64.6999 142.192 64.4141 141.944 64.0412C141.695 63.6648 141.571 63.2102 141.571 62.6776C141.571 62.2088 141.663 61.8288 141.848 61.5376C142.032 61.2429 142.279 61.0121 142.588 60.8452C142.897 60.6783 143.238 60.554 143.611 60.4723C143.987 60.3871 144.366 60.3196 144.745 60.2699C145.243 60.206 145.646 60.158 145.955 60.1261C146.267 60.0906 146.494 60.032 146.636 59.9503C146.782 59.8686 146.855 59.7266 146.855 59.5241V59.4815C146.855 58.956 146.711 58.5476 146.423 58.2564C146.139 57.9652 145.708 57.8196 145.129 57.8196C144.529 57.8196 144.058 57.951 143.717 58.2138C143.377 58.4766 143.137 58.7571 142.998 59.0554L141.805 58.6293C142.018 58.1321 142.302 57.745 142.657 57.468C143.016 57.1875 143.407 56.9922 143.829 56.8821C144.255 56.7685 144.674 56.7116 145.086 56.7116C145.349 56.7116 145.651 56.7436 145.992 56.8075C146.336 56.8679 146.668 56.994 146.988 57.1857C147.311 57.3775 147.579 57.6669 147.792 58.054C148.005 58.4411 148.112 58.9595 148.112 59.6094V65H146.855V63.892H146.791C146.706 64.0696 146.564 64.2596 146.365 64.462C146.166 64.6644 145.901 64.8366 145.571 64.9787C145.241 65.1207 144.838 65.1918 144.362 65.1918ZM144.554 64.0625C145.051 64.0625 145.47 63.9648 145.811 63.7695C146.155 63.5742 146.415 63.3221 146.589 63.0131C146.766 62.7042 146.855 62.3793 146.855 62.0384V60.8878C146.802 60.9517 146.684 61.0103 146.503 61.0636C146.326 61.1133 146.12 61.1577 145.885 61.1967C145.655 61.2322 145.429 61.2642 145.209 61.2926C144.992 61.3175 144.816 61.3388 144.682 61.3565C144.355 61.3991 144.049 61.4684 143.765 61.5643C143.485 61.6566 143.258 61.7969 143.084 61.9851C142.913 62.1697 142.828 62.4219 142.828 62.7415C142.828 63.1783 142.989 63.5085 143.313 63.7322C143.639 63.9524 144.053 64.0625 144.554 64.0625ZM157.715 65.1705C157.033 65.1705 156.431 64.9982 155.909 64.6538C155.387 64.3058 154.979 63.8157 154.684 63.1836C154.389 62.5479 154.242 61.7969 154.242 60.9304C154.242 60.071 154.389 59.3253 154.684 58.6932C154.979 58.0611 155.389 57.5728 155.914 57.2283C156.44 56.8839 157.047 56.7116 157.736 56.7116C158.269 56.7116 158.689 56.8004 158.998 56.978C159.311 57.152 159.549 57.3509 159.712 57.5746C159.879 57.7947 160.009 57.9759 160.101 58.1179H160.208V54.0909H161.465V65H160.25V63.7429H160.101C160.009 63.892 159.877 64.0803 159.707 64.3075C159.536 64.5312 159.293 64.7319 158.977 64.9094C158.661 65.0835 158.24 65.1705 157.715 65.1705ZM157.885 64.0412C158.389 64.0412 158.816 63.9098 159.164 63.647C159.512 63.3807 159.776 63.0131 159.957 62.5444C160.138 62.0721 160.229 61.527 160.229 60.9091C160.229 60.2983 160.14 59.7638 159.963 59.3058C159.785 58.8441 159.522 58.4854 159.174 58.2298C158.826 57.9705 158.396 57.8409 157.885 57.8409C157.352 57.8409 156.909 57.9776 156.553 58.2511C156.202 58.521 155.937 58.8885 155.76 59.3537C155.586 59.8153 155.499 60.3338 155.499 60.9091C155.499 61.4915 155.588 62.0206 155.765 62.4964C155.946 62.9687 156.213 63.3452 156.564 63.6257C156.919 63.9027 157.36 64.0412 157.885 64.0412ZM166.349 65.1918C165.831 65.1918 165.36 65.0941 164.938 64.8988C164.515 64.6999 164.18 64.4141 163.931 64.0412C163.682 63.6648 163.558 63.2102 163.558 62.6776C163.558 62.2088 163.65 61.8288 163.835 61.5376C164.02 61.2429 164.267 61.0121 164.575 60.8452C164.884 60.6783 165.225 60.554 165.598 60.4723C165.975 60.3871 166.353 60.3196 166.733 60.2699C167.23 60.206 167.633 60.158 167.942 60.1261C168.254 60.0906 168.482 60.032 168.624 59.9503C168.769 59.8686 168.842 59.7266 168.842 59.5241V59.4815C168.842 58.956 168.698 58.5476 168.411 58.2564C168.127 57.9652 167.695 57.8196 167.116 57.8196C166.516 57.8196 166.046 57.951 165.705 58.2138C165.364 58.4766 165.124 58.7571 164.986 59.0554L163.792 58.6293C164.006 58.1321 164.29 57.745 164.645 57.468C165.003 57.1875 165.394 56.9922 165.817 56.8821C166.243 56.7685 166.662 56.7116 167.074 56.7116C167.336 56.7116 167.638 56.7436 167.979 56.8075C168.324 56.8679 168.656 56.994 168.975 57.1857C169.298 57.3775 169.567 57.6669 169.78 58.054C169.993 58.4411 170.099 58.9595 170.099 59.6094V65H168.842V63.892H168.778C168.693 64.0696 168.551 64.2596 168.352 64.462C168.153 64.6644 167.889 64.8366 167.558 64.9787C167.228 65.1207 166.825 65.1918 166.349 65.1918ZM166.541 64.0625C167.038 64.0625 167.457 63.9648 167.798 63.7695C168.143 63.5742 168.402 63.3221 168.576 63.0131C168.753 62.7042 168.842 62.3793 168.842 62.0384V60.8878C168.789 60.9517 168.672 61.0103 168.491 61.0636C168.313 61.1133 168.107 61.1577 167.873 61.1967C167.642 61.2322 167.416 61.2642 167.196 61.2926C166.98 61.3175 166.804 61.3388 166.669 61.3565C166.342 61.3991 166.037 61.4684 165.753 61.5643C165.472 61.6566 165.245 61.7969 165.071 61.9851C164.9 62.1697 164.815 62.4219 164.815 62.7415C164.815 63.1783 164.977 63.5085 165.3 63.7322C165.627 63.9524 166.04 64.0625 166.541 64.0625ZM175.952 56.8182V57.8835H171.712V56.8182H175.952ZM172.948 54.858H174.205V62.6562C174.205 63.0114 174.256 63.2777 174.359 63.4553C174.466 63.6293 174.601 63.7464 174.764 63.8068C174.931 63.8636 175.107 63.892 175.291 63.892C175.43 63.892 175.544 63.8849 175.632 63.8707C175.721 63.853 175.792 63.8388 175.845 63.8281L176.101 64.9574C176.016 64.9893 175.897 65.0213 175.744 65.0533C175.592 65.0888 175.398 65.1065 175.164 65.1065C174.809 65.1065 174.46 65.0302 174.12 64.8775C173.782 64.7248 173.502 64.4922 173.278 64.1797C173.058 63.8672 172.948 63.473 172.948 62.9972V54.858ZM180.251 65.1918C179.732 65.1918 179.262 65.0941 178.839 64.8988C178.416 64.6999 178.081 64.4141 177.832 64.0412C177.584 63.6648 177.459 63.2102 177.459 62.6776C177.459 62.2088 177.552 61.8288 177.736 61.5376C177.921 61.2429 178.168 61.0121 178.477 60.8452C178.786 60.6783 179.127 60.554 179.5 60.4723C179.876 60.3871 180.254 60.3196 180.634 60.2699C181.131 60.206 181.534 60.158 181.843 60.1261C182.156 60.0906 182.383 60.032 182.525 59.9503C182.671 59.8686 182.744 59.7266 182.744 59.5241V59.4815C182.744 58.956 182.6 58.5476 182.312 58.2564C182.028 57.9652 181.597 57.8196 181.018 57.8196C180.418 57.8196 179.947 57.951 179.606 58.2138C179.265 58.4766 179.025 58.7571 178.887 59.0554L177.694 58.6293C177.907 58.1321 178.191 57.745 178.546 57.468C178.905 57.1875 179.295 56.9922 179.718 56.8821C180.144 56.7685 180.563 56.7116 180.975 56.7116C181.238 56.7116 181.54 56.7436 181.881 56.8075C182.225 56.8679 182.557 56.994 182.877 57.1857C183.2 57.3775 183.468 57.6669 183.681 58.054C183.894 58.4411 184.001 58.9595 184.001 59.6094V65H182.744V63.892H182.68C182.594 64.0696 182.452 64.2596 182.253 64.462C182.055 64.6644 181.79 64.8366 181.46 64.9787C181.13 65.1207 180.726 65.1918 180.251 65.1918ZM180.442 64.0625C180.94 64.0625 181.359 63.9648 181.699 63.7695C182.044 63.5742 182.303 63.3221 182.477 63.0131C182.655 62.7042 182.744 62.3793 182.744 62.0384V60.8878C182.69 60.9517 182.573 61.0103 182.392 61.0636C182.214 61.1133 182.008 61.1577 181.774 61.1967C181.543 61.2322 181.318 61.2642 181.098 61.2926C180.881 61.3175 180.705 61.3388 180.57 61.3565C180.244 61.3991 179.938 61.4684 179.654 61.5643C179.373 61.6566 179.146 61.7969 178.972 61.9851C178.802 62.1697 178.717 62.4219 178.717 62.7415C178.717 63.1783 178.878 63.5085 179.201 63.7322C179.528 63.9524 179.942 64.0625 180.442 64.0625ZM186.466 65V54.0909H187.723V58.1179H187.829C187.922 57.9759 188.049 57.7947 188.213 57.5746C188.38 57.3509 188.618 57.152 188.926 56.978C189.239 56.8004 189.662 56.7116 190.194 56.7116C190.883 56.7116 191.49 56.8839 192.016 57.2283C192.542 57.5728 192.952 58.0611 193.246 58.6932C193.541 59.3253 193.689 60.071 193.689 60.9304C193.689 61.7969 193.541 62.5479 193.246 63.1836C192.952 63.8157 192.543 64.3058 192.021 64.6538C191.499 64.9982 190.897 65.1705 190.216 65.1705C189.69 65.1705 189.269 65.0835 188.953 64.9094C188.637 64.7319 188.394 64.5312 188.223 64.3075C188.053 64.0803 187.922 63.892 187.829 63.7429H187.68V65H186.466ZM187.701 60.9091C187.701 61.527 187.792 62.0721 187.973 62.5444C188.154 63.0131 188.419 63.3807 188.767 63.647C189.115 63.9098 189.541 64.0412 190.045 64.0412C190.571 64.0412 191.009 63.9027 191.361 63.6257C191.716 63.3452 191.982 62.9687 192.16 62.4964C192.341 62.0206 192.431 61.4915 192.431 60.9091C192.431 60.3338 192.343 59.8153 192.165 59.3537C191.991 58.8885 191.727 58.521 191.371 58.2511C191.02 57.9776 190.578 57.8409 190.045 57.8409C189.534 57.8409 189.104 57.9705 188.756 58.2298C188.408 58.4854 188.145 58.8441 187.968 59.3058C187.79 59.7638 187.701 60.2983 187.701 60.9091ZM198.019 65.1918C197.501 65.1918 197.03 65.0941 196.608 64.8988C196.185 64.6999 195.849 64.4141 195.601 64.0412C195.352 63.6648 195.228 63.2102 195.228 62.6776C195.228 62.2088 195.32 61.8288 195.505 61.5376C195.69 61.2429 195.936 61.0121 196.245 60.8452C196.554 60.6783 196.895 60.554 197.268 60.4723C197.645 60.3871 198.023 60.3196 198.403 60.2699C198.9 60.206 199.303 60.158 199.612 60.1261C199.924 60.0906 200.152 60.032 200.294 59.9503C200.439 59.8686 200.512 59.7266 200.512 59.5241V59.4815C200.512 58.956 200.368 58.5476 200.081 58.2564C199.797 57.9652 199.365 57.8196 198.786 57.8196C198.186 57.8196 197.716 57.951 197.375 58.2138C197.034 58.4766 196.794 58.7571 196.656 59.0554L195.462 58.6293C195.675 58.1321 195.96 57.745 196.315 57.468C196.673 57.1875 197.064 56.9922 197.487 56.8821C197.913 56.7685 198.332 56.7116 198.744 56.7116C199.006 56.7116 199.308 56.7436 199.649 56.8075C199.994 56.8679 200.326 56.994 200.645 57.1857C200.968 57.3775 201.237 57.6669 201.45 58.054C201.663 58.4411 201.769 58.9595 201.769 59.6094V65H200.512V63.892H200.448C200.363 64.0696 200.221 64.2596 200.022 64.462C199.823 64.6644 199.559 64.8366 199.228 64.9787C198.898 65.1207 198.495 65.1918 198.019 65.1918ZM198.211 64.0625C198.708 64.0625 199.127 63.9648 199.468 63.7695C199.813 63.5742 200.072 63.3221 200.246 63.0131C200.423 62.7042 200.512 62.3793 200.512 62.0384V60.8878C200.459 60.9517 200.342 61.0103 200.161 61.0636C199.983 61.1133 199.777 61.1577 199.543 61.1967C199.312 61.2322 199.086 61.2642 198.866 61.2926C198.65 61.3175 198.474 61.3388 198.339 61.3565C198.012 61.3991 197.707 61.4684 197.423 61.5643C197.142 61.6566 196.915 61.7969 196.741 61.9851C196.57 62.1697 196.485 62.4219 196.485 62.7415C196.485 63.1783 196.647 63.5085 196.97 63.7322C197.297 63.9524 197.71 64.0625 198.211 64.0625ZM209.859 58.6506L208.73 58.9702C208.659 58.782 208.554 58.5991 208.416 58.4215C208.281 58.2404 208.096 58.0913 207.862 57.9741C207.627 57.8569 207.327 57.7983 206.961 57.7983C206.461 57.7983 206.043 57.9137 205.71 58.1445C205.379 58.3718 205.214 58.6612 205.214 59.0128C205.214 59.3253 205.328 59.5721 205.555 59.7532C205.782 59.9343 206.138 60.0852 206.62 60.206L207.835 60.5043C208.566 60.6818 209.112 60.9535 209.47 61.3192C209.829 61.6815 210.008 62.1484 210.008 62.7202C210.008 63.1889 209.873 63.608 209.603 63.9773C209.337 64.3466 208.964 64.6378 208.485 64.8509C208.005 65.0639 207.448 65.1705 206.812 65.1705C205.978 65.1705 205.287 64.9893 204.74 64.6271C204.193 64.2649 203.847 63.7358 203.701 63.0398L204.895 62.7415C205.008 63.1818 205.223 63.5121 205.539 63.7322C205.859 63.9524 206.276 64.0625 206.791 64.0625C207.377 64.0625 207.842 63.9382 208.187 63.6896C208.535 63.4375 208.709 63.1357 208.709 62.7841C208.709 62.5 208.609 62.2621 208.41 62.0703C208.211 61.875 207.906 61.7294 207.494 61.6335L206.13 61.3139C205.381 61.1364 204.831 60.8612 204.479 60.4883C204.131 60.1119 203.957 59.6413 203.957 59.0767C203.957 58.6151 204.087 58.2067 204.346 57.8516C204.609 57.4964 204.966 57.2177 205.417 57.0153C205.871 56.8129 206.386 56.7116 206.961 56.7116C207.771 56.7116 208.407 56.8892 208.868 57.2443C209.334 57.5994 209.664 58.0682 209.859 58.6506ZM215.331 65.1705C214.543 65.1705 213.863 64.9964 213.291 64.6484C212.723 64.2969 212.284 63.8068 211.975 63.1783C211.67 62.5462 211.517 61.8111 211.517 60.973C211.517 60.1349 211.67 59.3963 211.975 58.7571C212.284 58.1143 212.714 57.6136 213.264 57.255C213.818 56.8928 214.464 56.7116 215.203 56.7116C215.629 56.7116 216.05 56.7827 216.466 56.9247C216.881 57.0668 217.259 57.2976 217.6 57.6172C217.941 57.9332 218.213 58.3523 218.415 58.8743C218.618 59.3963 218.719 60.0391 218.719 60.8026V61.3352H212.412V60.2486H217.44C217.44 59.7869 217.348 59.375 217.163 59.0128C216.982 58.6506 216.723 58.3647 216.386 58.1552C216.052 57.9457 215.658 57.8409 215.203 57.8409C214.702 57.8409 214.269 57.9652 213.903 58.2138C213.541 58.4588 213.262 58.7784 213.067 59.1726C212.872 59.5668 212.774 59.9893 212.774 60.4403V61.1648C212.774 61.7827 212.881 62.3065 213.094 62.7362C213.31 63.1623 213.61 63.4872 213.994 63.7109C214.377 63.9311 214.823 64.0412 215.331 64.0412C215.661 64.0412 215.96 63.995 216.226 63.9027C216.496 63.8068 216.728 63.6648 216.924 63.4766C217.119 63.2848 217.27 63.0469 217.376 62.7628L218.591 63.1037C218.463 63.5156 218.248 63.8778 217.946 64.1903C217.645 64.4993 217.272 64.7408 216.828 64.9148C216.384 65.0852 215.885 65.1705 215.331 65.1705ZM224.85 65V56.8182H226.107V65H224.85ZM225.489 55.4545C225.244 55.4545 225.033 55.3711 224.855 55.2042C224.681 55.0373 224.594 54.8366 224.594 54.6023C224.594 54.3679 224.681 54.1673 224.855 54.0004C225.033 53.8335 225.244 53.75 225.489 53.75C225.734 53.75 225.944 53.8335 226.118 54.0004C226.295 54.1673 226.384 54.3679 226.384 54.6023C226.384 54.8366 226.295 55.0373 226.118 55.2042C225.944 55.3711 225.734 55.4545 225.489 55.4545ZM229.666 60.0781V65H228.409V56.8182H229.624V58.0966H229.73C229.922 57.6811 230.213 57.3473 230.604 57.0952C230.995 56.8395 231.499 56.7116 232.117 56.7116C232.671 56.7116 233.155 56.8253 233.571 57.0526C233.986 57.2763 234.31 57.6172 234.54 58.0753C234.771 58.5298 234.887 59.1051 234.887 59.8011V65H233.63V59.8864C233.63 59.2436 233.463 58.7429 233.129 58.3842C232.795 58.022 232.337 57.8409 231.755 57.8409C231.353 57.8409 230.995 57.9279 230.679 58.1019C230.366 58.2759 230.119 58.5298 229.938 58.8636C229.757 59.1974 229.666 59.6023 229.666 60.0781ZM242.979 58.6506L241.85 58.9702C241.779 58.782 241.674 58.5991 241.536 58.4215C241.401 58.2404 241.216 58.0913 240.982 57.9741C240.747 57.8569 240.447 57.7983 240.081 57.7983C239.581 57.7983 239.164 57.9137 238.83 58.1445C238.499 58.3718 238.334 58.6612 238.334 59.0128C238.334 59.3253 238.448 59.5721 238.675 59.7532C238.903 59.9343 239.258 60.0852 239.741 60.206L240.955 60.5043C241.687 60.6818 242.232 60.9535 242.59 61.3192C242.949 61.6815 243.128 62.1484 243.128 62.7202C243.128 63.1889 242.993 63.608 242.724 63.9773C242.457 64.3466 242.084 64.6378 241.605 64.8509C241.126 65.0639 240.568 65.1705 239.932 65.1705C239.098 65.1705 238.407 64.9893 237.86 64.6271C237.313 64.2649 236.967 63.7358 236.822 63.0398L238.015 62.7415C238.128 63.1818 238.343 63.5121 238.659 63.7322C238.979 63.9524 239.396 64.0625 239.911 64.0625C240.497 64.0625 240.962 63.9382 241.307 63.6896C241.655 63.4375 241.829 63.1357 241.829 62.7841C241.829 62.5 241.729 62.2621 241.53 62.0703C241.331 61.875 241.026 61.7294 240.614 61.6335L239.251 61.3139C238.501 61.1364 237.951 60.8612 237.599 60.4883C237.251 60.1119 237.077 59.6413 237.077 59.0767C237.077 58.6151 237.207 58.2067 237.466 57.8516C237.729 57.4964 238.086 57.2177 238.537 57.0153C238.991 56.8129 239.506 56.7116 240.081 56.7116C240.891 56.7116 241.527 56.8892 241.988 57.2443C242.454 57.5994 242.784 58.0682 242.979 58.6506ZM248.579 56.8182V57.8835H244.339V56.8182H248.579ZM245.575 54.858H246.832V62.6562C246.832 63.0114 246.883 63.2777 246.986 63.4553C247.093 63.6293 247.228 63.7464 247.391 63.8068C247.558 63.8636 247.734 63.892 247.918 63.892C248.057 63.892 248.171 63.8849 248.259 63.8707C248.348 63.853 248.419 63.8388 248.472 63.8281L248.728 64.9574C248.643 64.9893 248.524 65.0213 248.371 65.0533C248.218 65.0888 248.025 65.1065 247.791 65.1065C247.435 65.1065 247.087 65.0302 246.747 64.8775C246.409 64.7248 246.129 64.4922 245.905 64.1797C245.685 63.8672 245.575 63.473 245.575 62.9972V54.858ZM252.878 65.1918C252.359 65.1918 251.889 65.0941 251.466 64.8988C251.043 64.6999 250.708 64.4141 250.459 64.0412C250.211 63.6648 250.086 63.2102 250.086 62.6776C250.086 62.2088 250.179 61.8288 250.363 61.5376C250.548 61.2429 250.795 61.0121 251.104 60.8452C251.413 60.6783 251.754 60.554 252.127 60.4723C252.503 60.3871 252.881 60.3196 253.261 60.2699C253.758 60.206 254.161 60.158 254.47 60.1261C254.783 60.0906 255.01 60.032 255.152 59.9503C255.298 59.8686 255.37 59.7266 255.37 59.5241V59.4815C255.37 58.956 255.227 58.5476 254.939 58.2564C254.655 57.9652 254.223 57.8196 253.645 57.8196C253.044 57.8196 252.574 57.951 252.233 58.2138C251.892 58.4766 251.652 58.7571 251.514 59.0554L250.321 58.6293C250.534 58.1321 250.818 57.745 251.173 57.468C251.532 57.1875 251.922 56.9922 252.345 56.8821C252.771 56.7685 253.19 56.7116 253.602 56.7116C253.865 56.7116 254.167 56.7436 254.508 56.8075C254.852 56.8679 255.184 56.994 255.504 57.1857C255.827 57.3775 256.095 57.6669 256.308 58.054C256.521 58.4411 256.628 58.9595 256.628 59.6094V65H255.37V63.892H255.307C255.221 64.0696 255.079 64.2596 254.88 64.462C254.682 64.6644 254.417 64.8366 254.087 64.9787C253.756 65.1207 253.353 65.1918 252.878 65.1918ZM253.069 64.0625C253.566 64.0625 253.986 63.9648 254.326 63.7695C254.671 63.5742 254.93 63.3221 255.104 63.0131C255.282 62.7042 255.37 62.3793 255.37 62.0384V60.8878C255.317 60.9517 255.2 61.0103 255.019 61.0636C254.841 61.1133 254.635 61.1577 254.401 61.1967C254.17 61.2322 253.945 61.2642 253.725 61.2926C253.508 61.3175 253.332 61.3388 253.197 61.3565C252.87 61.3991 252.565 61.4684 252.281 61.5643C252 61.6566 251.773 61.7969 251.599 61.9851C251.429 62.1697 251.343 62.4219 251.343 62.7415C251.343 63.1783 251.505 63.5085 251.828 63.7322C252.155 63.9524 252.569 64.0625 253.069 64.0625ZM260.179 60.0781V65H258.922V56.8182H260.137V58.0966H260.243C260.435 57.6811 260.726 57.3473 261.117 57.0952C261.507 56.8395 262.012 56.7116 262.629 56.7116C263.183 56.7116 263.668 56.8253 264.084 57.0526C264.499 57.2763 264.822 57.6172 265.053 58.0753C265.284 58.5298 265.399 59.1051 265.399 59.8011V65H264.142V59.8864C264.142 59.2436 263.975 58.7429 263.642 58.3842C263.308 58.022 262.85 57.8409 262.267 57.8409C261.866 57.8409 261.507 57.9279 261.191 58.1019C260.879 58.2759 260.632 58.5298 260.451 58.8636C260.27 59.1974 260.179 59.6023 260.179 60.0781ZM271.02 65.1705C270.253 65.1705 269.593 64.9893 269.039 64.6271C268.485 64.2649 268.059 63.766 267.76 63.1303C267.462 62.4947 267.313 61.7685 267.313 60.9517C267.313 60.1207 267.466 59.3874 267.771 58.7518C268.08 58.1126 268.51 57.6136 269.06 57.255C269.614 56.8928 270.26 56.7116 270.999 56.7116C271.574 56.7116 272.093 56.8182 272.554 57.0312C273.016 57.2443 273.394 57.5426 273.689 57.9261C273.984 58.3097 274.167 58.7571 274.238 59.2685H272.981C272.885 58.8956 272.672 58.5653 272.341 58.2777C272.015 57.9865 271.574 57.8409 271.02 57.8409C270.53 57.8409 270.101 57.9687 269.731 58.2244C269.366 58.4766 269.08 58.8335 268.874 59.2951C268.671 59.7532 268.57 60.2912 268.57 60.9091C268.57 61.5412 268.669 62.0916 268.868 62.5604C269.071 63.0291 269.355 63.3931 269.721 63.6523C270.09 63.9116 270.523 64.0412 271.02 64.0412C271.347 64.0412 271.644 63.9844 271.91 63.8707C272.176 63.7571 272.402 63.5938 272.586 63.3807C272.771 63.1676 272.902 62.9119 272.981 62.6136H274.238C274.167 63.0966 273.991 63.5316 273.71 63.9187C273.433 64.3022 273.066 64.6076 272.608 64.8349C272.153 65.0586 271.624 65.1705 271.02 65.1705ZM279.506 65.1705C278.717 65.1705 278.037 64.9964 277.466 64.6484C276.897 64.2969 276.459 63.8068 276.15 63.1783C275.845 62.5462 275.692 61.8111 275.692 60.973C275.692 60.1349 275.845 59.3963 276.15 58.7571C276.459 58.1143 276.889 57.6136 277.439 57.255C277.993 56.8928 278.639 56.7116 279.378 56.7116C279.804 56.7116 280.225 56.7827 280.64 56.9247C281.056 57.0668 281.434 57.2976 281.775 57.6172C282.116 57.9332 282.388 58.3523 282.59 58.8743C282.792 59.3963 282.894 60.0391 282.894 60.8026V61.3352H276.587V60.2486H281.615C281.615 59.7869 281.523 59.375 281.338 59.0128C281.157 58.6506 280.898 58.3647 280.56 58.1552C280.227 57.9457 279.832 57.8409 279.378 57.8409C278.877 57.8409 278.444 57.9652 278.078 58.2138C277.716 58.4588 277.437 58.7784 277.242 59.1726C277.047 59.5668 276.949 59.9893 276.949 60.4403V61.1648C276.949 61.7827 277.055 62.3065 277.269 62.7362C277.485 63.1623 277.785 63.4872 278.169 63.7109C278.552 63.9311 278.998 64.0412 279.506 64.0412C279.836 64.0412 280.134 63.995 280.401 63.9027C280.671 63.8068 280.903 63.6648 281.098 63.4766C281.294 63.2848 281.445 63.0469 281.551 62.7628L282.766 63.1037C282.638 63.5156 282.423 63.8778 282.121 64.1903C281.819 64.4993 281.446 64.7408 281.003 64.9148C280.559 65.0852 280.06 65.1705 279.506 65.1705Z" fill="#A9A9A9"/>
</svg>
