<svg width="360" height="138" viewBox="0 0 360 138" fill="none" xmlns="http://www.w3.org/2000/svg">
<rect width="360" height="138" rx="10" fill="white"/>
<path d="M34.52 65.24C33.2133 65.24 32.0667 64.94 31.08 64.34C30.0933 63.7267 29.3267 62.88 28.78 61.8C28.2333 60.72 27.96 59.46 27.96 58.02C27.96 56.5933 28.2333 55.3333 28.78 54.24C29.34 53.1467 30.1267 52.2933 31.14 51.68C32.1667 51.0667 33.3733 50.76 34.76 50.76C36.3333 50.76 37.6467 51.14 38.7 51.9C39.7533 52.6467 40.4267 53.6933 40.72 55.04H38.78C38.5933 54.2 38.1533 53.5333 37.46 53.04C36.7667 52.5467 35.8667 52.3 34.76 52.3C33.7333 52.3 32.8333 52.5333 32.06 53C31.3 53.4533 30.7133 54.1067 30.3 54.96C29.8867 55.8133 29.68 56.8333 29.68 58.02C29.68 59.2067 29.8867 60.2333 30.3 61.1C30.7133 61.9533 31.2867 62.6067 32.02 63.06C32.7667 63.5133 33.62 63.74 34.58 63.74C36.0733 63.74 37.2 63.3 37.96 62.42C38.72 61.54 39.1533 60.3467 39.26 58.84H35.22V57.52H40.98V65H39.44L39.3 62.7C38.9667 63.2467 38.58 63.7133 38.14 64.1C37.7133 64.4733 37.2067 64.76 36.62 64.96C36.0333 65.1467 35.3333 65.24 34.52 65.24ZM47.9763 65.24C47.0296 65.24 46.1896 65.02 45.4563 64.58C44.7363 64.14 44.1696 63.5267 43.7563 62.74C43.3429 61.94 43.1363 61.0133 43.1363 59.96C43.1363 58.8933 43.3363 57.9667 43.7363 57.18C44.1496 56.3933 44.7229 55.78 45.4563 55.34C46.2029 54.9 47.0563 54.68 48.0163 54.68C49.0029 54.68 49.8363 54.9 50.5163 55.34C51.2096 55.78 51.7363 56.36 52.0963 57.08C52.4696 57.7867 52.6563 58.5667 52.6563 59.42C52.6563 59.5533 52.6563 59.6933 52.6563 59.84C52.6563 59.9867 52.6496 60.1533 52.6363 60.34H44.3963V59.04H51.0163C50.9763 58.12 50.6696 57.4 50.0963 56.88C49.5363 56.36 48.8296 56.1 47.9763 56.1C47.4029 56.1 46.8696 56.2333 46.3763 56.5C45.8963 56.7533 45.5096 57.1333 45.2163 57.64C44.9229 58.1333 44.7763 58.7533 44.7763 59.5V60.06C44.7763 60.8867 44.9229 61.58 45.2163 62.14C45.5229 62.7 45.9163 63.12 46.3963 63.4C46.8896 63.68 47.4163 63.82 47.9763 63.82C48.6829 63.82 49.2629 63.6667 49.7163 63.36C50.1829 63.04 50.5163 62.6133 50.7163 62.08H52.3763C52.2163 62.68 51.9363 63.22 51.5363 63.7C51.1363 64.18 50.6363 64.56 50.0363 64.84C49.4496 65.1067 48.7629 65.24 47.9763 65.24ZM58.5514 65C57.9514 65 57.4314 64.9067 56.9914 64.72C56.5514 64.5333 56.2114 64.22 55.9714 63.78C55.7447 63.3267 55.6314 62.72 55.6314 61.96V56.34H53.8714V54.92H55.6314L55.8514 52.48H57.3114V54.92H60.2314V56.34H57.3114V61.96C57.3114 62.5867 57.4381 63.0133 57.6914 63.24C57.9447 63.4533 58.3914 63.56 59.0314 63.56H60.1114V65H58.5514ZM72.2959 65.24C71.2693 65.24 70.3759 65.0533 69.6159 64.68C68.8559 64.3067 68.2693 63.7867 67.8559 63.12C67.4426 62.4533 67.2359 61.68 67.2359 60.8H68.9959C68.9959 61.3467 69.1226 61.8533 69.3759 62.32C69.6293 62.7733 69.9959 63.14 70.4759 63.42C70.9693 63.6867 71.5759 63.82 72.2959 63.82C72.9226 63.82 73.4559 63.72 73.8959 63.52C74.3493 63.3067 74.6893 63.02 74.9159 62.66C75.1559 62.3 75.2759 61.8933 75.2759 61.44C75.2759 60.8933 75.1559 60.4533 74.9159 60.12C74.6893 59.7733 74.3759 59.4933 73.9759 59.28C73.5759 59.0667 73.1093 58.88 72.5759 58.72C72.0559 58.5467 71.5093 58.3667 70.9359 58.18C69.8293 57.8067 69.0159 57.34 68.4959 56.78C67.9759 56.22 67.7159 55.4933 67.7159 54.6C67.7159 53.84 67.8893 53.1733 68.2359 52.6C68.5959 52.0267 69.1026 51.58 69.7559 51.26C70.4226 50.9267 71.2093 50.76 72.1159 50.76C73.0093 50.76 73.7826 50.9267 74.4359 51.26C75.1026 51.5933 75.6226 52.0533 75.9959 52.64C76.3693 53.2133 76.5559 53.88 76.5559 54.64H74.7959C74.7959 54.2533 74.6959 53.8733 74.4959 53.5C74.2959 53.1267 73.9893 52.82 73.5759 52.58C73.1759 52.3267 72.6693 52.2 72.0559 52.2C71.5493 52.1867 71.0959 52.2733 70.6959 52.46C70.3093 52.6333 70.0026 52.8867 69.7759 53.22C69.5626 53.5533 69.4559 53.96 69.4559 54.44C69.4559 54.8933 69.5493 55.26 69.7359 55.54C69.9359 55.82 70.2159 56.06 70.5759 56.26C70.9493 56.4467 71.3826 56.62 71.8759 56.78C72.3693 56.94 72.9159 57.12 73.5159 57.32C74.1959 57.5467 74.7959 57.8267 75.3159 58.16C75.8493 58.48 76.2626 58.8933 76.5559 59.4C76.8626 59.9067 77.0159 60.5533 77.0159 61.34C77.0159 62.0067 76.8359 62.64 76.4759 63.24C76.1293 63.8267 75.6093 64.3067 74.9159 64.68C74.2226 65.0533 73.3493 65.24 72.2959 65.24ZM83.2975 65C82.6975 65 82.1775 64.9067 81.7375 64.72C81.2975 64.5333 80.9575 64.22 80.7175 63.78C80.4908 63.3267 80.3775 62.72 80.3775 61.96V56.34H78.6175V54.92H80.3775L80.5975 52.48H82.0575V54.92H84.9775V56.34H82.0575V61.96C82.0575 62.5867 82.1842 63.0133 82.4375 63.24C82.6908 63.4533 83.1375 63.56 83.7775 63.56H84.8575V65H83.2975ZM90.4495 65.24C89.6362 65.24 88.9562 65.1 88.4095 64.82C87.8629 64.5267 87.4562 64.1467 87.1895 63.68C86.9229 63.2 86.7895 62.68 86.7895 62.12C86.7895 61.44 86.9629 60.8667 87.3095 60.4C87.6695 59.92 88.1695 59.56 88.8095 59.32C89.4629 59.0667 90.2295 58.94 91.1095 58.94H93.7695C93.7695 58.3133 93.6695 57.7933 93.4695 57.38C93.2829 56.9533 93.0029 56.6333 92.6295 56.42C92.2695 56.2067 91.8162 56.1 91.2695 56.1C90.6295 56.1 90.0762 56.26 89.6095 56.58C89.1429 56.9 88.8562 57.3733 88.7495 58H87.0295C87.1095 57.28 87.3495 56.68 87.7495 56.2C88.1629 55.7067 88.6829 55.3333 89.3095 55.08C89.9362 54.8133 90.5895 54.68 91.2695 54.68C92.2029 54.68 92.9762 54.8533 93.5895 55.2C94.2162 55.5333 94.6829 56.0067 94.9895 56.62C95.2962 57.22 95.4495 57.9333 95.4495 58.76V65H93.9495L93.8495 63.22C93.7162 63.5 93.5429 63.7667 93.3295 64.02C93.1295 64.26 92.8895 64.4733 92.6095 64.66C92.3295 64.8333 92.0095 64.9733 91.6495 65.08C91.3029 65.1867 90.9029 65.24 90.4495 65.24ZM90.7095 63.82C91.1762 63.82 91.5962 63.7267 91.9695 63.54C92.3562 63.34 92.6829 63.0733 92.9495 62.74C93.2162 62.3933 93.4162 62.0133 93.5495 61.6C93.6962 61.1867 93.7695 60.7533 93.7695 60.3V60.24H91.2495C90.5962 60.24 90.0695 60.32 89.6695 60.48C89.2695 60.6267 88.9829 60.84 88.8095 61.12C88.6362 61.3867 88.5495 61.6933 88.5495 62.04C88.5495 62.4 88.6295 62.7133 88.7895 62.98C88.9629 63.2467 89.2095 63.4533 89.5295 63.6C89.8629 63.7467 90.2562 63.82 90.7095 63.82ZM98.0484 65V54.92H99.5684L99.6884 56.84C99.9151 56.3867 100.202 56 100.548 55.68C100.908 55.36 101.335 55.1133 101.828 54.94C102.335 54.7667 102.908 54.68 103.548 54.68V56.44H102.928C102.502 56.44 102.095 56.5 101.708 56.62C101.322 56.7267 100.975 56.9067 100.668 57.16C100.375 57.4133 100.142 57.76 99.9684 58.2C99.8084 58.6267 99.7284 59.16 99.7284 59.8V65H98.0484ZM109.411 65C108.811 65 108.291 64.9067 107.851 64.72C107.411 64.5333 107.071 64.22 106.831 63.78C106.604 63.3267 106.491 62.72 106.491 61.96V56.34H104.731V54.92H106.491L106.711 52.48H108.171V54.92H111.091V56.34H108.171V61.96C108.171 62.5867 108.297 63.0133 108.551 63.24C108.804 63.4533 109.251 63.56 109.891 63.56H110.971V65H109.411ZM117.429 65.24C116.483 65.24 115.643 65.02 114.909 64.58C114.189 64.14 113.623 63.5267 113.209 62.74C112.796 61.94 112.589 61.0133 112.589 59.96C112.589 58.8933 112.789 57.9667 113.189 57.18C113.603 56.3933 114.176 55.78 114.909 55.34C115.656 54.9 116.509 54.68 117.469 54.68C118.456 54.68 119.289 54.9 119.969 55.34C120.663 55.78 121.189 56.36 121.549 57.08C121.923 57.7867 122.109 58.5667 122.109 59.42C122.109 59.5533 122.109 59.6933 122.109 59.84C122.109 59.9867 122.103 60.1533 122.089 60.34H113.849V59.04H120.469C120.429 58.12 120.123 57.4 119.549 56.88C118.989 56.36 118.283 56.1 117.429 56.1C116.856 56.1 116.323 56.2333 115.829 56.5C115.349 56.7533 114.963 57.1333 114.669 57.64C114.376 58.1333 114.229 58.7533 114.229 59.5V60.06C114.229 60.8867 114.376 61.58 114.669 62.14C114.976 62.7 115.369 63.12 115.849 63.4C116.343 63.68 116.869 63.82 117.429 63.82C118.136 63.82 118.716 63.6667 119.169 63.36C119.636 63.04 119.969 62.6133 120.169 62.08H121.829C121.669 62.68 121.389 63.22 120.989 63.7C120.589 64.18 120.089 64.56 119.489 64.84C118.903 65.1067 118.216 65.24 117.429 65.24ZM128.817 65.24C127.843 65.24 126.99 65.0133 126.257 64.56C125.523 64.0933 124.957 63.46 124.557 62.66C124.157 61.86 123.957 60.9533 123.957 59.94C123.957 58.9267 124.157 58.0267 124.557 57.24C124.957 56.44 125.523 55.8133 126.257 55.36C127.003 54.9067 127.863 54.68 128.837 54.68C129.663 54.68 130.383 54.8467 130.997 55.18C131.623 55.5133 132.103 55.98 132.437 56.58V50.6H134.117V65H132.597L132.457 63.34C132.243 63.6733 131.97 63.9867 131.637 64.28C131.303 64.56 130.903 64.7933 130.437 64.98C129.97 65.1533 129.43 65.24 128.817 65.24ZM129.017 63.78C129.683 63.78 130.27 63.62 130.777 63.3C131.283 62.98 131.677 62.54 131.957 61.98C132.237 61.4067 132.377 60.7333 132.377 59.96C132.377 59.2 132.237 58.5333 131.957 57.96C131.677 57.3867 131.283 56.94 130.777 56.62C130.27 56.3 129.683 56.14 129.017 56.14C128.363 56.14 127.783 56.3 127.277 56.62C126.77 56.94 126.377 57.3867 126.097 57.96C125.817 58.5333 125.677 59.2 125.677 59.96C125.677 60.7333 125.817 61.4067 126.097 61.98C126.377 62.54 126.77 62.98 127.277 63.3C127.783 63.62 128.363 63.78 129.017 63.78Z" fill="black"/>
<path d="M37.0994 81.5H35.7784C35.7003 81.12 35.5636 80.7862 35.3683 80.4986C35.1765 80.2109 34.9421 79.9695 34.6651 79.7741C34.3917 79.5753 34.0881 79.4261 33.7543 79.3267C33.4205 79.2273 33.0724 79.1776 32.7102 79.1776C32.0497 79.1776 31.4513 79.3445 30.9151 79.6783C30.3825 80.0121 29.9581 80.5039 29.642 81.1538C29.3295 81.8036 29.1733 82.6009 29.1733 83.5455C29.1733 84.4901 29.3295 85.2873 29.642 85.9371C29.9581 86.587 30.3825 87.0788 30.9151 87.4126C31.4513 87.7464 32.0497 87.9134 32.7102 87.9134C33.0724 87.9134 33.4205 87.8636 33.7543 87.7642C34.0881 87.6648 34.3917 87.5174 34.6651 87.3221C34.9421 87.1232 35.1765 86.88 35.3683 86.5923C35.5636 86.3011 35.7003 85.9673 35.7784 85.5909H37.0994C37 86.1484 36.8189 86.6474 36.5561 87.0877C36.2933 87.5281 35.9666 87.9027 35.576 88.2116C35.1854 88.517 34.7468 88.7496 34.2603 88.9094C33.7773 89.0692 33.2607 89.1491 32.7102 89.1491C31.7798 89.1491 30.9524 88.9219 30.228 88.4673C29.5036 88.0128 28.9336 87.3665 28.5181 86.5284C28.1026 85.6903 27.8949 84.696 27.8949 83.5455C27.8949 82.3949 28.1026 81.4006 28.5181 80.5625C28.9336 79.7244 29.5036 79.0781 30.228 78.6236C30.9524 78.169 31.7798 77.9418 32.7102 77.9418C33.2607 77.9418 33.7773 78.0217 34.2603 78.1815C34.7468 78.3413 35.1854 78.5756 35.576 78.8846C35.9666 79.19 36.2933 79.5629 36.5561 80.0032C36.8189 80.44 37 80.9389 37.0994 81.5ZM39.0637 89V80.8182H40.2781V82.054H40.3634C40.5125 81.6491 40.7824 81.3207 41.173 81.0685C41.5637 80.8164 42.004 80.6903 42.4941 80.6903C42.5864 80.6903 42.7018 80.6921 42.8403 80.6957C42.9788 80.6992 43.0835 80.7045 43.1546 80.7116V81.9901C43.1119 81.9794 43.0143 81.9634 42.8616 81.9421C42.7124 81.9173 42.5544 81.9048 42.3875 81.9048C41.9898 81.9048 41.6347 81.9883 41.3222 82.1552C41.0132 82.3185 40.7682 82.5458 40.5871 82.837C40.4095 83.1246 40.3208 83.4531 40.3208 83.8224V89H39.0637ZM47.8261 89.1705C47.0377 89.1705 46.3577 88.9964 45.786 88.6484C45.2178 88.2969 44.7792 87.8068 44.4703 87.1783C44.1649 86.5462 44.0122 85.8111 44.0122 84.973C44.0122 84.1349 44.1649 83.3963 44.4703 82.7571C44.7792 82.1143 45.2089 81.6136 45.7593 81.255C46.3133 80.8928 46.9596 80.7116 47.6982 80.7116C48.1244 80.7116 48.5452 80.7827 48.9607 80.9247C49.3762 81.0668 49.7544 81.2976 50.0953 81.6172C50.4362 81.9332 50.7078 82.3523 50.9102 82.8743C51.1127 83.3963 51.2139 84.0391 51.2139 84.8026V85.3352H44.907V84.2486H49.9355C49.9355 83.7869 49.8431 83.375 49.6585 83.0128C49.4774 82.6506 49.2181 82.3647 48.8808 82.1552C48.547 81.9457 48.1528 81.8409 47.6982 81.8409C47.1975 81.8409 46.7643 81.9652 46.3985 82.2138C46.0363 82.4588 45.7575 82.7784 45.5622 83.1726C45.3669 83.5668 45.2693 83.9893 45.2693 84.4403V85.1648C45.2693 85.7827 45.3758 86.3065 45.5889 86.7362C45.8055 87.1623 46.1056 87.4872 46.4891 87.7109C46.8726 87.9311 47.3183 88.0412 47.8261 88.0412C48.1563 88.0412 48.4546 87.995 48.721 87.9027C48.9909 87.8068 49.2235 87.6648 49.4188 87.4766C49.6141 87.2848 49.765 87.0469 49.8715 86.7628L51.086 87.1037C50.9582 87.5156 50.7433 87.8778 50.4415 88.1903C50.1396 88.4993 49.7668 88.7408 49.3229 88.9148C48.879 89.0852 48.3801 89.1705 47.8261 89.1705ZM55.5338 89.1918C55.0154 89.1918 54.5448 89.0941 54.1222 88.8988C53.6997 88.6999 53.3641 88.4141 53.1155 88.0412C52.8669 87.6648 52.7426 87.2102 52.7426 86.6776C52.7426 86.2088 52.835 85.8288 53.0196 85.5376C53.2043 85.2429 53.4511 85.0121 53.76 84.8452C54.069 84.6783 54.4099 84.554 54.7828 84.4723C55.1592 84.3871 55.5374 84.3196 55.9173 84.2699C56.4145 84.206 56.8176 84.158 57.1265 84.1261C57.439 84.0906 57.6663 84.032 57.8083 83.9503C57.9539 83.8686 58.0267 83.7266 58.0267 83.5241V83.4815C58.0267 82.956 57.8829 82.5476 57.5953 82.2564C57.3112 81.9652 56.8797 81.8196 56.3009 81.8196C55.7007 81.8196 55.2302 81.951 54.8893 82.2138C54.5484 82.4766 54.3087 82.7571 54.1702 83.0554L52.977 82.6293C53.1901 82.1321 53.4742 81.745 53.8293 81.468C54.1879 81.1875 54.5786 80.9922 55.0012 80.8821C55.4273 80.7685 55.8463 80.7116 56.2583 80.7116C56.521 80.7116 56.8229 80.7436 57.1638 80.8075C57.5083 80.8679 57.8403 80.994 58.1599 81.1857C58.483 81.3775 58.7512 81.6669 58.9642 82.054C59.1773 82.4411 59.2838 82.9595 59.2838 83.6094V89H58.0267V87.892H57.9628C57.8776 88.0696 57.7355 88.2596 57.5367 88.462C57.3378 88.6644 57.0732 88.8366 56.743 88.9787C56.4127 89.1207 56.0097 89.1918 55.5338 89.1918ZM55.7256 88.0625C56.2227 88.0625 56.6418 87.9648 56.9827 87.7695C57.3271 87.5742 57.5864 87.3221 57.7604 87.0131C57.9379 86.7042 58.0267 86.3793 58.0267 86.0384V84.8878C57.9735 84.9517 57.8563 85.0103 57.6752 85.0636C57.4976 85.1133 57.2916 85.1577 57.0573 85.1967C56.8264 85.2322 56.6009 85.2642 56.3808 85.2926C56.1642 85.3175 55.9884 85.3388 55.8534 85.3565C55.5267 85.3991 55.2213 85.4684 54.9372 85.5643C54.6567 85.6566 54.4294 85.7969 54.2554 85.9851C54.085 86.1697 53.9997 86.4219 53.9997 86.7415C53.9997 87.1783 54.1613 87.5085 54.4845 87.7322C54.8112 87.9524 55.2249 88.0625 55.7256 88.0625ZM65.1365 80.8182V81.8835H60.8965V80.8182H65.1365ZM62.1323 78.858H63.3894V86.6562C63.3894 87.0114 63.4409 87.2777 63.5439 87.4553C63.6504 87.6293 63.7853 87.7464 63.9487 87.8068C64.1156 87.8636 64.2914 87.892 64.476 87.892C64.6145 87.892 64.7282 87.8849 64.8169 87.8707C64.9057 87.853 64.9767 87.8388 65.03 87.8281L65.2857 88.9574C65.2005 88.9893 65.0815 89.0213 64.9288 89.0533C64.7761 89.0888 64.5826 89.1065 64.3482 89.1065C63.9931 89.1065 63.6451 89.0302 63.3042 88.8775C62.9668 88.7248 62.6863 88.4922 62.4625 88.1797C62.2424 87.8672 62.1323 87.473 62.1323 86.9972V78.858ZM70.37 89.1705C69.5817 89.1705 68.9016 88.9964 68.3299 88.6484C67.7617 88.2969 67.3232 87.8068 67.0142 87.1783C66.7088 86.5462 66.5561 85.8111 66.5561 84.973C66.5561 84.1349 66.7088 83.3963 67.0142 82.7571C67.3232 82.1143 67.7528 81.6136 68.3033 81.255C68.8572 80.8928 69.5036 80.7116 70.2422 80.7116C70.6683 80.7116 71.0891 80.7827 71.5046 80.9247C71.9201 81.0668 72.2983 81.2976 72.6392 81.6172C72.9801 81.9332 73.2518 82.3523 73.4542 82.8743C73.6566 83.3963 73.7578 84.0391 73.7578 84.8026V85.3352H67.451V84.2486H72.4794C72.4794 83.7869 72.3871 83.375 72.2024 83.0128C72.0213 82.6506 71.7621 82.3647 71.4247 82.1552C71.0909 81.9457 70.6967 81.8409 70.2422 81.8409C69.7415 81.8409 69.3082 81.9652 68.9425 82.2138C68.5803 82.4588 68.3015 82.7784 68.1062 83.1726C67.9109 83.5668 67.8132 83.9893 67.8132 84.4403V85.1648C67.8132 85.7827 67.9197 86.3065 68.1328 86.7362C68.3494 87.1623 68.6495 87.4872 69.033 87.7109C69.4165 87.9311 69.8622 88.0412 70.37 88.0412C70.7003 88.0412 70.9986 87.995 71.2649 87.9027C71.5348 87.8068 71.7674 87.6648 71.9627 87.4766C72.158 87.2848 72.3089 87.0469 72.4155 86.7628L73.63 87.1037C73.5021 87.5156 73.2873 87.8778 72.9854 88.1903C72.6836 88.4993 72.3107 88.7408 71.8668 88.9148C71.4229 89.0852 70.924 89.1705 70.37 89.1705ZM82.2965 89.1918C81.7781 89.1918 81.3075 89.0941 80.8849 88.8988C80.4624 88.6999 80.1268 88.4141 79.8782 88.0412C79.6296 87.6648 79.5053 87.2102 79.5053 86.6776C79.5053 86.2088 79.5977 85.8288 79.7823 85.5376C79.967 85.2429 80.2138 85.0121 80.5227 84.8452C80.8317 84.6783 81.1726 84.554 81.5455 84.4723C81.9219 84.3871 82.3001 84.3196 82.68 84.2699C83.1772 84.206 83.5803 84.158 83.8892 84.1261C84.2017 84.0906 84.429 84.032 84.571 83.9503C84.7166 83.8686 84.7894 83.7266 84.7894 83.5241V83.4815C84.7894 82.956 84.6456 82.5476 84.358 82.2564C84.0739 81.9652 83.6424 81.8196 83.0636 81.8196C82.4634 81.8196 81.9929 81.951 81.652 82.2138C81.3111 82.4766 81.0714 82.7571 80.9329 83.0554L79.7397 82.6293C79.9528 82.1321 80.2369 81.745 80.592 81.468C80.9506 81.1875 81.3413 80.9922 81.7638 80.8821C82.19 80.7685 82.609 80.7116 83.021 80.7116C83.2837 80.7116 83.5856 80.7436 83.9265 80.8075C84.271 80.8679 84.603 80.994 84.9226 81.1857C85.2457 81.3775 85.5138 81.6669 85.7269 82.054C85.94 82.4411 86.0465 82.9595 86.0465 83.6094V89H84.7894V87.892H84.7255C84.6403 88.0696 84.4982 88.2596 84.2994 88.462C84.1005 88.6644 83.8359 88.8366 83.5057 88.9787C83.1754 89.1207 82.7724 89.1918 82.2965 89.1918ZM82.4883 88.0625C82.9854 88.0625 83.4045 87.9648 83.7454 87.7695C84.0898 87.5742 84.3491 87.3221 84.5231 87.0131C84.7006 86.7042 84.7894 86.3793 84.7894 86.0384V84.8878C84.7362 84.9517 84.619 85.0103 84.4379 85.0636C84.2603 85.1133 84.0543 85.1577 83.82 85.1967C83.5891 85.2322 83.3636 85.2642 83.1435 85.2926C82.9268 85.3175 82.7511 85.3388 82.6161 85.3565C82.2894 85.3991 81.984 85.4684 81.6999 85.5643C81.4194 85.6566 81.1921 85.7969 81.0181 85.9851C80.8477 86.1697 80.7624 86.4219 80.7624 86.7415C80.7624 87.1783 80.924 87.5085 81.2472 87.7322C81.5739 87.9524 81.9876 88.0625 82.4883 88.0625ZM89.5981 84.0781V89H88.341V80.8182H89.5555V82.0966H89.662C89.8538 81.6811 90.145 81.3473 90.5356 81.0952C90.9262 80.8395 91.4305 80.7116 92.0484 80.7116C92.6024 80.7116 93.0871 80.8253 93.5026 81.0526C93.9181 81.2763 94.2412 81.6172 94.472 82.0753C94.7029 82.5298 94.8183 83.1051 94.8183 83.8011V89H93.5612V83.8864C93.5612 83.2436 93.3943 82.7429 93.0605 82.3842C92.7267 82.022 92.2686 81.8409 91.6862 81.8409C91.2849 81.8409 90.9262 81.9279 90.6102 82.1019C90.2977 82.2759 90.0509 82.5298 89.8698 82.8636C89.6887 83.1974 89.5981 83.6023 89.5981 84.0781ZM100.205 89.1705C99.5231 89.1705 98.9212 88.9982 98.3991 88.6538C97.8771 88.3058 97.4688 87.8157 97.174 87.1836C96.8793 86.5479 96.7319 85.7969 96.7319 84.9304C96.7319 84.071 96.8793 83.3253 97.174 82.6932C97.4688 82.0611 97.8789 81.5728 98.4045 81.2283C98.93 80.8839 99.5373 80.7116 100.226 80.7116C100.759 80.7116 101.18 80.8004 101.489 80.978C101.801 81.152 102.039 81.3509 102.202 81.5746C102.369 81.7947 102.499 81.9759 102.591 82.1179H102.698V78.0909H103.955V89H102.74V87.7429H102.591C102.499 87.892 102.368 88.0803 102.197 88.3075C102.027 88.5312 101.783 88.7319 101.467 88.9094C101.151 89.0835 100.73 89.1705 100.205 89.1705ZM100.375 88.0412C100.88 88.0412 101.306 87.9098 101.654 87.647C102.002 87.3807 102.266 87.0131 102.447 86.5444C102.629 86.0721 102.719 85.527 102.719 84.9091C102.719 84.2983 102.63 83.7638 102.453 83.3058C102.275 82.8441 102.012 82.4854 101.664 82.2298C101.316 81.9705 100.887 81.8409 100.375 81.8409C99.8427 81.8409 99.3988 81.9776 99.0437 82.2511C98.6921 82.521 98.4276 82.8885 98.25 83.3537C98.076 83.8153 97.989 84.3338 97.989 84.9091C97.989 85.4915 98.0778 86.0206 98.2553 86.4964C98.4364 86.9687 98.7028 87.3452 99.0543 87.6257C99.4094 87.9027 99.8498 88.0412 100.375 88.0412ZM110.821 89V78.0909H114.507C115.359 78.0909 116.059 78.2365 116.606 78.5277C117.153 78.8153 117.558 79.2113 117.82 79.7156C118.083 80.2198 118.214 80.7933 118.214 81.4361C118.214 82.0788 118.083 82.6488 117.82 83.146C117.558 83.6431 117.154 84.0337 116.611 84.3178C116.068 84.5984 115.374 84.7386 114.528 84.7386H111.545V83.5455H114.486C115.068 83.5455 115.537 83.4602 115.892 83.2898C116.251 83.1193 116.51 82.8778 116.67 82.5653C116.833 82.2493 116.915 81.8729 116.915 81.4361C116.915 80.9993 116.833 80.6175 116.67 80.2908C116.506 79.9641 116.245 79.712 115.887 79.5344C115.528 79.3533 115.054 79.2628 114.464 79.2628H112.142V89H110.821ZM115.956 84.0994L118.641 89H117.107L114.464 84.0994H115.956ZM125.402 85.6548V80.8182H126.659V89H125.402V87.6151H125.316C125.125 88.0305 124.826 88.3839 124.421 88.6751C124.017 88.9627 123.505 89.1065 122.887 89.1065C122.376 89.1065 121.921 88.9947 121.524 88.771C121.126 88.5437 120.813 88.2028 120.586 87.7482C120.359 87.2901 120.245 86.7131 120.245 86.017V80.8182H121.502V85.9318C121.502 86.5284 121.669 87.0043 122.003 87.3594C122.34 87.7145 122.77 87.892 123.292 87.892C123.605 87.892 123.922 87.8121 124.246 87.6523C124.572 87.4925 124.846 87.2475 125.066 86.9173C125.29 86.587 125.402 86.1662 125.402 85.6548ZM130.218 84.0781V89H128.961V80.8182H130.176V82.0966H130.282C130.474 81.6811 130.765 81.3473 131.156 81.0952C131.546 80.8395 132.051 80.7116 132.669 80.7116C133.222 80.7116 133.707 80.8253 134.123 81.0526C134.538 81.2763 134.861 81.6172 135.092 82.0753C135.323 82.5298 135.438 83.1051 135.438 83.8011V89H134.181V83.8864C134.181 83.2436 134.014 82.7429 133.681 82.3842C133.347 82.022 132.889 81.8409 132.306 81.8409C131.905 81.8409 131.546 81.9279 131.23 82.1019C130.918 82.2759 130.671 82.5298 130.49 82.8636C130.309 83.1974 130.218 83.6023 130.218 84.0781ZM144.362 89.1918C143.843 89.1918 143.373 89.0941 142.95 88.8988C142.528 88.6999 142.192 88.4141 141.944 88.0412C141.695 87.6648 141.571 87.2102 141.571 86.6776C141.571 86.2088 141.663 85.8288 141.848 85.5376C142.032 85.2429 142.279 85.0121 142.588 84.8452C142.897 84.6783 143.238 84.554 143.611 84.4723C143.987 84.3871 144.366 84.3196 144.745 84.2699C145.243 84.206 145.646 84.158 145.955 84.1261C146.267 84.0906 146.494 84.032 146.636 83.9503C146.782 83.8686 146.855 83.7266 146.855 83.5241V83.4815C146.855 82.956 146.711 82.5476 146.423 82.2564C146.139 81.9652 145.708 81.8196 145.129 81.8196C144.529 81.8196 144.058 81.951 143.717 82.2138C143.377 82.4766 143.137 82.7571 142.998 83.0554L141.805 82.6293C142.018 82.1321 142.302 81.745 142.657 81.468C143.016 81.1875 143.407 80.9922 143.829 80.8821C144.255 80.7685 144.674 80.7116 145.086 80.7116C145.349 80.7116 145.651 80.7436 145.992 80.8075C146.336 80.8679 146.668 80.994 146.988 81.1857C147.311 81.3775 147.579 81.6669 147.792 82.054C148.005 82.4411 148.112 82.9595 148.112 83.6094V89H146.855V87.892H146.791C146.706 88.0696 146.564 88.2596 146.365 88.462C146.166 88.6644 145.901 88.8366 145.571 88.9787C145.241 89.1207 144.838 89.1918 144.362 89.1918ZM144.554 88.0625C145.051 88.0625 145.47 87.9648 145.811 87.7695C146.155 87.5742 146.415 87.3221 146.589 87.0131C146.766 86.7042 146.855 86.3793 146.855 86.0384V84.8878C146.802 84.9517 146.684 85.0103 146.503 85.0636C146.326 85.1133 146.12 85.1577 145.885 85.1967C145.655 85.2322 145.429 85.2642 145.209 85.2926C144.992 85.3175 144.816 85.3388 144.682 85.3565C144.355 85.3991 144.049 85.4684 143.765 85.5643C143.485 85.6566 143.258 85.7969 143.084 85.9851C142.913 86.1697 142.828 86.4219 142.828 86.7415C142.828 87.1783 142.989 87.5085 143.313 87.7322C143.639 87.9524 144.053 88.0625 144.554 88.0625ZM157.715 89.1705C157.033 89.1705 156.431 88.9982 155.909 88.6538C155.387 88.3058 154.979 87.8157 154.684 87.1836C154.389 86.5479 154.242 85.7969 154.242 84.9304C154.242 84.071 154.389 83.3253 154.684 82.6932C154.979 82.0611 155.389 81.5728 155.914 81.2283C156.44 80.8839 157.047 80.7116 157.736 80.7116C158.269 80.7116 158.689 80.8004 158.998 80.978C159.311 81.152 159.549 81.3509 159.712 81.5746C159.879 81.7947 160.009 81.9759 160.101 82.1179H160.208V78.0909H161.465V89H160.25V87.7429H160.101C160.009 87.892 159.877 88.0803 159.707 88.3075C159.536 88.5312 159.293 88.7319 158.977 88.9094C158.661 89.0835 158.24 89.1705 157.715 89.1705ZM157.885 88.0412C158.389 88.0412 158.816 87.9098 159.164 87.647C159.512 87.3807 159.776 87.0131 159.957 86.5444C160.138 86.0721 160.229 85.527 160.229 84.9091C160.229 84.2983 160.14 83.7638 159.963 83.3058C159.785 82.8441 159.522 82.4854 159.174 82.2298C158.826 81.9705 158.396 81.8409 157.885 81.8409C157.352 81.8409 156.909 81.9776 156.553 82.2511C156.202 82.521 155.937 82.8885 155.76 83.3537C155.586 83.8153 155.499 84.3338 155.499 84.9091C155.499 85.4915 155.588 86.0206 155.765 86.4964C155.946 86.9687 156.213 87.3452 156.564 87.6257C156.919 87.9027 157.36 88.0412 157.885 88.0412ZM166.349 89.1918C165.831 89.1918 165.36 89.0941 164.938 88.8988C164.515 88.6999 164.18 88.4141 163.931 88.0412C163.682 87.6648 163.558 87.2102 163.558 86.6776C163.558 86.2088 163.65 85.8288 163.835 85.5376C164.02 85.2429 164.267 85.0121 164.575 84.8452C164.884 84.6783 165.225 84.554 165.598 84.4723C165.975 84.3871 166.353 84.3196 166.733 84.2699C167.23 84.206 167.633 84.158 167.942 84.1261C168.254 84.0906 168.482 84.032 168.624 83.9503C168.769 83.8686 168.842 83.7266 168.842 83.5241V83.4815C168.842 82.956 168.698 82.5476 168.411 82.2564C168.127 81.9652 167.695 81.8196 167.116 81.8196C166.516 81.8196 166.046 81.951 165.705 82.2138C165.364 82.4766 165.124 82.7571 164.986 83.0554L163.792 82.6293C164.006 82.1321 164.29 81.745 164.645 81.468C165.003 81.1875 165.394 80.9922 165.817 80.8821C166.243 80.7685 166.662 80.7116 167.074 80.7116C167.336 80.7116 167.638 80.7436 167.979 80.8075C168.324 80.8679 168.656 80.994 168.975 81.1857C169.298 81.3775 169.567 81.6669 169.78 82.054C169.993 82.4411 170.099 82.9595 170.099 83.6094V89H168.842V87.892H168.778C168.693 88.0696 168.551 88.2596 168.352 88.462C168.153 88.6644 167.889 88.8366 167.558 88.9787C167.228 89.1207 166.825 89.1918 166.349 89.1918ZM166.541 88.0625C167.038 88.0625 167.457 87.9648 167.798 87.7695C168.143 87.5742 168.402 87.3221 168.576 87.0131C168.753 86.7042 168.842 86.3793 168.842 86.0384V84.8878C168.789 84.9517 168.672 85.0103 168.491 85.0636C168.313 85.1133 168.107 85.1577 167.873 85.1967C167.642 85.2322 167.416 85.2642 167.196 85.2926C166.98 85.3175 166.804 85.3388 166.669 85.3565C166.342 85.3991 166.037 85.4684 165.753 85.5643C165.472 85.6566 165.245 85.7969 165.071 85.9851C164.9 86.1697 164.815 86.4219 164.815 86.7415C164.815 87.1783 164.977 87.5085 165.3 87.7322C165.627 87.9524 166.04 88.0625 166.541 88.0625ZM175.952 80.8182V81.8835H171.712V80.8182H175.952ZM172.948 78.858H174.205V86.6562C174.205 87.0114 174.256 87.2777 174.359 87.4553C174.466 87.6293 174.601 87.7464 174.764 87.8068C174.931 87.8636 175.107 87.892 175.291 87.892C175.43 87.892 175.544 87.8849 175.632 87.8707C175.721 87.853 175.792 87.8388 175.845 87.8281L176.101 88.9574C176.016 88.9893 175.897 89.0213 175.744 89.0533C175.592 89.0888 175.398 89.1065 175.164 89.1065C174.809 89.1065 174.46 89.0302 174.12 88.8775C173.782 88.7248 173.502 88.4922 173.278 88.1797C173.058 87.8672 172.948 87.473 172.948 86.9972V78.858ZM180.251 89.1918C179.732 89.1918 179.262 89.0941 178.839 88.8988C178.416 88.6999 178.081 88.4141 177.832 88.0412C177.584 87.6648 177.459 87.2102 177.459 86.6776C177.459 86.2088 177.552 85.8288 177.736 85.5376C177.921 85.2429 178.168 85.0121 178.477 84.8452C178.786 84.6783 179.127 84.554 179.5 84.4723C179.876 84.3871 180.254 84.3196 180.634 84.2699C181.131 84.206 181.534 84.158 181.843 84.1261C182.156 84.0906 182.383 84.032 182.525 83.9503C182.671 83.8686 182.744 83.7266 182.744 83.5241V83.4815C182.744 82.956 182.6 82.5476 182.312 82.2564C182.028 81.9652 181.597 81.8196 181.018 81.8196C180.418 81.8196 179.947 81.951 179.606 82.2138C179.265 82.4766 179.025 82.7571 178.887 83.0554L177.694 82.6293C177.907 82.1321 178.191 81.745 178.546 81.468C178.905 81.1875 179.295 80.9922 179.718 80.8821C180.144 80.7685 180.563 80.7116 180.975 80.7116C181.238 80.7116 181.54 80.7436 181.881 80.8075C182.225 80.8679 182.557 80.994 182.877 81.1857C183.2 81.3775 183.468 81.6669 183.681 82.054C183.894 82.4411 184.001 82.9595 184.001 83.6094V89H182.744V87.892H182.68C182.594 88.0696 182.452 88.2596 182.253 88.462C182.055 88.6644 181.79 88.8366 181.46 88.9787C181.13 89.1207 180.726 89.1918 180.251 89.1918ZM180.442 88.0625C180.94 88.0625 181.359 87.9648 181.699 87.7695C182.044 87.5742 182.303 87.3221 182.477 87.0131C182.655 86.7042 182.744 86.3793 182.744 86.0384V84.8878C182.69 84.9517 182.573 85.0103 182.392 85.0636C182.214 85.1133 182.008 85.1577 181.774 85.1967C181.543 85.2322 181.318 85.2642 181.098 85.2926C180.881 85.3175 180.705 85.3388 180.57 85.3565C180.244 85.3991 179.938 85.4684 179.654 85.5643C179.373 85.6566 179.146 85.7969 178.972 85.9851C178.802 86.1697 178.717 86.4219 178.717 86.7415C178.717 87.1783 178.878 87.5085 179.201 87.7322C179.528 87.9524 179.942 88.0625 180.442 88.0625ZM186.466 89V78.0909H187.723V82.1179H187.829C187.922 81.9759 188.049 81.7947 188.213 81.5746C188.38 81.3509 188.618 81.152 188.926 80.978C189.239 80.8004 189.662 80.7116 190.194 80.7116C190.883 80.7116 191.49 80.8839 192.016 81.2283C192.542 81.5728 192.952 82.0611 193.246 82.6932C193.541 83.3253 193.689 84.071 193.689 84.9304C193.689 85.7969 193.541 86.5479 193.246 87.1836C192.952 87.8157 192.543 88.3058 192.021 88.6538C191.499 88.9982 190.897 89.1705 190.216 89.1705C189.69 89.1705 189.269 89.0835 188.953 88.9094C188.637 88.7319 188.394 88.5312 188.223 88.3075C188.053 88.0803 187.922 87.892 187.829 87.7429H187.68V89H186.466ZM187.701 84.9091C187.701 85.527 187.792 86.0721 187.973 86.5444C188.154 87.0131 188.419 87.3807 188.767 87.647C189.115 87.9098 189.541 88.0412 190.045 88.0412C190.571 88.0412 191.009 87.9027 191.361 87.6257C191.716 87.3452 191.982 86.9687 192.16 86.4964C192.341 86.0206 192.431 85.4915 192.431 84.9091C192.431 84.3338 192.343 83.8153 192.165 83.3537C191.991 82.8885 191.727 82.521 191.371 82.2511C191.02 81.9776 190.578 81.8409 190.045 81.8409C189.534 81.8409 189.104 81.9705 188.756 82.2298C188.408 82.4854 188.145 82.8441 187.968 83.3058C187.79 83.7638 187.701 84.2983 187.701 84.9091ZM198.019 89.1918C197.501 89.1918 197.03 89.0941 196.608 88.8988C196.185 88.6999 195.849 88.4141 195.601 88.0412C195.352 87.6648 195.228 87.2102 195.228 86.6776C195.228 86.2088 195.32 85.8288 195.505 85.5376C195.69 85.2429 195.936 85.0121 196.245 84.8452C196.554 84.6783 196.895 84.554 197.268 84.4723C197.645 84.3871 198.023 84.3196 198.403 84.2699C198.9 84.206 199.303 84.158 199.612 84.1261C199.924 84.0906 200.152 84.032 200.294 83.9503C200.439 83.8686 200.512 83.7266 200.512 83.5241V83.4815C200.512 82.956 200.368 82.5476 200.081 82.2564C199.797 81.9652 199.365 81.8196 198.786 81.8196C198.186 81.8196 197.716 81.951 197.375 82.2138C197.034 82.4766 196.794 82.7571 196.656 83.0554L195.462 82.6293C195.675 82.1321 195.96 81.745 196.315 81.468C196.673 81.1875 197.064 80.9922 197.487 80.8821C197.913 80.7685 198.332 80.7116 198.744 80.7116C199.006 80.7116 199.308 80.7436 199.649 80.8075C199.994 80.8679 200.326 80.994 200.645 81.1857C200.968 81.3775 201.237 81.6669 201.45 82.054C201.663 82.4411 201.769 82.9595 201.769 83.6094V89H200.512V87.892H200.448C200.363 88.0696 200.221 88.2596 200.022 88.462C199.823 88.6644 199.559 88.8366 199.228 88.9787C198.898 89.1207 198.495 89.1918 198.019 89.1918ZM198.211 88.0625C198.708 88.0625 199.127 87.9648 199.468 87.7695C199.813 87.5742 200.072 87.3221 200.246 87.0131C200.423 86.7042 200.512 86.3793 200.512 86.0384V84.8878C200.459 84.9517 200.342 85.0103 200.161 85.0636C199.983 85.1133 199.777 85.1577 199.543 85.1967C199.312 85.2322 199.086 85.2642 198.866 85.2926C198.65 85.3175 198.474 85.3388 198.339 85.3565C198.012 85.3991 197.707 85.4684 197.423 85.5643C197.142 85.6566 196.915 85.7969 196.741 85.9851C196.57 86.1697 196.485 86.4219 196.485 86.7415C196.485 87.1783 196.647 87.5085 196.97 87.7322C197.297 87.9524 197.71 88.0625 198.211 88.0625ZM209.859 82.6506L208.73 82.9702C208.659 82.782 208.554 82.5991 208.416 82.4215C208.281 82.2404 208.096 82.0913 207.862 81.9741C207.627 81.8569 207.327 81.7983 206.961 81.7983C206.461 81.7983 206.043 81.9137 205.71 82.1445C205.379 82.3718 205.214 82.6612 205.214 83.0128C205.214 83.3253 205.328 83.5721 205.555 83.7532C205.782 83.9343 206.138 84.0852 206.62 84.206L207.835 84.5043C208.566 84.6818 209.112 84.9535 209.47 85.3192C209.829 85.6815 210.008 86.1484 210.008 86.7202C210.008 87.1889 209.873 87.608 209.603 87.9773C209.337 88.3466 208.964 88.6378 208.485 88.8509C208.005 89.0639 207.448 89.1705 206.812 89.1705C205.978 89.1705 205.287 88.9893 204.74 88.6271C204.193 88.2649 203.847 87.7358 203.701 87.0398L204.895 86.7415C205.008 87.1818 205.223 87.5121 205.539 87.7322C205.859 87.9524 206.276 88.0625 206.791 88.0625C207.377 88.0625 207.842 87.9382 208.187 87.6896C208.535 87.4375 208.709 87.1357 208.709 86.7841C208.709 86.5 208.609 86.2621 208.41 86.0703C208.211 85.875 207.906 85.7294 207.494 85.6335L206.13 85.3139C205.381 85.1364 204.831 84.8612 204.479 84.4883C204.131 84.1119 203.957 83.6413 203.957 83.0767C203.957 82.6151 204.087 82.2067 204.346 81.8516C204.609 81.4964 204.966 81.2177 205.417 81.0153C205.871 80.8129 206.386 80.7116 206.961 80.7116C207.771 80.7116 208.407 80.8892 208.868 81.2443C209.334 81.5994 209.664 82.0682 209.859 82.6506ZM215.331 89.1705C214.543 89.1705 213.863 88.9964 213.291 88.6484C212.723 88.2969 212.284 87.8068 211.975 87.1783C211.67 86.5462 211.517 85.8111 211.517 84.973C211.517 84.1349 211.67 83.3963 211.975 82.7571C212.284 82.1143 212.714 81.6136 213.264 81.255C213.818 80.8928 214.464 80.7116 215.203 80.7116C215.629 80.7116 216.05 80.7827 216.466 80.9247C216.881 81.0668 217.259 81.2976 217.6 81.6172C217.941 81.9332 218.213 82.3523 218.415 82.8743C218.618 83.3963 218.719 84.0391 218.719 84.8026V85.3352H212.412V84.2486H217.44C217.44 83.7869 217.348 83.375 217.163 83.0128C216.982 82.6506 216.723 82.3647 216.386 82.1552C216.052 81.9457 215.658 81.8409 215.203 81.8409C214.702 81.8409 214.269 81.9652 213.903 82.2138C213.541 82.4588 213.262 82.7784 213.067 83.1726C212.872 83.5668 212.774 83.9893 212.774 84.4403V85.1648C212.774 85.7827 212.881 86.3065 213.094 86.7362C213.31 87.1623 213.61 87.4872 213.994 87.7109C214.377 87.9311 214.823 88.0412 215.331 88.0412C215.661 88.0412 215.96 87.995 216.226 87.9027C216.496 87.8068 216.728 87.6648 216.924 87.4766C217.119 87.2848 217.27 87.0469 217.376 86.7628L218.591 87.1037C218.463 87.5156 218.248 87.8778 217.946 88.1903C217.645 88.4993 217.272 88.7408 216.828 88.9148C216.384 89.0852 215.885 89.1705 215.331 89.1705ZM224.85 89V80.8182H226.107V89H224.85ZM225.489 79.4545C225.244 79.4545 225.033 79.3711 224.855 79.2042C224.681 79.0373 224.594 78.8366 224.594 78.6023C224.594 78.3679 224.681 78.1673 224.855 78.0004C225.033 77.8335 225.244 77.75 225.489 77.75C225.734 77.75 225.944 77.8335 226.118 78.0004C226.295 78.1673 226.384 78.3679 226.384 78.6023C226.384 78.8366 226.295 79.0373 226.118 79.2042C225.944 79.3711 225.734 79.4545 225.489 79.4545ZM229.666 84.0781V89H228.409V80.8182H229.624V82.0966H229.73C229.922 81.6811 230.213 81.3473 230.604 81.0952C230.995 80.8395 231.499 80.7116 232.117 80.7116C232.671 80.7116 233.155 80.8253 233.571 81.0526C233.986 81.2763 234.31 81.6172 234.54 82.0753C234.771 82.5298 234.887 83.1051 234.887 83.8011V89H233.63V83.8864C233.63 83.2436 233.463 82.7429 233.129 82.3842C232.795 82.022 232.337 81.8409 231.755 81.8409C231.353 81.8409 230.995 81.9279 230.679 82.1019C230.366 82.2759 230.119 82.5298 229.938 82.8636C229.757 83.1974 229.666 83.6023 229.666 84.0781ZM242.979 82.6506L241.85 82.9702C241.779 82.782 241.674 82.5991 241.536 82.4215C241.401 82.2404 241.216 82.0913 240.982 81.9741C240.747 81.8569 240.447 81.7983 240.081 81.7983C239.581 81.7983 239.164 81.9137 238.83 82.1445C238.499 82.3718 238.334 82.6612 238.334 83.0128C238.334 83.3253 238.448 83.5721 238.675 83.7532C238.903 83.9343 239.258 84.0852 239.741 84.206L240.955 84.5043C241.687 84.6818 242.232 84.9535 242.59 85.3192C242.949 85.6815 243.128 86.1484 243.128 86.7202C243.128 87.1889 242.993 87.608 242.724 87.9773C242.457 88.3466 242.084 88.6378 241.605 88.8509C241.126 89.0639 240.568 89.1705 239.932 89.1705C239.098 89.1705 238.407 88.9893 237.86 88.6271C237.313 88.2649 236.967 87.7358 236.822 87.0398L238.015 86.7415C238.128 87.1818 238.343 87.5121 238.659 87.7322C238.979 87.9524 239.396 88.0625 239.911 88.0625C240.497 88.0625 240.962 87.9382 241.307 87.6896C241.655 87.4375 241.829 87.1357 241.829 86.7841C241.829 86.5 241.729 86.2621 241.53 86.0703C241.331 85.875 241.026 85.7294 240.614 85.6335L239.251 85.3139C238.501 85.1364 237.951 84.8612 237.599 84.4883C237.251 84.1119 237.077 83.6413 237.077 83.0767C237.077 82.6151 237.207 82.2067 237.466 81.8516C237.729 81.4964 238.086 81.2177 238.537 81.0153C238.991 80.8129 239.506 80.7116 240.081 80.7116C240.891 80.7116 241.527 80.8892 241.988 81.2443C242.454 81.5994 242.784 82.0682 242.979 82.6506ZM248.579 80.8182V81.8835H244.339V80.8182H248.579ZM245.575 78.858H246.832V86.6562C246.832 87.0114 246.883 87.2777 246.986 87.4553C247.093 87.6293 247.228 87.7464 247.391 87.8068C247.558 87.8636 247.734 87.892 247.918 87.892C248.057 87.892 248.171 87.8849 248.259 87.8707C248.348 87.853 248.419 87.8388 248.472 87.8281L248.728 88.9574C248.643 88.9893 248.524 89.0213 248.371 89.0533C248.218 89.0888 248.025 89.1065 247.791 89.1065C247.435 89.1065 247.087 89.0302 246.747 88.8775C246.409 88.7248 246.129 88.4922 245.905 88.1797C245.685 87.8672 245.575 87.473 245.575 86.9972V78.858ZM252.878 89.1918C252.359 89.1918 251.889 89.0941 251.466 88.8988C251.043 88.6999 250.708 88.4141 250.459 88.0412C250.211 87.6648 250.086 87.2102 250.086 86.6776C250.086 86.2088 250.179 85.8288 250.363 85.5376C250.548 85.2429 250.795 85.0121 251.104 84.8452C251.413 84.6783 251.754 84.554 252.127 84.4723C252.503 84.3871 252.881 84.3196 253.261 84.2699C253.758 84.206 254.161 84.158 254.47 84.1261C254.783 84.0906 255.01 84.032 255.152 83.9503C255.298 83.8686 255.37 83.7266 255.37 83.5241V83.4815C255.37 82.956 255.227 82.5476 254.939 82.2564C254.655 81.9652 254.223 81.8196 253.645 81.8196C253.044 81.8196 252.574 81.951 252.233 82.2138C251.892 82.4766 251.652 82.7571 251.514 83.0554L250.321 82.6293C250.534 82.1321 250.818 81.745 251.173 81.468C251.532 81.1875 251.922 80.9922 252.345 80.8821C252.771 80.7685 253.19 80.7116 253.602 80.7116C253.865 80.7116 254.167 80.7436 254.508 80.8075C254.852 80.8679 255.184 80.994 255.504 81.1857C255.827 81.3775 256.095 81.6669 256.308 82.054C256.521 82.4411 256.628 82.9595 256.628 83.6094V89H255.37V87.892H255.307C255.221 88.0696 255.079 88.2596 254.88 88.462C254.682 88.6644 254.417 88.8366 254.087 88.9787C253.756 89.1207 253.353 89.1918 252.878 89.1918ZM253.069 88.0625C253.566 88.0625 253.986 87.9648 254.326 87.7695C254.671 87.5742 254.93 87.3221 255.104 87.0131C255.282 86.7042 255.37 86.3793 255.37 86.0384V84.8878C255.317 84.9517 255.2 85.0103 255.019 85.0636C254.841 85.1133 254.635 85.1577 254.401 85.1967C254.17 85.2322 253.945 85.2642 253.725 85.2926C253.508 85.3175 253.332 85.3388 253.197 85.3565C252.87 85.3991 252.565 85.4684 252.281 85.5643C252 85.6566 251.773 85.7969 251.599 85.9851C251.429 86.1697 251.343 86.4219 251.343 86.7415C251.343 87.1783 251.505 87.5085 251.828 87.7322C252.155 87.9524 252.569 88.0625 253.069 88.0625ZM260.179 84.0781V89H258.922V80.8182H260.137V82.0966H260.243C260.435 81.6811 260.726 81.3473 261.117 81.0952C261.507 80.8395 262.012 80.7116 262.629 80.7116C263.183 80.7116 263.668 80.8253 264.084 81.0526C264.499 81.2763 264.822 81.6172 265.053 82.0753C265.284 82.5298 265.399 83.1051 265.399 83.8011V89H264.142V83.8864C264.142 83.2436 263.975 82.7429 263.642 82.3842C263.308 82.022 262.85 81.8409 262.267 81.8409C261.866 81.8409 261.507 81.9279 261.191 82.1019C260.879 82.2759 260.632 82.5298 260.451 82.8636C260.27 83.1974 260.179 83.6023 260.179 84.0781ZM271.02 89.1705C270.253 89.1705 269.593 88.9893 269.039 88.6271C268.485 88.2649 268.059 87.766 267.76 87.1303C267.462 86.4947 267.313 85.7685 267.313 84.9517C267.313 84.1207 267.466 83.3874 267.771 82.7518C268.08 82.1126 268.51 81.6136 269.06 81.255C269.614 80.8928 270.26 80.7116 270.999 80.7116C271.574 80.7116 272.093 80.8182 272.554 81.0312C273.016 81.2443 273.394 81.5426 273.689 81.9261C273.984 82.3097 274.167 82.7571 274.238 83.2685H272.981C272.885 82.8956 272.672 82.5653 272.341 82.2777C272.015 81.9865 271.574 81.8409 271.02 81.8409C270.53 81.8409 270.101 81.9687 269.731 82.2244C269.366 82.4766 269.08 82.8335 268.874 83.2951C268.671 83.7532 268.57 84.2912 268.57 84.9091C268.57 85.5412 268.669 86.0916 268.868 86.5604C269.071 87.0291 269.355 87.3931 269.721 87.6523C270.09 87.9116 270.523 88.0412 271.02 88.0412C271.347 88.0412 271.644 87.9844 271.91 87.8707C272.176 87.7571 272.402 87.5938 272.586 87.3807C272.771 87.1676 272.902 86.9119 272.981 86.6136H274.238C274.167 87.0966 273.991 87.5316 273.71 87.9187C273.433 88.3022 273.066 88.6076 272.608 88.8349C272.153 89.0586 271.624 89.1705 271.02 89.1705ZM279.506 89.1705C278.717 89.1705 278.037 88.9964 277.466 88.6484C276.897 88.2969 276.459 87.8068 276.15 87.1783C275.845 86.5462 275.692 85.8111 275.692 84.973C275.692 84.1349 275.845 83.3963 276.15 82.7571C276.459 82.1143 276.889 81.6136 277.439 81.255C277.993 80.8928 278.639 80.7116 279.378 80.7116C279.804 80.7116 280.225 80.7827 280.64 80.9247C281.056 81.0668 281.434 81.2976 281.775 81.6172C282.116 81.9332 282.388 82.3523 282.59 82.8743C282.792 83.3963 282.894 84.0391 282.894 84.8026V85.3352H276.587V84.2486H281.615C281.615 83.7869 281.523 83.375 281.338 83.0128C281.157 82.6506 280.898 82.3647 280.56 82.1552C280.227 81.9457 279.832 81.8409 279.378 81.8409C278.877 81.8409 278.444 81.9652 278.078 82.2138C277.716 82.4588 277.437 82.7784 277.242 83.1726C277.047 83.5668 276.949 83.9893 276.949 84.4403V85.1648C276.949 85.7827 277.055 86.3065 277.269 86.7362C277.485 87.1623 277.785 87.4872 278.169 87.7109C278.552 87.9311 278.998 88.0412 279.506 88.0412C279.836 88.0412 280.134 87.995 280.401 87.9027C280.671 87.8068 280.903 87.6648 281.098 87.4766C281.294 87.2848 281.445 87.0469 281.551 86.7628L282.766 87.1037C282.638 87.5156 282.423 87.8778 282.121 88.1903C281.819 88.4993 281.446 88.7408 281.003 88.9148C280.559 89.0852 280.06 89.1705 279.506 89.1705Z" fill="#A9A9A9"/>
</svg>
