<svg width="736" height="52" viewBox="0 0 736 52" fill="none" xmlns="http://www.w3.org/2000/svg">
<g clip-path="url(#clip0_974_18)">
<path d="M8.84 40L1.08 12H3L9.88 37.68L17.56 12H19.64L27.16 37.68L34.12 12H36.04L28.2 40H26.12L18.56 14.68L10.84 40H8.84ZM46.3153 40.48C44.422 40.48 42.782 40.04 41.3953 39.16C40.0353 38.28 38.982 37.04 38.2353 35.44C37.4886 33.84 37.1153 31.96 37.1153 29.8C37.1153 27.6133 37.502 25.7467 38.2753 24.2C39.0753 22.6533 40.1686 21.4667 41.5553 20.64C42.9686 19.7867 44.582 19.36 46.3953 19.36C48.342 19.36 49.9686 19.8 51.2753 20.68C52.582 21.5333 53.5686 22.6667 54.2353 24.08C54.902 25.4933 55.2353 27.04 55.2353 28.72C55.2353 28.9867 55.2353 29.24 55.2353 29.48C55.2353 29.72 55.222 30 55.1953 30.32H38.3953V28.76H53.4753C53.4486 26.1733 52.7686 24.2267 51.4353 22.92C50.102 21.6133 48.3953 20.96 46.3153 20.96C45.0353 20.96 43.8353 21.2533 42.7153 21.84C41.5953 22.4267 40.6753 23.3333 39.9553 24.56C39.262 25.7867 38.9153 27.3467 38.9153 29.24V29.96C38.9153 31.9867 39.262 33.6667 39.9553 35C40.6486 36.3067 41.5553 37.28 42.6753 37.92C43.7953 38.56 45.0086 38.88 46.3153 38.88C47.9953 38.88 49.382 38.4933 50.4753 37.72C51.5686 36.92 52.3686 35.8 52.8753 34.36H54.6753C54.3286 35.5333 53.782 36.5867 53.0353 37.52C52.3153 38.4533 51.3953 39.1867 50.2753 39.72C49.1553 40.2267 47.8353 40.48 46.3153 40.48ZM59.7541 40V11.2H61.5541V40H59.7541ZM75.7359 40.48C73.9226 40.48 72.2959 40.0533 70.8559 39.2C69.4159 38.32 68.2826 37.0933 67.4559 35.52C66.6559 33.92 66.2559 32.0667 66.2559 29.96C66.2559 27.8 66.6693 25.9333 67.4959 24.36C68.3493 22.76 69.4959 21.5333 70.9359 20.68C72.3759 19.8 73.9759 19.36 75.7359 19.36C78.0026 19.36 79.8826 19.9467 81.3759 21.12C82.8959 22.2933 83.8559 23.8 84.2559 25.64H82.3759C82.0559 24.2 81.2959 23.0667 80.0959 22.24C78.9226 21.4133 77.4693 21 75.7359 21C74.4559 21 73.2293 21.3333 72.0559 22C70.8826 22.64 69.9359 23.6267 69.2159 24.96C68.4959 26.2667 68.1359 27.9333 68.1359 29.96C68.1359 31.5067 68.3493 32.84 68.7759 33.96C69.2026 35.08 69.7759 36.0133 70.4959 36.76C71.2426 37.48 72.0693 38.0133 72.9759 38.36C73.8826 38.7067 74.8026 38.88 75.7359 38.88C76.8559 38.88 77.8693 38.7067 78.7759 38.36C79.7093 37.9867 80.4959 37.4533 81.1359 36.76C81.7759 36.04 82.1893 35.1867 82.3759 34.2H84.2559C83.8826 36.0133 82.9493 37.52 81.4559 38.72C79.9893 39.8933 78.0826 40.48 75.7359 40.48ZM97.7319 40.48C95.8919 40.48 94.2385 40.0533 92.7719 39.2C91.3319 38.3467 90.1852 37.1333 89.3319 35.56C88.5052 33.96 88.0919 32.0933 88.0919 29.96C88.0919 27.7467 88.5185 25.8533 89.3719 24.28C90.2252 22.7067 91.3852 21.4933 92.8519 20.64C94.3185 19.7867 95.9719 19.36 97.8119 19.36C99.6785 19.36 101.332 19.7867 102.772 20.64C104.239 21.4933 105.385 22.7067 106.212 24.28C107.065 25.8533 107.492 27.7467 107.492 29.96C107.492 32.0933 107.065 33.96 106.212 35.56C105.359 37.1333 104.199 38.3467 102.732 39.2C101.265 40.0533 99.5985 40.48 97.7319 40.48ZM97.7319 38.88C99.1185 38.88 100.399 38.5467 101.572 37.88C102.772 37.2133 103.745 36.2133 104.492 34.88C105.239 33.5467 105.612 31.8933 105.612 29.92C105.612 27.9467 105.239 26.2933 104.492 24.96C103.772 23.6267 102.812 22.64 101.612 22C100.439 21.3333 99.1719 21 97.8119 21C96.4519 21 95.1719 21.3333 93.9719 22C92.7719 22.6667 91.7985 23.6667 91.0519 25C90.3319 26.3067 89.9719 27.9467 89.9719 29.92C89.9719 31.8933 90.3319 33.5467 91.0519 34.88C91.7985 36.2133 92.7585 37.2133 93.9319 37.88C95.1052 38.5467 96.3719 38.88 97.7319 38.88ZM112.254 40V19.84H113.854L114.054 23.68C114.694 22.2667 115.574 21.2 116.694 20.48C117.841 19.7333 119.161 19.36 120.654 19.36C121.561 19.36 122.427 19.5067 123.254 19.8C124.107 20.0933 124.854 20.5867 125.494 21.28C126.161 21.9733 126.667 22.92 127.014 24.12C127.521 22.7333 128.347 21.6 129.494 20.72C130.667 19.8133 132.081 19.36 133.734 19.36C135.227 19.36 136.521 19.6667 137.614 20.28C138.707 20.8667 139.561 21.7867 140.174 23.04C140.787 24.2933 141.094 25.92 141.094 27.92V40H139.294V28.04C139.294 25.6133 138.814 23.84 137.854 22.72C136.894 21.5733 135.494 21 133.654 21C132.534 21 131.507 21.28 130.574 21.84C129.641 22.4 128.894 23.2267 128.334 24.32C127.801 25.4133 127.534 26.7867 127.534 28.44V40H125.734V27.92C125.734 25.5467 125.267 23.8 124.334 22.68C123.427 21.56 122.147 21 120.494 21C119.214 21 118.094 21.32 117.134 21.96C116.174 22.6 115.414 23.5333 114.854 24.76C114.321 25.9867 114.054 27.52 114.054 29.36V40H112.254ZM154.597 40.48C152.703 40.48 151.063 40.04 149.677 39.16C148.317 38.28 147.263 37.04 146.517 35.44C145.77 33.84 145.397 31.96 145.397 29.8C145.397 27.6133 145.783 25.7467 146.557 24.2C147.357 22.6533 148.45 21.4667 149.837 20.64C151.25 19.7867 152.863 19.36 154.677 19.36C156.623 19.36 158.25 19.8 159.557 20.68C160.863 21.5333 161.85 22.6667 162.517 24.08C163.183 25.4933 163.517 27.04 163.517 28.72C163.517 28.9867 163.517 29.24 163.517 29.48C163.517 29.72 163.503 30 163.477 30.32H146.677V28.76H161.757C161.73 26.1733 161.05 24.2267 159.717 22.92C158.383 21.6133 156.677 20.96 154.597 20.96C153.317 20.96 152.117 21.2533 150.997 21.84C149.877 22.4267 148.957 23.3333 148.237 24.56C147.543 25.7867 147.197 27.3467 147.197 29.24V29.96C147.197 31.9867 147.543 33.6667 148.237 35C148.93 36.3067 149.837 37.28 150.957 37.92C152.077 38.56 153.29 38.88 154.597 38.88C156.277 38.88 157.663 38.4933 158.757 37.72C159.85 36.92 160.65 35.8 161.157 34.36H162.957C162.61 35.5333 162.063 36.5867 161.317 37.52C160.597 38.4533 159.677 39.1867 158.557 39.72C157.437 40.2267 156.117 40.48 154.597 40.48ZM185.114 40C184.048 40 183.141 39.84 182.394 39.52C181.674 39.2 181.114 38.6533 180.714 37.88C180.341 37.08 180.154 36.0133 180.154 34.68V21.4H176.634V19.84H180.154L180.434 15.44H181.954V19.84H188.274V21.4H181.954V34.64C181.954 36.0533 182.234 37.04 182.794 37.6C183.354 38.16 184.301 38.44 185.634 38.44H187.874V40H185.114ZM200.74 40.48C198.9 40.48 197.246 40.0533 195.78 39.2C194.34 38.3467 193.193 37.1333 192.34 35.56C191.513 33.96 191.1 32.0933 191.1 29.96C191.1 27.7467 191.526 25.8533 192.38 24.28C193.233 22.7067 194.393 21.4933 195.86 20.64C197.326 19.7867 198.98 19.36 200.82 19.36C202.686 19.36 204.34 19.7867 205.78 20.64C207.246 21.4933 208.393 22.7067 209.22 24.28C210.073 25.8533 210.5 27.7467 210.5 29.96C210.5 32.0933 210.073 33.96 209.22 35.56C208.366 37.1333 207.206 38.3467 205.74 39.2C204.273 40.0533 202.606 40.48 200.74 40.48ZM200.74 38.88C202.126 38.88 203.406 38.5467 204.58 37.88C205.78 37.2133 206.753 36.2133 207.5 34.88C208.246 33.5467 208.62 31.8933 208.62 29.92C208.62 27.9467 208.246 26.2933 207.5 24.96C206.78 23.6267 205.82 22.64 204.62 22C203.446 21.3333 202.18 21 200.82 21C199.46 21 198.18 21.3333 196.98 22C195.78 22.6667 194.806 23.6667 194.06 25C193.34 26.3067 192.98 27.9467 192.98 29.92C192.98 31.8933 193.34 33.5467 194.06 34.88C194.806 36.2133 195.766 37.2133 196.94 37.88C198.113 38.5467 199.38 38.88 200.74 38.88Z" fill="#C5C5C5"/>
<path d="M249.953 21.5068C246.932 22.0166 244.299 23.999 242.052 27.4541C239.862 30.8148 238.71 34.1377 238.597 37.4229C242.92 31.721 246.706 26.4157 249.953 21.5068ZM248.65 19.0996L250.321 19.3262C250.586 19.3262 250.859 19.1751 251.143 18.873C251.445 18.571 251.822 18.4199 252.275 18.4199C252.747 18.4199 253.116 18.5426 253.38 18.7881C253.663 19.0335 253.805 19.2507 253.805 19.4395C253.805 19.6094 253.71 19.902 253.521 20.3174C253.333 20.7327 253.219 21.0065 253.182 21.1387C250.671 29.0117 249.415 34.0339 249.415 36.2051C249.434 36.9603 249.604 37.3473 249.925 37.3662C251.076 37.3662 252.88 35.8558 255.334 32.835C256.977 30.8148 258.034 29.3327 258.506 28.3887C258.997 27.4447 259.384 26.9443 259.667 26.8877C259.724 26.8877 259.771 26.8783 259.809 26.8594C260.148 26.8971 260.328 27.0954 260.347 27.4541C260.347 28.1338 259.563 29.6631 257.996 32.042C254.654 37.1396 251.766 39.6885 249.33 39.6885C247.574 39.6885 246.696 38.4613 246.696 36.0068C246.696 34.8363 246.932 33.3825 247.404 31.6455C247.876 29.8896 248.16 28.7946 248.254 28.3604C247.82 28.9268 246.366 30.9847 243.893 34.5342C241.419 38.0837 239.645 40.1794 238.568 40.8213C238.229 41.0101 237.936 41.1139 237.69 41.1328C236.614 41.1328 235.831 40.708 235.34 39.8584C235.113 39.443 235 38.8483 235 38.0742C234.981 37.2812 235.557 35.4688 236.728 32.6367C238.616 28.0677 240.758 24.5465 243.156 22.0732C245.044 20.1475 246.876 19.1562 248.65 19.0996ZM264.906 19.3828L265.303 19.3262C266.285 19.3451 266.766 19.6188 266.747 20.1475C266.728 20.374 266.672 20.61 266.577 20.8555C266.483 21.082 266.162 21.7806 265.614 22.9512C264.935 24.4049 264.661 25.4056 264.793 25.9531V26.123L266.889 22.9512C268.248 20.8932 269.258 19.4017 269.919 18.4766C270.108 18.2311 270.429 18.1084 270.882 18.1084C271.335 18.1084 271.703 18.2311 271.986 18.4766C272.288 18.7031 272.449 18.8825 272.468 19.0146L272.298 19.4395C268.899 27.6901 267.2 33.5807 267.2 37.1113C267.2 38.584 267.682 39.4619 268.645 39.7451C269.532 39.9906 270.438 39.7262 271.363 38.9521C273.95 36.8753 276.263 34.1849 278.302 30.8809L278.84 29.9746C279.029 29.6725 279.321 29.4932 279.718 29.4365C280.228 29.4365 280.482 29.7103 280.482 30.2578C280.482 31.2396 279.397 33.0049 277.226 35.5537C275.073 38.0837 273.468 39.7451 272.411 40.5381C271.373 41.3311 270.23 41.7275 268.984 41.7275C267.757 41.7275 266.747 40.9912 265.954 39.5186C265.407 38.499 265.133 37.319 265.133 35.9785C265.133 34.638 265.444 32.8538 266.067 30.626C266.709 28.3792 267.059 27.0293 267.115 26.5762C267.172 26.123 267.191 25.8682 267.172 25.8115C266.285 26.9632 265.265 28.5775 264.113 30.6543L261.848 34.6475C261.508 35.195 261.168 35.4688 260.828 35.4688C259.884 35.4688 259.412 34.8929 259.412 33.7412C259.412 33.2126 259.78 32.2025 260.517 30.7109C261.253 29.2194 261.621 28.1432 261.621 27.4824C261.357 27.9167 260.904 28.738 260.262 29.9463C258.865 32.5706 257.024 35.0251 254.739 37.3096C253.871 38.1592 253.059 38.6689 252.304 38.8389C251.19 38.7067 250.869 38.4141 251.341 37.9609C252.625 36.7148 253.663 35.6009 254.456 34.6191C256.118 32.5612 257.307 30.2012 258.024 27.5391C258.761 24.8581 259.176 23.291 259.271 22.8379C259.365 22.3848 259.544 21.6484 259.809 20.6289L260.375 18.6182C260.658 17.4098 260.979 16.6452 261.338 16.3242C261.715 16.0033 262.15 15.8428 262.641 15.8428C263.566 15.8428 264.028 16.1449 264.028 16.749C264.028 17.3154 263.311 19.0713 261.876 22.0166C260.441 24.943 259.563 26.8594 259.242 27.7656C259.355 27.6335 259.686 27.1331 260.233 26.2646C260.781 25.3962 261.102 24.8864 261.196 24.7354C261.31 24.5843 261.517 24.2445 261.819 23.7158C263.424 20.8271 264.453 19.3828 264.906 19.3828ZM283.484 26.123C283.862 26.0664 284.674 25.2546 285.92 23.6875C287.166 22.1204 287.789 20.8932 287.789 20.0059C287.789 19.8737 287.742 19.7227 287.647 19.5527C287.27 19.9303 286.477 21.0065 285.269 22.7812C284.079 24.556 283.484 25.6699 283.484 26.123ZM294.756 30.3428C295.7 29.3232 296.229 29.1439 296.342 29.8047C296.342 30.0501 296.191 30.4561 295.889 31.0225C294.964 32.7406 293.548 34.5625 291.641 36.4883C288.62 39.5469 285.948 41.0762 283.626 41.0762C282.531 41.0762 281.596 40.7646 280.822 40.1416C279.368 38.9521 278.642 36.8848 278.642 33.9395C278.642 32.2591 279.151 29.8991 280.171 26.8594C281.209 23.8008 282.795 21.0348 284.929 18.5615C285.873 17.3532 286.854 16.749 287.874 16.749C288.365 16.749 288.875 16.8529 289.403 17.0605C290.649 17.5703 291.272 18.3916 291.272 19.5244C291.272 19.6943 291.216 19.9681 291.103 20.3457C290.328 21.875 289.082 23.6403 287.364 25.6416C285.646 27.6429 283.9 29.2383 282.125 30.4277C281.521 32.6178 281.219 34.3265 281.219 35.5537C281.219 36.7809 281.247 37.5645 281.304 37.9043C281.474 38.6973 282.106 39.0938 283.201 39.0938C284.296 39.0938 285.561 38.5934 286.996 37.5928C288.431 36.5732 289.96 35.2327 291.584 33.5713C293.208 31.9098 294.123 30.9753 294.331 30.7676C294.558 30.5599 294.699 30.4183 294.756 30.3428ZM294.331 41.7559C294.331 43.2852 294.633 44.7578 295.237 46.1738C296.257 48.5527 297.767 49.7422 299.769 49.7422C301.336 49.7422 302.648 49.3363 303.705 48.5244C304.781 47.7314 306.046 46.4193 307.5 44.5879C307.953 44.0026 308.425 43.8044 308.916 43.9932C309.407 44.1631 309.652 44.5501 309.652 45.1543C309.652 46.929 308.595 48.4489 306.48 49.7139C304.385 50.9788 302.383 51.6113 300.477 51.6113C294.831 51.6113 292.009 48.2695 292.009 41.5859C292.009 38.6595 292.556 35.6104 293.651 32.4385L293.935 31.6172C297.465 21.4974 300.203 14.71 302.147 11.2549C303.507 8.7627 304.979 7.5166 306.565 7.5166C308.812 7.53548 309.954 8.34733 309.992 9.95215C309.992 10.9528 309.322 12.5387 307.981 14.71C306.641 16.8623 303.951 20.6289 299.91 26.0098C298.891 27.1615 297.984 28.4642 297.191 29.918C295.285 33.5052 294.331 37.4512 294.331 41.7559ZM299.542 22.8379C299.825 22.819 301.128 20.7799 303.45 16.7207C305.791 12.6426 306.952 10.5374 306.934 10.4053C306.915 10.2542 306.839 10.1787 306.707 10.1787C306.575 10.1598 306.49 10.1693 306.452 10.207C305.829 10.5846 304.507 12.5954 302.487 16.2393C300.486 19.8643 299.485 22.0166 299.485 22.6963C299.485 22.7529 299.504 22.8001 299.542 22.8379ZM314.269 13.8887C314.174 13.8509 313.938 13.6999 313.561 13.4355C313.107 13.1146 312.881 12.8786 312.881 12.7275C312.881 12.2178 313.589 11.0189 315.005 9.13086C316.421 7.24284 317.223 6.11003 317.412 5.73242C317.884 5.26042 318.535 5.49642 319.366 6.44043C320.027 7.2334 320.235 7.87533 319.989 8.36621C319.857 8.8571 319.055 9.89551 317.582 11.4814C316.109 13.0674 315.005 13.8698 314.269 13.8887ZM321.037 31.6738C320.339 33.6374 318.951 35.6387 316.874 37.6777C314.42 40.0944 312.362 41.3027 310.7 41.3027C308.453 41.3027 307.047 40.0283 306.48 37.4795C306.311 36.7054 306.226 35.8652 306.226 34.959C306.207 32.0326 306.764 28.6436 307.896 24.792C309.312 19.9209 310.653 17.4854 311.918 17.4854C312.541 17.4854 312.994 17.6364 313.277 17.9385C313.579 18.2217 313.73 18.4294 313.73 18.5615C313.73 19.1657 313.117 20.6572 311.89 23.0361C310.662 25.3962 309.898 27.1143 309.596 28.1904C309.312 29.2477 309.095 30.6354 308.944 32.3535C308.812 34.0527 308.746 35.1478 308.746 35.6387C308.746 37.3001 308.944 38.3385 309.341 38.7539C309.756 39.1693 310.257 39.3864 310.842 39.4053C312.503 39.4053 314.486 37.9609 316.789 35.0723C317.903 33.6562 318.771 32.3535 319.395 31.1641C319.678 30.7109 319.97 30.4844 320.272 30.4844C320.782 30.5599 321.065 30.8148 321.122 31.249C321.122 31.3057 321.094 31.4473 321.037 31.6738ZM324.775 26.123C325.153 26.0664 325.965 25.2546 327.211 23.6875C328.457 22.1204 329.08 20.8932 329.08 20.0059C329.08 19.8737 329.033 19.7227 328.938 19.5527C328.561 19.9303 327.768 21.0065 326.56 22.7812C325.37 24.556 324.775 25.6699 324.775 26.123ZM336.047 30.3428C336.991 29.3232 337.52 29.1439 337.633 29.8047C337.633 30.0501 337.482 30.4561 337.18 31.0225C336.255 32.7406 334.839 34.5625 332.932 36.4883C329.911 39.5469 327.239 41.0762 324.917 41.0762C323.822 41.0762 322.887 40.7646 322.113 40.1416C320.66 38.9521 319.933 36.8848 319.933 33.9395C319.933 32.2591 320.442 29.8991 321.462 26.8594C322.5 23.8008 324.086 21.0348 326.22 18.5615C327.164 17.3532 328.146 16.749 329.165 16.749C329.656 16.749 330.166 16.8529 330.694 17.0605C331.94 17.5703 332.563 18.3916 332.563 19.5244C332.563 19.6943 332.507 19.9681 332.394 20.3457C331.619 21.875 330.373 23.6403 328.655 25.6416C326.937 27.6429 325.191 29.2383 323.416 30.4277C322.812 32.6178 322.51 34.3265 322.51 35.5537C322.51 36.7809 322.538 37.5645 322.595 37.9043C322.765 38.6973 323.397 39.0938 324.492 39.0938C325.587 39.0938 326.852 38.5934 328.287 37.5928C329.722 36.5732 331.251 35.2327 332.875 33.5713C334.499 31.9098 335.414 30.9753 335.622 30.7676C335.849 30.5599 335.99 30.4183 336.047 30.3428ZM338.681 34.9307C338.794 35.2705 338.926 35.5537 339.077 35.7803C339.247 35.988 339.606 36.0918 340.153 36.0918C340.701 36.0918 341.069 36.1201 341.258 36.1768C342.107 36.4033 342.532 37.0264 342.532 38.0459C342.532 38.3857 342.457 38.6973 342.306 38.9805C341.928 39.7168 341.352 40.085 340.578 40.085C339.823 40.085 339.162 39.8773 338.596 39.4619C338.029 39.0465 337.756 38.4141 337.774 37.5645C337.774 37.2812 337.784 37.083 337.803 36.9697C337.822 36.8564 338.114 36.1768 338.681 34.9307Z" fill="#444444"/>
</g>
<defs>
<clipPath id="clip0_974_18">
<rect width="736" height="52" rx="10" fill="white"/>
</clipPath>
</defs>
</svg>
