<svg width="270" height="52" viewBox="0 0 270 52" fill="none" xmlns="http://www.w3.org/2000/svg">
<g clip-path="url(#clip0_408_2)">
<path d="M13.3438 18.9707C11.0521 19.3574 9.05404 20.8613 7.34961 23.4824C5.68815 26.0319 4.81445 28.5527 4.72852 31.0449C8.00846 26.7194 10.8802 22.6947 13.3438 18.9707ZM12.3555 17.1445L13.623 17.3164C13.8236 17.3164 14.0312 17.2018 14.2461 16.9727C14.4753 16.7435 14.7617 16.6289 15.1055 16.6289C15.4635 16.6289 15.7428 16.722 15.9434 16.9082C16.1582 17.0944 16.2656 17.2591 16.2656 17.4023C16.2656 17.5312 16.194 17.7533 16.0508 18.0684C15.9076 18.3835 15.8216 18.5911 15.793 18.6914C13.888 24.6641 12.9355 28.474 12.9355 30.1211C12.9499 30.694 13.0788 30.9876 13.3223 31.002C14.196 31.002 15.5638 29.8561 17.4258 27.5645C18.6719 26.0319 19.474 24.9076 19.832 24.1914C20.2044 23.4753 20.498 23.0957 20.7129 23.0527C20.7559 23.0527 20.7917 23.0456 20.8203 23.0312C21.0781 23.0599 21.2142 23.2103 21.2285 23.4824C21.2285 23.998 20.6341 25.1582 19.4453 26.9629C16.9102 30.8301 14.7188 32.7637 12.8711 32.7637C11.5391 32.7637 10.873 31.8327 10.873 29.9707C10.873 29.0827 11.0521 27.9798 11.4102 26.6621C11.7682 25.3301 11.9831 24.4993 12.0547 24.1699C11.7253 24.5996 10.6224 26.1608 8.74609 28.8535C6.86979 31.5462 5.52344 33.1361 4.70703 33.623C4.44922 33.7663 4.22721 33.8451 4.04102 33.8594C3.22461 33.8594 2.63021 33.5371 2.25781 32.8926C2.08594 32.5775 2 32.1263 2 31.5391C1.98568 30.9375 2.42253 29.5625 3.31055 27.4141C4.74284 23.9479 6.36849 21.2767 8.1875 19.4004C9.61979 17.9395 11.0091 17.1875 12.3555 17.1445ZM24.6875 17.3594L24.9883 17.3164C25.7331 17.3307 26.0983 17.5384 26.084 17.9395C26.0697 18.1113 26.0267 18.2904 25.9551 18.4766C25.8835 18.6484 25.64 19.1784 25.2246 20.0664C24.709 21.1693 24.5013 21.9284 24.6016 22.3438V22.4727L26.1914 20.0664C27.2227 18.5052 27.9889 17.3737 28.4902 16.6719C28.6335 16.4857 28.877 16.3926 29.2207 16.3926C29.5645 16.3926 29.8438 16.4857 30.0586 16.6719C30.2878 16.8438 30.4095 16.9798 30.4238 17.0801L30.2949 17.4023C27.7168 23.6615 26.4277 28.1302 26.4277 30.8086C26.4277 31.9258 26.793 32.5918 27.5234 32.8066C28.1966 32.9928 28.8841 32.7923 29.5859 32.2051C31.5482 30.6296 33.3027 28.5885 34.8496 26.082L35.2578 25.3945C35.401 25.1654 35.623 25.0293 35.9238 24.9863C36.3105 24.9863 36.5039 25.194 36.5039 25.6094C36.5039 26.3542 35.6803 27.6934 34.0332 29.627C32.4004 31.5462 31.1829 32.8066 30.3809 33.4082C29.5931 34.0098 28.7266 34.3105 27.7812 34.3105C26.8503 34.3105 26.084 33.752 25.4824 32.6348C25.0671 31.8613 24.8594 30.9661 24.8594 29.9492C24.8594 28.9323 25.0957 27.5788 25.5684 25.8887C26.0553 24.1842 26.3203 23.1602 26.3633 22.8164C26.4062 22.4727 26.4206 22.2793 26.4062 22.2363C25.7331 23.11 24.9596 24.3346 24.0859 25.9102L22.3672 28.9395C22.1094 29.3548 21.8516 29.5625 21.5938 29.5625C20.8776 29.5625 20.5195 29.1257 20.5195 28.252C20.5195 27.8509 20.7988 27.0846 21.3574 25.9531C21.916 24.8216 22.1953 24.0052 22.1953 23.5039C21.9948 23.8333 21.651 24.4564 21.1641 25.373C20.1042 27.3639 18.7077 29.2259 16.9746 30.959C16.3158 31.6035 15.6999 31.9902 15.127 32.1191C14.2819 32.0189 14.0384 31.7969 14.3965 31.4531C15.3704 30.5078 16.1582 29.6628 16.7598 28.918C18.0202 27.3568 18.9225 25.5664 19.4668 23.5469C20.0254 21.513 20.3405 20.3242 20.4121 19.9805C20.4837 19.6367 20.6198 19.0781 20.8203 18.3047L21.25 16.7793C21.4648 15.8626 21.7083 15.2826 21.9805 15.0391C22.2669 14.7956 22.5964 14.6738 22.9688 14.6738C23.6706 14.6738 24.0215 14.903 24.0215 15.3613C24.0215 15.791 23.4772 17.123 22.3887 19.3574C21.3001 21.5775 20.6341 23.0312 20.3906 23.7188C20.4766 23.6185 20.7272 23.2389 21.1426 22.5801C21.5579 21.9212 21.8014 21.5345 21.873 21.4199C21.959 21.3053 22.1165 21.0475 22.3457 20.6465C23.5632 18.4551 24.3438 17.3594 24.6875 17.3594ZM38.7812 22.4727C39.0677 22.4297 39.6836 21.8138 40.6289 20.625C41.5742 19.4362 42.0469 18.5052 42.0469 17.832C42.0469 17.7318 42.0111 17.6172 41.9395 17.4883C41.653 17.7747 41.0514 18.5911 40.1348 19.9375C39.2324 21.2839 38.7812 22.1289 38.7812 22.4727ZM47.332 25.6738C48.0482 24.9004 48.4492 24.7643 48.5352 25.2656C48.5352 25.4518 48.4206 25.7598 48.1914 26.1895C47.4896 27.4928 46.4154 28.875 44.9688 30.3359C42.6771 32.6562 40.6504 33.8164 38.8887 33.8164C38.0579 33.8164 37.349 33.5801 36.7617 33.1074C35.6589 32.2051 35.1074 30.6367 35.1074 28.4023C35.1074 27.1276 35.4941 25.3372 36.2676 23.0312C37.0553 20.7109 38.2585 18.6126 39.877 16.7363C40.5931 15.8197 41.3379 15.3613 42.1113 15.3613C42.4837 15.3613 42.8704 15.4401 43.2715 15.5977C44.2168 15.9844 44.6895 16.6074 44.6895 17.4668C44.6895 17.5957 44.6465 17.8034 44.5605 18.0898C43.9733 19.25 43.028 20.5892 41.7246 22.1074C40.4212 23.6257 39.0964 24.8359 37.75 25.7383C37.2917 27.3997 37.0625 28.696 37.0625 29.627C37.0625 30.5579 37.084 31.1523 37.127 31.4102C37.2559 32.0117 37.7357 32.3125 38.5664 32.3125C39.3971 32.3125 40.3568 31.9329 41.4453 31.1738C42.5339 30.4004 43.694 29.3835 44.9258 28.123C46.1576 26.8626 46.8522 26.1536 47.0098 25.9961C47.1816 25.8385 47.2891 25.7311 47.332 25.6738ZM47.0098 34.332C47.0098 35.4922 47.2389 36.6094 47.6973 37.6836C48.4707 39.4883 49.6165 40.3906 51.1348 40.3906C52.3236 40.3906 53.319 40.0827 54.1211 39.4668C54.9375 38.8652 55.8971 37.8698 57 36.4805C57.3438 36.0365 57.7018 35.8861 58.0742 36.0293C58.4466 36.1582 58.6328 36.4518 58.6328 36.9102C58.6328 38.2565 57.8307 39.4095 56.2266 40.3691C54.6367 41.3288 53.1185 41.8086 51.6719 41.8086C47.3893 41.8086 45.248 39.2734 45.248 34.2031C45.248 31.9831 45.6634 29.6699 46.4941 27.2637L46.709 26.6406C49.3874 18.9635 51.4642 13.8145 52.9395 11.1934C53.9707 9.30273 55.0879 8.35742 56.291 8.35742C57.9954 8.37174 58.862 8.98763 58.8906 10.2051C58.8906 10.9642 58.3822 12.1673 57.3652 13.8145C56.3483 15.4473 54.3073 18.3047 51.2422 22.3867C50.4688 23.2604 49.7812 24.2487 49.1797 25.3516C47.7331 28.0729 47.0098 31.0664 47.0098 34.332ZM50.9629 19.9805C51.1777 19.9661 52.166 18.4193 53.9277 15.3398C55.7038 12.2461 56.5846 10.6491 56.5703 10.5488C56.556 10.4342 56.4987 10.377 56.3984 10.377C56.2982 10.3626 56.2337 10.3698 56.2051 10.3984C55.7324 10.6849 54.7298 12.2103 53.1973 14.9746C51.679 17.7246 50.9199 19.3574 50.9199 19.873C50.9199 19.916 50.9342 19.9518 50.9629 19.9805ZM62.1348 13.1914C62.0632 13.1628 61.8841 13.0482 61.5977 12.8477C61.2539 12.6042 61.082 12.4251 61.082 12.3105C61.082 11.9238 61.6191 11.0143 62.6934 9.58203C63.7676 8.14974 64.3763 7.29036 64.5195 7.00391C64.8776 6.64583 65.3717 6.82487 66.002 7.54102C66.5033 8.14258 66.6608 8.62956 66.4746 9.00195C66.3743 9.37435 65.7656 10.1621 64.6484 11.3652C63.5312 12.5684 62.6934 13.1771 62.1348 13.1914ZM67.2695 26.6836C66.7396 28.1732 65.6868 29.6914 64.1113 31.2383C62.2493 33.0716 60.6882 33.9883 59.4277 33.9883C57.7233 33.9883 56.6562 33.0215 56.2266 31.0879C56.0977 30.5007 56.0332 29.8633 56.0332 29.1758C56.0189 26.9557 56.4414 24.3848 57.3008 21.4629C58.375 17.7676 59.3919 15.9199 60.3516 15.9199C60.8242 15.9199 61.168 16.0345 61.3828 16.2637C61.612 16.4785 61.7266 16.6361 61.7266 16.7363C61.7266 17.1947 61.2611 18.3262 60.3301 20.1309C59.3991 21.9212 58.819 23.2246 58.5898 24.041C58.375 24.8431 58.2103 25.8958 58.0957 27.1992C57.9954 28.4883 57.9453 29.319 57.9453 29.6914C57.9453 30.9518 58.0957 31.7396 58.3965 32.0547C58.7116 32.3698 59.0911 32.5345 59.5352 32.5488C60.7956 32.5488 62.2995 31.4531 64.0469 29.2617C64.8919 28.1875 65.5508 27.1992 66.0234 26.2969C66.2383 25.9531 66.4603 25.7812 66.6895 25.7812C67.0762 25.8385 67.291 26.0319 67.334 26.3613C67.334 26.4043 67.3125 26.5117 67.2695 26.6836ZM70.1055 22.4727C70.3919 22.4297 71.0078 21.8138 71.9531 20.625C72.8984 19.4362 73.3711 18.5052 73.3711 17.832C73.3711 17.7318 73.3353 17.6172 73.2637 17.4883C72.9772 17.7747 72.3757 18.5911 71.459 19.9375C70.5566 21.2839 70.1055 22.1289 70.1055 22.4727ZM78.6562 25.6738C79.3724 24.9004 79.7734 24.7643 79.8594 25.2656C79.8594 25.4518 79.7448 25.7598 79.5156 26.1895C78.8138 27.4928 77.7396 28.875 76.293 30.3359C74.0013 32.6562 71.9746 33.8164 70.2129 33.8164C69.3822 33.8164 68.6732 33.5801 68.0859 33.1074C66.9831 32.2051 66.4316 30.6367 66.4316 28.4023C66.4316 27.1276 66.8184 25.3372 67.5918 23.0312C68.3796 20.7109 69.5827 18.6126 71.2012 16.7363C71.9173 15.8197 72.6621 15.3613 73.4355 15.3613C73.8079 15.3613 74.1947 15.4401 74.5957 15.5977C75.541 15.9844 76.0137 16.6074 76.0137 17.4668C76.0137 17.5957 75.9707 17.8034 75.8848 18.0898C75.2975 19.25 74.3522 20.5892 73.0488 22.1074C71.7454 23.6257 70.4206 24.8359 69.0742 25.7383C68.6159 27.3997 68.3867 28.696 68.3867 29.627C68.3867 30.5579 68.4082 31.1523 68.4512 31.4102C68.5801 32.0117 69.0599 32.3125 69.8906 32.3125C70.7214 32.3125 71.681 31.9329 72.7695 31.1738C73.8581 30.4004 75.0182 29.3835 76.25 28.123C77.4818 26.8626 78.1764 26.1536 78.334 25.9961C78.5059 25.8385 78.6133 25.7311 78.6562 25.6738ZM80.6543 29.1543C80.7402 29.4121 80.8405 29.627 80.9551 29.7988C81.084 29.9564 81.3561 30.0352 81.7715 30.0352C82.1868 30.0352 82.4661 30.0566 82.6094 30.0996C83.2539 30.2715 83.5762 30.7441 83.5762 31.5176C83.5762 31.7754 83.5189 32.0117 83.4043 32.2266C83.1178 32.7852 82.681 33.0645 82.0938 33.0645C81.5208 33.0645 81.0195 32.9069 80.5898 32.5918C80.1602 32.2767 79.9525 31.7969 79.9668 31.1523C79.9668 30.9375 79.974 30.7871 79.9883 30.7012C80.0026 30.6152 80.2246 30.0996 80.6543 29.1543Z" fill="#F3F3F3"/>
</g>
<defs>
<clipPath id="clip0_408_2">
<rect width="270" height="52" fill="white"/>
</clipPath>
</defs>
</svg>
