<svg width="270" height="52" viewBox="0 0 270 52" fill="none" xmlns="http://www.w3.org/2000/svg">
<g clip-path="url(#clip0_219_7)">
<path d="M13.3438 18.9707C11.0521 19.3574 9.05404 20.8613 7.34961 23.4824C5.68815 26.0319 4.81445 28.5527 4.72852 31.0449C8.00846 26.7194 10.8802 22.6947 13.3438 18.9707ZM12.3555 17.1445L13.623 17.3164C13.8236 17.3164 14.0312 17.2018 14.2461 16.9727C14.4753 16.7435 14.7617 16.6289 15.1055 16.6289C15.4635 16.6289 15.7428 16.722 15.9434 16.9082C16.1582 17.0944 16.2656 17.2591 16.2656 17.4023C16.2656 17.5312 16.194 17.7533 16.0508 18.0684C15.9076 18.3835 15.8216 18.5911 15.793 18.6914C13.888 24.6641 12.9355 28.474 12.9355 30.1211C12.9499 30.694 13.0788 30.9876 13.3223 31.002C14.196 31.002 15.5638 29.8561 17.4258 27.5645C18.6719 26.0319 19.474 24.9076 19.832 24.1914C20.2044 23.4753 20.498 23.0957 20.7129 23.0527C20.7559 23.0527 20.7917 23.0456 20.8203 23.0312C21.0781 23.0599 21.2142 23.2103 21.2285 23.4824C21.2285 23.998 20.6341 25.1582 19.4453 26.9629C16.9102 30.8301 14.7188 32.7637 12.8711 32.7637C11.5391 32.7637 10.873 31.8327 10.873 29.9707C10.873 29.0827 11.0521 27.9798 11.4102 26.6621C11.7682 25.3301 11.9831 24.4993 12.0547 24.1699C11.7253 24.5996 10.6224 26.1608 8.74609 28.8535C6.86979 31.5462 5.52344 33.1361 4.70703 33.623C4.44922 33.7663 4.22721 33.8451 4.04102 33.8594C3.22461 33.8594 2.63021 33.5371 2.25781 32.8926C2.08594 32.5775 2 32.1263 2 31.5391C1.98568 30.9375 2.42253 29.5625 3.31055 27.4141C4.74284 23.9479 6.36849 21.2767 8.1875 19.4004C9.61979 17.9395 11.0091 17.1875 12.3555 17.1445ZM24.6875 17.3594L24.9883 17.3164C25.7331 17.3307 26.0983 17.5384 26.084 17.9395C26.0697 18.1113 26.0267 18.2904 25.9551 18.4766C25.8835 18.6484 25.64 19.1784 25.2246 20.0664C24.709 21.1693 24.5013 21.9284 24.6016 22.3438V22.4727L26.1914 20.0664C27.2227 18.5052 27.9889 17.3737 28.4902 16.6719C28.6335 16.4857 28.877 16.3926 29.2207 16.3926C29.5645 16.3926 29.8438 16.4857 30.0586 16.6719C30.2878 16.8438 30.4095 16.9798 30.4238 17.0801L30.2949 17.4023C27.7168 23.6615 26.4277 28.1302 26.4277 30.8086C26.4277 31.9258 26.793 32.5918 27.5234 32.8066C28.1966 32.9928 28.8841 32.7923 29.5859 32.2051C31.5482 30.6296 33.3027 28.5885 34.8496 26.082L35.2578 25.3945C35.401 25.1654 35.623 25.0293 35.9238 24.9863C36.3105 24.9863 36.5039 25.194 36.5039 25.6094C36.5039 26.3542 35.6803 27.6934 34.0332 29.627C32.4004 31.5462 31.1829 32.8066 30.3809 33.4082C29.5931 34.0098 28.7266 34.3105 27.7812 34.3105C26.8503 34.3105 26.084 33.752 25.4824 32.6348C25.0671 31.8613 24.8594 30.9661 24.8594 29.9492C24.8594 28.9323 25.0957 27.5788 25.5684 25.8887C26.0553 24.1842 26.3203 23.1602 26.3633 22.8164C26.4062 22.4727 26.4206 22.2793 26.4062 22.2363C25.7331 23.11 24.9596 24.3346 24.0859 25.9102L22.3672 28.9395C22.1094 29.3548 21.8516 29.5625 21.5938 29.5625C20.8776 29.5625 20.5195 29.1257 20.5195 28.252C20.5195 27.8509 20.7988 27.0846 21.3574 25.9531C21.916 24.8216 22.1953 24.0052 22.1953 23.5039C21.9948 23.8333 21.651 24.4564 21.1641 25.373C20.1042 27.3639 18.7077 29.2259 16.9746 30.959C16.3158 31.6035 15.6999 31.9902 15.127 32.1191C14.2819 32.0189 14.0384 31.7969 14.3965 31.4531C15.3704 30.5078 16.1582 29.6628 16.7598 28.918C18.0202 27.3568 18.9225 25.5664 19.4668 23.5469C20.0254 21.513 20.3405 20.3242 20.4121 19.9805C20.4837 19.6367 20.6198 19.0781 20.8203 18.3047L21.25 16.7793C21.4648 15.8626 21.7083 15.2826 21.9805 15.0391C22.2669 14.7956 22.5964 14.6738 22.9688 14.6738C23.6706 14.6738 24.0215 14.903 24.0215 15.3613C24.0215 15.791 23.4772 17.123 22.3887 19.3574C21.3001 21.5775 20.6341 23.0312 20.3906 23.7188C20.4766 23.6185 20.7272 23.2389 21.1426 22.5801C21.5579 21.9212 21.8014 21.5345 21.873 21.4199C21.959 21.3053 22.1165 21.0475 22.3457 20.6465C23.5632 18.4551 24.3438 17.3594 24.6875 17.3594ZM38.7812 22.4727C39.0677 22.4297 39.6836 21.8138 40.6289 20.625C41.5742 19.4362 42.0469 18.5052 42.0469 17.832C42.0469 17.7318 42.0111 17.6172 41.9395 17.4883C41.653 17.7747 41.0514 18.5911 40.1348 19.9375C39.2324 21.2839 38.7812 22.1289 38.7812 22.4727ZM47.332 25.6738C48.0482 24.9004 48.4492 24.7643 48.5352 25.2656C48.5352 25.4518 48.4206 25.7598 48.1914 26.1895C47.4896 27.4928 46.4154 28.875 44.9688 30.3359C42.6771 32.6562 40.6504 33.8164 38.8887 33.8164C38.0579 33.8164 37.349 33.5801 36.7617 33.1074C35.6589 32.2051 35.1074 30.6367 35.1074 28.4023C35.1074 27.1276 35.4941 25.3372 36.2676 23.0312C37.0553 20.7109 38.2585 18.6126 39.877 16.7363C40.5931 15.8197 41.3379 15.3613 42.1113 15.3613C42.4837 15.3613 42.8704 15.4401 43.2715 15.5977C44.2168 15.9844 44.6895 16.6074 44.6895 17.4668C44.6895 17.5957 44.6465 17.8034 44.5605 18.0898C43.9733 19.25 43.028 20.5892 41.7246 22.1074C40.4212 23.6257 39.0964 24.8359 37.75 25.7383C37.2917 27.3997 37.0625 28.696 37.0625 29.627C37.0625 30.5579 37.084 31.1523 37.127 31.4102C37.2559 32.0117 37.7357 32.3125 38.5664 32.3125C39.3971 32.3125 40.3568 31.9329 41.4453 31.1738C42.5339 30.4004 43.694 29.3835 44.9258 28.123C46.1576 26.8626 46.8522 26.1536 47.0098 25.9961C47.1816 25.8385 47.2891 25.7311 47.332 25.6738ZM47.0098 34.332C47.0098 35.4922 47.2389 36.6094 47.6973 37.6836C48.4707 39.4883 49.6165 40.3906 51.1348 40.3906C52.3236 40.3906 53.319 40.0827 54.1211 39.4668C54.9375 38.8652 55.8971 37.8698 57 36.4805C57.3438 36.0365 57.7018 35.8861 58.0742 36.0293C58.4466 36.1582 58.6328 36.4518 58.6328 36.9102C58.6328 38.2565 57.8307 39.4095 56.2266 40.3691C54.6367 41.3288 53.1185 41.8086 51.6719 41.8086C47.3893 41.8086 45.248 39.2734 45.248 34.2031C45.248 31.9831 45.6634 29.6699 46.4941 27.2637L46.709 26.6406C49.3874 18.9635 51.4642 13.8145 52.9395 11.1934C53.9707 9.30273 55.0879 8.35742 56.291 8.35742C57.9954 8.37174 58.862 8.98763 58.8906 10.2051C58.8906 10.9642 58.3822 12.1673 57.3652 13.8145C56.3483 15.4473 54.3073 18.3047 51.2422 22.3867C50.4688 23.2604 49.7812 24.2487 49.1797 25.3516C47.7331 28.0729 47.0098 31.0664 47.0098 34.332ZM50.9629 19.9805C51.1777 19.9661 52.166 18.4193 53.9277 15.3398C55.7038 12.2461 56.5846 10.6491 56.5703 10.5488C56.556 10.4342 56.4987 10.377 56.3984 10.377C56.2982 10.3626 56.2337 10.3698 56.2051 10.3984C55.7324 10.6849 54.7298 12.2103 53.1973 14.9746C51.679 17.7246 50.9199 19.3574 50.9199 19.873C50.9199 19.916 50.9342 19.9518 50.9629 19.9805ZM62.1348 13.1914C62.0632 13.1628 61.8841 13.0482 61.5977 12.8477C61.2539 12.6042 61.082 12.4251 61.082 12.3105C61.082 11.9238 61.6191 11.0143 62.6934 9.58203C63.7676 8.14974 64.3763 7.29036 64.5195 7.00391C64.8776 6.64583 65.3717 6.82487 66.002 7.54102C66.5033 8.14258 66.6608 8.62956 66.4746 9.00195C66.3743 9.37435 65.7656 10.1621 64.6484 11.3652C63.5312 12.5684 62.6934 13.1771 62.1348 13.1914ZM67.2695 26.6836C66.7396 28.1732 65.6868 29.6914 64.1113 31.2383C62.2493 33.0716 60.6882 33.9883 59.4277 33.9883C57.7233 33.9883 56.6562 33.0215 56.2266 31.0879C56.0977 30.5007 56.0332 29.8633 56.0332 29.1758C56.0189 26.9557 56.4414 24.3848 57.3008 21.4629C58.375 17.7676 59.3919 15.9199 60.3516 15.9199C60.8242 15.9199 61.168 16.0345 61.3828 16.2637C61.612 16.4785 61.7266 16.6361 61.7266 16.7363C61.7266 17.1947 61.2611 18.3262 60.3301 20.1309C59.3991 21.9212 58.819 23.2246 58.5898 24.041C58.375 24.8431 58.2103 25.8958 58.0957 27.1992C57.9954 28.4883 57.9453 29.319 57.9453 29.6914C57.9453 30.9518 58.0957 31.7396 58.3965 32.0547C58.7116 32.3698 59.0911 32.5345 59.5352 32.5488C60.7956 32.5488 62.2995 31.4531 64.0469 29.2617C64.8919 28.1875 65.5508 27.1992 66.0234 26.2969C66.2383 25.9531 66.4603 25.7812 66.6895 25.7812C67.0762 25.8385 67.291 26.0319 67.334 26.3613C67.334 26.4043 67.3125 26.5117 67.2695 26.6836ZM70.1055 22.4727C70.3919 22.4297 71.0078 21.8138 71.9531 20.625C72.8984 19.4362 73.3711 18.5052 73.3711 17.832C73.3711 17.7318 73.3353 17.6172 73.2637 17.4883C72.9772 17.7747 72.3757 18.5911 71.459 19.9375C70.5566 21.2839 70.1055 22.1289 70.1055 22.4727ZM78.6562 25.6738C79.3724 24.9004 79.7734 24.7643 79.8594 25.2656C79.8594 25.4518 79.7448 25.7598 79.5156 26.1895C78.8138 27.4928 77.7396 28.875 76.293 30.3359C74.0013 32.6562 71.9746 33.8164 70.2129 33.8164C69.3822 33.8164 68.6732 33.5801 68.0859 33.1074C66.9831 32.2051 66.4316 30.6367 66.4316 28.4023C66.4316 27.1276 66.8184 25.3372 67.5918 23.0312C68.3796 20.7109 69.5827 18.6126 71.2012 16.7363C71.9173 15.8197 72.6621 15.3613 73.4355 15.3613C73.8079 15.3613 74.1947 15.4401 74.5957 15.5977C75.541 15.9844 76.0137 16.6074 76.0137 17.4668C76.0137 17.5957 75.9707 17.8034 75.8848 18.0898C75.2975 19.25 74.3522 20.5892 73.0488 22.1074C71.7454 23.6257 70.4206 24.8359 69.0742 25.7383C68.6159 27.3997 68.3867 28.696 68.3867 29.627C68.3867 30.5579 68.4082 31.1523 68.4512 31.4102C68.5801 32.0117 69.0599 32.3125 69.8906 32.3125C70.7214 32.3125 71.681 31.9329 72.7695 31.1738C73.8581 30.4004 75.0182 29.3835 76.25 28.123C77.4818 26.8626 78.1764 26.1536 78.334 25.9961C78.5059 25.8385 78.6133 25.7311 78.6562 25.6738ZM80.6543 29.1543C80.7402 29.4121 80.8405 29.627 80.9551 29.7988C81.084 29.9564 81.3561 30.0352 81.7715 30.0352C82.1868 30.0352 82.4661 30.0566 82.6094 30.0996C83.2539 30.2715 83.5762 30.7441 83.5762 31.5176C83.5762 31.7754 83.5189 32.0117 83.4043 32.2266C83.1178 32.7852 82.681 33.0645 82.0938 33.0645C81.5208 33.0645 81.0195 32.9069 80.5898 32.5918C80.1602 32.2767 79.9525 31.7969 79.9668 31.1523C79.9668 30.9375 79.974 30.7871 79.9883 30.7012C80.0026 30.6152 80.2246 30.0996 80.6543 29.1543Z" fill="#2A2A2A"/>
<path d="M118.625 32H114.585V18.9091H118.804C120.074 18.9091 121.161 19.1712 122.064 19.6953C122.967 20.2152 123.66 20.9631 124.141 21.9389C124.623 22.9105 124.864 24.0739 124.864 25.429C124.864 26.7926 124.621 27.9666 124.135 28.951C123.649 29.9311 122.942 30.6854 122.013 31.2138C121.084 31.7379 119.955 32 118.625 32ZM116.17 30.5938H118.523C119.605 30.5938 120.502 30.3849 121.214 29.9673C121.925 29.5497 122.456 28.9553 122.805 28.1839C123.155 27.4126 123.33 26.4943 123.33 25.429C123.33 24.3722 123.157 23.4624 122.812 22.6996C122.467 21.9325 121.951 21.3445 121.265 20.9354C120.579 20.522 119.724 20.3153 118.702 20.3153H116.17V30.5938ZM131.307 32.2045C130.42 32.2045 129.643 31.9936 128.974 31.5717C128.309 31.1499 127.789 30.5597 127.414 29.8011C127.043 29.0426 126.858 28.1562 126.858 27.142C126.858 26.1193 127.043 25.2266 127.414 24.4638C127.789 23.701 128.309 23.1087 128.974 22.6868C129.643 22.2649 130.42 22.054 131.307 22.054C132.193 22.054 132.969 22.2649 133.634 22.6868C134.303 23.1087 134.822 23.701 135.193 24.4638C135.568 25.2266 135.756 26.1193 135.756 27.142C135.756 28.1562 135.568 29.0426 135.193 29.8011C134.822 30.5597 134.303 31.1499 133.634 31.5717C132.969 31.9936 132.193 32.2045 131.307 32.2045ZM131.307 30.8494C131.98 30.8494 132.534 30.6768 132.969 30.3317C133.403 29.9865 133.725 29.5327 133.934 28.9702C134.143 28.4077 134.247 27.7983 134.247 27.142C134.247 26.4858 134.143 25.8743 133.934 25.3075C133.725 24.7408 133.403 24.2827 132.969 23.9332C132.534 23.5838 131.98 23.4091 131.307 23.4091C130.634 23.4091 130.08 23.5838 129.645 23.9332C129.21 24.2827 128.888 24.7408 128.68 25.3075C128.471 25.8743 128.366 26.4858 128.366 27.142C128.366 27.7983 128.471 28.4077 128.68 28.9702C128.888 29.5327 129.21 29.9865 129.645 30.3317C130.08 30.6768 130.634 30.8494 131.307 30.8494ZM142.047 32.2045C141.127 32.2045 140.334 31.9872 139.669 31.5526C139.004 31.1179 138.493 30.5192 138.135 29.7564C137.777 28.9936 137.598 28.1222 137.598 27.142C137.598 26.1449 137.781 25.2649 138.148 24.5021C138.519 23.7351 139.034 23.1364 139.695 22.706C140.36 22.2713 141.135 22.054 142.021 22.054C142.712 22.054 143.334 22.1818 143.888 22.4375C144.442 22.6932 144.896 23.0511 145.249 23.5114C145.603 23.9716 145.823 24.5085 145.908 25.1222H144.399C144.284 24.6747 144.029 24.2784 143.632 23.9332C143.24 23.5838 142.712 23.4091 142.047 23.4091C141.459 23.4091 140.943 23.5625 140.5 23.8693C140.061 24.1719 139.718 24.6001 139.471 25.1541C139.228 25.7038 139.107 26.3494 139.107 27.0909C139.107 27.8494 139.226 28.5099 139.465 29.0724C139.708 29.6349 140.048 30.0717 140.487 30.3828C140.931 30.6939 141.45 30.8494 142.047 30.8494C142.439 30.8494 142.795 30.7812 143.115 30.6449C143.434 30.5085 143.705 30.3125 143.926 30.0568C144.148 29.8011 144.306 29.4943 144.399 29.1364H145.908C145.823 29.7159 145.612 30.2379 145.275 30.7024C144.943 31.1626 144.502 31.5291 143.952 31.8018C143.406 32.0703 142.771 32.2045 142.047 32.2045ZM154.301 27.9858V22.1818H155.809V32H154.301V30.3381H154.198C153.968 30.8366 153.61 31.2607 153.124 31.6101C152.639 31.9553 152.025 32.1278 151.284 32.1278C150.67 32.1278 150.124 31.9936 149.647 31.7251C149.17 31.4524 148.795 31.0433 148.522 30.4979C148.249 29.9482 148.113 29.2557 148.113 28.4205V22.1818H149.622V28.3182C149.622 29.0341 149.822 29.6051 150.222 30.0312C150.627 30.4574 151.143 30.6705 151.769 30.6705C152.144 30.6705 152.526 30.5746 152.914 30.3828C153.306 30.1911 153.634 29.897 153.898 29.5007C154.166 29.1044 154.301 28.5994 154.301 27.9858ZM158.572 32V22.1818H160.029V23.7159H160.157C160.362 23.1918 160.692 22.7848 161.148 22.495C161.604 22.201 162.152 22.054 162.791 22.054C163.439 22.054 163.978 22.201 164.408 22.495C164.843 22.7848 165.181 23.1918 165.424 23.7159H165.527C165.778 23.2088 166.155 22.8061 166.658 22.5078C167.161 22.2053 167.764 22.054 168.467 22.054C169.345 22.054 170.063 22.3288 170.621 22.8786C171.179 23.424 171.458 24.2741 171.458 25.429V32H169.95V25.429C169.95 24.7045 169.752 24.1868 169.355 23.8757C168.959 23.5646 168.493 23.4091 167.956 23.4091C167.265 23.4091 166.73 23.6179 166.351 24.0355C165.972 24.4489 165.782 24.973 165.782 25.608V32H164.248V25.2756C164.248 24.7173 164.067 24.2678 163.705 23.9268C163.343 23.5817 162.876 23.4091 162.305 23.4091C161.913 23.4091 161.547 23.5135 161.206 23.7223C160.869 23.9311 160.596 24.2209 160.387 24.5916C160.183 24.9581 160.081 25.3821 160.081 25.8636V32H158.572ZM178.333 32.2045C177.387 32.2045 176.571 31.9957 175.885 31.5781C175.203 31.1562 174.677 30.5682 174.306 29.8139C173.94 29.0554 173.756 28.1733 173.756 27.1676C173.756 26.1619 173.94 25.2756 174.306 24.5085C174.677 23.7372 175.192 23.1364 175.853 22.706C176.518 22.2713 177.293 22.054 178.18 22.054C178.691 22.054 179.196 22.1392 179.695 22.3097C180.193 22.4801 180.647 22.7571 181.056 23.1406C181.465 23.5199 181.791 24.0227 182.034 24.6491C182.277 25.2756 182.398 26.0469 182.398 26.9631V27.6023H174.83V26.2983H180.864C180.864 25.7443 180.754 25.25 180.532 24.8153C180.315 24.3807 180.004 24.0376 179.599 23.7862C179.198 23.5348 178.725 23.4091 178.18 23.4091C177.579 23.4091 177.059 23.5582 176.62 23.8565C176.185 24.1506 175.851 24.5341 175.616 25.0071C175.382 25.4801 175.265 25.9872 175.265 26.5284V27.3977C175.265 28.1392 175.393 28.7678 175.648 29.2834C175.908 29.7947 176.268 30.1847 176.729 30.4531C177.189 30.7173 177.724 30.8494 178.333 30.8494C178.729 30.8494 179.087 30.794 179.407 30.6832C179.731 30.5682 180.01 30.3977 180.244 30.1719C180.479 29.9418 180.66 29.6562 180.788 29.3153L182.245 29.7244C182.092 30.2188 181.834 30.6534 181.472 31.0284C181.109 31.3991 180.662 31.6889 180.129 31.8977C179.597 32.1023 178.998 32.2045 178.333 32.2045ZM186.202 26.0938V32H184.693V22.1818H186.151V23.7159H186.278C186.509 23.2173 186.858 22.8168 187.327 22.5142C187.795 22.2074 188.401 22.054 189.142 22.054C189.807 22.054 190.388 22.1903 190.887 22.4631C191.386 22.7315 191.773 23.1406 192.05 23.6903C192.327 24.2358 192.466 24.9261 192.466 25.7614V32H190.957V25.8636C190.957 25.0923 190.757 24.4915 190.357 24.0611C189.956 23.6264 189.406 23.4091 188.707 23.4091C188.226 23.4091 187.795 23.5135 187.416 23.7223C187.041 23.9311 186.745 24.2358 186.528 24.6364C186.31 25.0369 186.202 25.5227 186.202 26.0938ZM199.492 22.1818V23.4602H194.404V22.1818H199.492ZM195.887 19.8295H197.396V29.1875C197.396 29.6136 197.458 29.9332 197.581 30.1463C197.709 30.3551 197.871 30.4957 198.067 30.5682C198.267 30.6364 198.478 30.6705 198.7 30.6705C198.866 30.6705 199.002 30.6619 199.109 30.6449C199.215 30.6236 199.301 30.6065 199.365 30.5938L199.671 31.9489C199.569 31.9872 199.426 32.0256 199.243 32.0639C199.06 32.1065 198.828 32.1278 198.546 32.1278C198.12 32.1278 197.703 32.0362 197.294 31.853C196.889 31.6697 196.552 31.3906 196.284 31.0156C196.019 30.6406 195.887 30.1676 195.887 29.5966V19.8295ZM204.651 32.2301C204.029 32.2301 203.464 32.1129 202.957 31.8786C202.45 31.6399 202.047 31.2969 201.749 30.8494C201.45 30.3977 201.301 29.8523 201.301 29.2131C201.301 28.6506 201.412 28.1946 201.634 27.8452C201.855 27.4915 202.151 27.2145 202.522 27.0142C202.893 26.8139 203.302 26.6648 203.749 26.5668C204.201 26.4645 204.655 26.3835 205.111 26.3239C205.708 26.2472 206.191 26.1896 206.562 26.1513C206.937 26.1087 207.21 26.0384 207.38 25.9403C207.555 25.8423 207.642 25.6719 207.642 25.429V25.3778C207.642 24.7472 207.47 24.2571 207.124 23.9077C206.784 23.5582 206.266 23.3835 205.571 23.3835C204.851 23.3835 204.286 23.5412 203.877 23.8565C203.468 24.1719 203.181 24.5085 203.014 24.8665L201.583 24.3551C201.838 23.7585 202.179 23.294 202.605 22.9616C203.036 22.625 203.504 22.3906 204.012 22.2585C204.523 22.1222 205.026 22.054 205.52 22.054C205.835 22.054 206.198 22.0923 206.607 22.169C207.02 22.2415 207.419 22.3928 207.802 22.6229C208.19 22.853 208.512 23.2003 208.767 23.6648C209.023 24.1293 209.151 24.7514 209.151 25.5312V32H207.642V30.6705H207.566C207.463 30.8835 207.293 31.1115 207.054 31.3544C206.816 31.5973 206.498 31.804 206.102 31.9744C205.705 32.1449 205.222 32.2301 204.651 32.2301ZM204.881 30.875C205.477 30.875 205.98 30.7578 206.389 30.5234C206.803 30.2891 207.114 29.9865 207.323 29.6158C207.536 29.245 207.642 28.8551 207.642 28.446V27.0653C207.578 27.142 207.438 27.2124 207.22 27.2763C207.007 27.3359 206.76 27.3892 206.479 27.4361C206.202 27.4787 205.931 27.517 205.667 27.5511C205.407 27.581 205.196 27.6065 205.034 27.6278C204.642 27.679 204.276 27.7621 203.935 27.8771C203.598 27.9879 203.325 28.1562 203.117 28.3821C202.912 28.6037 202.81 28.9062 202.81 29.2898C202.81 29.8139 203.004 30.2102 203.392 30.4787C203.784 30.7429 204.28 30.875 204.881 30.875ZM216.174 22.1818V23.4602H211.086V22.1818H216.174ZM212.569 19.8295H214.077V29.1875C214.077 29.6136 214.139 29.9332 214.263 30.1463C214.391 30.3551 214.553 30.4957 214.749 30.5682C214.949 30.6364 215.16 30.6705 215.381 30.6705C215.548 30.6705 215.684 30.6619 215.79 30.6449C215.897 30.6236 215.982 30.6065 216.046 30.5938L216.353 31.9489C216.251 31.9872 216.108 32.0256 215.925 32.0639C215.741 32.1065 215.509 32.1278 215.228 32.1278C214.802 32.1278 214.384 32.0362 213.975 31.853C213.57 31.6697 213.234 31.3906 212.965 31.0156C212.701 30.6406 212.569 30.1676 212.569 29.5966V19.8295ZM218.443 32V22.1818H219.952V32H218.443ZM219.21 20.5455C218.916 20.5455 218.663 20.4453 218.45 20.245C218.241 20.0447 218.136 19.804 218.136 19.5227C218.136 19.2415 218.241 19.0007 218.45 18.8004C218.663 18.6001 218.916 18.5 219.21 18.5C219.504 18.5 219.756 18.6001 219.964 18.8004C220.178 19.0007 220.284 19.2415 220.284 19.5227C220.284 19.804 220.178 20.0447 219.964 20.245C219.756 20.4453 219.504 20.5455 219.21 20.5455ZM226.703 32.2045C225.817 32.2045 225.039 31.9936 224.37 31.5717C223.705 31.1499 223.186 30.5597 222.811 29.8011C222.44 29.0426 222.254 28.1562 222.254 27.142C222.254 26.1193 222.44 25.2266 222.811 24.4638C223.186 23.701 223.705 23.1087 224.37 22.6868C225.039 22.2649 225.817 22.054 226.703 22.054C227.59 22.054 228.365 22.2649 229.03 22.6868C229.699 23.1087 230.219 23.701 230.59 24.4638C230.965 25.2266 231.152 26.1193 231.152 27.142C231.152 28.1562 230.965 29.0426 230.59 29.8011C230.219 30.5597 229.699 31.1499 229.03 31.5717C228.365 31.9936 227.59 32.2045 226.703 32.2045ZM226.703 30.8494C227.377 30.8494 227.931 30.6768 228.365 30.3317C228.8 29.9865 229.122 29.5327 229.33 28.9702C229.539 28.4077 229.644 27.7983 229.644 27.142C229.644 26.4858 229.539 25.8743 229.33 25.3075C229.122 24.7408 228.8 24.2827 228.365 23.9332C227.931 23.5838 227.377 23.4091 226.703 23.4091C226.03 23.4091 225.476 23.5838 225.041 23.9332C224.607 24.2827 224.285 24.7408 224.076 25.3075C223.867 25.8743 223.763 26.4858 223.763 27.142C223.763 27.7983 223.867 28.4077 224.076 28.9702C224.285 29.5327 224.607 29.9865 225.041 30.3317C225.476 30.6768 226.03 30.8494 226.703 30.8494ZM234.963 26.0938V32H233.455V22.1818H234.912V23.7159H235.04C235.27 23.2173 235.62 22.8168 236.088 22.5142C236.557 22.2074 237.162 22.054 237.904 22.054C238.569 22.054 239.15 22.1903 239.649 22.4631C240.147 22.7315 240.535 23.1406 240.812 23.6903C241.089 24.2358 241.228 24.9261 241.228 25.7614V32H239.719V25.8636C239.719 25.0923 239.519 24.4915 239.118 24.0611C238.718 23.6264 238.168 23.4091 237.469 23.4091C236.988 23.4091 236.557 23.5135 236.178 23.7223C235.803 23.9311 235.507 24.2358 235.289 24.6364C235.072 25.0369 234.963 25.5227 234.963 26.0938Z" fill="#D0D0D0"/>
<line x1="100.5" y1="9" x2="100.5" y2="42" stroke="#D0D0D0"/>
</g>
<defs>
<clipPath id="clip0_219_7">
<rect width="270" height="52" fill="white"/>
</clipPath>
</defs>
</svg>
