<svg width="17" height="17" viewBox="0 0 17 17" fill="none" xmlns="http://www.w3.org/2000/svg">
<path d="M7.13274 14.5229C7.13272 14.419 7.10986 14.3164 7.06577 14.2223C7.02168 14.1283 6.95744 14.0451 6.87761 13.9786C6.79777 13.9121 6.7043 13.864 6.6038 13.8377C6.50331 13.8114 6.39826 13.8075 6.29609 13.8263C5.36883 13.9965 4.19807 14.0221 3.88679 13.1477C3.61536 12.4706 3.16575 11.8795 2.58564 11.4371C2.54425 11.4146 2.5048 11.3887 2.4677 11.3596C2.41693 11.2257 2.32675 11.1103 2.20907 11.0287C2.09138 10.9471 1.95171 10.903 1.80848 10.9024H1.80502C1.61774 10.9023 1.43806 10.9765 1.3053 11.1086C1.17255 11.2407 1.09754 11.42 1.09669 11.6073C1.09392 12.1849 1.67115 12.5549 1.90532 12.6802C2.18146 12.9576 2.40339 13.2842 2.5597 13.643C2.81772 14.368 3.56755 15.4678 5.72299 15.326C5.7237 15.3509 5.72437 15.3745 5.72472 15.3959L5.72783 15.5854C5.72783 15.7733 5.80246 15.9535 5.9353 16.0863C6.06813 16.2191 6.2483 16.2938 6.43616 16.2938C6.62402 16.2938 6.80419 16.2191 6.93703 16.0863C7.06987 15.9535 7.1445 15.7733 7.1445 15.5854L7.14104 15.3599C7.13758 15.2257 7.13274 15.0313 7.13274 14.5229ZM14.6885 3.80864C14.711 3.7201 14.7332 3.62188 14.7525 3.5112C14.8671 2.72183 14.7672 1.91617 14.4634 1.17866C14.425 1.08251 14.3661 0.995914 14.2908 0.924936C14.2154 0.853958 14.1255 0.800318 14.0272 0.767776C13.7751 0.682691 12.844 0.515291 11.0635 1.65319C9.58348 1.3049 8.0428 1.3049 6.56276 1.65319C4.7895 0.531958 3.86327 0.684108 3.61355 0.764348C3.51287 0.795572 3.42046 0.848928 3.34308 0.920506C3.26569 0.992084 3.20531 1.08007 3.16635 1.17801C2.85631 1.92968 2.75753 2.75177 2.88066 3.55549C2.89796 3.64611 2.91663 3.72981 2.936 3.80659C2.3492 4.58819 2.03664 5.54156 2.04678 6.51887C2.04487 6.73692 2.05492 6.95491 2.07687 7.17186C2.31346 10.432 4.43846 11.4108 5.91909 11.747C5.88832 11.8355 5.8603 11.9303 5.8354 12.0306C5.79101 12.2128 5.82071 12.4053 5.91799 12.5656C6.01526 12.726 6.17217 12.8413 6.3543 12.8862C6.53643 12.931 6.72893 12.9018 6.88957 12.805C7.05022 12.7082 7.1659 12.5516 7.21125 12.3695C7.25632 12.1335 7.37184 11.9167 7.54259 11.7477C7.64584 11.6573 7.72059 11.5388 7.75775 11.4067C7.79492 11.2747 7.79289 11.1346 7.75193 11.0036C7.71096 10.8727 7.63281 10.7565 7.527 10.6691C7.42119 10.5817 7.29226 10.527 7.15592 10.5115C4.70926 10.2321 3.6471 9.23531 3.48731 7.04182C3.46961 6.86809 3.46165 6.6935 3.46345 6.51888C3.45209 5.82234 3.6822 5.14335 4.11471 4.59725C4.15817 4.54031 4.20446 4.4856 4.25341 4.4333C4.34013 4.33626 4.39844 4.2172 4.42193 4.0892C4.44542 3.96119 4.43319 3.82919 4.38657 3.70768C4.33878 3.57984 4.30199 3.44817 4.27659 3.31408C4.21888 2.93279 4.23781 2.54383 4.33226 2.16995C4.9479 2.34383 5.52731 2.62686 6.04289 3.00556C6.12815 3.06235 6.22463 3.10014 6.32578 3.11637C6.42693 3.1326 6.53038 3.1269 6.62913 3.09964C8.06075 2.71112 9.57008 2.71136 11.0016 3.10035C11.1009 3.12758 11.2049 3.13296 11.3064 3.11612C11.408 3.09928 11.5047 3.06063 11.5899 3.00282C12.1031 2.62254 12.68 2.33698 13.2936 2.15959C13.3877 2.5245 13.4087 2.90438 13.3555 3.27743C13.3299 3.42443 13.2898 3.56855 13.2359 3.70769C13.1892 3.8292 13.177 3.96121 13.2005 4.08921C13.224 4.21722 13.2823 4.33628 13.369 4.43332C13.4237 4.49488 13.4783 4.56128 13.5274 4.62354C13.9569 5.1604 14.1831 5.83158 14.1663 6.51887C14.1676 6.70276 14.1587 6.88658 14.1396 7.06948C13.9837 9.23391 12.9173 10.2314 10.4593 10.5115C10.3229 10.5271 10.194 10.5819 10.0882 10.6693C9.98235 10.7568 9.90424 10.8731 9.86331 11.0041C9.82239 11.1352 9.82041 11.2752 9.85763 11.4074C9.89484 11.5395 9.96965 11.658 10.0729 11.7484C10.2491 11.9219 10.3648 12.1474 10.4032 12.3917C10.4511 12.5813 10.4731 12.7765 10.4686 12.972V14.6253C10.4617 15.0839 10.4617 15.4277 10.4617 15.5854C10.4617 15.7733 10.5363 15.9534 10.6692 16.0863C10.802 16.2191 10.9822 16.2937 11.17 16.2937C11.3579 16.2937 11.538 16.2191 11.6709 16.0863C11.8037 15.9534 11.8784 15.7733 11.8784 15.5854C11.8784 15.4318 11.8784 15.095 11.8853 14.6363V12.972C11.891 12.6588 11.8541 12.3463 11.7756 12.043C11.7532 11.9435 11.7257 11.8451 11.6933 11.7484C12.7709 11.5694 13.7499 11.0138 14.4563 10.1806C15.1626 9.34731 15.5503 8.29047 15.5504 7.19815C15.5738 6.9725 15.5846 6.74572 15.5829 6.51887C15.5987 5.5405 15.2835 4.58549 14.6885 3.80866L14.6885 3.80864Z" fill="#C4C4C4"/>
</svg>
