<svg width="1200" height="239" viewBox="0 0 1200 239" fill="none" xmlns="http://www.w3.org/2000/svg">
<path d="M451.4 101.6C447.933 101.6 444.833 100.933 442.1 99.6C439.433 98.2667 437.333 96.4 435.8 94C434.267 91.6 433.5 88.8667 433.5 85.8C433.5 80.8667 435.167 76.9667 438.5 74.1C441.9 71.1667 446.833 69.4333 453.3 68.9L473 67.2V78L455 79.5C452.133 79.7667 450.1 80.3667 448.9 81.3C447.767 82.2333 447.2 83.4333 447.2 84.9C447.2 86.3667 447.9 87.5667 449.3 88.5C450.7 89.3667 452.467 89.8 454.6 89.8C456.933 89.8 459.033 89.2 460.9 88C462.833 86.8 464.367 85.2667 465.5 83.4C466.633 81.4667 467.2 79.4333 467.2 77.3V69C467.2 66.1333 466.2 63.7667 464.2 61.9C462.2 60.0333 459.667 59.1 456.6 59.1C453.733 59.1 451.433 59.8333 449.7 61.3C447.967 62.7 446.933 64.2667 446.6 66H445.5L434.1 63.6C435.1 59.0667 437.567 55.2667 441.5 52.2C445.5 49.1333 450.533 47.6 456.6 47.6C463.933 47.6 469.7 49.6667 473.9 53.8C478.167 57.9333 480.3 63.7667 480.3 71.3V100H468.6V85.2H473.5C472.7 88.1333 471.233 90.8667 469.1 93.4C467.033 95.8667 464.5 97.8667 461.5 99.4C458.5 100.867 455.133 101.6 451.4 101.6ZM491.762 100V49.2H504.262V60.4L502.562 58.5C503.828 56.1667 505.295 54.2 506.962 52.6C508.628 51 510.595 49.7667 512.862 48.9C515.195 48.0333 517.895 47.6 520.962 47.6C525.028 47.6 528.728 48.7333 532.062 51C535.395 53.2 537.695 56.5333 538.962 61L535.062 60.7C536.328 57.9 537.995 55.5333 540.062 53.6C542.195 51.6667 544.595 50.2 547.262 49.2C549.995 48.1333 552.828 47.6 555.762 47.6C559.162 47.6 562.295 48.4 565.162 50C568.095 51.5333 570.428 53.8333 572.162 56.9C573.962 59.9667 574.862 63.8 574.862 68.4V100H561.362V71.7C561.362 69.1 560.962 66.9 560.162 65.1C559.428 63.3 558.362 61.9333 556.962 61C555.628 60.0667 553.995 59.6 552.062 59.6C550.528 59.6 548.828 60.0333 546.962 60.9C545.095 61.7667 543.462 63.3333 542.062 65.6C540.728 67.8 540.062 71.0333 540.062 75.3V100H526.562V71.7C526.562 69.1 526.162 66.9 525.362 65.1C524.628 63.3 523.562 61.9333 522.162 61C520.828 60.0667 519.195 59.6 517.262 59.6C515.728 59.6 514.028 60.0333 512.162 60.9C510.295 61.7667 508.662 63.3333 507.262 65.6C505.928 67.8 505.262 71.0333 505.262 75.3V100H491.762ZM610.791 101.6C605.457 101.6 600.757 100.467 596.691 98.2C592.691 95.9333 589.557 92.7667 587.291 88.7C585.024 84.6333 583.891 79.9333 583.891 74.6C583.891 69.2667 584.991 64.5667 587.191 60.5C589.457 56.4333 592.557 53.2667 596.491 51C600.424 48.7333 604.991 47.6 610.191 47.6C615.324 47.6 619.791 48.7667 623.591 51.1C627.391 53.4333 630.357 56.7 632.491 60.9C634.624 65.1 635.691 70 635.691 75.6V78L634.191 79.5H589.891V68.8H630.191L622.691 71.5C622.691 69.0333 622.124 66.8667 620.991 65C619.924 63.1333 618.457 61.7 616.591 60.7C614.791 59.6333 612.757 59.1 610.491 59.1C607.957 59.1 605.691 59.6667 603.691 60.8C601.691 61.8667 600.124 63.3667 598.991 65.3C597.924 67.1667 597.391 69.3333 597.391 71.8V77.1C597.391 79.4333 597.991 81.6 599.191 83.6C600.457 85.5333 602.091 87.1 604.091 88.3C606.157 89.5 608.391 90.1 610.791 90.1C612.924 90.1 614.991 89.4667 616.991 88.2C618.991 86.9333 620.557 85.2333 621.691 83.1H622.891L633.691 87.6C631.624 92.1333 628.591 95.6 624.591 98C620.657 100.4 616.057 101.6 610.791 101.6ZM645.68 100V28L658.88 26.4L659.18 27.2V100H645.68ZM671.645 100V49.2H685.145V100H671.645ZM678.445 42.8C676.178 42.8 674.245 42 672.645 40.4C671.045 38.8 670.245 36.8667 670.245 34.6C670.245 32.4 671.045 30.5 672.645 28.9C674.245 27.3 676.178 26.5 678.445 26.5C680.645 26.5 682.545 27.3 684.145 28.9C685.745 30.5 686.545 32.4 686.545 34.6C686.545 36.8667 685.745 38.8 684.145 40.4C682.545 42 680.645 42.8 678.445 42.8ZM721.533 101.6C716.199 101.6 711.499 100.467 707.433 98.2C703.433 95.9333 700.299 92.7667 698.033 88.7C695.766 84.6333 694.633 79.9333 694.633 74.6C694.633 69.2667 695.733 64.5667 697.933 60.5C700.199 56.4333 703.299 53.2667 707.233 51C711.166 48.7333 715.733 47.6 720.933 47.6C726.066 47.6 730.533 48.7667 734.333 51.1C738.133 53.4333 741.099 56.7 743.233 60.9C745.366 65.1 746.433 70 746.433 75.6V78L744.933 79.5H700.633V68.8H740.933L733.433 71.5C733.433 69.0333 732.866 66.8667 731.733 65C730.666 63.1333 729.199 61.7 727.333 60.7C725.533 59.6333 723.499 59.1 721.233 59.1C718.699 59.1 716.433 59.6667 714.433 60.8C712.433 61.8667 710.866 63.3667 709.733 65.3C708.666 67.1667 708.133 69.3333 708.133 71.8V77.1C708.133 79.4333 708.733 81.6 709.933 83.6C711.199 85.5333 712.833 87.1 714.833 88.3C716.899 89.5 719.133 90.1 721.533 90.1C723.666 90.1 725.733 89.4667 727.733 88.2C729.733 86.9333 731.299 85.2333 732.433 83.1H733.633L744.433 87.6C742.366 92.1333 739.333 95.6 735.333 98C731.399 100.4 726.799 101.6 721.533 101.6ZM762.545 101C760.212 101 758.179 100.167 756.445 98.5C754.779 96.8333 753.945 94.8333 753.945 92.5C753.945 90.1667 754.779 88.2 756.445 86.6C758.179 84.9333 760.212 84.1 762.545 84.1C764.812 84.1 766.779 84.9333 768.445 86.6C770.112 88.2 770.945 90.1667 770.945 92.5C770.945 94.8333 770.112 96.8333 768.445 98.5C766.779 100.167 764.812 101 762.545 101Z" fill="black"/>
</svg>
