<svg width="1200" height="363" viewBox="0 0 1200 363" fill="none" xmlns="http://www.w3.org/2000/svg">
<path d="M451.4 101.6C447.933 101.6 444.833 100.933 442.1 99.6C439.433 98.2667 437.333 96.4 435.8 94C434.267 91.6 433.5 88.8667 433.5 85.8C433.5 80.8667 435.167 76.9667 438.5 74.1C441.9 71.1667 446.833 69.4333 453.3 68.9L473 67.2V78L455 79.5C452.133 79.7667 450.1 80.3667 448.9 81.3C447.767 82.2333 447.2 83.4333 447.2 84.9C447.2 86.3667 447.9 87.5667 449.3 88.5C450.7 89.3667 452.467 89.8 454.6 89.8C456.933 89.8 459.033 89.2 460.9 88C462.833 86.8 464.367 85.2667 465.5 83.4C466.633 81.4667 467.2 79.4333 467.2 77.3V69C467.2 66.1333 466.2 63.7667 464.2 61.9C462.2 60.0333 459.667 59.1 456.6 59.1C453.733 59.1 451.433 59.8333 449.7 61.3C447.967 62.7 446.933 64.2667 446.6 66H445.5L434.1 63.6C435.1 59.0667 437.567 55.2667 441.5 52.2C445.5 49.1333 450.533 47.6 456.6 47.6C463.933 47.6 469.7 49.6667 473.9 53.8C478.167 57.9333 480.3 63.7667 480.3 71.3V100H468.6V85.2H473.5C472.7 88.1333 471.233 90.8667 469.1 93.4C467.033 95.8667 464.5 97.8667 461.5 99.4C458.5 100.867 455.133 101.6 451.4 101.6ZM491.762 100V49.2H504.262V60.4L502.562 58.5C503.828 56.1667 505.295 54.2 506.962 52.6C508.628 51 510.595 49.7667 512.862 48.9C515.195 48.0333 517.895 47.6 520.962 47.6C525.028 47.6 528.728 48.7333 532.062 51C535.395 53.2 537.695 56.5333 538.962 61L535.062 60.7C536.328 57.9 537.995 55.5333 540.062 53.6C542.195 51.6667 544.595 50.2 547.262 49.2C549.995 48.1333 552.828 47.6 555.762 47.6C559.162 47.6 562.295 48.4 565.162 50C568.095 51.5333 570.428 53.8333 572.162 56.9C573.962 59.9667 574.862 63.8 574.862 68.4V100H561.362V71.7C561.362 69.1 560.962 66.9 560.162 65.1C559.428 63.3 558.362 61.9333 556.962 61C555.628 60.0667 553.995 59.6 552.062 59.6C550.528 59.6 548.828 60.0333 546.962 60.9C545.095 61.7667 543.462 63.3333 542.062 65.6C540.728 67.8 540.062 71.0333 540.062 75.3V100H526.562V71.7C526.562 69.1 526.162 66.9 525.362 65.1C524.628 63.3 523.562 61.9333 522.162 61C520.828 60.0667 519.195 59.6 517.262 59.6C515.728 59.6 514.028 60.0333 512.162 60.9C510.295 61.7667 508.662 63.3333 507.262 65.6C505.928 67.8 505.262 71.0333 505.262 75.3V100H491.762ZM610.791 101.6C605.457 101.6 600.757 100.467 596.691 98.2C592.691 95.9333 589.557 92.7667 587.291 88.7C585.024 84.6333 583.891 79.9333 583.891 74.6C583.891 69.2667 584.991 64.5667 587.191 60.5C589.457 56.4333 592.557 53.2667 596.491 51C600.424 48.7333 604.991 47.6 610.191 47.6C615.324 47.6 619.791 48.7667 623.591 51.1C627.391 53.4333 630.357 56.7 632.491 60.9C634.624 65.1 635.691 70 635.691 75.6V78L634.191 79.5H589.891V68.8H630.191L622.691 71.5C622.691 69.0333 622.124 66.8667 620.991 65C619.924 63.1333 618.457 61.7 616.591 60.7C614.791 59.6333 612.757 59.1 610.491 59.1C607.957 59.1 605.691 59.6667 603.691 60.8C601.691 61.8667 600.124 63.3667 598.991 65.3C597.924 67.1667 597.391 69.3333 597.391 71.8V77.1C597.391 79.4333 597.991 81.6 599.191 83.6C600.457 85.5333 602.091 87.1 604.091 88.3C606.157 89.5 608.391 90.1 610.791 90.1C612.924 90.1 614.991 89.4667 616.991 88.2C618.991 86.9333 620.557 85.2333 621.691 83.1H622.891L633.691 87.6C631.624 92.1333 628.591 95.6 624.591 98C620.657 100.4 616.057 101.6 610.791 101.6ZM645.68 100V28L658.88 26.4L659.18 27.2V100H645.68ZM671.645 100V49.2H685.145V100H671.645ZM678.445 42.8C676.178 42.8 674.245 42 672.645 40.4C671.045 38.8 670.245 36.8667 670.245 34.6C670.245 32.4 671.045 30.5 672.645 28.9C674.245 27.3 676.178 26.5 678.445 26.5C680.645 26.5 682.545 27.3 684.145 28.9C685.745 30.5 686.545 32.4 686.545 34.6C686.545 36.8667 685.745 38.8 684.145 40.4C682.545 42 680.645 42.8 678.445 42.8ZM721.533 101.6C716.199 101.6 711.499 100.467 707.433 98.2C703.433 95.9333 700.299 92.7667 698.033 88.7C695.766 84.6333 694.633 79.9333 694.633 74.6C694.633 69.2667 695.733 64.5667 697.933 60.5C700.199 56.4333 703.299 53.2667 707.233 51C711.166 48.7333 715.733 47.6 720.933 47.6C726.066 47.6 730.533 48.7667 734.333 51.1C738.133 53.4333 741.099 56.7 743.233 60.9C745.366 65.1 746.433 70 746.433 75.6V78L744.933 79.5H700.633V68.8H740.933L733.433 71.5C733.433 69.0333 732.866 66.8667 731.733 65C730.666 63.1333 729.199 61.7 727.333 60.7C725.533 59.6333 723.499 59.1 721.233 59.1C718.699 59.1 716.433 59.6667 714.433 60.8C712.433 61.8667 710.866 63.3667 709.733 65.3C708.666 67.1667 708.133 69.3333 708.133 71.8V77.1C708.133 79.4333 708.733 81.6 709.933 83.6C711.199 85.5333 712.833 87.1 714.833 88.3C716.899 89.5 719.133 90.1 721.533 90.1C723.666 90.1 725.733 89.4667 727.733 88.2C729.733 86.9333 731.299 85.2333 732.433 83.1H733.633L744.433 87.6C742.366 92.1333 739.333 95.6 735.333 98C731.399 100.4 726.799 101.6 721.533 101.6ZM762.545 101C760.212 101 758.179 100.167 756.445 98.5C754.779 96.8333 753.945 94.8333 753.945 92.5C753.945 90.1667 754.779 88.2 756.445 86.6C758.179 84.9333 760.212 84.1 762.545 84.1C764.812 84.1 766.779 84.9333 768.445 86.6C770.112 88.2 770.945 90.1667 770.945 92.5C770.945 94.8333 770.112 96.8333 768.445 98.5C766.779 100.167 764.812 101 762.545 101Z" fill="black"/>
<path d="M278.999 227.333H272.599L274.732 225.2C274.999 224.933 274.999 224.533 274.732 224.267C274.465 224 274.065 224 273.799 224.267L270.465 227.6C270.465 227.6 270.332 227.733 270.332 227.867C270.332 228 270.332 228 270.332 228.133C270.332 228.267 270.332 228.267 270.332 228.4C270.332 228.533 270.465 228.533 270.465 228.667L273.799 232C273.932 231.867 274.199 232 274.332 232C274.465 232 274.732 231.867 274.865 231.867C275.132 231.6 275.132 231.2 274.865 230.933L272.732 228.8H278.999C279.399 228.8 279.665 228.533 279.665 228.133C279.665 227.733 279.399 227.333 278.999 227.333ZM295.532 227.467L292.199 224.133C291.932 223.867 291.532 223.867 291.265 224.133C290.999 224.4 290.999 224.8 291.265 225.067L293.399 227.2H286.999C286.599 227.2 286.332 227.467 286.332 227.867C286.332 228.267 286.599 228.533 286.999 228.533H293.399L291.265 230.667C291.132 230.8 291.132 230.933 291.132 231.2C291.132 231.6 291.399 231.867 291.799 231.867C291.932 231.867 292.199 231.733 292.332 231.733L295.665 228.4C295.665 228.4 295.799 228.267 295.799 228.133C295.799 228 295.799 228 295.799 227.867C295.799 227.733 295.799 227.733 295.799 227.6C295.532 227.6 295.532 227.6 295.532 227.467ZM277.532 217.2C278.599 216.4 279.399 215.2 279.399 213.733C279.265 211.333 277.399 209.333 274.999 209.333C272.599 209.333 270.732 211.333 270.732 213.6C270.732 215.067 271.399 216.267 272.599 217.067C270.065 218.133 268.332 220.533 268.332 223.333C268.332 223.733 268.599 224 268.999 224C269.399 224 269.665 223.733 269.665 223.333C269.665 220.4 272.065 218 274.999 218C277.932 218 280.332 220.4 280.332 223.333C280.332 223.733 280.599 224 280.999 224C281.399 224 281.665 223.733 281.665 223.333C281.665 220.533 279.932 218.133 277.532 217.2ZM274.999 216.667C273.399 216.667 272.065 215.333 272.065 213.733C272.065 212.133 273.399 210.667 274.999 210.667C276.599 210.667 277.932 212 277.932 213.6C277.932 215.333 276.599 216.667 274.999 216.667ZM293.532 217.2C294.599 216.4 295.399 215.2 295.399 213.733C295.265 211.333 293.399 209.333 290.999 209.333C288.599 209.333 286.732 211.333 286.732 213.6C286.732 215.067 287.399 216.267 288.599 217.067C286.199 218 284.465 220.4 284.465 223.2C284.465 223.6 284.732 223.867 285.132 223.867C285.532 223.867 285.799 223.6 285.799 223.2C285.799 220.267 288.199 217.867 291.132 217.867C294.065 217.867 296.465 220.267 296.465 223.2C296.465 223.6 296.732 223.867 297.132 223.867C297.532 223.867 297.799 223.6 297.799 223.2C297.665 220.533 295.932 218.133 293.532 217.2ZM290.999 216.667C289.399 216.667 288.065 215.333 288.065 213.733C288.065 212.133 289.399 210.667 290.999 210.667C292.599 210.667 293.932 212 293.932 213.6C293.932 215.333 292.599 216.667 290.999 216.667Z" fill="#6A6A6A"/>
<path d="M398.001 215.27L410.668 222.577C410.769 222.636 410.884 222.667 411.001 222.667C411.119 222.667 411.234 222.636 411.335 222.577L424.001 215.27C424.103 215.211 424.187 215.127 424.245 215.026C424.43 214.707 424.32 214.299 424.001 214.115L411.335 206.814C411.128 206.697 410.875 206.697 410.668 206.814L398.001 214.115C397.9 214.173 397.816 214.257 397.758 214.358C397.573 214.677 397.682 215.085 398.001 215.27ZM411.001 208.161L422.333 214.693L411.001 221.23L399.669 214.693L411.001 208.161ZM423.332 224.702L411.001 231.895L398.671 224.702C398.353 224.516 397.945 224.624 397.759 224.941C397.574 225.259 397.681 225.667 397.999 225.853L410.665 233.242C410.767 233.302 410.883 233.333 411.001 233.333C411.119 233.333 411.235 233.302 411.337 233.242L424.004 225.853C424.322 225.667 424.429 225.259 424.244 224.941C424.058 224.624 423.65 224.516 423.332 224.702ZM423.332 219.368L411.001 226.561L398.671 219.368C398.353 219.183 397.945 219.29 397.759 219.608C397.574 219.926 397.681 220.334 397.999 220.52L410.665 227.909C410.767 227.969 410.883 228 411.001 228C411.119 228 411.235 227.969 411.337 227.909L424.004 220.52C424.322 220.334 424.429 219.926 424.244 219.608C424.058 219.29 423.65 219.183 423.332 219.368Z" fill="#6A6A6A"/>
<path d="M549 206.667H531.667C531.666 206.667 531.666 206.667 531.666 206.667C531.298 206.667 531 206.965 531 207.333V213.333H527.667C527.666 213.333 527.666 213.333 527.666 213.333C527.298 213.334 527 213.632 527 214V220H523.667C523.666 220 523.666 220 523.666 220C523.298 220 523 220.299 523 220.667V232.667C523 232.667 523 232.667 523 232.667C523 233.035 523.299 233.334 523.667 233.333H535.667C535.667 233.333 535.667 233.333 535.667 233.333C536.035 233.333 536.334 233.035 536.333 232.667V229.333H542.333C542.334 229.333 542.334 229.333 542.334 229.333C542.702 229.333 543 229.035 543 228.667V225.333H549C549 225.333 549 225.333 549.001 225.333C549.369 225.333 549.667 225.035 549.667 224.667V207.333C549.667 207.333 549.667 207.333 549.667 207.333C549.666 206.965 549.368 206.666 549 206.667ZM535 228.667V228.667V232H524.333V221.333H527.667H535V228.667ZM541.667 224.667V224.667V228H536.333V220.667C536.333 220.666 536.333 220.666 536.333 220.666C536.333 220.298 536.035 220 535.667 220H528.333V214.667H531.667H541.667V224.667ZM548.333 224H543V214C543 214 543 214 543 213.999C543 213.631 542.701 213.333 542.333 213.333H532.333V208H548.333V224Z" fill="#6A6A6A"/>
<path d="M667.972 208.241C662.081 205.078 654.889 206.805 651.001 212V208.667C651.001 208.299 650.703 208 650.335 208C649.966 208 649.668 208.299 649.668 208.667V214.001C649.668 214.369 649.967 214.667 650.335 214.667H655.668C656.036 214.667 656.335 214.368 656.335 214C656.335 213.632 656.036 213.333 655.668 213.333H651.699C653.908 210.036 657.612 208.006 661.631 208C668.258 207.99 673.639 213.354 673.649 219.981C673.66 226.609 668.295 231.99 661.668 232C661.3 232 661.001 232.299 661.001 232.667C661.001 233.035 661.3 233.333 661.668 233.333C666.579 233.331 671.091 230.631 673.414 226.304C676.899 219.813 674.463 211.726 667.972 208.241ZM661.668 214.667C661.3 214.667 661.001 214.965 661.001 215.333V220.001C661.002 220.369 661.3 220.667 661.668 220.667H665.001C665.369 220.667 665.668 220.368 665.668 220C665.668 219.632 665.369 219.333 665.001 219.333H662.335V215.333C662.335 214.965 662.036 214.667 661.668 214.667Z" fill="#6A6A6A"/>
<path d="M789.666 219C789.114 219 788.666 219.448 788.666 220C788.666 220.552 789.114 221 789.666 221C790.219 221 790.666 220.552 790.666 220C790.666 219.448 790.219 219 789.666 219ZM785.666 219C785.114 219 784.666 219.448 784.666 220C784.666 220.552 785.114 221 785.666 221C786.219 221 786.666 220.552 786.666 220C786.666 219.448 786.219 219 785.666 219ZM793.666 219C793.114 219 792.666 219.448 792.666 220C792.666 220.552 793.114 221 793.666 221C794.219 221 794.666 220.552 794.666 220C794.666 219.448 794.219 219 793.666 219ZM799.553 211.054C794.613 205.593 786.181 205.171 780.72 210.112C775.259 215.053 774.838 223.485 779.778 228.945L776.528 232.195C776.403 232.32 776.333 232.49 776.333 232.667C776.333 233.035 776.632 233.333 777 233.333H789.666C792.972 233.333 796.16 232.105 798.612 229.887C804.072 224.946 804.494 216.514 799.553 211.054ZM789.666 232H778.609L781.181 229.428C781.181 229.428 781.181 229.428 781.181 229.428C781.441 229.168 781.441 228.746 781.181 228.486C778.931 226.236 777.667 223.185 777.666 220.003C777.666 213.376 783.037 208.003 789.664 208.003C796.29 208.002 801.663 213.373 801.664 220C801.664 226.627 796.293 231.999 789.666 232Z" fill="#6A6A6A"/>
<path d="M922.974 206.758C918 206.058 913.403 209.423 912.51 214.32C910.262 215.551 908.664 217.83 908.395 220.531C906.009 221.546 904.336 223.91 904.336 226.667C904.336 230.349 907.321 233.333 911.003 233.333C913.766 233.33 916.135 231.648 917.146 229.252C919.825 228.98 922.091 227.403 923.326 225.152C927.273 224.44 930.349 221.293 930.912 217.294C931.629 212.193 928.076 207.475 922.974 206.758ZM911.003 232C908.057 232 905.669 229.612 905.669 226.667C905.669 223.721 908.057 221.333 911.003 221.333C913.947 221.336 916.333 223.722 916.336 226.667C916.336 229.612 913.948 232 911.003 232ZM917.546 227.882C917.619 227.486 917.669 227.083 917.669 226.667C917.669 222.985 914.684 220 911.003 220C910.586 220 910.182 220.049 909.787 220.123C910.287 217.404 912.414 215.277 915.132 214.777C918.751 214.11 922.225 216.504 922.891 220.123C923.558 223.741 921.164 227.215 917.546 227.882ZM923.973 223.652C923.973 223.652 923.957 223.677 923.946 223.694C924.148 223.042 924.3 222.368 924.329 221.656C924.51 217.244 921.08 213.521 916.668 213.34C915.746 213.302 914.858 213.43 914.022 213.684C914.797 211.117 916.807 209.109 919.376 208.337C923.605 207.068 928.063 209.468 929.332 213.697C930.601 217.926 928.202 222.383 923.973 223.652Z" fill="#6A6A6A"/>
</svg>
