<svg width="137" height="28" viewBox="0 0 137 28" fill="none" xmlns="http://www.w3.org/2000/svg">
<g clip-path="url(#clip0_469_2)">
<rect width="137" height="28" fill="white"/>
<path d="M98.6 22.2C97.7067 22.2 96.9 21.98 96.18 21.54C95.4733 21.1 94.9133 20.4933 94.5 19.72C94.0867 18.9333 93.88 18.04 93.88 17.04C93.88 16.0267 94.0867 15.1333 94.5 14.36C94.9133 13.5867 95.4733 12.98 96.18 12.54C96.9 12.0867 97.7067 11.86 98.6 11.86C99.32 11.86 99.9733 12.0067 100.56 12.3C101.147 12.5933 101.647 13 102.06 13.52C102.473 14.04 102.773 14.6533 102.96 15.36V18.7C102.773 19.4067 102.473 20.0267 102.06 20.56C101.647 21.08 101.147 21.4867 100.56 21.78C99.9733 22.06 99.32 22.2 98.6 22.2ZM98.62 21.14C99.3533 21.14 99.9933 20.9667 100.54 20.62C101.1 20.2733 101.54 19.7933 101.86 19.18C102.18 18.5667 102.34 17.8533 102.34 17.04C102.34 16.2133 102.18 15.4933 101.86 14.88C101.54 14.2667 101.1 13.7867 100.54 13.44C99.9933 13.0933 99.3533 12.92 98.62 12.92C97.9267 12.92 97.3 13.0933 96.74 13.44C96.1933 13.7867 95.76 14.2667 95.44 14.88C95.1333 15.4933 94.98 16.2133 94.98 17.04C94.98 17.8533 95.1333 18.5667 95.44 19.18C95.76 19.7933 96.1933 20.2733 96.74 20.62C97.3 20.9667 97.9267 21.14 98.62 21.14ZM102.36 22V18.46L102.62 17.04L102.34 15.62V7.6L103.38 7.46L103.44 7.62V22H102.36ZM110.829 22.2C109.883 22.2 109.043 21.9867 108.309 21.56C107.589 21.12 107.023 20.5133 106.609 19.74C106.196 18.9667 105.989 18.0667 105.989 17.04C105.989 16.0133 106.196 15.1133 106.609 14.34C107.023 13.5533 107.589 12.9467 108.309 12.52C109.043 12.08 109.883 11.86 110.829 11.86C111.776 11.86 112.609 12.08 113.329 12.52C114.049 12.9467 114.616 13.5533 115.029 14.34C115.443 15.1133 115.649 16.0133 115.649 17.04C115.649 18.0533 115.443 18.9533 115.029 19.74C114.616 20.5133 114.049 21.12 113.329 21.56C112.609 21.9867 111.776 22.2 110.829 22.2ZM110.829 21.14C111.549 21.14 112.189 20.9733 112.749 20.64C113.309 20.2933 113.749 19.8133 114.069 19.2C114.389 18.5733 114.549 17.8533 114.549 17.04C114.549 16.2 114.389 15.48 114.069 14.88C113.749 14.2667 113.309 13.7867 112.749 13.44C112.189 13.0933 111.549 12.92 110.829 12.92C110.109 12.92 109.463 13.0933 108.889 13.44C108.329 13.7867 107.889 14.2667 107.569 14.88C107.249 15.48 107.089 16.2 107.089 17.04C107.089 17.8533 107.249 18.5733 107.569 19.2C107.889 19.8133 108.329 20.2933 108.889 20.64C109.463 20.9733 110.109 21.14 110.829 21.14ZM122.235 22.2C121.288 22.2 120.448 21.9867 119.715 21.56C118.995 21.12 118.428 20.5133 118.015 19.74C117.615 18.9533 117.415 18.0533 117.415 17.04C117.415 16.0133 117.615 15.1133 118.015 14.34C118.428 13.5533 118.995 12.9467 119.715 12.52C120.448 12.08 121.288 11.86 122.235 11.86C123.008 11.86 123.682 12 124.255 12.28C124.842 12.56 125.335 12.94 125.735 13.42C126.135 13.9 126.442 14.4467 126.655 15.06L125.755 15.34H125.535C125.268 14.6333 124.862 14.0533 124.315 13.6C123.768 13.1467 123.075 12.92 122.235 12.92C121.475 12.92 120.815 13.1 120.255 13.46C119.708 13.82 119.282 14.3067 118.975 14.92C118.668 15.5333 118.515 16.24 118.515 17.04C118.515 17.8133 118.668 18.5133 118.975 19.14C119.282 19.7667 119.708 20.26 120.255 20.62C120.815 20.9667 121.475 21.14 122.235 21.14C122.822 21.14 123.328 21.04 123.755 20.84C124.195 20.6267 124.568 20.34 124.875 19.98C125.195 19.62 125.442 19.2067 125.615 18.74H125.835L126.735 19C126.508 19.6267 126.188 20.1867 125.775 20.68C125.362 21.16 124.862 21.5333 124.275 21.8C123.702 22.0667 123.022 22.2 122.235 22.2ZM132.112 22.2C131.112 22.2 130.272 21.96 129.592 21.48C128.912 20.9867 128.465 20.2867 128.252 19.38L129.192 19.16L129.412 19.2C129.572 19.8133 129.905 20.2933 130.412 20.64C130.918 20.9733 131.525 21.14 132.232 21.14C132.952 21.14 133.552 20.9667 134.032 20.62C134.525 20.2733 134.772 19.8267 134.772 19.28C134.772 18.84 134.632 18.4867 134.352 18.22C134.072 17.9533 133.632 17.7467 133.032 17.6L131.212 17.2C130.318 17 129.658 16.6667 129.232 16.2C128.818 15.7333 128.612 15.1867 128.612 14.56C128.612 14.0267 128.752 13.56 129.032 13.16C129.325 12.76 129.725 12.4467 130.232 12.22C130.752 11.98 131.338 11.86 131.992 11.86C132.992 11.86 133.818 12.12 134.472 12.64C135.125 13.16 135.545 13.86 135.732 14.74L134.792 14.94L134.572 14.9C134.438 14.2467 134.118 13.7533 133.612 13.42C133.105 13.0867 132.545 12.92 131.932 12.92C131.305 12.92 130.778 13.0667 130.352 13.36C129.938 13.6533 129.732 14.0333 129.732 14.5C129.732 14.94 129.885 15.2933 130.192 15.56C130.512 15.8267 130.952 16.02 131.512 16.14L133.332 16.56C134.185 16.7467 134.825 17.0667 135.252 17.52C135.678 17.96 135.892 18.5133 135.892 19.18C135.892 19.7933 135.725 20.3267 135.392 20.78C135.072 21.2333 134.632 21.5867 134.072 21.84C133.512 22.08 132.858 22.2 132.112 22.2Z" fill="#C7C7C7"/>
<path d="M7.35 22.4C6.48333 22.4 5.70833 22.2333 5.025 21.9C4.35833 21.5667 3.83333 21.1 3.45 20.5C3.06667 19.9 2.875 19.2167 2.875 18.45C2.875 17.2167 3.29167 16.2417 4.125 15.525C4.975 14.7917 6.20833 14.3583 7.825 14.225L12.75 13.8V16.5L8.25 16.875C7.53333 16.9417 7.025 17.0917 6.725 17.325C6.44167 17.5583 6.3 17.8583 6.3 18.225C6.3 18.5917 6.475 18.8917 6.825 19.125C7.175 19.3417 7.61667 19.45 8.15 19.45C8.73333 19.45 9.25833 19.3 9.725 19C10.2083 18.7 10.5917 18.3167 10.875 17.85C11.1583 17.3667 11.3 16.8583 11.3 16.325V14.25C11.3 13.5333 11.05 12.9417 10.55 12.475C10.05 12.0083 9.41667 11.775 8.65 11.775C7.93333 11.775 7.35833 11.9583 6.925 12.325C6.49167 12.675 6.23333 13.0667 6.15 13.5H5.875L3.025 12.9C3.275 11.7667 3.89167 10.8167 4.875 10.05C5.875 9.28333 7.13333 8.9 8.65 8.9C10.4833 8.9 11.925 9.41667 12.975 10.45C14.0417 11.4833 14.575 12.9417 14.575 14.825V22H11.65V18.3H12.875C12.675 19.0333 12.3083 19.7167 11.775 20.35C11.2583 20.9667 10.625 21.4667 9.875 21.85C9.125 22.2167 8.28333 22.4 7.35 22.4ZM17.4404 22V9.3H20.5654V12.1L20.1404 11.625C20.4571 11.0417 20.8238 10.55 21.2404 10.15C21.6571 9.75 22.1488 9.44167 22.7154 9.225C23.2988 9.00833 23.9738 8.9 24.7404 8.9C25.7571 8.9 26.6821 9.18333 27.5154 9.75C28.3488 10.3 28.9238 11.1333 29.2404 12.25L28.2654 12.175C28.5821 11.475 28.9988 10.8833 29.5154 10.4C30.0488 9.91667 30.6488 9.55 31.3154 9.3C31.9988 9.03333 32.7071 8.9 33.4404 8.9C34.2904 8.9 35.0738 9.1 35.7904 9.5C36.5238 9.88333 37.1071 10.4583 37.5404 11.225C37.9904 11.9917 38.2154 12.95 38.2154 14.1V22H34.8404V14.925C34.8404 14.275 34.7404 13.725 34.5404 13.275C34.3571 12.825 34.0904 12.4833 33.7404 12.25C33.4071 12.0167 32.9988 11.9 32.5154 11.9C32.1321 11.9 31.7071 12.0083 31.2404 12.225C30.7738 12.4417 30.3654 12.8333 30.0154 13.4C29.6821 13.95 29.5154 14.7583 29.5154 15.825V22H26.1404V14.925C26.1404 14.275 26.0404 13.725 25.8404 13.275C25.6571 12.825 25.3904 12.4833 25.0404 12.25C24.7071 12.0167 24.2988 11.9 23.8154 11.9C23.4321 11.9 23.0071 12.0083 22.5404 12.225C22.0738 12.4417 21.6654 12.8333 21.3154 13.4C20.9821 13.95 20.8154 14.7583 20.8154 15.825V22H17.4404ZM47.1977 22.4C45.8643 22.4 44.6893 22.1167 43.6727 21.55C42.6727 20.9833 41.8893 20.1917 41.3227 19.175C40.756 18.1583 40.4727 16.9833 40.4727 15.65C40.4727 14.3167 40.7477 13.1417 41.2977 12.125C41.8643 11.1083 42.6393 10.3167 43.6227 9.75C44.606 9.18333 45.7477 8.9 47.0477 8.9C48.331 8.9 49.4477 9.19167 50.3977 9.775C51.3477 10.3583 52.0893 11.175 52.6227 12.225C53.156 13.275 53.4227 14.5 53.4227 15.9V16.5L53.0477 16.875H41.9727V14.2H52.0477L50.1727 14.875C50.1727 14.2583 50.031 13.7167 49.7477 13.25C49.481 12.7833 49.1143 12.425 48.6477 12.175C48.1977 11.9083 47.6893 11.775 47.1227 11.775C46.4893 11.775 45.9227 11.9167 45.4227 12.2C44.9227 12.4667 44.531 12.8417 44.2477 13.325C43.981 13.7917 43.8477 14.3333 43.8477 14.95V16.275C43.8477 16.8583 43.9977 17.4 44.2977 17.9C44.6143 18.3833 45.0227 18.775 45.5227 19.075C46.0393 19.375 46.5977 19.525 47.1977 19.525C47.731 19.525 48.2477 19.3667 48.7477 19.05C49.2477 18.7333 49.6393 18.3083 49.9227 17.775H50.2227L52.9227 18.9C52.406 20.0333 51.6477 20.9 50.6477 21.5C49.6643 22.1 48.5143 22.4 47.1977 22.4ZM55.9199 22V4L59.2199 3.6L59.2949 3.8V22H55.9199ZM62.4111 22V9.3H65.7861V22H62.4111ZM64.1111 7.7C63.5445 7.7 63.0611 7.5 62.6611 7.1C62.2611 6.7 62.0611 6.21667 62.0611 5.65C62.0611 5.1 62.2611 4.625 62.6611 4.225C63.0611 3.825 63.5445 3.625 64.1111 3.625C64.6611 3.625 65.1361 3.825 65.5361 4.225C65.9361 4.625 66.1361 5.1 66.1361 5.65C66.1361 6.21667 65.9361 6.7 65.5361 7.1C65.1361 7.5 64.6611 7.7 64.1111 7.7ZM74.8832 22.4C73.5499 22.4 72.3749 22.1167 71.3582 21.55C70.3582 20.9833 69.5749 20.1917 69.0082 19.175C68.4415 18.1583 68.1582 16.9833 68.1582 15.65C68.1582 14.3167 68.4332 13.1417 68.9832 12.125C69.5499 11.1083 70.3249 10.3167 71.3082 9.75C72.2915 9.18333 73.4332 8.9 74.7332 8.9C76.0165 8.9 77.1332 9.19167 78.0832 9.775C79.0332 10.3583 79.7749 11.175 80.3082 12.225C80.8415 13.275 81.1082 14.5 81.1082 15.9V16.5L80.7332 16.875H69.6582V14.2H79.7332L77.8582 14.875C77.8582 14.2583 77.7165 13.7167 77.4332 13.25C77.1665 12.7833 76.7999 12.425 76.3332 12.175C75.8832 11.9083 75.3749 11.775 74.8082 11.775C74.1749 11.775 73.6082 11.9167 73.1082 12.2C72.6082 12.4667 72.2165 12.8417 71.9332 13.325C71.6665 13.7917 71.5332 14.3333 71.5332 14.95V16.275C71.5332 16.8583 71.6832 17.4 71.9832 17.9C72.2999 18.3833 72.7082 18.775 73.2082 19.075C73.7249 19.375 74.2832 19.525 74.8832 19.525C75.4165 19.525 75.9332 19.3667 76.4332 19.05C76.9332 18.7333 77.3249 18.3083 77.6082 17.775H77.9082L80.6082 18.9C80.0915 20.0333 79.3332 20.9 78.3332 21.5C77.3499 22.1 76.1999 22.4 74.8832 22.4ZM85.1363 22.25C84.553 22.25 84.0447 22.0417 83.6113 21.625C83.1947 21.2083 82.9863 20.7083 82.9863 20.125C82.9863 19.5417 83.1947 19.05 83.6113 18.65C84.0447 18.2333 84.553 18.025 85.1363 18.025C85.703 18.025 86.1947 18.2333 86.6113 18.65C87.028 19.05 87.2363 19.5417 87.2363 20.125C87.2363 20.7083 87.028 21.2083 86.6113 21.625C86.1947 22.0417 85.703 22.25 85.1363 22.25Z" fill="#0E0E0E"/>
</g>
<defs>
<clipPath id="clip0_469_2">
<rect width="137" height="28" fill="white"/>
</clipPath>
</defs>
</svg>
