<svg width="71" height="17" viewBox="0 0 71 17" fill="none" xmlns="http://www.w3.org/2000/svg">
<g clip-path="url(#clip0_978_59)">
<rect width="71" height="17" fill="white"/>
<path d="M4.31818 16.206C3.62216 16.206 3.00189 16.0852 2.45739 15.8438C1.91288 15.5975 1.48201 15.2353 1.16477 14.7571C0.852273 14.2741 0.696023 13.6728 0.696023 12.9531C0.696023 12.3471 0.807292 11.8381 1.02983 11.4261C1.25237 11.0142 1.5554 10.6828 1.93892 10.4318C2.32244 10.1809 2.75805 9.99148 3.24574 9.86364C3.73816 9.7358 4.25426 9.64583 4.79403 9.59375C5.4285 9.52746 5.93987 9.46591 6.32812 9.40909C6.71638 9.34754 6.99811 9.25758 7.1733 9.1392C7.34849 9.02083 7.43608 8.84564 7.43608 8.61364V8.57102C7.43608 8.12121 7.29403 7.7732 7.00994 7.52699C6.73059 7.28078 6.33286 7.15767 5.81676 7.15767C5.27225 7.15767 4.83902 7.27841 4.51705 7.51989C4.19508 7.75663 3.98201 8.05492 3.87784 8.41477L1.07955 8.1875C1.22159 7.52462 1.50095 6.9517 1.91761 6.46875C2.33428 5.98106 2.87169 5.60701 3.52983 5.34659C4.19271 5.08144 4.95975 4.94886 5.83097 4.94886C6.43703 4.94886 7.01705 5.01989 7.57102 5.16193C8.12974 5.30398 8.62453 5.52415 9.0554 5.82244C9.491 6.12074 9.83428 6.50426 10.0852 6.97301C10.3362 7.43703 10.4616 7.99337 10.4616 8.64205V16H7.59233V14.4872H7.5071C7.33191 14.8281 7.09754 15.1288 6.80398 15.3892C6.51042 15.6449 6.15767 15.8461 5.74574 15.9929C5.33381 16.1349 4.85795 16.206 4.31818 16.206ZM5.18466 14.1179C5.62974 14.1179 6.02273 14.0303 6.36364 13.8551C6.70455 13.6752 6.97206 13.4337 7.16619 13.1307C7.36032 12.8277 7.45739 12.4844 7.45739 12.1009V10.9432C7.36269 11.0047 7.23248 11.0616 7.06676 11.1136C6.90578 11.161 6.72349 11.206 6.51989 11.2486C6.31629 11.2865 6.11269 11.322 5.90909 11.3551C5.70549 11.3835 5.52083 11.4096 5.35511 11.4332C5 11.4853 4.68987 11.5682 4.42472 11.6818C4.15956 11.7955 3.9536 11.9493 3.80682 12.1435C3.66004 12.3329 3.58665 12.5696 3.58665 12.8537C3.58665 13.2656 3.7358 13.5805 4.03409 13.7983C4.33712 14.0114 4.72064 14.1179 5.18466 14.1179ZM12.8089 16V5.09091H15.6925V7.01562H15.8203C16.0476 6.37642 16.4264 5.87216 16.9567 5.50284C17.487 5.13352 18.1214 4.94886 18.8601 4.94886C19.6082 4.94886 20.245 5.13589 20.7706 5.50994C21.2962 5.87926 21.6465 6.38116 21.8217 7.01562H21.9354C22.1579 6.39062 22.5604 5.8911 23.1428 5.51705C23.7299 5.13826 24.4235 4.94886 25.2237 4.94886C26.2417 4.94886 27.0679 5.2732 27.7024 5.92188C28.3416 6.56581 28.6612 7.47964 28.6612 8.66335V16H25.6428V9.25994C25.6428 8.65388 25.4818 8.19934 25.1598 7.89631C24.8378 7.59328 24.4354 7.44176 23.9524 7.44176C23.4032 7.44176 22.9747 7.61695 22.6669 7.96733C22.3591 8.31297 22.2053 8.76989 22.2053 9.33807V16H19.272V9.19602C19.272 8.66098 19.1181 8.23485 18.8104 7.91761C18.5073 7.60038 18.1072 7.44176 17.6101 7.44176C17.2739 7.44176 16.9709 7.52699 16.701 7.69744C16.4358 7.86316 16.2251 8.09754 16.0689 8.40057C15.9126 8.69886 15.8345 9.04924 15.8345 9.4517V16H12.8089ZM36.0227 16.2131C34.9006 16.2131 33.9347 15.9858 33.125 15.5312C32.3201 15.072 31.6998 14.4233 31.2642 13.5852C30.8286 12.7424 30.6108 11.7457 30.6108 10.5952C30.6108 9.47301 30.8286 8.48816 31.2642 7.64062C31.6998 6.79309 32.313 6.13258 33.1037 5.65909C33.8991 5.18561 34.8319 4.94886 35.902 4.94886C36.6217 4.94886 37.2917 5.06487 37.9119 5.29688C38.5369 5.52415 39.0814 5.86742 39.5455 6.3267C40.0142 6.78598 40.3788 7.36364 40.6392 8.05966C40.8996 8.75095 41.0298 9.56061 41.0298 10.4886V11.3196H31.8182V9.4446H38.1818C38.1818 9.009 38.0871 8.62311 37.8977 8.28693C37.7083 7.95076 37.4455 7.68797 37.1094 7.49858C36.7779 7.30445 36.392 7.20739 35.9517 7.20739C35.4924 7.20739 35.0852 7.31392 34.7301 7.52699C34.3797 7.73532 34.1051 8.01705 33.9062 8.37216C33.7074 8.72254 33.6056 9.11316 33.6009 9.54403V11.3267C33.6009 11.8665 33.7003 12.3329 33.8991 12.7259C34.1027 13.1188 34.3892 13.4219 34.7585 13.6349C35.1278 13.848 35.5658 13.9545 36.0724 13.9545C36.4086 13.9545 36.7164 13.9072 36.9957 13.8125C37.2751 13.7178 37.5142 13.5758 37.7131 13.3864C37.9119 13.197 38.0634 12.965 38.1676 12.6903L40.9659 12.875C40.8239 13.5473 40.5327 14.1345 40.0923 14.6364C39.6567 15.1335 39.0933 15.5218 38.402 15.8011C37.7154 16.0758 36.9223 16.2131 36.0227 16.2131ZM46.0298 1.45455V16H43.0043V1.45455H46.0298ZM48.4535 16V5.09091H51.479V16H48.4535ZM49.9734 3.68466C49.5236 3.68466 49.1377 3.53551 48.8157 3.23722C48.4985 2.93419 48.3398 2.57197 48.3398 2.15057C48.3398 1.7339 48.4985 1.37642 48.8157 1.07812C49.1377 0.775094 49.5236 0.623579 49.9734 0.623579C50.4232 0.623579 50.8067 0.775094 51.1239 1.07812C51.4459 1.37642 51.6069 1.7339 51.6069 2.15057C51.6069 2.57197 51.4459 2.93419 51.1239 3.23722C50.8067 3.53551 50.4232 3.68466 49.9734 3.68466ZM58.8743 16.2131C57.7521 16.2131 56.7862 15.9858 55.9766 15.5312C55.1716 15.072 54.5514 14.4233 54.1158 13.5852C53.6802 12.7424 53.4624 11.7457 53.4624 10.5952C53.4624 9.47301 53.6802 8.48816 54.1158 7.64062C54.5514 6.79309 55.1645 6.13258 55.9553 5.65909C56.7507 5.18561 57.6835 4.94886 58.7536 4.94886C59.4732 4.94886 60.1432 5.06487 60.7635 5.29688C61.3885 5.52415 61.933 5.86742 62.397 6.3267C62.8658 6.78598 63.2304 7.36364 63.4908 8.05966C63.7512 8.75095 63.8814 9.56061 63.8814 10.4886V11.3196H54.6697V9.4446H61.0334C61.0334 9.009 60.9387 8.62311 60.7493 8.28693C60.5599 7.95076 60.2971 7.68797 59.9609 7.49858C59.6295 7.30445 59.2436 7.20739 58.8033 7.20739C58.344 7.20739 57.9368 7.31392 57.5817 7.52699C57.2313 7.73532 56.9567 8.01705 56.7578 8.37216C56.5589 8.72254 56.4571 9.11316 56.4524 9.54403V11.3267C56.4524 11.8665 56.5518 12.3329 56.7507 12.7259C56.9543 13.1188 57.2408 13.4219 57.6101 13.6349C57.9794 13.848 58.4174 13.9545 58.924 13.9545C59.2602 13.9545 59.5679 13.9072 59.8473 13.8125C60.1267 13.7178 60.3658 13.5758 60.5646 13.3864C60.7635 13.197 60.915 12.965 61.0192 12.6903L63.8175 12.875C63.6754 13.5473 63.3842 14.1345 62.9439 14.6364C62.5083 15.1335 61.9448 15.5218 61.2536 15.8011C60.567 16.0758 59.7739 16.2131 58.8743 16.2131ZM67.7024 16.206C67.1911 16.206 66.7531 16.026 66.3885 15.6662C66.0286 15.3063 65.8511 14.8707 65.8558 14.3594C65.8511 13.8575 66.0286 13.429 66.3885 13.0739C66.7531 12.714 67.1911 12.5341 67.7024 12.5341C68.1854 12.5341 68.6115 12.714 68.9808 13.0739C69.3549 13.429 69.5443 13.8575 69.549 14.3594C69.5443 14.7003 69.4543 15.0104 69.2791 15.2898C69.1087 15.5691 68.8838 15.7917 68.6044 15.9574C68.3298 16.1231 68.0291 16.206 67.7024 16.206Z" fill="black"/>
</g>
<defs>
<clipPath id="clip0_978_59">
<rect width="71" height="17" fill="white"/>
</clipPath>
</defs>
</svg>
