<svg width="158" height="28" viewBox="0 0 158 28" fill="none" xmlns="http://www.w3.org/2000/svg">
<g clip-path="url(#clip0_469_2)">
<rect width="158" height="28" fill="white"/>
<path d="M119.391 22.2C118.498 22.2 117.691 21.98 116.971 21.54C116.264 21.1 115.704 20.4933 115.291 19.72C114.878 18.9333 114.671 18.04 114.671 17.04C114.671 16.0267 114.878 15.1333 115.291 14.36C115.704 13.5867 116.264 12.98 116.971 12.54C117.691 12.0867 118.498 11.86 119.391 11.86C120.111 11.86 120.764 12.0067 121.351 12.3C121.938 12.5933 122.438 13 122.851 13.52C123.264 14.04 123.564 14.6533 123.751 15.36V18.7C123.564 19.4067 123.264 20.0267 122.851 20.56C122.438 21.08 121.938 21.4867 121.351 21.78C120.764 22.06 120.111 22.2 119.391 22.2ZM119.411 21.14C120.144 21.14 120.784 20.9667 121.331 20.62C121.891 20.2733 122.331 19.7933 122.651 19.18C122.971 18.5667 123.131 17.8533 123.131 17.04C123.131 16.2133 122.971 15.4933 122.651 14.88C122.331 14.2667 121.891 13.7867 121.331 13.44C120.784 13.0933 120.144 12.92 119.411 12.92C118.718 12.92 118.091 13.0933 117.531 13.44C116.984 13.7867 116.551 14.2667 116.231 14.88C115.924 15.4933 115.771 16.2133 115.771 17.04C115.771 17.8533 115.924 18.5667 116.231 19.18C116.551 19.7933 116.984 20.2733 117.531 20.62C118.091 20.9667 118.718 21.14 119.411 21.14ZM123.151 22V18.46L123.411 17.04L123.131 15.62V7.6L124.171 7.46L124.231 7.62V22H123.151ZM131.62 22.2C130.674 22.2 129.834 21.9867 129.1 21.56C128.38 21.12 127.814 20.5133 127.4 19.74C126.987 18.9667 126.78 18.0667 126.78 17.04C126.78 16.0133 126.987 15.1133 127.4 14.34C127.814 13.5533 128.38 12.9467 129.1 12.52C129.834 12.08 130.674 11.86 131.62 11.86C132.567 11.86 133.4 12.08 134.12 12.52C134.84 12.9467 135.407 13.5533 135.82 14.34C136.234 15.1133 136.44 16.0133 136.44 17.04C136.44 18.0533 136.234 18.9533 135.82 19.74C135.407 20.5133 134.84 21.12 134.12 21.56C133.4 21.9867 132.567 22.2 131.62 22.2ZM131.62 21.14C132.34 21.14 132.98 20.9733 133.54 20.64C134.1 20.2933 134.54 19.8133 134.86 19.2C135.18 18.5733 135.34 17.8533 135.34 17.04C135.34 16.2 135.18 15.48 134.86 14.88C134.54 14.2667 134.1 13.7867 133.54 13.44C132.98 13.0933 132.34 12.92 131.62 12.92C130.9 12.92 130.254 13.0933 129.68 13.44C129.12 13.7867 128.68 14.2667 128.36 14.88C128.04 15.48 127.88 16.2 127.88 17.04C127.88 17.8533 128.04 18.5733 128.36 19.2C128.68 19.8133 129.12 20.2933 129.68 20.64C130.254 20.9733 130.9 21.14 131.62 21.14ZM143.026 22.2C142.08 22.2 141.24 21.9867 140.506 21.56C139.786 21.12 139.22 20.5133 138.806 19.74C138.406 18.9533 138.206 18.0533 138.206 17.04C138.206 16.0133 138.406 15.1133 138.806 14.34C139.22 13.5533 139.786 12.9467 140.506 12.52C141.24 12.08 142.08 11.86 143.026 11.86C143.8 11.86 144.473 12 145.046 12.28C145.633 12.56 146.126 12.94 146.526 13.42C146.926 13.9 147.233 14.4467 147.446 15.06L146.546 15.34H146.326C146.06 14.6333 145.653 14.0533 145.106 13.6C144.56 13.1467 143.866 12.92 143.026 12.92C142.266 12.92 141.606 13.1 141.046 13.46C140.5 13.82 140.073 14.3067 139.766 14.92C139.46 15.5333 139.306 16.24 139.306 17.04C139.306 17.8133 139.46 18.5133 139.766 19.14C140.073 19.7667 140.5 20.26 141.046 20.62C141.606 20.9667 142.266 21.14 143.026 21.14C143.613 21.14 144.12 21.04 144.546 20.84C144.986 20.6267 145.36 20.34 145.666 19.98C145.986 19.62 146.233 19.2067 146.406 18.74H146.626L147.526 19C147.3 19.6267 146.98 20.1867 146.566 20.68C146.153 21.16 145.653 21.5333 145.066 21.8C144.493 22.0667 143.813 22.2 143.026 22.2ZM152.903 22.2C151.903 22.2 151.063 21.96 150.383 21.48C149.703 20.9867 149.256 20.2867 149.043 19.38L149.983 19.16L150.203 19.2C150.363 19.8133 150.696 20.2933 151.203 20.64C151.709 20.9733 152.316 21.14 153.023 21.14C153.743 21.14 154.343 20.9667 154.823 20.62C155.316 20.2733 155.563 19.8267 155.563 19.28C155.563 18.84 155.423 18.4867 155.143 18.22C154.863 17.9533 154.423 17.7467 153.823 17.6L152.003 17.2C151.109 17 150.449 16.6667 150.023 16.2C149.609 15.7333 149.403 15.1867 149.403 14.56C149.403 14.0267 149.543 13.56 149.823 13.16C150.116 12.76 150.516 12.4467 151.023 12.22C151.543 11.98 152.129 11.86 152.783 11.86C153.783 11.86 154.609 12.12 155.263 12.64C155.916 13.16 156.336 13.86 156.523 14.74L155.583 14.94L155.363 14.9C155.229 14.2467 154.909 13.7533 154.403 13.42C153.896 13.0867 153.336 12.92 152.723 12.92C152.096 12.92 151.569 13.0667 151.143 13.36C150.729 13.6533 150.523 14.0333 150.523 14.5C150.523 14.94 150.676 15.2933 150.983 15.56C151.303 15.8267 151.743 16.02 152.303 16.14L154.123 16.56C154.976 16.7467 155.616 17.0667 156.043 17.52C156.469 17.96 156.683 18.5133 156.683 19.18C156.683 19.7933 156.516 20.3267 156.183 20.78C155.863 21.2333 155.423 21.5867 154.863 21.84C154.303 22.08 153.649 22.2 152.903 22.2Z" fill="#C7C7C7"/>
<path d="M7.35 22.4C6.48333 22.4 5.70833 22.2333 5.025 21.9C4.35833 21.5667 3.83333 21.1 3.45 20.5C3.06667 19.9 2.875 19.2167 2.875 18.45C2.875 17.2167 3.29167 16.2417 4.125 15.525C4.975 14.7917 6.20833 14.3583 7.825 14.225L12.75 13.8V16.5L8.25 16.875C7.53333 16.9417 7.025 17.0917 6.725 17.325C6.44167 17.5583 6.3 17.8583 6.3 18.225C6.3 18.5917 6.475 18.8917 6.825 19.125C7.175 19.3417 7.61667 19.45 8.15 19.45C8.73333 19.45 9.25833 19.3 9.725 19C10.2083 18.7 10.5917 18.3167 10.875 17.85C11.1583 17.3667 11.3 16.8583 11.3 16.325V14.25C11.3 13.5333 11.05 12.9417 10.55 12.475C10.05 12.0083 9.41667 11.775 8.65 11.775C7.93333 11.775 7.35833 11.9583 6.925 12.325C6.49167 12.675 6.23333 13.0667 6.15 13.5H5.875L3.025 12.9C3.275 11.7667 3.89167 10.8167 4.875 10.05C5.875 9.28333 7.13333 8.9 8.65 8.9C10.4833 8.9 11.925 9.41667 12.975 10.45C14.0417 11.4833 14.575 12.9417 14.575 14.825V22H11.65V18.3H12.875C12.675 19.0333 12.3083 19.7167 11.775 20.35C11.2583 20.9667 10.625 21.4667 9.875 21.85C9.125 22.2167 8.28333 22.4 7.35 22.4ZM17.4404 22V9.3H20.5654V12.1L20.1404 11.625C20.4571 11.0417 20.8238 10.55 21.2404 10.15C21.6571 9.75 22.1488 9.44167 22.7154 9.225C23.2988 9.00833 23.9738 8.9 24.7404 8.9C25.7571 8.9 26.6821 9.18333 27.5154 9.75C28.3488 10.3 28.9238 11.1333 29.2404 12.25L28.2654 12.175C28.5821 11.475 28.9988 10.8833 29.5154 10.4C30.0488 9.91667 30.6488 9.55 31.3154 9.3C31.9988 9.03333 32.7071 8.9 33.4404 8.9C34.2904 8.9 35.0738 9.1 35.7904 9.5C36.5238 9.88333 37.1071 10.4583 37.5404 11.225C37.9904 11.9917 38.2154 12.95 38.2154 14.1V22H34.8404V14.925C34.8404 14.275 34.7404 13.725 34.5404 13.275C34.3571 12.825 34.0904 12.4833 33.7404 12.25C33.4071 12.0167 32.9988 11.9 32.5154 11.9C32.1321 11.9 31.7071 12.0083 31.2404 12.225C30.7738 12.4417 30.3654 12.8333 30.0154 13.4C29.6821 13.95 29.5154 14.7583 29.5154 15.825V22H26.1404V14.925C26.1404 14.275 26.0404 13.725 25.8404 13.275C25.6571 12.825 25.3904 12.4833 25.0404 12.25C24.7071 12.0167 24.2988 11.9 23.8154 11.9C23.4321 11.9 23.0071 12.0083 22.5404 12.225C22.0738 12.4417 21.6654 12.8333 21.3154 13.4C20.9821 13.95 20.8154 14.7583 20.8154 15.825V22H17.4404ZM47.1977 22.4C45.8643 22.4 44.6893 22.1167 43.6727 21.55C42.6727 20.9833 41.8893 20.1917 41.3227 19.175C40.756 18.1583 40.4727 16.9833 40.4727 15.65C40.4727 14.3167 40.7477 13.1417 41.2977 12.125C41.8643 11.1083 42.6393 10.3167 43.6227 9.75C44.606 9.18333 45.7477 8.9 47.0477 8.9C48.331 8.9 49.4477 9.19167 50.3977 9.775C51.3477 10.3583 52.0893 11.175 52.6227 12.225C53.156 13.275 53.4227 14.5 53.4227 15.9V16.5L53.0477 16.875H41.9727V14.2H52.0477L50.1727 14.875C50.1727 14.2583 50.031 13.7167 49.7477 13.25C49.481 12.7833 49.1143 12.425 48.6477 12.175C48.1977 11.9083 47.6893 11.775 47.1227 11.775C46.4893 11.775 45.9227 11.9167 45.4227 12.2C44.9227 12.4667 44.531 12.8417 44.2477 13.325C43.981 13.7917 43.8477 14.3333 43.8477 14.95V16.275C43.8477 16.8583 43.9977 17.4 44.2977 17.9C44.6143 18.3833 45.0227 18.775 45.5227 19.075C46.0393 19.375 46.5977 19.525 47.1977 19.525C47.731 19.525 48.2477 19.3667 48.7477 19.05C49.2477 18.7333 49.6393 18.3083 49.9227 17.775H50.2227L52.9227 18.9C52.406 20.0333 51.6477 20.9 50.6477 21.5C49.6643 22.1 48.5143 22.4 47.1977 22.4ZM55.9199 22V4L59.2199 3.6L59.2949 3.8V22H55.9199ZM62.4111 22V9.3H65.7861V22H62.4111ZM64.1111 7.7C63.5445 7.7 63.0611 7.5 62.6611 7.1C62.2611 6.7 62.0611 6.21667 62.0611 5.65C62.0611 5.1 62.2611 4.625 62.6611 4.225C63.0611 3.825 63.5445 3.625 64.1111 3.625C64.6611 3.625 65.1361 3.825 65.5361 4.225C65.9361 4.625 66.1361 5.1 66.1361 5.65C66.1361 6.21667 65.9361 6.7 65.5361 7.1C65.1361 7.5 64.6611 7.7 64.1111 7.7ZM74.8832 22.4C73.5499 22.4 72.3749 22.1167 71.3582 21.55C70.3582 20.9833 69.5749 20.1917 69.0082 19.175C68.4415 18.1583 68.1582 16.9833 68.1582 15.65C68.1582 14.3167 68.4332 13.1417 68.9832 12.125C69.5499 11.1083 70.3249 10.3167 71.3082 9.75C72.2915 9.18333 73.4332 8.9 74.7332 8.9C76.0165 8.9 77.1332 9.19167 78.0832 9.775C79.0332 10.3583 79.7749 11.175 80.3082 12.225C80.8415 13.275 81.1082 14.5 81.1082 15.9V16.5L80.7332 16.875H69.6582V14.2H79.7332L77.8582 14.875C77.8582 14.2583 77.7165 13.7167 77.4332 13.25C77.1665 12.7833 76.7999 12.425 76.3332 12.175C75.8832 11.9083 75.3749 11.775 74.8082 11.775C74.1749 11.775 73.6082 11.9167 73.1082 12.2C72.6082 12.4667 72.2165 12.8417 71.9332 13.325C71.6665 13.7917 71.5332 14.3333 71.5332 14.95V16.275C71.5332 16.8583 71.6832 17.4 71.9832 17.9C72.2999 18.3833 72.7082 18.775 73.2082 19.075C73.7249 19.375 74.2832 19.525 74.8832 19.525C75.4165 19.525 75.9332 19.3667 76.4332 19.05C76.9332 18.7333 77.3249 18.3083 77.6082 17.775H77.9082L80.6082 18.9C80.0915 20.0333 79.3332 20.9 78.3332 21.5C77.3499 22.1 76.1999 22.4 74.8832 22.4ZM85.1363 22.25C84.553 22.25 84.0447 22.0417 83.6113 21.625C83.1947 21.2083 82.9863 20.7083 82.9863 20.125C82.9863 19.5417 83.1947 19.05 83.6113 18.65C84.0447 18.2333 84.553 18.025 85.1363 18.025C85.703 18.025 86.1947 18.2333 86.6113 18.65C87.028 19.05 87.2363 19.5417 87.2363 20.125C87.2363 20.7083 87.028 21.2083 86.6113 21.625C86.1947 22.0417 85.703 22.25 85.1363 22.25Z" fill="#0E0E0E"/>
<line x1="103.5" y1="2.18556e-08" x2="103.5" y2="28" stroke="#E5E7EB"/>
</g>
<defs>
<clipPath id="clip0_469_2">
<rect width="158" height="28" fill="white"/>
</clipPath>
</defs>
</svg>
