<svg width="16" height="16" viewBox="0 0 16 16" fill="none" xmlns="http://www.w3.org/2000/svg">
<g clip-path="url(#clip0_822_5)">
<path d="M10.6667 8.00002V4.00002C10.6667 3.6464 10.5262 3.30726 10.2761 3.05721C10.0261 2.80716 9.68696 2.66669 9.33333 2.66669C8.97971 2.66669 8.64057 2.80716 8.39052 3.05721C8.14048 3.30726 8 3.6464 8 4.00002V8.00002H12C12.2637 8.00002 12.5215 7.92182 12.7408 7.77531C12.96 7.6288 13.1309 7.42057 13.2318 7.17693C13.3328 6.9333 13.3592 6.66521 13.3077 6.40657C13.2563 6.14793 13.1293 5.91035 12.9428 5.72388C12.7563 5.53741 12.5188 5.41042 12.2601 5.35897C12.0015 5.30753 11.7334 5.33393 11.4898 5.43485C11.2461 5.53576 11.0379 5.70666 10.8914 5.92593C10.7449 6.14519 10.6667 6.40298 10.6667 6.66669" stroke="#CCCCCC" stroke-width="2" stroke-linecap="round" stroke-linejoin="round"/>
<path d="M8 10.6667H12C12.3536 10.6667 12.6928 10.5262 12.9428 10.2761C13.1929 10.0261 13.3333 9.68696 13.3333 9.33333C13.3333 8.97971 13.1929 8.64057 12.9428 8.39052C12.6928 8.14048 12.3536 8 12 8H8V12C8 12.2637 8.0782 12.5215 8.22471 12.7408C8.37122 12.96 8.57945 13.1309 8.82309 13.2318C9.06672 13.3328 9.33481 13.3592 9.59345 13.3077C9.8521 13.2563 10.0897 13.1293 10.2761 12.9428C10.4626 12.7563 10.5896 12.5188 10.641 12.2601C10.6925 12.0015 10.6661 11.7334 10.5652 11.4898C10.4643 11.2461 10.2934 11.0379 10.0741 10.8914C9.85483 10.7449 9.59704 10.6667 9.33333 10.6667" stroke="#CCCCCC" stroke-width="2" stroke-linecap="round" stroke-linejoin="round"/>
<path d="M5.33366 8V12C5.33366 12.3536 5.47414 12.6928 5.72418 12.9428C5.97423 13.1929 6.31337 13.3333 6.66699 13.3333C7.02061 13.3333 7.35975 13.1929 7.6098 12.9428C7.85985 12.6928 8.00033 12.3536 8.00033 12V8H4.00033C3.73662 8 3.47883 8.0782 3.25957 8.22471C3.0403 8.37122 2.8694 8.57945 2.76849 8.82309C2.66757 9.06672 2.64117 9.33481 2.69261 9.59345C2.74406 9.8521 2.87105 10.0897 3.05752 10.2761C3.24399 10.4626 3.48156 10.5896 3.74021 10.641C3.99885 10.6925 4.26694 10.6661 4.51057 10.5652C4.75421 10.4643 4.96244 10.2934 5.10895 10.0741C5.25546 9.85483 5.33366 9.59704 5.33366 9.33333" stroke="#CCCCCC" stroke-width="2" stroke-linecap="round" stroke-linejoin="round"/>
<path d="M8.00033 5.33335H4.00033C3.6467 5.33335 3.30756 5.47383 3.05752 5.72388C2.80747 5.97393 2.66699 6.31307 2.66699 6.66669C2.66699 7.02031 2.80747 7.35945 3.05752 7.6095C3.30756 7.85955 3.6467 8.00002 4.00033 8.00002H8.00033V4.00002C8.00033 3.73631 7.92213 3.47853 7.77562 3.25926C7.62911 3.04 7.42087 2.8691 7.17724 2.76818C6.9336 2.66726 6.66551 2.64086 6.40687 2.69231C6.14823 2.74375 5.91065 2.87074 5.72418 3.05721C5.53771 3.24368 5.41073 3.48126 5.35928 3.7399C5.30783 3.99854 5.33424 4.26663 5.43515 4.51027C5.53607 4.7539 5.70697 4.96214 5.92623 5.10865C6.1455 5.25516 6.40328 5.33335 6.66699 5.33335" stroke="#CCCCCC" stroke-width="2" stroke-linecap="round" stroke-linejoin="round"/>
</g>
<defs>
<clipPath id="clip0_822_5">
<rect width="16" height="16" fill="white"/>
</clipPath>
</defs>
</svg>
